<svg xmlns="http://www.w3.org/2000/svg" width="600" height="600" id="cTXyEvtm">        
    <text x="20" y="20" font-family="sans-serif" font-size="14px" fill="#666" style="cursor: pointer" id="cTXyEvtm_svg_txt">[save svg]</text>
<defs><marker id="end" viewBox="0 -5 20 20" refX="34" refY="0" markerWidth="15" markerHeight="15" orient="auto"><path d="M0,-5 L20,0 L0,5 z" fill="#999" stroke="none"/></marker></defs><g class="everything" transform="translate(73.6389286067652,34.785523456255675) scale(0.8705505632961242)"><g class="links_cTXyEvtm"><line stroke-width="0.5" stroke="#999999" x1="389.37434620017206" y1="387.67946225351386" x2="366.0810807639342" y2="349.4799754849122"/><line stroke-width="0.125" stroke="#999999" x1="389.37434620017206" y1="387.67946225351386" x2="427.8798633132775" y2="346.69308822059514"/><line stroke-width="0.23529411764705882" stroke="#999999" x1="319.87503161458784" y1="324.31370170501873" x2="366.0810807639342" y2="349.4799754849122"/><line stroke-width="0.23529411764705882" stroke="#999999" x1="319.87503161458784" y1="324.31370170501873" x2="276.5495271597727" y2="294.6945729012229"/><line stroke-width="0.4117647058823529" stroke="#999999" x1="319.87503161458784" y1="324.31370170501873" x2="394.2850687990498" y2="307.1374656209612"/><line stroke-width="0.23529411764705882" stroke="#999999" x1="319.87503161458784" y1="324.31370170501873" x2="373.1081744247367" y2="268.68552251004115"/><line stroke-width="0.0196078431372549" stroke="#999999" x1="319.87503161458784" y1="324.31370170501873" x2="275.69510256350117" y2="368.19619254920667"/><line stroke-width="0.0196078431372549" stroke="#999999" x1="319.87503161458784" y1="324.31370170501873" x2="323.5764447213152" y2="236.45404462880867"/><line stroke-width="0.0196078431372549" stroke="#999999" x1="319.87503161458784" y1="324.31370170501873" x2="303.162024373951" y2="391.0892105335224"/><line stroke-width="0.0196078431372549" stroke="#999999" x1="319.87503161458784" y1="324.31370170501873" x2="320.39198617863815" y2="276.7274166107208"/><line stroke-width="0.03896103896103896" stroke="#999999" x1="366.0810807639342" y1="349.4799754849122" x2="389.37434620017206" y2="387.67946225351386"/><line stroke-width="0.03896103896103896" stroke="#999999" x1="366.0810807639342" y1="349.4799754849122" x2="319.87503161458784" y2="324.31370170501873"/><line stroke-width="0.03896103896103896" stroke="#999999" x1="366.0810807639342" y1="349.4799754849122" x2="276.5495271597727" y2="294.6945729012229"/><line stroke-width="0.37662337662337664" stroke="#999999" x1="366.0810807639342" y1="349.4799754849122" x2="394.2850687990498" y2="307.1374656209612"/><line stroke-width="0.06493506493506494" stroke="#999999" x1="366.0810807639342" y1="349.4799754849122" x2="373.1081744247367" y2="268.68552251004115"/><line stroke-width="0.05194805194805195" stroke="#999999" x1="366.0810807639342" y1="349.4799754849122" x2="427.8798633132775" y2="346.69308822059514"/><line stroke-width="0.125" stroke="#999999" x1="516.0963843156791" y1="190.79173952607482" x2="493.9531765397662" y2="156.31870763719928"/><line stroke-width="0.25" stroke="#999999" x1="21.618128058097337" y1="382.15853074034715" x2="35.26288383265224" y2="420.7596102052755"/><line stroke-width="0.85" stroke="#999999" x1="249.91269392019825" y1="248.33406316018514" x2="276.5495271597727" y2="294.6945729012229"/><line stroke-width="0.65" stroke="#999999" x1="249.91269392019825" y1="248.33406316018514" x2="222.51965232004113" y2="283.50627544275295"/><line stroke-width="0.15000000000000002" stroke="#999999" x1="249.91269392019825" y1="248.33406316018514" x2="394.2850687990498" y2="307.1374656209612"/><line stroke-width="0.125" stroke="#999999" x1="276.5495271597727" y1="294.6945729012229" x2="319.87503161458784" y2="324.31370170501873"/><line stroke-width="0.125" stroke="#999999" x1="276.5495271597727" y1="294.6945729012229" x2="366.0810807639342" y2="349.4799754849122"/><line stroke-width="0.7083333333333334" stroke="#999999" x1="276.5495271597727" y1="294.6945729012229" x2="249.91269392019825" y2="248.33406316018514"/><line stroke-width="0.6666666666666667" stroke="#999999" x1="276.5495271597727" y1="294.6945729012229" x2="222.51965232004113" y2="283.50627544275295"/><line stroke-width="0.2916666666666667" stroke="#999999" x1="276.5495271597727" y1="294.6945729012229" x2="394.2850687990498" y2="307.1374656209612"/><line stroke-width="0.125" stroke="#999999" x1="276.5495271597727" y1="294.6945729012229" x2="373.1081744247367" y2="268.68552251004115"/><line stroke-width="1" stroke="#999999" x1="433.3195894939834" y1="285.453279680457" x2="394.2850687990498" y2="307.1374656209612"/><line stroke-width="0.8571428571428571" stroke="#999999" x1="222.51965232004113" y1="283.50627544275295" x2="249.91269392019825" y2="248.33406316018514"/><line stroke-width="0.9285714285714285" stroke="#999999" x1="222.51965232004113" y1="283.50627544275295" x2="276.5495271597727" y2="294.6945729012229"/><line stroke-width="0.5" stroke="#999999" x1="493.9531765397662" y1="156.31870763719928" x2="516.0963843156791" y2="190.79173952607482"/><line stroke-width="0.05517241379310345" stroke="#999999" x1="394.2850687990498" y1="307.1374656209612" x2="319.87503161458784" y2="324.31370170501873"/><line stroke-width="0.17586206896551726" stroke="#999999" x1="394.2850687990498" y1="307.1374656209612" x2="366.0810807639342" y2="349.4799754849122"/><line stroke-width="0.034482758620689655" stroke="#999999" x1="394.2850687990498" y1="307.1374656209612" x2="249.91269392019825" y2="248.33406316018514"/><line stroke-width="0.034482758620689655" stroke="#999999" x1="394.2850687990498" y1="307.1374656209612" x2="276.5495271597727" y2="294.6945729012229"/><line stroke-width="0.05862068965517241" stroke="#999999" x1="394.2850687990498" y1="307.1374656209612" x2="433.3195894939834" y2="285.453279680457"/><line stroke-width="0.306896551724138" stroke="#999999" x1="394.2850687990498" y1="307.1374656209612" x2="373.1081744247367" y2="268.68552251004115"/><line stroke-width="0.017241379310344827" stroke="#999999" x1="394.2850687990498" y1="307.1374656209612" x2="427.8798633132775" y2="346.69308822059514"/><line stroke-width="0.0297029702970297" stroke="#999999" x1="373.1081744247367" y1="268.68552251004115" x2="319.87503161458784" y2="324.31370170501873"/><line stroke-width="0.04950495049504951" stroke="#999999" x1="373.1081744247367" y1="268.68552251004115" x2="366.0810807639342" y2="349.4799754849122"/><line stroke-width="0.0297029702970297" stroke="#999999" x1="373.1081744247367" y1="268.68552251004115" x2="276.5495271597727" y2="294.6945729012229"/><line stroke-width="0.7920792079207921" stroke="#999999" x1="373.1081744247367" y1="268.68552251004115" x2="394.2850687990498" y2="307.1374656209612"/><line stroke-width="1" stroke="#999999" x1="275.69510256350117" y1="368.19619254920667" x2="319.87503161458784" y2="324.31370170501873"/><line stroke-width="1" stroke="#999999" x1="275.69510256350117" y1="368.19619254920667" x2="303.162024373951" y2="391.0892105335224"/><line stroke-width="0.5" stroke="#999999" x1="323.5764447213152" y1="236.45404462880867" x2="319.87503161458784" y2="324.31370170501873"/><line stroke-width="0.5" stroke="#999999" x1="323.5764447213152" y1="236.45404462880867" x2="320.39198617863815" y2="276.7274166107208"/><line stroke-width="1" stroke="#999999" x1="303.162024373951" y1="391.0892105335224" x2="319.87503161458784" y2="324.31370170501873"/><line stroke-width="1" stroke="#999999" x1="303.162024373951" y1="391.0892105335224" x2="275.69510256350117" y2="368.19619254920667"/><line stroke-width="1" stroke="#999999" x1="127.3094412591862" y1="360.9001816846436" x2="144.86961759005072" y2="398.0412775259969"/><line stroke-width="0.021052631578947368" stroke="#999999" x1="427.8798633132775" y1="346.69308822059514" x2="389.37434620017206" y2="387.67946225351386"/><line stroke-width="0.031578947368421054" stroke="#999999" x1="427.8798633132775" y1="346.69308822059514" x2="366.0810807639342" y2="349.4799754849122"/><line stroke-width="0.4842105263157894" stroke="#999999" x1="427.8798633132775" y1="346.69308822059514" x2="394.2850687990498" y2="307.1374656209612"/><line stroke-width="1" stroke="#999999" x1="144.86961759005072" y1="398.0412775259969" x2="127.3094412591862" y2="360.9001816846436"/><line stroke-width="1" stroke="#999999" x1="35.26288383265224" y1="420.7596102052755" x2="21.618128058097337" y2="382.15853074034715"/><line stroke-width="1" stroke="#999999" x1="320.39198617863815" y1="276.7274166107208" x2="319.87503161458784" y2="324.31370170501873"/><line stroke-width="1" stroke="#999999" x1="320.39198617863815" y1="276.7274166107208" x2="323.5764447213152" y2="236.45404462880867"/></g><g class="nodes_cTXyEvtm"><g><circle id="n_54" r="5" fill="#99ccff" cx="389.37434620017206" cy="387.67946225351386"><title>n_54</title></circle><text x="0" y="-7" id="n_54" class="label_cTXyEvtm" transform="translate(389.37434620017206,387.67946225351386)" cx="389.37434620017206" cy="387.67946225351386">n_54</text></g><g><circle id="n_1" r="5" fill="#99ccff" cx="319.87503161458784" cy="324.31370170501873"><title>n_1</title></circle><text x="0" y="-7" id="n_1" class="label_cTXyEvtm" transform="translate(319.87503161458784,324.31370170501873)" cx="319.87503161458784" cy="324.31370170501873">n_1</text></g><g><circle id="n_18" r="5" fill="#99ccff" cx="366.0810807639342" cy="349.4799754849122"><title>n_18</title></circle><text x="0" y="-7" id="n_18" class="label_cTXyEvtm" transform="translate(366.0810807639342,349.4799754849122)" cx="366.0810807639342" cy="349.4799754849122">n_18</text></g><g><circle id="n_55" r="5" fill="#99ccff" cx="516.0963843156791" cy="190.79173952607482"><title>n_55</title></circle><text x="0" y="-7" id="n_55" class="label_cTXyEvtm" transform="translate(516.0963843156791,190.79173952607482)" cx="516.0963843156791" cy="190.79173952607482">n_55</text></g><g><circle id="n_56" r="5" fill="#99ccff" cx="21.618128058097337" cy="382.15853074034715"><title>n_56</title></circle><text x="0" y="-7" id="n_56" class="label_cTXyEvtm" transform="translate(21.618128058097337,382.15853074034715)" cx="21.618128058097337" cy="382.15853074034715">n_56</text></g><g><circle id="n_57" r="5" fill="#99ccff" cx="249.91269392019825" cy="248.33406316018514"><title>n_57</title></circle><text x="0" y="-7" id="n_57" class="label_cTXyEvtm" transform="translate(249.91269392019825,248.33406316018514)" cx="249.91269392019825" cy="248.33406316018514">n_57</text></g><g><circle id="n_58" r="5" fill="#99ccff" cx="258.21373702735065" cy="595.1629989040906"><title>n_58</title></circle><text x="0" y="-7" id="n_58" class="label_cTXyEvtm" transform="translate(258.21373702735065,595.1629989040906)" cx="258.21373702735065" cy="595.1629989040906">n_58</text></g><g><circle id="n_59" r="5" fill="#99ccff" cx="276.5495271597727" cy="294.6945729012229"><title>n_59</title></circle><text x="0" y="-7" id="n_59" class="label_cTXyEvtm" transform="translate(276.5495271597727,294.6945729012229)" cx="276.5495271597727" cy="294.6945729012229">n_59</text></g><g><circle id="n_60" r="5" fill="#99ccff" cx="433.3195894939834" cy="285.453279680457"><title>n_60</title></circle><text x="0" y="-7" id="n_60" class="label_cTXyEvtm" transform="translate(433.3195894939834,285.453279680457)" cx="433.3195894939834" cy="285.453279680457">n_60</text></g><g><circle id="n_61" r="5" fill="#99ccff" cx="222.51965232004113" cy="283.50627544275295"><title>n_61</title></circle><text x="0" y="-7" id="n_61" class="label_cTXyEvtm" transform="translate(222.51965232004113,283.50627544275295)" cx="222.51965232004113" cy="283.50627544275295">n_61</text></g><g><circle id="n_62" r="5" fill="#99ccff" cx="493.9531765397662" cy="156.31870763719928"><title>n_62</title></circle><text x="0" y="-7" id="n_62" class="label_cTXyEvtm" transform="translate(493.9531765397662,156.31870763719928)" cx="493.9531765397662" cy="156.31870763719928">n_62</text></g><g><circle id="n_63" r="5" fill="#99ccff" cx="394.2850687990498" cy="307.1374656209612"><title>n_63</title></circle><text x="0" y="-7" id="n_63" class="label_cTXyEvtm" transform="translate(394.2850687990498,307.1374656209612)" cx="394.2850687990498" cy="307.1374656209612">n_63</text></g><g><circle id="n_64" r="5" fill="#99ccff" cx="97.56865862810125" cy="143.82982103732508"><title>n_64</title></circle><text x="0" y="-7" id="n_64" class="label_cTXyEvtm" transform="translate(97.56865862810125,143.82982103732508)" cx="97.56865862810125" cy="143.82982103732508">n_64</text></g><g><circle id="n_14" r="5" fill="#99ccff" cx="373.1081744247367" cy="268.68552251004115"><title>n_14</title></circle><text x="0" y="-7" id="n_14" class="label_cTXyEvtm" transform="translate(373.1081744247367,268.68552251004115)" cx="373.1081744247367" cy="268.68552251004115">n_14</text></g><g><circle id="n_65" r="5" fill="#99ccff" cx="275.69510256350117" cy="368.19619254920667"><title>n_65</title></circle><text x="0" y="-7" id="n_65" class="label_cTXyEvtm" transform="translate(275.69510256350117,368.19619254920667)" cx="275.69510256350117" cy="368.19619254920667">n_65</text></g><g><circle id="n_66" r="5" fill="#99ccff" cx="323.5764447213152" cy="236.45404462880867"><title>n_66</title></circle><text x="0" y="-7" id="n_66" class="label_cTXyEvtm" transform="translate(323.5764447213152,236.45404462880867)" cx="323.5764447213152" cy="236.45404462880867">n_66</text></g><g><circle id="n_67" r="5" fill="#99ccff" cx="303.162024373951" cy="391.0892105335224"><title>n_67</title></circle><text x="0" y="-7" id="n_67" class="label_cTXyEvtm" transform="translate(303.162024373951,391.0892105335224)" cx="303.162024373951" cy="391.0892105335224">n_67</text></g><g><circle id="n_68" r="5" fill="#99ccff" cx="127.3094412591862" cy="360.9001816846436"><title>n_68</title></circle><text x="0" y="-7" id="n_68" class="label_cTXyEvtm" transform="translate(127.3094412591862,360.9001816846436)" cx="127.3094412591862" cy="360.9001816846436">n_68</text></g><g><circle id="n_69" r="5" fill="#99ccff" cx="518.2617206068915" cy="41.63247045817802"><title>n_69</title></circle><text x="0" y="-7" id="n_69" class="label_cTXyEvtm" transform="translate(518.2617206068915,41.63247045817802)" cx="518.2617206068915" cy="41.63247045817802">n_69</text></g><g><circle id="n_70" r="5" fill="#99ccff" cx="427.8798633132775" cy="346.69308822059514"><title>n_70</title></circle><text x="0" y="-7" id="n_70" class="label_cTXyEvtm" transform="translate(427.8798633132775,346.69308822059514)" cx="427.8798633132775" cy="346.69308822059514">n_70</text></g><g><circle id="n_71" r="5" fill="#99ccff" cx="133.27356617232138" cy="14.726647187695239"><title>n_71</title></circle><text x="0" y="-7" id="n_71" class="label_cTXyEvtm" transform="translate(133.27356617232138,14.726647187695239)" cx="133.27356617232138" cy="14.726647187695239">n_71</text></g><g><circle id="n_72" r="5" fill="#99ccff" cx="144.86961759005072" cy="398.0412775259969"><title>n_72</title></circle><text x="0" y="-7" id="n_72" class="label_cTXyEvtm" transform="translate(144.86961759005072,398.0412775259969)" cx="144.86961759005072" cy="398.0412775259969">n_72</text></g><g><circle id="n_73" r="5" fill="#99ccff" cx="35.26288383265224" cy="420.7596102052755"><title>n_73</title></circle><text x="0" y="-7" id="n_73" class="label_cTXyEvtm" transform="translate(35.26288383265224,420.7596102052755)" cx="35.26288383265224" cy="420.7596102052755">n_73</text></g><g><circle id="n_74" r="5" fill="#99ccff" cx="320.39198617863815" cy="276.7274166107208"><title>n_74</title></circle><text x="0" y="-7" id="n_74" class="label_cTXyEvtm" transform="translate(320.39198617863815,276.7274166107208)" cx="320.39198617863815" cy="276.7274166107208">n_74</text></g><g><circle id="n_75" r="5" fill="#99ccff" cx="472.90874482614026" cy="608.9245763555228"><title>n_75</title></circle><text x="0" y="-7" id="n_75" class="label_cTXyEvtm" transform="translate(472.90874482614026,608.9245763555228)" cx="472.90874482614026" cy="608.9245763555228">n_75</text></g><g><circle id="n_76" r="5" fill="#99ccff" cx="-26.440777276725232" cy="218.99637064090427"><title>n_76</title></circle><text x="0" y="-7" id="n_76" class="label_cTXyEvtm" transform="translate(-26.440777276725232,218.99637064090427)" cx="-26.440777276725232" cy="218.99637064090427">n_76</text></g><g><circle id="n_77" r="5" fill="#99ccff" cx="631.3654862094126" cy="199.3237976588877"><title>n_77</title></circle><text x="0" y="-7" id="n_77" class="label_cTXyEvtm" transform="translate(631.3654862094126,199.3237976588877)" cx="631.3654862094126" cy="199.3237976588877">n_77</text></g></g></g></svg>