<svg xmlns="http://www.w3.org/2000/svg" width="600" height="600" id="hROSyHCy">        
    <text x="20" y="20" font-family="sans-serif" font-size="14px" fill="#666" style="cursor: pointer" id="hROSyHCy_svg_txt">[save svg]</text>
<defs><marker id="end" viewBox="0 -5 20 20" refX="34" refY="0" markerWidth="15" markerHeight="15" orient="auto"><path d="M0,-5 L20,0 L0,5 z" fill="#999" stroke="none"/></marker></defs><g class="everything"><g class="links_hROSyHCy"><line stroke-width="0.5" stroke="#999999" x1="389.1003699129811" y1="387.5240691120251" x2="366.0313547296962" y2="349.15103053771776"/><line stroke-width="0.125" stroke="#999999" x1="389.1003699129811" y1="387.5240691120251" x2="427.73754209610865" y2="346.7973939229675"/><line stroke-width="0.23529411764705882" stroke="#999999" x1="319.8395827230513" y1="324.19989048637706" x2="366.0313547296962" y2="349.15103053771776"/><line stroke-width="0.23529411764705882" stroke="#999999" x1="319.8395827230513" y1="324.19989048637706" x2="276.6783817866485" y2="294.5898598780746"/><line stroke-width="0.4117647058823529" stroke="#999999" x1="319.8395827230513" y1="324.19989048637706" x2="394.3692472510857" y2="306.98877043768965"/><line stroke-width="0.23529411764705882" stroke="#999999" x1="319.8395827230513" y1="324.19989048637706" x2="373.1913502959005" y2="268.4345515474257"/><line stroke-width="0.0196078431372549" stroke="#999999" x1="319.8395827230513" y1="324.19989048637706" x2="275.69951175179483" y2="368.2753934867594"/><line stroke-width="0.0196078431372549" stroke="#999999" x1="319.8395827230513" y1="324.19989048637706" x2="323.58430676305505" y2="236.3531562934441"/><line stroke-width="0.0196078431372549" stroke="#999999" x1="319.8395827230513" y1="324.19989048637706" x2="303.15643705550013" y2="391.0199496765675"/><line stroke-width="0.0196078431372549" stroke="#999999" x1="319.8395827230513" y1="324.19989048637706" x2="320.3021074999406" y2="276.61402193868645"/><line stroke-width="0.03896103896103896" stroke="#999999" x1="366.0313547296962" y1="349.15103053771776" x2="389.1003699129811" y2="387.5240691120251"/><line stroke-width="0.03896103896103896" stroke="#999999" x1="366.0313547296962" y1="349.15103053771776" x2="319.8395827230513" y2="324.19989048637706"/><line stroke-width="0.03896103896103896" stroke="#999999" x1="366.0313547296962" y1="349.15103053771776" x2="276.6783817866485" y2="294.5898598780746"/><line stroke-width="0.37662337662337664" stroke="#999999" x1="366.0313547296962" y1="349.15103053771776" x2="394.3692472510857" y2="306.98877043768965"/><line stroke-width="0.06493506493506494" stroke="#999999" x1="366.0313547296962" y1="349.15103053771776" x2="373.1913502959005" y2="268.4345515474257"/><line stroke-width="0.05194805194805195" stroke="#999999" x1="366.0313547296962" y1="349.15103053771776" x2="427.73754209610865" y2="346.7973939229675"/><line stroke-width="0.125" stroke="#999999" x1="515.7946166569128" y1="191.06254413471527" x2="493.6621214524582" y2="156.57581720447092"/><line stroke-width="0.25" stroke="#999999" x1="21.896081445284594" y1="382.0812557655032" x2="35.54307868469924" y2="420.6878255450728"/><line stroke-width="0.85" stroke="#999999" x1="249.83389153490435" y1="248.43045710573253" x2="276.6783817866485" y2="294.5898598780746"/><line stroke-width="0.65" stroke="#999999" x1="249.83389153490435" y1="248.43045710573253" x2="222.52215530667235" y2="283.58472121199185"/><line stroke-width="0.15000000000000002" stroke="#999999" x1="249.83389153490435" y1="248.43045710573253" x2="394.3692472510857" y2="306.98877043768965"/><line stroke-width="0.125" stroke="#999999" x1="276.6783817866485" y1="294.5898598780746" x2="319.8395827230513" y2="324.19989048637706"/><line stroke-width="0.125" stroke="#999999" x1="276.6783817866485" y1="294.5898598780746" x2="366.0313547296962" y2="349.15103053771776"/><line stroke-width="0.7083333333333334" stroke="#999999" x1="276.6783817866485" y1="294.5898598780746" x2="249.83389153490435" y2="248.43045710573253"/><line stroke-width="0.6666666666666667" stroke="#999999" x1="276.6783817866485" y1="294.5898598780746" x2="222.52215530667235" y2="283.58472121199185"/><line stroke-width="0.2916666666666667" stroke="#999999" x1="276.6783817866485" y1="294.5898598780746" x2="394.3692472510857" y2="306.98877043768965"/><line stroke-width="0.125" stroke="#999999" x1="276.6783817866485" y1="294.5898598780746" x2="373.1913502959005" y2="268.4345515474257"/><line stroke-width="1" stroke="#999999" x1="433.58135503071816" y1="285.4985077803147" x2="394.3692472510857" y2="306.98877043768965"/><line stroke-width="0.8571428571428571" stroke="#999999" x1="222.52215530667235" y1="283.58472121199185" x2="249.83389153490435" y2="248.43045710573253"/><line stroke-width="0.9285714285714285" stroke="#999999" x1="222.52215530667235" y1="283.58472121199185" x2="276.6783817866485" y2="294.5898598780746"/><line stroke-width="0.5" stroke="#999999" x1="493.6621214524582" y1="156.57581720447092" x2="515.7946166569128" y2="191.06254413471527"/><line stroke-width="0.05517241379310345" stroke="#999999" x1="394.3692472510857" y1="306.98877043768965" x2="319.8395827230513" y2="324.19989048637706"/><line stroke-width="0.17586206896551726" stroke="#999999" x1="394.3692472510857" y1="306.98877043768965" x2="366.0313547296962" y2="349.15103053771776"/><line stroke-width="0.034482758620689655" stroke="#999999" x1="394.3692472510857" y1="306.98877043768965" x2="249.83389153490435" y2="248.43045710573253"/><line stroke-width="0.034482758620689655" stroke="#999999" x1="394.3692472510857" y1="306.98877043768965" x2="276.6783817866485" y2="294.5898598780746"/><line stroke-width="0.05862068965517241" stroke="#999999" x1="394.3692472510857" y1="306.98877043768965" x2="433.58135503071816" y2="285.4985077803147"/><line stroke-width="0.306896551724138" stroke="#999999" x1="394.3692472510857" y1="306.98877043768965" x2="373.1913502959005" y2="268.4345515474257"/><line stroke-width="0.017241379310344827" stroke="#999999" x1="394.3692472510857" y1="306.98877043768965" x2="427.73754209610865" y2="346.7973939229675"/><line stroke-width="0.0297029702970297" stroke="#999999" x1="373.1913502959005" y1="268.4345515474257" x2="319.8395827230513" y2="324.19989048637706"/><line stroke-width="0.04950495049504951" stroke="#999999" x1="373.1913502959005" y1="268.4345515474257" x2="366.0313547296962" y2="349.15103053771776"/><line stroke-width="0.0297029702970297" stroke="#999999" x1="373.1913502959005" y1="268.4345515474257" x2="276.6783817866485" y2="294.5898598780746"/><line stroke-width="0.7920792079207921" stroke="#999999" x1="373.1913502959005" y1="268.4345515474257" x2="394.3692472510857" y2="306.98877043768965"/><line stroke-width="1" stroke="#999999" x1="275.69951175179483" y1="368.2753934867594" x2="319.8395827230513" y2="324.19989048637706"/><line stroke-width="1" stroke="#999999" x1="275.69951175179483" y1="368.2753934867594" x2="303.15643705550013" y2="391.0199496765675"/><line stroke-width="0.5" stroke="#999999" x1="323.58430676305505" y1="236.3531562934441" x2="319.8395827230513" y2="324.19989048637706"/><line stroke-width="0.5" stroke="#999999" x1="323.58430676305505" y1="236.3531562934441" x2="320.3021074999406" y2="276.61402193868645"/><line stroke-width="1" stroke="#999999" x1="303.15643705550013" y1="391.0199496765675" x2="319.8395827230513" y2="324.19989048637706"/><line stroke-width="1" stroke="#999999" x1="303.15643705550013" y1="391.0199496765675" x2="275.69951175179483" y2="368.2753934867594"/><line stroke-width="1" stroke="#999999" x1="127.50495988813091" y1="360.81100272909896" x2="145.08432507557654" y2="397.9524238311919"/><line stroke-width="0.021052631578947368" stroke="#999999" x1="427.73754209610865" y1="346.7973939229675" x2="389.1003699129811" y2="387.5240691120251"/><line stroke-width="0.031578947368421054" stroke="#999999" x1="427.73754209610865" y1="346.7973939229675" x2="366.0313547296962" y2="349.15103053771776"/><line stroke-width="0.4842105263157894" stroke="#999999" x1="427.73754209610865" y1="346.7973939229675" x2="394.3692472510857" y2="306.98877043768965"/><line stroke-width="1" stroke="#999999" x1="145.08432507557654" y1="397.9524238311919" x2="127.50495988813091" y2="360.81100272909896"/><line stroke-width="1" stroke="#999999" x1="35.54307868469924" y1="420.6878255450728" x2="21.896081445284594" y2="382.0812557655032"/><line stroke-width="1" stroke="#999999" x1="320.3021074999406" y1="276.61402193868645" x2="319.8395827230513" y2="324.19989048637706"/><line stroke-width="1" stroke="#999999" x1="320.3021074999406" y1="276.61402193868645" x2="323.58430676305505" y2="236.3531562934441"/></g><g class="nodes_hROSyHCy"><g><circle id="n_54" r="5" fill="#99ccff" cx="389.1003699129811" cy="387.5240691120251"><title>n_54</title></circle><text x="0" y="-7" id="n_54" class="label_hROSyHCy" transform="translate(389.1003699129811,387.5240691120251)" cx="389.1003699129811" cy="387.5240691120251">n_54</text></g><g><circle id="n_1" r="5" fill="#99ccff" cx="319.8395827230513" cy="324.19989048637706"><title>n_1</title></circle><text x="0" y="-7" id="n_1" class="label_hROSyHCy" transform="translate(319.8395827230513,324.19989048637706)" cx="319.8395827230513" cy="324.19989048637706">n_1</text></g><g><circle id="n_18" r="5" fill="#99ccff" cx="366.0313547296962" cy="349.15103053771776"><title>n_18</title></circle><text x="0" y="-7" id="n_18" class="label_hROSyHCy" transform="translate(366.0313547296962,349.15103053771776)" cx="366.0313547296962" cy="349.15103053771776">n_18</text></g><g><circle id="n_55" r="5" fill="#99ccff" cx="515.7946166569128" cy="191.06254413471527"><title>n_55</title></circle><text x="0" y="-7" id="n_55" class="label_hROSyHCy" transform="translate(515.7946166569128,191.06254413471527)" cx="515.7946166569128" cy="191.06254413471527">n_55</text></g><g><circle id="n_56" r="5" fill="#99ccff" cx="21.896081445284594" cy="382.0812557655032"><title>n_56</title></circle><text x="0" y="-7" id="n_56" class="label_hROSyHCy" transform="translate(21.896081445284594,382.0812557655032)" cx="21.896081445284594" cy="382.0812557655032">n_56</text></g><g><circle id="n_57" r="5" fill="#99ccff" cx="249.83389153490435" cy="248.43045710573253"><title>n_57</title></circle><text x="0" y="-7" id="n_57" class="label_hROSyHCy" transform="translate(249.83389153490435,248.43045710573253)" cx="249.83389153490435" cy="248.43045710573253">n_57</text></g><g><circle id="n_58" r="5" fill="#99ccff" cx="258.21266106160675" cy="594.9023254005702"><title>n_58</title></circle><text x="0" y="-7" id="n_58" class="label_hROSyHCy" transform="translate(258.21266106160675,594.9023254005702)" cx="258.21266106160675" cy="594.9023254005702">n_58</text></g><g><circle id="n_59" r="5" fill="#99ccff" cx="276.6783817866485" cy="294.5898598780746"><title>n_59</title></circle><text x="0" y="-7" id="n_59" class="label_hROSyHCy" transform="translate(276.6783817866485,294.5898598780746)" cx="276.6783817866485" cy="294.5898598780746">n_59</text></g><g><circle id="n_60" r="5" fill="#99ccff" cx="433.58135503071816" cy="285.4985077803147"><title>n_60</title></circle><text x="0" y="-7" id="n_60" class="label_hROSyHCy" transform="translate(433.58135503071816,285.4985077803147)" cx="433.58135503071816" cy="285.4985077803147">n_60</text></g><g><circle id="n_61" r="5" fill="#99ccff" cx="222.52215530667235" cy="283.58472121199185"><title>n_61</title></circle><text x="0" y="-7" id="n_61" class="label_hROSyHCy" transform="translate(222.52215530667235,283.58472121199185)" cx="222.52215530667235" cy="283.58472121199185">n_61</text></g><g><circle id="n_62" r="5" fill="#99ccff" cx="493.6621214524582" cy="156.57581720447092"><title>n_62</title></circle><text x="0" y="-7" id="n_62" class="label_hROSyHCy" transform="translate(493.6621214524582,156.57581720447092)" cx="493.6621214524582" cy="156.57581720447092">n_62</text></g><g><circle id="n_63" r="5" fill="#99ccff" cx="394.3692472510857" cy="306.98877043768965"><title>n_63</title></circle><text x="0" y="-7" id="n_63" class="label_hROSyHCy" transform="translate(394.3692472510857,306.98877043768965)" cx="394.3692472510857" cy="306.98877043768965">n_63</text></g><g><circle id="n_64" r="5" fill="#99ccff" cx="97.74227548350869" cy="144.10778366152445"><title>n_64</title></circle><text x="0" y="-7" id="n_64" class="label_hROSyHCy" transform="translate(97.74227548350869,144.10778366152445)" cx="97.74227548350869" cy="144.10778366152445">n_64</text></g><g><circle id="n_14" r="5" fill="#99ccff" cx="373.1913502959005" cy="268.4345515474257"><title>n_14</title></circle><text x="0" y="-7" id="n_14" class="label_hROSyHCy" transform="translate(373.1913502959005,268.4345515474257)" cx="373.1913502959005" cy="268.4345515474257">n_14</text></g><g><circle id="n_65" r="5" fill="#99ccff" cx="275.69951175179483" cy="368.2753934867594"><title>n_65</title></circle><text x="0" y="-7" id="n_65" class="label_hROSyHCy" transform="translate(275.69951175179483,368.2753934867594)" cx="275.69951175179483" cy="368.2753934867594">n_65</text></g><g><circle id="n_66" r="5" fill="#99ccff" cx="323.58430676305505" cy="236.3531562934441"><title>n_66</title></circle><text x="0" y="-7" id="n_66" class="label_hROSyHCy" transform="translate(323.58430676305505,236.3531562934441)" cx="323.58430676305505" cy="236.3531562934441">n_66</text></g><g><circle id="n_67" r="5" fill="#99ccff" cx="303.15643705550013" cy="391.0199496765675"><title>n_67</title></circle><text x="0" y="-7" id="n_67" class="label_hROSyHCy" transform="translate(303.15643705550013,391.0199496765675)" cx="303.15643705550013" cy="391.0199496765675">n_67</text></g><g><circle id="n_68" r="5" fill="#99ccff" cx="127.50495988813091" cy="360.81100272909896"><title>n_68</title></circle><text x="0" y="-7" id="n_68" class="label_hROSyHCy" transform="translate(127.50495988813091,360.81100272909896)" cx="127.50495988813091" cy="360.81100272909896">n_68</text></g><g><circle id="n_69" r="5" fill="#99ccff" cx="518.0463282137918" cy="41.996455170003074"><title>n_69</title></circle><text x="0" y="-7" id="n_69" class="label_hROSyHCy" transform="translate(518.0463282137918,41.996455170003074)" cx="518.0463282137918" cy="41.996455170003074">n_69</text></g><g><circle id="n_70" r="5" fill="#99ccff" cx="427.73754209610865" cy="346.7973939229675"><title>n_70</title></circle><text x="0" y="-7" id="n_70" class="label_hROSyHCy" transform="translate(427.73754209610865,346.7973939229675)" cx="427.73754209610865" cy="346.7973939229675">n_70</text></g><g><circle id="n_71" r="5" fill="#99ccff" cx="133.33861978516222" cy="15.054228662772429"><title>n_71</title></circle><text x="0" y="-7" id="n_71" class="label_hROSyHCy" transform="translate(133.33861978516222,15.054228662772429)" cx="133.33861978516222" cy="15.054228662772429">n_71</text></g><g><circle id="n_72" r="5" fill="#99ccff" cx="145.08432507557654" cy="397.9524238311919"><title>n_72</title></circle><text x="0" y="-7" id="n_72" class="label_hROSyHCy" transform="translate(145.08432507557654,397.9524238311919)" cx="145.08432507557654" cy="397.9524238311919">n_72</text></g><g><circle id="n_73" r="5" fill="#99ccff" cx="35.54307868469924" cy="420.6878255450728"><title>n_73</title></circle><text x="0" y="-7" id="n_73" class="label_hROSyHCy" transform="translate(35.54307868469924,420.6878255450728)" cx="35.54307868469924" cy="420.6878255450728">n_73</text></g><g><circle id="n_74" r="5" fill="#99ccff" cx="320.3021074999406" cy="276.61402193868645"><title>n_74</title></circle><text x="0" y="-7" id="n_74" class="label_hROSyHCy" transform="translate(320.3021074999406,276.61402193868645)" cx="320.3021074999406" cy="276.61402193868645">n_74</text></g><g><circle id="n_75" r="5" fill="#99ccff" cx="472.72092303834" cy="608.7386105633283"><title>n_75</title></circle><text x="0" y="-7" id="n_75" class="label_hROSyHCy" transform="translate(472.72092303834,608.7386105633283)" cx="472.72092303834" cy="608.7386105633283">n_75</text></g><g><circle id="n_76" r="5" fill="#99ccff" cx="-26.17979747956529" cy="219.15829972320847"><title>n_76</title></circle><text x="0" y="-7" id="n_76" class="label_hROSyHCy" transform="translate(-26.17979747956529,219.15829972320847)" cx="-26.17979747956529" cy="219.15829972320847">n_76</text></g><g><circle id="n_77" r="5" fill="#99ccff" cx="630.9718085865069" cy="199.4531468781603"><title>n_77</title></circle><text x="0" y="-7" id="n_77" class="label_hROSyHCy" transform="translate(630.9718085865069,199.4531468781603)" cx="630.9718085865069" cy="199.4531468781603">n_77</text></g></g></g></svg>