<svg xmlns="http://www.w3.org/2000/svg" width="600" height="600" id="FNUcQMEH">        
    <text x="20" y="20" font-family="sans-serif" font-size="14px" fill="#666" style="cursor: pointer" id="FNUcQMEH_svg_txt">[save svg]</text>
<defs><marker id="end" viewBox="0 -5 20 20" refX="34" refY="0" markerWidth="15" markerHeight="15" orient="auto"><path d="M0,-5 L20,0 L0,5 z" fill="#999" stroke="none"/></marker></defs><g class="everything"><g class="links_FNUcQMEH"><line stroke-width="0.5" stroke="#999999" x1="385.15939496655545" y1="248.83538986486982" x2="390.1062992625135" y2="208.30565342728252"/><line stroke-width="0.30000000000000004" stroke="#999999" x1="269.172512698142" y1="374.36557348590003" x2="319.459341460446" y2="340.43848971083173"/><line stroke-width="0.1" stroke="#999999" x1="269.172512698142" y1="374.36557348590003" x2="246.21754386438147" y2="408.5265348016838"/><line stroke-width="0.25" stroke="#999999" x1="390.1062992625135" y1="208.30565342728252" x2="385.15939496655545" y2="248.83538986486982"/><line stroke-width="0.8666666666666667" stroke="#999999" x1="279.4526482030491" y1="271.49326040403986" x2="246.90261151371215" y2="238.69421516174268"/><line stroke-width="0.8" stroke="#999999" x1="279.4526482030491" y1="271.49326040403986" x2="229.3674525482989" y2="281.33177850793396"/><line stroke-width="0.06666666666666667" stroke="#999999" x1="279.4526482030491" y1="271.49326040403986" x2="319.459341460446" y2="340.43848971083173"/><line stroke-width="0.9999999999999999" stroke="#999999" x1="246.90261151371215" y1="238.69421516174268" x2="279.4526482030491" y2="271.49326040403986"/><line stroke-width="0.8333333333333333" stroke="#999999" x1="246.90261151371215" y1="238.69421516174268" x2="229.3674525482989" y2="281.33177850793396"/><line stroke-width="1" stroke="#999999" x1="357.66253914717544" y1="355.64234781940394" x2="319.459341460446" y2="340.43848971083173"/><line stroke-width="1" stroke="#999999" x1="229.3674525482989" y1="281.33177850793396" x2="279.4526482030491" y2="271.49326040403986"/><line stroke-width="1" stroke="#999999" x1="229.3674525482989" y1="281.33177850793396" x2="246.90261151371215" y2="238.69421516174268"/><line stroke-width="0.08571428571428572" stroke="#999999" x1="319.459341460446" y1="340.43848971083173" x2="269.172512698142" y2="374.36557348590003"/><line stroke-width="0.02857142857142857" stroke="#999999" x1="319.459341460446" y1="340.43848971083173" x2="279.4526482030491" y2="271.49326040403986"/><line stroke-width="0.08571428571428572" stroke="#999999" x1="319.459341460446" y1="340.43848971083173" x2="357.66253914717544" y2="355.64234781940394"/><line stroke-width="1" stroke="#999999" x1="246.21754386438147" y1="408.5265348016838" x2="269.172512698142" y2="374.36557348590003"/></g><g class="nodes_FNUcQMEH"><g><circle id="n_54" r="5" fill="#99ccff" cx="385.15939496655545" cy="248.83538986486982"><title>n_54</title></circle><text x="0" y="-7" id="n_54" class="label_FNUcQMEH" transform="translate(385.15939496655545,248.83538986486982)" cx="385.15939496655545" cy="248.83538986486982">n_54</text></g><g><circle id="n_1" r="5" fill="#99ccff" cx="269.172512698142" cy="374.36557348590003"><title>n_1</title></circle><text x="0" y="-7" id="n_1" class="label_FNUcQMEH" transform="translate(269.172512698142,374.36557348590003)" cx="269.172512698142" cy="374.36557348590003">n_1</text></g><g><circle id="n_18" r="5" fill="#99ccff" cx="390.1062992625135" cy="208.30565342728252"><title>n_18</title></circle><text x="0" y="-7" id="n_18" class="label_FNUcQMEH" transform="translate(390.1062992625135,208.30565342728252)" cx="390.1062992625135" cy="208.30565342728252">n_18</text></g><g><circle id="n_55" r="5" fill="#99ccff" cx="472.3880834047987" cy="370.2599663238685"><title>n_55</title></circle><text x="0" y="-7" id="n_55" class="label_FNUcQMEH" transform="translate(472.3880834047987,370.2599663238685)" cx="472.3880834047987" cy="370.2599663238685">n_55</text></g><g><circle id="n_56" r="5" fill="#99ccff" cx="76.73908174120163" cy="306.73913676197003"><title>n_56</title></circle><text x="0" y="-7" id="n_56" class="label_FNUcQMEH" transform="translate(76.73908174120163,306.73913676197003)" cx="76.73908174120163" cy="306.73913676197003">n_56</text></g><g><circle id="n_57" r="5" fill="#99ccff" cx="279.4526482030491" cy="271.49326040403986"><title>n_57</title></circle><text x="0" y="-7" id="n_57" class="label_FNUcQMEH" transform="translate(279.4526482030491,271.49326040403986)" cx="279.4526482030491" cy="271.49326040403986">n_57</text></g><g><circle id="n_58" r="5" fill="#99ccff" cx="249.28460918698661" cy="580.8980349597089"><title>n_58</title></circle><text x="0" y="-7" id="n_58" class="label_FNUcQMEH" transform="translate(249.28460918698661,580.8980349597089)" cx="249.28460918698661" cy="580.8980349597089">n_58</text></g><g><circle id="n_59" r="5" fill="#99ccff" cx="246.90261151371215" cy="238.69421516174268"><title>n_59</title></circle><text x="0" y="-7" id="n_59" class="label_FNUcQMEH" transform="translate(246.90261151371215,238.69421516174268)" cx="246.90261151371215" cy="238.69421516174268">n_59</text></g><g><circle id="n_60" r="5" fill="#99ccff" cx="357.66253914717544" cy="355.64234781940394"><title>n_60</title></circle><text x="0" y="-7" id="n_60" class="label_FNUcQMEH" transform="translate(357.66253914717544,355.64234781940394)" cx="357.66253914717544" cy="355.64234781940394">n_60</text></g><g><circle id="n_61" r="5" fill="#99ccff" cx="229.3674525482989" cy="281.33177850793396"><title>n_61</title></circle><text x="0" y="-7" id="n_61" class="label_FNUcQMEH" transform="translate(229.3674525482989,281.33177850793396)" cx="229.3674525482989" cy="281.33177850793396">n_61</text></g><g><circle id="n_62" r="5" fill="#99ccff" cx="386.0490169925081" cy="84.5976938832146"><title>n_62</title></circle><text x="0" y="-7" id="n_62" class="label_FNUcQMEH" transform="translate(386.0490169925081,84.5976938832146)" cx="386.0490169925081" cy="84.5976938832146">n_62</text></g><g><circle id="n_63" r="5" fill="#99ccff" cx="319.459341460446" cy="340.43848971083173"><title>n_63</title></circle><text x="0" y="-7" id="n_63" class="label_FNUcQMEH" transform="translate(319.459341460446,340.43848971083173)" cx="319.459341460446" cy="340.43848971083173">n_63</text></g><g><circle id="n_64" r="5" fill="#99ccff" cx="66.55822617549426" cy="163.30314573576823"><title>n_64</title></circle><text x="0" y="-7" id="n_64" class="label_FNUcQMEH" transform="translate(66.55822617549426,163.30314573576823)" cx="66.55822617549426" cy="163.30314573576823">n_64</text></g><g><circle id="n_14" r="5" fill="#99ccff" cx="525.4938872487281" cy="266.4277804285411"><title>n_14</title></circle><text x="0" y="-7" id="n_14" class="label_FNUcQMEH" transform="translate(525.4938872487281,266.4277804285411)" cx="525.4938872487281" cy="266.4277804285411">n_14</text></g><g><circle id="n_65" r="5" fill="#99ccff" cx="246.21754386438147" cy="408.5265348016838"><title>n_65</title></circle><text x="0" y="-7" id="n_65" class="label_FNUcQMEH" transform="translate(246.21754386438147,408.5265348016838)" cx="246.21754386438147" cy="408.5265348016838">n_65</text></g></g></g></svg>