<svg xmlns="http://www.w3.org/2000/svg" width="600" height="600" id="PbkBzYNf">
    <text x="20" y="20" font-family="sans-serif" font-size="14px" fill="#666" style="cursor: pointer" id="PbkBzYNf_svg_txt">[save svg]</text>
    <defs>
        <marker id="end" viewBox="0 -5 20 20" refX="34" refY="0" markerWidth="15" markerHeight="15" orient="auto">
            <path d="M0,-5 L20,0 L0,5 z" fill="#999" stroke="none" />
        </marker>
    </defs>
    <g class="everything">
        <g class="links_PbkBzYNf">
            <line stroke-width="0.5" stroke="#999999" x1="320.4537513338998" y1="310.8388158460157" x2="310.4260337362003" y2="276.6241600747512" />
            <line stroke-width="0.125" stroke="#999999" x1="320.4537513338998" y1="310.8388158460157" x2="308.95865829495887" y2="398.0601780234397" />
            <line stroke-width="0.27586206896551724" stroke="#999999" x1="287.1551278272594" y1="319.35565290689954" x2="310.4260337362003" y2="276.6241600747512" />
            <line stroke-width="0.05172413793103448" stroke="#999999" x1="287.1551278272594" y1="319.35565290689954" x2="330.37569881683913" y2="345.92049768317406" />
            <line stroke-width="0.20689655172413793" stroke="#999999" x1="287.1551278272594" y1="319.35565290689954" x2="287.9057481571886" y2="241.1856157692463" />
            <line stroke-width="0.49999999999999983" stroke="#999999" x1="287.1551278272594" y1="319.35565290689954" x2="323.792980106723" y2="359.12207192168285" />
            <line stroke-width="0.20689655172413793" stroke="#999999" x1="287.1551278272594" y1="319.35565290689954" x2="362.21075723806354" y2="299.06872703666755" />
            <line stroke-width="0.017241379310344827" stroke="#999999" x1="287.1551278272594" y1="319.35565290689954" x2="295.97157647132497" y2="340.4150370080275" />
            <line stroke-width="0.034482758620689655" stroke="#999999" x1="287.1551278272594" y1="319.35565290689954" x2="272.2784474201719" y2="230.6360244216126" />
            <line stroke-width="0.10344827586206898" stroke="#999999" x1="287.1551278272594" y1="319.35565290689954" x2="348.43736237291506" y2="369.2196116186659" />
            <line stroke-width="0.2413793103448276" stroke="#999999" x1="287.1551278272594" y1="319.35565290689954" x2="319.593966807944" y2="229.68547255944267" />
            <line stroke-width="0.017241379310344827" stroke="#999999" x1="287.1551278272594" y1="319.35565290689954" x2="224.13391045003587" y2="297.6846669162338" />
            <line stroke-width="0.017241379310344827" stroke="#999999" x1="287.1551278272594" y1="319.35565290689954" x2="235.9139780248551" y2="227.90752169525103" />
            <line stroke-width="0.06896551724137931" stroke="#999999" x1="287.1551278272594" y1="319.35565290689954" x2="280.56981596960435" y2="390.4640224932553" />
            <line stroke-width="0.02158273381294964" stroke="#999999" x1="310.4260337362003" y1="276.6241600747512" x2="320.4537513338998" y2="310.8388158460157" />
            <line stroke-width="0.07913669064748201" stroke="#999999" x1="310.4260337362003" y1="276.6241600747512" x2="287.1551278272594" y2="319.35565290689954" />
            <line stroke-width="0.02877697841726619" stroke="#999999" x1="310.4260337362003" y1="276.6241600747512" x2="330.37569881683913" y2="345.92049768317406" />
            <line stroke-width="0.014388489208633094" stroke="#999999" x1="310.4260337362003" y1="276.6241600747512" x2="330.2547046685556" y2="266.9257441291252" />
            <line stroke-width="0.02158273381294964" stroke="#999999" x1="310.4260337362003" y1="276.6241600747512" x2="287.9057481571886" y2="241.1856157692463" />
            <line stroke-width="0.007194244604316547" stroke="#999999" x1="310.4260337362003" y1="276.6241600747512" x2="320.518162536013" y2="252.12490462451225" />
            <line stroke-width="0.48201438848920874" stroke="#999999" x1="310.4260337362003" y1="276.6241600747512" x2="323.792980106723" y2="359.12207192168285" />
            <line stroke-width="0.03597122302158273" stroke="#999999" x1="310.4260337362003" y1="276.6241600747512" x2="362.21075723806354" y2="299.06872703666755" />
            <line stroke-width="0.007194244604316547" stroke="#999999" x1="310.4260337362003" y1="276.6241600747512" x2="295.97157647132497" y2="340.4150370080275" />
            <line stroke-width="0.02158273381294964" stroke="#999999" x1="310.4260337362003" y1="276.6241600747512" x2="272.2784474201719" y2="230.6360244216126" />
            <line stroke-width="0.050359712230215826" stroke="#999999" x1="310.4260337362003" y1="276.6241600747512" x2="348.43736237291506" y2="369.2196116186659" />
            <line stroke-width="0.02877697841726619" stroke="#999999" x1="310.4260337362003" y1="276.6241600747512" x2="308.95865829495887" y2="398.0601780234397" />
            <line stroke-width="0.05035971223021582" stroke="#999999" x1="310.4260337362003" y1="276.6241600747512" x2="319.593966807944" y2="229.68547255944267" />
            <line stroke-width="0.05755395683453238" stroke="#999999" x1="310.4260337362003" y1="276.6241600747512" x2="288.0269675059238" y2="322.7960651385956" />
            <line stroke-width="0.02877697841726619" stroke="#999999" x1="310.4260337362003" y1="276.6241600747512" x2="376.4802844707953" y2="314.16624268396515" />
            <line stroke-width="0.03597122302158273" stroke="#999999" x1="310.4260337362003" y1="276.6241600747512" x2="235.9139780248551" y2="227.90752169525103" />
            <line stroke-width="0.05755395683453238" stroke="#999999" x1="310.4260337362003" y1="276.6241600747512" x2="280.56981596960435" y2="390.4640224932553" />
            <line stroke-width="0.3125" stroke="#999999" x1="330.37569881683913" y1="345.92049768317406" x2="287.1551278272594" y2="319.35565290689954" />
            <line stroke-width="0.1875" stroke="#999999" x1="330.37569881683913" y1="345.92049768317406" x2="310.4260337362003" y2="276.6241600747512" />
            <line stroke-width="0.0625" stroke="#999999" x1="330.37569881683913" y1="345.92049768317406" x2="320.518162536013" y2="252.12490462451225" />
            <line stroke-width="0.0625" stroke="#999999" x1="330.37569881683913" y1="345.92049768317406" x2="323.792980106723" y2="359.12207192168285" />
            <line stroke-width="0.5" stroke="#999999" x1="330.37569881683913" y1="345.92049768317406" x2="348.43736237291506" y2="369.2196116186659" />
            <line stroke-width="0.0625" stroke="#999999" x1="330.37569881683913" y1="345.92049768317406" x2="373.8155408952842" y2="393.2581287458271" />
            <line stroke-width="0.3125" stroke="#999999" x1="330.37569881683913" y1="345.92049768317406" x2="280.56981596960435" y2="390.4640224932553" />
            <line stroke-width="0.5" stroke="#999999" x1="215.9112451300322" y1="288.07323315978607" x2="323.792980106723" y2="359.12207192168285" />
            <line stroke-width="0.25" stroke="#999999" x1="215.9112451300322" y1="288.07323315978607" x2="193.9031417458924" y2="340.55497504281936" />
            <line stroke-width="0.05" stroke="#999999" x1="330.2547046685556" y1="266.9257441291252" x2="310.4260337362003" y2="276.6241600747512" />
            <line stroke-width="0.85" stroke="#999999" x1="330.2547046685556" y1="266.9257441291252" x2="287.9057481571886" y2="241.1856157692463" />
            <line stroke-width="0.65" stroke="#999999" x1="330.2547046685556" y1="266.9257441291252" x2="260.8130904181983" y2="324.0482692623863" />
            <line stroke-width="0.15000000000000002" stroke="#999999" x1="330.2547046685556" y1="266.9257441291252" x2="323.792980106723" y2="359.12207192168285" />
            <line stroke-width="1" stroke="#999999" x1="237.49234345502063" y1="252.70605685228907" x2="235.9139780248551" y2="227.90752169525103" />
            <line stroke-width="0.125" stroke="#999999" x1="287.9057481571886" y1="241.1856157692463" x2="287.1551278272594" y2="319.35565290689954" />
            <line stroke-width="0.125" stroke="#999999" x1="287.9057481571886" y1="241.1856157692463" x2="310.4260337362003" y2="276.6241600747512" />
            <line stroke-width="0.7083333333333334" stroke="#999999" x1="287.9057481571886" y1="241.1856157692463" x2="330.2547046685556" y2="266.9257441291252" />
            <line stroke-width="0.6666666666666667" stroke="#999999" x1="287.9057481571886" y1="241.1856157692463" x2="260.8130904181983" y2="324.0482692623863" />
            <line stroke-width="0.2916666666666667" stroke="#999999" x1="287.9057481571886" y1="241.1856157692463" x2="323.792980106723" y2="359.12207192168285" />
            <line stroke-width="0.125" stroke="#999999" x1="287.9057481571886" y1="241.1856157692463" x2="362.21075723806354" y2="299.06872703666755" />
            <line stroke-width="0.125" stroke="#999999" x1="287.9057481571886" y1="241.1856157692463" x2="319.593966807944" y2="229.68547255944267" />
            <line stroke-width="1" stroke="#999999" x1="372.45656151382224" y1="356.5358804768832" x2="323.792980106723" y2="359.12207192168285" />
            <line stroke-width="0.8571428571428571" stroke="#999999" x1="260.8130904181983" y1="324.0482692623863" x2="330.2547046685556" y2="266.9257441291252" />
            <line stroke-width="0.9285714285714285" stroke="#999999" x1="260.8130904181983" y1="324.0482692623863" x2="287.9057481571886" y2="241.1856157692463" />
            <line stroke-width="0.5" stroke="#999999" x1="320.518162536013" y1="252.12490462451225" x2="310.4260337362003" y2="276.6241600747512" />
            <line stroke-width="0.5" stroke="#999999" x1="320.518162536013" y1="252.12490462451225" x2="330.37569881683913" y2="345.92049768317406" />
            <line stroke-width="0.5" stroke="#999999" x1="320.518162536013" y1="252.12490462451225" x2="323.792980106723" y2="359.12207192168285" />
            <line stroke-width="0.5" stroke="#999999" x1="320.518162536013" y1="252.12490462451225" x2="235.9139780248551" y2="227.90752169525103" />
            <line stroke-width="0.0739856801909308" stroke="#999999" x1="323.792980106723" y1="359.12207192168285" x2="287.1551278272594" y2="319.35565290689954" />
            <line stroke-width="0.2863961813842481" stroke="#999999" x1="323.792980106723" y1="359.12207192168285" x2="310.4260337362003" y2="276.6241600747512" />
            <line stroke-width="0.002386634844868735" stroke="#999999" x1="323.792980106723" y1="359.12207192168285" x2="330.37569881683913" y2="345.92049768317406" />
            <line stroke-width="0.00477326968973747" stroke="#999999" x1="323.792980106723" y1="359.12207192168285" x2="215.9112451300322" y2="288.07323315978607" />
            <line stroke-width="0.023866348448687354" stroke="#999999" x1="323.792980106723" y1="359.12207192168285" x2="330.2547046685556" y2="266.9257441291252" />
            <line stroke-width="0.02386634844868735" stroke="#999999" x1="323.792980106723" y1="359.12207192168285" x2="287.9057481571886" y2="241.1856157692463" />
            <line stroke-width="0.0405727923627685" stroke="#999999" x1="323.792980106723" y1="359.12207192168285" x2="372.45656151382224" y2="356.5358804768832" />
            <line stroke-width="0.002386634844868735" stroke="#999999" x1="323.792980106723" y1="359.12207192168285" x2="320.518162536013" y2="252.12490462451225" />
            <line stroke-width="0.2529832935560859" stroke="#999999" x1="323.792980106723" y1="359.12207192168285" x2="362.21075723806354" y2="299.06872703666755" />
            <line stroke-width="0.014319809069212413" stroke="#999999" x1="323.792980106723" y1="359.12207192168285" x2="308.95865829495887" y2="398.0601780234397" />
            <line stroke-width="0.007159904534606206" stroke="#999999" x1="323.792980106723" y1="359.12207192168285" x2="319.593966807944" y2="229.68547255944267" />
            <line stroke-width="0.002386634844868735" stroke="#999999" x1="323.792980106723" y1="359.12207192168285" x2="426.26725160008084" y2="333.43613196573864" />
            <line stroke-width="0.08591885441527446" stroke="#999999" x1="323.792980106723" y1="359.12207192168285" x2="288.0269675059238" y2="322.7960651385956" />
            <line stroke-width="0.031026252983293555" stroke="#999999" x1="323.792980106723" y1="359.12207192168285" x2="376.4802844707953" y2="314.16624268396515" />
            <line stroke-width="0.002386634844868735" stroke="#999999" x1="323.792980106723" y1="359.12207192168285" x2="388.7535573789182" y2="260.37265525572366" />
            <line stroke-width="0.00477326968973747" stroke="#999999" x1="323.792980106723" y1="359.12207192168285" x2="341.1653685113481" y2="405.23578921990276" />
            <line stroke-width="0.007159904534606206" stroke="#999999" x1="323.792980106723" y1="359.12207192168285" x2="235.9139780248551" y2="227.90752169525103" />
            <line stroke-width="0.002386634844868735" stroke="#999999" x1="323.792980106723" y1="359.12207192168285" x2="416.54079843402934" y2="282.4606855182708" />
            <line stroke-width="0.08591885441527446" stroke="#999999" x1="323.792980106723" y1="359.12207192168285" x2="280.56981596960435" y2="390.4640224932553" />
            <line stroke-width="0.0297029702970297" stroke="#999999" x1="362.21075723806354" y1="299.06872703666755" x2="287.1551278272594" y2="319.35565290689954" />
            <line stroke-width="0.04950495049504951" stroke="#999999" x1="362.21075723806354" y1="299.06872703666755" x2="310.4260337362003" y2="276.6241600747512" />
            <line stroke-width="0.0297029702970297" stroke="#999999" x1="362.21075723806354" y1="299.06872703666755" x2="287.9057481571886" y2="241.1856157692463" />
            <line stroke-width="0.9207920792079209" stroke="#999999" x1="362.21075723806354" y1="299.06872703666755" x2="323.792980106723" y2="359.12207192168285" />
            <line stroke-width="0.0297029702970297" stroke="#999999" x1="362.21075723806354" y1="299.06872703666755" x2="319.593966807944" y2="229.68547255944267" />
            <line stroke-width="1" stroke="#999999" x1="295.97157647132497" y1="340.4150370080275" x2="287.1551278272594" y2="319.35565290689954" />
            <line stroke-width="1" stroke="#999999" x1="295.97157647132497" y1="340.4150370080275" x2="310.4260337362003" y2="276.6241600747512" />
            <line stroke-width="1" stroke="#999999" x1="295.97157647132497" y1="340.4150370080275" x2="348.43736237291506" y2="369.2196116186659" />
            <line stroke-width="1" stroke="#999999" x1="295.97157647132497" y1="340.4150370080275" x2="319.593966807944" y2="229.68547255944267" />
            <line stroke-width="0.4" stroke="#999999" x1="272.2784474201719" y1="230.6360244216126" x2="287.1551278272594" y2="319.35565290689954" />
            <line stroke-width="0.2" stroke="#999999" x1="272.2784474201719" y1="230.6360244216126" x2="310.4260337362003" y2="276.6241600747512" />
            <line stroke-width="0.2" stroke="#999999" x1="272.2784474201719" y1="230.6360244216126" x2="319.593966807944" y2="229.68547255944267" />
            <line stroke-width="0.2" stroke="#999999" x1="272.2784474201719" y1="230.6360244216126" x2="224.13391045003587" y2="297.6846669162338" />
            <line stroke-width="0.4" stroke="#999999" x1="272.2784474201719" y1="230.6360244216126" x2="280.56981596960435" y2="390.4640224932553" />
            <line stroke-width="0.5" stroke="#999999" x1="348.43736237291506" y1="369.2196116186659" x2="287.1551278272594" y2="319.35565290689954" />
            <line stroke-width="0.3333333333333333" stroke="#999999" x1="348.43736237291506" y1="369.2196116186659" x2="310.4260337362003" y2="276.6241600747512" />
            <line stroke-width="0.3333333333333333" stroke="#999999" x1="348.43736237291506" y1="369.2196116186659" x2="330.37569881683913" y2="345.92049768317406" />
            <line stroke-width="0.08333333333333333" stroke="#999999" x1="348.43736237291506" y1="369.2196116186659" x2="295.97157647132497" y2="340.4150370080275" />
            <line stroke-width="0.08333333333333333" stroke="#999999" x1="348.43736237291506" y1="369.2196116186659" x2="319.593966807944" y2="229.68547255944267" />
            <line stroke-width="0.16666666666666666" stroke="#999999" x1="348.43736237291506" y1="369.2196116186659" x2="280.56981596960435" y2="390.4640224932553" />
            <line stroke-width="1" stroke="#999999" x1="257.65983323492867" y1="318.55064051581064" x2="326.432236595263" y2="310.30078225845176" />
            <line stroke-width="0.021052631578947368" stroke="#999999" x1="308.95865829495887" y1="398.0601780234397" x2="320.4537513338998" y2="310.8388158460157" />
            <line stroke-width="0.031578947368421054" stroke="#999999" x1="308.95865829495887" y1="398.0601780234397" x2="310.4260337362003" y2="276.6241600747512" />
            <line stroke-width="0.4842105263157894" stroke="#999999" x1="308.95865829495887" y1="398.0601780234397" x2="323.792980106723" y2="359.12207192168285" />
            <line stroke-width="1" stroke="#999999" x1="326.432236595263" y1="310.30078225845176" x2="257.65983323492867" y2="318.55064051581064" />
            <line stroke-width="1" stroke="#999999" x1="193.9031417458924" y1="340.55497504281936" x2="215.9112451300322" y2="288.07323315978607" />
            <line stroke-width="0.9999999999999999" stroke="#999999" x1="319.593966807944" y1="229.68547255944267" x2="287.1551278272594" y2="319.35565290689954" />
            <line stroke-width="0.9999999999999999" stroke="#999999" x1="319.593966807944" y1="229.68547255944267" x2="310.4260337362003" y2="276.6241600747512" />
            <line stroke-width="0.23076923076923078" stroke="#999999" x1="319.593966807944" y1="229.68547255944267" x2="287.9057481571886" y2="241.1856157692463" />
            <line stroke-width="0.23076923076923078" stroke="#999999" x1="319.593966807944" y1="229.68547255944267" x2="323.792980106723" y2="359.12207192168285" />
            <line stroke-width="0.23076923076923078" stroke="#999999" x1="319.593966807944" y1="229.68547255944267" x2="362.21075723806354" y2="299.06872703666755" />
            <line stroke-width="0.15384615384615385" stroke="#999999" x1="319.593966807944" y1="229.68547255944267" x2="295.97157647132497" y2="340.4150370080275" />
            <line stroke-width="0.6153846153846154" stroke="#999999" x1="319.593966807944" y1="229.68547255944267" x2="272.2784474201719" y2="230.6360244216126" />
            <line stroke-width="0.15384615384615385" stroke="#999999" x1="319.593966807944" y1="229.68547255944267" x2="348.43736237291506" y2="369.2196116186659" />
            <line stroke-width="1" stroke="#999999" x1="426.26725160008084" y1="333.43613196573864" x2="323.792980106723" y2="359.12207192168285" />
            <line stroke-width="1" stroke="#999999" x1="426.26725160008084" y1="333.43613196573864" x2="388.7535573789182" y2="260.37265525572366" />
            <line stroke-width="1" stroke="#999999" x1="426.26725160008084" y1="333.43613196573864" x2="416.54079843402934" y2="282.4606855182708" />
            <line stroke-width="0.5" stroke="#999999" x1="288.0269675059238" y1="322.7960651385956" x2="310.4260337362003" y2="276.6241600747512" />
            <line stroke-width="1" stroke="#999999" x1="288.0269675059238" y1="322.7960651385956" x2="323.792980106723" y2="359.12207192168285" />
            <line stroke-width="0.5" stroke="#999999" x1="288.0269675059238" y1="322.7960651385956" x2="280.56981596960435" y2="390.4640224932553" />
            <line stroke-width="1" stroke="#999999" x1="376.4802844707953" y1="314.16624268396515" x2="310.4260337362003" y2="276.6241600747512" />
            <line stroke-width="1" stroke="#999999" x1="376.4802844707953" y1="314.16624268396515" x2="323.792980106723" y2="359.12207192168285" />
            <line stroke-width="1" stroke="#999999" x1="224.13391045003587" y1="297.6846669162338" x2="287.1551278272594" y2="319.35565290689954" />
            <line stroke-width="1" stroke="#999999" x1="224.13391045003587" y1="297.6846669162338" x2="272.2784474201719" y2="230.6360244216126" />
            <line stroke-width="1" stroke="#999999" x1="388.7535573789182" y1="260.37265525572366" x2="323.792980106723" y2="359.12207192168285" />
            <line stroke-width="1" stroke="#999999" x1="388.7535573789182" y1="260.37265525572366" x2="426.26725160008084" y2="333.43613196573864" />
            <line stroke-width="1" stroke="#999999" x1="388.7535573789182" y1="260.37265525572366" x2="416.54079843402934" y2="282.4606855182708" />
            <line stroke-width="1" stroke="#999999" x1="341.1653685113481" y1="405.23578921990276" x2="323.792980106723" y2="359.12207192168285" />
            <line stroke-width="0.0625" stroke="#999999" x1="235.9139780248551" y1="227.90752169525103" x2="287.1551278272594" y2="319.35565290689954" />
            <line stroke-width="0.3125" stroke="#999999" x1="235.9139780248551" y1="227.90752169525103" x2="310.4260337362003" y2="276.6241600747512" />
            <line stroke-width="0.0625" stroke="#999999" x1="235.9139780248551" y1="227.90752169525103" x2="237.49234345502063" y2="252.70605685228907" />
            <line stroke-width="0.0625" stroke="#999999" x1="235.9139780248551" y1="227.90752169525103" x2="320.518162536013" y2="252.12490462451225" />
            <line stroke-width="0.125" stroke="#999999" x1="235.9139780248551" y1="227.90752169525103" x2="323.792980106723" y2="359.12207192168285" />
            <line stroke-width="0.5" stroke="#999999" x1="373.8155408952842" y1="393.2581287458271" x2="330.37569881683913" y2="345.92049768317406" />
            <line stroke-width="1" stroke="#999999" x1="416.54079843402934" y1="282.4606855182708" x2="323.792980106723" y2="359.12207192168285" />
            <line stroke-width="1" stroke="#999999" x1="416.54079843402934" y1="282.4606855182708" x2="426.26725160008084" y2="333.43613196573864" />
            <line stroke-width="1" stroke="#999999" x1="416.54079843402934" y1="282.4606855182708" x2="388.7535573789182" y2="260.37265525572366" />
            <line stroke-width="0.5454545454545454" stroke="#999999" x1="280.56981596960435" y1="390.4640224932553" x2="287.1551278272594" y2="319.35565290689954" />
            <line stroke-width="0.18181818181818182" stroke="#999999" x1="280.56981596960435" y1="390.4640224932553" x2="310.4260337362003" y2="276.6241600747512" />
            <line stroke-width="0.36363636363636365" stroke="#999999" x1="280.56981596960435" y1="390.4640224932553" x2="330.37569881683913" y2="345.92049768317406" />
            <line stroke-width="0.2727272727272727" stroke="#999999" x1="280.56981596960435" y1="390.4640224932553" x2="323.792980106723" y2="359.12207192168285" />
            <line stroke-width="0.18181818181818182" stroke="#999999" x1="280.56981596960435" y1="390.4640224932553" x2="272.2784474201719" y2="230.6360244216126" />
            <line stroke-width="0.36363636363636365" stroke="#999999" x1="280.56981596960435" y1="390.4640224932553" x2="348.43736237291506" y2="369.2196116186659" />
            <line stroke-width="0.18181818181818182" stroke="#999999" x1="280.56981596960435" y1="390.4640224932553" x2="288.0269675059238" y2="322.7960651385956" />
        </g>
        <g class="nodes_PbkBzYNf">
            <g>
                <circle id="n_54" r="5" fill="#99ccff" cx="320.4537513338998" cy="310.8388158460157">
                    <title>n_54</title>
                </circle>
                <text x="0" y="-7" id="n_54" class="label_PbkBzYNf" transform="translate(320.4537513338998,310.8388158460157)" cx="320.4537513338998" cy="310.8388158460157">n_54</text>
            </g>
            <g>
                <circle id="n_1" r="5" fill="#99ccff" cx="287.1551278272594" cy="319.35565290689954">
                    <title>n_1</title>
                </circle>
                <text x="0" y="-7" id="n_1" class="label_PbkBzYNf" transform="translate(287.1551278272594,319.35565290689954)" cx="287.1551278272594" cy="319.35565290689954">n_1</text>
            </g>
            <g>
                <circle id="n_18" r="5" fill="#99ccff" cx="310.4260337362003" cy="276.6241600747512">
                    <title>n_18</title>
                </circle>
                <text x="0" y="-7" id="n_18" class="label_PbkBzYNf" transform="translate(310.4260337362003,276.6241600747512)" cx="310.4260337362003" cy="276.6241600747512">n_18</text>
            </g>
            <g>
                <circle id="n_55" r="5" fill="#99ccff" cx="330.37569881683913" cy="345.92049768317406">
                    <title>n_55</title>
                </circle>
                <text x="0" y="-7" id="n_55" class="label_PbkBzYNf" transform="translate(330.37569881683913,345.92049768317406)" cx="330.37569881683913" cy="345.92049768317406">n_55</text>
            </g>
            <g>
                <circle id="n_56" r="5" fill="#99ccff" cx="215.9112451300322" cy="288.07323315978607">
                    <title>n_56</title>
                </circle>
                <text x="0" y="-7" id="n_56" class="label_PbkBzYNf" transform="translate(215.9112451300322,288.07323315978607)" cx="215.9112451300322" cy="288.07323315978607">n_56</text>
            </g>
            <g>
                <circle id="n_57" r="5" fill="#99ccff" cx="330.2547046685556" cy="266.9257441291252">
                    <title>n_57</title>
                </circle>
                <text x="0" y="-7" id="n_57" class="label_PbkBzYNf" transform="translate(330.2547046685556,266.9257441291252)" cx="330.2547046685556" cy="266.9257441291252">n_57</text>
            </g>
            <g>
                <circle id="n_58" r="5" fill="#99ccff" cx="237.49234345502063" cy="252.70605685228907">
                    <title>n_58</title>
                </circle>
                <text x="0" y="-7" id="n_58" class="label_PbkBzYNf" transform="translate(237.49234345502063,252.70605685228907)" cx="237.49234345502063" cy="252.70605685228907">n_58</text>
            </g>
            <g>
                <circle id="n_59" r="5" fill="#99ccff" cx="287.9057481571886" cy="241.1856157692463">
                    <title>n_59</title>
                </circle>
                <text x="0" y="-7" id="n_59" class="label_PbkBzYNf" transform="translate(287.9057481571886,241.1856157692463)" cx="287.9057481571886" cy="241.1856157692463">n_59</text>
            </g>
            <g>
                <circle id="n_60" r="5" fill="#99ccff" cx="372.45656151382224" cy="356.5358804768832">
                    <title>n_60</title>
                </circle>
                <text x="0" y="-7" id="n_60" class="label_PbkBzYNf" transform="translate(372.45656151382224,356.5358804768832)" cx="372.45656151382224" cy="356.5358804768832">n_60</text>
            </g>
            <g>
                <circle id="n_61" r="5" fill="#99ccff" cx="260.8130904181983" cy="324.0482692623863">
                    <title>n_61</title>
                </circle>
                <text x="0" y="-7" id="n_61" class="label_PbkBzYNf" transform="translate(260.8130904181983,324.0482692623863)" cx="260.8130904181983" cy="324.0482692623863">n_61</text>
            </g>
            <g>
                <circle id="n_62" r="5" fill="#99ccff" cx="320.518162536013" cy="252.12490462451225">
                    <title>n_62</title>
                </circle>
                <text x="0" y="-7" id="n_62" class="label_PbkBzYNf" transform="translate(320.518162536013,252.12490462451225)" cx="320.518162536013" cy="252.12490462451225">n_62</text>
            </g>
            <g>
                <circle id="n_63" r="5" fill="#99ccff" cx="323.792980106723" cy="359.12207192168285">
                    <title>n_63</title>
                </circle>
                <text x="0" y="-7" id="n_63" class="label_PbkBzYNf" transform="translate(323.792980106723,359.12207192168285)" cx="323.792980106723" cy="359.12207192168285">n_63</text>
            </g>
            <g>
                <circle id="n_64" r="5" fill="#99ccff" cx="168.23572316789708" cy="227.14062358128922">
                    <title>n_64</title>
                </circle>
                <text x="0" y="-7" id="n_64" class="label_PbkBzYNf" transform="translate(168.23572316789708,227.14062358128922)" cx="168.23572316789708" cy="227.14062358128922">n_64</text>
            </g>
            <g>
                <circle id="n_14" r="5" fill="#99ccff" cx="362.21075723806354" cy="299.06872703666755">
                    <title>n_14</title>
                </circle>
                <text x="0" y="-7" id="n_14" class="label_PbkBzYNf" transform="translate(362.21075723806354,299.06872703666755)" cx="362.21075723806354" cy="299.06872703666755">n_14</text>
            </g>
            <g>
                <circle id="n_65" r="5" fill="#99ccff" cx="295.97157647132497" cy="340.4150370080275">
                    <title>n_65</title>
                </circle>
                <text x="0" y="-7" id="n_65" class="label_PbkBzYNf" transform="translate(295.97157647132497,340.4150370080275)" cx="295.97157647132497" cy="340.4150370080275">n_65</text>
            </g>
            <g>
                <circle id="n_66" r="5" fill="#99ccff" cx="272.2784474201719" cy="230.6360244216126">
                    <title>n_66</title>
                </circle>
                <text x="0" y="-7" id="n_66" class="label_PbkBzYNf" transform="translate(272.2784474201719,230.6360244216126)" cx="272.2784474201719" cy="230.6360244216126">n_66</text>
            </g>
            <g>
                <circle id="n_67" r="5" fill="#99ccff" cx="348.43736237291506" cy="369.2196116186659">
                    <title>n_67</title>
                </circle>
                <text x="0" y="-7" id="n_67" class="label_PbkBzYNf" transform="translate(348.43736237291506,369.2196116186659)" cx="348.43736237291506" cy="369.2196116186659">n_67</text>
            </g>
            <g>
                <circle id="n_68" r="5" fill="#99ccff" cx="257.65983323492867" cy="318.55064051581064">
                    <title>n_68</title>
                </circle>
                <text x="0" y="-7" id="n_68" class="label_PbkBzYNf" transform="translate(257.65983323492867,318.55064051581064)" cx="257.65983323492867" cy="318.55064051581064">n_68</text>
            </g>
            <g>
                <circle id="n_69" r="5" fill="#99ccff" cx="429.40969398250303" cy="180.80927952356546">
                    <title>n_69</title>
                </circle>
                <text x="0" y="-7" id="n_69" class="label_PbkBzYNf" transform="translate(429.40969398250303,180.80927952356546)" cx="429.40969398250303" cy="180.80927952356546">n_69</text>
            </g>
            <g>
                <circle id="n_70" r="5" fill="#99ccff" cx="308.95865829495887" cy="398.0601780234397">
                    <title>n_70</title>
                </circle>
                <text x="0" y="-7" id="n_70" class="label_PbkBzYNf" transform="translate(308.95865829495887,398.0601780234397)" cx="308.95865829495887" cy="398.0601780234397">n_70</text>
            </g>
            <g>
                <circle id="n_71" r="5" fill="#99ccff" cx="184.92062323888607" cy="142.35411797406022">
                    <title>n_71</title>
                </circle>
                <text x="0" y="-7" id="n_71" class="label_PbkBzYNf" transform="translate(184.92062323888607,142.35411797406022)" cx="184.92062323888607" cy="142.35411797406022">n_71</text>
            </g>
            <g>
                <circle id="n_72" r="5" fill="#99ccff" cx="326.432236595263" cy="310.30078225845176">
                    <title>n_72</title>
                </circle>
                <text x="0" y="-7" id="n_72" class="label_PbkBzYNf" transform="translate(326.432236595263,310.30078225845176)" cx="326.432236595263" cy="310.30078225845176">n_72</text>
            </g>
            <g>
                <circle id="n_73" r="5" fill="#99ccff" cx="193.9031417458924" cy="340.55497504281936">
                    <title>n_73</title>
                </circle>
                <text x="0" y="-7" id="n_73" class="label_PbkBzYNf" transform="translate(193.9031417458924,340.55497504281936)" cx="193.9031417458924" cy="340.55497504281936">n_73</text>
            </g>
            <g>
                <circle id="n_74" r="5" fill="#99ccff" cx="319.593966807944" cy="229.68547255944267">
                    <title>n_74</title>
                </circle>
                <text x="0" y="-7" id="n_74" class="label_PbkBzYNf" transform="translate(319.593966807944,229.68547255944267)" cx="319.593966807944" cy="229.68547255944267">n_74</text>
            </g>
            <g>
                <circle id="n_75" r="5" fill="#99ccff" cx="426.26725160008084" cy="333.43613196573864">
                    <title>n_75</title>
                </circle>
                <text x="0" y="-7" id="n_75" class="label_PbkBzYNf" transform="translate(426.26725160008084,333.43613196573864)" cx="426.26725160008084" cy="333.43613196573864">n_75</text>
            </g>
            <g>
                <circle id="n_76" r="5" fill="#99ccff" cx="106.77689042783224" cy="232.10525636456475">
                    <title>n_76</title>
                </circle>
                <text x="0" y="-7" id="n_76" class="label_PbkBzYNf" transform="translate(106.77689042783224,232.10525636456475)" cx="106.77689042783224" cy="232.10525636456475">n_76</text>
            </g>
            <g>
                <circle id="n_77" r="5" fill="#99ccff" cx="489.5325582760499" cy="239.093238787796">
                    <title>n_77</title>
                </circle>
                <text x="0" y="-7" id="n_77" class="label_PbkBzYNf" transform="translate(489.5325582760499,239.093238787796)" cx="489.5325582760499" cy="239.093238787796">n_77</text>
            </g>
            <g>
                <circle id="n_78" r="5" fill="#99ccff" cx="213.70591187253893" cy="484.6024684246767">
                    <title>n_78</title>
                </circle>
                <text x="0" y="-7" id="n_78" class="label_PbkBzYNf" transform="translate(213.70591187253893,484.6024684246767)" cx="213.70591187253893" cy="484.6024684246767">n_78</text>
            </g>
            <g>
                <circle id="n_79" r="5" fill="#99ccff" cx="288.0269675059238" cy="322.7960651385956">
                    <title>n_79</title>
                </circle>
                <text x="0" y="-7" id="n_79" class="label_PbkBzYNf" transform="translate(288.0269675059238,322.7960651385956)" cx="288.0269675059238" cy="322.7960651385956">n_79</text>
            </g>
            <g>
                <circle id="n_80" r="5" fill="#99ccff" cx="376.4802844707953" cy="314.16624268396515">
                    <title>n_80</title>
                </circle>
                <text x="0" y="-7" id="n_80" class="label_PbkBzYNf" transform="translate(376.4802844707953,314.16624268396515)" cx="376.4802844707953" cy="314.16624268396515">n_80</text>
            </g>
            <g>
                <circle id="n_81" r="5" fill="#99ccff" cx="224.13391045003587" cy="297.6846669162338">
                    <title>n_81</title>
                </circle>
                <text x="0" y="-7" id="n_81" class="label_PbkBzYNf" transform="translate(224.13391045003587,297.6846669162338)" cx="224.13391045003587" cy="297.6846669162338">n_81</text>
            </g>
            <g>
                <circle id="n_38" r="5" fill="#99ccff" cx="388.7535573789182" cy="260.37265525572366">
                    <title>n_38</title>
                </circle>
                <text x="0" y="-7" id="n_38" class="label_PbkBzYNf" transform="translate(388.7535573789182,260.37265525572366)" cx="388.7535573789182" cy="260.37265525572366">n_38</text>
            </g>
            <g>
                <circle id="n_82" r="5" fill="#99ccff" cx="341.1653685113481" cy="405.23578921990276">
                    <title>n_82</title>
                </circle>
                <text x="0" y="-7" id="n_82" class="label_PbkBzYNf" transform="translate(341.1653685113481,405.23578921990276)" cx="341.1653685113481" cy="405.23578921990276">n_82</text>
            </g>
            <g>
                <circle id="n_83" r="5" fill="#99ccff" cx="235.9139780248551" cy="227.90752169525103">
                    <title>n_83</title>
                </circle>
                <text x="0" y="-7" id="n_83" class="label_PbkBzYNf" transform="translate(235.9139780248551,227.90752169525103)" cx="235.9139780248551" cy="227.90752169525103">n_83</text>
            </g>
            <g>
                <circle id="n_84" r="5" fill="#99ccff" cx="529.75386553375" cy="297.04758504956726">
                    <title>n_84</title>
                </circle>
                <text x="0" y="-7" id="n_84" class="label_PbkBzYNf" transform="translate(529.75386553375,297.04758504956726)" cx="529.75386553375" cy="297.04758504956726">n_84</text>
            </g>
            <g>
                <circle id="n_85" r="5" fill="#99ccff" cx="159.31092747761434" cy="452.4527719366345">
                    <title>n_85</title>
                </circle>
                <text x="0" y="-7" id="n_85" class="label_PbkBzYNf" transform="translate(159.31092747761434,452.4527719366345)" cx="159.31092747761434" cy="452.4527719366345">n_85</text>
            </g>
            <g>
                <circle id="n_37" r="5" fill="#99ccff" cx="298.6515284773136" cy="89.32795516287231">
                    <title>n_37</title>
                </circle>
                <text x="0" y="-7" id="n_37" class="label_PbkBzYNf" transform="translate(298.6515284773136,89.32795516287231)" cx="298.6515284773136" cy="89.32795516287231">n_37</text>
            </g>
            <g>
                <circle id="n_86" r="5" fill="#99ccff" cx="373.8155408952842" cy="393.2581287458271">
                    <title>n_86</title>
                </circle>
                <text x="0" y="-7" id="n_86" class="label_PbkBzYNf" transform="translate(373.8155408952842,393.2581287458271)" cx="373.8155408952842" cy="393.2581287458271">n_86</text>
            </g>
            <g>
                <circle id="n_87" r="5" fill="#99ccff" cx="77.00145542249689" cy="289.0594969857916">
                    <title>n_87</title>
                </circle>
                <text x="0" y="-7" id="n_87" class="label_PbkBzYNf" transform="translate(77.00145542249689,289.0594969857916)" cx="77.00145542249689" cy="289.0594969857916">n_87</text>
            </g>
            <g>
                <circle id="n_88" r="5" fill="#99ccff" cx="416.54079843402934" cy="282.4606855182708">
                    <title>n_88</title>
                </circle>
                <text x="0" y="-7" id="n_88" class="label_PbkBzYNf" transform="translate(416.54079843402934,282.4606855182708)" cx="416.54079843402934" cy="282.4606855182708">n_88</text>
            </g>
            <g>
                <circle id="n_89" r="5" fill="#99ccff" cx="280.56981596960435" cy="390.4640224932553">
                    <title>n_89</title>
                </circle>
                <text x="0" y="-7" id="n_89" class="label_PbkBzYNf" transform="translate(280.56981596960435,390.4640224932553)" cx="280.56981596960435" cy="390.4640224932553">n_89</text>
            </g>
        </g>
    </g>
</svg>