<svg xmlns="http://www.w3.org/2000/svg" width="600" height="600" id="LudPPnPT">        
    <text x="20" y="20" font-family="sans-serif" font-size="14px" fill="#666" style="cursor: pointer" id="LudPPnPT_svg_txt">[save svg]</text>
<defs><marker id="end" viewBox="0 -5 20 20" refX="34" refY="0" markerWidth="15" markerHeight="15" orient="auto"><path d="M0,-5 L20,0 L0,5 z" fill="#999" stroke="none"/></marker></defs><g class="everything" transform="translate(-7.013693457808415,86.33021343081924) scale(1.0000000000000007)"><g class="links_LudPPnPT"><line stroke-width="0.5" stroke="#999999" x1="286.8061087863682" y1="330.81616882063656" x2="272.00131713290443" y2="286.55847527528573"/><line stroke-width="0.125" stroke="#999999" x1="286.8061087863682" y1="330.81616882063656" x2="359.6116440591043" y2="357.66480439677565"/><line stroke-width="0.27586206896551724" stroke="#999999" x1="239.63132632556" y1="309.8227573385423" x2="272.00131713290443" y2="286.55847527528573"/><line stroke-width="0.05172413793103448" stroke="#999999" x1="239.63132632556" y1="309.8227573385423" x2="259.6933837619767" y2="395.6594945604429"/><line stroke-width="0.20689655172413793" stroke="#999999" x1="239.63132632556" y1="309.8227573385423" x2="330.4345742434869" y2="219.62688133095622"/><line stroke-width="0.49999999999999983" stroke="#999999" x1="239.63132632556" y1="309.8227573385423" x2="363.10839726162004" y2="313.1619523121984"/><line stroke-width="0.20689655172413793" stroke="#999999" x1="239.63132632556" y1="309.8227573385423" x2="317.655403867328" y2="272.6613660101176"/><line stroke-width="0.017241379310344827" stroke="#999999" x1="239.63132632556" y1="309.8227573385423" x2="202.12971669733932" y2="327.6691190620487"/><line stroke-width="0.034482758620689655" stroke="#999999" x1="239.63132632556" y1="309.8227573385423" x2="196.37973247482788" y2="276.36525956185864"/><line stroke-width="0.10344827586206898" stroke="#999999" x1="239.63132632556" y1="309.8227573385423" x2="213.90106315244316" y2="376.6582063418676"/><line stroke-width="0.2413793103448276" stroke="#999999" x1="239.63132632556" y1="309.8227573385423" x2="239.70260897653907" y2="261.6978322303815"/><line stroke-width="0.017241379310344827" stroke="#999999" x1="239.63132632556" y1="309.8227573385423" x2="170.57608191958732" y2="305.1727868392325"/><line stroke-width="0.017241379310344827" stroke="#999999" x1="239.63132632556" y1="309.8227573385423" x2="279.28169030268043" y2="229.99693296225067"/><line stroke-width="0.06896551724137931" stroke="#999999" x1="239.63132632556" y1="309.8227573385423" x2="258.72459370832877" y2="355.0004046001561"/><line stroke-width="0.02158273381294964" stroke="#999999" x1="272.00131713290443" y1="286.55847527528573" x2="286.8061087863682" y2="330.81616882063656"/><line stroke-width="0.07913669064748201" stroke="#999999" x1="272.00131713290443" y1="286.55847527528573" x2="239.63132632556" y2="309.8227573385423"/><line stroke-width="0.02877697841726619" stroke="#999999" x1="272.00131713290443" y1="286.55847527528573" x2="259.6933837619767" y2="395.6594945604429"/><line stroke-width="0.014388489208633094" stroke="#999999" x1="272.00131713290443" y1="286.55847527528573" x2="358.8459429808165" y2="185.16521786391627"/><line stroke-width="0.02158273381294964" stroke="#999999" x1="272.00131713290443" y1="286.55847527528573" x2="330.4345742434869" y2="219.62688133095622"/><line stroke-width="0.007194244604316547" stroke="#999999" x1="272.00131713290443" y1="286.55847527528573" x2="310.9768347502529" y2="317.7157541827301"/><line stroke-width="0.48201438848920874" stroke="#999999" x1="272.00131713290443" y1="286.55847527528573" x2="363.10839726162004" y2="313.1619523121984"/><line stroke-width="0.03597122302158273" stroke="#999999" x1="272.00131713290443" y1="286.55847527528573" x2="317.655403867328" y2="272.6613660101176"/><line stroke-width="0.007194244604316547" stroke="#999999" x1="272.00131713290443" y1="286.55847527528573" x2="202.12971669733932" y2="327.6691190620487"/><line stroke-width="0.02158273381294964" stroke="#999999" x1="272.00131713290443" y1="286.55847527528573" x2="196.37973247482788" y2="276.36525956185864"/><line stroke-width="0.050359712230215826" stroke="#999999" x1="272.00131713290443" y1="286.55847527528573" x2="213.90106315244316" y2="376.6582063418676"/><line stroke-width="0.02877697841726619" stroke="#999999" x1="272.00131713290443" y1="286.55847527528573" x2="359.6116440591043" y2="357.66480439677565"/><line stroke-width="0.05035971223021582" stroke="#999999" x1="272.00131713290443" y1="286.55847527528573" x2="239.70260897653907" y2="261.6978322303815"/><line stroke-width="0.05755395683453238" stroke="#999999" x1="272.00131713290443" y1="286.55847527528573" x2="317.5519046221791" y2="349.14059175385887"/><line stroke-width="0.02877697841726619" stroke="#999999" x1="272.00131713290443" y1="286.55847527528573" x2="337.59091104280975" y2="283.38350993887786"/><line stroke-width="0.03597122302158273" stroke="#999999" x1="272.00131713290443" y1="286.55847527528573" x2="279.28169030268043" y2="229.99693296225067"/><line stroke-width="0.05755395683453238" stroke="#999999" x1="272.00131713290443" y1="286.55847527528573" x2="258.72459370832877" y2="355.0004046001561"/><line stroke-width="0.3125" stroke="#999999" x1="259.6933837619767" y1="395.6594945604429" x2="239.63132632556" y2="309.8227573385423"/><line stroke-width="0.1875" stroke="#999999" x1="259.6933837619767" y1="395.6594945604429" x2="272.00131713290443" y2="286.55847527528573"/><line stroke-width="0.0625" stroke="#999999" x1="259.6933837619767" y1="395.6594945604429" x2="310.9768347502529" y2="317.7157541827301"/><line stroke-width="0.0625" stroke="#999999" x1="259.6933837619767" y1="395.6594945604429" x2="363.10839726162004" y2="313.1619523121984"/><line stroke-width="0.5" stroke="#999999" x1="259.6933837619767" y1="395.6594945604429" x2="213.90106315244316" y2="376.6582063418676"/><line stroke-width="0.0625" stroke="#999999" x1="259.6933837619767" y1="395.6594945604429" x2="269.8127173902191" y2="438.5611982253692"/><line stroke-width="0.3125" stroke="#999999" x1="259.6933837619767" y1="395.6594945604429" x2="258.72459370832877" y2="355.0004046001561"/><line stroke-width="0.5" stroke="#999999" x1="369.53534041383034" y1="403.7759761882823" x2="363.10839726162004" y2="313.1619523121984"/><line stroke-width="0.25" stroke="#999999" x1="369.53534041383034" y1="403.7759761882823" x2="363.4584250671218" y2="450.26029392023435"/><line stroke-width="0.05" stroke="#999999" x1="358.8459429808165" y1="185.16521786391627" x2="272.00131713290443" y2="286.55847527528573"/><line stroke-width="0.85" stroke="#999999" x1="358.8459429808165" y1="185.16521786391627" x2="330.4345742434869" y2="219.62688133095622"/><line stroke-width="0.65" stroke="#999999" x1="358.8459429808165" y1="185.16521786391627" x2="388.89669108292134" y2="202.8157941281627"/><line stroke-width="0.15000000000000002" stroke="#999999" x1="358.8459429808165" y1="185.16521786391627" x2="363.10839726162004" y2="313.1619523121984"/><line stroke-width="1" stroke="#999999" x1="259.95818792314856" y1="191.82092488842596" x2="279.28169030268043" y2="229.99693296225067"/><line stroke-width="0.125" stroke="#999999" x1="330.4345742434869" y1="219.62688133095622" x2="239.63132632556" y2="309.8227573385423"/><line stroke-width="0.125" stroke="#999999" x1="330.4345742434869" y1="219.62688133095622" x2="272.00131713290443" y2="286.55847527528573"/><line stroke-width="0.7083333333333334" stroke="#999999" x1="330.4345742434869" y1="219.62688133095622" x2="358.8459429808165" y2="185.16521786391627"/><line stroke-width="0.6666666666666667" stroke="#999999" x1="330.4345742434869" y1="219.62688133095622" x2="388.89669108292134" y2="202.8157941281627"/><line stroke-width="0.2916666666666667" stroke="#999999" x1="330.4345742434869" y1="219.62688133095622" x2="363.10839726162004" y2="313.1619523121984"/><line stroke-width="0.125" stroke="#999999" x1="330.4345742434869" y1="219.62688133095622" x2="317.655403867328" y2="272.6613660101176"/><line stroke-width="0.125" stroke="#999999" x1="330.4345742434869" y1="219.62688133095622" x2="239.70260897653907" y2="261.6978322303815"/><line stroke-width="1" stroke="#999999" x1="398.5585147913169" y1="282.07523128121386" x2="363.10839726162004" y2="313.1619523121984"/><line stroke-width="0.8571428571428571" stroke="#999999" x1="388.89669108292134" y1="202.8157941281627" x2="358.8459429808165" y2="185.16521786391627"/><line stroke-width="0.9285714285714285" stroke="#999999" x1="388.89669108292134" y1="202.8157941281627" x2="330.4345742434869" y2="219.62688133095622"/><line stroke-width="0.5" stroke="#999999" x1="310.9768347502529" y1="317.7157541827301" x2="272.00131713290443" y2="286.55847527528573"/><line stroke-width="0.5" stroke="#999999" x1="310.9768347502529" y1="317.7157541827301" x2="259.6933837619767" y2="395.6594945604429"/><line stroke-width="0.5" stroke="#999999" x1="310.9768347502529" y1="317.7157541827301" x2="363.10839726162004" y2="313.1619523121984"/><line stroke-width="0.5" stroke="#999999" x1="310.9768347502529" y1="317.7157541827301" x2="279.28169030268043" y2="229.99693296225067"/><line stroke-width="0.0739856801909308" stroke="#999999" x1="363.10839726162004" y1="313.1619523121984" x2="239.63132632556" y2="309.8227573385423"/><line stroke-width="0.2863961813842481" stroke="#999999" x1="363.10839726162004" y1="313.1619523121984" x2="272.00131713290443" y2="286.55847527528573"/><line stroke-width="0.002386634844868735" stroke="#999999" x1="363.10839726162004" y1="313.1619523121984" x2="259.6933837619767" y2="395.6594945604429"/><line stroke-width="0.00477326968973747" stroke="#999999" x1="363.10839726162004" y1="313.1619523121984" x2="369.53534041383034" y2="403.7759761882823"/><line stroke-width="0.023866348448687354" stroke="#999999" x1="363.10839726162004" y1="313.1619523121984" x2="358.8459429808165" y2="185.16521786391627"/><line stroke-width="0.02386634844868735" stroke="#999999" x1="363.10839726162004" y1="313.1619523121984" x2="330.4345742434869" y2="219.62688133095622"/><line stroke-width="0.0405727923627685" stroke="#999999" x1="363.10839726162004" y1="313.1619523121984" x2="398.5585147913169" y2="282.07523128121386"/><line stroke-width="0.002386634844868735" stroke="#999999" x1="363.10839726162004" y1="313.1619523121984" x2="310.9768347502529" y2="317.7157541827301"/><line stroke-width="0.2529832935560859" stroke="#999999" x1="363.10839726162004" y1="313.1619523121984" x2="317.655403867328" y2="272.6613660101176"/><line stroke-width="0.014319809069212413" stroke="#999999" x1="363.10839726162004" y1="313.1619523121984" x2="359.6116440591043" y2="357.66480439677565"/><line stroke-width="0.007159904534606206" stroke="#999999" x1="363.10839726162004" y1="313.1619523121984" x2="239.70260897653907" y2="261.6978322303815"/><line stroke-width="0.002386634844868735" stroke="#999999" x1="363.10839726162004" y1="313.1619523121984" x2="439.39586969897135" y2="365.8174401779333"/><line stroke-width="0.08591885441527446" stroke="#999999" x1="363.10839726162004" y1="313.1619523121984" x2="317.5519046221791" y2="349.14059175385887"/><line stroke-width="0.031026252983293555" stroke="#999999" x1="363.10839726162004" y1="313.1619523121984" x2="337.59091104280975" y2="283.38350993887786"/><line stroke-width="0.002386634844868735" stroke="#999999" x1="363.10839726162004" y1="313.1619523121984" x2="448.9552731540746" y2="309.65401283014853"/><line stroke-width="0.00477326968973747" stroke="#999999" x1="363.10839726162004" y1="313.1619523121984" x2="397.58755496353643" y2="333.7924724173183"/><line stroke-width="0.007159904534606206" stroke="#999999" x1="363.10839726162004" y1="313.1619523121984" x2="279.28169030268043" y2="229.99693296225067"/><line stroke-width="0.002386634844868735" stroke="#999999" x1="363.10839726162004" y1="313.1619523121984" x2="470.2481606959405" y2="343.47627461167195"/><line stroke-width="0.08591885441527446" stroke="#999999" x1="363.10839726162004" y1="313.1619523121984" x2="258.72459370832877" y2="355.0004046001561"/><line stroke-width="0.0297029702970297" stroke="#999999" x1="317.655403867328" y1="272.6613660101176" x2="239.63132632556" y2="309.8227573385423"/><line stroke-width="0.04950495049504951" stroke="#999999" x1="317.655403867328" y1="272.6613660101176" x2="272.00131713290443" y2="286.55847527528573"/><line stroke-width="0.0297029702970297" stroke="#999999" x1="317.655403867328" y1="272.6613660101176" x2="330.4345742434869" y2="219.62688133095622"/><line stroke-width="0.9207920792079209" stroke="#999999" x1="317.655403867328" y1="272.6613660101176" x2="363.10839726162004" y2="313.1619523121984"/><line stroke-width="0.0297029702970297" stroke="#999999" x1="317.655403867328" y1="272.6613660101176" x2="239.70260897653907" y2="261.6978322303815"/><line stroke-width="1" stroke="#999999" x1="202.12971669733932" y1="327.6691190620487" x2="239.63132632556" y2="309.8227573385423"/><line stroke-width="1" stroke="#999999" x1="202.12971669733932" y1="327.6691190620487" x2="272.00131713290443" y2="286.55847527528573"/><line stroke-width="1" stroke="#999999" x1="202.12971669733932" y1="327.6691190620487" x2="213.90106315244316" y2="376.6582063418676"/><line stroke-width="1" stroke="#999999" x1="202.12971669733932" y1="327.6691190620487" x2="239.70260897653907" y2="261.6978322303815"/><line stroke-width="0.4" stroke="#999999" x1="196.37973247482788" y1="276.36525956185864" x2="239.63132632556" y2="309.8227573385423"/><line stroke-width="0.2" stroke="#999999" x1="196.37973247482788" y1="276.36525956185864" x2="272.00131713290443" y2="286.55847527528573"/><line stroke-width="0.2" stroke="#999999" x1="196.37973247482788" y1="276.36525956185864" x2="239.70260897653907" y2="261.6978322303815"/><line stroke-width="0.2" stroke="#999999" x1="196.37973247482788" y1="276.36525956185864" x2="170.57608191958732" y2="305.1727868392325"/><line stroke-width="0.4" stroke="#999999" x1="196.37973247482788" y1="276.36525956185864" x2="258.72459370832877" y2="355.0004046001561"/><line stroke-width="0.5" stroke="#999999" x1="213.90106315244316" y1="376.6582063418676" x2="239.63132632556" y2="309.8227573385423"/><line stroke-width="0.3333333333333333" stroke="#999999" x1="213.90106315244316" y1="376.6582063418676" x2="272.00131713290443" y2="286.55847527528573"/><line stroke-width="0.3333333333333333" stroke="#999999" x1="213.90106315244316" y1="376.6582063418676" x2="259.6933837619767" y2="395.6594945604429"/><line stroke-width="0.08333333333333333" stroke="#999999" x1="213.90106315244316" y1="376.6582063418676" x2="202.12971669733932" y2="327.6691190620487"/><line stroke-width="0.08333333333333333" stroke="#999999" x1="213.90106315244316" y1="376.6582063418676" x2="239.70260897653907" y2="261.6978322303815"/><line stroke-width="0.16666666666666666" stroke="#999999" x1="213.90106315244316" y1="376.6582063418676" x2="258.72459370832877" y2="355.0004046001561"/><line stroke-width="1" stroke="#999999" x1="143.97994450988915" y1="161.2082711713967" x2="176.05816948048812" y2="135.53094600370525"/><line stroke-width="0.021052631578947368" stroke="#999999" x1="359.6116440591043" y1="357.66480439677565" x2="286.8061087863682" y2="330.81616882063656"/><line stroke-width="0.031578947368421054" stroke="#999999" x1="359.6116440591043" y1="357.66480439677565" x2="272.00131713290443" y2="286.55847527528573"/><line stroke-width="0.4842105263157894" stroke="#999999" x1="359.6116440591043" y1="357.66480439677565" x2="363.10839726162004" y2="313.1619523121984"/><line stroke-width="1" stroke="#999999" x1="176.05816948048812" y1="135.53094600370525" x2="143.97994450988915" y2="161.2082711713967"/><line stroke-width="1" stroke="#999999" x1="363.4584250671218" y1="450.26029392023435" x2="369.53534041383034" y2="403.7759761882823"/><line stroke-width="0.9999999999999999" stroke="#999999" x1="239.70260897653907" y1="261.6978322303815" x2="239.63132632556" y2="309.8227573385423"/><line stroke-width="0.9999999999999999" stroke="#999999" x1="239.70260897653907" y1="261.6978322303815" x2="272.00131713290443" y2="286.55847527528573"/><line stroke-width="0.23076923076923078" stroke="#999999" x1="239.70260897653907" y1="261.6978322303815" x2="330.4345742434869" y2="219.62688133095622"/><line stroke-width="0.23076923076923078" stroke="#999999" x1="239.70260897653907" y1="261.6978322303815" x2="363.10839726162004" y2="313.1619523121984"/><line stroke-width="0.23076923076923078" stroke="#999999" x1="239.70260897653907" y1="261.6978322303815" x2="317.655403867328" y2="272.6613660101176"/><line stroke-width="0.15384615384615385" stroke="#999999" x1="239.70260897653907" y1="261.6978322303815" x2="202.12971669733932" y2="327.6691190620487"/><line stroke-width="0.6153846153846154" stroke="#999999" x1="239.70260897653907" y1="261.6978322303815" x2="196.37973247482788" y2="276.36525956185864"/><line stroke-width="0.15384615384615385" stroke="#999999" x1="239.70260897653907" y1="261.6978322303815" x2="213.90106315244316" y2="376.6582063418676"/><line stroke-width="1" stroke="#999999" x1="439.39586969897135" y1="365.8174401779333" x2="363.10839726162004" y2="313.1619523121984"/><line stroke-width="1" stroke="#999999" x1="439.39586969897135" y1="365.8174401779333" x2="448.9552731540746" y2="309.65401283014853"/><line stroke-width="1" stroke="#999999" x1="439.39586969897135" y1="365.8174401779333" x2="470.2481606959405" y2="343.47627461167195"/><line stroke-width="0.5" stroke="#999999" x1="317.5519046221791" y1="349.14059175385887" x2="272.00131713290443" y2="286.55847527528573"/><line stroke-width="1" stroke="#999999" x1="317.5519046221791" y1="349.14059175385887" x2="363.10839726162004" y2="313.1619523121984"/><line stroke-width="0.5" stroke="#999999" x1="317.5519046221791" y1="349.14059175385887" x2="258.72459370832877" y2="355.0004046001561"/><line stroke-width="1" stroke="#999999" x1="337.59091104280975" y1="283.38350993887786" x2="272.00131713290443" y2="286.55847527528573"/><line stroke-width="1" stroke="#999999" x1="337.59091104280975" y1="283.38350993887786" x2="363.10839726162004" y2="313.1619523121984"/><line stroke-width="1" stroke="#999999" x1="170.57608191958732" y1="305.1727868392325" x2="239.63132632556" y2="309.8227573385423"/><line stroke-width="1" stroke="#999999" x1="170.57608191958732" y1="305.1727868392325" x2="196.37973247482788" y2="276.36525956185864"/><line stroke-width="1" stroke="#999999" x1="448.9552731540746" y1="309.65401283014853" x2="363.10839726162004" y2="313.1619523121984"/><line stroke-width="1" stroke="#999999" x1="448.9552731540746" y1="309.65401283014853" x2="439.39586969897135" y2="365.8174401779333"/><line stroke-width="1" stroke="#999999" x1="448.9552731540746" y1="309.65401283014853" x2="470.2481606959405" y2="343.47627461167195"/><line stroke-width="1" stroke="#999999" x1="397.58755496353643" y1="333.7924724173183" x2="363.10839726162004" y2="313.1619523121984"/><line stroke-width="0.0625" stroke="#999999" x1="279.28169030268043" y1="229.99693296225067" x2="239.63132632556" y2="309.8227573385423"/><line stroke-width="0.3125" stroke="#999999" x1="279.28169030268043" y1="229.99693296225067" x2="272.00131713290443" y2="286.55847527528573"/><line stroke-width="0.0625" stroke="#999999" x1="279.28169030268043" y1="229.99693296225067" x2="259.95818792314856" y2="191.82092488842596"/><line stroke-width="0.0625" stroke="#999999" x1="279.28169030268043" y1="229.99693296225067" x2="310.9768347502529" y2="317.7157541827301"/><line stroke-width="0.125" stroke="#999999" x1="279.28169030268043" y1="229.99693296225067" x2="363.10839726162004" y2="313.1619523121984"/><line stroke-width="0.5" stroke="#999999" x1="269.8127173902191" y1="438.5611982253692" x2="259.6933837619767" y2="395.6594945604429"/><line stroke-width="1" stroke="#999999" x1="470.2481606959405" y1="343.47627461167195" x2="363.10839726162004" y2="313.1619523121984"/><line stroke-width="1" stroke="#999999" x1="470.2481606959405" y1="343.47627461167195" x2="439.39586969897135" y2="365.8174401779333"/><line stroke-width="1" stroke="#999999" x1="470.2481606959405" y1="343.47627461167195" x2="448.9552731540746" y2="309.65401283014853"/><line stroke-width="0.5454545454545454" stroke="#999999" x1="258.72459370832877" y1="355.0004046001561" x2="239.63132632556" y2="309.8227573385423"/><line stroke-width="0.18181818181818182" stroke="#999999" x1="258.72459370832877" y1="355.0004046001561" x2="272.00131713290443" y2="286.55847527528573"/><line stroke-width="0.36363636363636365" stroke="#999999" x1="258.72459370832877" y1="355.0004046001561" x2="259.6933837619767" y2="395.6594945604429"/><line stroke-width="0.2727272727272727" stroke="#999999" x1="258.72459370832877" y1="355.0004046001561" x2="363.10839726162004" y2="313.1619523121984"/><line stroke-width="0.18181818181818182" stroke="#999999" x1="258.72459370832877" y1="355.0004046001561" x2="196.37973247482788" y2="276.36525956185864"/><line stroke-width="0.36363636363636365" stroke="#999999" x1="258.72459370832877" y1="355.0004046001561" x2="213.90106315244316" y2="376.6582063418676"/><line stroke-width="0.18181818181818182" stroke="#999999" x1="258.72459370832877" y1="355.0004046001561" x2="317.5519046221791" y2="349.14059175385887"/></g><g class="nodes_LudPPnPT"><g><circle id="n_54" r="5" fill="#99ccff" cx="286.8061087863682" cy="330.81616882063656"><title>n_54</title></circle><text x="0" y="-7" id="n_54" class="label_LudPPnPT" transform="translate(286.8061087863682,330.81616882063656)" cx="286.8061087863682" cy="330.81616882063656">n_54</text></g><g><circle id="n_1" r="5" fill="#99ccff" cx="239.63132632556" cy="309.8227573385423"><title>n_1</title></circle><text x="0" y="-7" id="n_1" class="label_LudPPnPT" transform="translate(239.63132632556,309.8227573385423)" cx="239.63132632556" cy="309.8227573385423">n_1</text></g><g><circle id="n_18" r="5" fill="#99ccff" cx="272.00131713290443" cy="286.55847527528573"><title>n_18</title></circle><text x="0" y="-7" id="n_18" class="label_LudPPnPT" transform="translate(272.00131713290443,286.55847527528573)" cx="272.00131713290443" cy="286.55847527528573">n_18</text></g><g><circle id="n_55" r="5" fill="#99ccff" cx="259.6933837619767" cy="395.6594945604429"><title>n_55</title></circle><text x="0" y="-7" id="n_55" class="label_LudPPnPT" transform="translate(259.6933837619767,395.6594945604429)" cx="259.6933837619767" cy="395.6594945604429">n_55</text></g><g><circle id="n_56" r="5" fill="#99ccff" cx="369.53534041383034" cy="403.7759761882823"><title>n_56</title></circle><text x="0" y="-7" id="n_56" class="label_LudPPnPT" transform="translate(369.53534041383034,403.7759761882823)" cx="369.53534041383034" cy="403.7759761882823">n_56</text></g><g><circle id="n_57" r="5" fill="#99ccff" cx="358.8459429808165" cy="185.16521786391627"><title>n_57</title></circle><text x="0" y="-7" id="n_57" class="label_LudPPnPT" transform="translate(358.8459429808165,185.16521786391627)" cx="358.8459429808165" cy="185.16521786391627">n_57</text></g><g><circle id="n_58" r="5" fill="#99ccff" cx="259.95818792314856" cy="191.82092488842596"><title>n_58</title></circle><text x="0" y="-7" id="n_58" class="label_LudPPnPT" transform="translate(259.95818792314856,191.82092488842596)" cx="259.95818792314856" cy="191.82092488842596">n_58</text></g><g><circle id="n_59" r="5" fill="#99ccff" cx="330.4345742434869" cy="219.62688133095622"><title>n_59</title></circle><text x="0" y="-7" id="n_59" class="label_LudPPnPT" transform="translate(330.4345742434869,219.62688133095622)" cx="330.4345742434869" cy="219.62688133095622">n_59</text></g><g><circle id="n_60" r="5" fill="#99ccff" cx="398.5585147913169" cy="282.07523128121386"><title>n_60</title></circle><text x="0" y="-7" id="n_60" class="label_LudPPnPT" transform="translate(398.5585147913169,282.07523128121386)" cx="398.5585147913169" cy="282.07523128121386">n_60</text></g><g><circle id="n_61" r="5" fill="#99ccff" cx="388.89669108292134" cy="202.8157941281627"><title>n_61</title></circle><text x="0" y="-7" id="n_61" class="label_LudPPnPT" transform="translate(388.89669108292134,202.8157941281627)" cx="388.89669108292134" cy="202.8157941281627">n_61</text></g><g><circle id="n_62" r="5" fill="#99ccff" cx="310.9768347502529" cy="317.7157541827301"><title>n_62</title></circle><text x="0" y="-7" id="n_62" class="label_LudPPnPT" transform="translate(310.9768347502529,317.7157541827301)" cx="310.9768347502529" cy="317.7157541827301">n_62</text></g><g><circle id="n_63" r="5" fill="#99ccff" cx="363.10839726162004" cy="313.1619523121984"><title>n_63</title></circle><text x="0" y="-7" id="n_63" class="label_LudPPnPT" transform="translate(363.10839726162004,313.1619523121984)" cx="363.10839726162004" cy="313.1619523121984">n_63</text></g><g><circle id="n_64" r="5" fill="#99ccff" cx="43.42260879623862" cy="192.21809352879427"><title>n_64</title></circle><text x="0" y="-7" id="n_64" class="label_LudPPnPT" transform="translate(43.42260879623862,192.21809352879427)" cx="43.42260879623862" cy="192.21809352879427">n_64</text></g><g><circle id="n_14" r="5" fill="#99ccff" cx="317.655403867328" cy="272.6613660101176"><title>n_14</title></circle><text x="0" y="-7" id="n_14" class="label_LudPPnPT" transform="translate(317.655403867328,272.6613660101176)" cx="317.655403867328" cy="272.6613660101176">n_14</text></g><g><circle id="n_65" r="5" fill="#99ccff" cx="202.12971669733932" cy="327.6691190620487"><title>n_65</title></circle><text x="0" y="-7" id="n_65" class="label_LudPPnPT" transform="translate(202.12971669733932,327.6691190620487)" cx="202.12971669733932" cy="327.6691190620487">n_65</text></g><g><circle id="n_66" r="5" fill="#99ccff" cx="196.37973247482788" cy="276.36525956185864"><title>n_66</title></circle><text x="0" y="-7" id="n_66" class="label_LudPPnPT" transform="translate(196.37973247482788,276.36525956185864)" cx="196.37973247482788" cy="276.36525956185864">n_66</text></g><g><circle id="n_67" r="5" fill="#99ccff" cx="213.90106315244316" cy="376.6582063418676"><title>n_67</title></circle><text x="0" y="-7" id="n_67" class="label_LudPPnPT" transform="translate(213.90106315244316,376.6582063418676)" cx="213.90106315244316" cy="376.6582063418676">n_67</text></g><g><circle id="n_68" r="5" fill="#99ccff" cx="143.97994450988915" cy="161.2082711713967"><title>n_68</title></circle><text x="0" y="-7" id="n_68" class="label_LudPPnPT" transform="translate(143.97994450988915,161.2082711713967)" cx="143.97994450988915" cy="161.2082711713967">n_68</text></g><g><circle id="n_69" r="5" fill="#99ccff" cx="621.3863949661228" cy="114.30897313316922"><title>n_69</title></circle><text x="0" y="-7" id="n_69" class="label_LudPPnPT" transform="translate(621.3863949661228,114.30897313316922)" cx="621.3863949661228" cy="114.30897313316922">n_69</text></g><g><circle id="n_70" r="5" fill="#99ccff" cx="359.6116440591043" cy="357.66480439677565"><title>n_70</title></circle><text x="0" y="-7" id="n_70" class="label_LudPPnPT" transform="translate(359.6116440591043,357.66480439677565)" cx="359.6116440591043" cy="357.66480439677565">n_70</text></g><g><circle id="n_71" r="5" fill="#99ccff" cx="139.72369265768347" cy="32.100323275009536"><title>n_71</title></circle><text x="0" y="-7" id="n_71" class="label_LudPPnPT" transform="translate(139.72369265768347,32.100323275009536)" cx="139.72369265768347" cy="32.100323275009536">n_71</text></g><g><circle id="n_72" r="5" fill="#99ccff" cx="176.05816948048812" cy="135.53094600370525"><title>n_72</title></circle><text x="0" y="-7" id="n_72" class="label_LudPPnPT" transform="translate(176.05816948048812,135.53094600370525)" cx="176.05816948048812" cy="135.53094600370525">n_72</text></g><g><circle id="n_73" r="5" fill="#99ccff" cx="363.4584250671218" cy="450.26029392023435"><title>n_73</title></circle><text x="0" y="-7" id="n_73" class="label_LudPPnPT" transform="translate(363.4584250671218,450.26029392023435)" cx="363.4584250671218" cy="450.26029392023435">n_73</text></g><g><circle id="n_74" r="5" fill="#99ccff" cx="239.70260897653907" cy="261.6978322303815"><title>n_74</title></circle><text x="0" y="-7" id="n_74" class="label_LudPPnPT" transform="translate(239.70260897653907,261.6978322303815)" cx="239.70260897653907" cy="261.6978322303815">n_74</text></g><g><circle id="n_75" r="5" fill="#99ccff" cx="439.39586969897135" cy="365.8174401779333"><title>n_75</title></circle><text x="0" y="-7" id="n_75" class="label_LudPPnPT" transform="translate(439.39586969897135,365.8174401779333)" cx="439.39586969897135" cy="365.8174401779333">n_75</text></g><g><circle id="n_76" r="5" fill="#99ccff" cx="-51.689324092394045" cy="224.64072322371518"><title>n_76</title></circle><text x="0" y="-7" id="n_76" class="label_LudPPnPT" transform="translate(-51.689324092394045,224.64072322371518)" cx="-51.689324092394045" cy="224.64072322371518">n_76</text></g><g><circle id="n_77" r="5" fill="#99ccff" cx="733.0296887751304" cy="243.19749459734905"><title>n_77</title></circle><text x="0" y="-7" id="n_77" class="label_LudPPnPT" transform="translate(733.0296887751304,243.19749459734905)" cx="733.0296887751304" cy="243.19749459734905">n_77</text></g><g><circle id="n_78" r="5" fill="#99ccff" cx="234.1105592948531" cy="735.7314368811516"><title>n_78</title></circle><text x="0" y="-7" id="n_78" class="label_LudPPnPT" transform="translate(234.1105592948531,735.7314368811516)" cx="234.1105592948531" cy="735.7314368811516">n_78</text></g><g><circle id="n_79" r="5" fill="#99ccff" cx="317.5519046221791" cy="349.14059175385887"><title>n_79</title></circle><text x="0" y="-7" id="n_79" class="label_LudPPnPT" transform="translate(317.5519046221791,349.14059175385887)" cx="317.5519046221791" cy="349.14059175385887">n_79</text></g><g><circle id="n_80" r="5" fill="#99ccff" cx="337.59091104280975" cy="283.38350993887786"><title>n_80</title></circle><text x="0" y="-7" id="n_80" class="label_LudPPnPT" transform="translate(337.59091104280975,283.38350993887786)" cx="337.59091104280975" cy="283.38350993887786">n_80</text></g><g><circle id="n_81" r="5" fill="#99ccff" cx="170.57608191958732" cy="305.1727868392325"><title>n_81</title></circle><text x="0" y="-7" id="n_81" class="label_LudPPnPT" transform="translate(170.57608191958732,305.1727868392325)" cx="170.57608191958732" cy="305.1727868392325">n_81</text></g><g><circle id="n_38" r="5" fill="#99ccff" cx="448.9552731540746" cy="309.65401283014853"><title>n_38</title></circle><text x="0" y="-7" id="n_38" class="label_LudPPnPT" transform="translate(448.9552731540746,309.65401283014853)" cx="448.9552731540746" cy="309.65401283014853">n_38</text></g><g><circle id="n_82" r="5" fill="#99ccff" cx="397.58755496353643" cy="333.7924724173183"><title>n_82</title></circle><text x="0" y="-7" id="n_82" class="label_LudPPnPT" transform="translate(397.58755496353643,333.7924724173183)" cx="397.58755496353643" cy="333.7924724173183">n_82</text></g><g><circle id="n_83" r="5" fill="#99ccff" cx="279.28169030268043" cy="229.99693296225067"><title>n_83</title></circle><text x="0" y="-7" id="n_83" class="label_LudPPnPT" transform="translate(279.28169030268043,229.99693296225067)" cx="279.28169030268043" cy="229.99693296225067">n_83</text></g><g><circle id="n_84" r="5" fill="#99ccff" cx="759.802898362973" cy="398.55707287508324"><title>n_84</title></circle><text x="0" y="-7" id="n_84" class="label_LudPPnPT" transform="translate(759.802898362973,398.55707287508324)" cx="759.802898362973" cy="398.55707287508324">n_84</text></g><g><circle id="n_85" r="5" fill="#99ccff" cx="84.94044628465616" cy="655.3088410424749"><title>n_85</title></circle><text x="0" y="-7" id="n_85" class="label_LudPPnPT" transform="translate(84.94044628465616,655.3088410424749)" cx="84.94044628465616" cy="655.3088410424749">n_85</text></g><g><circle id="n_37" r="5" fill="#99ccff" cx="360.3487182046521" cy="-48.98201211357312"><title>n_37</title></circle><text x="0" y="-7" id="n_37" class="label_LudPPnPT" transform="translate(360.3487182046521,-48.98201211357312)" cx="360.3487182046521" cy="-48.98201211357312">n_37</text></g><g><circle id="n_86" r="5" fill="#99ccff" cx="269.8127173902191" cy="438.5611982253692"><title>n_86</title></circle><text x="0" y="-7" id="n_86" class="label_LudPPnPT" transform="translate(269.8127173902191,438.5611982253692)" cx="269.8127173902191" cy="438.5611982253692">n_86</text></g><g><circle id="n_87" r="5" fill="#99ccff" cx="-66.19795249377428" cy="380.1415859993232"><title>n_87</title></circle><text x="0" y="-7" id="n_87" class="label_LudPPnPT" transform="translate(-66.19795249377428,380.1415859993232)" cx="-66.19795249377428" cy="380.1415859993232">n_87</text></g><g><circle id="n_88" r="5" fill="#99ccff" cx="470.2481606959405" cy="343.47627461167195"><title>n_88</title></circle><text x="0" y="-7" id="n_88" class="label_LudPPnPT" transform="translate(470.2481606959405,343.47627461167195)" cx="470.2481606959405" cy="343.47627461167195">n_88</text></g><g><circle id="n_89" r="5" fill="#99ccff" cx="258.72459370832877" cy="355.0004046001561"><title>n_89</title></circle><text x="0" y="-7" id="n_89" class="label_LudPPnPT" transform="translate(258.72459370832877,355.0004046001561)" cx="258.72459370832877" cy="355.0004046001561">n_89</text></g></g></g></svg>