<svg xmlns="http://www.w3.org/2000/svg" width="600" height="600" id="BePdXihb">        
    <text x="20" y="20" font-family="sans-serif" font-size="14px" fill="#666" style="cursor: pointer" id="BePdXihb_svg_txt">[save svg]</text>
<defs><marker id="end" viewBox="0 -5 20 20" refX="34" refY="0" markerWidth="15" markerHeight="15" orient="auto"><path d="M0,-5 L20,0 L0,5 z" fill="#999" stroke="none"/></marker></defs><g class="everything"><g class="links_BePdXihb"><line stroke-width="0.3333333333333333" stroke="#999999" x1="371.0315342866923" y1="266.82600763792993" x2="392.34021162632644" y2="305.49962859494104"/><line stroke-width="0.3333333333333333" stroke="#999999" x1="371.0315342866923" y1="266.82600763792993" x2="343.63452203605823" y2="315.71190236511086"/><line stroke-width="0.05384615384615385" stroke="#999999" x1="335.22808440370494" y1="419.4051866081326" x2="297.79779787726267" y2="356.9311946519648"/><line stroke-width="0.39230769230769236" stroke="#999999" x1="335.22808440370494" y1="419.4051866081326" x2="345.6676783356014" y2="379.4506157300505"/><line stroke-width="0.36" stroke="#999999" x1="295.7928679709603" y1="310.71386238832423" x2="343.63452203605823" y2="315.71190236511086"/><line stroke-width="0.36" stroke="#999999" x1="295.7928679709603" y1="310.71386238832423" x2="297.79779787726267" y2="356.9311946519648"/><line stroke-width="0.36" stroke="#999999" x1="295.7928679709603" y1="310.71386238832423" x2="345.6676783356014" y2="379.4506157300505"/><line stroke-width="0.4444444444444444" stroke="#999999" x1="392.34021162632644" y1="305.49962859494104" x2="371.0315342866923" y2="266.82600763792993"/><line stroke-width="0.8888888888888888" stroke="#999999" x1="392.34021162632644" y1="305.49962859494104" x2="343.63452203605823" y2="315.71190236511086"/><line stroke-width="0.25" stroke="#999999" x1="343.63452203605823" y1="315.71190236511086" x2="371.0315342866923" y2="266.82600763792993"/><line stroke-width="0.375" stroke="#999999" x1="343.63452203605823" y1="315.71190236511086" x2="295.7928679709603" y2="310.71386238832423"/><line stroke-width="0.625" stroke="#999999" x1="343.63452203605823" y1="315.71190236511086" x2="392.34021162632644" y2="305.49962859494104"/><line stroke-width="0.375" stroke="#999999" x1="343.63452203605823" y1="315.71190236511086" x2="297.79779787726267" y2="356.9311946519648"/><line stroke-width="0.375" stroke="#999999" x1="343.63452203605823" y1="315.71190236511086" x2="345.6676783356014" y2="379.4506157300505"/><line stroke-width="0.21428571428571427" stroke="#999999" x1="297.79779787726267" y1="356.9311946519648" x2="335.22808440370494" y2="419.4051866081326"/><line stroke-width="0.21428571428571427" stroke="#999999" x1="297.79779787726267" y1="356.9311946519648" x2="295.7928679709603" y2="310.71386238832423"/><line stroke-width="0.21428571428571427" stroke="#999999" x1="297.79779787726267" y1="356.9311946519648" x2="343.63452203605823" y2="315.71190236511086"/><line stroke-width="0.21428571428571427" stroke="#999999" x1="297.79779787726267" y1="356.9311946519648" x2="345.6676783356014" y2="379.4506157300505"/><line stroke-width="0.14285714285714285" stroke="#999999" x1="297.79779787726267" y1="356.9311946519648" x2="253.47086222708143" y2="361.8233289863464"/><line stroke-width="0.9552238805970148" stroke="#999999" x1="345.6676783356014" y1="379.4506157300505" x2="335.22808440370494" y2="419.4051866081326"/><line stroke-width="0.04477611940298507" stroke="#999999" x1="345.6676783356014" y1="379.4506157300505" x2="295.7928679709603" y2="310.71386238832423"/><line stroke-width="0.04477611940298507" stroke="#999999" x1="345.6676783356014" y1="379.4506157300505" x2="343.63452203605823" y2="315.71190236511086"/><line stroke-width="0.04477611940298507" stroke="#999999" x1="345.6676783356014" y1="379.4506157300505" x2="297.79779787726267" y2="356.9311946519648"/><line stroke-width="0.017857142857142856" stroke="#999999" x1="253.47086222708143" y1="361.8233289863464" x2="297.79779787726267" y2="356.9311946519648"/></g><g class="nodes_BePdXihb"><g><circle id="n_57" r="5" fill="#99ccff" cx="371.0315342866923" cy="266.82600763792993"><title>n_57</title></circle><text x="0" y="-7" id="n_57" class="label_BePdXihb" transform="translate(371.0315342866923,266.82600763792993)" cx="371.0315342866923" cy="266.82600763792993">n_57</text></g><g><circle id="n_67" r="5" fill="#99ccff" cx="140.04238724638049" cy="418.8887391758646"><title>n_67</title></circle><text x="0" y="-7" id="n_67" class="label_BePdXihb" transform="translate(140.04238724638049,418.8887391758646)" cx="140.04238724638049" cy="418.8887391758646">n_67</text></g><g><circle id="n_66" r="5" fill="#99ccff" cx="298.453246648898" cy="120.37639432357372"><title>n_66</title></circle><text x="0" y="-7" id="n_66" class="label_BePdXihb" transform="translate(298.453246648898,120.37639432357372)" cx="298.453246648898" cy="120.37639432357372">n_66</text></g><g><circle id="n_63" r="5" fill="#99ccff" cx="335.22808440370494" cy="419.4051866081326"><title>n_63</title></circle><text x="0" y="-7" id="n_63" class="label_BePdXihb" transform="translate(335.22808440370494,419.4051866081326)" cx="335.22808440370494" cy="419.4051866081326">n_63</text></g><g><circle id="n_1" r="5" fill="#99ccff" cx="295.7928679709603" cy="310.71386238832423"><title>n_1</title></circle><text x="0" y="-7" id="n_1" class="label_BePdXihb" transform="translate(295.7928679709603,310.71386238832423)" cx="295.7928679709603" cy="310.71386238832423">n_1</text></g><g><circle id="n_61" r="5" fill="#99ccff" cx="392.34021162632644" cy="305.49962859494104"><title>n_61</title></circle><text x="0" y="-7" id="n_61" class="label_BePdXihb" transform="translate(392.34021162632644,305.49962859494104)" cx="392.34021162632644" cy="305.49962859494104">n_61</text></g><g><circle id="n_56" r="5" fill="#99ccff" cx="221.39858349363837" cy="534.0096781767646"><title>n_56</title></circle><text x="0" y="-7" id="n_56" class="label_BePdXihb" transform="translate(221.39858349363837,534.0096781767646)" cx="221.39858349363837" cy="534.0096781767646">n_56</text></g><g><circle id="n_68" r="5" fill="#99ccff" cx="189.80979122637976" cy="60.09029833728892"><title>n_68</title></circle><text x="0" y="-7" id="n_68" class="label_BePdXihb" transform="translate(189.80979122637976,60.09029833728892)" cx="189.80979122637976" cy="60.09029833728892">n_68</text></g><g><circle id="n_59" r="5" fill="#99ccff" cx="343.63452203605823" cy="315.71190236511086"><title>n_59</title></circle><text x="0" y="-7" id="n_59" class="label_BePdXihb" transform="translate(343.63452203605823,315.71190236511086)" cx="343.63452203605823" cy="315.71190236511086">n_59</text></g><g><circle id="n_18" r="5" fill="#99ccff" cx="297.79779787726267" cy="356.9311946519648"><title>n_18</title></circle><text x="0" y="-7" id="n_18" class="label_BePdXihb" transform="translate(297.79779787726267,356.9311946519648)" cx="297.79779787726267" cy="356.9311946519648">n_18</text></g><g><circle id="n_69" r="5" fill="#99ccff" cx="415.3357049462059" cy="50.27057870211201"><title>n_69</title></circle><text x="0" y="-7" id="n_69" class="label_BePdXihb" transform="translate(415.3357049462059,50.27057870211201)" cx="415.3357049462059" cy="50.27057870211201">n_69</text></g><g><circle id="n_14" r="5" fill="#99ccff" cx="345.6676783356014" cy="379.4506157300505"><title>n_14</title></circle><text x="0" y="-7" id="n_14" class="label_BePdXihb" transform="translate(345.6676783356014,379.4506157300505)" cx="345.6676783356014" cy="379.4506157300505">n_14</text></g><g><circle id="n_70" r="5" fill="#99ccff" cx="253.47086222708143" cy="361.8233289863464"><title>n_70</title></circle><text x="0" y="-7" id="n_70" class="label_BePdXihb" transform="translate(253.47086222708143,361.8233289863464)" cx="253.47086222708143" cy="361.8233289863464">n_70</text></g></g></g></svg>