<svg xmlns="http://www.w3.org/2000/svg" width="600" height="600" id="DvXCBEKs">        
    <text x="20" y="20" font-family="sans-serif" font-size="14px" fill="#666" style="cursor: pointer" id="DvXCBEKs_svg_txt">[save svg]</text>
<defs><marker id="end" viewBox="0 -5 20 20" refX="34" refY="0" markerWidth="15" markerHeight="15" orient="auto"><path d="M0,-5 L20,0 L0,5 z" fill="#999" stroke="none"/></marker></defs><g class="everything" transform="translate(81,68) scale(1)"><g class="links_DvXCBEKs"><line stroke-width="0.4" stroke="#999999" x1="381.57944968107745" y1="316.1751292099689" x2="301.430339031599" y2="366.3094778147031"/><line stroke-width="0.2" stroke="#999999" x1="381.57944968107745" y1="316.1751292099689" x2="412.4377738976374" y2="356.6678331703146"/><line stroke-width="0.6000000000000001" stroke="#999999" x1="381.57944968107745" y1="316.1751292099689" x2="366.66913196809907" y2="355.37267270204603"/><line stroke-width="1" stroke="#999999" x1="157.11269216180574" y1="127.29059952157303" x2="116.27047518136608" y2="127.73692692861466"/><line stroke-width="0.01568627450980392" stroke="#999999" x1="301.430339031599" y1="366.3094778147031" x2="381.57944968107745" y2="316.1751292099689"/><line stroke-width="0.050980392156862744" stroke="#999999" x1="301.430339031599" y1="366.3094778147031" x2="317.00442843371445" y2="327.22390458959603"/><line stroke-width="0.027450980392156862" stroke="#999999" x1="301.430339031599" y1="366.3094778147031" x2="366.66913196809907" y2="355.37267270204603"/><line stroke-width="0.1803921568627451" stroke="#999999" x1="301.430339031599" y1="366.3094778147031" x2="306.9111118170497" y2="406.5586375589351"/><line stroke-width="0.23137254901960783" stroke="#999999" x1="301.430339031599" y1="366.3094778147031" x2="341.22993543037074" y2="400.3965210916167"/><line stroke-width="0.0196078431372549" stroke="#999999" x1="301.430339031599" y1="366.3094778147031" x2="257.18215181501506" y2="374.23825966051464"/><line stroke-width="0.2195121951219512" stroke="#999999" x1="317.00442843371445" y1="327.22390458959603" x2="301.430339031599" y2="366.3094778147031"/><line stroke-width="0.2195121951219512" stroke="#999999" x1="317.00442843371445" y1="327.22390458959603" x2="366.66913196809907" y2="355.37267270204603"/><line stroke-width="0.2195121951219512" stroke="#999999" x1="317.00442843371445" y1="327.22390458959603" x2="306.9111118170497" y2="406.5586375589351"/><line stroke-width="0.2195121951219512" stroke="#999999" x1="317.00442843371445" y1="327.22390458959603" x2="341.22993543037074" y2="400.3965210916167"/><line stroke-width="0.4444444444444444" stroke="#999999" x1="412.4377738976374" y1="356.6678331703146" x2="381.57944968107745" y2="316.1751292099689"/><line stroke-width="0.8888888888888888" stroke="#999999" x1="412.4377738976374" y1="356.6678331703146" x2="366.66913196809907" y2="355.37267270204603"/><line stroke-width="1" stroke="#999999" x1="66.51195724004259" y1="290.70050174600584" x2="40.30728175921374" y2="322.02271458389106"/><line stroke-width="0.3333333333333333" stroke="#999999" x1="366.66913196809907" y1="355.37267270204603" x2="381.57944968107745" y2="316.1751292099689"/><line stroke-width="0.2222222222222222" stroke="#999999" x1="366.66913196809907" y1="355.37267270204603" x2="301.430339031599" y2="366.3094778147031"/><line stroke-width="0.16666666666666666" stroke="#999999" x1="366.66913196809907" y1="355.37267270204603" x2="317.00442843371445" y2="327.22390458959603"/><line stroke-width="0.6111111111111112" stroke="#999999" x1="366.66913196809907" y1="355.37267270204603" x2="412.4377738976374" y2="356.6678331703146"/><line stroke-width="0.16666666666666666" stroke="#999999" x1="366.66913196809907" y1="355.37267270204603" x2="306.9111118170497" y2="406.5586375589351"/><line stroke-width="0.16666666666666666" stroke="#999999" x1="366.66913196809907" y1="355.37267270204603" x2="341.22993543037074" y2="400.3965210916167"/><line stroke-width="0.36923076923076925" stroke="#999999" x1="306.9111118170497" y1="406.5586375589351" x2="301.430339031599" y2="366.3094778147031"/><line stroke-width="0.046153846153846156" stroke="#999999" x1="306.9111118170497" y1="406.5586375589351" x2="317.00442843371445" y2="327.22390458959603"/><line stroke-width="0.046153846153846156" stroke="#999999" x1="306.9111118170497" y1="406.5586375589351" x2="366.66913196809907" y2="355.37267270204603"/><line stroke-width="0.07692307692307693" stroke="#999999" x1="306.9111118170497" y1="406.5586375589351" x2="341.22993543037074" y2="400.3965210916167"/><line stroke-width="0.06153846153846154" stroke="#999999" x1="306.9111118170497" y1="406.5586375589351" x2="257.18215181501506" y2="374.23825966051464"/><line stroke-width="0.7938144329896907" stroke="#999999" x1="341.22993543037074" y1="400.3965210916167" x2="301.430339031599" y2="366.3094778147031"/><line stroke-width="0.030927835051546393" stroke="#999999" x1="341.22993543037074" y1="400.3965210916167" x2="317.00442843371445" y2="327.22390458959603"/><line stroke-width="0.030927835051546393" stroke="#999999" x1="341.22993543037074" y1="400.3965210916167" x2="366.66913196809907" y2="355.37267270204603"/><line stroke-width="0.05154639175257732" stroke="#999999" x1="341.22993543037074" y1="400.3965210916167" x2="306.9111118170497" y2="406.5586375589351"/><line stroke-width="0.4842105263157894" stroke="#999999" x1="257.18215181501506" y1="374.23825966051464" x2="301.430339031599" y2="366.3094778147031"/><line stroke-width="0.031578947368421054" stroke="#999999" x1="257.18215181501506" y1="374.23825966051464" x2="306.9111118170497" y2="406.5586375589351"/><line stroke-width="1" stroke="#999999" x1="40.30728175921374" y1="322.02271458389106" x2="66.51195724004259" y2="290.70050174600584"/><line stroke-width="1" stroke="#999999" x1="116.27047518136608" y1="127.73692692861466" x2="157.11269216180574" y2="127.29059952157303"/></g><g class="nodes_DvXCBEKs"><g><circle id="n_57" r="5" fill="#99ccff" cx="381.57944968107745" cy="316.1751292099689"><title>n_57</title></circle><text x="0" y="-7" id="n_57" class="label_DvXCBEKs" transform="translate(381.57944968107745,316.1751292099689)" cx="381.57944968107745" cy="316.1751292099689">n_57</text></g><g><circle id="n_67" r="5" fill="#99ccff" cx="111.75384142311681" cy="443.93962117632213"><title>n_67</title></circle><text x="0" y="-7" id="n_67" class="label_DvXCBEKs" transform="translate(111.75384142311681,443.93962117632213)" cx="111.75384142311681" cy="443.93962117632213">n_67</text></g><g><circle id="n_66" r="5" fill="#99ccff" cx="157.11269216180574" cy="127.29059952157303"><title>n_66</title></circle><text x="0" y="-7" id="n_66" class="label_DvXCBEKs" transform="translate(157.11269216180574,127.29059952157303)" cx="157.11269216180574" cy="127.29059952157303">n_66</text></g><g><circle id="n_63" r="5" fill="#99ccff" cx="301.430339031599" cy="366.3094778147031"><title>n_63</title></circle><text x="0" y="-7" id="n_63" class="label_DvXCBEKs" transform="translate(301.430339031599,366.3094778147031)" cx="301.430339031599" cy="366.3094778147031">n_63</text></g><g><circle id="n_1" r="5" fill="#99ccff" cx="317.00442843371445" cy="327.22390458959603"><title>n_1</title></circle><text x="0" y="-7" id="n_1" class="label_DvXCBEKs" transform="translate(317.00442843371445,327.22390458959603)" cx="317.00442843371445" cy="327.22390458959603">n_1</text></g><g><circle id="n_61" r="5" fill="#99ccff" cx="412.4377738976374" cy="356.6678331703146"><title>n_61</title></circle><text x="0" y="-7" id="n_61" class="label_DvXCBEKs" transform="translate(412.4377738976374,356.6678331703146)" cx="412.4377738976374" cy="356.6678331703146">n_61</text></g><g><circle id="n_56" r="5" fill="#99ccff" cx="216.1966944962349" cy="563.0556962210829"><title>n_56</title></circle><text x="0" y="-7" id="n_56" class="label_DvXCBEKs" transform="translate(216.1966944962349,563.0556962210829)" cx="216.1966944962349" cy="563.0556962210829">n_56</text></g><g><circle id="n_68" r="5" fill="#99ccff" cx="66.51195724004259" cy="290.70050174600584"><title>n_68</title></circle><text x="0" y="-7" id="n_68" class="label_DvXCBEKs" transform="translate(66.51195724004259,290.70050174600584)" cx="66.51195724004259" cy="290.70050174600584">n_68</text></g><g><circle id="n_59" r="5" fill="#99ccff" cx="366.66913196809907" cy="355.37267270204603"><title>n_59</title></circle><text x="0" y="-7" id="n_59" class="label_DvXCBEKs" transform="translate(366.66913196809907,355.37267270204603)" cx="366.66913196809907" cy="355.37267270204603">n_59</text></g><g><circle id="n_18" r="5" fill="#99ccff" cx="306.9111118170497" cy="406.5586375589351"><title>n_18</title></circle><text x="0" y="-7" id="n_18" class="label_DvXCBEKs" transform="translate(306.9111118170497,406.5586375589351)" cx="306.9111118170497" cy="406.5586375589351">n_18</text></g><g><circle id="n_69" r="5" fill="#99ccff" cx="404.9385749605134" cy="11.731951591298813"><title>n_69</title></circle><text x="0" y="-7" id="n_69" class="label_DvXCBEKs" transform="translate(404.9385749605134,11.731951591298813)" cx="404.9385749605134" cy="11.731951591298813">n_69</text></g><g><circle id="n_14" r="5" fill="#99ccff" cx="341.22993543037074" cy="400.3965210916167"><title>n_14</title></circle><text x="0" y="-7" id="n_14" class="label_DvXCBEKs" transform="translate(341.22993543037074,400.3965210916167)" cx="341.22993543037074" cy="400.3965210916167">n_14</text></g><g><circle id="n_70" r="5" fill="#99ccff" cx="257.18215181501506" cy="374.23825966051464"><title>n_70</title></circle><text x="0" y="-7" id="n_70" class="label_DvXCBEKs" transform="translate(257.18215181501506,374.23825966051464)" cx="257.18215181501506" cy="374.23825966051464">n_70</text></g><g><circle id="n_71" r="5" fill="#99ccff" cx="627.3742601121854" cy="215.58918529001454"><title>n_71</title></circle><text x="0" y="-7" id="n_71" class="label_DvXCBEKs" transform="translate(627.3742601121854,215.58918529001454)" cx="627.3742601121854" cy="215.58918529001454">n_71</text></g><g><circle id="n_72" r="5" fill="#99ccff" cx="40.30728175921374" cy="322.02271458389106"><title>n_72</title></circle><text x="0" y="-7" id="n_72" class="label_DvXCBEKs" transform="translate(40.30728175921374,322.02271458389106)" cx="40.30728175921374" cy="322.02271458389106">n_72</text></g><g><circle id="n_55" r="5" fill="#99ccff" cx="315.5307578839081" cy="138.04130010386362"><title>n_55</title></circle><text x="0" y="-7" id="n_55" class="label_DvXCBEKs" transform="translate(315.5307578839081,138.04130010386362)" cx="315.5307578839081" cy="138.04130010386362">n_55</text></g><g><circle id="n_73" r="5" fill="#99ccff" cx="590.1560444140949" cy="446.945696125229"><title>n_73</title></circle><text x="0" y="-7" id="n_73" class="label_DvXCBEKs" transform="translate(590.1560444140949,446.945696125229)" cx="590.1560444140949" cy="446.945696125229">n_73</text></g><g><circle id="n_74" r="5" fill="#99ccff" cx="116.27047518136608" cy="127.73692692861466"><title>n_74</title></circle><text x="0" y="-7" id="n_74" class="label_DvXCBEKs" transform="translate(116.27047518136608,127.73692692861466)" cx="116.27047518136608" cy="127.73692692861466">n_74</text></g><g><circle id="n_75" r="5" fill="#99ccff" cx="549.278539289889" cy="56.21147156189086"><title>n_75</title></circle><text x="0" y="-7" id="n_75" class="label_DvXCBEKs" transform="translate(549.278539289889,56.21147156189086)" cx="549.278539289889" cy="56.21147156189086">n_75</text></g><g><circle id="n_76" r="5" fill="#99ccff" cx="311.751087419842" cy="660.7174270613432"><title>n_76</title></circle><text x="0" y="-7" id="n_76" class="label_DvXCBEKs" transform="translate(311.751087419842,660.7174270613432)" cx="311.751087419842" cy="660.7174270613432">n_76</text></g><g><circle id="n_77" r="5" fill="#99ccff" cx="108.36174374081929" cy="-6.921842639281367"><title>n_77</title></circle><text x="0" y="-7" id="n_77" class="label_DvXCBEKs" transform="translate(108.36174374081929,-6.921842639281367)" cx="108.36174374081929" cy="-6.921842639281367">n_77</text></g></g></g></svg>