<svg xmlns="http://www.w3.org/2000/svg" width="600" height="600" id="miNmIFVQ">        
    <text x="20" y="20" font-family="sans-serif" font-size="14px" fill="#666" style="cursor: pointer" id="miNmIFVQ_svg_txt">[save svg]</text>
<defs><marker id="end" viewBox="0 -5 20 20" refX="34" refY="0" markerWidth="15" markerHeight="15" orient="auto"><path d="M0,-5 L20,0 L0,5 z" fill="#999" stroke="none"/></marker></defs><g class="everything"><g class="links_miNmIFVQ"><line stroke-width="0.5" stroke="#999999" x1="286.82069938661016" y1="330.8460842328942" x2="272.0503633626646" y2="286.54458481791727"/><line stroke-width="0.125" stroke="#999999" x1="286.82069938661016" y1="330.8460842328942" x2="359.6956627905892" y2="357.6416445624328"/><line stroke-width="0.27586206896551724" stroke="#999999" x1="239.51421520962225" y1="309.7964724313944" x2="272.0503633626646" y2="286.54458481791727"/><line stroke-width="0.05172413793103448" stroke="#999999" x1="239.51421520962225" y1="309.7964724313944" x2="259.7493899172712" y2="395.6333472339926"/><line stroke-width="0.20689655172413793" stroke="#999999" x1="239.51421520962225" y1="309.7964724313944" x2="330.3844674216204" y2="219.5755965984724"/><line stroke-width="0.49999999999999983" stroke="#999999" x1="239.51421520962225" y1="309.7964724313944" x2="363.1738497202936" y2="313.13665873412305"/><line stroke-width="0.20689655172413793" stroke="#999999" x1="239.51421520962225" y1="309.7964724313944" x2="317.7959925212221" y2="272.6545344392807"/><line stroke-width="0.017241379310344827" stroke="#999999" x1="239.51421520962225" y1="309.7964724313944" x2="202.08237853137894" y2="327.80420475633224"/><line stroke-width="0.034482758620689655" stroke="#999999" x1="239.51421520962225" y1="309.7964724313944" x2="196.37866079667364" y2="276.430479238165"/><line stroke-width="0.10344827586206898" stroke="#999999" x1="239.51421520962225" y1="309.7964724313944" x2="213.9885653820575" y2="376.71775040819887"/><line stroke-width="0.2413793103448276" stroke="#999999" x1="239.51421520962225" y1="309.7964724313944" x2="239.65071672142165" y2="261.75050310787003"/><line stroke-width="0.017241379310344827" stroke="#999999" x1="239.51421520962225" y1="309.7964724313944" x2="170.50332926256146" y2="305.1985798920587"/><line stroke-width="0.017241379310344827" stroke="#999999" x1="239.51421520962225" y1="309.7964724313944" x2="279.2289896470006" y2="230.05850241451245"/><line stroke-width="0.06896551724137931" stroke="#999999" x1="239.51421520962225" y1="309.7964724313944" x2="258.76806051921636" y2="354.98829408824656"/><line stroke-width="0.02158273381294964" stroke="#999999" x1="272.0503633626646" y1="286.54458481791727" x2="286.82069938661016" y2="330.8460842328942"/><line stroke-width="0.07913669064748201" stroke="#999999" x1="272.0503633626646" y1="286.54458481791727" x2="239.51421520962225" y2="309.7964724313944"/><line stroke-width="0.02877697841726619" stroke="#999999" x1="272.0503633626646" y1="286.54458481791727" x2="259.7493899172712" y2="395.6333472339926"/><line stroke-width="0.014388489208633094" stroke="#999999" x1="272.0503633626646" y1="286.54458481791727" x2="358.89252928801955" y2="185.13919347390132"/><line stroke-width="0.02158273381294964" stroke="#999999" x1="272.0503633626646" y1="286.54458481791727" x2="330.3844674216204" y2="219.5755965984724"/><line stroke-width="0.007194244604316547" stroke="#999999" x1="272.0503633626646" y1="286.54458481791727" x2="311.00753514370257" y2="317.6804150113983"/><line stroke-width="0.48201438848920874" stroke="#999999" x1="272.0503633626646" y1="286.54458481791727" x2="363.1738497202936" y2="313.13665873412305"/><line stroke-width="0.03597122302158273" stroke="#999999" x1="272.0503633626646" y1="286.54458481791727" x2="317.7959925212221" y2="272.6545344392807"/><line stroke-width="0.007194244604316547" stroke="#999999" x1="272.0503633626646" y1="286.54458481791727" x2="202.08237853137894" y2="327.80420475633224"/><line stroke-width="0.02158273381294964" stroke="#999999" x1="272.0503633626646" y1="286.54458481791727" x2="196.37866079667364" y2="276.430479238165"/><line stroke-width="0.050359712230215826" stroke="#999999" x1="272.0503633626646" y1="286.54458481791727" x2="213.9885653820575" y2="376.71775040819887"/><line stroke-width="0.02877697841726619" stroke="#999999" x1="272.0503633626646" y1="286.54458481791727" x2="359.6956627905892" y2="357.6416445624328"/><line stroke-width="0.05035971223021582" stroke="#999999" x1="272.0503633626646" y1="286.54458481791727" x2="239.65071672142165" y2="261.75050310787003"/><line stroke-width="0.05755395683453238" stroke="#999999" x1="272.0503633626646" y1="286.54458481791727" x2="317.67273214623975" y2="348.9653936059424"/><line stroke-width="0.02877697841726619" stroke="#999999" x1="272.0503633626646" y1="286.54458481791727" x2="337.6945336216291" y2="283.460454387012"/><line stroke-width="0.03597122302158273" stroke="#999999" x1="272.0503633626646" y1="286.54458481791727" x2="279.2289896470006" y2="230.05850241451245"/><line stroke-width="0.05755395683453238" stroke="#999999" x1="272.0503633626646" y1="286.54458481791727" x2="258.76806051921636" y2="354.98829408824656"/><line stroke-width="0.3125" stroke="#999999" x1="259.7493899172712" y1="395.6333472339926" x2="239.51421520962225" y2="309.7964724313944"/><line stroke-width="0.1875" stroke="#999999" x1="259.7493899172712" y1="395.6333472339926" x2="272.0503633626646" y2="286.54458481791727"/><line stroke-width="0.0625" stroke="#999999" x1="259.7493899172712" y1="395.6333472339926" x2="311.00753514370257" y2="317.6804150113983"/><line stroke-width="0.0625" stroke="#999999" x1="259.7493899172712" y1="395.6333472339926" x2="363.1738497202936" y2="313.13665873412305"/><line stroke-width="0.5" stroke="#999999" x1="259.7493899172712" y1="395.6333472339926" x2="213.9885653820575" y2="376.71775040819887"/><line stroke-width="0.0625" stroke="#999999" x1="259.7493899172712" y1="395.6333472339926" x2="269.99801874727893" y2="438.4836167994932"/><line stroke-width="0.3125" stroke="#999999" x1="259.7493899172712" y1="395.6333472339926" x2="258.76806051921636" y2="354.98829408824656"/><line stroke-width="0.5" stroke="#999999" x1="369.4730890945075" y1="403.82404338478835" x2="363.1738497202936" y2="313.13665873412305"/><line stroke-width="0.25" stroke="#999999" x1="369.4730890945075" y1="403.82404338478835" x2="363.13447529148914" y2="450.2683866507874"/><line stroke-width="0.05" stroke="#999999" x1="358.89252928801955" y1="185.13919347390132" x2="272.0503633626646" y2="286.54458481791727"/><line stroke-width="0.85" stroke="#999999" x1="358.89252928801955" y1="185.13919347390132" x2="330.3844674216204" y2="219.5755965984724"/><line stroke-width="0.65" stroke="#999999" x1="358.89252928801955" y1="185.13919347390132" x2="388.89946043360095" y2="202.7695690610914"/><line stroke-width="0.15000000000000002" stroke="#999999" x1="358.89252928801955" y1="185.13919347390132" x2="363.1738497202936" y2="313.13665873412305"/><line stroke-width="1" stroke="#999999" x1="259.9987800960091" y1="191.8346757497267" x2="279.2289896470006" y2="230.05850241451245"/><line stroke-width="0.125" stroke="#999999" x1="330.3844674216204" y1="219.5755965984724" x2="239.51421520962225" y2="309.7964724313944"/><line stroke-width="0.125" stroke="#999999" x1="330.3844674216204" y1="219.5755965984724" x2="272.0503633626646" y2="286.54458481791727"/><line stroke-width="0.7083333333333334" stroke="#999999" x1="330.3844674216204" y1="219.5755965984724" x2="358.89252928801955" y2="185.13919347390132"/><line stroke-width="0.6666666666666667" stroke="#999999" x1="330.3844674216204" y1="219.5755965984724" x2="388.89946043360095" y2="202.7695690610914"/><line stroke-width="0.2916666666666667" stroke="#999999" x1="330.3844674216204" y1="219.5755965984724" x2="363.1738497202936" y2="313.13665873412305"/><line stroke-width="0.125" stroke="#999999" x1="330.3844674216204" y1="219.5755965984724" x2="317.7959925212221" y2="272.6545344392807"/><line stroke-width="0.125" stroke="#999999" x1="330.3844674216204" y1="219.5755965984724" x2="239.65071672142165" y2="261.75050310787003"/><line stroke-width="1" stroke="#999999" x1="398.57704717696714" y1="282.0931233220098" x2="363.1738497202936" y2="313.13665873412305"/><line stroke-width="0.8571428571428571" stroke="#999999" x1="388.89946043360095" y1="202.7695690610914" x2="358.89252928801955" y2="185.13919347390132"/><line stroke-width="0.9285714285714285" stroke="#999999" x1="388.89946043360095" y1="202.7695690610914" x2="330.3844674216204" y2="219.5755965984724"/><line stroke-width="0.5" stroke="#999999" x1="311.00753514370257" y1="317.6804150113983" x2="272.0503633626646" y2="286.54458481791727"/><line stroke-width="0.5" stroke="#999999" x1="311.00753514370257" y1="317.6804150113983" x2="259.7493899172712" y2="395.6333472339926"/><line stroke-width="0.5" stroke="#999999" x1="311.00753514370257" y1="317.6804150113983" x2="363.1738497202936" y2="313.13665873412305"/><line stroke-width="0.5" stroke="#999999" x1="311.00753514370257" y1="317.6804150113983" x2="279.2289896470006" y2="230.05850241451245"/><line stroke-width="0.0739856801909308" stroke="#999999" x1="363.1738497202936" y1="313.13665873412305" x2="239.51421520962225" y2="309.7964724313944"/><line stroke-width="0.2863961813842481" stroke="#999999" x1="363.1738497202936" y1="313.13665873412305" x2="272.0503633626646" y2="286.54458481791727"/><line stroke-width="0.002386634844868735" stroke="#999999" x1="363.1738497202936" y1="313.13665873412305" x2="259.7493899172712" y2="395.6333472339926"/><line stroke-width="0.00477326968973747" stroke="#999999" x1="363.1738497202936" y1="313.13665873412305" x2="369.4730890945075" y2="403.82404338478835"/><line stroke-width="0.023866348448687354" stroke="#999999" x1="363.1738497202936" y1="313.13665873412305" x2="358.89252928801955" y2="185.13919347390132"/><line stroke-width="0.02386634844868735" stroke="#999999" x1="363.1738497202936" y1="313.13665873412305" x2="330.3844674216204" y2="219.5755965984724"/><line stroke-width="0.0405727923627685" stroke="#999999" x1="363.1738497202936" y1="313.13665873412305" x2="398.57704717696714" y2="282.0931233220098"/><line stroke-width="0.002386634844868735" stroke="#999999" x1="363.1738497202936" y1="313.13665873412305" x2="311.00753514370257" y2="317.6804150113983"/><line stroke-width="0.2529832935560859" stroke="#999999" x1="363.1738497202936" y1="313.13665873412305" x2="317.7959925212221" y2="272.6545344392807"/><line stroke-width="0.014319809069212413" stroke="#999999" x1="363.1738497202936" y1="313.13665873412305" x2="359.6956627905892" y2="357.6416445624328"/><line stroke-width="0.007159904534606206" stroke="#999999" x1="363.1738497202936" y1="313.13665873412305" x2="239.65071672142165" y2="261.75050310787003"/><line stroke-width="0.002386634844868735" stroke="#999999" x1="363.1738497202936" y1="313.13665873412305" x2="439.47025377736645" y2="365.88098831755605"/><line stroke-width="0.08591885441527446" stroke="#999999" x1="363.1738497202936" y1="313.13665873412305" x2="317.67273214623975" y2="348.9653936059424"/><line stroke-width="0.031026252983293555" stroke="#999999" x1="363.1738497202936" y1="313.13665873412305" x2="337.6945336216291" y2="283.460454387012"/><line stroke-width="0.002386634844868735" stroke="#999999" x1="363.1738497202936" y1="313.13665873412305" x2="449.01144474491406" y2="309.64270145966117"/><line stroke-width="0.00477326968973747" stroke="#999999" x1="363.1738497202936" y1="313.13665873412305" x2="397.56525306770834" y2="333.9151872733346"/><line stroke-width="0.007159904534606206" stroke="#999999" x1="363.1738497202936" y1="313.13665873412305" x2="279.2289896470006" y2="230.05850241451245"/><line stroke-width="0.002386634844868735" stroke="#999999" x1="363.1738497202936" y1="313.13665873412305" x2="470.2342076557315" y2="343.4472261007871"/><line stroke-width="0.08591885441527446" stroke="#999999" x1="363.1738497202936" y1="313.13665873412305" x2="258.76806051921636" y2="354.98829408824656"/><line stroke-width="0.0297029702970297" stroke="#999999" x1="317.7959925212221" y1="272.6545344392807" x2="239.51421520962225" y2="309.7964724313944"/><line stroke-width="0.04950495049504951" stroke="#999999" x1="317.7959925212221" y1="272.6545344392807" x2="272.0503633626646" y2="286.54458481791727"/><line stroke-width="0.0297029702970297" stroke="#999999" x1="317.7959925212221" y1="272.6545344392807" x2="330.3844674216204" y2="219.5755965984724"/><line stroke-width="0.9207920792079209" stroke="#999999" x1="317.7959925212221" y1="272.6545344392807" x2="363.1738497202936" y2="313.13665873412305"/><line stroke-width="0.0297029702970297" stroke="#999999" x1="317.7959925212221" y1="272.6545344392807" x2="239.65071672142165" y2="261.75050310787003"/><line stroke-width="1" stroke="#999999" x1="202.08237853137894" y1="327.80420475633224" x2="239.51421520962225" y2="309.7964724313944"/><line stroke-width="1" stroke="#999999" x1="202.08237853137894" y1="327.80420475633224" x2="272.0503633626646" y2="286.54458481791727"/><line stroke-width="1" stroke="#999999" x1="202.08237853137894" y1="327.80420475633224" x2="213.9885653820575" y2="376.71775040819887"/><line stroke-width="1" stroke="#999999" x1="202.08237853137894" y1="327.80420475633224" x2="239.65071672142165" y2="261.75050310787003"/><line stroke-width="0.4" stroke="#999999" x1="196.37866079667364" y1="276.430479238165" x2="239.51421520962225" y2="309.7964724313944"/><line stroke-width="0.2" stroke="#999999" x1="196.37866079667364" y1="276.430479238165" x2="272.0503633626646" y2="286.54458481791727"/><line stroke-width="0.2" stroke="#999999" x1="196.37866079667364" y1="276.430479238165" x2="239.65071672142165" y2="261.75050310787003"/><line stroke-width="0.2" stroke="#999999" x1="196.37866079667364" y1="276.430479238165" x2="170.50332926256146" y2="305.1985798920587"/><line stroke-width="0.4" stroke="#999999" x1="196.37866079667364" y1="276.430479238165" x2="258.76806051921636" y2="354.98829408824656"/><line stroke-width="0.5" stroke="#999999" x1="213.9885653820575" y1="376.71775040819887" x2="239.51421520962225" y2="309.7964724313944"/><line stroke-width="0.3333333333333333" stroke="#999999" x1="213.9885653820575" y1="376.71775040819887" x2="272.0503633626646" y2="286.54458481791727"/><line stroke-width="0.3333333333333333" stroke="#999999" x1="213.9885653820575" y1="376.71775040819887" x2="259.7493899172712" y2="395.6333472339926"/><line stroke-width="0.08333333333333333" stroke="#999999" x1="213.9885653820575" y1="376.71775040819887" x2="202.08237853137894" y2="327.80420475633224"/><line stroke-width="0.08333333333333333" stroke="#999999" x1="213.9885653820575" y1="376.71775040819887" x2="239.65071672142165" y2="261.75050310787003"/><line stroke-width="0.16666666666666666" stroke="#999999" x1="213.9885653820575" y1="376.71775040819887" x2="258.76806051921636" y2="354.98829408824656"/><line stroke-width="1" stroke="#999999" x1="143.99296293792668" y1="161.2600603841349" x2="176.07501855693295" y2="135.58403468418757"/><line stroke-width="0.021052631578947368" stroke="#999999" x1="359.6956627905892" y1="357.6416445624328" x2="286.82069938661016" y2="330.8460842328942"/><line stroke-width="0.031578947368421054" stroke="#999999" x1="359.6956627905892" y1="357.6416445624328" x2="272.0503633626646" y2="286.54458481791727"/><line stroke-width="0.4842105263157894" stroke="#999999" x1="359.6956627905892" y1="357.6416445624328" x2="363.1738497202936" y2="313.13665873412305"/><line stroke-width="1" stroke="#999999" x1="176.07501855693295" y1="135.58403468418757" x2="143.99296293792668" y2="161.2600603841349"/><line stroke-width="1" stroke="#999999" x1="363.13447529148914" y1="450.2683866507874" x2="369.4730890945075" y2="403.82404338478835"/><line stroke-width="0.9999999999999999" stroke="#999999" x1="239.65071672142165" y1="261.75050310787003" x2="239.51421520962225" y2="309.7964724313944"/><line stroke-width="0.9999999999999999" stroke="#999999" x1="239.65071672142165" y1="261.75050310787003" x2="272.0503633626646" y2="286.54458481791727"/><line stroke-width="0.23076923076923078" stroke="#999999" x1="239.65071672142165" y1="261.75050310787003" x2="330.3844674216204" y2="219.5755965984724"/><line stroke-width="0.23076923076923078" stroke="#999999" x1="239.65071672142165" y1="261.75050310787003" x2="363.1738497202936" y2="313.13665873412305"/><line stroke-width="0.23076923076923078" stroke="#999999" x1="239.65071672142165" y1="261.75050310787003" x2="317.7959925212221" y2="272.6545344392807"/><line stroke-width="0.15384615384615385" stroke="#999999" x1="239.65071672142165" y1="261.75050310787003" x2="202.08237853137894" y2="327.80420475633224"/><line stroke-width="0.6153846153846154" stroke="#999999" x1="239.65071672142165" y1="261.75050310787003" x2="196.37866079667364" y2="276.430479238165"/><line stroke-width="0.15384615384615385" stroke="#999999" x1="239.65071672142165" y1="261.75050310787003" x2="213.9885653820575" y2="376.71775040819887"/><line stroke-width="1" stroke="#999999" x1="439.47025377736645" y1="365.88098831755605" x2="363.1738497202936" y2="313.13665873412305"/><line stroke-width="1" stroke="#999999" x1="439.47025377736645" y1="365.88098831755605" x2="449.01144474491406" y2="309.64270145966117"/><line stroke-width="1" stroke="#999999" x1="439.47025377736645" y1="365.88098831755605" x2="470.2342076557315" y2="343.4472261007871"/><line stroke-width="0.5" stroke="#999999" x1="317.67273214623975" y1="348.9653936059424" x2="272.0503633626646" y2="286.54458481791727"/><line stroke-width="1" stroke="#999999" x1="317.67273214623975" y1="348.9653936059424" x2="363.1738497202936" y2="313.13665873412305"/><line stroke-width="0.5" stroke="#999999" x1="317.67273214623975" y1="348.9653936059424" x2="258.76806051921636" y2="354.98829408824656"/><line stroke-width="1" stroke="#999999" x1="337.6945336216291" y1="283.460454387012" x2="272.0503633626646" y2="286.54458481791727"/><line stroke-width="1" stroke="#999999" x1="337.6945336216291" y1="283.460454387012" x2="363.1738497202936" y2="313.13665873412305"/><line stroke-width="1" stroke="#999999" x1="170.50332926256146" y1="305.1985798920587" x2="239.51421520962225" y2="309.7964724313944"/><line stroke-width="1" stroke="#999999" x1="170.50332926256146" y1="305.1985798920587" x2="196.37866079667364" y2="276.430479238165"/><line stroke-width="1" stroke="#999999" x1="449.01144474491406" y1="309.64270145966117" x2="363.1738497202936" y2="313.13665873412305"/><line stroke-width="1" stroke="#999999" x1="449.01144474491406" y1="309.64270145966117" x2="439.47025377736645" y2="365.88098831755605"/><line stroke-width="1" stroke="#999999" x1="449.01144474491406" y1="309.64270145966117" x2="470.2342076557315" y2="343.4472261007871"/><line stroke-width="1" stroke="#999999" x1="397.56525306770834" y1="333.9151872733346" x2="363.1738497202936" y2="313.13665873412305"/><line stroke-width="0.0625" stroke="#999999" x1="279.2289896470006" y1="230.05850241451245" x2="239.51421520962225" y2="309.7964724313944"/><line stroke-width="0.3125" stroke="#999999" x1="279.2289896470006" y1="230.05850241451245" x2="272.0503633626646" y2="286.54458481791727"/><line stroke-width="0.0625" stroke="#999999" x1="279.2289896470006" y1="230.05850241451245" x2="259.9987800960091" y2="191.8346757497267"/><line stroke-width="0.0625" stroke="#999999" x1="279.2289896470006" y1="230.05850241451245" x2="311.00753514370257" y2="317.6804150113983"/><line stroke-width="0.125" stroke="#999999" x1="279.2289896470006" y1="230.05850241451245" x2="363.1738497202936" y2="313.13665873412305"/><line stroke-width="0.5" stroke="#999999" x1="269.99801874727893" y1="438.4836167994932" x2="259.7493899172712" y2="395.6333472339926"/><line stroke-width="1" stroke="#999999" x1="470.2342076557315" y1="343.4472261007871" x2="363.1738497202936" y2="313.13665873412305"/><line stroke-width="1" stroke="#999999" x1="470.2342076557315" y1="343.4472261007871" x2="439.47025377736645" y2="365.88098831755605"/><line stroke-width="1" stroke="#999999" x1="470.2342076557315" y1="343.4472261007871" x2="449.01144474491406" y2="309.64270145966117"/><line stroke-width="0.5454545454545454" stroke="#999999" x1="258.76806051921636" y1="354.98829408824656" x2="239.51421520962225" y2="309.7964724313944"/><line stroke-width="0.18181818181818182" stroke="#999999" x1="258.76806051921636" y1="354.98829408824656" x2="272.0503633626646" y2="286.54458481791727"/><line stroke-width="0.36363636363636365" stroke="#999999" x1="258.76806051921636" y1="354.98829408824656" x2="259.7493899172712" y2="395.6333472339926"/><line stroke-width="0.2727272727272727" stroke="#999999" x1="258.76806051921636" y1="354.98829408824656" x2="363.1738497202936" y2="313.13665873412305"/><line stroke-width="0.18181818181818182" stroke="#999999" x1="258.76806051921636" y1="354.98829408824656" x2="196.37866079667364" y2="276.430479238165"/><line stroke-width="0.36363636363636365" stroke="#999999" x1="258.76806051921636" y1="354.98829408824656" x2="213.9885653820575" y2="376.71775040819887"/><line stroke-width="0.18181818181818182" stroke="#999999" x1="258.76806051921636" y1="354.98829408824656" x2="317.67273214623975" y2="348.9653936059424"/></g><g class="nodes_miNmIFVQ"><g><circle id="n_54" r="5" fill="#99ccff" cx="286.82069938661016" cy="330.8460842328942"><title>n_54</title></circle><text x="0" y="-7" id="n_54" class="label_miNmIFVQ" transform="translate(286.82069938661016,330.8460842328942)" cx="286.82069938661016" cy="330.8460842328942">n_54</text></g><g><circle id="n_1" r="5" fill="#99ccff" cx="239.51421520962225" cy="309.7964724313944"><title>n_1</title></circle><text x="0" y="-7" id="n_1" class="label_miNmIFVQ" transform="translate(239.51421520962225,309.7964724313944)" cx="239.51421520962225" cy="309.7964724313944">n_1</text></g><g><circle id="n_18" r="5" fill="#99ccff" cx="272.0503633626646" cy="286.54458481791727"><title>n_18</title></circle><text x="0" y="-7" id="n_18" class="label_miNmIFVQ" transform="translate(272.0503633626646,286.54458481791727)" cx="272.0503633626646" cy="286.54458481791727">n_18</text></g><g><circle id="n_55" r="5" fill="#99ccff" cx="259.7493899172712" cy="395.6333472339926"><title>n_55</title></circle><text x="0" y="-7" id="n_55" class="label_miNmIFVQ" transform="translate(259.7493899172712,395.6333472339926)" cx="259.7493899172712" cy="395.6333472339926">n_55</text></g><g><circle id="n_56" r="5" fill="#99ccff" cx="369.4730890945075" cy="403.82404338478835"><title>n_56</title></circle><text x="0" y="-7" id="n_56" class="label_miNmIFVQ" transform="translate(369.4730890945075,403.82404338478835)" cx="369.4730890945075" cy="403.82404338478835">n_56</text></g><g><circle id="n_57" r="5" fill="#99ccff" cx="358.89252928801955" cy="185.13919347390132"><title>n_57</title></circle><text x="0" y="-7" id="n_57" class="label_miNmIFVQ" transform="translate(358.89252928801955,185.13919347390132)" cx="358.89252928801955" cy="185.13919347390132">n_57</text></g><g><circle id="n_58" r="5" fill="#99ccff" cx="259.9987800960091" cy="191.8346757497267"><title>n_58</title></circle><text x="0" y="-7" id="n_58" class="label_miNmIFVQ" transform="translate(259.9987800960091,191.8346757497267)" cx="259.9987800960091" cy="191.8346757497267">n_58</text></g><g><circle id="n_59" r="5" fill="#99ccff" cx="330.3844674216204" cy="219.5755965984724"><title>n_59</title></circle><text x="0" y="-7" id="n_59" class="label_miNmIFVQ" transform="translate(330.3844674216204,219.5755965984724)" cx="330.3844674216204" cy="219.5755965984724">n_59</text></g><g><circle id="n_60" r="5" fill="#99ccff" cx="398.57704717696714" cy="282.0931233220098"><title>n_60</title></circle><text x="0" y="-7" id="n_60" class="label_miNmIFVQ" transform="translate(398.57704717696714,282.0931233220098)" cx="398.57704717696714" cy="282.0931233220098">n_60</text></g><g><circle id="n_61" r="5" fill="#99ccff" cx="388.89946043360095" cy="202.7695690610914"><title>n_61</title></circle><text x="0" y="-7" id="n_61" class="label_miNmIFVQ" transform="translate(388.89946043360095,202.7695690610914)" cx="388.89946043360095" cy="202.7695690610914">n_61</text></g><g><circle id="n_62" r="5" fill="#99ccff" cx="311.00753514370257" cy="317.6804150113983"><title>n_62</title></circle><text x="0" y="-7" id="n_62" class="label_miNmIFVQ" transform="translate(311.00753514370257,317.6804150113983)" cx="311.00753514370257" cy="317.6804150113983">n_62</text></g><g><circle id="n_63" r="5" fill="#99ccff" cx="363.1738497202936" cy="313.13665873412305"><title>n_63</title></circle><text x="0" y="-7" id="n_63" class="label_miNmIFVQ" transform="translate(363.1738497202936,313.13665873412305)" cx="363.1738497202936" cy="313.13665873412305">n_63</text></g><g><circle id="n_64" r="5" fill="#99ccff" cx="43.46842117213485" cy="192.21214557055828"><title>n_64</title></circle><text x="0" y="-7" id="n_64" class="label_miNmIFVQ" transform="translate(43.46842117213485,192.21214557055828)" cx="43.46842117213485" cy="192.21214557055828">n_64</text></g><g><circle id="n_14" r="5" fill="#99ccff" cx="317.7959925212221" cy="272.6545344392807"><title>n_14</title></circle><text x="0" y="-7" id="n_14" class="label_miNmIFVQ" transform="translate(317.7959925212221,272.6545344392807)" cx="317.7959925212221" cy="272.6545344392807">n_14</text></g><g><circle id="n_65" r="5" fill="#99ccff" cx="202.08237853137894" cy="327.80420475633224"><title>n_65</title></circle><text x="0" y="-7" id="n_65" class="label_miNmIFVQ" transform="translate(202.08237853137894,327.80420475633224)" cx="202.08237853137894" cy="327.80420475633224">n_65</text></g><g><circle id="n_66" r="5" fill="#99ccff" cx="196.37866079667364" cy="276.430479238165"><title>n_66</title></circle><text x="0" y="-7" id="n_66" class="label_miNmIFVQ" transform="translate(196.37866079667364,276.430479238165)" cx="196.37866079667364" cy="276.430479238165">n_66</text></g><g><circle id="n_67" r="5" fill="#99ccff" cx="213.9885653820575" cy="376.71775040819887"><title>n_67</title></circle><text x="0" y="-7" id="n_67" class="label_miNmIFVQ" transform="translate(213.9885653820575,376.71775040819887)" cx="213.9885653820575" cy="376.71775040819887">n_67</text></g><g><circle id="n_68" r="5" fill="#99ccff" cx="143.99296293792668" cy="161.2600603841349"><title>n_68</title></circle><text x="0" y="-7" id="n_68" class="label_miNmIFVQ" transform="translate(143.99296293792668,161.2600603841349)" cx="143.99296293792668" cy="161.2600603841349">n_68</text></g><g><circle id="n_69" r="5" fill="#99ccff" cx="621.2434451376063" cy="114.3128985628781"><title>n_69</title></circle><text x="0" y="-7" id="n_69" class="label_miNmIFVQ" transform="translate(621.2434451376063,114.3128985628781)" cx="621.2434451376063" cy="114.3128985628781">n_69</text></g><g><circle id="n_70" r="5" fill="#99ccff" cx="359.6956627905892" cy="357.6416445624328"><title>n_70</title></circle><text x="0" y="-7" id="n_70" class="label_miNmIFVQ" transform="translate(359.6956627905892,357.6416445624328)" cx="359.6956627905892" cy="357.6416445624328">n_70</text></g><g><circle id="n_71" r="5" fill="#99ccff" cx="139.7096568834843" cy="32.159917228602296"><title>n_71</title></circle><text x="0" y="-7" id="n_71" class="label_miNmIFVQ" transform="translate(139.7096568834843,32.159917228602296)" cx="139.7096568834843" cy="32.159917228602296">n_71</text></g><g><circle id="n_72" r="5" fill="#99ccff" cx="176.07501855693295" cy="135.58403468418757"><title>n_72</title></circle><text x="0" y="-7" id="n_72" class="label_miNmIFVQ" transform="translate(176.07501855693295,135.58403468418757)" cx="176.07501855693295" cy="135.58403468418757">n_72</text></g><g><circle id="n_73" r="5" fill="#99ccff" cx="363.13447529148914" cy="450.2683866507874"><title>n_73</title></circle><text x="0" y="-7" id="n_73" class="label_miNmIFVQ" transform="translate(363.13447529148914,450.2683866507874)" cx="363.13447529148914" cy="450.2683866507874">n_73</text></g><g><circle id="n_74" r="5" fill="#99ccff" cx="239.65071672142165" cy="261.75050310787003"><title>n_74</title></circle><text x="0" y="-7" id="n_74" class="label_miNmIFVQ" transform="translate(239.65071672142165,261.75050310787003)" cx="239.65071672142165" cy="261.75050310787003">n_74</text></g><g><circle id="n_75" r="5" fill="#99ccff" cx="439.47025377736645" cy="365.88098831755605"><title>n_75</title></circle><text x="0" y="-7" id="n_75" class="label_miNmIFVQ" transform="translate(439.47025377736645,365.88098831755605)" cx="439.47025377736645" cy="365.88098831755605">n_75</text></g><g><circle id="n_76" r="5" fill="#99ccff" cx="-51.652369118557836" cy="224.61081982077357"><title>n_76</title></circle><text x="0" y="-7" id="n_76" class="label_miNmIFVQ" transform="translate(-51.652369118557836,224.61081982077357)" cx="-51.652369118557836" cy="224.61081982077357">n_76</text></g><g><circle id="n_77" r="5" fill="#99ccff" cx="732.8860777766295" cy="243.16093348791279"><title>n_77</title></circle><text x="0" y="-7" id="n_77" class="label_miNmIFVQ" transform="translate(732.8860777766295,243.16093348791279)" cx="732.8860777766295" cy="243.16093348791279">n_77</text></g><g><circle id="n_78" r="5" fill="#99ccff" cx="234.05194184367272" cy="735.6061953944126"><title>n_78</title></circle><text x="0" y="-7" id="n_78" class="label_miNmIFVQ" transform="translate(234.05194184367272,735.6061953944126)" cx="234.05194184367272" cy="735.6061953944126">n_78</text></g><g><circle id="n_79" r="5" fill="#99ccff" cx="317.67273214623975" cy="348.9653936059424"><title>n_79</title></circle><text x="0" y="-7" id="n_79" class="label_miNmIFVQ" transform="translate(317.67273214623975,348.9653936059424)" cx="317.67273214623975" cy="348.9653936059424">n_79</text></g><g><circle id="n_80" r="5" fill="#99ccff" cx="337.6945336216291" cy="283.460454387012"><title>n_80</title></circle><text x="0" y="-7" id="n_80" class="label_miNmIFVQ" transform="translate(337.6945336216291,283.460454387012)" cx="337.6945336216291" cy="283.460454387012">n_80</text></g><g><circle id="n_81" r="5" fill="#99ccff" cx="170.50332926256146" cy="305.1985798920587"><title>n_81</title></circle><text x="0" y="-7" id="n_81" class="label_miNmIFVQ" transform="translate(170.50332926256146,305.1985798920587)" cx="170.50332926256146" cy="305.1985798920587">n_81</text></g><g><circle id="n_38" r="5" fill="#99ccff" cx="449.01144474491406" cy="309.64270145966117"><title>n_38</title></circle><text x="0" y="-7" id="n_38" class="label_miNmIFVQ" transform="translate(449.01144474491406,309.64270145966117)" cx="449.01144474491406" cy="309.64270145966117">n_38</text></g><g><circle id="n_82" r="5" fill="#99ccff" cx="397.56525306770834" cy="333.9151872733346"><title>n_82</title></circle><text x="0" y="-7" id="n_82" class="label_miNmIFVQ" transform="translate(397.56525306770834,333.9151872733346)" cx="397.56525306770834" cy="333.9151872733346">n_82</text></g><g><circle id="n_83" r="5" fill="#99ccff" cx="279.2289896470006" cy="230.05850241451245"><title>n_83</title></circle><text x="0" y="-7" id="n_83" class="label_miNmIFVQ" transform="translate(279.2289896470006,230.05850241451245)" cx="279.2289896470006" cy="230.05850241451245">n_83</text></g><g><circle id="n_84" r="5" fill="#99ccff" cx="759.6655185591837" cy="398.4832463733694"><title>n_84</title></circle><text x="0" y="-7" id="n_84" class="label_miNmIFVQ" transform="translate(759.6655185591837,398.4832463733694)" cx="759.6655185591837" cy="398.4832463733694">n_84</text></g><g><circle id="n_85" r="5" fill="#99ccff" cx="84.91769026746046" cy="655.1859547988746"><title>n_85</title></circle><text x="0" y="-7" id="n_85" class="label_miNmIFVQ" transform="translate(84.91769026746046,655.1859547988746)" cx="84.91769026746046" cy="655.1859547988746">n_85</text></g><g><circle id="n_37" r="5" fill="#99ccff" cx="360.26277636729566" cy="-48.928864101066665"><title>n_37</title></circle><text x="0" y="-7" id="n_37" class="label_miNmIFVQ" transform="translate(360.26277636729566,-48.928864101066665)" cx="360.26277636729566" cy="-48.928864101066665">n_37</text></g><g><circle id="n_86" r="5" fill="#99ccff" cx="269.99801874727893" cy="438.4836167994932"><title>n_86</title></circle><text x="0" y="-7" id="n_86" class="label_miNmIFVQ" transform="translate(269.99801874727893,438.4836167994932)" cx="269.99801874727893" cy="438.4836167994932">n_86</text></g><g><circle id="n_87" r="5" fill="#99ccff" cx="-66.1734737486915" cy="380.0639559276291"><title>n_87</title></circle><text x="0" y="-7" id="n_87" class="label_miNmIFVQ" transform="translate(-66.1734737486915,380.0639559276291)" cx="-66.1734737486915" cy="380.0639559276291">n_87</text></g><g><circle id="n_88" r="5" fill="#99ccff" cx="470.2342076557315" cy="343.4472261007871"><title>n_88</title></circle><text x="0" y="-7" id="n_88" class="label_miNmIFVQ" transform="translate(470.2342076557315,343.4472261007871)" cx="470.2342076557315" cy="343.4472261007871">n_88</text></g><g><circle id="n_89" r="5" fill="#99ccff" cx="258.76806051921636" cy="354.98829408824656"><title>n_89</title></circle><text x="0" y="-7" id="n_89" class="label_miNmIFVQ" transform="translate(258.76806051921636,354.98829408824656)" cx="258.76806051921636" cy="354.98829408824656">n_89</text></g></g></g></svg>