<svg xmlns="http://www.w3.org/2000/svg" width="600" height="600" id="hWevjpxE">        
    <text x="20" y="20" font-family="sans-serif" font-size="14px" fill="#666" style="cursor: pointer" id="hWevjpxE_svg_txt">[save svg]</text>
<defs><marker id="end" viewBox="0 -5 20 20" refX="34" refY="0" markerWidth="15" markerHeight="15" orient="auto"><path d="M0,-5 L20,0 L0,5 z" fill="#999" stroke="none"/></marker></defs><g class="everything"><g class="links_hWevjpxE"><line stroke-width="0.5714285714285714" stroke="#999999" x1="287.008150942849" y1="258.82841033429884" x2="261.92491119270323" y2="302.4301458512186"/><line stroke-width="0.27586206896551724" stroke="#999999" x1="189.12082002463222" y1="307.2978288028345" x2="261.92491119270323" y2="302.4301458512186"/><line stroke-width="0.05172413793103448" stroke="#999999" x1="189.12082002463222" y1="307.2978288028345" x2="207.4518839248751" y2="391.7505439667623"/><line stroke-width="0.20689655172413793" stroke="#999999" x1="189.12082002463222" y1="307.2978288028345" x2="309.013048536728" y2="196.24349031652514"/><line stroke-width="0.49999999999999983" stroke="#999999" x1="189.12082002463222" y1="307.2978288028345" x2="336.16607509874655" y2="320.31816981739433"/><line stroke-width="0.20689655172413793" stroke="#999999" x1="189.12082002463222" y1="307.2978288028345" x2="321.11244967852326" y2="265.91568744624203"/><line stroke-width="0.017241379310344827" stroke="#999999" x1="189.12082002463222" y1="307.2978288028345" x2="219.05262643433807" y2="314.6091239852761"/><line stroke-width="0.034482758620689655" stroke="#999999" x1="189.12082002463222" y1="307.2978288028345" x2="196.46355810744762" y2="242.48902582292894"/><line stroke-width="0.10344827586206898" stroke="#999999" x1="189.12082002463222" y1="307.2978288028345" x2="175.83335233313142" y2="349.6973840597377"/><line stroke-width="0.2413793103448276" stroke="#999999" x1="189.12082002463222" y1="307.2978288028345" x2="241.20123665547055" y2="236.41979102212295"/><line stroke-width="0.017241379310344827" stroke="#999999" x1="189.12082002463222" y1="307.2978288028345" x2="147.87272849625572" y2="273.9921216531638"/><line stroke-width="0.017241379310344827" stroke="#999999" x1="189.12082002463222" y1="307.2978288028345" x2="222.20728267262942" y2="273.6353700195804"/><line stroke-width="0.06896551724137931" stroke="#999999" x1="189.12082002463222" y1="307.2978288028345" x2="225.97446987849557" y2="356.34923966729633"/><line stroke-width="0.022727272727272728" stroke="#999999" x1="261.92491119270323" y1="302.4301458512186" x2="287.008150942849" y2="258.82841033429884"/><line stroke-width="0.08333333333333334" stroke="#999999" x1="261.92491119270323" y1="302.4301458512186" x2="189.12082002463222" y2="307.2978288028345"/><line stroke-width="0.030303030303030304" stroke="#999999" x1="261.92491119270323" y1="302.4301458512186" x2="207.4518839248751" y2="391.7505439667623"/><line stroke-width="0.015151515151515152" stroke="#999999" x1="261.92491119270323" y1="302.4301458512186" x2="347.677822937615" y2="178.36321565346452"/><line stroke-width="0.022727272727272728" stroke="#999999" x1="261.92491119270323" y1="302.4301458512186" x2="309.013048536728" y2="196.24349031652514"/><line stroke-width="0.007575757575757576" stroke="#999999" x1="261.92491119270323" y1="302.4301458512186" x2="260.54710272044673" y2="352.62804784517573"/><line stroke-width="0.48484848484848475" stroke="#999999" x1="261.92491119270323" y1="302.4301458512186" x2="336.16607509874655" y2="320.31816981739433"/><line stroke-width="0.015151515151515152" stroke="#999999" x1="261.92491119270323" y1="302.4301458512186" x2="264.7561345476961" y2="257.47676245523786"/><line stroke-width="0.03787878787878788" stroke="#999999" x1="261.92491119270323" y1="302.4301458512186" x2="321.11244967852326" y2="265.91568744624203"/><line stroke-width="0.007575757575757576" stroke="#999999" x1="261.92491119270323" y1="302.4301458512186" x2="219.05262643433807" y2="314.6091239852761"/><line stroke-width="0.022727272727272728" stroke="#999999" x1="261.92491119270323" y1="302.4301458512186" x2="196.46355810744762" y2="242.48902582292894"/><line stroke-width="0.05303030303030303" stroke="#999999" x1="261.92491119270323" y1="302.4301458512186" x2="175.83335233313142" y2="349.6973840597377"/><line stroke-width="0.007575757575757576" stroke="#999999" x1="261.92491119270323" y1="302.4301458512186" x2="339.2838662732367" y2="360.4671257127958"/><line stroke-width="0.05303030303030303" stroke="#999999" x1="261.92491119270323" y1="302.4301458512186" x2="241.20123665547055" y2="236.41979102212295"/><line stroke-width="0.06060606060606061" stroke="#999999" x1="261.92491119270323" y1="302.4301458512186" x2="292.90127780005696" y2="358.4246632421669"/><line stroke-width="0.030303030303030304" stroke="#999999" x1="261.92491119270323" y1="302.4301458512186" x2="308.79014851591734" y2="299.18736402805007"/><line stroke-width="0.03787878787878788" stroke="#999999" x1="261.92491119270323" y1="302.4301458512186" x2="222.20728267262942" y2="273.6353700195804"/><line stroke-width="0.06060606060606061" stroke="#999999" x1="261.92491119270323" y1="302.4301458512186" x2="225.97446987849557" y2="356.34923966729633"/><line stroke-width="0.3125" stroke="#999999" x1="207.4518839248751" y1="391.7505439667623" x2="189.12082002463222" y2="307.2978288028345"/><line stroke-width="0.1875" stroke="#999999" x1="207.4518839248751" y1="391.7505439667623" x2="261.92491119270323" y2="302.4301458512186"/><line stroke-width="0.0625" stroke="#999999" x1="207.4518839248751" y1="391.7505439667623" x2="260.54710272044673" y2="352.62804784517573"/><line stroke-width="0.0625" stroke="#999999" x1="207.4518839248751" y1="391.7505439667623" x2="336.16607509874655" y2="320.31816981739433"/><line stroke-width="0.5" stroke="#999999" x1="207.4518839248751" y1="391.7505439667623" x2="175.83335233313142" y2="349.6973840597377"/><line stroke-width="0.0625" stroke="#999999" x1="207.4518839248751" y1="391.7505439667623" x2="215.17507483703866" y2="435.20840731644614"/><line stroke-width="0.3125" stroke="#999999" x1="207.4518839248751" y1="391.7505439667623" x2="225.97446987849557" y2="356.34923966729633"/><line stroke-width="0.5" stroke="#999999" x1="316.06414288859503" y1="415.9132837032911" x2="336.16607509874655" y2="320.31816981739433"/><line stroke-width="0.25" stroke="#999999" x1="316.06414288859503" y1="415.9132837032911" x2="317.91631125237603" y2="460.8876395179519"/><line stroke-width="0.05" stroke="#999999" x1="347.677822937615" y1="178.36321565346452" x2="261.92491119270323" y2="302.4301458512186"/><line stroke-width="0.85" stroke="#999999" x1="347.677822937615" y1="178.36321565346452" x2="309.013048536728" y2="196.24349031652514"/><line stroke-width="0.65" stroke="#999999" x1="347.677822937615" y1="178.36321565346452" x2="375.59478573570885" y2="195.02459728655697"/><line stroke-width="0.15000000000000002" stroke="#999999" x1="347.677822937615" y1="178.36321565346452" x2="336.16607509874655" y2="320.31816981739433"/><line stroke-width="1" stroke="#999999" x1="177.0393652320744" y1="243.28595123266507" x2="222.20728267262942" y2="273.6353700195804"/><line stroke-width="0.125" stroke="#999999" x1="309.013048536728" y1="196.24349031652514" x2="189.12082002463222" y2="307.2978288028345"/><line stroke-width="0.125" stroke="#999999" x1="309.013048536728" y1="196.24349031652514" x2="261.92491119270323" y2="302.4301458512186"/><line stroke-width="0.7083333333333334" stroke="#999999" x1="309.013048536728" y1="196.24349031652514" x2="347.677822937615" y2="178.36321565346452"/><line stroke-width="0.6666666666666667" stroke="#999999" x1="309.013048536728" y1="196.24349031652514" x2="375.59478573570885" y2="195.02459728655697"/><line stroke-width="0.2916666666666667" stroke="#999999" x1="309.013048536728" y1="196.24349031652514" x2="336.16607509874655" y2="320.31816981739433"/><line stroke-width="0.125" stroke="#999999" x1="309.013048536728" y1="196.24349031652514" x2="321.11244967852326" y2="265.91568744624203"/><line stroke-width="0.125" stroke="#999999" x1="309.013048536728" y1="196.24349031652514" x2="241.20123665547055" y2="236.41979102212295"/><line stroke-width="1" stroke="#999999" x1="371.1561676022236" y1="290.95140721622454" x2="336.16607509874655" y2="320.31816981739433"/><line stroke-width="0.8571428571428571" stroke="#999999" x1="375.59478573570885" y1="195.02459728655697" x2="347.677822937615" y2="178.36321565346452"/><line stroke-width="0.9285714285714285" stroke="#999999" x1="375.59478573570885" y1="195.02459728655697" x2="309.013048536728" y2="196.24349031652514"/><line stroke-width="0.5" stroke="#999999" x1="260.54710272044673" y1="352.62804784517573" x2="261.92491119270323" y2="302.4301458512186"/><line stroke-width="0.5" stroke="#999999" x1="260.54710272044673" y1="352.62804784517573" x2="207.4518839248751" y2="391.7505439667623"/><line stroke-width="0.5" stroke="#999999" x1="260.54710272044673" y1="352.62804784517573" x2="336.16607509874655" y2="320.31816981739433"/><line stroke-width="0.5" stroke="#999999" x1="260.54710272044673" y1="352.62804784517573" x2="222.20728267262942" y2="273.6353700195804"/><line stroke-width="0.07209302325581396" stroke="#999999" x1="336.16607509874655" y1="320.31816981739433" x2="189.12082002463222" y2="307.2978288028345"/><line stroke-width="0.2767441860465115" stroke="#999999" x1="336.16607509874655" y1="320.31816981739433" x2="261.92491119270323" y2="302.4301458512186"/><line stroke-width="0.002325581395348837" stroke="#999999" x1="336.16607509874655" y1="320.31816981739433" x2="207.4518839248751" y2="391.7505439667623"/><line stroke-width="0.004651162790697674" stroke="#999999" x1="336.16607509874655" y1="320.31816981739433" x2="316.06414288859503" y2="415.9132837032911"/><line stroke-width="0.023255813953488372" stroke="#999999" x1="336.16607509874655" y1="320.31816981739433" x2="347.677822937615" y2="178.36321565346452"/><line stroke-width="0.023255813953488372" stroke="#999999" x1="336.16607509874655" y1="320.31816981739433" x2="309.013048536728" y2="196.24349031652514"/><line stroke-width="0.03953488372093023" stroke="#999999" x1="336.16607509874655" y1="320.31816981739433" x2="371.1561676022236" y2="290.95140721622454"/><line stroke-width="0.002325581395348837" stroke="#999999" x1="336.16607509874655" y1="320.31816981739433" x2="260.54710272044673" y2="352.62804784517573"/><line stroke-width="0.26046511627906976" stroke="#999999" x1="336.16607509874655" y1="320.31816981739433" x2="321.11244967852326" y2="265.91568744624203"/><line stroke-width="0.002325581395348837" stroke="#999999" x1="336.16607509874655" y1="320.31816981739433" x2="397.36881591807514" y2="383.9187082110611"/><line stroke-width="0.011627906976744186" stroke="#999999" x1="336.16607509874655" y1="320.31816981739433" x2="339.2838662732367" y2="360.4671257127958"/><line stroke-width="0.0069767441860465115" stroke="#999999" x1="336.16607509874655" y1="320.31816981739433" x2="241.20123665547055" y2="236.41979102212295"/><line stroke-width="0.002325581395348837" stroke="#999999" x1="336.16607509874655" y1="320.31816981739433" x2="447.1059089722327" y2="347.36423957287366"/><line stroke-width="0.002325581395348837" stroke="#999999" x1="336.16607509874655" y1="320.31816981739433" x2="368.50689165375275" y2="392.45712764608123"/><line stroke-width="0.08372093023255814" stroke="#999999" x1="336.16607509874655" y1="320.31816981739433" x2="292.90127780005696" y2="358.4246632421669"/><line stroke-width="0.030232558139534883" stroke="#999999" x1="336.16607509874655" y1="320.31816981739433" x2="308.79014851591734" y2="299.18736402805007"/><line stroke-width="0.002325581395348837" stroke="#999999" x1="336.16607509874655" y1="320.31816981739433" x2="429.5115269210625" y2="287.8120521916639"/><line stroke-width="0.004651162790697674" stroke="#999999" x1="336.16607509874655" y1="320.31816981739433" x2="373.2988856892357" y2="329.57991187972027"/><line stroke-width="0.0069767441860465115" stroke="#999999" x1="336.16607509874655" y1="320.31816981739433" x2="222.20728267262942" y2="273.6353700195804"/><line stroke-width="0.002325581395348837" stroke="#999999" x1="336.16607509874655" y1="320.31816981739433" x2="446.8402376967369" y2="313.5507555725639"/><line stroke-width="0.08372093023255814" stroke="#999999" x1="336.16607509874655" y1="320.31816981739433" x2="225.97446987849557" y2="356.34923966729633"/><line stroke-width="1" stroke="#999999" x1="264.7561345476961" y1="257.47676245523786" x2="261.92491119270323" y2="302.4301458512186"/><line stroke-width="0.020134228187919462" stroke="#999999" x1="321.11244967852326" y1="265.91568744624203" x2="189.12082002463222" y2="307.2978288028345"/><line stroke-width="0.03355704697986577" stroke="#999999" x1="321.11244967852326" y1="265.91568744624203" x2="261.92491119270323" y2="302.4301458512186"/><line stroke-width="0.020134228187919462" stroke="#999999" x1="321.11244967852326" y1="265.91568744624203" x2="309.013048536728" y2="196.24349031652514"/><line stroke-width="0.7919463087248321" stroke="#999999" x1="321.11244967852326" y1="265.91568744624203" x2="336.16607509874655" y2="320.31816981739433"/><line stroke-width="0.020134228187919462" stroke="#999999" x1="321.11244967852326" y1="265.91568744624203" x2="241.20123665547055" y2="236.41979102212295"/><line stroke-width="1" stroke="#999999" x1="219.05262643433807" y1="314.6091239852761" x2="189.12082002463222" y2="307.2978288028345"/><line stroke-width="1" stroke="#999999" x1="219.05262643433807" y1="314.6091239852761" x2="261.92491119270323" y2="302.4301458512186"/><line stroke-width="1" stroke="#999999" x1="219.05262643433807" y1="314.6091239852761" x2="175.83335233313142" y2="349.6973840597377"/><line stroke-width="1" stroke="#999999" x1="219.05262643433807" y1="314.6091239852761" x2="241.20123665547055" y2="236.41979102212295"/><line stroke-width="0.4" stroke="#999999" x1="196.46355810744762" y1="242.48902582292894" x2="189.12082002463222" y2="307.2978288028345"/><line stroke-width="0.2" stroke="#999999" x1="196.46355810744762" y1="242.48902582292894" x2="261.92491119270323" y2="302.4301458512186"/><line stroke-width="0.2" stroke="#999999" x1="196.46355810744762" y1="242.48902582292894" x2="241.20123665547055" y2="236.41979102212295"/><line stroke-width="0.2" stroke="#999999" x1="196.46355810744762" y1="242.48902582292894" x2="147.87272849625572" y2="273.9921216531638"/><line stroke-width="0.4" stroke="#999999" x1="196.46355810744762" y1="242.48902582292894" x2="225.97446987849557" y2="356.34923966729633"/><line stroke-width="0.5" stroke="#999999" x1="175.83335233313142" y1="349.6973840597377" x2="189.12082002463222" y2="307.2978288028345"/><line stroke-width="0.3333333333333333" stroke="#999999" x1="175.83335233313142" y1="349.6973840597377" x2="261.92491119270323" y2="302.4301458512186"/><line stroke-width="0.3333333333333333" stroke="#999999" x1="175.83335233313142" y1="349.6973840597377" x2="207.4518839248751" y2="391.7505439667623"/><line stroke-width="0.08333333333333333" stroke="#999999" x1="175.83335233313142" y1="349.6973840597377" x2="219.05262643433807" y2="314.6091239852761"/><line stroke-width="0.08333333333333333" stroke="#999999" x1="175.83335233313142" y1="349.6973840597377" x2="241.20123665547055" y2="236.41979102212295"/><line stroke-width="0.16666666666666666" stroke="#999999" x1="175.83335233313142" y1="349.6973840597377" x2="225.97446987849557" y2="356.34923966729633"/><line stroke-width="1" stroke="#999999" x1="330.9518849166764" y1="59.16859398145278" x2="372.0669235454342" y2="58.99352316974744"/><line stroke-width="1" stroke="#999999" x1="397.36881591807514" y1="383.9187082110611" x2="336.16607509874655" y2="320.31816981739433"/><line stroke-width="1" stroke="#999999" x1="397.36881591807514" y1="383.9187082110611" x2="368.50689165375275" y2="392.45712764608123"/><line stroke-width="0.021739130434782608" stroke="#999999" x1="339.2838662732367" y1="360.4671257127958" x2="261.92491119270323" y2="302.4301458512186"/><line stroke-width="0.4891304347826087" stroke="#999999" x1="339.2838662732367" y1="360.4671257127958" x2="336.16607509874655" y2="320.31816981739433"/><line stroke-width="1" stroke="#999999" x1="372.0669235454342" y1="58.99352316974744" x2="330.9518849166764" y2="59.16859398145278"/><line stroke-width="1" stroke="#999999" x1="317.91631125237603" y1="460.8876395179519" x2="316.06414288859503" y2="415.9132837032911"/><line stroke-width="0.9999999999999999" stroke="#999999" x1="241.20123665547055" y1="236.41979102212295" x2="189.12082002463222" y2="307.2978288028345"/><line stroke-width="0.9999999999999999" stroke="#999999" x1="241.20123665547055" y1="236.41979102212295" x2="261.92491119270323" y2="302.4301458512186"/><line stroke-width="0.23076923076923078" stroke="#999999" x1="241.20123665547055" y1="236.41979102212295" x2="309.013048536728" y2="196.24349031652514"/><line stroke-width="0.23076923076923078" stroke="#999999" x1="241.20123665547055" y1="236.41979102212295" x2="336.16607509874655" y2="320.31816981739433"/><line stroke-width="0.23076923076923078" stroke="#999999" x1="241.20123665547055" y1="236.41979102212295" x2="321.11244967852326" y2="265.91568744624203"/><line stroke-width="0.15384615384615385" stroke="#999999" x1="241.20123665547055" y1="236.41979102212295" x2="219.05262643433807" y2="314.6091239852761"/><line stroke-width="0.6153846153846154" stroke="#999999" x1="241.20123665547055" y1="236.41979102212295" x2="196.46355810744762" y2="242.48902582292894"/><line stroke-width="0.15384615384615385" stroke="#999999" x1="241.20123665547055" y1="236.41979102212295" x2="175.83335233313142" y2="349.6973840597377"/><line stroke-width="1" stroke="#999999" x1="447.1059089722327" y1="347.36423957287366" x2="336.16607509874655" y2="320.31816981739433"/><line stroke-width="1" stroke="#999999" x1="447.1059089722327" y1="347.36423957287366" x2="429.5115269210625" y2="287.8120521916639"/><line stroke-width="1" stroke="#999999" x1="447.1059089722327" y1="347.36423957287366" x2="446.8402376967369" y2="313.5507555725639"/><line stroke-width="1" stroke="#999999" x1="368.50689165375275" y1="392.45712764608123" x2="336.16607509874655" y2="320.31816981739433"/><line stroke-width="1" stroke="#999999" x1="368.50689165375275" y1="392.45712764608123" x2="397.36881591807514" y2="383.9187082110611"/><line stroke-width="0.5" stroke="#999999" x1="292.90127780005696" y1="358.4246632421669" x2="261.92491119270323" y2="302.4301458512186"/><line stroke-width="1" stroke="#999999" x1="292.90127780005696" y1="358.4246632421669" x2="336.16607509874655" y2="320.31816981739433"/><line stroke-width="0.5" stroke="#999999" x1="292.90127780005696" y1="358.4246632421669" x2="225.97446987849557" y2="356.34923966729633"/><line stroke-width="1" stroke="#999999" x1="308.79014851591734" y1="299.18736402805007" x2="261.92491119270323" y2="302.4301458512186"/><line stroke-width="1" stroke="#999999" x1="308.79014851591734" y1="299.18736402805007" x2="336.16607509874655" y2="320.31816981739433"/><line stroke-width="1" stroke="#999999" x1="147.87272849625572" y1="273.9921216531638" x2="189.12082002463222" y2="307.2978288028345"/><line stroke-width="1" stroke="#999999" x1="147.87272849625572" y1="273.9921216531638" x2="196.46355810744762" y2="242.48902582292894"/><line stroke-width="1" stroke="#999999" x1="429.5115269210625" y1="287.8120521916639" x2="336.16607509874655" y2="320.31816981739433"/><line stroke-width="1" stroke="#999999" x1="429.5115269210625" y1="287.8120521916639" x2="447.1059089722327" y2="347.36423957287366"/><line stroke-width="1" stroke="#999999" x1="429.5115269210625" y1="287.8120521916639" x2="446.8402376967369" y2="313.5507555725639"/><line stroke-width="1" stroke="#999999" x1="373.2988856892357" y1="329.57991187972027" x2="336.16607509874655" y2="320.31816981739433"/><line stroke-width="0.0625" stroke="#999999" x1="222.20728267262942" y1="273.6353700195804" x2="189.12082002463222" y2="307.2978288028345"/><line stroke-width="0.3125" stroke="#999999" x1="222.20728267262942" y1="273.6353700195804" x2="261.92491119270323" y2="302.4301458512186"/><line stroke-width="0.0625" stroke="#999999" x1="222.20728267262942" y1="273.6353700195804" x2="177.0393652320744" y2="243.28595123266507"/><line stroke-width="0.0625" stroke="#999999" x1="222.20728267262942" y1="273.6353700195804" x2="260.54710272044673" y2="352.62804784517573"/><line stroke-width="0.125" stroke="#999999" x1="222.20728267262942" y1="273.6353700195804" x2="336.16607509874655" y2="320.31816981739433"/><line stroke-width="0.5" stroke="#999999" x1="215.17507483703866" y1="435.20840731644614" x2="207.4518839248751" y2="391.7505439667623"/><line stroke-width="1" stroke="#999999" x1="446.8402376967369" y1="313.5507555725639" x2="336.16607509874655" y2="320.31816981739433"/><line stroke-width="1" stroke="#999999" x1="446.8402376967369" y1="313.5507555725639" x2="447.1059089722327" y2="347.36423957287366"/><line stroke-width="1" stroke="#999999" x1="446.8402376967369" y1="313.5507555725639" x2="429.5115269210625" y2="287.8120521916639"/><line stroke-width="0.5454545454545454" stroke="#999999" x1="225.97446987849557" y1="356.34923966729633" x2="189.12082002463222" y2="307.2978288028345"/><line stroke-width="0.18181818181818182" stroke="#999999" x1="225.97446987849557" y1="356.34923966729633" x2="261.92491119270323" y2="302.4301458512186"/><line stroke-width="0.36363636363636365" stroke="#999999" x1="225.97446987849557" y1="356.34923966729633" x2="207.4518839248751" y2="391.7505439667623"/><line stroke-width="0.2727272727272727" stroke="#999999" x1="225.97446987849557" y1="356.34923966729633" x2="336.16607509874655" y2="320.31816981739433"/><line stroke-width="0.18181818181818182" stroke="#999999" x1="225.97446987849557" y1="356.34923966729633" x2="196.46355810744762" y2="242.48902582292894"/><line stroke-width="0.36363636363636365" stroke="#999999" x1="225.97446987849557" y1="356.34923966729633" x2="175.83335233313142" y2="349.6973840597377"/><line stroke-width="0.18181818181818182" stroke="#999999" x1="225.97446987849557" y1="356.34923966729633" x2="292.90127780005696" y2="358.4246632421669"/></g><g class="nodes_hWevjpxE"><g><circle id="n_54" r="5" fill="#99ccff" cx="287.008150942849" cy="258.82841033429884"><title>n_54</title></circle><text x="0" y="-7" id="n_54" class="label_hWevjpxE" transform="translate(287.008150942849,258.82841033429884)" cx="287.008150942849" cy="258.82841033429884">n_54</text></g><g><circle id="n_1" r="5" fill="#99ccff" cx="189.12082002463222" cy="307.2978288028345"><title>n_1</title></circle><text x="0" y="-7" id="n_1" class="label_hWevjpxE" transform="translate(189.12082002463222,307.2978288028345)" cx="189.12082002463222" cy="307.2978288028345">n_1</text></g><g><circle id="n_18" r="5" fill="#99ccff" cx="261.92491119270323" cy="302.4301458512186"><title>n_18</title></circle><text x="0" y="-7" id="n_18" class="label_hWevjpxE" transform="translate(261.92491119270323,302.4301458512186)" cx="261.92491119270323" cy="302.4301458512186">n_18</text></g><g><circle id="n_55" r="5" fill="#99ccff" cx="207.4518839248751" cy="391.7505439667623"><title>n_55</title></circle><text x="0" y="-7" id="n_55" class="label_hWevjpxE" transform="translate(207.4518839248751,391.7505439667623)" cx="207.4518839248751" cy="391.7505439667623">n_55</text></g><g><circle id="n_56" r="5" fill="#99ccff" cx="316.06414288859503" cy="415.9132837032911"><title>n_56</title></circle><text x="0" y="-7" id="n_56" class="label_hWevjpxE" transform="translate(316.06414288859503,415.9132837032911)" cx="316.06414288859503" cy="415.9132837032911">n_56</text></g><g><circle id="n_57" r="5" fill="#99ccff" cx="347.677822937615" cy="178.36321565346452"><title>n_57</title></circle><text x="0" y="-7" id="n_57" class="label_hWevjpxE" transform="translate(347.677822937615,178.36321565346452)" cx="347.677822937615" cy="178.36321565346452">n_57</text></g><g><circle id="n_58" r="5" fill="#99ccff" cx="177.0393652320744" cy="243.28595123266507"><title>n_58</title></circle><text x="0" y="-7" id="n_58" class="label_hWevjpxE" transform="translate(177.0393652320744,243.28595123266507)" cx="177.0393652320744" cy="243.28595123266507">n_58</text></g><g><circle id="n_59" r="5" fill="#99ccff" cx="309.013048536728" cy="196.24349031652514"><title>n_59</title></circle><text x="0" y="-7" id="n_59" class="label_hWevjpxE" transform="translate(309.013048536728,196.24349031652514)" cx="309.013048536728" cy="196.24349031652514">n_59</text></g><g><circle id="n_60" r="5" fill="#99ccff" cx="371.1561676022236" cy="290.95140721622454"><title>n_60</title></circle><text x="0" y="-7" id="n_60" class="label_hWevjpxE" transform="translate(371.1561676022236,290.95140721622454)" cx="371.1561676022236" cy="290.95140721622454">n_60</text></g><g><circle id="n_61" r="5" fill="#99ccff" cx="375.59478573570885" cy="195.02459728655697"><title>n_61</title></circle><text x="0" y="-7" id="n_61" class="label_hWevjpxE" transform="translate(375.59478573570885,195.02459728655697)" cx="375.59478573570885" cy="195.02459728655697">n_61</text></g><g><circle id="n_62" r="5" fill="#99ccff" cx="260.54710272044673" cy="352.62804784517573"><title>n_62</title></circle><text x="0" y="-7" id="n_62" class="label_hWevjpxE" transform="translate(260.54710272044673,352.62804784517573)" cx="260.54710272044673" cy="352.62804784517573">n_62</text></g><g><circle id="n_63" r="5" fill="#99ccff" cx="336.16607509874655" cy="320.31816981739433"><title>n_63</title></circle><text x="0" y="-7" id="n_63" class="label_hWevjpxE" transform="translate(336.16607509874655,320.31816981739433)" cx="336.16607509874655" cy="320.31816981739433">n_63</text></g><g><circle id="n_64" r="5" fill="#99ccff" cx="264.7561345476961" cy="257.47676245523786"><title>n_64</title></circle><text x="0" y="-7" id="n_64" class="label_hWevjpxE" transform="translate(264.7561345476961,257.47676245523786)" cx="264.7561345476961" cy="257.47676245523786">n_64</text></g><g><circle id="n_14" r="5" fill="#99ccff" cx="321.11244967852326" cy="265.91568744624203"><title>n_14</title></circle><text x="0" y="-7" id="n_14" class="label_hWevjpxE" transform="translate(321.11244967852326,265.91568744624203)" cx="321.11244967852326" cy="265.91568744624203">n_14</text></g><g><circle id="n_65" r="5" fill="#99ccff" cx="219.05262643433807" cy="314.6091239852761"><title>n_65</title></circle><text x="0" y="-7" id="n_65" class="label_hWevjpxE" transform="translate(219.05262643433807,314.6091239852761)" cx="219.05262643433807" cy="314.6091239852761">n_65</text></g><g><circle id="n_66" r="5" fill="#99ccff" cx="196.46355810744762" cy="242.48902582292894"><title>n_66</title></circle><text x="0" y="-7" id="n_66" class="label_hWevjpxE" transform="translate(196.46355810744762,242.48902582292894)" cx="196.46355810744762" cy="242.48902582292894">n_66</text></g><g><circle id="n_67" r="5" fill="#99ccff" cx="175.83335233313142" cy="349.6973840597377"><title>n_67</title></circle><text x="0" y="-7" id="n_67" class="label_hWevjpxE" transform="translate(175.83335233313142,349.6973840597377)" cx="175.83335233313142" cy="349.6973840597377">n_67</text></g><g><circle id="n_68" r="5" fill="#99ccff" cx="330.9518849166764" cy="59.16859398145278"><title>n_68</title></circle><text x="0" y="-7" id="n_68" class="label_hWevjpxE" transform="translate(330.9518849166764,59.16859398145278)" cx="330.9518849166764" cy="59.16859398145278">n_68</text></g><g><circle id="n_69" r="5" fill="#99ccff" cx="397.36881591807514" cy="383.9187082110611"><title>n_69</title></circle><text x="0" y="-7" id="n_69" class="label_hWevjpxE" transform="translate(397.36881591807514,383.9187082110611)" cx="397.36881591807514" cy="383.9187082110611">n_69</text></g><g><circle id="n_70" r="5" fill="#99ccff" cx="339.2838662732367" cy="360.4671257127958"><title>n_70</title></circle><text x="0" y="-7" id="n_70" class="label_hWevjpxE" transform="translate(339.2838662732367,360.4671257127958)" cx="339.2838662732367" cy="360.4671257127958">n_70</text></g><g><circle id="n_71" r="5" fill="#99ccff" cx="124.10255932785579" cy="22.675619735490187"><title>n_71</title></circle><text x="0" y="-7" id="n_71" class="label_hWevjpxE" transform="translate(124.10255932785579,22.675619735490187)" cx="124.10255932785579" cy="22.675619735490187">n_71</text></g><g><circle id="n_72" r="5" fill="#99ccff" cx="372.0669235454342" cy="58.99352316974744"><title>n_72</title></circle><text x="0" y="-7" id="n_72" class="label_hWevjpxE" transform="translate(372.0669235454342,58.99352316974744)" cx="372.0669235454342" cy="58.99352316974744">n_72</text></g><g><circle id="n_73" r="5" fill="#99ccff" cx="317.91631125237603" cy="460.8876395179519"><title>n_73</title></circle><text x="0" y="-7" id="n_73" class="label_hWevjpxE" transform="translate(317.91631125237603,460.8876395179519)" cx="317.91631125237603" cy="460.8876395179519">n_73</text></g><g><circle id="n_74" r="5" fill="#99ccff" cx="241.20123665547055" cy="236.41979102212295"><title>n_74</title></circle><text x="0" y="-7" id="n_74" class="label_hWevjpxE" transform="translate(241.20123665547055,236.41979102212295)" cx="241.20123665547055" cy="236.41979102212295">n_74</text></g><g><circle id="n_75" r="5" fill="#99ccff" cx="447.1059089722327" cy="347.36423957287366"><title>n_75</title></circle><text x="0" y="-7" id="n_75" class="label_hWevjpxE" transform="translate(447.1059089722327,347.36423957287366)" cx="447.1059089722327" cy="347.36423957287366">n_75</text></g><g><circle id="n_76" r="5" fill="#99ccff" cx="368.50689165375275" cy="392.45712764608123"><title>n_76</title></circle><text x="0" y="-7" id="n_76" class="label_hWevjpxE" transform="translate(368.50689165375275,392.45712764608123)" cx="368.50689165375275" cy="392.45712764608123">n_76</text></g><g><circle id="n_77" r="5" fill="#99ccff" cx="723.9313055956038" cy="205.96594852590363"><title>n_77</title></circle><text x="0" y="-7" id="n_77" class="label_hWevjpxE" transform="translate(723.9313055956038,205.96594852590363)" cx="723.9313055956038" cy="205.96594852590363">n_77</text></g><g><circle id="n_78" r="5" fill="#99ccff" cx="229.28120366086955" cy="718.691542283747"><title>n_78</title></circle><text x="0" y="-7" id="n_78" class="label_hWevjpxE" transform="translate(229.28120366086955,718.691542283747)" cx="229.28120366086955" cy="718.691542283747">n_78</text></g><g><circle id="n_79" r="5" fill="#99ccff" cx="292.90127780005696" cy="358.4246632421669"><title>n_79</title></circle><text x="0" y="-7" id="n_79" class="label_hWevjpxE" transform="translate(292.90127780005696,358.4246632421669)" cx="292.90127780005696" cy="358.4246632421669">n_79</text></g><g><circle id="n_80" r="5" fill="#99ccff" cx="308.79014851591734" cy="299.18736402805007"><title>n_80</title></circle><text x="0" y="-7" id="n_80" class="label_hWevjpxE" transform="translate(308.79014851591734,299.18736402805007)" cx="308.79014851591734" cy="299.18736402805007">n_80</text></g><g><circle id="n_81" r="5" fill="#99ccff" cx="147.87272849625572" cy="273.9921216531638"><title>n_81</title></circle><text x="0" y="-7" id="n_81" class="label_hWevjpxE" transform="translate(147.87272849625572,273.9921216531638)" cx="147.87272849625572" cy="273.9921216531638">n_81</text></g><g><circle id="n_38" r="5" fill="#99ccff" cx="429.5115269210625" cy="287.8120521916639"><title>n_38</title></circle><text x="0" y="-7" id="n_38" class="label_hWevjpxE" transform="translate(429.5115269210625,287.8120521916639)" cx="429.5115269210625" cy="287.8120521916639">n_38</text></g><g><circle id="n_82" r="5" fill="#99ccff" cx="373.2988856892357" cy="329.57991187972027"><title>n_82</title></circle><text x="0" y="-7" id="n_82" class="label_hWevjpxE" transform="translate(373.2988856892357,329.57991187972027)" cx="373.2988856892357" cy="329.57991187972027">n_82</text></g><g><circle id="n_83" r="5" fill="#99ccff" cx="222.20728267262942" cy="273.6353700195804"><title>n_83</title></circle><text x="0" y="-7" id="n_83" class="label_hWevjpxE" transform="translate(222.20728267262942,273.6353700195804)" cx="222.20728267262942" cy="273.6353700195804">n_83</text></g><g><circle id="n_84" r="5" fill="#99ccff" cx="764.2475292908002" cy="368.1707565852368"><title>n_84</title></circle><text x="0" y="-7" id="n_84" class="label_hWevjpxE" transform="translate(764.2475292908002,368.1707565852368)" cx="764.2475292908002" cy="368.1707565852368">n_84</text></g><g><circle id="n_85" r="5" fill="#99ccff" cx="73.55978123536586" cy="635.9050376074508"><title>n_85</title></circle><text x="0" y="-7" id="n_85" class="label_hWevjpxE" transform="translate(73.55978123536586,635.9050376074508)" cx="73.55978123536586" cy="635.9050376074508">n_85</text></g><g><circle id="n_37" r="5" fill="#99ccff" cx="356.4831071156172" cy="-73.45682750965048"><title>n_37</title></circle><text x="0" y="-7" id="n_37" class="label_hWevjpxE" transform="translate(356.4831071156172,-73.45682750965048)" cx="356.4831071156172" cy="-73.45682750965048">n_37</text></g><g><circle id="n_86" r="5" fill="#99ccff" cx="215.17507483703866" cy="435.20840731644614"><title>n_86</title></circle><text x="0" y="-7" id="n_86" class="label_hWevjpxE" transform="translate(215.17507483703866,435.20840731644614)" cx="215.17507483703866" cy="435.20840731644614">n_86</text></g><g><circle id="n_87" r="5" fill="#99ccff" cx="-64.65092372527909" cy="311.38801174638974"><title>n_87</title></circle><text x="0" y="-7" id="n_87" class="label_hWevjpxE" transform="translate(-64.65092372527909,311.38801174638974)" cx="-64.65092372527909" cy="311.38801174638974">n_87</text></g><g><circle id="n_88" r="5" fill="#99ccff" cx="446.8402376967369" cy="313.5507555725639"><title>n_88</title></circle><text x="0" y="-7" id="n_88" class="label_hWevjpxE" transform="translate(446.8402376967369,313.5507555725639)" cx="446.8402376967369" cy="313.5507555725639">n_88</text></g><g><circle id="n_89" r="5" fill="#99ccff" cx="225.97446987849557" cy="356.34923966729633"><title>n_89</title></circle><text x="0" y="-7" id="n_89" class="label_hWevjpxE" transform="translate(225.97446987849557,356.34923966729633)" cx="225.97446987849557" cy="356.34923966729633">n_89</text></g></g></g></svg>