<svg xmlns="http://www.w3.org/2000/svg" width="600" height="600" id="sBOKqstn">        
    <text x="20" y="20" font-family="sans-serif" font-size="14px" fill="#666" style="cursor: pointer" id="sBOKqstn_svg_txt">[save svg]</text>
<defs><marker id="end" viewBox="0 -5 20 20" refX="34" refY="0" markerWidth="15" markerHeight="15" orient="auto"><path d="M0,-5 L20,0 L0,5 z" fill="#999" stroke="none"/></marker></defs><g class="everything" transform="translate(101.58355831940037,42.24512043315809) scale(0.8705505632961242)"><g class="links_sBOKqstn"><line stroke-width="0.5714285714285714" stroke="#999999" x1="342.37095326557966" y1="375.26301511115093" x2="354.13204010244965" y2="407.8750049680897"/><line stroke-width="0.23529411764705882" stroke="#999999" x1="286.66687109545416" y1="333.795757719131" x2="354.13204010244965" y2="407.8750049680897"/><line stroke-width="0.23529411764705882" stroke="#999999" x1="286.66687109545416" y1="333.795757719131" x2="350.7258461706002" y2="272.94062034681787"/><line stroke-width="0.4117647058823529" stroke="#999999" x1="286.66687109545416" y1="333.795757719131" x2="388.7498323477314" y2="345.26778637700386"/><line stroke-width="0.23529411764705882" stroke="#999999" x1="286.66687109545416" y1="333.795757719131" x2="355.32770523582536" y2="316.59125143363843"/><line stroke-width="0.0196078431372549" stroke="#999999" x1="286.66687109545416" y1="333.795757719131" x2="229.2740339846688" y2="379.6386514113408"/><line stroke-width="0.0196078431372549" stroke="#999999" x1="286.66687109545416" y1="333.795757719131" x2="222.09002679977024" y2="306.80945720918254"/><line stroke-width="0.0196078431372549" stroke="#999999" x1="286.66687109545416" y1="333.795757719131" x2="256.30463677901025" y2="400.7259965272456"/><line stroke-width="0.0196078431372549" stroke="#999999" x1="286.66687109545416" y1="333.795757719131" x2="255.21235246502047" y2="288.2802526465375"/><line stroke-width="0.04285714285714286" stroke="#999999" x1="354.13204010244965" y1="407.8750049680897" x2="342.37095326557966" y2="375.26301511115093"/><line stroke-width="0.04285714285714286" stroke="#999999" x1="354.13204010244965" y1="407.8750049680897" x2="286.66687109545416" y2="333.795757719131"/><line stroke-width="0.04285714285714286" stroke="#999999" x1="354.13204010244965" y1="407.8750049680897" x2="350.7258461706002" y2="272.94062034681787"/><line stroke-width="0.3714285714285714" stroke="#999999" x1="354.13204010244965" y1="407.8750049680897" x2="388.7498323477314" y2="345.26778637700386"/><line stroke-width="0.014285714285714285" stroke="#999999" x1="354.13204010244965" y1="407.8750049680897" x2="313.6945574971536" y2="404.5209412541695"/><line stroke-width="0.07142857142857142" stroke="#999999" x1="354.13204010244965" y1="407.8750049680897" x2="355.32770523582536" y2="316.59125143363843"/><line stroke-width="0.014285714285714285" stroke="#999999" x1="354.13204010244965" y1="407.8750049680897" x2="411.1310399820532" y2="387.17486370106906"/><line stroke-width="0.125" stroke="#999999" x1="515.9972213962095" y1="162.51982716559309" x2="503.5433731626266" y2="123.51133832614015"/><line stroke-width="0.25" stroke="#999999" x1="-18.265822156757096" y1="324.0891612713644" x2="-19.479863256133267" y2="365.0144963873519"/><line stroke-width="0.85" stroke="#999999" x1="395.23935422928827" y1="247.36485938020212" x2="350.7258461706002" y2="272.94062034681787"/><line stroke-width="0.65" stroke="#999999" x1="395.23935422928827" y1="247.36485938020212" x2="354.2994824358911" y2="222.1629158530625"/><line stroke-width="0.15000000000000002" stroke="#999999" x1="395.23935422928827" y1="247.36485938020212" x2="388.7498323477314" y2="345.26778637700386"/><line stroke-width="0.125" stroke="#999999" x1="350.7258461706002" y1="272.94062034681787" x2="286.66687109545416" y2="333.795757719131"/><line stroke-width="0.125" stroke="#999999" x1="350.7258461706002" y1="272.94062034681787" x2="354.13204010244965" y2="407.8750049680897"/><line stroke-width="0.7083333333333334" stroke="#999999" x1="350.7258461706002" y1="272.94062034681787" x2="395.23935422928827" y2="247.36485938020212"/><line stroke-width="0.6666666666666667" stroke="#999999" x1="350.7258461706002" y1="272.94062034681787" x2="354.2994824358911" y2="222.1629158530625"/><line stroke-width="0.2916666666666667" stroke="#999999" x1="350.7258461706002" y1="272.94062034681787" x2="388.7498323477314" y2="345.26778637700386"/><line stroke-width="0.125" stroke="#999999" x1="350.7258461706002" y1="272.94062034681787" x2="355.32770523582536" y2="316.59125143363843"/><line stroke-width="1" stroke="#999999" x1="434.5314878976458" y1="346.5020152255252" x2="388.7498323477314" y2="345.26778637700386"/><line stroke-width="0.8571428571428571" stroke="#999999" x1="354.2994824358911" y1="222.1629158530625" x2="395.23935422928827" y2="247.36485938020212"/><line stroke-width="0.9285714285714285" stroke="#999999" x1="354.2994824358911" y1="222.1629158530625" x2="350.7258461706002" y2="272.94062034681787"/><line stroke-width="0.5" stroke="#999999" x1="503.5433731626266" y1="123.51133832614015" x2="515.9972213962095" y2="162.51982716559309"/><line stroke-width="0.05351170568561873" stroke="#999999" x1="388.7498323477314" y1="345.26778637700386" x2="286.66687109545416" y2="333.795757719131"/><line stroke-width="0.16722408026755853" stroke="#999999" x1="388.7498323477314" y1="345.26778637700386" x2="354.13204010244965" y2="407.8750049680897"/><line stroke-width="0.033444816053511704" stroke="#999999" x1="388.7498323477314" y1="345.26778637700386" x2="395.23935422928827" y2="247.36485938020212"/><line stroke-width="0.033444816053511704" stroke="#999999" x1="388.7498323477314" y1="345.26778637700386" x2="350.7258461706002" y2="272.94062034681787"/><line stroke-width="0.0568561872909699" stroke="#999999" x1="388.7498323477314" y1="345.26778637700386" x2="434.5314878976458" y2="346.5020152255252"/><line stroke-width="0.3110367892976588" stroke="#999999" x1="388.7498323477314" y1="345.26778637700386" x2="355.32770523582536" y2="316.59125143363843"/><line stroke-width="0.013377926421404682" stroke="#999999" x1="388.7498323477314" y1="345.26778637700386" x2="411.1310399820532" y2="387.17486370106906"/><line stroke-width="1" stroke="#999999" x1="313.6945574971536" y1="404.5209412541695" x2="354.13204010244965" y2="407.8750049680897"/><line stroke-width="0.020134228187919462" stroke="#999999" x1="355.32770523582536" y1="316.59125143363843" x2="286.66687109545416" y2="333.795757719131"/><line stroke-width="0.03355704697986577" stroke="#999999" x1="355.32770523582536" y1="316.59125143363843" x2="354.13204010244965" y2="407.8750049680897"/><line stroke-width="0.020134228187919462" stroke="#999999" x1="355.32770523582536" y1="316.59125143363843" x2="350.7258461706002" y2="272.94062034681787"/><line stroke-width="0.5906040268456375" stroke="#999999" x1="355.32770523582536" y1="316.59125143363843" x2="388.7498323477314" y2="345.26778637700386"/><line stroke-width="1" stroke="#999999" x1="229.2740339846688" y1="379.6386514113408" x2="286.66687109545416" y2="333.795757719131"/><line stroke-width="1" stroke="#999999" x1="229.2740339846688" y1="379.6386514113408" x2="256.30463677901025" y2="400.7259965272456"/><line stroke-width="0.5" stroke="#999999" x1="222.09002679977024" y1="306.80945720918254" x2="286.66687109545416" y2="333.795757719131"/><line stroke-width="0.5" stroke="#999999" x1="222.09002679977024" y1="306.80945720918254" x2="255.21235246502047" y2="288.2802526465375"/><line stroke-width="1" stroke="#999999" x1="256.30463677901025" y1="400.7259965272456" x2="286.66687109545416" y2="333.795757719131"/><line stroke-width="1" stroke="#999999" x1="256.30463677901025" y1="400.7259965272456" x2="229.2740339846688" y2="379.6386514113408"/><line stroke-width="1" stroke="#999999" x1="87.98241404298683" y1="355.8615071166527" x2="103.60546707863294" y2="393.7778380143272"/><line stroke-width="1" stroke="#999999" x1="287.895434522748" y1="25.10914616128871" x2="247.5501690861715" y2="31.750266513969983"/><line stroke-width="0.021739130434782608" stroke="#999999" x1="411.1310399820532" y1="387.17486370106906" x2="354.13204010244965" y2="407.8750049680897"/><line stroke-width="0.4891304347826087" stroke="#999999" x1="411.1310399820532" y1="387.17486370106906" x2="388.7498323477314" y2="345.26778637700386"/><line stroke-width="1" stroke="#999999" x1="103.60546707863294" y1="393.7778380143272" x2="87.98241404298683" y2="355.8615071166527"/><line stroke-width="1" stroke="#999999" x1="-19.479863256133267" y1="365.0144963873519" x2="-18.265822156757096" y2="324.0891612713644"/><line stroke-width="1" stroke="#999999" x1="255.21235246502047" y1="288.2802526465375" x2="286.66687109545416" y2="333.795757719131"/><line stroke-width="1" stroke="#999999" x1="255.21235246502047" y1="288.2802526465375" x2="222.09002679977024" y2="306.80945720918254"/><line stroke-width="1" stroke="#999999" x1="247.5501690861715" y1="31.750266513969983" x2="287.895434522748" y2="25.10914616128871"/></g><g class="nodes_sBOKqstn"><g><circle id="n_54" r="5" fill="#99ccff" cx="342.37095326557966" cy="375.26301511115093"><title>n_54</title></circle><text x="0" y="-7" id="n_54" class="label_sBOKqstn" transform="translate(342.37095326557966,375.26301511115093)" cx="342.37095326557966" cy="375.26301511115093">n_54</text></g><g><circle id="n_1" r="5" fill="#99ccff" cx="286.66687109545416" cy="333.795757719131"><title>n_1</title></circle><text x="0" y="-7" id="n_1" class="label_sBOKqstn" transform="translate(286.66687109545416,333.795757719131)" cx="286.66687109545416" cy="333.795757719131">n_1</text></g><g><circle id="n_18" r="5" fill="#99ccff" cx="354.13204010244965" cy="407.8750049680897"><title>n_18</title></circle><text x="0" y="-7" id="n_18" class="label_sBOKqstn" transform="translate(354.13204010244965,407.8750049680897)" cx="354.13204010244965" cy="407.8750049680897">n_18</text></g><g><circle id="n_55" r="5" fill="#99ccff" cx="515.9972213962095" cy="162.51982716559309"><title>n_55</title></circle><text x="0" y="-7" id="n_55" class="label_sBOKqstn" transform="translate(515.9972213962095,162.51982716559309)" cx="515.9972213962095" cy="162.51982716559309">n_55</text></g><g><circle id="n_56" r="5" fill="#99ccff" cx="-18.265822156757096" cy="324.0891612713644"><title>n_56</title></circle><text x="0" y="-7" id="n_56" class="label_sBOKqstn" transform="translate(-18.265822156757096,324.0891612713644)" cx="-18.265822156757096" cy="324.0891612713644">n_56</text></g><g><circle id="n_57" r="5" fill="#99ccff" cx="395.23935422928827" cy="247.36485938020212"><title>n_57</title></circle><text x="0" y="-7" id="n_57" class="label_sBOKqstn" transform="translate(395.23935422928827,247.36485938020212)" cx="395.23935422928827" cy="247.36485938020212">n_57</text></g><g><circle id="n_58" r="5" fill="#99ccff" cx="278.18723900602316" cy="558.335086882931"><title>n_58</title></circle><text x="0" y="-7" id="n_58" class="label_sBOKqstn" transform="translate(278.18723900602316,558.335086882931)" cx="278.18723900602316" cy="558.335086882931">n_58</text></g><g><circle id="n_59" r="5" fill="#99ccff" cx="350.7258461706002" cy="272.94062034681787"><title>n_59</title></circle><text x="0" y="-7" id="n_59" class="label_sBOKqstn" transform="translate(350.7258461706002,272.94062034681787)" cx="350.7258461706002" cy="272.94062034681787">n_59</text></g><g><circle id="n_60" r="5" fill="#99ccff" cx="434.5314878976458" cy="346.5020152255252"><title>n_60</title></circle><text x="0" y="-7" id="n_60" class="label_sBOKqstn" transform="translate(434.5314878976458,346.5020152255252)" cx="434.5314878976458" cy="346.5020152255252">n_60</text></g><g><circle id="n_61" r="5" fill="#99ccff" cx="354.2994824358911" cy="222.1629158530625"><title>n_61</title></circle><text x="0" y="-7" id="n_61" class="label_sBOKqstn" transform="translate(354.2994824358911,222.1629158530625)" cx="354.2994824358911" cy="222.1629158530625">n_61</text></g><g><circle id="n_62" r="5" fill="#99ccff" cx="503.5433731626266" cy="123.51133832614015"><title>n_62</title></circle><text x="0" y="-7" id="n_62" class="label_sBOKqstn" transform="translate(503.5433731626266,123.51133832614015)" cx="503.5433731626266" cy="123.51133832614015">n_62</text></g><g><circle id="n_63" r="5" fill="#99ccff" cx="388.7498323477314" cy="345.26778637700386"><title>n_63</title></circle><text x="0" y="-7" id="n_63" class="label_sBOKqstn" transform="translate(388.7498323477314,345.26778637700386)" cx="388.7498323477314" cy="345.26778637700386">n_63</text></g><g><circle id="n_64" r="5" fill="#99ccff" cx="313.6945574971536" cy="404.5209412541695"><title>n_64</title></circle><text x="0" y="-7" id="n_64" class="label_sBOKqstn" transform="translate(313.6945574971536,404.5209412541695)" cx="313.6945574971536" cy="404.5209412541695">n_64</text></g><g><circle id="n_14" r="5" fill="#99ccff" cx="355.32770523582536" cy="316.59125143363843"><title>n_14</title></circle><text x="0" y="-7" id="n_14" class="label_sBOKqstn" transform="translate(355.32770523582536,316.59125143363843)" cx="355.32770523582536" cy="316.59125143363843">n_14</text></g><g><circle id="n_65" r="5" fill="#99ccff" cx="229.2740339846688" cy="379.6386514113408"><title>n_65</title></circle><text x="0" y="-7" id="n_65" class="label_sBOKqstn" transform="translate(229.2740339846688,379.6386514113408)" cx="229.2740339846688" cy="379.6386514113408">n_65</text></g><g><circle id="n_66" r="5" fill="#99ccff" cx="222.09002679977024" cy="306.80945720918254"><title>n_66</title></circle><text x="0" y="-7" id="n_66" class="label_sBOKqstn" transform="translate(222.09002679977024,306.80945720918254)" cx="222.09002679977024" cy="306.80945720918254">n_66</text></g><g><circle id="n_67" r="5" fill="#99ccff" cx="256.30463677901025" cy="400.7259965272456"><title>n_67</title></circle><text x="0" y="-7" id="n_67" class="label_sBOKqstn" transform="translate(256.30463677901025,400.7259965272456)" cx="256.30463677901025" cy="400.7259965272456">n_67</text></g><g><circle id="n_68" r="5" fill="#99ccff" cx="87.98241404298683" cy="355.8615071166527"><title>n_68</title></circle><text x="0" y="-7" id="n_68" class="label_sBOKqstn" transform="translate(87.98241404298683,355.8615071166527)" cx="87.98241404298683" cy="355.8615071166527">n_68</text></g><g><circle id="n_69" r="5" fill="#99ccff" cx="287.895434522748" cy="25.10914616128871"><title>n_69</title></circle><text x="0" y="-7" id="n_69" class="label_sBOKqstn" transform="translate(287.895434522748,25.10914616128871)" cx="287.895434522748" cy="25.10914616128871">n_69</text></g><g><circle id="n_70" r="5" fill="#99ccff" cx="411.1310399820532" cy="387.17486370106906"><title>n_70</title></circle><text x="0" y="-7" id="n_70" class="label_sBOKqstn" transform="translate(411.1310399820532,387.17486370106906)" cx="411.1310399820532" cy="387.17486370106906">n_70</text></g><g><circle id="n_71" r="5" fill="#99ccff" cx="84.24343336468331" cy="5.468127980098704"><title>n_71</title></circle><text x="0" y="-7" id="n_71" class="label_sBOKqstn" transform="translate(84.24343336468331,5.468127980098704)" cx="84.24343336468331" cy="5.468127980098704">n_71</text></g><g><circle id="n_72" r="5" fill="#99ccff" cx="103.60546707863294" cy="393.7778380143272"><title>n_72</title></circle><text x="0" y="-7" id="n_72" class="label_sBOKqstn" transform="translate(103.60546707863294,393.7778380143272)" cx="103.60546707863294" cy="393.7778380143272">n_72</text></g><g><circle id="n_73" r="5" fill="#99ccff" cx="-19.479863256133267" cy="365.0144963873519"><title>n_73</title></circle><text x="0" y="-7" id="n_73" class="label_sBOKqstn" transform="translate(-19.479863256133267,365.0144963873519)" cx="-19.479863256133267" cy="365.0144963873519">n_73</text></g><g><circle id="n_74" r="5" fill="#99ccff" cx="255.21235246502047" cy="288.2802526465375"><title>n_74</title></circle><text x="0" y="-7" id="n_74" class="label_sBOKqstn" transform="translate(255.21235246502047,288.2802526465375)" cx="255.21235246502047" cy="288.2802526465375">n_74</text></g><g><circle id="n_75" r="5" fill="#99ccff" cx="463.087557507946" cy="588.327288395709"><title>n_75</title></circle><text x="0" y="-7" id="n_75" class="label_sBOKqstn" transform="translate(463.087557507946,588.327288395709)" cx="463.087557507946" cy="588.327288395709">n_75</text></g><g><circle id="n_76" r="5" fill="#99ccff" cx="247.5501690861715" cy="31.750266513969983"><title>n_76</title></circle><text x="0" y="-7" id="n_76" class="label_sBOKqstn" transform="translate(247.5501690861715,31.750266513969983)" cx="247.5501690861715" cy="31.750266513969983">n_76</text></g><g><circle id="n_77" r="5" fill="#99ccff" cx="615.9159729885675" cy="131.33026895250526"><title>n_77</title></circle><text x="0" y="-7" id="n_77" class="label_sBOKqstn" transform="translate(615.9159729885675,131.33026895250526)" cx="615.9159729885675" cy="131.33026895250526">n_77</text></g></g></g></svg>