<svg xmlns="http://www.w3.org/2000/svg" width="600" height="600" id="prWOLfCO">        
    <text x="20" y="20" font-family="sans-serif" font-size="14px" fill="#666" style="cursor: pointer" id="prWOLfCO_svg_txt">[save svg]</text>
<defs><marker id="end" viewBox="0 -5 20 20" refX="34" refY="0" markerWidth="15" markerHeight="15" orient="auto"><path d="M0,-5 L20,0 L0,5 z" fill="#999" stroke="none"/></marker></defs><g class="everything" transform="translate(20,23) scale(1)"><g class="links_prWOLfCO"><line stroke-width="0.1925925925925926" stroke="#999999" x1="336.7977881026243" y1="322.82688884536753" x2="244.63781160131236" y2="328.2195331446462"/><line stroke-width="0.014814814814814815" stroke="#999999" x1="336.7977881026243" y1="322.82688884536753" x2="204.27770903379687" y2="283.76101448516636"/><line stroke-width="0.37037037037037035" stroke="#999999" x1="336.7977881026243" y1="322.82688884536753" x2="274.4503015369879" y2="333.0183328265853"/><line stroke-width="0.037037037037037035" stroke="#999999" x1="336.7977881026243" y1="322.82688884536753" x2="342.55515344592754" y2="389.10126732907554"/><line stroke-width="0.0962962962962963" stroke="#999999" x1="336.7977881026243" y1="322.82688884536753" x2="245.8259051638382" y2="283.6987267038435"/><line stroke-width="0.0962962962962963" stroke="#999999" x1="336.7977881026243" y1="322.82688884536753" x2="327.3562553623721" y2="276.4952320054232"/><line stroke-width="0.1925925925925926" stroke="#999999" x1="336.7977881026243" y1="322.82688884536753" x2="334.6286455464605" y2="196.1927986423638"/><line stroke-width="0.037037037037037035" stroke="#999999" x1="336.7977881026243" y1="322.82688884536753" x2="282.06318909304844" y2="290.9236055502364"/><line stroke-width="0.0962962962962963" stroke="#999999" x1="336.7977881026243" y1="322.82688884536753" x2="319.19068156289165" y2="223.8723092278558"/><line stroke-width="0.0962962962962963" stroke="#999999" x1="336.7977881026243" y1="322.82688884536753" x2="351.4551492065711" y2="275.501217685211"/><line stroke-width="0.007407407407407408" stroke="#999999" x1="336.7977881026243" y1="322.82688884536753" x2="304.9955479220278" y2="350.68188888149024"/><line stroke-width="0.0962962962962963" stroke="#999999" x1="336.7977881026243" y1="322.82688884536753" x2="368.6330422802896" y2="300.76008537137074"/><line stroke-width="0.0962962962962963" stroke="#999999" x1="336.7977881026243" y1="322.82688884536753" x2="273.0634874663547" y2="272.5580744170316"/><line stroke-width="0.037037037037037035" stroke="#999999" x1="336.7977881026243" y1="322.82688884536753" x2="304.2564367181245" y2="408.7670269964974"/><line stroke-width="0.14814814814814814" stroke="#999999" x1="336.7977881026243" y1="322.82688884536753" x2="304.73515960682823" y2="300.34717574911576"/><line stroke-width="0.1111111111111111" stroke="#999999" x1="336.7977881026243" y1="322.82688884536753" x2="395.4360857990435" y2="214.79362793915354"/><line stroke-width="0.007407407407407408" stroke="#999999" x1="336.7977881026243" y1="322.82688884536753" x2="407.5754729960454" y2="360.62966773907374"/><line stroke-width="0.007407407407407408" stroke="#999999" x1="336.7977881026243" y1="322.82688884536753" x2="374.44344175228247" y2="251.50821662353104"/><line stroke-width="0.18518518518518517" stroke="#999999" x1="336.7977881026243" y1="322.82688884536753" x2="393.80134462577115" y2="249.97206530703454"/><line stroke-width="0.007407407407407408" stroke="#999999" x1="336.7977881026243" y1="322.82688884536753" x2="353.1551557312435" y2="403.5311049161001"/><line stroke-width="0.0962962962962963" stroke="#999999" x1="336.7977881026243" y1="322.82688884536753" x2="307.9678686401515" y2="198.32806005538694"/><line stroke-width="0.0962962962962963" stroke="#999999" x1="336.7977881026243" y1="322.82688884536753" x2="420.25049484318464" y2="273.47196860117145"/><line stroke-width="0.08148148148148149" stroke="#999999" x1="336.7977881026243" y1="322.82688884536753" x2="220.5502492385493" y2="246.00459377904664"/><line stroke-width="0.2666666666666667" stroke="#999999" x1="336.7977881026243" y1="322.82688884536753" x2="309.01852076473426" y2="256.43651688821546"/><line stroke-width="0.11851851851851852" stroke="#999999" x1="336.7977881026243" y1="322.82688884536753" x2="383.2813554087486" y2="337.66264749395356"/><line stroke-width="0.21481481481481482" stroke="#999999" x1="336.7977881026243" y1="322.82688884536753" x2="287.54942001299537" y2="224.36561203495577"/><line stroke-width="0.18518518518518517" stroke="#999999" x1="336.7977881026243" y1="322.82688884536753" x2="380.4077812010228" y2="281.543486868364"/><line stroke-width="0.037037037037037035" stroke="#999999" x1="336.7977881026243" y1="322.82688884536753" x2="324.0619520543026" y2="346.11448532507933"/><line stroke-width="0.1037037037037037" stroke="#999999" x1="336.7977881026243" y1="322.82688884536753" x2="398.65555995466616" y2="310.3311559279021"/><line stroke-width="0.007407407407407408" stroke="#999999" x1="336.7977881026243" y1="322.82688884536753" x2="260.90277333090995" y2="241.11517925857183"/><line stroke-width="0.007407407407407408" stroke="#999999" x1="336.7977881026243" y1="322.82688884536753" x2="317.5510450950331" y2="379.0849513943843"/><line stroke-width="0.11851851851851852" stroke="#999999" x1="336.7977881026243" y1="322.82688884536753" x2="266.3346425553568" y2="210.73561792349307"/><line stroke-width="0.14634146341463414" stroke="#999999" x1="244.63781160131236" y1="328.2195331446462" x2="336.7977881026243" y2="322.82688884536753"/><line stroke-width="0.024390243902439025" stroke="#999999" x1="244.63781160131236" y1="328.2195331446462" x2="204.27770903379687" y2="283.76101448516636"/><line stroke-width="0.14634146341463414" stroke="#999999" x1="244.63781160131236" y1="328.2195331446462" x2="274.4503015369879" y2="333.0183328265853"/><line stroke-width="0.024390243902439025" stroke="#999999" x1="244.63781160131236" y1="328.2195331446462" x2="245.8259051638382" y2="283.6987267038435"/><line stroke-width="0.024390243902439025" stroke="#999999" x1="244.63781160131236" y1="328.2195331446462" x2="327.3562553623721" y2="276.4952320054232"/><line stroke-width="0.024390243902439025" stroke="#999999" x1="244.63781160131236" y1="328.2195331446462" x2="334.6286455464605" y2="196.1927986423638"/><line stroke-width="0.024390243902439025" stroke="#999999" x1="244.63781160131236" y1="328.2195331446462" x2="319.19068156289165" y2="223.8723092278558"/><line stroke-width="0.024390243902439025" stroke="#999999" x1="244.63781160131236" y1="328.2195331446462" x2="351.4551492065711" y2="275.501217685211"/><line stroke-width="0.024390243902439025" stroke="#999999" x1="244.63781160131236" y1="328.2195331446462" x2="368.6330422802896" y2="300.76008537137074"/><line stroke-width="0.04878048780487805" stroke="#999999" x1="244.63781160131236" y1="328.2195331446462" x2="273.0634874663547" y2="272.5580744170316"/><line stroke-width="0.024390243902439025" stroke="#999999" x1="244.63781160131236" y1="328.2195331446462" x2="304.73515960682823" y2="300.34717574911576"/><line stroke-width="0.024390243902439025" stroke="#999999" x1="244.63781160131236" y1="328.2195331446462" x2="199.91908574270715" y2="314.02334525279724"/><line stroke-width="0.024390243902439025" stroke="#999999" x1="244.63781160131236" y1="328.2195331446462" x2="395.4360857990435" y2="214.79362793915354"/><line stroke-width="0.024390243902439025" stroke="#999999" x1="244.63781160131236" y1="328.2195331446462" x2="393.80134462577115" y2="249.97206530703454"/><line stroke-width="0.024390243902439025" stroke="#999999" x1="244.63781160131236" y1="328.2195331446462" x2="307.9678686401515" y2="198.32806005538694"/><line stroke-width="0.024390243902439025" stroke="#999999" x1="244.63781160131236" y1="328.2195331446462" x2="420.25049484318464" y2="273.47196860117145"/><line stroke-width="0.024390243902439025" stroke="#999999" x1="244.63781160131236" y1="328.2195331446462" x2="220.5502492385493" y2="246.00459377904664"/><line stroke-width="0.07317073170731708" stroke="#999999" x1="244.63781160131236" y1="328.2195331446462" x2="309.01852076473426" y2="256.43651688821546"/><line stroke-width="0.024390243902439025" stroke="#999999" x1="244.63781160131236" y1="328.2195331446462" x2="383.2813554087486" y2="337.66264749395356"/><line stroke-width="0.024390243902439025" stroke="#999999" x1="244.63781160131236" y1="328.2195331446462" x2="287.54942001299537" y2="224.36561203495577"/><line stroke-width="0.024390243902439025" stroke="#999999" x1="244.63781160131236" y1="328.2195331446462" x2="380.4077812010228" y2="281.543486868364"/><line stroke-width="0.04878048780487805" stroke="#999999" x1="244.63781160131236" y1="328.2195331446462" x2="324.0619520543026" y2="346.11448532507933"/><line stroke-width="0.024390243902439025" stroke="#999999" x1="244.63781160131236" y1="328.2195331446462" x2="398.65555995466616" y2="310.3311559279021"/><line stroke-width="0.04878048780487805" stroke="#999999" x1="244.63781160131236" y1="328.2195331446462" x2="207.11926118530954" y2="364.89644291736204"/><line stroke-width="0.04878048780487805" stroke="#999999" x1="244.63781160131236" y1="328.2195331446462" x2="266.3346425553568" y2="210.73561792349307"/><line stroke-width="0.6666666666666666" stroke="#999999" x1="204.27770903379687" y1="283.76101448516636" x2="336.7977881026243" y2="322.82688884536753"/><line stroke-width="0.3333333333333333" stroke="#999999" x1="204.27770903379687" y1="283.76101448516636" x2="244.63781160131236" y2="328.2195331446462"/><line stroke-width="0.6666666666666666" stroke="#999999" x1="204.27770903379687" y1="283.76101448516636" x2="274.4503015369879" y2="333.0183328265853"/><line stroke-width="0.3333333333333333" stroke="#999999" x1="204.27770903379687" y1="283.76101448516636" x2="273.0634874663547" y2="272.5580744170316"/><line stroke-width="0.3333333333333333" stroke="#999999" x1="204.27770903379687" y1="283.76101448516636" x2="304.73515960682823" y2="300.34717574911576"/><line stroke-width="0.3333333333333333" stroke="#999999" x1="204.27770903379687" y1="283.76101448516636" x2="199.91908574270715" y2="314.02334525279724"/><line stroke-width="0.3333333333333333" stroke="#999999" x1="204.27770903379687" y1="283.76101448516636" x2="220.5502492385493" y2="246.00459377904664"/><line stroke-width="0.3333333333333333" stroke="#999999" x1="204.27770903379687" y1="283.76101448516636" x2="309.01852076473426" y2="256.43651688821546"/><line stroke-width="0.5397727272727272" stroke="#999999" x1="274.4503015369879" y1="333.0183328265853" x2="336.7977881026243" y2="322.82688884536753"/><line stroke-width="0.33522727272727265" stroke="#999999" x1="274.4503015369879" y1="333.0183328265853" x2="244.63781160131236" y2="328.2195331446462"/><line stroke-width="0.022727272727272728" stroke="#999999" x1="274.4503015369879" y1="333.0183328265853" x2="204.27770903379687" y2="283.76101448516636"/><line stroke-width="0.022727272727272728" stroke="#999999" x1="274.4503015369879" y1="333.0183328265853" x2="359.5454115779807" y2="198.84786175328495"/><line stroke-width="0.022727272727272728" stroke="#999999" x1="274.4503015369879" y1="333.0183328265853" x2="342.55515344592754" y2="389.10126732907554"/><line stroke-width="0.10795454545454546" stroke="#999999" x1="274.4503015369879" y1="333.0183328265853" x2="245.8259051638382" y2="283.6987267038435"/><line stroke-width="0.011363636363636364" stroke="#999999" x1="274.4503015369879" y1="333.0183328265853" x2="264.8346472935061" y2="393.09196028052054"/><line stroke-width="0.005681818181818182" stroke="#999999" x1="274.4503015369879" y1="333.0183328265853" x2="241.04849724630103" y2="383.55305612167456"/><line stroke-width="0.2727272727272727" stroke="#999999" x1="274.4503015369879" y1="333.0183328265853" x2="327.3562553623721" y2="276.4952320054232"/><line stroke-width="0.47159090909090906" stroke="#999999" x1="274.4503015369879" y1="333.0183328265853" x2="334.6286455464605" y2="196.1927986423638"/><line stroke-width="0.07386363636363637" stroke="#999999" x1="274.4503015369879" y1="333.0183328265853" x2="282.06318909304844" y2="290.9236055502364"/><line stroke-width="0.2727272727272727" stroke="#999999" x1="274.4503015369879" y1="333.0183328265853" x2="319.19068156289165" y2="223.8723092278558"/><line stroke-width="0.2727272727272727" stroke="#999999" x1="274.4503015369879" y1="333.0183328265853" x2="351.4551492065711" y2="275.501217685211"/><line stroke-width="0.3011363636363636" stroke="#999999" x1="274.4503015369879" y1="333.0183328265853" x2="368.6330422802896" y2="300.76008537137074"/><line stroke-width="0.28409090909090906" stroke="#999999" x1="274.4503015369879" y1="333.0183328265853" x2="273.0634874663547" y2="272.5580744170316"/><line stroke-width="0.022727272727272728" stroke="#999999" x1="274.4503015369879" y1="333.0183328265853" x2="304.2564367181245" y2="408.7670269964974"/><line stroke-width="0.22159090909090912" stroke="#999999" x1="274.4503015369879" y1="333.0183328265853" x2="304.73515960682823" y2="300.34717574911576"/><line stroke-width="0.011363636363636364" stroke="#999999" x1="274.4503015369879" y1="333.0183328265853" x2="199.91908574270715" y2="314.02334525279724"/><line stroke-width="0.2727272727272727" stroke="#999999" x1="274.4503015369879" y1="333.0183328265853" x2="395.4360857990435" y2="214.79362793915354"/><line stroke-width="0.005681818181818182" stroke="#999999" x1="274.4503015369879" y1="333.0183328265853" x2="407.5754729960454" y2="360.62966773907374"/><line stroke-width="0.34659090909090906" stroke="#999999" x1="274.4503015369879" y1="333.0183328265853" x2="393.80134462577115" y2="249.97206530703454"/><line stroke-width="0.005681818181818182" stroke="#999999" x1="274.4503015369879" y1="333.0183328265853" x2="353.1551557312435" y2="403.5311049161001"/><line stroke-width="0.2727272727272727" stroke="#999999" x1="274.4503015369879" y1="333.0183328265853" x2="307.9678686401515" y2="198.32806005538694"/><line stroke-width="0.28409090909090906" stroke="#999999" x1="274.4503015369879" y1="333.0183328265853" x2="420.25049484318464" y2="273.47196860117145"/><line stroke-width="0.08522727272727273" stroke="#999999" x1="274.4503015369879" y1="333.0183328265853" x2="220.5502492385493" y2="246.00459377904664"/><line stroke-width="0.5056818181818181" stroke="#999999" x1="274.4503015369879" y1="333.0183328265853" x2="309.01852076473426" y2="256.43651688821546"/><line stroke-width="0.2727272727272727" stroke="#999999" x1="274.4503015369879" y1="333.0183328265853" x2="383.2813554087486" y2="337.66264749395356"/><line stroke-width="0.4204545454545454" stroke="#999999" x1="274.4503015369879" y1="333.0183328265853" x2="287.54942001299537" y2="224.36561203495577"/><line stroke-width="0.34659090909090906" stroke="#999999" x1="274.4503015369879" y1="333.0183328265853" x2="380.4077812010228" y2="281.543486868364"/><line stroke-width="0.011363636363636364" stroke="#999999" x1="274.4503015369879" y1="333.0183328265853" x2="324.0619520543026" y2="346.11448532507933"/><line stroke-width="0.2954545454545454" stroke="#999999" x1="274.4503015369879" y1="333.0183328265853" x2="398.65555995466616" y2="310.3311559279021"/><line stroke-width="0.011363636363636364" stroke="#999999" x1="274.4503015369879" y1="333.0183328265853" x2="317.5510450950331" y2="379.0849513943843"/><line stroke-width="0.3011363636363636" stroke="#999999" x1="274.4503015369879" y1="333.0183328265853" x2="266.3346425553568" y2="210.73561792349307"/><line stroke-width="0.5" stroke="#999999" x1="359.5454115779807" y1="198.84786175328495" x2="274.4503015369879" y2="333.0183328265853"/><line stroke-width="1" stroke="#999999" x1="359.5454115779807" y1="198.84786175328495" x2="334.6286455464605" y2="196.1927986423638"/><line stroke-width="1" stroke="#999999" x1="359.5454115779807" y1="198.84786175328495" x2="309.01852076473426" y2="256.43651688821546"/><line stroke-width="1" stroke="#999999" x1="342.55515344592754" y1="389.10126732907554" x2="336.7977881026243" y2="322.82688884536753"/><line stroke-width="1" stroke="#999999" x1="342.55515344592754" y1="389.10126732907554" x2="274.4503015369879" y2="333.0183328265853"/><line stroke-width="1" stroke="#999999" x1="342.55515344592754" y1="389.10126732907554" x2="304.2564367181245" y2="408.7670269964974"/><line stroke-width="0.4" stroke="#999999" x1="245.8259051638382" y1="283.6987267038435" x2="336.7977881026243" y2="322.82688884536753"/><line stroke-width="0.2" stroke="#999999" x1="245.8259051638382" y1="283.6987267038435" x2="244.63781160131236" y2="328.2195331446462"/><line stroke-width="0.6000000000000001" stroke="#999999" x1="245.8259051638382" y1="283.6987267038435" x2="274.4503015369879" y2="333.0183328265853"/><line stroke-width="0.2" stroke="#999999" x1="245.8259051638382" y1="283.6987267038435" x2="334.6286455464605" y2="196.1927986423638"/><line stroke-width="0.6000000000000001" stroke="#999999" x1="245.8259051638382" y1="283.6987267038435" x2="304.73515960682823" y2="300.34717574911576"/><line stroke-width="0.2" stroke="#999999" x1="245.8259051638382" y1="283.6987267038435" x2="393.80134462577115" y2="249.97206530703454"/><line stroke-width="0.2" stroke="#999999" x1="245.8259051638382" y1="283.6987267038435" x2="220.5502492385493" y2="246.00459377904664"/><line stroke-width="0.4" stroke="#999999" x1="245.8259051638382" y1="283.6987267038435" x2="309.01852076473426" y2="256.43651688821546"/><line stroke-width="0.2" stroke="#999999" x1="245.8259051638382" y1="283.6987267038435" x2="287.54942001299537" y2="224.36561203495577"/><line stroke-width="0.2" stroke="#999999" x1="245.8259051638382" y1="283.6987267038435" x2="380.4077812010228" y2="281.543486868364"/><line stroke-width="0.2" stroke="#999999" x1="245.8259051638382" y1="283.6987267038435" x2="260.90277333090995" y2="241.11517925857183"/><line stroke-width="0.2" stroke="#999999" x1="245.8259051638382" y1="283.6987267038435" x2="266.3346425553568" y2="210.73561792349307"/><line stroke-width="1" stroke="#999999" x1="264.8346472935061" y1="393.09196028052054" x2="274.4503015369879" y2="333.0183328265853"/><line stroke-width="1" stroke="#999999" x1="241.04849724630103" y1="383.55305612167456" x2="274.4503015369879" y2="333.0183328265853"/><line stroke-width="1" stroke="#999999" x1="327.3562553623721" y1="276.4952320054232" x2="336.7977881026243" y2="322.82688884536753"/><line stroke-width="1" stroke="#999999" x1="327.3562553623721" y1="276.4952320054232" x2="244.63781160131236" y2="328.2195331446462"/><line stroke-width="1" stroke="#999999" x1="327.3562553623721" y1="276.4952320054232" x2="274.4503015369879" y2="333.0183328265853"/><line stroke-width="1" stroke="#999999" x1="327.3562553623721" y1="276.4952320054232" x2="334.6286455464605" y2="196.1927986423638"/><line stroke-width="1" stroke="#999999" x1="327.3562553623721" y1="276.4952320054232" x2="319.19068156289165" y2="223.8723092278558"/><line stroke-width="1" stroke="#999999" x1="327.3562553623721" y1="276.4952320054232" x2="351.4551492065711" y2="275.501217685211"/><line stroke-width="1" stroke="#999999" x1="327.3562553623721" y1="276.4952320054232" x2="368.6330422802896" y2="300.76008537137074"/><line stroke-width="1" stroke="#999999" x1="327.3562553623721" y1="276.4952320054232" x2="273.0634874663547" y2="272.5580744170316"/><line stroke-width="1" stroke="#999999" x1="327.3562553623721" y1="276.4952320054232" x2="395.4360857990435" y2="214.79362793915354"/><line stroke-width="1" stroke="#999999" x1="327.3562553623721" y1="276.4952320054232" x2="393.80134462577115" y2="249.97206530703454"/><line stroke-width="1" stroke="#999999" x1="327.3562553623721" y1="276.4952320054232" x2="307.9678686401515" y2="198.32806005538694"/><line stroke-width="1" stroke="#999999" x1="327.3562553623721" y1="276.4952320054232" x2="420.25049484318464" y2="273.47196860117145"/><line stroke-width="1" stroke="#999999" x1="327.3562553623721" y1="276.4952320054232" x2="309.01852076473426" y2="256.43651688821546"/><line stroke-width="1" stroke="#999999" x1="327.3562553623721" y1="276.4952320054232" x2="383.2813554087486" y2="337.66264749395356"/><line stroke-width="1" stroke="#999999" x1="327.3562553623721" y1="276.4952320054232" x2="287.54942001299537" y2="224.36561203495577"/><line stroke-width="1" stroke="#999999" x1="327.3562553623721" y1="276.4952320054232" x2="380.4077812010228" y2="281.543486868364"/><line stroke-width="1" stroke="#999999" x1="327.3562553623721" y1="276.4952320054232" x2="398.65555995466616" y2="310.3311559279021"/><line stroke-width="1" stroke="#999999" x1="327.3562553623721" y1="276.4952320054232" x2="266.3346425553568" y2="210.73561792349307"/><line stroke-width="0.49999999999999994" stroke="#999999" x1="334.6286455464605" y1="196.1927986423638" x2="336.7977881026243" y2="322.82688884536753"/><line stroke-width="0.21428571428571427" stroke="#999999" x1="334.6286455464605" y1="196.1927986423638" x2="244.63781160131236" y2="328.2195331446462"/><line stroke-width="0.7142857142857142" stroke="#999999" x1="334.6286455464605" y1="196.1927986423638" x2="274.4503015369879" y2="333.0183328265853"/><line stroke-width="0.2857142857142857" stroke="#999999" x1="334.6286455464605" y1="196.1927986423638" x2="359.5454115779807" y2="198.84786175328495"/><line stroke-width="0.14285714285714285" stroke="#999999" x1="334.6286455464605" y1="196.1927986423638" x2="245.8259051638382" y2="283.6987267038435"/><line stroke-width="0.21428571428571427" stroke="#999999" x1="334.6286455464605" y1="196.1927986423638" x2="327.3562553623721" y2="276.4952320054232"/><line stroke-width="0.21428571428571427" stroke="#999999" x1="334.6286455464605" y1="196.1927986423638" x2="319.19068156289165" y2="223.8723092278558"/><line stroke-width="0.21428571428571427" stroke="#999999" x1="334.6286455464605" y1="196.1927986423638" x2="351.4551492065711" y2="275.501217685211"/><line stroke-width="0.21428571428571427" stroke="#999999" x1="334.6286455464605" y1="196.1927986423638" x2="368.6330422802896" y2="300.76008537137074"/><line stroke-width="0.21428571428571427" stroke="#999999" x1="334.6286455464605" y1="196.1927986423638" x2="273.0634874663547" y2="272.5580744170316"/><line stroke-width="0.14285714285714285" stroke="#999999" x1="334.6286455464605" y1="196.1927986423638" x2="304.73515960682823" y2="300.34717574911576"/><line stroke-width="0.21428571428571427" stroke="#999999" x1="334.6286455464605" y1="196.1927986423638" x2="395.4360857990435" y2="214.79362793915354"/><line stroke-width="0.3571428571428571" stroke="#999999" x1="334.6286455464605" y1="196.1927986423638" x2="393.80134462577115" y2="249.97206530703454"/><line stroke-width="0.21428571428571427" stroke="#999999" x1="334.6286455464605" y1="196.1927986423638" x2="307.9678686401515" y2="198.32806005538694"/><line stroke-width="0.21428571428571427" stroke="#999999" x1="334.6286455464605" y1="196.1927986423638" x2="420.25049484318464" y2="273.47196860117145"/><line stroke-width="0.14285714285714285" stroke="#999999" x1="334.6286455464605" y1="196.1927986423638" x2="220.5502492385493" y2="246.00459377904664"/><line stroke-width="0.6428571428571428" stroke="#999999" x1="334.6286455464605" y1="196.1927986423638" x2="309.01852076473426" y2="256.43651688821546"/><line stroke-width="0.21428571428571427" stroke="#999999" x1="334.6286455464605" y1="196.1927986423638" x2="383.2813554087486" y2="337.66264749395356"/><line stroke-width="0.3571428571428571" stroke="#999999" x1="334.6286455464605" y1="196.1927986423638" x2="287.54942001299537" y2="224.36561203495577"/><line stroke-width="0.3571428571428571" stroke="#999999" x1="334.6286455464605" y1="196.1927986423638" x2="380.4077812010228" y2="281.543486868364"/><line stroke-width="0.21428571428571427" stroke="#999999" x1="334.6286455464605" y1="196.1927986423638" x2="398.65555995466616" y2="310.3311559279021"/><line stroke-width="0.21428571428571427" stroke="#999999" x1="334.6286455464605" y1="196.1927986423638" x2="266.3346425553568" y2="210.73561792349307"/><line stroke-width="1" stroke="#999999" x1="282.06318909304844" y1="290.9236055502364" x2="336.7977881026243" y2="322.82688884536753"/><line stroke-width="1" stroke="#999999" x1="282.06318909304844" y1="290.9236055502364" x2="274.4503015369879" y2="333.0183328265853"/><line stroke-width="1" stroke="#999999" x1="282.06318909304844" y1="290.9236055502364" x2="304.73515960682823" y2="300.34717574911576"/><line stroke-width="1" stroke="#999999" x1="282.06318909304844" y1="290.9236055502364" x2="309.01852076473426" y2="256.43651688821546"/><line stroke-width="1" stroke="#999999" x1="282.06318909304844" y1="290.9236055502364" x2="287.54942001299537" y2="224.36561203495577"/><line stroke-width="0.5" stroke="#999999" x1="319.19068156289165" y1="223.8723092278558" x2="336.7977881026243" y2="322.82688884536753"/><line stroke-width="0.5" stroke="#999999" x1="319.19068156289165" y1="223.8723092278558" x2="244.63781160131236" y2="328.2195331446462"/><line stroke-width="0.5" stroke="#999999" x1="319.19068156289165" y1="223.8723092278558" x2="274.4503015369879" y2="333.0183328265853"/><line stroke-width="0.5" stroke="#999999" x1="319.19068156289165" y1="223.8723092278558" x2="327.3562553623721" y2="276.4952320054232"/><line stroke-width="0.5" stroke="#999999" x1="319.19068156289165" y1="223.8723092278558" x2="334.6286455464605" y2="196.1927986423638"/><line stroke-width="0.5" stroke="#999999" x1="319.19068156289165" y1="223.8723092278558" x2="351.4551492065711" y2="275.501217685211"/><line stroke-width="0.5" stroke="#999999" x1="319.19068156289165" y1="223.8723092278558" x2="368.6330422802896" y2="300.76008537137074"/><line stroke-width="0.5" stroke="#999999" x1="319.19068156289165" y1="223.8723092278558" x2="273.0634874663547" y2="272.5580744170316"/><line stroke-width="0.5" stroke="#999999" x1="319.19068156289165" y1="223.8723092278558" x2="395.4360857990435" y2="214.79362793915354"/><line stroke-width="0.5" stroke="#999999" x1="319.19068156289165" y1="223.8723092278558" x2="393.80134462577115" y2="249.97206530703454"/><line stroke-width="0.5" stroke="#999999" x1="319.19068156289165" y1="223.8723092278558" x2="307.9678686401515" y2="198.32806005538694"/><line stroke-width="0.5" stroke="#999999" x1="319.19068156289165" y1="223.8723092278558" x2="420.25049484318464" y2="273.47196860117145"/><line stroke-width="0.5" stroke="#999999" x1="319.19068156289165" y1="223.8723092278558" x2="309.01852076473426" y2="256.43651688821546"/><line stroke-width="0.5" stroke="#999999" x1="319.19068156289165" y1="223.8723092278558" x2="383.2813554087486" y2="337.66264749395356"/><line stroke-width="0.5" stroke="#999999" x1="319.19068156289165" y1="223.8723092278558" x2="287.54942001299537" y2="224.36561203495577"/><line stroke-width="0.5" stroke="#999999" x1="319.19068156289165" y1="223.8723092278558" x2="380.4077812010228" y2="281.543486868364"/><line stroke-width="0.5" stroke="#999999" x1="319.19068156289165" y1="223.8723092278558" x2="398.65555995466616" y2="310.3311559279021"/><line stroke-width="0.5" stroke="#999999" x1="319.19068156289165" y1="223.8723092278558" x2="260.90277333090995" y2="241.11517925857183"/><line stroke-width="0.5" stroke="#999999" x1="319.19068156289165" y1="223.8723092278558" x2="266.3346425553568" y2="210.73561792349307"/><line stroke-width="1" stroke="#999999" x1="351.4551492065711" y1="275.501217685211" x2="336.7977881026243" y2="322.82688884536753"/><line stroke-width="1" stroke="#999999" x1="351.4551492065711" y1="275.501217685211" x2="244.63781160131236" y2="328.2195331446462"/><line stroke-width="1" stroke="#999999" x1="351.4551492065711" y1="275.501217685211" x2="274.4503015369879" y2="333.0183328265853"/><line stroke-width="1" stroke="#999999" x1="351.4551492065711" y1="275.501217685211" x2="327.3562553623721" y2="276.4952320054232"/><line stroke-width="1" stroke="#999999" x1="351.4551492065711" y1="275.501217685211" x2="334.6286455464605" y2="196.1927986423638"/><line stroke-width="1" stroke="#999999" x1="351.4551492065711" y1="275.501217685211" x2="319.19068156289165" y2="223.8723092278558"/><line stroke-width="1" stroke="#999999" x1="351.4551492065711" y1="275.501217685211" x2="368.6330422802896" y2="300.76008537137074"/><line stroke-width="1" stroke="#999999" x1="351.4551492065711" y1="275.501217685211" x2="273.0634874663547" y2="272.5580744170316"/><line stroke-width="1" stroke="#999999" x1="351.4551492065711" y1="275.501217685211" x2="395.4360857990435" y2="214.79362793915354"/><line stroke-width="1" stroke="#999999" x1="351.4551492065711" y1="275.501217685211" x2="393.80134462577115" y2="249.97206530703454"/><line stroke-width="1" stroke="#999999" x1="351.4551492065711" y1="275.501217685211" x2="307.9678686401515" y2="198.32806005538694"/><line stroke-width="1" stroke="#999999" x1="351.4551492065711" y1="275.501217685211" x2="420.25049484318464" y2="273.47196860117145"/><line stroke-width="1" stroke="#999999" x1="351.4551492065711" y1="275.501217685211" x2="309.01852076473426" y2="256.43651688821546"/><line stroke-width="1" stroke="#999999" x1="351.4551492065711" y1="275.501217685211" x2="383.2813554087486" y2="337.66264749395356"/><line stroke-width="1" stroke="#999999" x1="351.4551492065711" y1="275.501217685211" x2="287.54942001299537" y2="224.36561203495577"/><line stroke-width="1" stroke="#999999" x1="351.4551492065711" y1="275.501217685211" x2="380.4077812010228" y2="281.543486868364"/><line stroke-width="1" stroke="#999999" x1="351.4551492065711" y1="275.501217685211" x2="398.65555995466616" y2="310.3311559279021"/><line stroke-width="1" stroke="#999999" x1="351.4551492065711" y1="275.501217685211" x2="266.3346425553568" y2="210.73561792349307"/><line stroke-width="1" stroke="#999999" x1="304.9955479220278" y1="350.68188888149024" x2="336.7977881026243" y2="322.82688884536753"/><line stroke-width="0.5" stroke="#999999" x1="368.6330422802896" y1="300.76008537137074" x2="336.7977881026243" y2="322.82688884536753"/><line stroke-width="0.5" stroke="#999999" x1="368.6330422802896" y1="300.76008537137074" x2="244.63781160131236" y2="328.2195331446462"/><line stroke-width="1" stroke="#999999" x1="368.6330422802896" y1="300.76008537137074" x2="274.4503015369879" y2="333.0183328265853"/><line stroke-width="0.5" stroke="#999999" x1="368.6330422802896" y1="300.76008537137074" x2="327.3562553623721" y2="276.4952320054232"/><line stroke-width="0.5" stroke="#999999" x1="368.6330422802896" y1="300.76008537137074" x2="334.6286455464605" y2="196.1927986423638"/><line stroke-width="0.5" stroke="#999999" x1="368.6330422802896" y1="300.76008537137074" x2="319.19068156289165" y2="223.8723092278558"/><line stroke-width="0.5" stroke="#999999" x1="368.6330422802896" y1="300.76008537137074" x2="351.4551492065711" y2="275.501217685211"/><line stroke-width="0.5" stroke="#999999" x1="368.6330422802896" y1="300.76008537137074" x2="273.0634874663547" y2="272.5580744170316"/><line stroke-width="0.5" stroke="#999999" x1="368.6330422802896" y1="300.76008537137074" x2="304.73515960682823" y2="300.34717574911576"/><line stroke-width="0.5" stroke="#999999" x1="368.6330422802896" y1="300.76008537137074" x2="395.4360857990435" y2="214.79362793915354"/><line stroke-width="0.5" stroke="#999999" x1="368.6330422802896" y1="300.76008537137074" x2="393.80134462577115" y2="249.97206530703454"/><line stroke-width="0.5" stroke="#999999" x1="368.6330422802896" y1="300.76008537137074" x2="307.9678686401515" y2="198.32806005538694"/><line stroke-width="0.5" stroke="#999999" x1="368.6330422802896" y1="300.76008537137074" x2="420.25049484318464" y2="273.47196860117145"/><line stroke-width="0.5" stroke="#999999" x1="368.6330422802896" y1="300.76008537137074" x2="309.01852076473426" y2="256.43651688821546"/><line stroke-width="0.5" stroke="#999999" x1="368.6330422802896" y1="300.76008537137074" x2="383.2813554087486" y2="337.66264749395356"/><line stroke-width="0.5" stroke="#999999" x1="368.6330422802896" y1="300.76008537137074" x2="287.54942001299537" y2="224.36561203495577"/><line stroke-width="0.5" stroke="#999999" x1="368.6330422802896" y1="300.76008537137074" x2="380.4077812010228" y2="281.543486868364"/><line stroke-width="0.5" stroke="#999999" x1="368.6330422802896" y1="300.76008537137074" x2="398.65555995466616" y2="310.3311559279021"/><line stroke-width="0.5" stroke="#999999" x1="368.6330422802896" y1="300.76008537137074" x2="266.3346425553568" y2="210.73561792349307"/><line stroke-width="0.6666666666666666" stroke="#999999" x1="273.0634874663547" y1="272.5580744170316" x2="336.7977881026243" y2="322.82688884536753"/><line stroke-width="1" stroke="#999999" x1="273.0634874663547" y1="272.5580744170316" x2="244.63781160131236" y2="328.2195331446462"/><line stroke-width="0.3333333333333333" stroke="#999999" x1="273.0634874663547" y1="272.5580744170316" x2="204.27770903379687" y2="283.76101448516636"/><line stroke-width="1" stroke="#999999" x1="273.0634874663547" y1="272.5580744170316" x2="274.4503015369879" y2="333.0183328265853"/><line stroke-width="0.6666666666666666" stroke="#999999" x1="273.0634874663547" y1="272.5580744170316" x2="327.3562553623721" y2="276.4952320054232"/><line stroke-width="0.6666666666666666" stroke="#999999" x1="273.0634874663547" y1="272.5580744170316" x2="334.6286455464605" y2="196.1927986423638"/><line stroke-width="0.6666666666666666" stroke="#999999" x1="273.0634874663547" y1="272.5580744170316" x2="319.19068156289165" y2="223.8723092278558"/><line stroke-width="0.6666666666666666" stroke="#999999" x1="273.0634874663547" y1="272.5580744170316" x2="351.4551492065711" y2="275.501217685211"/><line stroke-width="0.6666666666666666" stroke="#999999" x1="273.0634874663547" y1="272.5580744170316" x2="368.6330422802896" y2="300.76008537137074"/><line stroke-width="0.3333333333333333" stroke="#999999" x1="273.0634874663547" y1="272.5580744170316" x2="199.91908574270715" y2="314.02334525279724"/><line stroke-width="0.6666666666666666" stroke="#999999" x1="273.0634874663547" y1="272.5580744170316" x2="395.4360857990435" y2="214.79362793915354"/><line stroke-width="0.6666666666666666" stroke="#999999" x1="273.0634874663547" y1="272.5580744170316" x2="393.80134462577115" y2="249.97206530703454"/><line stroke-width="0.6666666666666666" stroke="#999999" x1="273.0634874663547" y1="272.5580744170316" x2="307.9678686401515" y2="198.32806005538694"/><line stroke-width="0.6666666666666666" stroke="#999999" x1="273.0634874663547" y1="272.5580744170316" x2="420.25049484318464" y2="273.47196860117145"/><line stroke-width="0.3333333333333333" stroke="#999999" x1="273.0634874663547" y1="272.5580744170316" x2="220.5502492385493" y2="246.00459377904664"/><line stroke-width="1" stroke="#999999" x1="273.0634874663547" y1="272.5580744170316" x2="309.01852076473426" y2="256.43651688821546"/><line stroke-width="0.6666666666666666" stroke="#999999" x1="273.0634874663547" y1="272.5580744170316" x2="383.2813554087486" y2="337.66264749395356"/><line stroke-width="0.6666666666666666" stroke="#999999" x1="273.0634874663547" y1="272.5580744170316" x2="287.54942001299537" y2="224.36561203495577"/><line stroke-width="0.6666666666666666" stroke="#999999" x1="273.0634874663547" y1="272.5580744170316" x2="380.4077812010228" y2="281.543486868364"/><line stroke-width="0.6666666666666666" stroke="#999999" x1="273.0634874663547" y1="272.5580744170316" x2="398.65555995466616" y2="310.3311559279021"/><line stroke-width="0.6666666666666666" stroke="#999999" x1="273.0634874663547" y1="272.5580744170316" x2="266.3346425553568" y2="210.73561792349307"/><line stroke-width="1" stroke="#999999" x1="416.55338593080916" y1="394.1800195885068" x2="407.5754729960454" y2="360.62966773907374"/><line stroke-width="1" stroke="#999999" x1="416.55338593080916" y1="394.1800195885068" x2="383.2813554087486" y2="337.66264749395356"/><line stroke-width="1" stroke="#999999" x1="304.2564367181245" y1="408.7670269964974" x2="336.7977881026243" y2="322.82688884536753"/><line stroke-width="1" stroke="#999999" x1="304.2564367181245" y1="408.7670269964974" x2="274.4503015369879" y2="333.0183328265853"/><line stroke-width="1" stroke="#999999" x1="304.2564367181245" y1="408.7670269964974" x2="342.55515344592754" y2="389.10126732907554"/><line stroke-width="0.6000000000000001" stroke="#999999" x1="304.73515960682823" y1="300.34717574911576" x2="336.7977881026243" y2="322.82688884536753"/><line stroke-width="0.1" stroke="#999999" x1="304.73515960682823" y1="300.34717574911576" x2="244.63781160131236" y2="328.2195331446462"/><line stroke-width="0.1" stroke="#999999" x1="304.73515960682823" y1="300.34717574911576" x2="204.27770903379687" y2="283.76101448516636"/><line stroke-width="0.7" stroke="#999999" x1="304.73515960682823" y1="300.34717574911576" x2="274.4503015369879" y2="333.0183328265853"/><line stroke-width="0.4" stroke="#999999" x1="304.73515960682823" y1="300.34717574911576" x2="245.8259051638382" y2="283.6987267038435"/><line stroke-width="0.2" stroke="#999999" x1="304.73515960682823" y1="300.34717574911576" x2="334.6286455464605" y2="196.1927986423638"/><line stroke-width="0.1" stroke="#999999" x1="304.73515960682823" y1="300.34717574911576" x2="282.06318909304844" y2="290.9236055502364"/><line stroke-width="0.1" stroke="#999999" x1="304.73515960682823" y1="300.34717574911576" x2="368.6330422802896" y2="300.76008537137074"/><line stroke-width="0.30000000000000004" stroke="#999999" x1="304.73515960682823" y1="300.34717574911576" x2="393.80134462577115" y2="249.97206530703454"/><line stroke-width="0.2" stroke="#999999" x1="304.73515960682823" y1="300.34717574911576" x2="220.5502492385493" y2="246.00459377904664"/><line stroke-width="0.4" stroke="#999999" x1="304.73515960682823" y1="300.34717574911576" x2="309.01852076473426" y2="256.43651688821546"/><line stroke-width="0.30000000000000004" stroke="#999999" x1="304.73515960682823" y1="300.34717574911576" x2="287.54942001299537" y2="224.36561203495577"/><line stroke-width="0.2" stroke="#999999" x1="304.73515960682823" y1="300.34717574911576" x2="380.4077812010228" y2="281.543486868364"/><line stroke-width="0.1" stroke="#999999" x1="304.73515960682823" y1="300.34717574911576" x2="266.3346425553568" y2="210.73561792349307"/><line stroke-width="1" stroke="#999999" x1="199.91908574270715" y1="314.02334525279724" x2="244.63781160131236" y2="328.2195331446462"/><line stroke-width="1" stroke="#999999" x1="199.91908574270715" y1="314.02334525279724" x2="204.27770903379687" y2="283.76101448516636"/><line stroke-width="1" stroke="#999999" x1="199.91908574270715" y1="314.02334525279724" x2="274.4503015369879" y2="333.0183328265853"/><line stroke-width="1" stroke="#999999" x1="199.91908574270715" y1="314.02334525279724" x2="273.0634874663547" y2="272.5580744170316"/><line stroke-width="1" stroke="#999999" x1="199.91908574270715" y1="314.02334525279724" x2="220.5502492385493" y2="246.00459377904664"/><line stroke-width="1" stroke="#999999" x1="199.91908574270715" y1="314.02334525279724" x2="309.01852076473426" y2="256.43651688821546"/><line stroke-width="1" stroke="#999999" x1="395.4360857990435" y1="214.79362793915354" x2="336.7977881026243" y2="322.82688884536753"/><line stroke-width="0.3333333333333333" stroke="#999999" x1="395.4360857990435" y1="214.79362793915354" x2="244.63781160131236" y2="328.2195331446462"/><line stroke-width="0.3333333333333333" stroke="#999999" x1="395.4360857990435" y1="214.79362793915354" x2="274.4503015369879" y2="333.0183328265853"/><line stroke-width="0.3333333333333333" stroke="#999999" x1="395.4360857990435" y1="214.79362793915354" x2="327.3562553623721" y2="276.4952320054232"/><line stroke-width="0.3333333333333333" stroke="#999999" x1="395.4360857990435" y1="214.79362793915354" x2="334.6286455464605" y2="196.1927986423638"/><line stroke-width="0.3333333333333333" stroke="#999999" x1="395.4360857990435" y1="214.79362793915354" x2="319.19068156289165" y2="223.8723092278558"/><line stroke-width="0.3333333333333333" stroke="#999999" x1="395.4360857990435" y1="214.79362793915354" x2="351.4551492065711" y2="275.501217685211"/><line stroke-width="0.3333333333333333" stroke="#999999" x1="395.4360857990435" y1="214.79362793915354" x2="368.6330422802896" y2="300.76008537137074"/><line stroke-width="0.3333333333333333" stroke="#999999" x1="395.4360857990435" y1="214.79362793915354" x2="273.0634874663547" y2="272.5580744170316"/><line stroke-width="0.3333333333333333" stroke="#999999" x1="395.4360857990435" y1="214.79362793915354" x2="407.5754729960454" y2="360.62966773907374"/><line stroke-width="0.3333333333333333" stroke="#999999" x1="395.4360857990435" y1="214.79362793915354" x2="374.44344175228247" y2="251.50821662353104"/><line stroke-width="0.3333333333333333" stroke="#999999" x1="395.4360857990435" y1="214.79362793915354" x2="393.80134462577115" y2="249.97206530703454"/><line stroke-width="0.3333333333333333" stroke="#999999" x1="395.4360857990435" y1="214.79362793915354" x2="307.9678686401515" y2="198.32806005538694"/><line stroke-width="0.3333333333333333" stroke="#999999" x1="395.4360857990435" y1="214.79362793915354" x2="420.25049484318464" y2="273.47196860117145"/><line stroke-width="0.6666666666666666" stroke="#999999" x1="395.4360857990435" y1="214.79362793915354" x2="309.01852076473426" y2="256.43651688821546"/><line stroke-width="0.3333333333333333" stroke="#999999" x1="395.4360857990435" y1="214.79362793915354" x2="383.2813554087486" y2="337.66264749395356"/><line stroke-width="0.3333333333333333" stroke="#999999" x1="395.4360857990435" y1="214.79362793915354" x2="287.54942001299537" y2="224.36561203495577"/><line stroke-width="0.3333333333333333" stroke="#999999" x1="395.4360857990435" y1="214.79362793915354" x2="380.4077812010228" y2="281.543486868364"/><line stroke-width="0.3333333333333333" stroke="#999999" x1="395.4360857990435" y1="214.79362793915354" x2="398.65555995466616" y2="310.3311559279021"/><line stroke-width="0.3333333333333333" stroke="#999999" x1="395.4360857990435" y1="214.79362793915354" x2="266.3346425553568" y2="210.73561792349307"/><line stroke-width="0.3333333333333333" stroke="#999999" x1="407.5754729960454" y1="360.62966773907374" x2="336.7977881026243" y2="322.82688884536753"/><line stroke-width="0.3333333333333333" stroke="#999999" x1="407.5754729960454" y1="360.62966773907374" x2="274.4503015369879" y2="333.0183328265853"/><line stroke-width="0.3333333333333333" stroke="#999999" x1="407.5754729960454" y1="360.62966773907374" x2="416.55338593080916" y2="394.1800195885068"/><line stroke-width="0.3333333333333333" stroke="#999999" x1="407.5754729960454" y1="360.62966773907374" x2="395.4360857990435" y2="214.79362793915354"/><line stroke-width="0.3333333333333333" stroke="#999999" x1="407.5754729960454" y1="360.62966773907374" x2="353.1551557312435" y2="403.5311049161001"/><line stroke-width="0.3333333333333333" stroke="#999999" x1="407.5754729960454" y1="360.62966773907374" x2="309.01852076473426" y2="256.43651688821546"/><line stroke-width="0.3333333333333333" stroke="#999999" x1="407.5754729960454" y1="360.62966773907374" x2="383.2813554087486" y2="337.66264749395356"/><line stroke-width="1" stroke="#999999" x1="374.44344175228247" y1="251.50821662353104" x2="336.7977881026243" y2="322.82688884536753"/><line stroke-width="1" stroke="#999999" x1="374.44344175228247" y1="251.50821662353104" x2="395.4360857990435" y2="214.79362793915354"/><line stroke-width="0.75" stroke="#999999" x1="393.80134462577115" y1="249.97206530703454" x2="336.7977881026243" y2="322.82688884536753"/><line stroke-width="0.25" stroke="#999999" x1="393.80134462577115" y1="249.97206530703454" x2="244.63781160131236" y2="328.2195331446462"/><line stroke-width="0.5" stroke="#999999" x1="393.80134462577115" y1="249.97206530703454" x2="274.4503015369879" y2="333.0183328265853"/><line stroke-width="0.25" stroke="#999999" x1="393.80134462577115" y1="249.97206530703454" x2="245.8259051638382" y2="283.6987267038435"/><line stroke-width="0.25" stroke="#999999" x1="393.80134462577115" y1="249.97206530703454" x2="327.3562553623721" y2="276.4952320054232"/><line stroke-width="0.5" stroke="#999999" x1="393.80134462577115" y1="249.97206530703454" x2="334.6286455464605" y2="196.1927986423638"/><line stroke-width="0.25" stroke="#999999" x1="393.80134462577115" y1="249.97206530703454" x2="319.19068156289165" y2="223.8723092278558"/><line stroke-width="0.25" stroke="#999999" x1="393.80134462577115" y1="249.97206530703454" x2="351.4551492065711" y2="275.501217685211"/><line stroke-width="0.25" stroke="#999999" x1="393.80134462577115" y1="249.97206530703454" x2="368.6330422802896" y2="300.76008537137074"/><line stroke-width="0.25" stroke="#999999" x1="393.80134462577115" y1="249.97206530703454" x2="273.0634874663547" y2="272.5580744170316"/><line stroke-width="0.5" stroke="#999999" x1="393.80134462577115" y1="249.97206530703454" x2="304.73515960682823" y2="300.34717574911576"/><line stroke-width="0.25" stroke="#999999" x1="393.80134462577115" y1="249.97206530703454" x2="395.4360857990435" y2="214.79362793915354"/><line stroke-width="0.25" stroke="#999999" x1="393.80134462577115" y1="249.97206530703454" x2="307.9678686401515" y2="198.32806005538694"/><line stroke-width="0.25" stroke="#999999" x1="393.80134462577115" y1="249.97206530703454" x2="420.25049484318464" y2="273.47196860117145"/><line stroke-width="0.25" stroke="#999999" x1="393.80134462577115" y1="249.97206530703454" x2="220.5502492385493" y2="246.00459377904664"/><line stroke-width="0.5" stroke="#999999" x1="393.80134462577115" y1="249.97206530703454" x2="309.01852076473426" y2="256.43651688821546"/><line stroke-width="0.25" stroke="#999999" x1="393.80134462577115" y1="249.97206530703454" x2="383.2813554087486" y2="337.66264749395356"/><line stroke-width="0.5" stroke="#999999" x1="393.80134462577115" y1="249.97206530703454" x2="287.54942001299537" y2="224.36561203495577"/><line stroke-width="0.5" stroke="#999999" x1="393.80134462577115" y1="249.97206530703454" x2="380.4077812010228" y2="281.543486868364"/><line stroke-width="0.25" stroke="#999999" x1="393.80134462577115" y1="249.97206530703454" x2="398.65555995466616" y2="310.3311559279021"/><line stroke-width="0.25" stroke="#999999" x1="393.80134462577115" y1="249.97206530703454" x2="266.3346425553568" y2="210.73561792349307"/><line stroke-width="0.2" stroke="#999999" x1="353.1551557312435" y1="403.5311049161001" x2="336.7977881026243" y2="322.82688884536753"/><line stroke-width="0.6" stroke="#999999" x1="353.1551557312435" y1="403.5311049161001" x2="274.4503015369879" y2="333.0183328265853"/><line stroke-width="0.6" stroke="#999999" x1="353.1551557312435" y1="403.5311049161001" x2="407.5754729960454" y2="360.62966773907374"/><line stroke-width="0.3333333333333333" stroke="#999999" x1="307.9678686401515" y1="198.32806005538694" x2="336.7977881026243" y2="322.82688884536753"/><line stroke-width="0.3333333333333333" stroke="#999999" x1="307.9678686401515" y1="198.32806005538694" x2="244.63781160131236" y2="328.2195331446462"/><line stroke-width="0.3333333333333333" stroke="#999999" x1="307.9678686401515" y1="198.32806005538694" x2="274.4503015369879" y2="333.0183328265853"/><line stroke-width="0.3333333333333333" stroke="#999999" x1="307.9678686401515" y1="198.32806005538694" x2="327.3562553623721" y2="276.4952320054232"/><line stroke-width="0.3333333333333333" stroke="#999999" x1="307.9678686401515" y1="198.32806005538694" x2="334.6286455464605" y2="196.1927986423638"/><line stroke-width="0.3333333333333333" stroke="#999999" x1="307.9678686401515" y1="198.32806005538694" x2="319.19068156289165" y2="223.8723092278558"/><line stroke-width="0.3333333333333333" stroke="#999999" x1="307.9678686401515" y1="198.32806005538694" x2="351.4551492065711" y2="275.501217685211"/><line stroke-width="0.3333333333333333" stroke="#999999" x1="307.9678686401515" y1="198.32806005538694" x2="368.6330422802896" y2="300.76008537137074"/><line stroke-width="0.3333333333333333" stroke="#999999" x1="307.9678686401515" y1="198.32806005538694" x2="273.0634874663547" y2="272.5580744170316"/><line stroke-width="0.3333333333333333" stroke="#999999" x1="307.9678686401515" y1="198.32806005538694" x2="395.4360857990435" y2="214.79362793915354"/><line stroke-width="0.3333333333333333" stroke="#999999" x1="307.9678686401515" y1="198.32806005538694" x2="393.80134462577115" y2="249.97206530703454"/><line stroke-width="0.3333333333333333" stroke="#999999" x1="307.9678686401515" y1="198.32806005538694" x2="420.25049484318464" y2="273.47196860117145"/><line stroke-width="0.3333333333333333" stroke="#999999" x1="307.9678686401515" y1="198.32806005538694" x2="309.01852076473426" y2="256.43651688821546"/><line stroke-width="0.3333333333333333" stroke="#999999" x1="307.9678686401515" y1="198.32806005538694" x2="383.2813554087486" y2="337.66264749395356"/><line stroke-width="0.3333333333333333" stroke="#999999" x1="307.9678686401515" y1="198.32806005538694" x2="287.54942001299537" y2="224.36561203495577"/><line stroke-width="0.3333333333333333" stroke="#999999" x1="307.9678686401515" y1="198.32806005538694" x2="380.4077812010228" y2="281.543486868364"/><line stroke-width="0.3333333333333333" stroke="#999999" x1="307.9678686401515" y1="198.32806005538694" x2="398.65555995466616" y2="310.3311559279021"/><line stroke-width="0.3333333333333333" stroke="#999999" x1="307.9678686401515" y1="198.32806005538694" x2="266.3346425553568" y2="210.73561792349307"/><line stroke-width="0.16666666666666666" stroke="#999999" x1="420.25049484318464" y1="273.47196860117145" x2="336.7977881026243" y2="322.82688884536753"/><line stroke-width="0.16666666666666666" stroke="#999999" x1="420.25049484318464" y1="273.47196860117145" x2="244.63781160131236" y2="328.2195331446462"/><line stroke-width="0.3333333333333333" stroke="#999999" x1="420.25049484318464" y1="273.47196860117145" x2="274.4503015369879" y2="333.0183328265853"/><line stroke-width="0.16666666666666666" stroke="#999999" x1="420.25049484318464" y1="273.47196860117145" x2="327.3562553623721" y2="276.4952320054232"/><line stroke-width="0.16666666666666666" stroke="#999999" x1="420.25049484318464" y1="273.47196860117145" x2="334.6286455464605" y2="196.1927986423638"/><line stroke-width="0.16666666666666666" stroke="#999999" x1="420.25049484318464" y1="273.47196860117145" x2="319.19068156289165" y2="223.8723092278558"/><line stroke-width="0.16666666666666666" stroke="#999999" x1="420.25049484318464" y1="273.47196860117145" x2="351.4551492065711" y2="275.501217685211"/><line stroke-width="0.16666666666666666" stroke="#999999" x1="420.25049484318464" y1="273.47196860117145" x2="368.6330422802896" y2="300.76008537137074"/><line stroke-width="0.16666666666666666" stroke="#999999" x1="420.25049484318464" y1="273.47196860117145" x2="273.0634874663547" y2="272.5580744170316"/><line stroke-width="0.16666666666666666" stroke="#999999" x1="420.25049484318464" y1="273.47196860117145" x2="395.4360857990435" y2="214.79362793915354"/><line stroke-width="0.16666666666666666" stroke="#999999" x1="420.25049484318464" y1="273.47196860117145" x2="393.80134462577115" y2="249.97206530703454"/><line stroke-width="0.16666666666666666" stroke="#999999" x1="420.25049484318464" y1="273.47196860117145" x2="307.9678686401515" y2="198.32806005538694"/><line stroke-width="0.16666666666666666" stroke="#999999" x1="420.25049484318464" y1="273.47196860117145" x2="309.01852076473426" y2="256.43651688821546"/><line stroke-width="0.16666666666666666" stroke="#999999" x1="420.25049484318464" y1="273.47196860117145" x2="383.2813554087486" y2="337.66264749395356"/><line stroke-width="0.16666666666666666" stroke="#999999" x1="420.25049484318464" y1="273.47196860117145" x2="287.54942001299537" y2="224.36561203495577"/><line stroke-width="0.16666666666666666" stroke="#999999" x1="420.25049484318464" y1="273.47196860117145" x2="380.4077812010228" y2="281.543486868364"/><line stroke-width="0.16666666666666666" stroke="#999999" x1="420.25049484318464" y1="273.47196860117145" x2="398.65555995466616" y2="310.3311559279021"/><line stroke-width="0.16666666666666666" stroke="#999999" x1="420.25049484318464" y1="273.47196860117145" x2="266.3346425553568" y2="210.73561792349307"/><line stroke-width="0.5" stroke="#999999" x1="220.5502492385493" y1="246.00459377904664" x2="336.7977881026243" y2="322.82688884536753"/><line stroke-width="0.5" stroke="#999999" x1="220.5502492385493" y1="246.00459377904664" x2="244.63781160131236" y2="328.2195331446462"/><line stroke-width="0.5" stroke="#999999" x1="220.5502492385493" y1="246.00459377904664" x2="204.27770903379687" y2="283.76101448516636"/><line stroke-width="1" stroke="#999999" x1="220.5502492385493" y1="246.00459377904664" x2="274.4503015369879" y2="333.0183328265853"/><line stroke-width="0.5" stroke="#999999" x1="220.5502492385493" y1="246.00459377904664" x2="245.8259051638382" y2="283.6987267038435"/><line stroke-width="0.5" stroke="#999999" x1="220.5502492385493" y1="246.00459377904664" x2="334.6286455464605" y2="196.1927986423638"/><line stroke-width="0.5" stroke="#999999" x1="220.5502492385493" y1="246.00459377904664" x2="273.0634874663547" y2="272.5580744170316"/><line stroke-width="0.5" stroke="#999999" x1="220.5502492385493" y1="246.00459377904664" x2="304.73515960682823" y2="300.34717574911576"/><line stroke-width="0.5" stroke="#999999" x1="220.5502492385493" y1="246.00459377904664" x2="199.91908574270715" y2="314.02334525279724"/><line stroke-width="0.5" stroke="#999999" x1="220.5502492385493" y1="246.00459377904664" x2="393.80134462577115" y2="249.97206530703454"/><line stroke-width="1" stroke="#999999" x1="220.5502492385493" y1="246.00459377904664" x2="309.01852076473426" y2="256.43651688821546"/><line stroke-width="0.5" stroke="#999999" x1="220.5502492385493" y1="246.00459377904664" x2="287.54942001299537" y2="224.36561203495577"/><line stroke-width="0.5" stroke="#999999" x1="220.5502492385493" y1="246.00459377904664" x2="380.4077812010228" y2="281.543486868364"/><line stroke-width="0.5789473684210527" stroke="#999999" x1="309.01852076473426" y1="256.43651688821546" x2="336.7977881026243" y2="322.82688884536753"/><line stroke-width="0.15789473684210525" stroke="#999999" x1="309.01852076473426" y1="256.43651688821546" x2="244.63781160131236" y2="328.2195331446462"/><line stroke-width="0.05263157894736842" stroke="#999999" x1="309.01852076473426" y1="256.43651688821546" x2="204.27770903379687" y2="283.76101448516636"/><line stroke-width="0.631578947368421" stroke="#999999" x1="309.01852076473426" y1="256.43651688821546" x2="274.4503015369879" y2="333.0183328265853"/><line stroke-width="0.2631578947368421" stroke="#999999" x1="309.01852076473426" y1="256.43651688821546" x2="359.5454115779807" y2="198.84786175328495"/><line stroke-width="0.15789473684210525" stroke="#999999" x1="309.01852076473426" y1="256.43651688821546" x2="245.8259051638382" y2="283.6987267038435"/><line stroke-width="0.05263157894736842" stroke="#999999" x1="309.01852076473426" y1="256.43651688821546" x2="327.3562553623721" y2="276.4952320054232"/><line stroke-width="0.42105263157894735" stroke="#999999" x1="309.01852076473426" y1="256.43651688821546" x2="334.6286455464605" y2="196.1927986423638"/><line stroke-width="0.15789473684210525" stroke="#999999" x1="309.01852076473426" y1="256.43651688821546" x2="282.06318909304844" y2="290.9236055502364"/><line stroke-width="0.05263157894736842" stroke="#999999" x1="309.01852076473426" y1="256.43651688821546" x2="319.19068156289165" y2="223.8723092278558"/><line stroke-width="0.05263157894736842" stroke="#999999" x1="309.01852076473426" y1="256.43651688821546" x2="351.4551492065711" y2="275.501217685211"/><line stroke-width="0.05263157894736842" stroke="#999999" x1="309.01852076473426" y1="256.43651688821546" x2="368.6330422802896" y2="300.76008537137074"/><line stroke-width="0.10526315789473684" stroke="#999999" x1="309.01852076473426" y1="256.43651688821546" x2="273.0634874663547" y2="272.5580744170316"/><line stroke-width="0.3157894736842105" stroke="#999999" x1="309.01852076473426" y1="256.43651688821546" x2="304.73515960682823" y2="300.34717574911576"/><line stroke-width="0.05263157894736842" stroke="#999999" x1="309.01852076473426" y1="256.43651688821546" x2="199.91908574270715" y2="314.02334525279724"/><line stroke-width="0.10526315789473684" stroke="#999999" x1="309.01852076473426" y1="256.43651688821546" x2="395.4360857990435" y2="214.79362793915354"/><line stroke-width="0.05263157894736842" stroke="#999999" x1="309.01852076473426" y1="256.43651688821546" x2="407.5754729960454" y2="360.62966773907374"/><line stroke-width="0.15789473684210525" stroke="#999999" x1="309.01852076473426" y1="256.43651688821546" x2="393.80134462577115" y2="249.97206530703454"/><line stroke-width="0.05263157894736842" stroke="#999999" x1="309.01852076473426" y1="256.43651688821546" x2="307.9678686401515" y2="198.32806005538694"/><line stroke-width="0.05263157894736842" stroke="#999999" x1="309.01852076473426" y1="256.43651688821546" x2="420.25049484318464" y2="273.47196860117145"/><line stroke-width="0.15789473684210525" stroke="#999999" x1="309.01852076473426" y1="256.43651688821546" x2="220.5502492385493" y2="246.00459377904664"/><line stroke-width="0.05263157894736842" stroke="#999999" x1="309.01852076473426" y1="256.43651688821546" x2="383.2813554087486" y2="337.66264749395356"/><line stroke-width="0.3157894736842105" stroke="#999999" x1="309.01852076473426" y1="256.43651688821546" x2="287.54942001299537" y2="224.36561203495577"/><line stroke-width="0.15789473684210525" stroke="#999999" x1="309.01852076473426" y1="256.43651688821546" x2="380.4077812010228" y2="281.543486868364"/><line stroke-width="0.05263157894736842" stroke="#999999" x1="309.01852076473426" y1="256.43651688821546" x2="324.0619520543026" y2="346.11448532507933"/><line stroke-width="0.05263157894736842" stroke="#999999" x1="309.01852076473426" y1="256.43651688821546" x2="398.65555995466616" y2="310.3311559279021"/><line stroke-width="0.10526315789473684" stroke="#999999" x1="309.01852076473426" y1="256.43651688821546" x2="266.3346425553568" y2="210.73561792349307"/><line stroke-width="0.4" stroke="#999999" x1="383.2813554087486" y1="337.66264749395356" x2="336.7977881026243" y2="322.82688884536753"/><line stroke-width="0.2" stroke="#999999" x1="383.2813554087486" y1="337.66264749395356" x2="244.63781160131236" y2="328.2195331446462"/><line stroke-width="0.2" stroke="#999999" x1="383.2813554087486" y1="337.66264749395356" x2="274.4503015369879" y2="333.0183328265853"/><line stroke-width="0.2" stroke="#999999" x1="383.2813554087486" y1="337.66264749395356" x2="327.3562553623721" y2="276.4952320054232"/><line stroke-width="0.2" stroke="#999999" x1="383.2813554087486" y1="337.66264749395356" x2="334.6286455464605" y2="196.1927986423638"/><line stroke-width="0.2" stroke="#999999" x1="383.2813554087486" y1="337.66264749395356" x2="319.19068156289165" y2="223.8723092278558"/><line stroke-width="0.2" stroke="#999999" x1="383.2813554087486" y1="337.66264749395356" x2="351.4551492065711" y2="275.501217685211"/><line stroke-width="0.2" stroke="#999999" x1="383.2813554087486" y1="337.66264749395356" x2="368.6330422802896" y2="300.76008537137074"/><line stroke-width="0.2" stroke="#999999" x1="383.2813554087486" y1="337.66264749395356" x2="273.0634874663547" y2="272.5580744170316"/><line stroke-width="0.2" stroke="#999999" x1="383.2813554087486" y1="337.66264749395356" x2="416.55338593080916" y2="394.1800195885068"/><line stroke-width="0.2" stroke="#999999" x1="383.2813554087486" y1="337.66264749395356" x2="395.4360857990435" y2="214.79362793915354"/><line stroke-width="0.2" stroke="#999999" x1="383.2813554087486" y1="337.66264749395356" x2="407.5754729960454" y2="360.62966773907374"/><line stroke-width="0.2" stroke="#999999" x1="383.2813554087486" y1="337.66264749395356" x2="393.80134462577115" y2="249.97206530703454"/><line stroke-width="0.2" stroke="#999999" x1="383.2813554087486" y1="337.66264749395356" x2="307.9678686401515" y2="198.32806005538694"/><line stroke-width="0.2" stroke="#999999" x1="383.2813554087486" y1="337.66264749395356" x2="420.25049484318464" y2="273.47196860117145"/><line stroke-width="0.2" stroke="#999999" x1="383.2813554087486" y1="337.66264749395356" x2="309.01852076473426" y2="256.43651688821546"/><line stroke-width="0.2" stroke="#999999" x1="383.2813554087486" y1="337.66264749395356" x2="287.54942001299537" y2="224.36561203495577"/><line stroke-width="0.2" stroke="#999999" x1="383.2813554087486" y1="337.66264749395356" x2="380.4077812010228" y2="281.543486868364"/><line stroke-width="0.2" stroke="#999999" x1="383.2813554087486" y1="337.66264749395356" x2="398.65555995466616" y2="310.3311559279021"/><line stroke-width="0.1" stroke="#999999" x1="383.2813554087486" y1="337.66264749395356" x2="317.5510450950331" y2="379.0849513943843"/><line stroke-width="0.2" stroke="#999999" x1="383.2813554087486" y1="337.66264749395356" x2="266.3346425553568" y2="210.73561792349307"/><line stroke-width="1" stroke="#999999" x1="287.54942001299537" y1="224.36561203495577" x2="336.7977881026243" y2="322.82688884536753"/><line stroke-width="0.3333333333333333" stroke="#999999" x1="287.54942001299537" y1="224.36561203495577" x2="244.63781160131236" y2="328.2195331446462"/><line stroke-width="1" stroke="#999999" x1="287.54942001299537" y1="224.36561203495577" x2="274.4503015369879" y2="333.0183328265853"/><line stroke-width="0.3333333333333333" stroke="#999999" x1="287.54942001299537" y1="224.36561203495577" x2="245.8259051638382" y2="283.6987267038435"/><line stroke-width="0.3333333333333333" stroke="#999999" x1="287.54942001299537" y1="224.36561203495577" x2="327.3562553623721" y2="276.4952320054232"/><line stroke-width="0.6666666666666666" stroke="#999999" x1="287.54942001299537" y1="224.36561203495577" x2="334.6286455464605" y2="196.1927986423638"/><line stroke-width="0.3333333333333333" stroke="#999999" x1="287.54942001299537" y1="224.36561203495577" x2="282.06318909304844" y2="290.9236055502364"/><line stroke-width="0.3333333333333333" stroke="#999999" x1="287.54942001299537" y1="224.36561203495577" x2="319.19068156289165" y2="223.8723092278558"/><line stroke-width="0.3333333333333333" stroke="#999999" x1="287.54942001299537" y1="224.36561203495577" x2="351.4551492065711" y2="275.501217685211"/><line stroke-width="0.3333333333333333" stroke="#999999" x1="287.54942001299537" y1="224.36561203495577" x2="368.6330422802896" y2="300.76008537137074"/><line stroke-width="0.3333333333333333" stroke="#999999" x1="287.54942001299537" y1="224.36561203495577" x2="273.0634874663547" y2="272.5580744170316"/><line stroke-width="0.6666666666666666" stroke="#999999" x1="287.54942001299537" y1="224.36561203495577" x2="304.73515960682823" y2="300.34717574911576"/><line stroke-width="0.3333333333333333" stroke="#999999" x1="287.54942001299537" y1="224.36561203495577" x2="395.4360857990435" y2="214.79362793915354"/><line stroke-width="0.6666666666666666" stroke="#999999" x1="287.54942001299537" y1="224.36561203495577" x2="393.80134462577115" y2="249.97206530703454"/><line stroke-width="0.3333333333333333" stroke="#999999" x1="287.54942001299537" y1="224.36561203495577" x2="307.9678686401515" y2="198.32806005538694"/><line stroke-width="0.3333333333333333" stroke="#999999" x1="287.54942001299537" y1="224.36561203495577" x2="420.25049484318464" y2="273.47196860117145"/><line stroke-width="0.3333333333333333" stroke="#999999" x1="287.54942001299537" y1="224.36561203495577" x2="220.5502492385493" y2="246.00459377904664"/><line stroke-width="1" stroke="#999999" x1="287.54942001299537" y1="224.36561203495577" x2="309.01852076473426" y2="256.43651688821546"/><line stroke-width="0.3333333333333333" stroke="#999999" x1="287.54942001299537" y1="224.36561203495577" x2="383.2813554087486" y2="337.66264749395356"/><line stroke-width="0.6666666666666666" stroke="#999999" x1="287.54942001299537" y1="224.36561203495577" x2="380.4077812010228" y2="281.543486868364"/><line stroke-width="0.3333333333333333" stroke="#999999" x1="287.54942001299537" y1="224.36561203495577" x2="398.65555995466616" y2="310.3311559279021"/><line stroke-width="0.3333333333333333" stroke="#999999" x1="287.54942001299537" y1="224.36561203495577" x2="266.3346425553568" y2="210.73561792349307"/><line stroke-width="1" stroke="#999999" x1="380.4077812010228" y1="281.543486868364" x2="336.7977881026243" y2="322.82688884536753"/><line stroke-width="0.3333333333333333" stroke="#999999" x1="380.4077812010228" y1="281.543486868364" x2="244.63781160131236" y2="328.2195331446462"/><line stroke-width="0.6666666666666666" stroke="#999999" x1="380.4077812010228" y1="281.543486868364" x2="274.4503015369879" y2="333.0183328265853"/><line stroke-width="0.3333333333333333" stroke="#999999" x1="380.4077812010228" y1="281.543486868364" x2="245.8259051638382" y2="283.6987267038435"/><line stroke-width="0.3333333333333333" stroke="#999999" x1="380.4077812010228" y1="281.543486868364" x2="327.3562553623721" y2="276.4952320054232"/><line stroke-width="0.6666666666666666" stroke="#999999" x1="380.4077812010228" y1="281.543486868364" x2="334.6286455464605" y2="196.1927986423638"/><line stroke-width="0.3333333333333333" stroke="#999999" x1="380.4077812010228" y1="281.543486868364" x2="319.19068156289165" y2="223.8723092278558"/><line stroke-width="0.3333333333333333" stroke="#999999" x1="380.4077812010228" y1="281.543486868364" x2="351.4551492065711" y2="275.501217685211"/><line stroke-width="0.3333333333333333" stroke="#999999" x1="380.4077812010228" y1="281.543486868364" x2="368.6330422802896" y2="300.76008537137074"/><line stroke-width="0.3333333333333333" stroke="#999999" x1="380.4077812010228" y1="281.543486868364" x2="273.0634874663547" y2="272.5580744170316"/><line stroke-width="0.3333333333333333" stroke="#999999" x1="380.4077812010228" y1="281.543486868364" x2="304.73515960682823" y2="300.34717574911576"/><line stroke-width="0.3333333333333333" stroke="#999999" x1="380.4077812010228" y1="281.543486868364" x2="395.4360857990435" y2="214.79362793915354"/><line stroke-width="0.6666666666666666" stroke="#999999" x1="380.4077812010228" y1="281.543486868364" x2="393.80134462577115" y2="249.97206530703454"/><line stroke-width="0.3333333333333333" stroke="#999999" x1="380.4077812010228" y1="281.543486868364" x2="307.9678686401515" y2="198.32806005538694"/><line stroke-width="0.3333333333333333" stroke="#999999" x1="380.4077812010228" y1="281.543486868364" x2="420.25049484318464" y2="273.47196860117145"/><line stroke-width="0.3333333333333333" stroke="#999999" x1="380.4077812010228" y1="281.543486868364" x2="220.5502492385493" y2="246.00459377904664"/><line stroke-width="0.6666666666666666" stroke="#999999" x1="380.4077812010228" y1="281.543486868364" x2="309.01852076473426" y2="256.43651688821546"/><line stroke-width="0.3333333333333333" stroke="#999999" x1="380.4077812010228" y1="281.543486868364" x2="383.2813554087486" y2="337.66264749395356"/><line stroke-width="0.6666666666666666" stroke="#999999" x1="380.4077812010228" y1="281.543486868364" x2="287.54942001299537" y2="224.36561203495577"/><line stroke-width="0.3333333333333333" stroke="#999999" x1="380.4077812010228" y1="281.543486868364" x2="324.0619520543026" y2="346.11448532507933"/><line stroke-width="0.3333333333333333" stroke="#999999" x1="380.4077812010228" y1="281.543486868364" x2="398.65555995466616" y2="310.3311559279021"/><line stroke-width="0.3333333333333333" stroke="#999999" x1="380.4077812010228" y1="281.543486868364" x2="266.3346425553568" y2="210.73561792349307"/><line stroke-width="1" stroke="#999999" x1="324.0619520543026" y1="346.11448532507933" x2="336.7977881026243" y2="322.82688884536753"/><line stroke-width="0.3333333333333333" stroke="#999999" x1="324.0619520543026" y1="346.11448532507933" x2="244.63781160131236" y2="328.2195331446462"/><line stroke-width="0.3333333333333333" stroke="#999999" x1="324.0619520543026" y1="346.11448532507933" x2="274.4503015369879" y2="333.0183328265853"/><line stroke-width="0.3333333333333333" stroke="#999999" x1="324.0619520543026" y1="346.11448532507933" x2="309.01852076473426" y2="256.43651688821546"/><line stroke-width="0.3333333333333333" stroke="#999999" x1="324.0619520543026" y1="346.11448532507933" x2="380.4077812010228" y2="281.543486868364"/><line stroke-width="1" stroke="#999999" x1="398.65555995466616" y1="310.3311559279021" x2="336.7977881026243" y2="322.82688884536753"/><line stroke-width="0.5" stroke="#999999" x1="398.65555995466616" y1="310.3311559279021" x2="244.63781160131236" y2="328.2195331446462"/><line stroke-width="1" stroke="#999999" x1="398.65555995466616" y1="310.3311559279021" x2="274.4503015369879" y2="333.0183328265853"/><line stroke-width="0.5" stroke="#999999" x1="398.65555995466616" y1="310.3311559279021" x2="327.3562553623721" y2="276.4952320054232"/><line stroke-width="0.5" stroke="#999999" x1="398.65555995466616" y1="310.3311559279021" x2="334.6286455464605" y2="196.1927986423638"/><line stroke-width="0.5" stroke="#999999" x1="398.65555995466616" y1="310.3311559279021" x2="319.19068156289165" y2="223.8723092278558"/><line stroke-width="0.5" stroke="#999999" x1="398.65555995466616" y1="310.3311559279021" x2="351.4551492065711" y2="275.501217685211"/><line stroke-width="0.5" stroke="#999999" x1="398.65555995466616" y1="310.3311559279021" x2="368.6330422802896" y2="300.76008537137074"/><line stroke-width="0.5" stroke="#999999" x1="398.65555995466616" y1="310.3311559279021" x2="273.0634874663547" y2="272.5580744170316"/><line stroke-width="0.5" stroke="#999999" x1="398.65555995466616" y1="310.3311559279021" x2="395.4360857990435" y2="214.79362793915354"/><line stroke-width="0.5" stroke="#999999" x1="398.65555995466616" y1="310.3311559279021" x2="393.80134462577115" y2="249.97206530703454"/><line stroke-width="0.5" stroke="#999999" x1="398.65555995466616" y1="310.3311559279021" x2="307.9678686401515" y2="198.32806005538694"/><line stroke-width="0.5" stroke="#999999" x1="398.65555995466616" y1="310.3311559279021" x2="420.25049484318464" y2="273.47196860117145"/><line stroke-width="0.5" stroke="#999999" x1="398.65555995466616" y1="310.3311559279021" x2="309.01852076473426" y2="256.43651688821546"/><line stroke-width="0.5" stroke="#999999" x1="398.65555995466616" y1="310.3311559279021" x2="383.2813554087486" y2="337.66264749395356"/><line stroke-width="0.5" stroke="#999999" x1="398.65555995466616" y1="310.3311559279021" x2="287.54942001299537" y2="224.36561203495577"/><line stroke-width="0.5" stroke="#999999" x1="398.65555995466616" y1="310.3311559279021" x2="380.4077812010228" y2="281.543486868364"/><line stroke-width="0.5" stroke="#999999" x1="398.65555995466616" y1="310.3311559279021" x2="266.3346425553568" y2="210.73561792349307"/><line stroke-width="1" stroke="#999999" x1="207.11926118530954" y1="364.89644291736204" x2="244.63781160131236" y2="328.2195331446462"/><line stroke-width="0.16666666666666666" stroke="#999999" x1="260.90277333090995" y1="241.11517925857183" x2="336.7977881026243" y2="322.82688884536753"/><line stroke-width="0.16666666666666666" stroke="#999999" x1="260.90277333090995" y1="241.11517925857183" x2="245.8259051638382" y2="283.6987267038435"/><line stroke-width="0.16666666666666666" stroke="#999999" x1="260.90277333090995" y1="241.11517925857183" x2="319.19068156289165" y2="223.8723092278558"/><line stroke-width="0.3076923076923077" stroke="#999999" x1="317.5510450950331" y1="379.0849513943843" x2="336.7977881026243" y2="322.82688884536753"/><line stroke-width="0.07692307692307693" stroke="#999999" x1="317.5510450950331" y1="379.0849513943843" x2="274.4503015369879" y2="333.0183328265853"/><line stroke-width="0.07692307692307693" stroke="#999999" x1="317.5510450950331" y1="379.0849513943843" x2="383.2813554087486" y2="337.66264749395356"/><line stroke-width="0.75" stroke="#999999" x1="266.3346425553568" y1="210.73561792349307" x2="336.7977881026243" y2="322.82688884536753"/><line stroke-width="0.5" stroke="#999999" x1="266.3346425553568" y1="210.73561792349307" x2="244.63781160131236" y2="328.2195331446462"/><line stroke-width="0.5" stroke="#999999" x1="266.3346425553568" y1="210.73561792349307" x2="274.4503015369879" y2="333.0183328265853"/><line stroke-width="0.25" stroke="#999999" x1="266.3346425553568" y1="210.73561792349307" x2="245.8259051638382" y2="283.6987267038435"/><line stroke-width="0.25" stroke="#999999" x1="266.3346425553568" y1="210.73561792349307" x2="327.3562553623721" y2="276.4952320054232"/><line stroke-width="0.25" stroke="#999999" x1="266.3346425553568" y1="210.73561792349307" x2="334.6286455464605" y2="196.1927986423638"/><line stroke-width="0.25" stroke="#999999" x1="266.3346425553568" y1="210.73561792349307" x2="319.19068156289165" y2="223.8723092278558"/><line stroke-width="0.25" stroke="#999999" x1="266.3346425553568" y1="210.73561792349307" x2="351.4551492065711" y2="275.501217685211"/><line stroke-width="0.25" stroke="#999999" x1="266.3346425553568" y1="210.73561792349307" x2="368.6330422802896" y2="300.76008537137074"/><line stroke-width="0.25" stroke="#999999" x1="266.3346425553568" y1="210.73561792349307" x2="273.0634874663547" y2="272.5580744170316"/><line stroke-width="0.25" stroke="#999999" x1="266.3346425553568" y1="210.73561792349307" x2="304.73515960682823" y2="300.34717574911576"/><line stroke-width="0.25" stroke="#999999" x1="266.3346425553568" y1="210.73561792349307" x2="395.4360857990435" y2="214.79362793915354"/><line stroke-width="0.25" stroke="#999999" x1="266.3346425553568" y1="210.73561792349307" x2="393.80134462577115" y2="249.97206530703454"/><line stroke-width="0.25" stroke="#999999" x1="266.3346425553568" y1="210.73561792349307" x2="307.9678686401515" y2="198.32806005538694"/><line stroke-width="0.25" stroke="#999999" x1="266.3346425553568" y1="210.73561792349307" x2="420.25049484318464" y2="273.47196860117145"/><line stroke-width="0.5" stroke="#999999" x1="266.3346425553568" y1="210.73561792349307" x2="309.01852076473426" y2="256.43651688821546"/><line stroke-width="0.25" stroke="#999999" x1="266.3346425553568" y1="210.73561792349307" x2="383.2813554087486" y2="337.66264749395356"/><line stroke-width="0.25" stroke="#999999" x1="266.3346425553568" y1="210.73561792349307" x2="287.54942001299537" y2="224.36561203495577"/><line stroke-width="0.25" stroke="#999999" x1="266.3346425553568" y1="210.73561792349307" x2="380.4077812010228" y2="281.543486868364"/><line stroke-width="0.25" stroke="#999999" x1="266.3346425553568" y1="210.73561792349307" x2="398.65555995466616" y2="310.3311559279021"/></g><g class="nodes_prWOLfCO"><g><circle id="n_74" r="5" fill="#99ccff" cx="336.7977881026243" cy="322.82688884536753"><title>n_74</title></circle><text x="0" y="-7" id="n_74" class="label_prWOLfCO" transform="translate(336.7977881026243,322.82688884536753)" cx="336.7977881026243" cy="322.82688884536753">n_74</text></g><g><circle id="n_157" r="5" fill="#99ccff" cx="244.63781160131236" cy="328.2195331446462"><title>n_157</title></circle><text x="0" y="-7" id="n_157" class="label_prWOLfCO" transform="translate(244.63781160131236,328.2195331446462)" cx="244.63781160131236" cy="328.2195331446462">n_157</text></g><g><circle id="n_147" r="5" fill="#99ccff" cx="204.27770903379687" cy="283.76101448516636"><title>n_147</title></circle><text x="0" y="-7" id="n_147" class="label_prWOLfCO" transform="translate(204.27770903379687,283.76101448516636)" cx="204.27770903379687" cy="283.76101448516636">n_147</text></g><g><circle id="n_87" r="5" fill="#99ccff" cx="274.4503015369879" cy="333.0183328265853"><title>n_87</title></circle><text x="0" y="-7" id="n_87" class="label_prWOLfCO" transform="translate(274.4503015369879,333.0183328265853)" cx="274.4503015369879" cy="333.0183328265853">n_87</text></g><g><circle id="n_100" r="5" fill="#99ccff" cx="359.5454115779807" cy="198.84786175328495"><title>n_100</title></circle><text x="0" y="-7" id="n_100" class="label_prWOLfCO" transform="translate(359.5454115779807,198.84786175328495)" cx="359.5454115779807" cy="198.84786175328495">n_100</text></g><g><circle id="n_208" r="5" fill="#99ccff" cx="342.55515344592754" cy="389.10126732907554"><title>n_208</title></circle><text x="0" y="-7" id="n_208" class="label_prWOLfCO" transform="translate(342.55515344592754,389.10126732907554)" cx="342.55515344592754" cy="389.10126732907554">n_208</text></g><g><circle id="n_7" r="5" fill="#99ccff" cx="245.8259051638382" cy="283.6987267038435"><title>n_7</title></circle><text x="0" y="-7" id="n_7" class="label_prWOLfCO" transform="translate(245.8259051638382,283.6987267038435)" cx="245.8259051638382" cy="283.6987267038435">n_7</text></g><g><circle id="n_209" r="5" fill="#99ccff" cx="264.8346472935061" cy="393.09196028052054"><title>n_209</title></circle><text x="0" y="-7" id="n_209" class="label_prWOLfCO" transform="translate(264.8346472935061,393.09196028052054)" cx="264.8346472935061" cy="393.09196028052054">n_209</text></g><g><circle id="n_127" r="5" fill="#99ccff" cx="241.04849724630103" cy="383.55305612167456"><title>n_127</title></circle><text x="0" y="-7" id="n_127" class="label_prWOLfCO" transform="translate(241.04849724630103,383.55305612167456)" cx="241.04849724630103" cy="383.55305612167456">n_127</text></g><g><circle id="n_210" r="5" fill="#99ccff" cx="327.3562553623721" cy="276.4952320054232"><title>n_210</title></circle><text x="0" y="-7" id="n_210" class="label_prWOLfCO" transform="translate(327.3562553623721,276.4952320054232)" cx="327.3562553623721" cy="276.4952320054232">n_210</text></g><g><circle id="n_183" r="5" fill="#99ccff" cx="334.6286455464605" cy="196.1927986423638"><title>n_183</title></circle><text x="0" y="-7" id="n_183" class="label_prWOLfCO" transform="translate(334.6286455464605,196.1927986423638)" cx="334.6286455464605" cy="196.1927986423638">n_183</text></g><g><circle id="n_211" r="5" fill="#99ccff" cx="282.06318909304844" cy="290.9236055502364"><title>n_211</title></circle><text x="0" y="-7" id="n_211" class="label_prWOLfCO" transform="translate(282.06318909304844,290.9236055502364)" cx="282.06318909304844" cy="290.9236055502364">n_211</text></g><g><circle id="n_212" r="5" fill="#99ccff" cx="319.19068156289165" cy="223.8723092278558"><title>n_212</title></circle><text x="0" y="-7" id="n_212" class="label_prWOLfCO" transform="translate(319.19068156289165,223.8723092278558)" cx="319.19068156289165" cy="223.8723092278558">n_212</text></g><g><circle id="n_207" r="5" fill="#99ccff" cx="351.4551492065711" cy="275.501217685211"><title>n_207</title></circle><text x="0" y="-7" id="n_207" class="label_prWOLfCO" transform="translate(351.4551492065711,275.501217685211)" cx="351.4551492065711" cy="275.501217685211">n_207</text></g><g><circle id="n_213" r="5" fill="#99ccff" cx="48.555815254870495" cy="661.9924948816553"><title>n_213</title></circle><text x="0" y="-7" id="n_213" class="label_prWOLfCO" transform="translate(48.555815254870495,661.9924948816553)" cx="48.555815254870495" cy="661.9924948816553">n_213</text></g><g><circle id="n_203" r="5" fill="#99ccff" cx="304.9955479220278" cy="350.68188888149024"><title>n_203</title></circle><text x="0" y="-7" id="n_203" class="label_prWOLfCO" transform="translate(304.9955479220278,350.68188888149024)" cx="304.9955479220278" cy="350.68188888149024">n_203</text></g><g><circle id="n_166" r="5" fill="#99ccff" cx="368.6330422802896" cy="300.76008537137074"><title>n_166</title></circle><text x="0" y="-7" id="n_166" class="label_prWOLfCO" transform="translate(368.6330422802896,300.76008537137074)" cx="368.6330422802896" cy="300.76008537137074">n_166</text></g><g><circle id="n_136" r="5" fill="#99ccff" cx="273.0634874663547" cy="272.5580744170316"><title>n_136</title></circle><text x="0" y="-7" id="n_136" class="label_prWOLfCO" transform="translate(273.0634874663547,272.5580744170316)" cx="273.0634874663547" cy="272.5580744170316">n_136</text></g><g><circle id="n_215" r="5" fill="#99ccff" cx="416.55338593080916" cy="394.1800195885068"><title>n_215</title></circle><text x="0" y="-7" id="n_215" class="label_prWOLfCO" transform="translate(416.55338593080916,394.1800195885068)" cx="416.55338593080916" cy="394.1800195885068">n_215</text></g><g><circle id="n_216" r="5" fill="#99ccff" cx="304.2564367181245" cy="408.7670269964974"><title>n_216</title></circle><text x="0" y="-7" id="n_216" class="label_prWOLfCO" transform="translate(304.2564367181245,408.7670269964974)" cx="304.2564367181245" cy="408.7670269964974">n_216</text></g><g><circle id="n_217" r="5" fill="#99ccff" cx="1.6109246549300467" cy="175.97704045793412"><title>n_217</title></circle><text x="0" y="-7" id="n_217" class="label_prWOLfCO" transform="translate(1.6109246549300467,175.97704045793412)" cx="1.6109246549300467" cy="175.97704045793412">n_217</text></g><g><circle id="n_38" r="5" fill="#99ccff" cx="304.73515960682823" cy="300.34717574911576"><title>n_38</title></circle><text x="0" y="-7" id="n_38" class="label_prWOLfCO" transform="translate(304.73515960682823,300.34717574911576)" cx="304.73515960682823" cy="300.34717574911576">n_38</text></g><g><circle id="n_219" r="5" fill="#99ccff" cx="199.91908574270715" cy="314.02334525279724"><title>n_219</title></circle><text x="0" y="-7" id="n_219" class="label_prWOLfCO" transform="translate(199.91908574270715,314.02334525279724)" cx="199.91908574270715" cy="314.02334525279724">n_219</text></g><g><circle id="n_222" r="5" fill="#99ccff" cx="395.4360857990435" cy="214.79362793915354"><title>n_222</title></circle><text x="0" y="-7" id="n_222" class="label_prWOLfCO" transform="translate(395.4360857990435,214.79362793915354)" cx="395.4360857990435" cy="214.79362793915354">n_222</text></g><g><circle id="n_223" r="5" fill="#99ccff" cx="407.5754729960454" cy="360.62966773907374"><title>n_223</title></circle><text x="0" y="-7" id="n_223" class="label_prWOLfCO" transform="translate(407.5754729960454,360.62966773907374)" cx="407.5754729960454" cy="360.62966773907374">n_223</text></g><g><circle id="n_224" r="5" fill="#99ccff" cx="374.44344175228247" cy="251.50821662353104"><title>n_224</title></circle><text x="0" y="-7" id="n_224" class="label_prWOLfCO" transform="translate(374.44344175228247,251.50821662353104)" cx="374.44344175228247" cy="251.50821662353104">n_224</text></g><g><circle id="n_201" r="5" fill="#99ccff" cx="393.80134462577115" cy="249.97206530703454"><title>n_201</title></circle><text x="0" y="-7" id="n_201" class="label_prWOLfCO" transform="translate(393.80134462577115,249.97206530703454)" cx="393.80134462577115" cy="249.97206530703454">n_201</text></g><g><circle id="n_186" r="5" fill="#99ccff" cx="353.1551557312435" cy="403.5311049161001"><title>n_186</title></circle><text x="0" y="-7" id="n_186" class="label_prWOLfCO" transform="translate(353.1551557312435,403.5311049161001)" cx="353.1551557312435" cy="403.5311049161001">n_186</text></g><g><circle id="n_225" r="5" fill="#99ccff" cx="307.9678686401515" cy="198.32806005538694"><title>n_225</title></circle><text x="0" y="-7" id="n_225" class="label_prWOLfCO" transform="translate(307.9678686401515,198.32806005538694)" cx="307.9678686401515" cy="198.32806005538694">n_225</text></g><g><circle id="n_57" r="5" fill="#99ccff" cx="420.25049484318464" cy="273.47196860117145"><title>n_57</title></circle><text x="0" y="-7" id="n_57" class="label_prWOLfCO" transform="translate(420.25049484318464,273.47196860117145)" cx="420.25049484318464" cy="273.47196860117145">n_57</text></g><g><circle id="n_226" r="5" fill="#99ccff" cx="220.5502492385493" cy="246.00459377904664"><title>n_226</title></circle><text x="0" y="-7" id="n_226" class="label_prWOLfCO" transform="translate(220.5502492385493,246.00459377904664)" cx="220.5502492385493" cy="246.00459377904664">n_226</text></g><g><circle id="n_104" r="5" fill="#99ccff" cx="309.01852076473426" cy="256.43651688821546"><title>n_104</title></circle><text x="0" y="-7" id="n_104" class="label_prWOLfCO" transform="translate(309.01852076473426,256.43651688821546)" cx="309.01852076473426" cy="256.43651688821546">n_104</text></g><g><circle id="n_122" r="5" fill="#99ccff" cx="383.2813554087486" cy="337.66264749395356"><title>n_122</title></circle><text x="0" y="-7" id="n_122" class="label_prWOLfCO" transform="translate(383.2813554087486,337.66264749395356)" cx="383.2813554087486" cy="337.66264749395356">n_122</text></g><g><circle id="n_227" r="5" fill="#99ccff" cx="287.54942001299537" cy="224.36561203495577"><title>n_227</title></circle><text x="0" y="-7" id="n_227" class="label_prWOLfCO" transform="translate(287.54942001299537,224.36561203495577)" cx="287.54942001299537" cy="224.36561203495577">n_227</text></g><g><circle id="n_228" r="5" fill="#99ccff" cx="380.4077812010228" cy="281.543486868364"><title>n_228</title></circle><text x="0" y="-7" id="n_228" class="label_prWOLfCO" transform="translate(380.4077812010228,281.543486868364)" cx="380.4077812010228" cy="281.543486868364">n_228</text></g><g><circle id="n_176" r="5" fill="#99ccff" cx="324.0619520543026" cy="346.11448532507933"><title>n_176</title></circle><text x="0" y="-7" id="n_176" class="label_prWOLfCO" transform="translate(324.0619520543026,346.11448532507933)" cx="324.0619520543026" cy="346.11448532507933">n_176</text></g><g><circle id="n_130" r="5" fill="#99ccff" cx="248.49963385391604" cy="18.49003410335983"><title>n_130</title></circle><text x="0" y="-7" id="n_130" class="label_prWOLfCO" transform="translate(248.49963385391604,18.49003410335983)" cx="248.49963385391604" cy="18.49003410335983">n_130</text></g><g><circle id="n_229" r="5" fill="#99ccff" cx="398.65555995466616" cy="310.3311559279021"><title>n_229</title></circle><text x="0" y="-7" id="n_229" class="label_prWOLfCO" transform="translate(398.65555995466616,310.3311559279021)" cx="398.65555995466616" cy="310.3311559279021">n_229</text></g><g><circle id="n_124" r="5" fill="#99ccff" cx="207.11926118530954" cy="364.89644291736204"><title>n_124</title></circle><text x="0" y="-7" id="n_124" class="label_prWOLfCO" transform="translate(207.11926118530954,364.89644291736204)" cx="207.11926118530954" cy="364.89644291736204">n_124</text></g><g><circle id="n_230" r="5" fill="#99ccff" cx="260.90277333090995" cy="241.11517925857183"><title>n_230</title></circle><text x="0" y="-7" id="n_230" class="label_prWOLfCO" transform="translate(260.90277333090995,241.11517925857183)" cx="260.90277333090995" cy="241.11517925857183">n_230</text></g><g><circle id="n_117" r="5" fill="#99ccff" cx="317.5510450950331" cy="379.0849513943843"><title>n_117</title></circle><text x="0" y="-7" id="n_117" class="label_prWOLfCO" transform="translate(317.5510450950331,379.0849513943843)" cx="317.5510450950331" cy="379.0849513943843">n_117</text></g><g><circle id="n_238" r="5" fill="#99ccff" cx="266.3346425553568" cy="210.73561792349307"><title>n_238</title></circle><text x="0" y="-7" id="n_238" class="label_prWOLfCO" transform="translate(266.3346425553568,210.73561792349307)" cx="266.3346425553568" cy="210.73561792349307">n_238</text></g></g></g></svg>