<svg xmlns="http://www.w3.org/2000/svg" width="600" height="600" id="kxCwmUOv">        
    <text x="20" y="20" font-family="sans-serif" font-size="14px" fill="#666" style="cursor: pointer" id="kxCwmUOv_svg_txt">[save svg]</text>
<defs><marker id="end" viewBox="0 -5 20 20" refX="34" refY="0" markerWidth="15" markerHeight="15" orient="auto"><path d="M0,-5 L20,0 L0,5 z" fill="#999" stroke="none"/></marker></defs><g class="everything" transform="translate(6,57.99999237060547) scale(1)"><g class="links_kxCwmUOv"><line stroke-width="0.6551724137931034" stroke="#999999" x1="356.8110910413426" y1="374.0654301671893" x2="308.91793028140495" y2="333.41964185698396"/><line stroke-width="0.24137931034482757" stroke="#999999" x1="356.8110910413426" y1="374.0654301671893" x2="314.03220995141373" y2="389.66906035906396"/><line stroke-width="0.20689655172413793" stroke="#999999" x1="356.8110910413426" y1="374.0654301671893" x2="368.3931436966724" y2="330.2441601968709"/><line stroke-width="1" stroke="#999999" x1="249.0853542475223" y1="332.54156314432623" x2="250.29281734747443" y2="290.0845080764354"/><line stroke-width="1" stroke="#999999" x1="249.0853542475223" y1="332.54156314432623" x2="308.91793028140495" y2="333.41964185698396"/><line stroke-width="0.3333333333333333" stroke="#999999" x1="250.29281734747443" y1="290.0845080764354" x2="249.0853542475223" y2="332.54156314432623"/><line stroke-width="0.6666666666666666" stroke="#999999" x1="250.29281734747443" y1="290.0845080764354" x2="308.91793028140495" y2="333.41964185698396"/><line stroke-width="0.38461538461538464" stroke="#999999" x1="308.91793028140495" y1="333.41964185698396" x2="356.8110910413426" y2="374.0654301671893"/><line stroke-width="0.02564102564102564" stroke="#999999" x1="308.91793028140495" y1="333.41964185698396" x2="249.0853542475223" y2="332.54156314432623"/><line stroke-width="0.05128205128205128" stroke="#999999" x1="308.91793028140495" y1="333.41964185698396" x2="250.29281734747443" y2="290.0845080764354"/><line stroke-width="0.05128205128205128" stroke="#999999" x1="308.91793028140495" y1="333.41964185698396" x2="301.02567817249695" y2="287.42882722616014"/><line stroke-width="0.02564102564102564" stroke="#999999" x1="308.91793028140495" y1="333.41964185698396" x2="337.4403895597945" y2="292.16922231054446"/><line stroke-width="0.10256410256410256" stroke="#999999" x1="308.91793028140495" y1="333.41964185698396" x2="314.03220995141373" y2="389.66906035906396"/><line stroke-width="0.2564102564102564" stroke="#999999" x1="308.91793028140495" y1="333.41964185698396" x2="368.3931436966724" y2="330.2441601968709"/><line stroke-width="0.5" stroke="#999999" x1="301.02567817249695" y1="287.42882722616014" x2="308.91793028140495" y2="333.41964185698396"/><line stroke-width="1" stroke="#999999" x1="337.4403895597945" y1="292.16922231054446" x2="308.91793028140495" y2="333.41964185698396"/><line stroke-width="0.5" stroke="#999999" x1="314.03220995141373" y1="389.66906035906396" x2="356.8110910413426" y2="374.0654301671893"/><line stroke-width="0.5" stroke="#999999" x1="314.03220995141373" y1="389.66906035906396" x2="308.91793028140495" y2="333.41964185698396"/><line stroke-width="1" stroke="#999999" x1="368.3931436966724" y1="330.2441601968709" x2="356.8110910413426" y2="374.0654301671893"/><line stroke-width="1" stroke="#999999" x1="368.3931436966724" y1="330.2441601968709" x2="308.91793028140495" y2="333.41964185698396"/></g><g class="nodes_kxCwmUOv"><g><circle id="n_74" r="5" fill="#99ccff" cx="356.8110910413426" cy="374.0654301671893"><title>n_74</title></circle><text x="0" y="-7" id="n_74" class="label_kxCwmUOv" transform="translate(356.8110910413426,374.0654301671893)" cx="356.8110910413426" cy="374.0654301671893">n_74</text></g><g><circle id="n_157" r="5" fill="#99ccff" cx="249.0853542475223" cy="332.54156314432623"><title>n_157</title></circle><text x="0" y="-7" id="n_157" class="label_kxCwmUOv" transform="translate(249.0853542475223,332.54156314432623)" cx="249.0853542475223" cy="332.54156314432623">n_157</text></g><g><circle id="n_147" r="5" fill="#99ccff" cx="250.29281734747443" cy="290.0845080764354"><title>n_147</title></circle><text x="0" y="-7" id="n_147" class="label_kxCwmUOv" transform="translate(250.29281734747443,290.0845080764354)" cx="250.29281734747443" cy="290.0845080764354">n_147</text></g><g><circle id="n_87" r="5" fill="#99ccff" cx="308.91793028140495" cy="333.41964185698396"><title>n_87</title></circle><text x="0" y="-7" id="n_87" class="label_kxCwmUOv" transform="translate(308.91793028140495,333.41964185698396)" cx="308.91793028140495" cy="333.41964185698396">n_87</text></g><g><circle id="n_100" r="5" fill="#99ccff" cx="301.02567817249695" cy="287.42882722616014"><title>n_100</title></circle><text x="0" y="-7" id="n_100" class="label_kxCwmUOv" transform="translate(301.02567817249695,287.42882722616014)" cx="301.02567817249695" cy="287.42882722616014">n_100</text></g><g><circle id="n_208" r="5" fill="#99ccff" cx="337.4403895597945" cy="292.16922231054446"><title>n_208</title></circle><text x="0" y="-7" id="n_208" class="label_kxCwmUOv" transform="translate(337.4403895597945,292.16922231054446)" cx="337.4403895597945" cy="292.16922231054446">n_208</text></g><g><circle id="n_7" r="5" fill="#99ccff" cx="314.03220995141373" cy="389.66906035906396"><title>n_7</title></circle><text x="0" y="-7" id="n_7" class="label_kxCwmUOv" transform="translate(314.03220995141373,389.66906035906396)" cx="314.03220995141373" cy="389.66906035906396">n_7</text></g><g><circle id="n_209" r="5" fill="#99ccff" cx="213.86645775478792" cy="70.94748838879589"><title>n_209</title></circle><text x="0" y="-7" id="n_209" class="label_kxCwmUOv" transform="translate(213.86645775478792,70.94748838879589)" cx="213.86645775478792" cy="70.94748838879589">n_209</text></g><g><circle id="n_207" r="5" fill="#99ccff" cx="368.3931436966724" cy="330.2441601968709"><title>n_207</title></circle><text x="0" y="-7" id="n_207" class="label_kxCwmUOv" transform="translate(368.3931436966724,330.2441601968709)" cx="368.3931436966724" cy="330.2441601968709">n_207</text></g></g></g></svg>