<svg xmlns="http://www.w3.org/2000/svg" width="600" height="600" id="mWjpMpNB">
    <text x="20" y="20" font-family="sans-serif" font-size="14px" fill="#666" style="cursor: pointer" id="mWjpMpNB_svg_txt">[save svg]</text>
    <defs>
        <marker id="end" viewBox="0 -5 20 20" refX="34" refY="0" markerWidth="15" markerHeight="15" orient="auto">
            <path d="M0,-5 L20,0 L0,5 z" fill="#999" stroke="none" />
        </marker>
    </defs>
    <g class="everything">
        <g class="links_mWjpMpNB">
            <line stroke-width="0.1925925925925926" stroke="#999999" x1="309.76473992550814" y1="299.8112844846233" x2="247.19054533898853" y2="337.9213166979323" />
            <line stroke-width="0.014814814814814815" stroke="#999999" x1="309.76473992550814" y1="299.8112844846233" x2="293.62784177339296" y2="278.32754626884696" />
            <line stroke-width="0.37037037037037035" stroke="#999999" x1="309.76473992550814" y1="299.8112844846233" x2="322.9037466304654" y2="321.68610255755954" />
            <line stroke-width="0.037037037037037035" stroke="#999999" x1="309.76473992550814" y1="299.8112844846233" x2="344.8182257626126" y2="312.3839533892882" />
            <line stroke-width="0.0962962962962963" stroke="#999999" x1="309.76473992550814" y1="299.8112844846233" x2="288.2780306115641" y2="322.7667883535431" />
            <line stroke-width="0.0962962962962963" stroke="#999999" x1="309.76473992550814" y1="299.8112844846233" x2="277.54938329064635" y2="294.3824914986154" />
            <line stroke-width="0.1925925925925926" stroke="#999999" x1="309.76473992550814" y1="299.8112844846233" x2="326.48510902509287" y2="233.92356194425506" />
            <line stroke-width="0.037037037037037035" stroke="#999999" x1="309.76473992550814" y1="299.8112844846233" x2="304.5834052758257" y2="328.38225062350324" />
            <line stroke-width="0.0962962962962963" stroke="#999999" x1="309.76473992550814" y1="299.8112844846233" x2="268.4746695782426" y2="269.2747768882903" />
            <line stroke-width="0.0962962962962963" stroke="#999999" x1="309.76473992550814" y1="299.8112844846233" x2="359.0451107528583" y2="271.76890048704945" />
            <line stroke-width="0.007407407407407408" stroke="#999999" x1="309.76473992550814" y1="299.8112844846233" x2="305.35220265859664" y2="259.60770720789907" />
            <line stroke-width="0.0962962962962963" stroke="#999999" x1="309.76473992550814" y1="299.8112844846233" x2="355.2676314801943" y2="339.1346558782233" />
            <line stroke-width="0.0962962962962963" stroke="#999999" x1="309.76473992550814" y1="299.8112844846233" x2="249.39958985732954" y2="295.5283038751982" />
            <line stroke-width="0.037037037037037035" stroke="#999999" x1="309.76473992550814" y1="299.8112844846233" x2="306.26924118851326" y2="368.8288293123003" />
            <line stroke-width="0.14814814814814814" stroke="#999999" x1="309.76473992550814" y1="299.8112844846233" x2="375.6357251924915" y2="303.65268550673665" />
            <line stroke-width="0.1111111111111111" stroke="#999999" x1="309.76473992550814" y1="299.8112844846233" x2="319.22220804850605" y2="220.21439890157012" />
            <line stroke-width="0.007407407407407408" stroke="#999999" x1="309.76473992550814" y1="299.8112844846233" x2="348.8688950660132" y2="388.5559026542363" />
            <line stroke-width="0.007407407407407408" stroke="#999999" x1="309.76473992550814" y1="299.8112844846233" x2="265.6322124222023" y2="237.72139793135435" />
            <line stroke-width="0.18518518518518517" stroke="#999999" x1="309.76473992550814" y1="299.8112844846233" x2="376.4066683774904" y2="250.7485831498791" />
            <line stroke-width="0.007407407407407408" stroke="#999999" x1="309.76473992550814" y1="299.8112844846233" x2="280.18119078073175" y2="398.80920262773805" />
            <line stroke-width="0.0962962962962963" stroke="#999999" x1="309.76473992550814" y1="299.8112844846233" x2="293.3223007956183" y2="218.60038175515533" />
            <line stroke-width="0.0962962962962963" stroke="#999999" x1="309.76473992550814" y1="299.8112844846233" x2="388.5040483899209" y2="332.2209999098291" />
            <line stroke-width="0.08148148148148149" stroke="#999999" x1="309.76473992550814" y1="299.8112844846233" x2="232.3747591159236" y2="318.22601837600536" />
            <line stroke-width="0.2666666666666667" stroke="#999999" x1="309.76473992550814" y1="299.8112844846233" x2="345.7802468252105" y2="226.8771334289809" />
            <line stroke-width="0.11851851851851852" stroke="#999999" x1="309.76473992550814" y1="299.8112844846233" x2="325.15240121126413" y2="399.1583087502043" />
            <line stroke-width="0.21481481481481482" stroke="#999999" x1="309.76473992550814" y1="299.8112844846233" x2="240.90173430536933" y2="260.70028795761186" />
            <line stroke-width="0.18518518518518517" stroke="#999999" x1="309.76473992550814" y1="299.8112844846233" x2="381.4662643874425" y2="287.0058902988936" />
            <line stroke-width="0.037037037037037035" stroke="#999999" x1="309.76473992550814" y1="299.8112844846233" x2="285.9994119663291" y2="343.6518732151317" />
            <line stroke-width="0.1037037037037037" stroke="#999999" x1="309.76473992550814" y1="299.8112844846233" x2="369.1458887404338" y2="359.3967164981642" />
            <line stroke-width="0.007407407407407408" stroke="#999999" x1="309.76473992550814" y1="299.8112844846233" x2="325.24647503295495" y2="257.37427677362587" />
            <line stroke-width="0.007407407407407408" stroke="#999999" x1="309.76473992550814" y1="299.8112844846233" x2="298.74582067610083" y2="393.0614648544266" />
            <line stroke-width="0.11851851851851852" stroke="#999999" x1="309.76473992550814" y1="299.8112844846233" x2="263.6962506488174" y2="224.23605951955452" />
            <line stroke-width="0.14634146341463414" stroke="#999999" x1="247.19054533898853" y1="337.9213166979323" x2="309.76473992550814" y2="299.8112844846233" />
            <line stroke-width="0.024390243902439025" stroke="#999999" x1="247.19054533898853" y1="337.9213166979323" x2="293.62784177339296" y2="278.32754626884696" />
            <line stroke-width="0.14634146341463414" stroke="#999999" x1="247.19054533898853" y1="337.9213166979323" x2="322.9037466304654" y2="321.68610255755954" />
            <line stroke-width="0.024390243902439025" stroke="#999999" x1="247.19054533898853" y1="337.9213166979323" x2="288.2780306115641" y2="322.7667883535431" />
            <line stroke-width="0.024390243902439025" stroke="#999999" x1="247.19054533898853" y1="337.9213166979323" x2="277.54938329064635" y2="294.3824914986154" />
            <line stroke-width="0.024390243902439025" stroke="#999999" x1="247.19054533898853" y1="337.9213166979323" x2="326.48510902509287" y2="233.92356194425506" />
            <line stroke-width="0.024390243902439025" stroke="#999999" x1="247.19054533898853" y1="337.9213166979323" x2="268.4746695782426" y2="269.2747768882903" />
            <line stroke-width="0.024390243902439025" stroke="#999999" x1="247.19054533898853" y1="337.9213166979323" x2="359.0451107528583" y2="271.76890048704945" />
            <line stroke-width="0.024390243902439025" stroke="#999999" x1="247.19054533898853" y1="337.9213166979323" x2="355.2676314801943" y2="339.1346558782233" />
            <line stroke-width="0.04878048780487805" stroke="#999999" x1="247.19054533898853" y1="337.9213166979323" x2="249.39958985732954" y2="295.5283038751982" />
            <line stroke-width="0.024390243902439025" stroke="#999999" x1="247.19054533898853" y1="337.9213166979323" x2="375.6357251924915" y2="303.65268550673665" />
            <line stroke-width="0.024390243902439025" stroke="#999999" x1="247.19054533898853" y1="337.9213166979323" x2="230.02960804759994" y2="339.4121808229409" />
            <line stroke-width="0.024390243902439025" stroke="#999999" x1="247.19054533898853" y1="337.9213166979323" x2="319.22220804850605" y2="220.21439890157012" />
            <line stroke-width="0.024390243902439025" stroke="#999999" x1="247.19054533898853" y1="337.9213166979323" x2="376.4066683774904" y2="250.7485831498791" />
            <line stroke-width="0.024390243902439025" stroke="#999999" x1="247.19054533898853" y1="337.9213166979323" x2="293.3223007956183" y2="218.60038175515533" />
            <line stroke-width="0.024390243902439025" stroke="#999999" x1="247.19054533898853" y1="337.9213166979323" x2="388.5040483899209" y2="332.2209999098291" />
            <line stroke-width="0.024390243902439025" stroke="#999999" x1="247.19054533898853" y1="337.9213166979323" x2="232.3747591159236" y2="318.22601837600536" />
            <line stroke-width="0.07317073170731708" stroke="#999999" x1="247.19054533898853" y1="337.9213166979323" x2="345.7802468252105" y2="226.8771334289809" />
            <line stroke-width="0.024390243902439025" stroke="#999999" x1="247.19054533898853" y1="337.9213166979323" x2="325.15240121126413" y2="399.1583087502043" />
            <line stroke-width="0.024390243902439025" stroke="#999999" x1="247.19054533898853" y1="337.9213166979323" x2="240.90173430536933" y2="260.70028795761186" />
            <line stroke-width="0.024390243902439025" stroke="#999999" x1="247.19054533898853" y1="337.9213166979323" x2="381.4662643874425" y2="287.0058902988936" />
            <line stroke-width="0.04878048780487805" stroke="#999999" x1="247.19054533898853" y1="337.9213166979323" x2="285.9994119663291" y2="343.6518732151317" />
            <line stroke-width="0.024390243902439025" stroke="#999999" x1="247.19054533898853" y1="337.9213166979323" x2="369.1458887404338" y2="359.3967164981642" />
            <line stroke-width="0.04878048780487805" stroke="#999999" x1="247.19054533898853" y1="337.9213166979323" x2="197.3786557962346" y2="323.08279385371605" />
            <line stroke-width="0.04878048780487805" stroke="#999999" x1="247.19054533898853" y1="337.9213166979323" x2="263.6962506488174" y2="224.23605951955452" />
            <line stroke-width="0.6666666666666666" stroke="#999999" x1="293.62784177339296" y1="278.32754626884696" x2="309.76473992550814" y2="299.8112844846233" />
            <line stroke-width="0.3333333333333333" stroke="#999999" x1="293.62784177339296" y1="278.32754626884696" x2="247.19054533898853" y2="337.9213166979323" />
            <line stroke-width="0.6666666666666666" stroke="#999999" x1="293.62784177339296" y1="278.32754626884696" x2="322.9037466304654" y2="321.68610255755954" />
            <line stroke-width="0.3333333333333333" stroke="#999999" x1="293.62784177339296" y1="278.32754626884696" x2="249.39958985732954" y2="295.5283038751982" />
            <line stroke-width="0.3333333333333333" stroke="#999999" x1="293.62784177339296" y1="278.32754626884696" x2="375.6357251924915" y2="303.65268550673665" />
            <line stroke-width="0.3333333333333333" stroke="#999999" x1="293.62784177339296" y1="278.32754626884696" x2="230.02960804759994" y2="339.4121808229409" />
            <line stroke-width="0.3333333333333333" stroke="#999999" x1="293.62784177339296" y1="278.32754626884696" x2="232.3747591159236" y2="318.22601837600536" />
            <line stroke-width="0.3333333333333333" stroke="#999999" x1="293.62784177339296" y1="278.32754626884696" x2="345.7802468252105" y2="226.8771334289809" />
            <line stroke-width="0.5397727272727272" stroke="#999999" x1="322.9037466304654" y1="321.68610255755954" x2="309.76473992550814" y2="299.8112844846233" />
            <line stroke-width="0.33522727272727265" stroke="#999999" x1="322.9037466304654" y1="321.68610255755954" x2="247.19054533898853" y2="337.9213166979323" />
            <line stroke-width="0.022727272727272728" stroke="#999999" x1="322.9037466304654" y1="321.68610255755954" x2="293.62784177339296" y2="278.32754626884696" />
            <line stroke-width="0.022727272727272728" stroke="#999999" x1="322.9037466304654" y1="321.68610255755954" x2="294.2710475900094" y2="223.72948235045956" />
            <line stroke-width="0.022727272727272728" stroke="#999999" x1="322.9037466304654" y1="321.68610255755954" x2="344.8182257626126" y2="312.3839533892882" />
            <line stroke-width="0.10795454545454546" stroke="#999999" x1="322.9037466304654" y1="321.68610255755954" x2="288.2780306115641" y2="322.7667883535431" />
            <line stroke-width="0.011363636363636364" stroke="#999999" x1="322.9037466304654" y1="321.68610255755954" x2="280.41259798669654" y2="314.7465660973925" />
            <line stroke-width="0.005681818181818182" stroke="#999999" x1="322.9037466304654" y1="321.68610255755954" x2="369.66938422472606" y2="333.27935284286303" />
            <line stroke-width="0.2727272727272727" stroke="#999999" x1="322.9037466304654" y1="321.68610255755954" x2="277.54938329064635" y2="294.3824914986154" />
            <line stroke-width="0.47159090909090906" stroke="#999999" x1="322.9037466304654" y1="321.68610255755954" x2="326.48510902509287" y2="233.92356194425506" />
            <line stroke-width="0.07386363636363637" stroke="#999999" x1="322.9037466304654" y1="321.68610255755954" x2="304.5834052758257" y2="328.38225062350324" />
            <line stroke-width="0.2727272727272727" stroke="#999999" x1="322.9037466304654" y1="321.68610255755954" x2="268.4746695782426" y2="269.2747768882903" />
            <line stroke-width="0.2727272727272727" stroke="#999999" x1="322.9037466304654" y1="321.68610255755954" x2="359.0451107528583" y2="271.76890048704945" />
            <line stroke-width="0.3011363636363636" stroke="#999999" x1="322.9037466304654" y1="321.68610255755954" x2="355.2676314801943" y2="339.1346558782233" />
            <line stroke-width="0.28409090909090906" stroke="#999999" x1="322.9037466304654" y1="321.68610255755954" x2="249.39958985732954" y2="295.5283038751982" />
            <line stroke-width="0.022727272727272728" stroke="#999999" x1="322.9037466304654" y1="321.68610255755954" x2="306.26924118851326" y2="368.8288293123003" />
            <line stroke-width="0.22159090909090912" stroke="#999999" x1="322.9037466304654" y1="321.68610255755954" x2="375.6357251924915" y2="303.65268550673665" />
            <line stroke-width="0.011363636363636364" stroke="#999999" x1="322.9037466304654" y1="321.68610255755954" x2="230.02960804759994" y2="339.4121808229409" />
            <line stroke-width="0.2727272727272727" stroke="#999999" x1="322.9037466304654" y1="321.68610255755954" x2="319.22220804850605" y2="220.21439890157012" />
            <line stroke-width="0.005681818181818182" stroke="#999999" x1="322.9037466304654" y1="321.68610255755954" x2="348.8688950660132" y2="388.5559026542363" />
            <line stroke-width="0.34659090909090906" stroke="#999999" x1="322.9037466304654" y1="321.68610255755954" x2="376.4066683774904" y2="250.7485831498791" />
            <line stroke-width="0.005681818181818182" stroke="#999999" x1="322.9037466304654" y1="321.68610255755954" x2="280.18119078073175" y2="398.80920262773805" />
            <line stroke-width="0.2727272727272727" stroke="#999999" x1="322.9037466304654" y1="321.68610255755954" x2="293.3223007956183" y2="218.60038175515533" />
            <line stroke-width="0.28409090909090906" stroke="#999999" x1="322.9037466304654" y1="321.68610255755954" x2="388.5040483899209" y2="332.2209999098291" />
            <line stroke-width="0.08522727272727273" stroke="#999999" x1="322.9037466304654" y1="321.68610255755954" x2="232.3747591159236" y2="318.22601837600536" />
            <line stroke-width="0.5056818181818181" stroke="#999999" x1="322.9037466304654" y1="321.68610255755954" x2="345.7802468252105" y2="226.8771334289809" />
            <line stroke-width="0.2727272727272727" stroke="#999999" x1="322.9037466304654" y1="321.68610255755954" x2="325.15240121126413" y2="399.1583087502043" />
            <line stroke-width="0.4204545454545454" stroke="#999999" x1="322.9037466304654" y1="321.68610255755954" x2="240.90173430536933" y2="260.70028795761186" />
            <line stroke-width="0.34659090909090906" stroke="#999999" x1="322.9037466304654" y1="321.68610255755954" x2="381.4662643874425" y2="287.0058902988936" />
            <line stroke-width="0.011363636363636364" stroke="#999999" x1="322.9037466304654" y1="321.68610255755954" x2="285.9994119663291" y2="343.6518732151317" />
            <line stroke-width="0.2954545454545454" stroke="#999999" x1="322.9037466304654" y1="321.68610255755954" x2="369.1458887404338" y2="359.3967164981642" />
            <line stroke-width="0.011363636363636364" stroke="#999999" x1="322.9037466304654" y1="321.68610255755954" x2="298.74582067610083" y2="393.0614648544266" />
            <line stroke-width="0.3011363636363636" stroke="#999999" x1="322.9037466304654" y1="321.68610255755954" x2="263.6962506488174" y2="224.23605951955452" />
            <line stroke-width="0.5" stroke="#999999" x1="294.2710475900094" y1="223.72948235045956" x2="322.9037466304654" y2="321.68610255755954" />
            <line stroke-width="1" stroke="#999999" x1="294.2710475900094" y1="223.72948235045956" x2="326.48510902509287" y2="233.92356194425506" />
            <line stroke-width="1" stroke="#999999" x1="294.2710475900094" y1="223.72948235045956" x2="345.7802468252105" y2="226.8771334289809" />
            <line stroke-width="1" stroke="#999999" x1="344.8182257626126" y1="312.3839533892882" x2="309.76473992550814" y2="299.8112844846233" />
            <line stroke-width="1" stroke="#999999" x1="344.8182257626126" y1="312.3839533892882" x2="322.9037466304654" y2="321.68610255755954" />
            <line stroke-width="1" stroke="#999999" x1="344.8182257626126" y1="312.3839533892882" x2="306.26924118851326" y2="368.8288293123003" />
            <line stroke-width="0.4" stroke="#999999" x1="288.2780306115641" y1="322.7667883535431" x2="309.76473992550814" y2="299.8112844846233" />
            <line stroke-width="0.2" stroke="#999999" x1="288.2780306115641" y1="322.7667883535431" x2="247.19054533898853" y2="337.9213166979323" />
            <line stroke-width="0.6000000000000001" stroke="#999999" x1="288.2780306115641" y1="322.7667883535431" x2="322.9037466304654" y2="321.68610255755954" />
            <line stroke-width="0.2" stroke="#999999" x1="288.2780306115641" y1="322.7667883535431" x2="326.48510902509287" y2="233.92356194425506" />
            <line stroke-width="0.6000000000000001" stroke="#999999" x1="288.2780306115641" y1="322.7667883535431" x2="375.6357251924915" y2="303.65268550673665" />
            <line stroke-width="0.2" stroke="#999999" x1="288.2780306115641" y1="322.7667883535431" x2="376.4066683774904" y2="250.7485831498791" />
            <line stroke-width="0.2" stroke="#999999" x1="288.2780306115641" y1="322.7667883535431" x2="232.3747591159236" y2="318.22601837600536" />
            <line stroke-width="0.4" stroke="#999999" x1="288.2780306115641" y1="322.7667883535431" x2="345.7802468252105" y2="226.8771334289809" />
            <line stroke-width="0.2" stroke="#999999" x1="288.2780306115641" y1="322.7667883535431" x2="240.90173430536933" y2="260.70028795761186" />
            <line stroke-width="0.2" stroke="#999999" x1="288.2780306115641" y1="322.7667883535431" x2="381.4662643874425" y2="287.0058902988936" />
            <line stroke-width="0.2" stroke="#999999" x1="288.2780306115641" y1="322.7667883535431" x2="325.24647503295495" y2="257.37427677362587" />
            <line stroke-width="0.2" stroke="#999999" x1="288.2780306115641" y1="322.7667883535431" x2="263.6962506488174" y2="224.23605951955452" />
            <line stroke-width="1" stroke="#999999" x1="280.41259798669654" y1="314.7465660973925" x2="322.9037466304654" y2="321.68610255755954" />
            <line stroke-width="1" stroke="#999999" x1="369.66938422472606" y1="333.27935284286303" x2="322.9037466304654" y2="321.68610255755954" />
            <line stroke-width="1" stroke="#999999" x1="277.54938329064635" y1="294.3824914986154" x2="309.76473992550814" y2="299.8112844846233" />
            <line stroke-width="1" stroke="#999999" x1="277.54938329064635" y1="294.3824914986154" x2="247.19054533898853" y2="337.9213166979323" />
            <line stroke-width="1" stroke="#999999" x1="277.54938329064635" y1="294.3824914986154" x2="322.9037466304654" y2="321.68610255755954" />
            <line stroke-width="1" stroke="#999999" x1="277.54938329064635" y1="294.3824914986154" x2="326.48510902509287" y2="233.92356194425506" />
            <line stroke-width="1" stroke="#999999" x1="277.54938329064635" y1="294.3824914986154" x2="268.4746695782426" y2="269.2747768882903" />
            <line stroke-width="1" stroke="#999999" x1="277.54938329064635" y1="294.3824914986154" x2="359.0451107528583" y2="271.76890048704945" />
            <line stroke-width="1" stroke="#999999" x1="277.54938329064635" y1="294.3824914986154" x2="355.2676314801943" y2="339.1346558782233" />
            <line stroke-width="1" stroke="#999999" x1="277.54938329064635" y1="294.3824914986154" x2="249.39958985732954" y2="295.5283038751982" />
            <line stroke-width="1" stroke="#999999" x1="277.54938329064635" y1="294.3824914986154" x2="319.22220804850605" y2="220.21439890157012" />
            <line stroke-width="1" stroke="#999999" x1="277.54938329064635" y1="294.3824914986154" x2="376.4066683774904" y2="250.7485831498791" />
            <line stroke-width="1" stroke="#999999" x1="277.54938329064635" y1="294.3824914986154" x2="293.3223007956183" y2="218.60038175515533" />
            <line stroke-width="1" stroke="#999999" x1="277.54938329064635" y1="294.3824914986154" x2="388.5040483899209" y2="332.2209999098291" />
            <line stroke-width="1" stroke="#999999" x1="277.54938329064635" y1="294.3824914986154" x2="345.7802468252105" y2="226.8771334289809" />
            <line stroke-width="1" stroke="#999999" x1="277.54938329064635" y1="294.3824914986154" x2="325.15240121126413" y2="399.1583087502043" />
            <line stroke-width="1" stroke="#999999" x1="277.54938329064635" y1="294.3824914986154" x2="240.90173430536933" y2="260.70028795761186" />
            <line stroke-width="1" stroke="#999999" x1="277.54938329064635" y1="294.3824914986154" x2="381.4662643874425" y2="287.0058902988936" />
            <line stroke-width="1" stroke="#999999" x1="277.54938329064635" y1="294.3824914986154" x2="369.1458887404338" y2="359.3967164981642" />
            <line stroke-width="1" stroke="#999999" x1="277.54938329064635" y1="294.3824914986154" x2="263.6962506488174" y2="224.23605951955452" />
            <line stroke-width="0.49999999999999994" stroke="#999999" x1="326.48510902509287" y1="233.92356194425506" x2="309.76473992550814" y2="299.8112844846233" />
            <line stroke-width="0.21428571428571427" stroke="#999999" x1="326.48510902509287" y1="233.92356194425506" x2="247.19054533898853" y2="337.9213166979323" />
            <line stroke-width="0.7142857142857142" stroke="#999999" x1="326.48510902509287" y1="233.92356194425506" x2="322.9037466304654" y2="321.68610255755954" />
            <line stroke-width="0.2857142857142857" stroke="#999999" x1="326.48510902509287" y1="233.92356194425506" x2="294.2710475900094" y2="223.72948235045956" />
            <line stroke-width="0.14285714285714285" stroke="#999999" x1="326.48510902509287" y1="233.92356194425506" x2="288.2780306115641" y2="322.7667883535431" />
            <line stroke-width="0.21428571428571427" stroke="#999999" x1="326.48510902509287" y1="233.92356194425506" x2="277.54938329064635" y2="294.3824914986154" />
            <line stroke-width="0.21428571428571427" stroke="#999999" x1="326.48510902509287" y1="233.92356194425506" x2="268.4746695782426" y2="269.2747768882903" />
            <line stroke-width="0.21428571428571427" stroke="#999999" x1="326.48510902509287" y1="233.92356194425506" x2="359.0451107528583" y2="271.76890048704945" />
            <line stroke-width="0.21428571428571427" stroke="#999999" x1="326.48510902509287" y1="233.92356194425506" x2="355.2676314801943" y2="339.1346558782233" />
            <line stroke-width="0.21428571428571427" stroke="#999999" x1="326.48510902509287" y1="233.92356194425506" x2="249.39958985732954" y2="295.5283038751982" />
            <line stroke-width="0.14285714285714285" stroke="#999999" x1="326.48510902509287" y1="233.92356194425506" x2="375.6357251924915" y2="303.65268550673665" />
            <line stroke-width="0.21428571428571427" stroke="#999999" x1="326.48510902509287" y1="233.92356194425506" x2="319.22220804850605" y2="220.21439890157012" />
            <line stroke-width="0.3571428571428571" stroke="#999999" x1="326.48510902509287" y1="233.92356194425506" x2="376.4066683774904" y2="250.7485831498791" />
            <line stroke-width="0.21428571428571427" stroke="#999999" x1="326.48510902509287" y1="233.92356194425506" x2="293.3223007956183" y2="218.60038175515533" />
            <line stroke-width="0.21428571428571427" stroke="#999999" x1="326.48510902509287" y1="233.92356194425506" x2="388.5040483899209" y2="332.2209999098291" />
            <line stroke-width="0.14285714285714285" stroke="#999999" x1="326.48510902509287" y1="233.92356194425506" x2="232.3747591159236" y2="318.22601837600536" />
            <line stroke-width="0.6428571428571428" stroke="#999999" x1="326.48510902509287" y1="233.92356194425506" x2="345.7802468252105" y2="226.8771334289809" />
            <line stroke-width="0.21428571428571427" stroke="#999999" x1="326.48510902509287" y1="233.92356194425506" x2="325.15240121126413" y2="399.1583087502043" />
            <line stroke-width="0.3571428571428571" stroke="#999999" x1="326.48510902509287" y1="233.92356194425506" x2="240.90173430536933" y2="260.70028795761186" />
            <line stroke-width="0.3571428571428571" stroke="#999999" x1="326.48510902509287" y1="233.92356194425506" x2="381.4662643874425" y2="287.0058902988936" />
            <line stroke-width="0.21428571428571427" stroke="#999999" x1="326.48510902509287" y1="233.92356194425506" x2="369.1458887404338" y2="359.3967164981642" />
            <line stroke-width="0.21428571428571427" stroke="#999999" x1="326.48510902509287" y1="233.92356194425506" x2="263.6962506488174" y2="224.23605951955452" />
            <line stroke-width="1" stroke="#999999" x1="304.5834052758257" y1="328.38225062350324" x2="309.76473992550814" y2="299.8112844846233" />
            <line stroke-width="1" stroke="#999999" x1="304.5834052758257" y1="328.38225062350324" x2="322.9037466304654" y2="321.68610255755954" />
            <line stroke-width="1" stroke="#999999" x1="304.5834052758257" y1="328.38225062350324" x2="375.6357251924915" y2="303.65268550673665" />
            <line stroke-width="1" stroke="#999999" x1="304.5834052758257" y1="328.38225062350324" x2="345.7802468252105" y2="226.8771334289809" />
            <line stroke-width="1" stroke="#999999" x1="304.5834052758257" y1="328.38225062350324" x2="240.90173430536933" y2="260.70028795761186" />
            <line stroke-width="0.5" stroke="#999999" x1="268.4746695782426" y1="269.2747768882903" x2="309.76473992550814" y2="299.8112844846233" />
            <line stroke-width="0.5" stroke="#999999" x1="268.4746695782426" y1="269.2747768882903" x2="247.19054533898853" y2="337.9213166979323" />
            <line stroke-width="0.5" stroke="#999999" x1="268.4746695782426" y1="269.2747768882903" x2="322.9037466304654" y2="321.68610255755954" />
            <line stroke-width="0.5" stroke="#999999" x1="268.4746695782426" y1="269.2747768882903" x2="277.54938329064635" y2="294.3824914986154" />
            <line stroke-width="0.5" stroke="#999999" x1="268.4746695782426" y1="269.2747768882903" x2="326.48510902509287" y2="233.92356194425506" />
            <line stroke-width="0.5" stroke="#999999" x1="268.4746695782426" y1="269.2747768882903" x2="359.0451107528583" y2="271.76890048704945" />
            <line stroke-width="0.5" stroke="#999999" x1="268.4746695782426" y1="269.2747768882903" x2="355.2676314801943" y2="339.1346558782233" />
            <line stroke-width="0.5" stroke="#999999" x1="268.4746695782426" y1="269.2747768882903" x2="249.39958985732954" y2="295.5283038751982" />
            <line stroke-width="0.5" stroke="#999999" x1="268.4746695782426" y1="269.2747768882903" x2="319.22220804850605" y2="220.21439890157012" />
            <line stroke-width="0.5" stroke="#999999" x1="268.4746695782426" y1="269.2747768882903" x2="376.4066683774904" y2="250.7485831498791" />
            <line stroke-width="0.5" stroke="#999999" x1="268.4746695782426" y1="269.2747768882903" x2="293.3223007956183" y2="218.60038175515533" />
            <line stroke-width="0.5" stroke="#999999" x1="268.4746695782426" y1="269.2747768882903" x2="388.5040483899209" y2="332.2209999098291" />
            <line stroke-width="0.5" stroke="#999999" x1="268.4746695782426" y1="269.2747768882903" x2="345.7802468252105" y2="226.8771334289809" />
            <line stroke-width="0.5" stroke="#999999" x1="268.4746695782426" y1="269.2747768882903" x2="325.15240121126413" y2="399.1583087502043" />
            <line stroke-width="0.5" stroke="#999999" x1="268.4746695782426" y1="269.2747768882903" x2="240.90173430536933" y2="260.70028795761186" />
            <line stroke-width="0.5" stroke="#999999" x1="268.4746695782426" y1="269.2747768882903" x2="381.4662643874425" y2="287.0058902988936" />
            <line stroke-width="0.5" stroke="#999999" x1="268.4746695782426" y1="269.2747768882903" x2="369.1458887404338" y2="359.3967164981642" />
            <line stroke-width="0.5" stroke="#999999" x1="268.4746695782426" y1="269.2747768882903" x2="325.24647503295495" y2="257.37427677362587" />
            <line stroke-width="0.5" stroke="#999999" x1="268.4746695782426" y1="269.2747768882903" x2="263.6962506488174" y2="224.23605951955452" />
            <line stroke-width="1" stroke="#999999" x1="359.0451107528583" y1="271.76890048704945" x2="309.76473992550814" y2="299.8112844846233" />
            <line stroke-width="1" stroke="#999999" x1="359.0451107528583" y1="271.76890048704945" x2="247.19054533898853" y2="337.9213166979323" />
            <line stroke-width="1" stroke="#999999" x1="359.0451107528583" y1="271.76890048704945" x2="322.9037466304654" y2="321.68610255755954" />
            <line stroke-width="1" stroke="#999999" x1="359.0451107528583" y1="271.76890048704945" x2="277.54938329064635" y2="294.3824914986154" />
            <line stroke-width="1" stroke="#999999" x1="359.0451107528583" y1="271.76890048704945" x2="326.48510902509287" y2="233.92356194425506" />
            <line stroke-width="1" stroke="#999999" x1="359.0451107528583" y1="271.76890048704945" x2="268.4746695782426" y2="269.2747768882903" />
            <line stroke-width="1" stroke="#999999" x1="359.0451107528583" y1="271.76890048704945" x2="355.2676314801943" y2="339.1346558782233" />
            <line stroke-width="1" stroke="#999999" x1="359.0451107528583" y1="271.76890048704945" x2="249.39958985732954" y2="295.5283038751982" />
            <line stroke-width="1" stroke="#999999" x1="359.0451107528583" y1="271.76890048704945" x2="319.22220804850605" y2="220.21439890157012" />
            <line stroke-width="1" stroke="#999999" x1="359.0451107528583" y1="271.76890048704945" x2="376.4066683774904" y2="250.7485831498791" />
            <line stroke-width="1" stroke="#999999" x1="359.0451107528583" y1="271.76890048704945" x2="293.3223007956183" y2="218.60038175515533" />
            <line stroke-width="1" stroke="#999999" x1="359.0451107528583" y1="271.76890048704945" x2="388.5040483899209" y2="332.2209999098291" />
            <line stroke-width="1" stroke="#999999" x1="359.0451107528583" y1="271.76890048704945" x2="345.7802468252105" y2="226.8771334289809" />
            <line stroke-width="1" stroke="#999999" x1="359.0451107528583" y1="271.76890048704945" x2="325.15240121126413" y2="399.1583087502043" />
            <line stroke-width="1" stroke="#999999" x1="359.0451107528583" y1="271.76890048704945" x2="240.90173430536933" y2="260.70028795761186" />
            <line stroke-width="1" stroke="#999999" x1="359.0451107528583" y1="271.76890048704945" x2="381.4662643874425" y2="287.0058902988936" />
            <line stroke-width="1" stroke="#999999" x1="359.0451107528583" y1="271.76890048704945" x2="369.1458887404338" y2="359.3967164981642" />
            <line stroke-width="1" stroke="#999999" x1="359.0451107528583" y1="271.76890048704945" x2="263.6962506488174" y2="224.23605951955452" />
            <line stroke-width="1" stroke="#999999" x1="305.35220265859664" y1="259.60770720789907" x2="309.76473992550814" y2="299.8112844846233" />
            <line stroke-width="0.5" stroke="#999999" x1="355.2676314801943" y1="339.1346558782233" x2="309.76473992550814" y2="299.8112844846233" />
            <line stroke-width="0.5" stroke="#999999" x1="355.2676314801943" y1="339.1346558782233" x2="247.19054533898853" y2="337.9213166979323" />
            <line stroke-width="1" stroke="#999999" x1="355.2676314801943" y1="339.1346558782233" x2="322.9037466304654" y2="321.68610255755954" />
            <line stroke-width="0.5" stroke="#999999" x1="355.2676314801943" y1="339.1346558782233" x2="277.54938329064635" y2="294.3824914986154" />
            <line stroke-width="0.5" stroke="#999999" x1="355.2676314801943" y1="339.1346558782233" x2="326.48510902509287" y2="233.92356194425506" />
            <line stroke-width="0.5" stroke="#999999" x1="355.2676314801943" y1="339.1346558782233" x2="268.4746695782426" y2="269.2747768882903" />
            <line stroke-width="0.5" stroke="#999999" x1="355.2676314801943" y1="339.1346558782233" x2="359.0451107528583" y2="271.76890048704945" />
            <line stroke-width="0.5" stroke="#999999" x1="355.2676314801943" y1="339.1346558782233" x2="249.39958985732954" y2="295.5283038751982" />
            <line stroke-width="0.5" stroke="#999999" x1="355.2676314801943" y1="339.1346558782233" x2="375.6357251924915" y2="303.65268550673665" />
            <line stroke-width="0.5" stroke="#999999" x1="355.2676314801943" y1="339.1346558782233" x2="319.22220804850605" y2="220.21439890157012" />
            <line stroke-width="0.5" stroke="#999999" x1="355.2676314801943" y1="339.1346558782233" x2="376.4066683774904" y2="250.7485831498791" />
            <line stroke-width="0.5" stroke="#999999" x1="355.2676314801943" y1="339.1346558782233" x2="293.3223007956183" y2="218.60038175515533" />
            <line stroke-width="0.5" stroke="#999999" x1="355.2676314801943" y1="339.1346558782233" x2="388.5040483899209" y2="332.2209999098291" />
            <line stroke-width="0.5" stroke="#999999" x1="355.2676314801943" y1="339.1346558782233" x2="345.7802468252105" y2="226.8771334289809" />
            <line stroke-width="0.5" stroke="#999999" x1="355.2676314801943" y1="339.1346558782233" x2="325.15240121126413" y2="399.1583087502043" />
            <line stroke-width="0.5" stroke="#999999" x1="355.2676314801943" y1="339.1346558782233" x2="240.90173430536933" y2="260.70028795761186" />
            <line stroke-width="0.5" stroke="#999999" x1="355.2676314801943" y1="339.1346558782233" x2="381.4662643874425" y2="287.0058902988936" />
            <line stroke-width="0.5" stroke="#999999" x1="355.2676314801943" y1="339.1346558782233" x2="369.1458887404338" y2="359.3967164981642" />
            <line stroke-width="0.5" stroke="#999999" x1="355.2676314801943" y1="339.1346558782233" x2="263.6962506488174" y2="224.23605951955452" />
            <line stroke-width="0.6666666666666666" stroke="#999999" x1="249.39958985732954" y1="295.5283038751982" x2="309.76473992550814" y2="299.8112844846233" />
            <line stroke-width="1" stroke="#999999" x1="249.39958985732954" y1="295.5283038751982" x2="247.19054533898853" y2="337.9213166979323" />
            <line stroke-width="0.3333333333333333" stroke="#999999" x1="249.39958985732954" y1="295.5283038751982" x2="293.62784177339296" y2="278.32754626884696" />
            <line stroke-width="1" stroke="#999999" x1="249.39958985732954" y1="295.5283038751982" x2="322.9037466304654" y2="321.68610255755954" />
            <line stroke-width="0.6666666666666666" stroke="#999999" x1="249.39958985732954" y1="295.5283038751982" x2="277.54938329064635" y2="294.3824914986154" />
            <line stroke-width="0.6666666666666666" stroke="#999999" x1="249.39958985732954" y1="295.5283038751982" x2="326.48510902509287" y2="233.92356194425506" />
            <line stroke-width="0.6666666666666666" stroke="#999999" x1="249.39958985732954" y1="295.5283038751982" x2="268.4746695782426" y2="269.2747768882903" />
            <line stroke-width="0.6666666666666666" stroke="#999999" x1="249.39958985732954" y1="295.5283038751982" x2="359.0451107528583" y2="271.76890048704945" />
            <line stroke-width="0.6666666666666666" stroke="#999999" x1="249.39958985732954" y1="295.5283038751982" x2="355.2676314801943" y2="339.1346558782233" />
            <line stroke-width="0.3333333333333333" stroke="#999999" x1="249.39958985732954" y1="295.5283038751982" x2="230.02960804759994" y2="339.4121808229409" />
            <line stroke-width="0.6666666666666666" stroke="#999999" x1="249.39958985732954" y1="295.5283038751982" x2="319.22220804850605" y2="220.21439890157012" />
            <line stroke-width="0.6666666666666666" stroke="#999999" x1="249.39958985732954" y1="295.5283038751982" x2="376.4066683774904" y2="250.7485831498791" />
            <line stroke-width="0.6666666666666666" stroke="#999999" x1="249.39958985732954" y1="295.5283038751982" x2="293.3223007956183" y2="218.60038175515533" />
            <line stroke-width="0.6666666666666666" stroke="#999999" x1="249.39958985732954" y1="295.5283038751982" x2="388.5040483899209" y2="332.2209999098291" />
            <line stroke-width="0.3333333333333333" stroke="#999999" x1="249.39958985732954" y1="295.5283038751982" x2="232.3747591159236" y2="318.22601837600536" />
            <line stroke-width="1" stroke="#999999" x1="249.39958985732954" y1="295.5283038751982" x2="345.7802468252105" y2="226.8771334289809" />
            <line stroke-width="0.6666666666666666" stroke="#999999" x1="249.39958985732954" y1="295.5283038751982" x2="325.15240121126413" y2="399.1583087502043" />
            <line stroke-width="0.6666666666666666" stroke="#999999" x1="249.39958985732954" y1="295.5283038751982" x2="240.90173430536933" y2="260.70028795761186" />
            <line stroke-width="0.6666666666666666" stroke="#999999" x1="249.39958985732954" y1="295.5283038751982" x2="381.4662643874425" y2="287.0058902988936" />
            <line stroke-width="0.6666666666666666" stroke="#999999" x1="249.39958985732954" y1="295.5283038751982" x2="369.1458887404338" y2="359.3967164981642" />
            <line stroke-width="0.6666666666666666" stroke="#999999" x1="249.39958985732954" y1="295.5283038751982" x2="263.6962506488174" y2="224.23605951955452" />
            <line stroke-width="1" stroke="#999999" x1="332.078729567337" y1="390.22556659754554" x2="348.8688950660132" y2="388.5559026542363" />
            <line stroke-width="1" stroke="#999999" x1="332.078729567337" y1="390.22556659754554" x2="325.15240121126413" y2="399.1583087502043" />
            <line stroke-width="1" stroke="#999999" x1="306.26924118851326" y1="368.8288293123003" x2="309.76473992550814" y2="299.8112844846233" />
            <line stroke-width="1" stroke="#999999" x1="306.26924118851326" y1="368.8288293123003" x2="322.9037466304654" y2="321.68610255755954" />
            <line stroke-width="1" stroke="#999999" x1="306.26924118851326" y1="368.8288293123003" x2="344.8182257626126" y2="312.3839533892882" />
            <line stroke-width="0.6000000000000001" stroke="#999999" x1="375.6357251924915" y1="303.65268550673665" x2="309.76473992550814" y2="299.8112844846233" />
            <line stroke-width="0.1" stroke="#999999" x1="375.6357251924915" y1="303.65268550673665" x2="247.19054533898853" y2="337.9213166979323" />
            <line stroke-width="0.1" stroke="#999999" x1="375.6357251924915" y1="303.65268550673665" x2="293.62784177339296" y2="278.32754626884696" />
            <line stroke-width="0.7" stroke="#999999" x1="375.6357251924915" y1="303.65268550673665" x2="322.9037466304654" y2="321.68610255755954" />
            <line stroke-width="0.4" stroke="#999999" x1="375.6357251924915" y1="303.65268550673665" x2="288.2780306115641" y2="322.7667883535431" />
            <line stroke-width="0.2" stroke="#999999" x1="375.6357251924915" y1="303.65268550673665" x2="326.48510902509287" y2="233.92356194425506" />
            <line stroke-width="0.1" stroke="#999999" x1="375.6357251924915" y1="303.65268550673665" x2="304.5834052758257" y2="328.38225062350324" />
            <line stroke-width="0.1" stroke="#999999" x1="375.6357251924915" y1="303.65268550673665" x2="355.2676314801943" y2="339.1346558782233" />
            <line stroke-width="0.30000000000000004" stroke="#999999" x1="375.6357251924915" y1="303.65268550673665" x2="376.4066683774904" y2="250.7485831498791" />
            <line stroke-width="0.2" stroke="#999999" x1="375.6357251924915" y1="303.65268550673665" x2="232.3747591159236" y2="318.22601837600536" />
            <line stroke-width="0.4" stroke="#999999" x1="375.6357251924915" y1="303.65268550673665" x2="345.7802468252105" y2="226.8771334289809" />
            <line stroke-width="0.30000000000000004" stroke="#999999" x1="375.6357251924915" y1="303.65268550673665" x2="240.90173430536933" y2="260.70028795761186" />
            <line stroke-width="0.2" stroke="#999999" x1="375.6357251924915" y1="303.65268550673665" x2="381.4662643874425" y2="287.0058902988936" />
            <line stroke-width="0.1" stroke="#999999" x1="375.6357251924915" y1="303.65268550673665" x2="263.6962506488174" y2="224.23605951955452" />
            <line stroke-width="1" stroke="#999999" x1="230.02960804759994" y1="339.4121808229409" x2="247.19054533898853" y2="337.9213166979323" />
            <line stroke-width="1" stroke="#999999" x1="230.02960804759994" y1="339.4121808229409" x2="293.62784177339296" y2="278.32754626884696" />
            <line stroke-width="1" stroke="#999999" x1="230.02960804759994" y1="339.4121808229409" x2="322.9037466304654" y2="321.68610255755954" />
            <line stroke-width="1" stroke="#999999" x1="230.02960804759994" y1="339.4121808229409" x2="249.39958985732954" y2="295.5283038751982" />
            <line stroke-width="1" stroke="#999999" x1="230.02960804759994" y1="339.4121808229409" x2="232.3747591159236" y2="318.22601837600536" />
            <line stroke-width="1" stroke="#999999" x1="230.02960804759994" y1="339.4121808229409" x2="345.7802468252105" y2="226.8771334289809" />
            <line stroke-width="1" stroke="#999999" x1="319.22220804850605" y1="220.21439890157012" x2="309.76473992550814" y2="299.8112844846233" />
            <line stroke-width="0.3333333333333333" stroke="#999999" x1="319.22220804850605" y1="220.21439890157012" x2="247.19054533898853" y2="337.9213166979323" />
            <line stroke-width="0.3333333333333333" stroke="#999999" x1="319.22220804850605" y1="220.21439890157012" x2="322.9037466304654" y2="321.68610255755954" />
            <line stroke-width="0.3333333333333333" stroke="#999999" x1="319.22220804850605" y1="220.21439890157012" x2="277.54938329064635" y2="294.3824914986154" />
            <line stroke-width="0.3333333333333333" stroke="#999999" x1="319.22220804850605" y1="220.21439890157012" x2="326.48510902509287" y2="233.92356194425506" />
            <line stroke-width="0.3333333333333333" stroke="#999999" x1="319.22220804850605" y1="220.21439890157012" x2="268.4746695782426" y2="269.2747768882903" />
            <line stroke-width="0.3333333333333333" stroke="#999999" x1="319.22220804850605" y1="220.21439890157012" x2="359.0451107528583" y2="271.76890048704945" />
            <line stroke-width="0.3333333333333333" stroke="#999999" x1="319.22220804850605" y1="220.21439890157012" x2="355.2676314801943" y2="339.1346558782233" />
            <line stroke-width="0.3333333333333333" stroke="#999999" x1="319.22220804850605" y1="220.21439890157012" x2="249.39958985732954" y2="295.5283038751982" />
            <line stroke-width="0.3333333333333333" stroke="#999999" x1="319.22220804850605" y1="220.21439890157012" x2="348.8688950660132" y2="388.5559026542363" />
            <line stroke-width="0.3333333333333333" stroke="#999999" x1="319.22220804850605" y1="220.21439890157012" x2="265.6322124222023" y2="237.72139793135435" />
            <line stroke-width="0.3333333333333333" stroke="#999999" x1="319.22220804850605" y1="220.21439890157012" x2="376.4066683774904" y2="250.7485831498791" />
            <line stroke-width="0.3333333333333333" stroke="#999999" x1="319.22220804850605" y1="220.21439890157012" x2="293.3223007956183" y2="218.60038175515533" />
            <line stroke-width="0.3333333333333333" stroke="#999999" x1="319.22220804850605" y1="220.21439890157012" x2="388.5040483899209" y2="332.2209999098291" />
            <line stroke-width="0.6666666666666666" stroke="#999999" x1="319.22220804850605" y1="220.21439890157012" x2="345.7802468252105" y2="226.8771334289809" />
            <line stroke-width="0.3333333333333333" stroke="#999999" x1="319.22220804850605" y1="220.21439890157012" x2="325.15240121126413" y2="399.1583087502043" />
            <line stroke-width="0.3333333333333333" stroke="#999999" x1="319.22220804850605" y1="220.21439890157012" x2="240.90173430536933" y2="260.70028795761186" />
            <line stroke-width="0.3333333333333333" stroke="#999999" x1="319.22220804850605" y1="220.21439890157012" x2="381.4662643874425" y2="287.0058902988936" />
            <line stroke-width="0.3333333333333333" stroke="#999999" x1="319.22220804850605" y1="220.21439890157012" x2="369.1458887404338" y2="359.3967164981642" />
            <line stroke-width="0.3333333333333333" stroke="#999999" x1="319.22220804850605" y1="220.21439890157012" x2="263.6962506488174" y2="224.23605951955452" />
            <line stroke-width="0.3333333333333333" stroke="#999999" x1="348.8688950660132" y1="388.5559026542363" x2="309.76473992550814" y2="299.8112844846233" />
            <line stroke-width="0.3333333333333333" stroke="#999999" x1="348.8688950660132" y1="388.5559026542363" x2="322.9037466304654" y2="321.68610255755954" />
            <line stroke-width="0.3333333333333333" stroke="#999999" x1="348.8688950660132" y1="388.5559026542363" x2="332.078729567337" y2="390.22556659754554" />
            <line stroke-width="0.3333333333333333" stroke="#999999" x1="348.8688950660132" y1="388.5559026542363" x2="319.22220804850605" y2="220.21439890157012" />
            <line stroke-width="0.3333333333333333" stroke="#999999" x1="348.8688950660132" y1="388.5559026542363" x2="280.18119078073175" y2="398.80920262773805" />
            <line stroke-width="0.3333333333333333" stroke="#999999" x1="348.8688950660132" y1="388.5559026542363" x2="345.7802468252105" y2="226.8771334289809" />
            <line stroke-width="0.3333333333333333" stroke="#999999" x1="348.8688950660132" y1="388.5559026542363" x2="325.15240121126413" y2="399.1583087502043" />
            <line stroke-width="1" stroke="#999999" x1="265.6322124222023" y1="237.72139793135435" x2="309.76473992550814" y2="299.8112844846233" />
            <line stroke-width="1" stroke="#999999" x1="265.6322124222023" y1="237.72139793135435" x2="319.22220804850605" y2="220.21439890157012" />
            <line stroke-width="0.75" stroke="#999999" x1="376.4066683774904" y1="250.7485831498791" x2="309.76473992550814" y2="299.8112844846233" />
            <line stroke-width="0.25" stroke="#999999" x1="376.4066683774904" y1="250.7485831498791" x2="247.19054533898853" y2="337.9213166979323" />
            <line stroke-width="0.5" stroke="#999999" x1="376.4066683774904" y1="250.7485831498791" x2="322.9037466304654" y2="321.68610255755954" />
            <line stroke-width="0.25" stroke="#999999" x1="376.4066683774904" y1="250.7485831498791" x2="288.2780306115641" y2="322.7667883535431" />
            <line stroke-width="0.25" stroke="#999999" x1="376.4066683774904" y1="250.7485831498791" x2="277.54938329064635" y2="294.3824914986154" />
            <line stroke-width="0.5" stroke="#999999" x1="376.4066683774904" y1="250.7485831498791" x2="326.48510902509287" y2="233.92356194425506" />
            <line stroke-width="0.25" stroke="#999999" x1="376.4066683774904" y1="250.7485831498791" x2="268.4746695782426" y2="269.2747768882903" />
            <line stroke-width="0.25" stroke="#999999" x1="376.4066683774904" y1="250.7485831498791" x2="359.0451107528583" y2="271.76890048704945" />
            <line stroke-width="0.25" stroke="#999999" x1="376.4066683774904" y1="250.7485831498791" x2="355.2676314801943" y2="339.1346558782233" />
            <line stroke-width="0.25" stroke="#999999" x1="376.4066683774904" y1="250.7485831498791" x2="249.39958985732954" y2="295.5283038751982" />
            <line stroke-width="0.5" stroke="#999999" x1="376.4066683774904" y1="250.7485831498791" x2="375.6357251924915" y2="303.65268550673665" />
            <line stroke-width="0.25" stroke="#999999" x1="376.4066683774904" y1="250.7485831498791" x2="319.22220804850605" y2="220.21439890157012" />
            <line stroke-width="0.25" stroke="#999999" x1="376.4066683774904" y1="250.7485831498791" x2="293.3223007956183" y2="218.60038175515533" />
            <line stroke-width="0.25" stroke="#999999" x1="376.4066683774904" y1="250.7485831498791" x2="388.5040483899209" y2="332.2209999098291" />
            <line stroke-width="0.25" stroke="#999999" x1="376.4066683774904" y1="250.7485831498791" x2="232.3747591159236" y2="318.22601837600536" />
            <line stroke-width="0.5" stroke="#999999" x1="376.4066683774904" y1="250.7485831498791" x2="345.7802468252105" y2="226.8771334289809" />
            <line stroke-width="0.25" stroke="#999999" x1="376.4066683774904" y1="250.7485831498791" x2="325.15240121126413" y2="399.1583087502043" />
            <line stroke-width="0.5" stroke="#999999" x1="376.4066683774904" y1="250.7485831498791" x2="240.90173430536933" y2="260.70028795761186" />
            <line stroke-width="0.5" stroke="#999999" x1="376.4066683774904" y1="250.7485831498791" x2="381.4662643874425" y2="287.0058902988936" />
            <line stroke-width="0.25" stroke="#999999" x1="376.4066683774904" y1="250.7485831498791" x2="369.1458887404338" y2="359.3967164981642" />
            <line stroke-width="0.25" stroke="#999999" x1="376.4066683774904" y1="250.7485831498791" x2="263.6962506488174" y2="224.23605951955452" />
            <line stroke-width="0.2" stroke="#999999" x1="280.18119078073175" y1="398.80920262773805" x2="309.76473992550814" y2="299.8112844846233" />
            <line stroke-width="0.6" stroke="#999999" x1="280.18119078073175" y1="398.80920262773805" x2="322.9037466304654" y2="321.68610255755954" />
            <line stroke-width="0.6" stroke="#999999" x1="280.18119078073175" y1="398.80920262773805" x2="348.8688950660132" y2="388.5559026542363" />
            <line stroke-width="0.3333333333333333" stroke="#999999" x1="293.3223007956183" y1="218.60038175515533" x2="309.76473992550814" y2="299.8112844846233" />
            <line stroke-width="0.3333333333333333" stroke="#999999" x1="293.3223007956183" y1="218.60038175515533" x2="247.19054533898853" y2="337.9213166979323" />
            <line stroke-width="0.3333333333333333" stroke="#999999" x1="293.3223007956183" y1="218.60038175515533" x2="322.9037466304654" y2="321.68610255755954" />
            <line stroke-width="0.3333333333333333" stroke="#999999" x1="293.3223007956183" y1="218.60038175515533" x2="277.54938329064635" y2="294.3824914986154" />
            <line stroke-width="0.3333333333333333" stroke="#999999" x1="293.3223007956183" y1="218.60038175515533" x2="326.48510902509287" y2="233.92356194425506" />
            <line stroke-width="0.3333333333333333" stroke="#999999" x1="293.3223007956183" y1="218.60038175515533" x2="268.4746695782426" y2="269.2747768882903" />
            <line stroke-width="0.3333333333333333" stroke="#999999" x1="293.3223007956183" y1="218.60038175515533" x2="359.0451107528583" y2="271.76890048704945" />
            <line stroke-width="0.3333333333333333" stroke="#999999" x1="293.3223007956183" y1="218.60038175515533" x2="355.2676314801943" y2="339.1346558782233" />
            <line stroke-width="0.3333333333333333" stroke="#999999" x1="293.3223007956183" y1="218.60038175515533" x2="249.39958985732954" y2="295.5283038751982" />
            <line stroke-width="0.3333333333333333" stroke="#999999" x1="293.3223007956183" y1="218.60038175515533" x2="319.22220804850605" y2="220.21439890157012" />
            <line stroke-width="0.3333333333333333" stroke="#999999" x1="293.3223007956183" y1="218.60038175515533" x2="376.4066683774904" y2="250.7485831498791" />
            <line stroke-width="0.3333333333333333" stroke="#999999" x1="293.3223007956183" y1="218.60038175515533" x2="388.5040483899209" y2="332.2209999098291" />
            <line stroke-width="0.3333333333333333" stroke="#999999" x1="293.3223007956183" y1="218.60038175515533" x2="345.7802468252105" y2="226.8771334289809" />
            <line stroke-width="0.3333333333333333" stroke="#999999" x1="293.3223007956183" y1="218.60038175515533" x2="325.15240121126413" y2="399.1583087502043" />
            <line stroke-width="0.3333333333333333" stroke="#999999" x1="293.3223007956183" y1="218.60038175515533" x2="240.90173430536933" y2="260.70028795761186" />
            <line stroke-width="0.3333333333333333" stroke="#999999" x1="293.3223007956183" y1="218.60038175515533" x2="381.4662643874425" y2="287.0058902988936" />
            <line stroke-width="0.3333333333333333" stroke="#999999" x1="293.3223007956183" y1="218.60038175515533" x2="369.1458887404338" y2="359.3967164981642" />
            <line stroke-width="0.3333333333333333" stroke="#999999" x1="293.3223007956183" y1="218.60038175515533" x2="263.6962506488174" y2="224.23605951955452" />
            <line stroke-width="0.16666666666666666" stroke="#999999" x1="388.5040483899209" y1="332.2209999098291" x2="309.76473992550814" y2="299.8112844846233" />
            <line stroke-width="0.16666666666666666" stroke="#999999" x1="388.5040483899209" y1="332.2209999098291" x2="247.19054533898853" y2="337.9213166979323" />
            <line stroke-width="0.3333333333333333" stroke="#999999" x1="388.5040483899209" y1="332.2209999098291" x2="322.9037466304654" y2="321.68610255755954" />
            <line stroke-width="0.16666666666666666" stroke="#999999" x1="388.5040483899209" y1="332.2209999098291" x2="277.54938329064635" y2="294.3824914986154" />
            <line stroke-width="0.16666666666666666" stroke="#999999" x1="388.5040483899209" y1="332.2209999098291" x2="326.48510902509287" y2="233.92356194425506" />
            <line stroke-width="0.16666666666666666" stroke="#999999" x1="388.5040483899209" y1="332.2209999098291" x2="268.4746695782426" y2="269.2747768882903" />
            <line stroke-width="0.16666666666666666" stroke="#999999" x1="388.5040483899209" y1="332.2209999098291" x2="359.0451107528583" y2="271.76890048704945" />
            <line stroke-width="0.16666666666666666" stroke="#999999" x1="388.5040483899209" y1="332.2209999098291" x2="355.2676314801943" y2="339.1346558782233" />
            <line stroke-width="0.16666666666666666" stroke="#999999" x1="388.5040483899209" y1="332.2209999098291" x2="249.39958985732954" y2="295.5283038751982" />
            <line stroke-width="0.16666666666666666" stroke="#999999" x1="388.5040483899209" y1="332.2209999098291" x2="319.22220804850605" y2="220.21439890157012" />
            <line stroke-width="0.16666666666666666" stroke="#999999" x1="388.5040483899209" y1="332.2209999098291" x2="376.4066683774904" y2="250.7485831498791" />
            <line stroke-width="0.16666666666666666" stroke="#999999" x1="388.5040483899209" y1="332.2209999098291" x2="293.3223007956183" y2="218.60038175515533" />
            <line stroke-width="0.16666666666666666" stroke="#999999" x1="388.5040483899209" y1="332.2209999098291" x2="345.7802468252105" y2="226.8771334289809" />
            <line stroke-width="0.16666666666666666" stroke="#999999" x1="388.5040483899209" y1="332.2209999098291" x2="325.15240121126413" y2="399.1583087502043" />
            <line stroke-width="0.16666666666666666" stroke="#999999" x1="388.5040483899209" y1="332.2209999098291" x2="240.90173430536933" y2="260.70028795761186" />
            <line stroke-width="0.16666666666666666" stroke="#999999" x1="388.5040483899209" y1="332.2209999098291" x2="381.4662643874425" y2="287.0058902988936" />
            <line stroke-width="0.16666666666666666" stroke="#999999" x1="388.5040483899209" y1="332.2209999098291" x2="369.1458887404338" y2="359.3967164981642" />
            <line stroke-width="0.16666666666666666" stroke="#999999" x1="388.5040483899209" y1="332.2209999098291" x2="263.6962506488174" y2="224.23605951955452" />
            <line stroke-width="0.5" stroke="#999999" x1="232.3747591159236" y1="318.22601837600536" x2="309.76473992550814" y2="299.8112844846233" />
            <line stroke-width="0.5" stroke="#999999" x1="232.3747591159236" y1="318.22601837600536" x2="247.19054533898853" y2="337.9213166979323" />
            <line stroke-width="0.5" stroke="#999999" x1="232.3747591159236" y1="318.22601837600536" x2="293.62784177339296" y2="278.32754626884696" />
            <line stroke-width="1" stroke="#999999" x1="232.3747591159236" y1="318.22601837600536" x2="322.9037466304654" y2="321.68610255755954" />
            <line stroke-width="0.5" stroke="#999999" x1="232.3747591159236" y1="318.22601837600536" x2="288.2780306115641" y2="322.7667883535431" />
            <line stroke-width="0.5" stroke="#999999" x1="232.3747591159236" y1="318.22601837600536" x2="326.48510902509287" y2="233.92356194425506" />
            <line stroke-width="0.5" stroke="#999999" x1="232.3747591159236" y1="318.22601837600536" x2="249.39958985732954" y2="295.5283038751982" />
            <line stroke-width="0.5" stroke="#999999" x1="232.3747591159236" y1="318.22601837600536" x2="375.6357251924915" y2="303.65268550673665" />
            <line stroke-width="0.5" stroke="#999999" x1="232.3747591159236" y1="318.22601837600536" x2="230.02960804759994" y2="339.4121808229409" />
            <line stroke-width="0.5" stroke="#999999" x1="232.3747591159236" y1="318.22601837600536" x2="376.4066683774904" y2="250.7485831498791" />
            <line stroke-width="1" stroke="#999999" x1="232.3747591159236" y1="318.22601837600536" x2="345.7802468252105" y2="226.8771334289809" />
            <line stroke-width="0.5" stroke="#999999" x1="232.3747591159236" y1="318.22601837600536" x2="240.90173430536933" y2="260.70028795761186" />
            <line stroke-width="0.5" stroke="#999999" x1="232.3747591159236" y1="318.22601837600536" x2="381.4662643874425" y2="287.0058902988936" />
            <line stroke-width="0.5789473684210527" stroke="#999999" x1="345.7802468252105" y1="226.8771334289809" x2="309.76473992550814" y2="299.8112844846233" />
            <line stroke-width="0.15789473684210525" stroke="#999999" x1="345.7802468252105" y1="226.8771334289809" x2="247.19054533898853" y2="337.9213166979323" />
            <line stroke-width="0.05263157894736842" stroke="#999999" x1="345.7802468252105" y1="226.8771334289809" x2="293.62784177339296" y2="278.32754626884696" />
            <line stroke-width="0.631578947368421" stroke="#999999" x1="345.7802468252105" y1="226.8771334289809" x2="322.9037466304654" y2="321.68610255755954" />
            <line stroke-width="0.2631578947368421" stroke="#999999" x1="345.7802468252105" y1="226.8771334289809" x2="294.2710475900094" y2="223.72948235045956" />
            <line stroke-width="0.15789473684210525" stroke="#999999" x1="345.7802468252105" y1="226.8771334289809" x2="288.2780306115641" y2="322.7667883535431" />
            <line stroke-width="0.05263157894736842" stroke="#999999" x1="345.7802468252105" y1="226.8771334289809" x2="277.54938329064635" y2="294.3824914986154" />
            <line stroke-width="0.42105263157894735" stroke="#999999" x1="345.7802468252105" y1="226.8771334289809" x2="326.48510902509287" y2="233.92356194425506" />
            <line stroke-width="0.15789473684210525" stroke="#999999" x1="345.7802468252105" y1="226.8771334289809" x2="304.5834052758257" y2="328.38225062350324" />
            <line stroke-width="0.05263157894736842" stroke="#999999" x1="345.7802468252105" y1="226.8771334289809" x2="268.4746695782426" y2="269.2747768882903" />
            <line stroke-width="0.05263157894736842" stroke="#999999" x1="345.7802468252105" y1="226.8771334289809" x2="359.0451107528583" y2="271.76890048704945" />
            <line stroke-width="0.05263157894736842" stroke="#999999" x1="345.7802468252105" y1="226.8771334289809" x2="355.2676314801943" y2="339.1346558782233" />
            <line stroke-width="0.10526315789473684" stroke="#999999" x1="345.7802468252105" y1="226.8771334289809" x2="249.39958985732954" y2="295.5283038751982" />
            <line stroke-width="0.3157894736842105" stroke="#999999" x1="345.7802468252105" y1="226.8771334289809" x2="375.6357251924915" y2="303.65268550673665" />
            <line stroke-width="0.05263157894736842" stroke="#999999" x1="345.7802468252105" y1="226.8771334289809" x2="230.02960804759994" y2="339.4121808229409" />
            <line stroke-width="0.10526315789473684" stroke="#999999" x1="345.7802468252105" y1="226.8771334289809" x2="319.22220804850605" y2="220.21439890157012" />
            <line stroke-width="0.05263157894736842" stroke="#999999" x1="345.7802468252105" y1="226.8771334289809" x2="348.8688950660132" y2="388.5559026542363" />
            <line stroke-width="0.15789473684210525" stroke="#999999" x1="345.7802468252105" y1="226.8771334289809" x2="376.4066683774904" y2="250.7485831498791" />
            <line stroke-width="0.05263157894736842" stroke="#999999" x1="345.7802468252105" y1="226.8771334289809" x2="293.3223007956183" y2="218.60038175515533" />
            <line stroke-width="0.05263157894736842" stroke="#999999" x1="345.7802468252105" y1="226.8771334289809" x2="388.5040483899209" y2="332.2209999098291" />
            <line stroke-width="0.15789473684210525" stroke="#999999" x1="345.7802468252105" y1="226.8771334289809" x2="232.3747591159236" y2="318.22601837600536" />
            <line stroke-width="0.05263157894736842" stroke="#999999" x1="345.7802468252105" y1="226.8771334289809" x2="325.15240121126413" y2="399.1583087502043" />
            <line stroke-width="0.3157894736842105" stroke="#999999" x1="345.7802468252105" y1="226.8771334289809" x2="240.90173430536933" y2="260.70028795761186" />
            <line stroke-width="0.15789473684210525" stroke="#999999" x1="345.7802468252105" y1="226.8771334289809" x2="381.4662643874425" y2="287.0058902988936" />
            <line stroke-width="0.05263157894736842" stroke="#999999" x1="345.7802468252105" y1="226.8771334289809" x2="285.9994119663291" y2="343.6518732151317" />
            <line stroke-width="0.05263157894736842" stroke="#999999" x1="345.7802468252105" y1="226.8771334289809" x2="369.1458887404338" y2="359.3967164981642" />
            <line stroke-width="0.10526315789473684" stroke="#999999" x1="345.7802468252105" y1="226.8771334289809" x2="263.6962506488174" y2="224.23605951955452" />
            <line stroke-width="0.4" stroke="#999999" x1="325.15240121126413" y1="399.1583087502043" x2="309.76473992550814" y2="299.8112844846233" />
            <line stroke-width="0.2" stroke="#999999" x1="325.15240121126413" y1="399.1583087502043" x2="247.19054533898853" y2="337.9213166979323" />
            <line stroke-width="0.2" stroke="#999999" x1="325.15240121126413" y1="399.1583087502043" x2="322.9037466304654" y2="321.68610255755954" />
            <line stroke-width="0.2" stroke="#999999" x1="325.15240121126413" y1="399.1583087502043" x2="277.54938329064635" y2="294.3824914986154" />
            <line stroke-width="0.2" stroke="#999999" x1="325.15240121126413" y1="399.1583087502043" x2="326.48510902509287" y2="233.92356194425506" />
            <line stroke-width="0.2" stroke="#999999" x1="325.15240121126413" y1="399.1583087502043" x2="268.4746695782426" y2="269.2747768882903" />
            <line stroke-width="0.2" stroke="#999999" x1="325.15240121126413" y1="399.1583087502043" x2="359.0451107528583" y2="271.76890048704945" />
            <line stroke-width="0.2" stroke="#999999" x1="325.15240121126413" y1="399.1583087502043" x2="355.2676314801943" y2="339.1346558782233" />
            <line stroke-width="0.2" stroke="#999999" x1="325.15240121126413" y1="399.1583087502043" x2="249.39958985732954" y2="295.5283038751982" />
            <line stroke-width="0.2" stroke="#999999" x1="325.15240121126413" y1="399.1583087502043" x2="332.078729567337" y2="390.22556659754554" />
            <line stroke-width="0.2" stroke="#999999" x1="325.15240121126413" y1="399.1583087502043" x2="319.22220804850605" y2="220.21439890157012" />
            <line stroke-width="0.2" stroke="#999999" x1="325.15240121126413" y1="399.1583087502043" x2="348.8688950660132" y2="388.5559026542363" />
            <line stroke-width="0.2" stroke="#999999" x1="325.15240121126413" y1="399.1583087502043" x2="376.4066683774904" y2="250.7485831498791" />
            <line stroke-width="0.2" stroke="#999999" x1="325.15240121126413" y1="399.1583087502043" x2="293.3223007956183" y2="218.60038175515533" />
            <line stroke-width="0.2" stroke="#999999" x1="325.15240121126413" y1="399.1583087502043" x2="388.5040483899209" y2="332.2209999098291" />
            <line stroke-width="0.2" stroke="#999999" x1="325.15240121126413" y1="399.1583087502043" x2="345.7802468252105" y2="226.8771334289809" />
            <line stroke-width="0.2" stroke="#999999" x1="325.15240121126413" y1="399.1583087502043" x2="240.90173430536933" y2="260.70028795761186" />
            <line stroke-width="0.2" stroke="#999999" x1="325.15240121126413" y1="399.1583087502043" x2="381.4662643874425" y2="287.0058902988936" />
            <line stroke-width="0.2" stroke="#999999" x1="325.15240121126413" y1="399.1583087502043" x2="369.1458887404338" y2="359.3967164981642" />
            <line stroke-width="0.1" stroke="#999999" x1="325.15240121126413" y1="399.1583087502043" x2="298.74582067610083" y2="393.0614648544266" />
            <line stroke-width="0.2" stroke="#999999" x1="325.15240121126413" y1="399.1583087502043" x2="263.6962506488174" y2="224.23605951955452" />
            <line stroke-width="1" stroke="#999999" x1="240.90173430536933" y1="260.70028795761186" x2="309.76473992550814" y2="299.8112844846233" />
            <line stroke-width="0.3333333333333333" stroke="#999999" x1="240.90173430536933" y1="260.70028795761186" x2="247.19054533898853" y2="337.9213166979323" />
            <line stroke-width="1" stroke="#999999" x1="240.90173430536933" y1="260.70028795761186" x2="322.9037466304654" y2="321.68610255755954" />
            <line stroke-width="0.3333333333333333" stroke="#999999" x1="240.90173430536933" y1="260.70028795761186" x2="288.2780306115641" y2="322.7667883535431" />
            <line stroke-width="0.3333333333333333" stroke="#999999" x1="240.90173430536933" y1="260.70028795761186" x2="277.54938329064635" y2="294.3824914986154" />
            <line stroke-width="0.6666666666666666" stroke="#999999" x1="240.90173430536933" y1="260.70028795761186" x2="326.48510902509287" y2="233.92356194425506" />
            <line stroke-width="0.3333333333333333" stroke="#999999" x1="240.90173430536933" y1="260.70028795761186" x2="304.5834052758257" y2="328.38225062350324" />
            <line stroke-width="0.3333333333333333" stroke="#999999" x1="240.90173430536933" y1="260.70028795761186" x2="268.4746695782426" y2="269.2747768882903" />
            <line stroke-width="0.3333333333333333" stroke="#999999" x1="240.90173430536933" y1="260.70028795761186" x2="359.0451107528583" y2="271.76890048704945" />
            <line stroke-width="0.3333333333333333" stroke="#999999" x1="240.90173430536933" y1="260.70028795761186" x2="355.2676314801943" y2="339.1346558782233" />
            <line stroke-width="0.3333333333333333" stroke="#999999" x1="240.90173430536933" y1="260.70028795761186" x2="249.39958985732954" y2="295.5283038751982" />
            <line stroke-width="0.6666666666666666" stroke="#999999" x1="240.90173430536933" y1="260.70028795761186" x2="375.6357251924915" y2="303.65268550673665" />
            <line stroke-width="0.3333333333333333" stroke="#999999" x1="240.90173430536933" y1="260.70028795761186" x2="319.22220804850605" y2="220.21439890157012" />
            <line stroke-width="0.6666666666666666" stroke="#999999" x1="240.90173430536933" y1="260.70028795761186" x2="376.4066683774904" y2="250.7485831498791" />
            <line stroke-width="0.3333333333333333" stroke="#999999" x1="240.90173430536933" y1="260.70028795761186" x2="293.3223007956183" y2="218.60038175515533" />
            <line stroke-width="0.3333333333333333" stroke="#999999" x1="240.90173430536933" y1="260.70028795761186" x2="388.5040483899209" y2="332.2209999098291" />
            <line stroke-width="0.3333333333333333" stroke="#999999" x1="240.90173430536933" y1="260.70028795761186" x2="232.3747591159236" y2="318.22601837600536" />
            <line stroke-width="1" stroke="#999999" x1="240.90173430536933" y1="260.70028795761186" x2="345.7802468252105" y2="226.8771334289809" />
            <line stroke-width="0.3333333333333333" stroke="#999999" x1="240.90173430536933" y1="260.70028795761186" x2="325.15240121126413" y2="399.1583087502043" />
            <line stroke-width="0.6666666666666666" stroke="#999999" x1="240.90173430536933" y1="260.70028795761186" x2="381.4662643874425" y2="287.0058902988936" />
            <line stroke-width="0.3333333333333333" stroke="#999999" x1="240.90173430536933" y1="260.70028795761186" x2="369.1458887404338" y2="359.3967164981642" />
            <line stroke-width="0.3333333333333333" stroke="#999999" x1="240.90173430536933" y1="260.70028795761186" x2="263.6962506488174" y2="224.23605951955452" />
            <line stroke-width="1" stroke="#999999" x1="381.4662643874425" y1="287.0058902988936" x2="309.76473992550814" y2="299.8112844846233" />
            <line stroke-width="0.3333333333333333" stroke="#999999" x1="381.4662643874425" y1="287.0058902988936" x2="247.19054533898853" y2="337.9213166979323" />
            <line stroke-width="0.6666666666666666" stroke="#999999" x1="381.4662643874425" y1="287.0058902988936" x2="322.9037466304654" y2="321.68610255755954" />
            <line stroke-width="0.3333333333333333" stroke="#999999" x1="381.4662643874425" y1="287.0058902988936" x2="288.2780306115641" y2="322.7667883535431" />
            <line stroke-width="0.3333333333333333" stroke="#999999" x1="381.4662643874425" y1="287.0058902988936" x2="277.54938329064635" y2="294.3824914986154" />
            <line stroke-width="0.6666666666666666" stroke="#999999" x1="381.4662643874425" y1="287.0058902988936" x2="326.48510902509287" y2="233.92356194425506" />
            <line stroke-width="0.3333333333333333" stroke="#999999" x1="381.4662643874425" y1="287.0058902988936" x2="268.4746695782426" y2="269.2747768882903" />
            <line stroke-width="0.3333333333333333" stroke="#999999" x1="381.4662643874425" y1="287.0058902988936" x2="359.0451107528583" y2="271.76890048704945" />
            <line stroke-width="0.3333333333333333" stroke="#999999" x1="381.4662643874425" y1="287.0058902988936" x2="355.2676314801943" y2="339.1346558782233" />
            <line stroke-width="0.3333333333333333" stroke="#999999" x1="381.4662643874425" y1="287.0058902988936" x2="249.39958985732954" y2="295.5283038751982" />
            <line stroke-width="0.3333333333333333" stroke="#999999" x1="381.4662643874425" y1="287.0058902988936" x2="375.6357251924915" y2="303.65268550673665" />
            <line stroke-width="0.3333333333333333" stroke="#999999" x1="381.4662643874425" y1="287.0058902988936" x2="319.22220804850605" y2="220.21439890157012" />
            <line stroke-width="0.6666666666666666" stroke="#999999" x1="381.4662643874425" y1="287.0058902988936" x2="376.4066683774904" y2="250.7485831498791" />
            <line stroke-width="0.3333333333333333" stroke="#999999" x1="381.4662643874425" y1="287.0058902988936" x2="293.3223007956183" y2="218.60038175515533" />
            <line stroke-width="0.3333333333333333" stroke="#999999" x1="381.4662643874425" y1="287.0058902988936" x2="388.5040483899209" y2="332.2209999098291" />
            <line stroke-width="0.3333333333333333" stroke="#999999" x1="381.4662643874425" y1="287.0058902988936" x2="232.3747591159236" y2="318.22601837600536" />
            <line stroke-width="0.6666666666666666" stroke="#999999" x1="381.4662643874425" y1="287.0058902988936" x2="345.7802468252105" y2="226.8771334289809" />
            <line stroke-width="0.3333333333333333" stroke="#999999" x1="381.4662643874425" y1="287.0058902988936" x2="325.15240121126413" y2="399.1583087502043" />
            <line stroke-width="0.6666666666666666" stroke="#999999" x1="381.4662643874425" y1="287.0058902988936" x2="240.90173430536933" y2="260.70028795761186" />
            <line stroke-width="0.3333333333333333" stroke="#999999" x1="381.4662643874425" y1="287.0058902988936" x2="285.9994119663291" y2="343.6518732151317" />
            <line stroke-width="0.3333333333333333" stroke="#999999" x1="381.4662643874425" y1="287.0058902988936" x2="369.1458887404338" y2="359.3967164981642" />
            <line stroke-width="0.3333333333333333" stroke="#999999" x1="381.4662643874425" y1="287.0058902988936" x2="263.6962506488174" y2="224.23605951955452" />
            <line stroke-width="1" stroke="#999999" x1="285.9994119663291" y1="343.6518732151317" x2="309.76473992550814" y2="299.8112844846233" />
            <line stroke-width="0.3333333333333333" stroke="#999999" x1="285.9994119663291" y1="343.6518732151317" x2="247.19054533898853" y2="337.9213166979323" />
            <line stroke-width="0.3333333333333333" stroke="#999999" x1="285.9994119663291" y1="343.6518732151317" x2="322.9037466304654" y2="321.68610255755954" />
            <line stroke-width="0.3333333333333333" stroke="#999999" x1="285.9994119663291" y1="343.6518732151317" x2="345.7802468252105" y2="226.8771334289809" />
            <line stroke-width="0.3333333333333333" stroke="#999999" x1="285.9994119663291" y1="343.6518732151317" x2="381.4662643874425" y2="287.0058902988936" />
            <line stroke-width="1" stroke="#999999" x1="369.1458887404338" y1="359.3967164981642" x2="309.76473992550814" y2="299.8112844846233" />
            <line stroke-width="0.5" stroke="#999999" x1="369.1458887404338" y1="359.3967164981642" x2="247.19054533898853" y2="337.9213166979323" />
            <line stroke-width="1" stroke="#999999" x1="369.1458887404338" y1="359.3967164981642" x2="322.9037466304654" y2="321.68610255755954" />
            <line stroke-width="0.5" stroke="#999999" x1="369.1458887404338" y1="359.3967164981642" x2="277.54938329064635" y2="294.3824914986154" />
            <line stroke-width="0.5" stroke="#999999" x1="369.1458887404338" y1="359.3967164981642" x2="326.48510902509287" y2="233.92356194425506" />
            <line stroke-width="0.5" stroke="#999999" x1="369.1458887404338" y1="359.3967164981642" x2="268.4746695782426" y2="269.2747768882903" />
            <line stroke-width="0.5" stroke="#999999" x1="369.1458887404338" y1="359.3967164981642" x2="359.0451107528583" y2="271.76890048704945" />
            <line stroke-width="0.5" stroke="#999999" x1="369.1458887404338" y1="359.3967164981642" x2="355.2676314801943" y2="339.1346558782233" />
            <line stroke-width="0.5" stroke="#999999" x1="369.1458887404338" y1="359.3967164981642" x2="249.39958985732954" y2="295.5283038751982" />
            <line stroke-width="0.5" stroke="#999999" x1="369.1458887404338" y1="359.3967164981642" x2="319.22220804850605" y2="220.21439890157012" />
            <line stroke-width="0.5" stroke="#999999" x1="369.1458887404338" y1="359.3967164981642" x2="376.4066683774904" y2="250.7485831498791" />
            <line stroke-width="0.5" stroke="#999999" x1="369.1458887404338" y1="359.3967164981642" x2="293.3223007956183" y2="218.60038175515533" />
            <line stroke-width="0.5" stroke="#999999" x1="369.1458887404338" y1="359.3967164981642" x2="388.5040483899209" y2="332.2209999098291" />
            <line stroke-width="0.5" stroke="#999999" x1="369.1458887404338" y1="359.3967164981642" x2="345.7802468252105" y2="226.8771334289809" />
            <line stroke-width="0.5" stroke="#999999" x1="369.1458887404338" y1="359.3967164981642" x2="325.15240121126413" y2="399.1583087502043" />
            <line stroke-width="0.5" stroke="#999999" x1="369.1458887404338" y1="359.3967164981642" x2="240.90173430536933" y2="260.70028795761186" />
            <line stroke-width="0.5" stroke="#999999" x1="369.1458887404338" y1="359.3967164981642" x2="381.4662643874425" y2="287.0058902988936" />
            <line stroke-width="0.5" stroke="#999999" x1="369.1458887404338" y1="359.3967164981642" x2="263.6962506488174" y2="224.23605951955452" />
            <line stroke-width="1" stroke="#999999" x1="197.3786557962346" y1="323.08279385371605" x2="247.19054533898853" y2="337.9213166979323" />
            <line stroke-width="0.16666666666666666" stroke="#999999" x1="325.24647503295495" y1="257.37427677362587" x2="309.76473992550814" y2="299.8112844846233" />
            <line stroke-width="0.16666666666666666" stroke="#999999" x1="325.24647503295495" y1="257.37427677362587" x2="288.2780306115641" y2="322.7667883535431" />
            <line stroke-width="0.16666666666666666" stroke="#999999" x1="325.24647503295495" y1="257.37427677362587" x2="268.4746695782426" y2="269.2747768882903" />
            <line stroke-width="0.3076923076923077" stroke="#999999" x1="298.74582067610083" y1="393.0614648544266" x2="309.76473992550814" y2="299.8112844846233" />
            <line stroke-width="0.07692307692307693" stroke="#999999" x1="298.74582067610083" y1="393.0614648544266" x2="322.9037466304654" y2="321.68610255755954" />
            <line stroke-width="0.07692307692307693" stroke="#999999" x1="298.74582067610083" y1="393.0614648544266" x2="325.15240121126413" y2="399.1583087502043" />
            <line stroke-width="0.75" stroke="#999999" x1="263.6962506488174" y1="224.23605951955452" x2="309.76473992550814" y2="299.8112844846233" />
            <line stroke-width="0.5" stroke="#999999" x1="263.6962506488174" y1="224.23605951955452" x2="247.19054533898853" y2="337.9213166979323" />
            <line stroke-width="0.5" stroke="#999999" x1="263.6962506488174" y1="224.23605951955452" x2="322.9037466304654" y2="321.68610255755954" />
            <line stroke-width="0.25" stroke="#999999" x1="263.6962506488174" y1="224.23605951955452" x2="288.2780306115641" y2="322.7667883535431" />
            <line stroke-width="0.25" stroke="#999999" x1="263.6962506488174" y1="224.23605951955452" x2="277.54938329064635" y2="294.3824914986154" />
            <line stroke-width="0.25" stroke="#999999" x1="263.6962506488174" y1="224.23605951955452" x2="326.48510902509287" y2="233.92356194425506" />
            <line stroke-width="0.25" stroke="#999999" x1="263.6962506488174" y1="224.23605951955452" x2="268.4746695782426" y2="269.2747768882903" />
            <line stroke-width="0.25" stroke="#999999" x1="263.6962506488174" y1="224.23605951955452" x2="359.0451107528583" y2="271.76890048704945" />
            <line stroke-width="0.25" stroke="#999999" x1="263.6962506488174" y1="224.23605951955452" x2="355.2676314801943" y2="339.1346558782233" />
            <line stroke-width="0.25" stroke="#999999" x1="263.6962506488174" y1="224.23605951955452" x2="249.39958985732954" y2="295.5283038751982" />
            <line stroke-width="0.25" stroke="#999999" x1="263.6962506488174" y1="224.23605951955452" x2="375.6357251924915" y2="303.65268550673665" />
            <line stroke-width="0.25" stroke="#999999" x1="263.6962506488174" y1="224.23605951955452" x2="319.22220804850605" y2="220.21439890157012" />
            <line stroke-width="0.25" stroke="#999999" x1="263.6962506488174" y1="224.23605951955452" x2="376.4066683774904" y2="250.7485831498791" />
            <line stroke-width="0.25" stroke="#999999" x1="263.6962506488174" y1="224.23605951955452" x2="293.3223007956183" y2="218.60038175515533" />
            <line stroke-width="0.25" stroke="#999999" x1="263.6962506488174" y1="224.23605951955452" x2="388.5040483899209" y2="332.2209999098291" />
            <line stroke-width="0.5" stroke="#999999" x1="263.6962506488174" y1="224.23605951955452" x2="345.7802468252105" y2="226.8771334289809" />
            <line stroke-width="0.25" stroke="#999999" x1="263.6962506488174" y1="224.23605951955452" x2="325.15240121126413" y2="399.1583087502043" />
            <line stroke-width="0.25" stroke="#999999" x1="263.6962506488174" y1="224.23605951955452" x2="240.90173430536933" y2="260.70028795761186" />
            <line stroke-width="0.25" stroke="#999999" x1="263.6962506488174" y1="224.23605951955452" x2="381.4662643874425" y2="287.0058902988936" />
            <line stroke-width="0.25" stroke="#999999" x1="263.6962506488174" y1="224.23605951955452" x2="369.1458887404338" y2="359.3967164981642" />
        </g>
        <g class="nodes_mWjpMpNB">
            <g>
                <circle id="n_74" r="5" fill="#99ccff" cx="309.76473992550814" cy="299.8112844846233">
                    <title>n_74</title>
                </circle>
                <text x="0" y="-7" id="n_74" class="label_mWjpMpNB" transform="translate(309.76473992550814,299.8112844846233)" cx="309.76473992550814" cy="299.8112844846233">n_74</text>
            </g>
            <g>
                <circle id="n_157" r="5" fill="#99ccff" cx="247.19054533898853" cy="337.9213166979323">
                    <title>n_157</title>
                </circle>
                <text x="0" y="-7" id="n_157" class="label_mWjpMpNB" transform="translate(247.19054533898853,337.9213166979323)" cx="247.19054533898853" cy="337.9213166979323">n_157</text>
            </g>
            <g>
                <circle id="n_147" r="5" fill="#99ccff" cx="293.62784177339296" cy="278.32754626884696">
                    <title>n_147</title>
                </circle>
                <text x="0" y="-7" id="n_147" class="label_mWjpMpNB" transform="translate(293.62784177339296,278.32754626884696)" cx="293.62784177339296" cy="278.32754626884696">n_147</text>
            </g>
            <g>
                <circle id="n_87" r="5" fill="#99ccff" cx="322.9037466304654" cy="321.68610255755954">
                    <title>n_87</title>
                </circle>
                <text x="0" y="-7" id="n_87" class="label_mWjpMpNB" transform="translate(322.9037466304654,321.68610255755954)" cx="322.9037466304654" cy="321.68610255755954">n_87</text>
            </g>
            <g>
                <circle id="n_100" r="5" fill="#99ccff" cx="294.2710475900094" cy="223.72948235045956">
                    <title>n_100</title>
                </circle>
                <text x="0" y="-7" id="n_100" class="label_mWjpMpNB" transform="translate(294.2710475900094,223.72948235045956)" cx="294.2710475900094" cy="223.72948235045956">n_100</text>
            </g>
            <g>
                <circle id="n_208" r="5" fill="#99ccff" cx="344.8182257626126" cy="312.3839533892882">
                    <title>n_208</title>
                </circle>
                <text x="0" y="-7" id="n_208" class="label_mWjpMpNB" transform="translate(344.8182257626126,312.3839533892882)" cx="344.8182257626126" cy="312.3839533892882">n_208</text>
            </g>
            <g>
                <circle id="n_7" r="5" fill="#99ccff" cx="288.2780306115641" cy="322.7667883535431">
                    <title>n_7</title>
                </circle>
                <text x="0" y="-7" id="n_7" class="label_mWjpMpNB" transform="translate(288.2780306115641,322.7667883535431)" cx="288.2780306115641" cy="322.7667883535431">n_7</text>
            </g>
            <g>
                <circle id="n_209" r="5" fill="#99ccff" cx="280.41259798669654" cy="314.7465660973925">
                    <title>n_209</title>
                </circle>
                <text x="0" y="-7" id="n_209" class="label_mWjpMpNB" transform="translate(280.41259798669654,314.7465660973925)" cx="280.41259798669654" cy="314.7465660973925">n_209</text>
            </g>
            <g>
                <circle id="n_127" r="5" fill="#99ccff" cx="369.66938422472606" cy="333.27935284286303">
                    <title>n_127</title>
                </circle>
                <text x="0" y="-7" id="n_127" class="label_mWjpMpNB" transform="translate(369.66938422472606,333.27935284286303)" cx="369.66938422472606" cy="333.27935284286303">n_127</text>
            </g>
            <g>
                <circle id="n_210" r="5" fill="#99ccff" cx="277.54938329064635" cy="294.3824914986154">
                    <title>n_210</title>
                </circle>
                <text x="0" y="-7" id="n_210" class="label_mWjpMpNB" transform="translate(277.54938329064635,294.3824914986154)" cx="277.54938329064635" cy="294.3824914986154">n_210</text>
            </g>
            <g>
                <circle id="n_183" r="5" fill="#99ccff" cx="326.48510902509287" cy="233.92356194425506">
                    <title>n_183</title>
                </circle>
                <text x="0" y="-7" id="n_183" class="label_mWjpMpNB" transform="translate(326.48510902509287,233.92356194425506)" cx="326.48510902509287" cy="233.92356194425506">n_183</text>
            </g>
            <g>
                <circle id="n_211" r="5" fill="#99ccff" cx="304.5834052758257" cy="328.38225062350324">
                    <title>n_211</title>
                </circle>
                <text x="0" y="-7" id="n_211" class="label_mWjpMpNB" transform="translate(304.5834052758257,328.38225062350324)" cx="304.5834052758257" cy="328.38225062350324">n_211</text>
            </g>
            <g>
                <circle id="n_212" r="5" fill="#99ccff" cx="268.4746695782426" cy="269.2747768882903">
                    <title>n_212</title>
                </circle>
                <text x="0" y="-7" id="n_212" class="label_mWjpMpNB" transform="translate(268.4746695782426,269.2747768882903)" cx="268.4746695782426" cy="269.2747768882903">n_212</text>
            </g>
            <g>
                <circle id="n_207" r="5" fill="#99ccff" cx="359.0451107528583" cy="271.76890048704945">
                    <title>n_207</title>
                </circle>
                <text x="0" y="-7" id="n_207" class="label_mWjpMpNB" transform="translate(359.0451107528583,271.76890048704945)" cx="359.0451107528583" cy="271.76890048704945">n_207</text>
            </g>
            <g>
                <circle id="n_213" r="5" fill="#99ccff" cx="189.8193867689599" cy="449.98369924407484">
                    <title>n_213</title>
                </circle>
                <text x="0" y="-7" id="n_213" class="label_mWjpMpNB" transform="translate(189.8193867689599,449.98369924407484)" cx="189.8193867689599" cy="449.98369924407484">n_213</text>
            </g>
            <g>
                <circle id="n_203" r="5" fill="#99ccff" cx="305.35220265859664" cy="259.60770720789907">
                    <title>n_203</title>
                </circle>
                <text x="0" y="-7" id="n_203" class="label_mWjpMpNB" transform="translate(305.35220265859664,259.60770720789907)" cx="305.35220265859664" cy="259.60770720789907">n_203</text>
            </g>
            <g>
                <circle id="n_166" r="5" fill="#99ccff" cx="355.2676314801943" cy="339.1346558782233">
                    <title>n_166</title>
                </circle>
                <text x="0" y="-7" id="n_166" class="label_mWjpMpNB" transform="translate(355.2676314801943,339.1346558782233)" cx="355.2676314801943" cy="339.1346558782233">n_166</text>
            </g>
            <g>
                <circle id="n_136" r="5" fill="#99ccff" cx="249.39958985732954" cy="295.5283038751982">
                    <title>n_136</title>
                </circle>
                <text x="0" y="-7" id="n_136" class="label_mWjpMpNB" transform="translate(249.39958985732954,295.5283038751982)" cx="249.39958985732954" cy="295.5283038751982">n_136</text>
            </g>
            <g>
                <circle id="n_215" r="5" fill="#99ccff" cx="332.078729567337" cy="390.22556659754554">
                    <title>n_215</title>
                </circle>
                <text x="0" y="-7" id="n_215" class="label_mWjpMpNB" transform="translate(332.078729567337,390.22556659754554)" cx="332.078729567337" cy="390.22556659754554">n_215</text>
            </g>
            <g>
                <circle id="n_216" r="5" fill="#99ccff" cx="306.26924118851326" cy="368.8288293123003">
                    <title>n_216</title>
                </circle>
                <text x="0" y="-7" id="n_216" class="label_mWjpMpNB" transform="translate(306.26924118851326,368.8288293123003)" cx="306.26924118851326" cy="368.8288293123003">n_216</text>
            </g>
            <g>
                <circle id="n_217" r="5" fill="#99ccff" cx="162.27660146724443" cy="166.93466471755286">
                    <title>n_217</title>
                </circle>
                <text x="0" y="-7" id="n_217" class="label_mWjpMpNB" transform="translate(162.27660146724443,166.93466471755286)" cx="162.27660146724443" cy="166.93466471755286">n_217</text>
            </g>
            <g>
                <circle id="n_38" r="5" fill="#99ccff" cx="375.6357251924915" cy="303.65268550673665">
                    <title>n_38</title>
                </circle>
                <text x="0" y="-7" id="n_38" class="label_mWjpMpNB" transform="translate(375.6357251924915,303.65268550673665)" cx="375.6357251924915" cy="303.65268550673665">n_38</text>
            </g>
            <g>
                <circle id="n_219" r="5" fill="#99ccff" cx="230.02960804759994" cy="339.4121808229409">
                    <title>n_219</title>
                </circle>
                <text x="0" y="-7" id="n_219" class="label_mWjpMpNB" transform="translate(230.02960804759994,339.4121808229409)" cx="230.02960804759994" cy="339.4121808229409">n_219</text>
            </g>
            <g>
                <circle id="n_222" r="5" fill="#99ccff" cx="319.22220804850605" cy="220.21439890157012">
                    <title>n_222</title>
                </circle>
                <text x="0" y="-7" id="n_222" class="label_mWjpMpNB" transform="translate(319.22220804850605,220.21439890157012)" cx="319.22220804850605" cy="220.21439890157012">n_222</text>
            </g>
            <g>
                <circle id="n_223" r="5" fill="#99ccff" cx="348.8688950660132" cy="388.5559026542363">
                    <title>n_223</title>
                </circle>
                <text x="0" y="-7" id="n_223" class="label_mWjpMpNB" transform="translate(348.8688950660132,388.5559026542363)" cx="348.8688950660132" cy="388.5559026542363">n_223</text>
            </g>
            <g>
                <circle id="n_224" r="5" fill="#99ccff" cx="265.6322124222023" cy="237.72139793135435">
                    <title>n_224</title>
                </circle>
                <text x="0" y="-7" id="n_224" class="label_mWjpMpNB" transform="translate(265.6322124222023,237.72139793135435)" cx="265.6322124222023" cy="237.72139793135435">n_224</text>
            </g>
            <g>
                <circle id="n_201" r="5" fill="#99ccff" cx="376.4066683774904" cy="250.7485831498791">
                    <title>n_201</title>
                </circle>
                <text x="0" y="-7" id="n_201" class="label_mWjpMpNB" transform="translate(376.4066683774904,250.7485831498791)" cx="376.4066683774904" cy="250.7485831498791">n_201</text>
            </g>
            <g>
                <circle id="n_186" r="5" fill="#99ccff" cx="280.18119078073175" cy="398.80920262773805">
                    <title>n_186</title>
                </circle>
                <text x="0" y="-7" id="n_186" class="label_mWjpMpNB" transform="translate(280.18119078073175,398.80920262773805)" cx="280.18119078073175" cy="398.80920262773805">n_186</text>
            </g>
            <g>
                <circle id="n_225" r="5" fill="#99ccff" cx="293.3223007956183" cy="218.60038175515533">
                    <title>n_225</title>
                </circle>
                <text x="0" y="-7" id="n_225" class="label_mWjpMpNB" transform="translate(293.3223007956183,218.60038175515533)" cx="293.3223007956183" cy="218.60038175515533">n_225</text>
            </g>
            <g>
                <circle id="n_57" r="5" fill="#99ccff" cx="388.5040483899209" cy="332.2209999098291">
                    <title>n_57</title>
                </circle>
                <text x="0" y="-7" id="n_57" class="label_mWjpMpNB" transform="translate(388.5040483899209,332.2209999098291)" cx="388.5040483899209" cy="332.2209999098291">n_57</text>
            </g>
            <g>
                <circle id="n_226" r="5" fill="#99ccff" cx="232.3747591159236" cy="318.22601837600536">
                    <title>n_226</title>
                </circle>
                <text x="0" y="-7" id="n_226" class="label_mWjpMpNB" transform="translate(232.3747591159236,318.22601837600536)" cx="232.3747591159236" cy="318.22601837600536">n_226</text>
            </g>
            <g>
                <circle id="n_104" r="5" fill="#99ccff" cx="345.7802468252105" cy="226.8771334289809">
                    <title>n_104</title>
                </circle>
                <text x="0" y="-7" id="n_104" class="label_mWjpMpNB" transform="translate(345.7802468252105,226.8771334289809)" cx="345.7802468252105" cy="226.8771334289809">n_104</text>
            </g>
            <g>
                <circle id="n_122" r="5" fill="#99ccff" cx="325.15240121126413" cy="399.1583087502043">
                    <title>n_122</title>
                </circle>
                <text x="0" y="-7" id="n_122" class="label_mWjpMpNB" transform="translate(325.15240121126413,399.1583087502043)" cx="325.15240121126413" cy="399.1583087502043">n_122</text>
            </g>
            <g>
                <circle id="n_227" r="5" fill="#99ccff" cx="240.90173430536933" cy="260.70028795761186">
                    <title>n_227</title>
                </circle>
                <text x="0" y="-7" id="n_227" class="label_mWjpMpNB" transform="translate(240.90173430536933,260.70028795761186)" cx="240.90173430536933" cy="260.70028795761186">n_227</text>
            </g>
            <g>
                <circle id="n_228" r="5" fill="#99ccff" cx="381.4662643874425" cy="287.0058902988936">
                    <title>n_228</title>
                </circle>
                <text x="0" y="-7" id="n_228" class="label_mWjpMpNB" transform="translate(381.4662643874425,287.0058902988936)" cx="381.4662643874425" cy="287.0058902988936">n_228</text>
            </g>
            <g>
                <circle id="n_176" r="5" fill="#99ccff" cx="285.9994119663291" cy="343.6518732151317">
                    <title>n_176</title>
                </circle>
                <text x="0" y="-7" id="n_176" class="label_mWjpMpNB" transform="translate(285.9994119663291,343.6518732151317)" cx="285.9994119663291" cy="343.6518732151317">n_176</text>
            </g>
            <g>
                <circle id="n_130" r="5" fill="#99ccff" cx="291.9754808913616" cy="82.90304614826627">
                    <title>n_130</title>
                </circle>
                <text x="0" y="-7" id="n_130" class="label_mWjpMpNB" transform="translate(291.9754808913616,82.90304614826627)" cx="291.9754808913616" cy="82.90304614826627">n_130</text>
            </g>
            <g>
                <circle id="n_229" r="5" fill="#99ccff" cx="369.1458887404338" cy="359.3967164981642">
                    <title>n_229</title>
                </circle>
                <text x="0" y="-7" id="n_229" class="label_mWjpMpNB" transform="translate(369.1458887404338,359.3967164981642)" cx="369.1458887404338" cy="359.3967164981642">n_229</text>
            </g>
            <g>
                <circle id="n_124" r="5" fill="#99ccff" cx="197.3786557962346" cy="323.08279385371605">
                    <title>n_124</title>
                </circle>
                <text x="0" y="-7" id="n_124" class="label_mWjpMpNB" transform="translate(197.3786557962346,323.08279385371605)" cx="197.3786557962346" cy="323.08279385371605">n_124</text>
            </g>
            <g>
                <circle id="n_230" r="5" fill="#99ccff" cx="325.24647503295495" cy="257.37427677362587">
                    <title>n_230</title>
                </circle>
                <text x="0" y="-7" id="n_230" class="label_mWjpMpNB" transform="translate(325.24647503295495,257.37427677362587)" cx="325.24647503295495" cy="257.37427677362587">n_230</text>
            </g>
            <g>
                <circle id="n_117" r="5" fill="#99ccff" cx="298.74582067610083" cy="393.0614648544266">
                    <title>n_117</title>
                </circle>
                <text x="0" y="-7" id="n_117" class="label_mWjpMpNB" transform="translate(298.74582067610083,393.0614648544266)" cx="298.74582067610083" cy="393.0614648544266">n_117</text>
            </g>
            <g>
                <circle id="n_238" r="5" fill="#99ccff" cx="263.6962506488174" cy="224.23605951955452">
                    <title>n_238</title>
                </circle>
                <text x="0" y="-7" id="n_238" class="label_mWjpMpNB" transform="translate(263.6962506488174,224.23605951955452)" cx="263.6962506488174" cy="224.23605951955452">n_238</text>
            </g>
        </g>
    </g>
</svg>