<svg xmlns="http://www.w3.org/2000/svg" width="600" height="600" id="tmyJZmYM">        
    <text x="20" y="20" font-family="sans-serif" font-size="14px" fill="#666" style="cursor: pointer" id="tmyJZmYM_svg_txt">[save svg]</text>
<defs><marker id="end" viewBox="0 -5 20 20" refX="34" refY="0" markerWidth="15" markerHeight="15" orient="auto"><path d="M0,-5 L20,0 L0,5 z" fill="#999" stroke="none"/></marker></defs><g class="everything"><g class="links_tmyJZmYM"><line stroke-width="0.5714285714285714" stroke="#999999" x1="386.2906135701632" y1="249.20678618252364" x2="390.9124331500877" y2="208.65329506890683"/><line stroke-width="0.30000000000000004" stroke="#999999" x1="268.3526706896563" y1="374.4959049755208" x2="318.87207396891887" y2="340.83888852300413"/><line stroke-width="0.1" stroke="#999999" x1="268.3526706896563" y1="374.4959049755208" x2="245.72465026678321" y2="409.0242700999703"/><line stroke-width="0.25" stroke="#999999" x1="390.9124331500877" y1="208.65329506890683" x2="386.2906135701632" y2="249.20678618252364"/><line stroke-width="0.8666666666666667" stroke="#999999" x1="280.0075046245345" y1="269.77507434248633" x2="246.747064239453" y2="238.3261020226671"/><line stroke-width="0.8" stroke="#999999" x1="280.0075046245345" y1="269.77507434248633" x2="229.49752680489902" y2="280.92463226295314"/><line stroke-width="0.06666666666666667" stroke="#999999" x1="280.0075046245345" y1="269.77507434248633" x2="318.87207396891887" y2="340.83888852300413"/><line stroke-width="0.9999999999999999" stroke="#999999" x1="246.747064239453" y1="238.3261020226671" x2="280.0075046245345" y2="269.77507434248633"/><line stroke-width="0.8333333333333333" stroke="#999999" x1="246.747064239453" y1="238.3261020226671" x2="229.49752680489902" y2="280.92463226295314"/><line stroke-width="1" stroke="#999999" x1="357.2859212412859" y1="355.6388811049034" x2="318.87207396891887" y2="340.83888852300413"/><line stroke-width="1" stroke="#999999" x1="229.49752680489902" y1="280.92463226295314" x2="280.0075046245345" y2="269.77507434248633"/><line stroke-width="1" stroke="#999999" x1="229.49752680489902" y1="280.92463226295314" x2="246.747064239453" y2="238.3261020226671"/><line stroke-width="0.08571428571428572" stroke="#999999" x1="318.87207396891887" y1="340.83888852300413" x2="268.3526706896563" y2="374.4959049755208"/><line stroke-width="0.02857142857142857" stroke="#999999" x1="318.87207396891887" y1="340.83888852300413" x2="280.0075046245345" y2="269.77507434248633"/><line stroke-width="0.08571428571428572" stroke="#999999" x1="318.87207396891887" y1="340.83888852300413" x2="357.2859212412859" y2="355.6388811049034"/><line stroke-width="1" stroke="#999999" x1="245.72465026678321" y1="409.0242700999703" x2="268.3526706896563" y2="374.4959049755208"/></g><g class="nodes_tmyJZmYM"><g><circle id="n_54" r="5" fill="#99ccff" cx="386.2906135701632" cy="249.20678618252364"><title>n_54</title></circle><text x="0" y="-7" id="n_54" class="label_tmyJZmYM" transform="translate(386.2906135701632,249.20678618252364)" cx="386.2906135701632" cy="249.20678618252364">n_54</text></g><g><circle id="n_1" r="5" fill="#99ccff" cx="268.3526706896563" cy="374.4959049755208"><title>n_1</title></circle><text x="0" y="-7" id="n_1" class="label_tmyJZmYM" transform="translate(268.3526706896563,374.4959049755208)" cx="268.3526706896563" cy="374.4959049755208">n_1</text></g><g><circle id="n_18" r="5" fill="#99ccff" cx="390.9124331500877" cy="208.65329506890683"><title>n_18</title></circle><text x="0" y="-7" id="n_18" class="label_tmyJZmYM" transform="translate(390.9124331500877,208.65329506890683)" cx="390.9124331500877" cy="208.65329506890683">n_18</text></g><g><circle id="n_55" r="5" fill="#99ccff" cx="473.04063440067125" cy="370.8133263386658"><title>n_55</title></circle><text x="0" y="-7" id="n_55" class="label_tmyJZmYM" transform="translate(473.04063440067125,370.8133263386658)" cx="473.04063440067125" cy="370.8133263386658">n_55</text></g><g><circle id="n_56" r="5" fill="#99ccff" cx="76.08517984593433" cy="306.9514901432823"><title>n_56</title></circle><text x="0" y="-7" id="n_56" class="label_tmyJZmYM" transform="translate(76.08517984593433,306.9514901432823)" cx="76.08517984593433" cy="306.9514901432823">n_56</text></g><g><circle id="n_57" r="5" fill="#99ccff" cx="280.0075046245345" cy="269.77507434248633"><title>n_57</title></circle><text x="0" y="-7" id="n_57" class="label_tmyJZmYM" transform="translate(280.0075046245345,269.77507434248633)" cx="280.0075046245345" cy="269.77507434248633">n_57</text></g><g><circle id="n_58" r="5" fill="#99ccff" cx="249.06130828072347" cy="581.5918453050114"><title>n_58</title></circle><text x="0" y="-7" id="n_58" class="label_tmyJZmYM" transform="translate(249.06130828072347,581.5918453050114)" cx="249.06130828072347" cy="581.5918453050114">n_58</text></g><g><circle id="n_59" r="5" fill="#99ccff" cx="246.747064239453" cy="238.3261020226671"><title>n_59</title></circle><text x="0" y="-7" id="n_59" class="label_tmyJZmYM" transform="translate(246.747064239453,238.3261020226671)" cx="246.747064239453" cy="238.3261020226671">n_59</text></g><g><circle id="n_60" r="5" fill="#99ccff" cx="357.2859212412859" cy="355.6388811049034"><title>n_60</title></circle><text x="0" y="-7" id="n_60" class="label_tmyJZmYM" transform="translate(357.2859212412859,355.6388811049034)" cx="357.2859212412859" cy="355.6388811049034">n_60</text></g><g><circle id="n_61" r="5" fill="#99ccff" cx="229.49752680489902" cy="280.92463226295314"><title>n_61</title></circle><text x="0" y="-7" id="n_61" class="label_tmyJZmYM" transform="translate(229.49752680489902,280.92463226295314)" cx="229.49752680489902" cy="280.92463226295314">n_61</text></g><g><circle id="n_62" r="5" fill="#99ccff" cx="386.05434319330845" cy="84.23103669494726"><title>n_62</title></circle><text x="0" y="-7" id="n_62" class="label_tmyJZmYM" transform="translate(386.05434319330845,84.23103669494726)" cx="386.05434319330845" cy="84.23103669494726">n_62</text></g><g><circle id="n_63" r="5" fill="#99ccff" cx="318.87207396891887" cy="340.83888852300413"><title>n_63</title></circle><text x="0" y="-7" id="n_63" class="label_tmyJZmYM" transform="translate(318.87207396891887,340.83888852300413)" cx="318.87207396891887" cy="340.83888852300413">n_63</text></g><g><circle id="n_64" r="5" fill="#99ccff" cx="66.02354483175542" cy="163.12976741836283"><title>n_64</title></circle><text x="0" y="-7" id="n_64" class="label_tmyJZmYM" transform="translate(66.02354483175542,163.12976741836283)" cx="66.02354483175542" cy="163.12976741836283">n_64</text></g><g><circle id="n_14" r="5" fill="#99ccff" cx="526.0448870279549" cy="266.3836092896355"><title>n_14</title></circle><text x="0" y="-7" id="n_14" class="label_tmyJZmYM" transform="translate(526.0448870279549,266.3836092896355)" cx="526.0448870279549" cy="266.3836092896355">n_14</text></g><g><circle id="n_65" r="5" fill="#99ccff" cx="245.72465026678321" cy="409.0242700999703"><title>n_65</title></circle><text x="0" y="-7" id="n_65" class="label_tmyJZmYM" transform="translate(245.72465026678321,409.0242700999703)" cx="245.72465026678321" cy="409.0242700999703">n_65</text></g></g></g></svg>