<svg xmlns="http://www.w3.org/2000/svg" width="600" height="600" id="TxBJkgnn">
    <defs>
        <marker id="end" viewBox="0 -5 20 20" refX="34" refY="0" markerWidth="15" markerHeight="15" orient="auto">
            <path d="M0,-5 L20,0 L0,5 z" fill="#999" stroke="none" />
        </marker>
    </defs>
    <g class="everything" transform="translate(17.508089481047136,4.025166339261602) scale(1.0000000000000002)">
        <g class="links_TxBJkgnn">
            <line stroke-width="1" stroke="#999999" x1="352.04699133869326" y1="264.44812611677014" x2="326.0859221907174" y2="188.03877355281924" />
            <line stroke-width="0.5" stroke="#999999" x1="302.45514260872704" y1="274.9267645713677" x2="326.0859221907174" y2="188.03877355281924" />
            <line stroke-width="1" stroke="#999999" x1="365.8066758717774" y1="193.9556720759383" x2="326.0859221907174" y2="188.03877355281924" />
            <line stroke-width="0.15384615384615385" stroke="#999999" x1="317.0204552328447" y1="246.57974166556914" x2="334.5857441246724" y2="399.2720971999698" />
            <line stroke-width="1" stroke="#999999" x1="317.0204552328447" y1="246.57974166556914" x2="252.92341419422215" y2="251.63000486575095" />
            <line stroke-width="0.21428571428571427" stroke="#999999" x1="317.0204552328447" y1="246.57974166556914" x2="278.1133453563496" y2="345.1699981880791" />
            <line stroke-width="0.3076923076923077" stroke="#999999" x1="317.0204552328447" y1="246.57974166556914" x2="371.6377378233906" y2="306.3895578415476" />
            <line stroke-width="0.4" stroke="#999999" x1="317.0204552328447" y1="246.57974166556914" x2="352.04699133869326" y2="264.44812611677014" />
            <line stroke-width="0.1" stroke="#999999" x1="413.1340767552854" y1="409.2150240238667" x2="317.0204552328447" y2="246.57974166556914" />
            <line stroke-width="0.3333333333333333" stroke="#999999" x1="317.0204552328447" y1="246.57974166556914" x2="302.45514260872704" y2="274.9267645713677" />
            <line stroke-width="0.4" stroke="#999999" x1="317.0204552328447" y1="246.57974166556914" x2="334.0232224142845" y2="326.30777120220563" />
            <line stroke-width="0.4074074074074074" stroke="#999999" x1="311.44070959549714" y1="347.9222534868392" x2="317.0204552328447" y2="246.57974166556914" />
            <line stroke-width="0.2" stroke="#999999" x1="282.4883044451805" y1="390.189818838296" x2="317.0204552328447" y2="246.57974166556914" />
            <line stroke-width="0.15384615384615385" stroke="#999999" x1="317.0204552328447" y1="246.57974166556914" x2="429.32650257060385" y2="357.9813073445758" />
            <line stroke-width="0.15384615384615385" stroke="#999999" x1="317.0204552328447" y1="246.57974166556914" x2="382.47279071485684" y2="378.8461010968063" />
            <line stroke-width="0.15384615384615385" stroke="#999999" x1="317.0204552328447" y1="246.57974166556914" x2="421.3358063624267" y2="315.0071070385996" />
            <line stroke-width="0.2" stroke="#999999" x1="379.96478870489017" y1="340.3544134036501" x2="317.0204552328447" y2="246.57974166556914" />
            <line stroke-width="0.1" stroke="#999999" x1="317.0204552328447" y1="246.57974166556914" x2="361.6216421308821" y2="431.57248833472937" />
            <line stroke-width="0.5" stroke="#999999" x1="278.1133453563496" y1="345.1699981880791" x2="334.5857441246724" y2="399.2720971999698" />
            <line stroke-width="0.5" stroke="#999999" x1="371.6377378233906" y1="306.3895578415476" x2="334.5857441246724" y2="399.2720971999698" />
            <line stroke-width="1" stroke="#999999" x1="352.04699133869326" y1="264.44812611677014" x2="334.5857441246724" y2="399.2720971999698" />
            <line stroke-width="1" stroke="#999999" x1="413.1340767552854" y1="409.2150240238667" x2="334.5857441246724" y2="399.2720971999698" />
            <line stroke-width="0.25" stroke="#999999" x1="334.0232224142845" y1="326.30777120220563" x2="334.5857441246724" y2="399.2720971999698" />
            <line stroke-width="1" stroke="#999999" x1="311.44070959549714" y1="347.9222534868392" x2="334.5857441246724" y2="399.2720971999698" />
            <line stroke-width="0.5" stroke="#999999" x1="282.4883044451805" y1="390.189818838296" x2="334.5857441246724" y2="399.2720971999698" />
            <line stroke-width="1" stroke="#999999" x1="429.32650257060385" y1="357.9813073445758" x2="334.5857441246724" y2="399.2720971999698" />
            <line stroke-width="1" stroke="#999999" x1="334.5857441246724" y1="399.2720971999698" x2="382.47279071485684" y2="378.8461010968063" />
            <line stroke-width="1" stroke="#999999" x1="421.3358063624267" y1="315.0071070385996" x2="334.5857441246724" y2="399.2720971999698" />
            <line stroke-width="1" stroke="#999999" x1="379.96478870489017" y1="340.3544134036501" x2="334.5857441246724" y2="399.2720971999698" />
            <line stroke-width="1" stroke="#999999" x1="334.5857441246724" y1="399.2720971999698" x2="361.6216421308821" y2="431.57248833472937" />
            <line stroke-width="0.3333333333333333" stroke="#999999" x1="252.92341419422215" y1="251.63000486575095" x2="278.1133453563496" y2="345.1699981880791" />
            <line stroke-width="0.3333333333333333" stroke="#999999" x1="252.92341419422215" y1="251.63000486575095" x2="200.39858686655057" y2="336.7246697122995" />
            <line stroke-width="0.3333333333333333" stroke="#999999" x1="252.92341419422215" y1="251.63000486575095" x2="218.6359609967148" y2="291.7448299017711" />
            <line stroke-width="0.75" stroke="#999999" x1="252.92341419422215" y1="251.63000486575095" x2="352.04699133869326" y2="264.44812611677014" />
            <line stroke-width="0.8" stroke="#999999" x1="311.44070959549714" y1="347.9222534868392" x2="252.92341419422215" y2="251.63000486575095" />
            <line stroke-width="0.3333333333333333" stroke="#999999" x1="282.4883044451805" y1="390.189818838296" x2="252.92341419422215" y2="251.63000486575095" />
            <line stroke-width="0.6666666666666666" stroke="#999999" x1="252.92341419422215" y1="251.63000486575095" x2="257.93222180246903" y2="295.6941632904154" />
            <line stroke-width="1" stroke="#999999" x1="278.1133453563496" y1="345.1699981880791" x2="200.39858686655057" y2="336.7246697122995" />
            <line stroke-width="1" stroke="#999999" x1="278.1133453563496" y1="345.1699981880791" x2="371.6377378233906" y2="306.3895578415476" />
            <line stroke-width="1" stroke="#999999" x1="218.6359609967148" y1="291.7448299017711" x2="278.1133453563496" y2="345.1699981880791" />
            <line stroke-width="0.4" stroke="#999999" x1="278.1133453563496" y1="345.1699981880791" x2="352.04699133869326" y2="264.44812611677014" />
            <line stroke-width="0.5" stroke="#999999" x1="413.1340767552854" y1="409.2150240238667" x2="278.1133453563496" y2="345.1699981880791" />
            <line stroke-width="1" stroke="#999999" x1="302.45514260872704" y1="274.9267645713677" x2="278.1133453563496" y2="345.1699981880791" />
            <line stroke-width="1" stroke="#999999" x1="209.33408938999776" y1="386.2643352456482" x2="278.1133453563496" y2="345.1699981880791" />
            <line stroke-width="0.5" stroke="#999999" x1="278.1133453563496" y1="345.1699981880791" x2="334.0232224142845" y2="326.30777120220563" />
            <line stroke-width="0.6" stroke="#999999" x1="311.44070959549714" y1="347.9222534868392" x2="278.1133453563496" y2="345.1699981880791" />
            <line stroke-width="1" stroke="#999999" x1="282.4883044451805" y1="390.189818838296" x2="278.1133453563496" y2="345.1699981880791" />
            <line stroke-width="0.5" stroke="#999999" x1="429.32650257060385" y1="357.9813073445758" x2="278.1133453563496" y2="345.1699981880791" />
            <line stroke-width="0.5" stroke="#999999" x1="278.1133453563496" y1="345.1699981880791" x2="382.47279071485684" y2="378.8461010968063" />
            <line stroke-width="0.5" stroke="#999999" x1="278.1133453563496" y1="345.1699981880791" x2="257.93222180246903" y2="295.6941632904154" />
            <line stroke-width="0.5" stroke="#999999" x1="278.1133453563496" y1="345.1699981880791" x2="421.3358063624267" y2="315.0071070385996" />
            <line stroke-width="0.6666666666666666" stroke="#999999" x1="379.96478870489017" y1="340.3544134036501" x2="278.1133453563496" y2="345.1699981880791" />
            <line stroke-width="0.5" stroke="#999999" x1="278.1133453563496" y1="345.1699981880791" x2="361.6216421308821" y2="431.57248833472937" />
            <line stroke-width="1" stroke="#999999" x1="218.6359609967148" y1="291.7448299017711" x2="200.39858686655057" y2="336.7246697122995" />
            <line stroke-width="0.3076923076923077" stroke="#999999" x1="352.04699133869326" y1="264.44812611677014" x2="200.39858686655057" y2="336.7246697122995" />
            <line stroke-width="1" stroke="#999999" x1="209.33408938999776" y1="386.2643352456482" x2="200.39858686655057" y2="336.7246697122995" />
            <line stroke-width="0.5" stroke="#999999" x1="311.44070959549714" y1="347.9222534868392" x2="200.39858686655057" y2="336.7246697122995" />
            <line stroke-width="1" stroke="#999999" x1="282.4883044451805" y1="390.189818838296" x2="200.39858686655057" y2="336.7246697122995" />
            <line stroke-width="0.5" stroke="#999999" x1="257.93222180246903" y1="295.6941632904154" x2="200.39858686655057" y2="336.7246697122995" />
            <line stroke-width="0.5" stroke="#999999" x1="413.1340767552854" y1="409.2150240238667" x2="371.6377378233906" y2="306.3895578415476" />
            <line stroke-width="0.5" stroke="#999999" x1="371.6377378233906" y1="306.3895578415476" x2="334.0232224142845" y2="326.30777120220563" />
            <line stroke-width="0.5" stroke="#999999" x1="311.44070959549714" y1="347.9222534868392" x2="371.6377378233906" y2="306.3895578415476" />
            <line stroke-width="1" stroke="#999999" x1="282.4883044451805" y1="390.189818838296" x2="371.6377378233906" y2="306.3895578415476" />
            <line stroke-width="0.5" stroke="#999999" x1="429.32650257060385" y1="357.9813073445758" x2="371.6377378233906" y2="306.3895578415476" />
            <line stroke-width="0.5" stroke="#999999" x1="371.6377378233906" y1="306.3895578415476" x2="382.47279071485684" y2="378.8461010968063" />
            <line stroke-width="0.5" stroke="#999999" x1="371.6377378233906" y1="306.3895578415476" x2="421.3358063624267" y2="315.0071070385996" />
            <line stroke-width="0.5" stroke="#999999" x1="379.96478870489017" y1="340.3544134036501" x2="371.6377378233906" y2="306.3895578415476" />
            <line stroke-width="0.5" stroke="#999999" x1="371.6377378233906" y1="306.3895578415476" x2="361.6216421308821" y2="431.57248833472937" />
            <line stroke-width="0.42857142857142855" stroke="#999999" x1="218.6359609967148" y1="291.7448299017711" x2="352.04699133869326" y2="264.44812611677014" />
            <line stroke-width="1" stroke="#999999" x1="302.45514260872704" y1="274.9267645713677" x2="218.6359609967148" y2="291.7448299017711" />
            <line stroke-width="0.5" stroke="#999999" x1="311.44070959549714" y1="347.9222534868392" x2="218.6359609967148" y2="291.7448299017711" />
            <line stroke-width="1" stroke="#999999" x1="282.4883044451805" y1="390.189818838296" x2="218.6359609967148" y2="291.7448299017711" />
            <line stroke-width="0.5" stroke="#999999" x1="218.6359609967148" y1="291.7448299017711" x2="257.93222180246903" y2="295.6941632904154" />
            <line stroke-width="0.6" stroke="#999999" x1="302.45514260872704" y1="274.9267645713677" x2="352.04699133869326" y2="264.44812611677014" />
            <line stroke-width="0.75" stroke="#999999" x1="311.44070959549714" y1="347.9222534868392" x2="352.04699133869326" y2="264.44812611677014" />
            <line stroke-width="0.25" stroke="#999999" x1="282.4883044451805" y1="390.189818838296" x2="352.04699133869326" y2="264.44812611677014" />
            <line stroke-width="1" stroke="#999999" x1="429.32650257060385" y1="357.9813073445758" x2="352.04699133869326" y2="264.44812611677014" />
            <line stroke-width="1" stroke="#999999" x1="352.04699133869326" y1="264.44812611677014" x2="382.47279071485684" y2="378.8461010968063" />
            <line stroke-width="0.5" stroke="#999999" x1="352.04699133869326" y1="264.44812611677014" x2="257.93222180246903" y2="295.6941632904154" />
            <line stroke-width="1" stroke="#999999" x1="352.04699133869326" y1="264.44812611677014" x2="365.8066758717774" y2="193.9556720759383" />
            <line stroke-width="1" stroke="#999999" x1="352.04699133869326" y1="264.44812611677014" x2="421.3358063624267" y2="315.0071070385996" />
            <line stroke-width="1" stroke="#999999" x1="352.04699133869326" y1="264.44812611677014" x2="404.63903926681536" y2="236.75523898738112" />
            <line stroke-width="1" stroke="#999999" x1="379.96478870489017" y1="340.3544134036501" x2="352.04699133869326" y2="264.44812611677014" />
            <line stroke-width="0.25" stroke="#999999" x1="413.1340767552854" y1="409.2150240238667" x2="334.0232224142845" y2="326.30777120220563" />
            <line stroke-width="1" stroke="#999999" x1="311.44070959549714" y1="347.9222534868392" x2="413.1340767552854" y2="409.2150240238667" />
            <line stroke-width="0.5" stroke="#999999" x1="413.1340767552854" y1="409.2150240238667" x2="282.4883044451805" y2="390.189818838296" />
            <line stroke-width="1" stroke="#999999" x1="413.1340767552854" y1="409.2150240238667" x2="429.32650257060385" y2="357.9813073445758" />
            <line stroke-width="1" stroke="#999999" x1="413.1340767552854" y1="409.2150240238667" x2="382.47279071485684" y2="378.8461010968063" />
            <line stroke-width="1" stroke="#999999" x1="413.1340767552854" y1="409.2150240238667" x2="421.3358063624267" y2="315.0071070385996" />
            <line stroke-width="1" stroke="#999999" x1="413.1340767552854" y1="409.2150240238667" x2="379.96478870489017" y2="340.3544134036501" />
            <line stroke-width="1" stroke="#999999" x1="413.1340767552854" y1="409.2150240238667" x2="361.6216421308821" y2="431.57248833472937" />
            <line stroke-width="1" stroke="#999999" x1="311.44070959549714" y1="347.9222534868392" x2="302.45514260872704" y2="274.9267645713677" />
            <line stroke-width="0.5" stroke="#999999" x1="302.45514260872704" y1="274.9267645713677" x2="365.8066758717774" y2="193.9556720759383" />
            <line stroke-width="1" stroke="#999999" x1="379.96478870489017" y1="340.3544134036501" x2="302.45514260872704" y2="274.9267645713677" />
            <line stroke-width="0.25" stroke="#999999" x1="311.44070959549714" y1="347.9222534868392" x2="334.0232224142845" y2="326.30777120220563" />
            <line stroke-width="0.5" stroke="#999999" x1="282.4883044451805" y1="390.189818838296" x2="334.0232224142845" y2="326.30777120220563" />
            <line stroke-width="0.25" stroke="#999999" x1="429.32650257060385" y1="357.9813073445758" x2="334.0232224142845" y2="326.30777120220563" />
            <line stroke-width="0.25" stroke="#999999" x1="334.0232224142845" y1="326.30777120220563" x2="382.47279071485684" y2="378.8461010968063" />
            <line stroke-width="0.25" stroke="#999999" x1="334.0232224142845" y1="326.30777120220563" x2="421.3358063624267" y2="315.0071070385996" />
            <line stroke-width="0.25" stroke="#999999" x1="379.96478870489017" y1="340.3544134036501" x2="334.0232224142845" y2="326.30777120220563" />
            <line stroke-width="0.25" stroke="#999999" x1="334.0232224142845" y1="326.30777120220563" x2="361.6216421308821" y2="431.57248833472937" />
            <line stroke-width="0.5" stroke="#999999" x1="311.44070959549714" y1="347.9222534868392" x2="282.4883044451805" y2="390.189818838296" />
            <line stroke-width="1" stroke="#999999" x1="311.44070959549714" y1="347.9222534868392" x2="429.32650257060385" y2="357.9813073445758" />
            <line stroke-width="1" stroke="#999999" x1="311.44070959549714" y1="347.9222534868392" x2="382.47279071485684" y2="378.8461010968063" />
            <line stroke-width="1" stroke="#999999" x1="311.44070959549714" y1="347.9222534868392" x2="257.93222180246903" y2="295.6941632904154" />
            <line stroke-width="1" stroke="#999999" x1="311.44070959549714" y1="347.9222534868392" x2="421.3358063624267" y2="315.0071070385996" />
            <line stroke-width="1" stroke="#999999" x1="311.44070959549714" y1="347.9222534868392" x2="379.96478870489017" y2="340.3544134036501" />
            <line stroke-width="1" stroke="#999999" x1="311.44070959549714" y1="347.9222534868392" x2="361.6216421308821" y2="431.57248833472937" />
            <line stroke-width="0.5" stroke="#999999" x1="282.4883044451805" y1="390.189818838296" x2="429.32650257060385" y2="357.9813073445758" />
            <line stroke-width="0.5" stroke="#999999" x1="282.4883044451805" y1="390.189818838296" x2="382.47279071485684" y2="378.8461010968063" />
            <line stroke-width="0.5" stroke="#999999" x1="282.4883044451805" y1="390.189818838296" x2="257.93222180246903" y2="295.6941632904154" />
            <line stroke-width="0.5" stroke="#999999" x1="282.4883044451805" y1="390.189818838296" x2="421.3358063624267" y2="315.0071070385996" />
            <line stroke-width="0.5" stroke="#999999" x1="282.4883044451805" y1="390.189818838296" x2="379.96478870489017" y2="340.3544134036501" />
            <line stroke-width="0.5" stroke="#999999" x1="282.4883044451805" y1="390.189818838296" x2="361.6216421308821" y2="431.57248833472937" />
            <line stroke-width="1" stroke="#999999" x1="429.32650257060385" y1="357.9813073445758" x2="382.47279071485684" y2="378.8461010968063" />
            <line stroke-width="1" stroke="#999999" x1="429.32650257060385" y1="357.9813073445758" x2="421.3358063624267" y2="315.0071070385996" />
            <line stroke-width="1" stroke="#999999" x1="379.96478870489017" y1="340.3544134036501" x2="429.32650257060385" y2="357.9813073445758" />
            <line stroke-width="1" stroke="#999999" x1="429.32650257060385" y1="357.9813073445758" x2="361.6216421308821" y2="431.57248833472937" />
            <line stroke-width="1" stroke="#999999" x1="421.3358063624267" y1="315.0071070385996" x2="382.47279071485684" y2="378.8461010968063" />
            <line stroke-width="1" stroke="#999999" x1="379.96478870489017" y1="340.3544134036501" x2="382.47279071485684" y2="378.8461010968063" />
            <line stroke-width="1" stroke="#999999" x1="382.47279071485684" y1="378.8461010968063" x2="361.6216421308821" y2="431.57248833472937" />
            <line stroke-width="1" stroke="#999999" x1="379.96478870489017" y1="340.3544134036501" x2="421.3358063624267" y2="315.0071070385996" />
            <line stroke-width="1" stroke="#999999" x1="421.3358063624267" y1="315.0071070385996" x2="361.6216421308821" y2="431.57248833472937" />
            <line stroke-width="1" stroke="#999999" x1="379.96478870489017" y1="340.3544134036501" x2="361.6216421308821" y2="431.57248833472937" />
        </g>
        <g class="nodes_TxBJkgnn">
            <g>
                <circle id="n_2386" r="5" fill="#99ccff" cx="326.0859221907174" cy="188.03877355281924">
                    <title>n_2386</title>
                </circle>
            </g>
            <g>
                <circle id="n_2387" r="5" fill="#99ccff" cx="17.40404746111857" cy="263.49017030682455">
                    <title>n_2387</title>
                </circle>
            </g>
            <g>
                <circle id="n_927" r="5" fill="#99ccff" cx="317.0204552328447" cy="246.57974166556914">
                    <title>n_927</title>
                </circle>
            </g>
            <g>
                <circle id="n_2382" r="5" fill="#99ccff" cx="334.5857441246724" cy="399.2720971999698">
                    <title>n_2382</title>
                </circle>
            </g>
            <g>
                <circle id="n_1380" r="5" fill="#99ccff" cx="252.92341419422215" cy="251.63000486575095">
                    <title>n_1380</title>
                </circle>
            </g>
            <g>
                <circle id="n_2015" r="5" fill="#99ccff" cx="278.1133453563496" cy="345.1699981880791">
                    <title>n_2015</title>
                </circle>
            </g>
            <g>
                <circle id="n_2191" r="5" fill="#99ccff" cx="200.39858686655057" cy="336.7246697122995">
                    <title>n_2191</title>
                </circle>
            </g>
            <g>
                <circle id="n_2358" r="5" fill="#99ccff" cx="157.1776415535338" cy="136.47045954047474">
                    <title>n_2358</title>
                </circle>
            </g>
            <g>
                <circle id="n_2127" r="5" fill="#99ccff" cx="371.6377378233906" cy="306.3895578415476">
                    <title>n_2127</title>
                </circle>
            </g>
            <g>
                <circle id="n_1864" r="5" fill="#99ccff" cx="218.6359609967148" cy="291.7448299017711">
                    <title>n_1864</title>
                </circle>
            </g>
            <g>
                <circle id="n_2022" r="5" fill="#99ccff" cx="352.04699133869326" cy="264.44812611677014">
                    <title>n_2022</title>
                </circle>
            </g>
            <g>
                <circle id="n_246" r="5" fill="#99ccff" cx="413.1340767552854" cy="409.2150240238667">
                    <title>n_246</title>
                </circle>
            </g>
            <g>
                <circle id="n_1691" r="5" fill="#99ccff" cx="302.45514260872704" cy="274.9267645713677">
                    <title>n_1691</title>
                </circle>
            </g>
            <g>
                <circle id="n_797" r="5" fill="#99ccff" cx="209.33408938999776" cy="386.2643352456482">
                    <title>n_797</title>
                </circle>
            </g>
            <g>
                <circle id="n_2388" r="5" fill="#99ccff" cx="194.5984057483644" cy="508.715713386233">
                    <title>n_2388</title>
                </circle>
            </g>
            <g>
                <circle id="n_2186" r="5" fill="#99ccff" cx="334.0232224142845" cy="326.30777120220563">
                    <title>n_2186</title>
                </circle>
            </g>
            <g>
                <circle id="n_157" r="5" fill="#99ccff" cx="311.44070959549714" cy="347.9222534868392">
                    <title>n_157</title>
                </circle>
            </g>
            <g>
                <circle id="n_729" r="5" fill="#99ccff" cx="282.4883044451805" cy="390.189818838296">
                    <title>n_729</title>
                </circle>
            </g>
            <g>
                <circle id="n_1344" r="5" fill="#99ccff" cx="429.32650257060385" cy="357.9813073445758">
                    <title>n_1344</title>
                </circle>
            </g>
            <g>
                <circle id="n_2383" r="5" fill="#99ccff" cx="382.47279071485684" cy="378.8461010968063">
                    <title>n_2383</title>
                </circle>
            </g>
            <g>
                <circle id="n_2130" r="5" fill="#99ccff" cx="257.93222180246903" cy="295.6941632904154">
                    <title>n_2130</title>
                </circle>
            </g>
            <g>
                <circle id="n_2357" r="5" fill="#99ccff" cx="365.8066758717774" cy="193.9556720759383">
                    <title>n_2357</title>
                </circle>
            </g>
            <g>
                <circle id="n_2032" r="5" fill="#99ccff" cx="56.210302091887925" cy="395.77794847920296">
                    <title>n_2032</title>
                </circle>
            </g>
            <g>
                <circle id="n_2264" r="5" fill="#99ccff" cx="421.3358063624267" cy="315.0071070385996">
                    <title>n_2264</title>
                </circle>
            </g>
            <g>
                <circle id="n_2355" r="5" fill="#99ccff" cx="404.63903926681536" cy="236.75523898738112">
                    <title>n_2355</title>
                </circle>
            </g>
            <g>
                <circle id="n_2389" r="5" fill="#99ccff" cx="110.42255479946367" cy="226.02230550901618">
                    <title>n_2389</title>
                </circle>
            </g>
            <g>
                <circle id="n_2390" r="5" fill="#99ccff" cx="477.343674751202" cy="71.27670098099988">
                    <title>n_2390</title>
                </circle>
            </g>
            <g>
                <circle id="n_917" r="5" fill="#99ccff" cx="379.96478870489017" cy="340.3544134036501">
                    <title>n_917</title>
                </circle>
            </g>
            <g>
                <circle id="n_2213" r="5" fill="#99ccff" cx="249.662563315046" cy="162.0684616780317">
                    <title>n_2213</title>
                </circle>
            </g>
            <g>
                <circle id="n_2391" r="5" fill="#99ccff" cx="529.7748895001388" cy="221.23835567320532">
                    <title>n_2391</title>
                </circle>
            </g>
            <g>
                <circle id="n_2392" r="5" fill="#99ccff" cx="361.6216421308821" cy="431.57248833472937">
                    <title>n_2392</title>
                </circle>
            </g>
        </g>
    </g>
</svg>