<svg xmlns="http://www.w3.org/2000/svg" width="600" height="600" id="ErPtWMnx">        
    <text x="20" y="20" font-family="sans-serif" font-size="14px" fill="#666" style="cursor: pointer" id="ErPtWMnx_svg_txt">[save svg]</text>
<defs><marker id="end" viewBox="0 -5 20 20" refX="34" refY="0" markerWidth="15" markerHeight="15" orient="auto"><path d="M0,-5 L20,0 L0,5 z" fill="#999" stroke="none"/></marker></defs><g class="everything" transform="translate(212.0670347667139,67.96059106078599) scale(1.0000000000000004)"><g class="links_ErPtWMnx"><line stroke-width="0.15457413249211358" stroke="#999999" x1="-19.07083274759869" y1="217.61002655996612" x2="0.10058530151120658" y2="168.72417780173856"/><line stroke-width="0.031545741324921134" stroke="#999999" x1="-19.07083274759869" y1="217.61002655996612" x2="-66.16722448983478" y2="234.10054452671662"/><line stroke-width="0.03785488958990536" stroke="#999999" x1="-19.07083274759869" y1="217.61002655996612" x2="-78.52574662996678" y2="161.02238360095032"/><line stroke-width="0.0031545741324921135" stroke="#999999" x1="-19.07083274759869" y1="217.61002655996612" x2="43.348656642322624" y2="239.8265940841793"/><line stroke-width="0.06309148264984227" stroke="#999999" x1="-19.07083274759869" y1="217.61002655996612" x2="-82.846380750248" y2="208.09301689370187"/><line stroke-width="0.0694006309148265" stroke="#999999" x1="-19.07083274759869" y1="217.61002655996612" x2="71.98418551981291" y2="154.04173514213045"/><line stroke-width="0.056782334384858045" stroke="#999999" x1="-19.07083274759869" y1="217.61002655996612" x2="-151.30850362543129" y2="126.49855828892402"/><line stroke-width="0.056782334384858045" stroke="#999999" x1="-19.07083274759869" y1="217.61002655996612" x2="57.73810782945398" y2="103.08588427245152"/><line stroke-width="0.0031545741324921135" stroke="#999999" x1="-19.07083274759869" y1="217.61002655996612" x2="19.164160691560475" y2="117.83745685660368"/><line stroke-width="0.2082018927444795" stroke="#999999" x1="-19.07083274759869" y1="217.61002655996612" x2="-108.06737731027765" y2="272.45577779531993"/><line stroke-width="0.22712933753943218" stroke="#999999" x1="-19.07083274759869" y1="217.61002655996612" x2="-46.98502872561116" y2="149.93406777443508"/><line stroke-width="0.29337539432176657" stroke="#999999" x1="-19.07083274759869" y1="217.61002655996612" x2="-34.24352125563036" y2="180.88971481110937"/><line stroke-width="0.00946372239747634" stroke="#999999" x1="-19.07083274759869" y1="217.61002655996612" x2="54.30746326238452" y2="211.60161846317519"/><line stroke-width="0.03785488958990536" stroke="#999999" x1="-19.07083274759869" y1="217.61002655996612" x2="-175.67881126357508" y2="219.809789737029"/><line stroke-width="0.00946372239747634" stroke="#999999" x1="-19.07083274759869" y1="217.61002655996612" x2="-31.241684559104772" y2="316.559419823071"/><line stroke-width="0.015772870662460567" stroke="#999999" x1="-19.07083274759869" y1="217.61002655996612" x2="-87.11102982655667" y2="246.43958523940717"/><line stroke-width="0.03785488958990536" stroke="#999999" x1="-19.07083274759869" y1="217.61002655996612" x2="-112.53146652737759" y2="202.79123130061544"/><line stroke-width="0.022082018927444796" stroke="#999999" x1="-19.07083274759869" y1="217.61002655996612" x2="24.586665399059388" y2="312.66975262300184"/><line stroke-width="0.031545741324921134" stroke="#999999" x1="-19.07083274759869" y1="217.61002655996612" x2="-152.01101773474485" y2="239.62620131596054"/><line stroke-width="0.1451104100946372" stroke="#999999" x1="-19.07083274759869" y1="217.61002655996612" x2="-73.2951455303622" y2="335.7708160458779"/><line stroke-width="0.006309148264984227" stroke="#999999" x1="-19.07083274759869" y1="217.61002655996612" x2="-147.8338664710929" y2="277.3100738526126"/><line stroke-width="0.006309148264984227" stroke="#999999" x1="-19.07083274759869" y1="217.61002655996612" x2="11.65218526289206" y2="68.96789502766687"/><line stroke-width="0.0031545741324921135" stroke="#999999" x1="-19.07083274759869" y1="217.61002655996612" x2="27.257422954062395" y2="264.17414722536535"/><line stroke-width="0.015772870662460567" stroke="#999999" x1="-19.07083274759869" y1="217.61002655996612" x2="-63.70008720574944" y2="207.13593887189913"/><line stroke-width="0.01892744479495268" stroke="#999999" x1="-19.07083274759869" y1="217.61002655996612" x2="14.461694439510744" y2="197.80936442111673"/><line stroke-width="0.006309148264984227" stroke="#999999" x1="-19.07083274759869" y1="217.61002655996612" x2="4.227064722716196" y2="142.19670215061922"/><line stroke-width="0.056782334384858045" stroke="#999999" x1="-19.07083274759869" y1="217.61002655996612" x2="77.41801843429901" y2="131.36260515894372"/><line stroke-width="0.04100946372239747" stroke="#999999" x1="-19.07083274759869" y1="217.61002655996612" x2="-131.98729772092315" y2="195.70482265006055"/><line stroke-width="0.0031545741324921135" stroke="#999999" x1="-19.07083274759869" y1="217.61002655996612" x2="-63.47315022338154" y2="257.3266351095363"/><line stroke-width="0.0031545741324921135" stroke="#999999" x1="-19.07083274759869" y1="217.61002655996612" x2="37.556978823544995" y2="134.86573830867903"/><line stroke-width="0.04416403785488959" stroke="#999999" x1="-19.07083274759869" y1="217.61002655996612" x2="-160.53413410290938" y2="167.88795863502543"/><line stroke-width="0.0725552050473186" stroke="#999999" x1="-19.07083274759869" y1="217.61002655996612" x2="74.17035697563374" y2="177.58540894551618"/><line stroke-width="0.006309148264984227" stroke="#999999" x1="-19.07083274759869" y1="217.61002655996612" x2="-135.19744048136886" y2="301.2466168514432"/><line stroke-width="0.031545741324921134" stroke="#999999" x1="-19.07083274759869" y1="217.61002655996612" x2="-105.92193481331911" y2="87.18819507449867"/><line stroke-width="0.04100946372239748" stroke="#999999" x1="-19.07083274759869" y1="217.61002655996612" x2="-52.28567534085377" y2="287.8929503622275"/><line stroke-width="0.022082018927444796" stroke="#999999" x1="-19.07083274759869" y1="217.61002655996612" x2="0.7258689909767385" y2="304.4855656138558"/><line stroke-width="0.0031545741324921135" stroke="#999999" x1="-19.07083274759869" y1="217.61002655996612" x2="18.0636223117541" y2="240.5283423919684"/><line stroke-width="0.0031545741324921135" stroke="#999999" x1="-19.07083274759869" y1="217.61002655996612" x2="-41.05931815280462" y2="214.02331389915014"/><line stroke-width="0.031545741324921134" stroke="#999999" x1="-19.07083274759869" y1="217.61002655996612" x2="-112.25772345755253" y2="144.0501903553112"/><line stroke-width="0.0031545741324921135" stroke="#999999" x1="-19.07083274759869" y1="217.61002655996612" x2="184.35273140269774" y2="278.190329009952"/><line stroke-width="0.044164037854889586" stroke="#999999" x1="-19.07083274759869" y1="217.61002655996612" x2="19.090523160974897" y2="217.52184122247596"/><line stroke-width="0.028391167192429023" stroke="#999999" x1="-19.07083274759869" y1="217.61002655996612" x2="-131.44285071085483" y2="166.11589126326396"/><line stroke-width="0.006309148264984227" stroke="#999999" x1="-19.07083274759869" y1="217.61002655996612" x2="6.743308947941239" y2="264.00823146437426"/><line stroke-width="0.025236593059936908" stroke="#999999" x1="-19.07083274759869" y1="217.61002655996612" x2="-36.48178745755384" y2="342.6562250596145"/><line stroke-width="0.022082018927444793" stroke="#999999" x1="-19.07083274759869" y1="217.61002655996612" x2="-109.27526457182303" y2="311.72918188999125"/><line stroke-width="0.0031545741324921135" stroke="#999999" x1="-19.07083274759869" y1="217.61002655996612" x2="-53.80225256012022" y2="123.55808522315918"/><line stroke-width="0.00946372239747634" stroke="#999999" x1="-19.07083274759869" y1="217.61002655996612" x2="-34.03200030971981" y2="261.3576377876057"/><line stroke-width="0.36363636363636365" stroke="#999999" x1="0.10058530151120658" y1="168.72417780173856" x2="-19.07083274759869" y2="217.61002655996612"/><line stroke-width="0.030303030303030304" stroke="#999999" x1="0.10058530151120658" y1="168.72417780173856" x2="-78.52574662996678" y2="161.02238360095032"/><line stroke-width="0.06060606060606061" stroke="#999999" x1="0.10058530151120658" y1="168.72417780173856" x2="-82.846380750248" y2="208.09301689370187"/><line stroke-width="0.030303030303030304" stroke="#999999" x1="0.10058530151120658" y1="168.72417780173856" x2="71.98418551981291" y2="154.04173514213045"/><line stroke-width="0.21212121212121213" stroke="#999999" x1="0.10058530151120658" y1="168.72417780173856" x2="-151.30850362543129" y2="126.49855828892402"/><line stroke-width="0.030303030303030304" stroke="#999999" x1="0.10058530151120658" y1="168.72417780173856" x2="57.73810782945398" y2="103.08588427245152"/><line stroke-width="0.030303030303030304" stroke="#999999" x1="0.10058530151120658" y1="168.72417780173856" x2="-108.06737731027765" y2="272.45577779531993"/><line stroke-width="0.030303030303030304" stroke="#999999" x1="0.10058530151120658" y1="168.72417780173856" x2="-46.98502872561116" y2="149.93406777443508"/><line stroke-width="0.15151515151515152" stroke="#999999" x1="0.10058530151120658" y1="168.72417780173856" x2="-34.24352125563036" y2="180.88971481110937"/><line stroke-width="0.030303030303030304" stroke="#999999" x1="0.10058530151120658" y1="168.72417780173856" x2="-87.11102982655667" y2="246.43958523940717"/><line stroke-width="0.06060606060606061" stroke="#999999" x1="0.10058530151120658" y1="168.72417780173856" x2="-73.2951455303622" y2="335.7708160458779"/><line stroke-width="0.030303030303030304" stroke="#999999" x1="0.10058530151120658" y1="168.72417780173856" x2="14.461694439510744" y2="197.80936442111673"/><line stroke-width="0.030303030303030304" stroke="#999999" x1="0.10058530151120658" y1="168.72417780173856" x2="77.41801843429901" y2="131.36260515894372"/><line stroke-width="0.030303030303030304" stroke="#999999" x1="0.10058530151120658" y1="168.72417780173856" x2="-131.98729772092315" y2="195.70482265006055"/><line stroke-width="0.030303030303030304" stroke="#999999" x1="0.10058530151120658" y1="168.72417780173856" x2="74.17035697563374" y2="177.58540894551618"/><line stroke-width="0.8333333333333333" stroke="#999999" x1="-66.16722448983478" y1="234.10054452671662" x2="-19.07083274759869" y2="217.61002655996612"/><line stroke-width="0.16666666666666666" stroke="#999999" x1="-66.16722448983478" y1="234.10054452671662" x2="-82.846380750248" y2="208.09301689370187"/><line stroke-width="0.16666666666666666" stroke="#999999" x1="-66.16722448983478" y1="234.10054452671662" x2="-151.30850362543129" y2="126.49855828892402"/><line stroke-width="0.5" stroke="#999999" x1="-66.16722448983478" y1="234.10054452671662" x2="-108.06737731027765" y2="272.45577779531993"/><line stroke-width="0.3333333333333333" stroke="#999999" x1="-66.16722448983478" y1="234.10054452671662" x2="-46.98502872561116" y2="149.93406777443508"/><line stroke-width="0.16666666666666666" stroke="#999999" x1="-66.16722448983478" y1="234.10054452671662" x2="-73.2951455303622" y2="335.7708160458779"/><line stroke-width="0.3333333333333333" stroke="#999999" x1="-66.16722448983478" y1="234.10054452671662" x2="-34.03200030971981" y2="261.3576377876057"/><line stroke-width="0.75" stroke="#999999" x1="-78.52574662996678" y1="161.02238360095032" x2="-19.07083274759869" y2="217.61002655996612"/><line stroke-width="0.25" stroke="#999999" x1="-78.52574662996678" y1="161.02238360095032" x2="0.10058530151120658" y2="168.72417780173856"/><line stroke-width="0.5" stroke="#999999" x1="-78.52574662996678" y1="161.02238360095032" x2="-151.30850362543129" y2="126.49855828892402"/><line stroke-width="0.25" stroke="#999999" x1="-78.52574662996678" y1="161.02238360095032" x2="-108.06737731027765" y2="272.45577779531993"/><line stroke-width="0.25" stroke="#999999" x1="-78.52574662996678" y1="161.02238360095032" x2="-46.98502872561116" y2="149.93406777443508"/><line stroke-width="0.5" stroke="#999999" x1="-78.52574662996678" y1="161.02238360095032" x2="-34.24352125563036" y2="180.88971481110937"/><line stroke-width="0.25" stroke="#999999" x1="-78.52574662996678" y1="161.02238360095032" x2="-175.67881126357508" y2="219.809789737029"/><line stroke-width="0.25" stroke="#999999" x1="-78.52574662996678" y1="161.02238360095032" x2="-112.53146652737759" y2="202.79123130061544"/><line stroke-width="0.25" stroke="#999999" x1="-78.52574662996678" y1="161.02238360095032" x2="-152.01101773474485" y2="239.62620131596054"/><line stroke-width="0.25" stroke="#999999" x1="-78.52574662996678" y1="161.02238360095032" x2="14.461694439510744" y2="197.80936442111673"/><line stroke-width="0.25" stroke="#999999" x1="-78.52574662996678" y1="161.02238360095032" x2="4.227064722716196" y2="142.19670215061922"/><line stroke-width="0.25" stroke="#999999" x1="-78.52574662996678" y1="161.02238360095032" x2="77.41801843429901" y2="131.36260515894372"/><line stroke-width="0.25" stroke="#999999" x1="-78.52574662996678" y1="161.02238360095032" x2="-131.98729772092315" y2="195.70482265006055"/><line stroke-width="0.25" stroke="#999999" x1="-78.52574662996678" y1="161.02238360095032" x2="-160.53413410290938" y2="167.88795863502543"/><line stroke-width="0.25" stroke="#999999" x1="-78.52574662996678" y1="161.02238360095032" x2="-105.92193481331911" y2="87.18819507449867"/><line stroke-width="0.25" stroke="#999999" x1="-78.52574662996678" y1="161.02238360095032" x2="-112.25772345755253" y2="144.0501903553112"/><line stroke-width="0.25" stroke="#999999" x1="-78.52574662996678" y1="161.02238360095032" x2="-131.44285071085483" y2="166.11589126326396"/><line stroke-width="1" stroke="#999999" x1="43.348656642322624" y1="239.8265940841793" x2="-19.07083274759869" y2="217.61002655996612"/><line stroke-width="0.625" stroke="#999999" x1="-82.846380750248" y1="208.09301689370187" x2="-19.07083274759869" y2="217.61002655996612"/><line stroke-width="0.125" stroke="#999999" x1="-82.846380750248" y1="208.09301689370187" x2="0.10058530151120658" y2="168.72417780173856"/><line stroke-width="0.125" stroke="#999999" x1="-82.846380750248" y1="208.09301689370187" x2="-66.16722448983478" y2="234.10054452671662"/><line stroke-width="0.25" stroke="#999999" x1="-82.846380750248" y1="208.09301689370187" x2="-151.30850362543129" y2="126.49855828892402"/><line stroke-width="0.375" stroke="#999999" x1="-82.846380750248" y1="208.09301689370187" x2="-108.06737731027765" y2="272.45577779531993"/><line stroke-width="0.25" stroke="#999999" x1="-82.846380750248" y1="208.09301689370187" x2="-46.98502872561116" y2="149.93406777443508"/><line stroke-width="0.125" stroke="#999999" x1="-82.846380750248" y1="208.09301689370187" x2="-34.24352125563036" y2="180.88971481110937"/><line stroke-width="0.125" stroke="#999999" x1="-82.846380750248" y1="208.09301689370187" x2="-73.2951455303622" y2="335.7708160458779"/><line stroke-width="0.125" stroke="#999999" x1="-82.846380750248" y1="208.09301689370187" x2="14.461694439510744" y2="197.80936442111673"/><line stroke-width="1" stroke="#999999" x1="-95.99613268607176" y1="125.3976646134549" x2="-151.30850362543129" y2="126.49855828892402"/><line stroke-width="1" stroke="#999999" x1="-95.99613268607176" y1="125.3976646134549" x2="-34.24352125563036" y2="180.88971481110937"/><line stroke-width="1" stroke="#999999" x1="71.98418551981291" y1="154.04173514213045" x2="-19.07083274759869" y2="217.61002655996612"/><line stroke-width="0.3333333333333333" stroke="#999999" x1="71.98418551981291" y1="154.04173514213045" x2="0.10058530151120658" y2="168.72417780173856"/><line stroke-width="0.3333333333333333" stroke="#999999" x1="71.98418551981291" y1="154.04173514213045" x2="57.73810782945398" y2="103.08588427245152"/><line stroke-width="0.6666666666666666" stroke="#999999" x1="71.98418551981291" y1="154.04173514213045" x2="-46.98502872561116" y2="149.93406777443508"/><line stroke-width="0.3333333333333333" stroke="#999999" x1="71.98418551981291" y1="154.04173514213045" x2="-34.24352125563036" y2="180.88971481110937"/><line stroke-width="0.3333333333333333" stroke="#999999" x1="71.98418551981291" y1="154.04173514213045" x2="4.227064722716196" y2="142.19670215061922"/><line stroke-width="0.3333333333333333" stroke="#999999" x1="71.98418551981291" y1="154.04173514213045" x2="77.41801843429901" y2="131.36260515894372"/><line stroke-width="0.3333333333333333" stroke="#999999" x1="71.98418551981291" y1="154.04173514213045" x2="74.17035697563374" y2="177.58540894551618"/><line stroke-width="0.1388888888888889" stroke="#999999" x1="-151.30850362543129" y1="126.49855828892402" x2="-19.07083274759869" y2="217.61002655996612"/><line stroke-width="0.08333333333333333" stroke="#999999" x1="-151.30850362543129" y1="126.49855828892402" x2="0.10058530151120658" y2="168.72417780173856"/><line stroke-width="0.027777777777777776" stroke="#999999" x1="-151.30850362543129" y1="126.49855828892402" x2="-66.16722448983478" y2="234.10054452671662"/><line stroke-width="0.05555555555555555" stroke="#999999" x1="-151.30850362543129" y1="126.49855828892402" x2="-78.52574662996678" y2="161.02238360095032"/><line stroke-width="0.08333333333333333" stroke="#999999" x1="-151.30850362543129" y1="126.49855828892402" x2="-82.846380750248" y2="208.09301689370187"/><line stroke-width="0.027777777777777776" stroke="#999999" x1="-151.30850362543129" y1="126.49855828892402" x2="-95.99613268607176" y2="125.3976646134549"/><line stroke-width="0.027777777777777776" stroke="#999999" x1="-151.30850362543129" y1="126.49855828892402" x2="57.73810782945398" y2="103.08588427245152"/><line stroke-width="0.08333333333333333" stroke="#999999" x1="-151.30850362543129" y1="126.49855828892402" x2="-108.06737731027765" y2="272.45577779531993"/><line stroke-width="0.08333333333333333" stroke="#999999" x1="-151.30850362543129" y1="126.49855828892402" x2="-46.98502872561116" y2="149.93406777443508"/><line stroke-width="0.1388888888888889" stroke="#999999" x1="-151.30850362543129" y1="126.49855828892402" x2="-34.24352125563036" y2="180.88971481110937"/><line stroke-width="0.05555555555555555" stroke="#999999" x1="-151.30850362543129" y1="126.49855828892402" x2="-175.67881126357508" y2="219.809789737029"/><line stroke-width="0.027777777777777776" stroke="#999999" x1="-151.30850362543129" y1="126.49855828892402" x2="-112.53146652737759" y2="202.79123130061544"/><line stroke-width="0.027777777777777776" stroke="#999999" x1="-151.30850362543129" y1="126.49855828892402" x2="-152.01101773474485" y2="239.62620131596054"/><line stroke-width="0.027777777777777776" stroke="#999999" x1="-151.30850362543129" y1="126.49855828892402" x2="-131.98729772092315" y2="195.70482265006055"/><line stroke-width="0.08333333333333333" stroke="#999999" x1="-151.30850362543129" y1="126.49855828892402" x2="-160.53413410290938" y2="167.88795863502543"/><line stroke-width="0.027777777777777776" stroke="#999999" x1="-151.30850362543129" y1="126.49855828892402" x2="-105.92193481331911" y2="87.18819507449867"/><line stroke-width="0.027777777777777776" stroke="#999999" x1="-151.30850362543129" y1="126.49855828892402" x2="-112.25772345755253" y2="144.0501903553112"/><line stroke-width="0.027777777777777776" stroke="#999999" x1="-151.30850362543129" y1="126.49855828892402" x2="-131.44285071085483" y2="166.11589126326396"/><line stroke-width="0.5" stroke="#999999" x1="57.73810782945398" y1="103.08588427245152" x2="-19.07083274759869" y2="217.61002655996612"/><line stroke-width="0.5" stroke="#999999" x1="57.73810782945398" y1="103.08588427245152" x2="0.10058530151120658" y2="168.72417780173856"/><line stroke-width="0.5" stroke="#999999" x1="57.73810782945398" y1="103.08588427245152" x2="71.98418551981291" y2="154.04173514213045"/><line stroke-width="0.5" stroke="#999999" x1="57.73810782945398" y1="103.08588427245152" x2="-151.30850362543129" y2="126.49855828892402"/><line stroke-width="0.5" stroke="#999999" x1="57.73810782945398" y1="103.08588427245152" x2="-46.98502872561116" y2="149.93406777443508"/><line stroke-width="0.5" stroke="#999999" x1="57.73810782945398" y1="103.08588427245152" x2="77.41801843429901" y2="131.36260515894372"/><line stroke-width="0.5" stroke="#999999" x1="57.73810782945398" y1="103.08588427245152" x2="74.17035697563374" y2="177.58540894551618"/><line stroke-width="1" stroke="#999999" x1="-37.697582410016" y1="70.1973990795448" x2="-46.98502872561116" y2="149.93406777443508"/><line stroke-width="1" stroke="#999999" x1="-37.697582410016" y1="70.1973990795448" x2="-34.24352125563036" y2="180.88971481110937"/><line stroke-width="1" stroke="#999999" x1="-37.697582410016" y1="70.1973990795448" x2="11.65218526289206" y2="68.96789502766687"/><line stroke-width="1" stroke="#999999" x1="-37.697582410016" y1="70.1973990795448" x2="-105.92193481331911" y2="87.18819507449867"/><line stroke-width="1" stroke="#999999" x1="19.164160691560475" y1="117.83745685660368" x2="-19.07083274759869" y2="217.61002655996612"/><line stroke-width="1" stroke="#999999" x1="19.164160691560475" y1="117.83745685660368" x2="11.65218526289206" y2="68.96789502766687"/><line stroke-width="0.6730769230769231" stroke="#999999" x1="-108.06737731027765" y1="272.45577779531993" x2="-19.07083274759869" y2="217.61002655996612"/><line stroke-width="0.019230769230769232" stroke="#999999" x1="-108.06737731027765" y1="272.45577779531993" x2="0.10058530151120658" y2="168.72417780173856"/><line stroke-width="0.038461538461538464" stroke="#999999" x1="-108.06737731027765" y1="272.45577779531993" x2="-66.16722448983478" y2="234.10054452671662"/><line stroke-width="0.07692307692307693" stroke="#999999" x1="-108.06737731027765" y1="272.45577779531993" x2="-78.52574662996678" y2="161.02238360095032"/><line stroke-width="0.057692307692307696" stroke="#999999" x1="-108.06737731027765" y1="272.45577779531993" x2="-82.846380750248" y2="208.09301689370187"/><line stroke-width="0.09615384615384616" stroke="#999999" x1="-108.06737731027765" y1="272.45577779531993" x2="-151.30850362543129" y2="126.49855828892402"/><line stroke-width="0.13461538461538464" stroke="#999999" x1="-108.06737731027765" y1="272.45577779531993" x2="-46.98502872561116" y2="149.93406777443508"/><line stroke-width="0.2884615384615385" stroke="#999999" x1="-108.06737731027765" y1="272.45577779531993" x2="-34.24352125563036" y2="180.88971481110937"/><line stroke-width="0.15384615384615385" stroke="#999999" x1="-108.06737731027765" y1="272.45577779531993" x2="-175.67881126357508" y2="219.809789737029"/><line stroke-width="0.019230769230769232" stroke="#999999" x1="-108.06737731027765" y1="272.45577779531993" x2="-31.241684559104772" y2="316.559419823071"/><line stroke-width="0.07692307692307693" stroke="#999999" x1="-108.06737731027765" y1="272.45577779531993" x2="-112.53146652737759" y2="202.79123130061544"/><line stroke-width="0.07692307692307693" stroke="#999999" x1="-108.06737731027765" y1="272.45577779531993" x2="-152.01101773474485" y2="239.62620131596054"/><line stroke-width="0.038461538461538464" stroke="#999999" x1="-108.06737731027765" y1="272.45577779531993" x2="-73.2951455303622" y2="335.7708160458779"/><line stroke-width="0.019230769230769232" stroke="#999999" x1="-108.06737731027765" y1="272.45577779531993" x2="-63.70008720574944" y2="207.13593887189913"/><line stroke-width="0.019230769230769232" stroke="#999999" x1="-108.06737731027765" y1="272.45577779531993" x2="14.461694439510744" y2="197.80936442111673"/><line stroke-width="0.07692307692307693" stroke="#999999" x1="-108.06737731027765" y1="272.45577779531993" x2="-131.98729772092315" y2="195.70482265006055"/><line stroke-width="0.09615384615384616" stroke="#999999" x1="-108.06737731027765" y1="272.45577779531993" x2="-63.47315022338154" y2="257.3266351095363"/><line stroke-width="0.07692307692307693" stroke="#999999" x1="-108.06737731027765" y1="272.45577779531993" x2="-160.53413410290938" y2="167.88795863502543"/><line stroke-width="0.07692307692307693" stroke="#999999" x1="-108.06737731027765" y1="272.45577779531993" x2="-105.92193481331911" y2="87.18819507449867"/><line stroke-width="0.038461538461538464" stroke="#999999" x1="-108.06737731027765" y1="272.45577779531993" x2="-52.28567534085377" y2="287.8929503622275"/><line stroke-width="0.07692307692307693" stroke="#999999" x1="-108.06737731027765" y1="272.45577779531993" x2="-112.25772345755253" y2="144.0501903553112"/><line stroke-width="0.07692307692307693" stroke="#999999" x1="-108.06737731027765" y1="272.45577779531993" x2="-131.44285071085483" y2="166.11589126326396"/><line stroke-width="0.019230769230769232" stroke="#999999" x1="-108.06737731027765" y1="272.45577779531993" x2="-36.48178745755384" y2="342.6562250596145"/><line stroke-width="0.019230769230769232" stroke="#999999" x1="-108.06737731027765" y1="272.45577779531993" x2="-34.03200030971981" y2="261.3576377876057"/><line stroke-width="0.75" stroke="#999999" x1="-46.98502872561116" y1="149.93406777443508" x2="-19.07083274759869" y2="217.61002655996612"/><line stroke-width="0.03571428571428571" stroke="#999999" x1="-46.98502872561116" y1="149.93406777443508" x2="0.10058530151120658" y2="168.72417780173856"/><line stroke-width="0.017857142857142856" stroke="#999999" x1="-46.98502872561116" y1="149.93406777443508" x2="-66.16722448983478" y2="234.10054452671662"/><line stroke-width="0.08928571428571429" stroke="#999999" x1="-46.98502872561116" y1="149.93406777443508" x2="-78.52574662996678" y2="161.02238360095032"/><line stroke-width="0.07142857142857142" stroke="#999999" x1="-46.98502872561116" y1="149.93406777443508" x2="-82.846380750248" y2="208.09301689370187"/><line stroke-width="0.07142857142857142" stroke="#999999" x1="-46.98502872561116" y1="149.93406777443508" x2="71.98418551981291" y2="154.04173514213045"/><line stroke-width="0.125" stroke="#999999" x1="-46.98502872561116" y1="149.93406777443508" x2="-151.30850362543129" y2="126.49855828892402"/><line stroke-width="0.03571428571428571" stroke="#999999" x1="-46.98502872561116" y1="149.93406777443508" x2="57.73810782945398" y2="103.08588427245152"/><line stroke-width="0.017857142857142856" stroke="#999999" x1="-46.98502872561116" y1="149.93406777443508" x2="-37.697582410016" y2="70.1973990795448"/><line stroke-width="0.3035714285714286" stroke="#999999" x1="-46.98502872561116" y1="149.93406777443508" x2="-108.06737731027765" y2="272.45577779531993"/><line stroke-width="0.35714285714285715" stroke="#999999" x1="-46.98502872561116" y1="149.93406777443508" x2="-34.24352125563036" y2="180.88971481110937"/><line stroke-width="0.08928571428571429" stroke="#999999" x1="-46.98502872561116" y1="149.93406777443508" x2="-175.67881126357508" y2="219.809789737029"/><line stroke-width="0.08928571428571429" stroke="#999999" x1="-46.98502872561116" y1="149.93406777443508" x2="-112.53146652737759" y2="202.79123130061544"/><line stroke-width="0.08928571428571429" stroke="#999999" x1="-46.98502872561116" y1="149.93406777443508" x2="-152.01101773474485" y2="239.62620131596054"/><line stroke-width="0.017857142857142856" stroke="#999999" x1="-46.98502872561116" y1="149.93406777443508" x2="-73.2951455303622" y2="335.7708160458779"/><line stroke-width="0.017857142857142856" stroke="#999999" x1="-46.98502872561116" y1="149.93406777443508" x2="-27.236272780890193" y2="98.24028112522329"/><line stroke-width="0.017857142857142856" stroke="#999999" x1="-46.98502872561116" y1="149.93406777443508" x2="11.65218526289206" y2="68.96789502766687"/><line stroke-width="0.16071428571428573" stroke="#999999" x1="-46.98502872561116" y1="149.93406777443508" x2="-63.70008720574944" y2="207.13593887189913"/><line stroke-width="0.03571428571428571" stroke="#999999" x1="-46.98502872561116" y1="149.93406777443508" x2="4.227064722716196" y2="142.19670215061922"/><line stroke-width="0.03571428571428571" stroke="#999999" x1="-46.98502872561116" y1="149.93406777443508" x2="77.41801843429901" y2="131.36260515894372"/><line stroke-width="0.08928571428571429" stroke="#999999" x1="-46.98502872561116" y1="149.93406777443508" x2="-131.98729772092315" y2="195.70482265006055"/><line stroke-width="0.08928571428571429" stroke="#999999" x1="-46.98502872561116" y1="149.93406777443508" x2="-160.53413410290938" y2="167.88795863502543"/><line stroke-width="0.03571428571428571" stroke="#999999" x1="-46.98502872561116" y1="149.93406777443508" x2="74.17035697563374" y2="177.58540894551618"/><line stroke-width="0.1607142857142857" stroke="#999999" x1="-46.98502872561116" y1="149.93406777443508" x2="-105.92193481331911" y2="87.18819507449867"/><line stroke-width="0.14285714285714285" stroke="#999999" x1="-46.98502872561116" y1="149.93406777443508" x2="-112.25772345755253" y2="144.0501903553112"/><line stroke-width="0.08928571428571429" stroke="#999999" x1="-46.98502872561116" y1="149.93406777443508" x2="-131.44285071085483" y2="166.11589126326396"/><line stroke-width="0.017857142857142856" stroke="#999999" x1="-46.98502872561116" y1="149.93406777443508" x2="-53.80225256012022" y2="123.55808522315918"/><line stroke-width="0.017857142857142856" stroke="#999999" x1="-46.98502872561116" y1="149.93406777443508" x2="-34.03200030971981" y2="261.3576377876057"/><line stroke-width="1" stroke="#999999" x1="252.42777619452434" y1="317.11414272901237" x2="184.35273140269774" y2="278.190329009952"/><line stroke-width="1" stroke="#999999" x1="252.42777619452434" y1="317.11414272901237" x2="260.92810911059627" y2="277.0989806234003"/><line stroke-width="0.29891304347826086" stroke="#999999" x1="-34.24352125563036" y1="180.88971481110937" x2="-19.07083274759869" y2="217.61002655996612"/><line stroke-width="0.021739130434782608" stroke="#999999" x1="-34.24352125563036" y1="180.88971481110937" x2="0.10058530151120658" y2="168.72417780173856"/><line stroke-width="0.07608695652173912" stroke="#999999" x1="-34.24352125563036" y1="180.88971481110937" x2="-78.52574662996678" y2="161.02238360095032"/><line stroke-width="0.005434782608695652" stroke="#999999" x1="-34.24352125563036" y1="180.88971481110937" x2="-82.846380750248" y2="208.09301689370187"/><line stroke-width="0.005434782608695652" stroke="#999999" x1="-34.24352125563036" y1="180.88971481110937" x2="-95.99613268607176" y2="125.3976646134549"/><line stroke-width="0.005434782608695652" stroke="#999999" x1="-34.24352125563036" y1="180.88971481110937" x2="71.98418551981291" y2="154.04173514213045"/><line stroke-width="0.09239130434782607" stroke="#999999" x1="-34.24352125563036" y1="180.88971481110937" x2="-151.30850362543129" y2="126.49855828892402"/><line stroke-width="0.016304347826086956" stroke="#999999" x1="-34.24352125563036" y1="180.88971481110937" x2="-37.697582410016" y2="70.1973990795448"/><line stroke-width="0.10869565217391304" stroke="#999999" x1="-34.24352125563036" y1="180.88971481110937" x2="-108.06737731027765" y2="272.45577779531993"/><line stroke-width="0.14130434782608695" stroke="#999999" x1="-34.24352125563036" y1="180.88971481110937" x2="-46.98502872561116" y2="149.93406777443508"/><line stroke-width="0.005434782608695652" stroke="#999999" x1="-34.24352125563036" y1="180.88971481110937" x2="54.30746326238452" y2="211.60161846317519"/><line stroke-width="0.010869565217391304" stroke="#999999" x1="-34.24352125563036" y1="180.88971481110937" x2="94.75588773178835" y2="262.8247877183729"/><line stroke-width="0.09239130434782608" stroke="#999999" x1="-34.24352125563036" y1="180.88971481110937" x2="-175.67881126357508" y2="219.809789737029"/><line stroke-width="0.005434782608695652" stroke="#999999" x1="-34.24352125563036" y1="180.88971481110937" x2="-31.241684559104772" y2="316.559419823071"/><line stroke-width="0.07065217391304347" stroke="#999999" x1="-34.24352125563036" y1="180.88971481110937" x2="-112.53146652737759" y2="202.79123130061544"/><line stroke-width="0.005434782608695652" stroke="#999999" x1="-34.24352125563036" y1="180.88971481110937" x2="24.586665399059388" y2="312.66975262300184"/><line stroke-width="0.07608695652173912" stroke="#999999" x1="-34.24352125563036" y1="180.88971481110937" x2="-152.01101773474485" y2="239.62620131596054"/><line stroke-width="0.03260869565217391" stroke="#999999" x1="-34.24352125563036" y1="180.88971481110937" x2="-73.2951455303622" y2="335.7708160458779"/><line stroke-width="0.005434782608695652" stroke="#999999" x1="-34.24352125563036" y1="180.88971481110937" x2="-147.8338664710929" y2="277.3100738526126"/><line stroke-width="0.016304347826086956" stroke="#999999" x1="-34.24352125563036" y1="180.88971481110937" x2="11.65218526289206" y2="68.96789502766687"/><line stroke-width="0.005434782608695652" stroke="#999999" x1="-34.24352125563036" y1="180.88971481110937" x2="-63.70008720574944" y2="207.13593887189913"/><line stroke-width="0.010869565217391304" stroke="#999999" x1="-34.24352125563036" y1="180.88971481110937" x2="14.461694439510744" y2="197.80936442111673"/><line stroke-width="0.07065217391304347" stroke="#999999" x1="-34.24352125563036" y1="180.88971481110937" x2="-131.98729772092315" y2="195.70482265006055"/><line stroke-width="0.005434782608695652" stroke="#999999" x1="-34.24352125563036" y1="180.88971481110937" x2="-63.47315022338154" y2="257.3266351095363"/><line stroke-width="0.07608695652173912" stroke="#999999" x1="-34.24352125563036" y1="180.88971481110937" x2="-160.53413410290938" y2="167.88795863502543"/><line stroke-width="0.005434782608695652" stroke="#999999" x1="-34.24352125563036" y1="180.88971481110937" x2="74.17035697563374" y2="177.58540894551618"/><line stroke-width="0.005434782608695652" stroke="#999999" x1="-34.24352125563036" y1="180.88971481110937" x2="-135.19744048136886" y2="301.2466168514432"/><line stroke-width="0.10869565217391304" stroke="#999999" x1="-34.24352125563036" y1="180.88971481110937" x2="-105.92193481331911" y2="87.18819507449867"/><line stroke-width="0.005434782608695652" stroke="#999999" x1="-34.24352125563036" y1="180.88971481110937" x2="0.7258689909767385" y2="304.4855656138558"/><line stroke-width="0.010869565217391304" stroke="#999999" x1="-34.24352125563036" y1="180.88971481110937" x2="-41.05931815280462" y2="214.02331389915014"/><line stroke-width="0.07608695652173912" stroke="#999999" x1="-34.24352125563036" y1="180.88971481110937" x2="-112.25772345755253" y2="144.0501903553112"/><line stroke-width="0.005434782608695652" stroke="#999999" x1="-34.24352125563036" y1="180.88971481110937" x2="19.090523160974897" y2="217.52184122247596"/><line stroke-width="0.07065217391304347" stroke="#999999" x1="-34.24352125563036" y1="180.88971481110937" x2="-131.44285071085483" y2="166.11589126326396"/><line stroke-width="0.010869565217391304" stroke="#999999" x1="-34.24352125563036" y1="180.88971481110937" x2="122.44930964936454" y2="198.44741002921668"/><line stroke-width="0.005434782608695652" stroke="#999999" x1="-34.24352125563036" y1="180.88971481110937" x2="-21.20847428658301" y2="144.28952112496586"/><line stroke-width="0.010869565217391304" stroke="#999999" x1="-34.24352125563036" y1="180.88971481110937" x2="116.23889330325441" y2="233.68993874235787"/><line stroke-width="0.005434782608695652" stroke="#999999" x1="-34.24352125563036" y1="180.88971481110937" x2="-109.27526457182303" y2="311.72918188999125"/><line stroke-width="0.016304347826086956" stroke="#999999" x1="-34.24352125563036" y1="180.88971481110937" x2="-65.71834361169566" y2="96.29673586067071"/><line stroke-width="0.005434782608695652" stroke="#999999" x1="-34.24352125563036" y1="180.88971481110937" x2="-53.80225256012022" y2="123.55808522315918"/><line stroke-width="0.016304347826086956" stroke="#999999" x1="-34.24352125563036" y1="180.88971481110937" x2="-34.03200030971981" y2="261.3576377876057"/><line stroke-width="1" stroke="#999999" x1="54.30746326238452" y1="211.60161846317519" x2="-19.07083274759869" y2="217.61002655996612"/><line stroke-width="1" stroke="#999999" x1="54.30746326238452" y1="211.60161846317519" x2="-34.24352125563036" y2="180.88971481110937"/><line stroke-width="1" stroke="#999999" x1="54.30746326238452" y1="211.60161846317519" x2="14.461694439510744" y2="197.80936442111673"/><line stroke-width="1" stroke="#999999" x1="94.75588773178835" y1="262.8247877183729" x2="-34.24352125563036" y2="180.88971481110937"/><line stroke-width="1" stroke="#999999" x1="94.75588773178835" y1="262.8247877183729" x2="122.44930964936454" y2="198.44741002921668"/><line stroke-width="1" stroke="#999999" x1="94.75588773178835" y1="262.8247877183729" x2="116.23889330325441" y2="233.68993874235787"/><line stroke-width="0.02857142857142857" stroke="#999999" x1="232.50842576750784" y1="421.67499888612895" x2="192.9475112536655" y2="412.14410228935276"/><line stroke-width="0.8" stroke="#999999" x1="-175.67881126357508" y1="219.809789737029" x2="-19.07083274759869" y2="217.61002655996612"/><line stroke-width="0.2" stroke="#999999" x1="-175.67881126357508" y1="219.809789737029" x2="-78.52574662996678" y2="161.02238360095032"/><line stroke-width="0.4" stroke="#999999" x1="-175.67881126357508" y1="219.809789737029" x2="-151.30850362543129" y2="126.49855828892402"/><line stroke-width="0.6000000000000001" stroke="#999999" x1="-175.67881126357508" y1="219.809789737029" x2="-108.06737731027765" y2="272.45577779531993"/><line stroke-width="0.2" stroke="#999999" x1="-175.67881126357508" y1="219.809789737029" x2="-46.98502872561116" y2="149.93406777443508"/><line stroke-width="0.6000000000000001" stroke="#999999" x1="-175.67881126357508" y1="219.809789737029" x2="-34.24352125563036" y2="180.88971481110937"/><line stroke-width="0.2" stroke="#999999" x1="-175.67881126357508" y1="219.809789737029" x2="-112.53146652737759" y2="202.79123130061544"/><line stroke-width="0.4" stroke="#999999" x1="-175.67881126357508" y1="219.809789737029" x2="-152.01101773474485" y2="239.62620131596054"/><line stroke-width="0.2" stroke="#999999" x1="-175.67881126357508" y1="219.809789737029" x2="-73.2951455303622" y2="335.7708160458779"/><line stroke-width="0.2" stroke="#999999" x1="-175.67881126357508" y1="219.809789737029" x2="-147.8338664710929" y2="277.3100738526126"/><line stroke-width="0.2" stroke="#999999" x1="-175.67881126357508" y1="219.809789737029" x2="-131.98729772092315" y2="195.70482265006055"/><line stroke-width="0.2" stroke="#999999" x1="-175.67881126357508" y1="219.809789737029" x2="-160.53413410290938" y2="167.88795863502543"/><line stroke-width="0.2" stroke="#999999" x1="-175.67881126357508" y1="219.809789737029" x2="-135.19744048136886" y2="301.2466168514432"/><line stroke-width="0.2" stroke="#999999" x1="-175.67881126357508" y1="219.809789737029" x2="-105.92193481331911" y2="87.18819507449867"/><line stroke-width="0.2" stroke="#999999" x1="-175.67881126357508" y1="219.809789737029" x2="-112.25772345755253" y2="144.0501903553112"/><line stroke-width="0.2" stroke="#999999" x1="-175.67881126357508" y1="219.809789737029" x2="-131.44285071085483" y2="166.11589126326396"/><line stroke-width="0.2" stroke="#999999" x1="-175.67881126357508" y1="219.809789737029" x2="-109.27526457182303" y2="311.72918188999125"/><line stroke-width="0.5" stroke="#999999" x1="-31.241684559104772" y1="316.559419823071" x2="-19.07083274759869" y2="217.61002655996612"/><line stroke-width="0.5" stroke="#999999" x1="-31.241684559104772" y1="316.559419823071" x2="-108.06737731027765" y2="272.45577779531993"/><line stroke-width="0.5" stroke="#999999" x1="-31.241684559104772" y1="316.559419823071" x2="-34.24352125563036" y2="180.88971481110937"/><line stroke-width="1" stroke="#999999" x1="-31.241684559104772" y1="316.559419823071" x2="-73.2951455303622" y2="335.7708160458779"/><line stroke-width="0.5" stroke="#999999" x1="-31.241684559104772" y1="316.559419823071" x2="-36.48178745755384" y2="342.6562250596145"/><line stroke-width="0.5" stroke="#999999" x1="-87.11102982655667" y1="246.43958523940717" x2="-19.07083274759869" y2="217.61002655996612"/><line stroke-width="0.5" stroke="#999999" x1="-87.11102982655667" y1="246.43958523940717" x2="0.10058530151120658" y2="168.72417780173856"/><line stroke-width="0.5" stroke="#999999" x1="-87.11102982655667" y1="246.43958523940717" x2="-73.2951455303622" y2="335.7708160458779"/><line stroke-width="0.5" stroke="#999999" x1="-87.11102982655667" y1="246.43958523940717" x2="-131.98729772092315" y2="195.70482265006055"/><line stroke-width="1" stroke="#999999" x1="-107.84581511695748" y1="38.181764168332116" x2="-105.92193481331911" y2="87.18819507449867"/><line stroke-width="0.75" stroke="#999999" x1="-112.53146652737759" y1="202.79123130061544" x2="-19.07083274759869" y2="217.61002655996612"/><line stroke-width="0.25" stroke="#999999" x1="-112.53146652737759" y1="202.79123130061544" x2="-78.52574662996678" y2="161.02238360095032"/><line stroke-width="0.25" stroke="#999999" x1="-112.53146652737759" y1="202.79123130061544" x2="-151.30850362543129" y2="126.49855828892402"/><line stroke-width="0.25" stroke="#999999" x1="-112.53146652737759" y1="202.79123130061544" x2="-108.06737731027765" y2="272.45577779531993"/><line stroke-width="0.25" stroke="#999999" x1="-112.53146652737759" y1="202.79123130061544" x2="-46.98502872561116" y2="149.93406777443508"/><line stroke-width="0.25" stroke="#999999" x1="-112.53146652737759" y1="202.79123130061544" x2="-34.24352125563036" y2="180.88971481110937"/><line stroke-width="0.25" stroke="#999999" x1="-112.53146652737759" y1="202.79123130061544" x2="-175.67881126357508" y2="219.809789737029"/><line stroke-width="0.25" stroke="#999999" x1="-112.53146652737759" y1="202.79123130061544" x2="-152.01101773474485" y2="239.62620131596054"/><line stroke-width="0.25" stroke="#999999" x1="-112.53146652737759" y1="202.79123130061544" x2="-131.98729772092315" y2="195.70482265006055"/><line stroke-width="0.25" stroke="#999999" x1="-112.53146652737759" y1="202.79123130061544" x2="-160.53413410290938" y2="167.88795863502543"/><line stroke-width="0.25" stroke="#999999" x1="-112.53146652737759" y1="202.79123130061544" x2="-105.92193481331911" y2="87.18819507449867"/><line stroke-width="0.25" stroke="#999999" x1="-112.53146652737759" y1="202.79123130061544" x2="-112.25772345755253" y2="144.0501903553112"/><line stroke-width="0.25" stroke="#999999" x1="-112.53146652737759" y1="202.79123130061544" x2="-131.44285071085483" y2="166.11589126326396"/><line stroke-width="1" stroke="#999999" x1="24.586665399059388" y1="312.66975262300184" x2="-19.07083274759869" y2="217.61002655996612"/><line stroke-width="1" stroke="#999999" x1="24.586665399059388" y1="312.66975262300184" x2="-34.24352125563036" y2="180.88971481110937"/><line stroke-width="1" stroke="#999999" x1="24.586665399059388" y1="312.66975262300184" x2="-73.2951455303622" y2="335.7708160458779"/><line stroke-width="1" stroke="#999999" x1="24.586665399059388" y1="312.66975262300184" x2="0.7258689909767385" y2="304.4855656138558"/><line stroke-width="1" stroke="#999999" x1="-152.01101773474485" y1="239.62620131596054" x2="-19.07083274759869" y2="217.61002655996612"/><line stroke-width="0.3333333333333333" stroke="#999999" x1="-152.01101773474485" y1="239.62620131596054" x2="-78.52574662996678" y2="161.02238360095032"/><line stroke-width="0.3333333333333333" stroke="#999999" x1="-152.01101773474485" y1="239.62620131596054" x2="-151.30850362543129" y2="126.49855828892402"/><line stroke-width="0.3333333333333333" stroke="#999999" x1="-152.01101773474485" y1="239.62620131596054" x2="-108.06737731027765" y2="272.45577779531993"/><line stroke-width="0.3333333333333333" stroke="#999999" x1="-152.01101773474485" y1="239.62620131596054" x2="-46.98502872561116" y2="149.93406777443508"/><line stroke-width="1" stroke="#999999" x1="-152.01101773474485" y1="239.62620131596054" x2="-34.24352125563036" y2="180.88971481110937"/><line stroke-width="1" stroke="#999999" x1="-152.01101773474485" y1="239.62620131596054" x2="-175.67881126357508" y2="219.809789737029"/><line stroke-width="0.3333333333333333" stroke="#999999" x1="-152.01101773474485" y1="239.62620131596054" x2="-112.53146652737759" y2="202.79123130061544"/><line stroke-width="0.6666666666666666" stroke="#999999" x1="-152.01101773474485" y1="239.62620131596054" x2="-73.2951455303622" y2="335.7708160458779"/><line stroke-width="0.6666666666666666" stroke="#999999" x1="-152.01101773474485" y1="239.62620131596054" x2="-147.8338664710929" y2="277.3100738526126"/><line stroke-width="0.3333333333333333" stroke="#999999" x1="-152.01101773474485" y1="239.62620131596054" x2="-131.98729772092315" y2="195.70482265006055"/><line stroke-width="0.3333333333333333" stroke="#999999" x1="-152.01101773474485" y1="239.62620131596054" x2="-160.53413410290938" y2="167.88795863502543"/><line stroke-width="0.6666666666666666" stroke="#999999" x1="-152.01101773474485" y1="239.62620131596054" x2="-135.19744048136886" y2="301.2466168514432"/><line stroke-width="0.3333333333333333" stroke="#999999" x1="-152.01101773474485" y1="239.62620131596054" x2="-105.92193481331911" y2="87.18819507449867"/><line stroke-width="0.3333333333333333" stroke="#999999" x1="-152.01101773474485" y1="239.62620131596054" x2="-112.25772345755253" y2="144.0501903553112"/><line stroke-width="0.3333333333333333" stroke="#999999" x1="-152.01101773474485" y1="239.62620131596054" x2="-131.44285071085483" y2="166.11589126326396"/><line stroke-width="0.6666666666666666" stroke="#999999" x1="-152.01101773474485" y1="239.62620131596054" x2="-109.27526457182303" y2="311.72918188999125"/><line stroke-width="0.5909090909090909" stroke="#999999" x1="-73.2951455303622" y1="335.7708160458779" x2="-19.07083274759869" y2="217.61002655996612"/><line stroke-width="0.18181818181818182" stroke="#999999" x1="-73.2951455303622" y1="335.7708160458779" x2="0.10058530151120658" y2="168.72417780173856"/><line stroke-width="0.045454545454545456" stroke="#999999" x1="-73.2951455303622" y1="335.7708160458779" x2="-66.16722448983478" y2="234.10054452671662"/><line stroke-width="0.045454545454545456" stroke="#999999" x1="-73.2951455303622" y1="335.7708160458779" x2="-82.846380750248" y2="208.09301689370187"/><line stroke-width="0.09090909090909091" stroke="#999999" x1="-73.2951455303622" y1="335.7708160458779" x2="-108.06737731027765" y2="272.45577779531993"/><line stroke-width="0.045454545454545456" stroke="#999999" x1="-73.2951455303622" y1="335.7708160458779" x2="-46.98502872561116" y2="149.93406777443508"/><line stroke-width="0.27272727272727276" stroke="#999999" x1="-73.2951455303622" y1="335.7708160458779" x2="-34.24352125563036" y2="180.88971481110937"/><line stroke-width="0.045454545454545456" stroke="#999999" x1="-73.2951455303622" y1="335.7708160458779" x2="-175.67881126357508" y2="219.809789737029"/><line stroke-width="0.09090909090909091" stroke="#999999" x1="-73.2951455303622" y1="335.7708160458779" x2="-31.241684559104772" y2="316.559419823071"/><line stroke-width="0.09090909090909091" stroke="#999999" x1="-73.2951455303622" y1="335.7708160458779" x2="-87.11102982655667" y2="246.43958523940717"/><line stroke-width="0.045454545454545456" stroke="#999999" x1="-73.2951455303622" y1="335.7708160458779" x2="24.586665399059388" y2="312.66975262300184"/><line stroke-width="0.045454545454545456" stroke="#999999" x1="-73.2951455303622" y1="335.7708160458779" x2="-152.01101773474485" y2="239.62620131596054"/><line stroke-width="0.045454545454545456" stroke="#999999" x1="-73.2951455303622" y1="335.7708160458779" x2="-147.8338664710929" y2="277.3100738526126"/><line stroke-width="0.09090909090909091" stroke="#999999" x1="-73.2951455303622" y1="335.7708160458779" x2="-131.98729772092315" y2="195.70482265006055"/><line stroke-width="0.045454545454545456" stroke="#999999" x1="-73.2951455303622" y1="335.7708160458779" x2="-135.19744048136886" y2="301.2466168514432"/><line stroke-width="0.045454545454545456" stroke="#999999" x1="-73.2951455303622" y1="335.7708160458779" x2="0.7258689909767385" y2="304.4855656138558"/><line stroke-width="0.045454545454545456" stroke="#999999" x1="-73.2951455303622" y1="335.7708160458779" x2="-36.48178745755384" y2="342.6562250596145"/><line stroke-width="0.09090909090909091" stroke="#999999" x1="-73.2951455303622" y1="335.7708160458779" x2="-109.27526457182303" y2="311.72918188999125"/><line stroke-width="1" stroke="#999999" x1="-27.236272780890193" y1="98.24028112522329" x2="-46.98502872561116" y2="149.93406777443508"/><line stroke-width="1" stroke="#999999" x1="-147.8338664710929" y1="277.3100738526126" x2="-19.07083274759869" y2="217.61002655996612"/><line stroke-width="1" stroke="#999999" x1="-147.8338664710929" y1="277.3100738526126" x2="-34.24352125563036" y2="180.88971481110937"/><line stroke-width="1" stroke="#999999" x1="-147.8338664710929" y1="277.3100738526126" x2="-175.67881126357508" y2="219.809789737029"/><line stroke-width="1" stroke="#999999" x1="-147.8338664710929" y1="277.3100738526126" x2="-152.01101773474485" y2="239.62620131596054"/><line stroke-width="1" stroke="#999999" x1="-147.8338664710929" y1="277.3100738526126" x2="-73.2951455303622" y2="335.7708160458779"/><line stroke-width="1" stroke="#999999" x1="-147.8338664710929" y1="277.3100738526126" x2="-135.19744048136886" y2="301.2466168514432"/><line stroke-width="1" stroke="#999999" x1="-147.8338664710929" y1="277.3100738526126" x2="-109.27526457182303" y2="311.72918188999125"/><line stroke-width="0.4" stroke="#999999" x1="11.65218526289206" y1="68.96789502766687" x2="-19.07083274759869" y2="217.61002655996612"/><line stroke-width="0.6" stroke="#999999" x1="11.65218526289206" y1="68.96789502766687" x2="-37.697582410016" y2="70.1973990795448"/><line stroke-width="0.2" stroke="#999999" x1="11.65218526289206" y1="68.96789502766687" x2="19.164160691560475" y2="117.83745685660368"/><line stroke-width="0.6" stroke="#999999" x1="11.65218526289206" y1="68.96789502766687" x2="-46.98502872561116" y2="149.93406777443508"/><line stroke-width="0.6" stroke="#999999" x1="11.65218526289206" y1="68.96789502766687" x2="-34.24352125563036" y2="180.88971481110937"/><line stroke-width="0.2" stroke="#999999" x1="11.65218526289206" y1="68.96789502766687" x2="37.556978823544995" y2="134.86573830867903"/><line stroke-width="0.6" stroke="#999999" x1="11.65218526289206" y1="68.96789502766687" x2="-105.92193481331911" y2="87.18819507449867"/><line stroke-width="1" stroke="#999999" x1="192.9475112536655" y1="412.14410228935276" x2="232.50842576750784" y2="421.67499888612895"/><line stroke-width="1" stroke="#999999" x1="27.257422954062395" y1="264.17414722536535" x2="-19.07083274759869" y2="217.61002655996612"/><line stroke-width="1" stroke="#999999" x1="-63.70008720574944" y1="207.13593887189913" x2="-19.07083274759869" y2="217.61002655996612"/><line stroke-width="1" stroke="#999999" x1="-63.70008720574944" y1="207.13593887189913" x2="-108.06737731027765" y2="272.45577779531993"/><line stroke-width="1" stroke="#999999" x1="-63.70008720574944" y1="207.13593887189913" x2="-46.98502872561116" y2="149.93406777443508"/><line stroke-width="1" stroke="#999999" x1="-63.70008720574944" y1="207.13593887189913" x2="-34.24352125563036" y2="180.88971481110937"/><line stroke-width="0.5" stroke="#999999" x1="14.461694439510744" y1="197.80936442111673" x2="-19.07083274759869" y2="217.61002655996612"/><line stroke-width="0.25" stroke="#999999" x1="14.461694439510744" y1="197.80936442111673" x2="0.10058530151120658" y2="168.72417780173856"/><line stroke-width="0.25" stroke="#999999" x1="14.461694439510744" y1="197.80936442111673" x2="-78.52574662996678" y2="161.02238360095032"/><line stroke-width="0.25" stroke="#999999" x1="14.461694439510744" y1="197.80936442111673" x2="-82.846380750248" y2="208.09301689370187"/><line stroke-width="0.25" stroke="#999999" x1="14.461694439510744" y1="197.80936442111673" x2="-108.06737731027765" y2="272.45577779531993"/><line stroke-width="0.5" stroke="#999999" x1="14.461694439510744" y1="197.80936442111673" x2="-34.24352125563036" y2="180.88971481110937"/><line stroke-width="0.25" stroke="#999999" x1="14.461694439510744" y1="197.80936442111673" x2="54.30746326238452" y2="211.60161846317519"/><line stroke-width="0.6666666666666666" stroke="#999999" x1="4.227064722716196" y1="142.19670215061922" x2="-19.07083274759869" y2="217.61002655996612"/><line stroke-width="0.3333333333333333" stroke="#999999" x1="4.227064722716196" y1="142.19670215061922" x2="-78.52574662996678" y2="161.02238360095032"/><line stroke-width="0.3333333333333333" stroke="#999999" x1="4.227064722716196" y1="142.19670215061922" x2="71.98418551981291" y2="154.04173514213045"/><line stroke-width="0.3333333333333333" stroke="#999999" x1="4.227064722716196" y1="142.19670215061922" x2="-46.98502872561116" y2="149.93406777443508"/><line stroke-width="0.3333333333333333" stroke="#999999" x1="4.227064722716196" y1="142.19670215061922" x2="77.41801843429901" y2="131.36260515894372"/><line stroke-width="0.3333333333333333" stroke="#999999" x1="4.227064722716196" y1="142.19670215061922" x2="-160.53413410290938" y2="167.88795863502543"/><line stroke-width="0.5" stroke="#999999" x1="77.41801843429901" y1="131.36260515894372" x2="-19.07083274759869" y2="217.61002655996612"/><line stroke-width="0.5" stroke="#999999" x1="77.41801843429901" y1="131.36260515894372" x2="0.10058530151120658" y2="168.72417780173856"/><line stroke-width="0.5" stroke="#999999" x1="77.41801843429901" y1="131.36260515894372" x2="-78.52574662996678" y2="161.02238360095032"/><line stroke-width="0.5" stroke="#999999" x1="77.41801843429901" y1="131.36260515894372" x2="71.98418551981291" y2="154.04173514213045"/><line stroke-width="0.5" stroke="#999999" x1="77.41801843429901" y1="131.36260515894372" x2="57.73810782945398" y2="103.08588427245152"/><line stroke-width="0.5" stroke="#999999" x1="77.41801843429901" y1="131.36260515894372" x2="-46.98502872561116" y2="149.93406777443508"/><line stroke-width="0.5" stroke="#999999" x1="77.41801843429901" y1="131.36260515894372" x2="4.227064722716196" y2="142.19670215061922"/><line stroke-width="0.5" stroke="#999999" x1="77.41801843429901" y1="131.36260515894372" x2="74.17035697563374" y2="177.58540894551618"/><line stroke-width="0.6666666666666666" stroke="#999999" x1="-131.98729772092315" y1="195.70482265006055" x2="-19.07083274759869" y2="217.61002655996612"/><line stroke-width="0.3333333333333333" stroke="#999999" x1="-131.98729772092315" y1="195.70482265006055" x2="0.10058530151120658" y2="168.72417780173856"/><line stroke-width="0.3333333333333333" stroke="#999999" x1="-131.98729772092315" y1="195.70482265006055" x2="-78.52574662996678" y2="161.02238360095032"/><line stroke-width="0.3333333333333333" stroke="#999999" x1="-131.98729772092315" y1="195.70482265006055" x2="-151.30850362543129" y2="126.49855828892402"/><line stroke-width="0.3333333333333333" stroke="#999999" x1="-131.98729772092315" y1="195.70482265006055" x2="-108.06737731027765" y2="272.45577779531993"/><line stroke-width="0.3333333333333333" stroke="#999999" x1="-131.98729772092315" y1="195.70482265006055" x2="-46.98502872561116" y2="149.93406777443508"/><line stroke-width="0.3333333333333333" stroke="#999999" x1="-131.98729772092315" y1="195.70482265006055" x2="-34.24352125563036" y2="180.88971481110937"/><line stroke-width="0.3333333333333333" stroke="#999999" x1="-131.98729772092315" y1="195.70482265006055" x2="-175.67881126357508" y2="219.809789737029"/><line stroke-width="0.3333333333333333" stroke="#999999" x1="-131.98729772092315" y1="195.70482265006055" x2="-87.11102982655667" y2="246.43958523940717"/><line stroke-width="0.3333333333333333" stroke="#999999" x1="-131.98729772092315" y1="195.70482265006055" x2="-112.53146652737759" y2="202.79123130061544"/><line stroke-width="0.3333333333333333" stroke="#999999" x1="-131.98729772092315" y1="195.70482265006055" x2="-152.01101773474485" y2="239.62620131596054"/><line stroke-width="0.3333333333333333" stroke="#999999" x1="-131.98729772092315" y1="195.70482265006055" x2="-73.2951455303622" y2="335.7708160458779"/><line stroke-width="0.3333333333333333" stroke="#999999" x1="-131.98729772092315" y1="195.70482265006055" x2="-160.53413410290938" y2="167.88795863502543"/><line stroke-width="0.3333333333333333" stroke="#999999" x1="-131.98729772092315" y1="195.70482265006055" x2="-105.92193481331911" y2="87.18819507449867"/><line stroke-width="0.3333333333333333" stroke="#999999" x1="-131.98729772092315" y1="195.70482265006055" x2="-112.25772345755253" y2="144.0501903553112"/><line stroke-width="0.3333333333333333" stroke="#999999" x1="-131.98729772092315" y1="195.70482265006055" x2="-131.44285071085483" y2="166.11589126326396"/><line stroke-width="1" stroke="#999999" x1="-63.47315022338154" y1="257.3266351095363" x2="-19.07083274759869" y2="217.61002655996612"/><line stroke-width="1" stroke="#999999" x1="-63.47315022338154" y1="257.3266351095363" x2="-108.06737731027765" y2="272.45577779531993"/><line stroke-width="1" stroke="#999999" x1="-63.47315022338154" y1="257.3266351095363" x2="-34.24352125563036" y2="180.88971481110937"/><line stroke-width="1" stroke="#999999" x1="37.556978823544995" y1="134.86573830867903" x2="-19.07083274759869" y2="217.61002655996612"/><line stroke-width="1" stroke="#999999" x1="37.556978823544995" y1="134.86573830867903" x2="11.65218526289206" y2="68.96789502766687"/><line stroke-width="0.42857142857142855" stroke="#999999" x1="-160.53413410290938" y1="167.88795863502543" x2="-19.07083274759869" y2="217.61002655996612"/><line stroke-width="0.14285714285714285" stroke="#999999" x1="-160.53413410290938" y1="167.88795863502543" x2="-78.52574662996678" y2="161.02238360095032"/><line stroke-width="0.42857142857142855" stroke="#999999" x1="-160.53413410290938" y1="167.88795863502543" x2="-151.30850362543129" y2="126.49855828892402"/><line stroke-width="0.14285714285714285" stroke="#999999" x1="-160.53413410290938" y1="167.88795863502543" x2="-108.06737731027765" y2="272.45577779531993"/><line stroke-width="0.14285714285714285" stroke="#999999" x1="-160.53413410290938" y1="167.88795863502543" x2="-46.98502872561116" y2="149.93406777443508"/><line stroke-width="0.2857142857142857" stroke="#999999" x1="-160.53413410290938" y1="167.88795863502543" x2="-34.24352125563036" y2="180.88971481110937"/><line stroke-width="0.14285714285714285" stroke="#999999" x1="-160.53413410290938" y1="167.88795863502543" x2="-175.67881126357508" y2="219.809789737029"/><line stroke-width="0.14285714285714285" stroke="#999999" x1="-160.53413410290938" y1="167.88795863502543" x2="-112.53146652737759" y2="202.79123130061544"/><line stroke-width="0.14285714285714285" stroke="#999999" x1="-160.53413410290938" y1="167.88795863502543" x2="-152.01101773474485" y2="239.62620131596054"/><line stroke-width="0.14285714285714285" stroke="#999999" x1="-160.53413410290938" y1="167.88795863502543" x2="4.227064722716196" y2="142.19670215061922"/><line stroke-width="0.14285714285714285" stroke="#999999" x1="-160.53413410290938" y1="167.88795863502543" x2="-131.98729772092315" y2="195.70482265006055"/><line stroke-width="0.14285714285714285" stroke="#999999" x1="-160.53413410290938" y1="167.88795863502543" x2="-105.92193481331911" y2="87.18819507449867"/><line stroke-width="0.14285714285714285" stroke="#999999" x1="-160.53413410290938" y1="167.88795863502543" x2="-112.25772345755253" y2="144.0501903553112"/><line stroke-width="0.14285714285714285" stroke="#999999" x1="-160.53413410290938" y1="167.88795863502543" x2="-131.44285071085483" y2="166.11589126326396"/><line stroke-width="1" stroke="#999999" x1="74.17035697563374" y1="177.58540894551618" x2="-19.07083274759869" y2="217.61002655996612"/><line stroke-width="0.5" stroke="#999999" x1="74.17035697563374" y1="177.58540894551618" x2="0.10058530151120658" y2="168.72417780173856"/><line stroke-width="0.5" stroke="#999999" x1="74.17035697563374" y1="177.58540894551618" x2="71.98418551981291" y2="154.04173514213045"/><line stroke-width="0.5" stroke="#999999" x1="74.17035697563374" y1="177.58540894551618" x2="57.73810782945398" y2="103.08588427245152"/><line stroke-width="0.5" stroke="#999999" x1="74.17035697563374" y1="177.58540894551618" x2="-46.98502872561116" y2="149.93406777443508"/><line stroke-width="0.5" stroke="#999999" x1="74.17035697563374" y1="177.58540894551618" x2="-34.24352125563036" y2="180.88971481110937"/><line stroke-width="0.5" stroke="#999999" x1="74.17035697563374" y1="177.58540894551618" x2="77.41801843429901" y2="131.36260515894372"/><line stroke-width="1" stroke="#999999" x1="-135.19744048136886" y1="301.2466168514432" x2="-19.07083274759869" y2="217.61002655996612"/><line stroke-width="1" stroke="#999999" x1="-135.19744048136886" y1="301.2466168514432" x2="-34.24352125563036" y2="180.88971481110937"/><line stroke-width="1" stroke="#999999" x1="-135.19744048136886" y1="301.2466168514432" x2="-175.67881126357508" y2="219.809789737029"/><line stroke-width="1" stroke="#999999" x1="-135.19744048136886" y1="301.2466168514432" x2="-152.01101773474485" y2="239.62620131596054"/><line stroke-width="1" stroke="#999999" x1="-135.19744048136886" y1="301.2466168514432" x2="-73.2951455303622" y2="335.7708160458779"/><line stroke-width="1" stroke="#999999" x1="-135.19744048136886" y1="301.2466168514432" x2="-147.8338664710929" y2="277.3100738526126"/><line stroke-width="1" stroke="#999999" x1="-135.19744048136886" y1="301.2466168514432" x2="-109.27526457182303" y2="311.72918188999125"/><line stroke-width="0.21428571428571427" stroke="#999999" x1="-105.92193481331911" y1="87.18819507449867" x2="-19.07083274759869" y2="217.61002655996612"/><line stroke-width="0.07142857142857142" stroke="#999999" x1="-105.92193481331911" y1="87.18819507449867" x2="-78.52574662996678" y2="161.02238360095032"/><line stroke-width="0.07142857142857142" stroke="#999999" x1="-105.92193481331911" y1="87.18819507449867" x2="-151.30850362543129" y2="126.49855828892402"/><line stroke-width="0.35714285714285715" stroke="#999999" x1="-105.92193481331911" y1="87.18819507449867" x2="-37.697582410016" y2="70.1973990795448"/><line stroke-width="0.07142857142857142" stroke="#999999" x1="-105.92193481331911" y1="87.18819507449867" x2="-108.06737731027765" y2="272.45577779531993"/><line stroke-width="0.5714285714285714" stroke="#999999" x1="-105.92193481331911" y1="87.18819507449867" x2="-46.98502872561116" y2="149.93406777443508"/><line stroke-width="0.6428571428571428" stroke="#999999" x1="-105.92193481331911" y1="87.18819507449867" x2="-34.24352125563036" y2="180.88971481110937"/><line stroke-width="0.07142857142857142" stroke="#999999" x1="-105.92193481331911" y1="87.18819507449867" x2="-175.67881126357508" y2="219.809789737029"/><line stroke-width="0.14285714285714285" stroke="#999999" x1="-105.92193481331911" y1="87.18819507449867" x2="-107.84581511695748" y2="38.181764168332116"/><line stroke-width="0.07142857142857142" stroke="#999999" x1="-105.92193481331911" y1="87.18819507449867" x2="-112.53146652737759" y2="202.79123130061544"/><line stroke-width="0.07142857142857142" stroke="#999999" x1="-105.92193481331911" y1="87.18819507449867" x2="-152.01101773474485" y2="239.62620131596054"/><line stroke-width="0.35714285714285715" stroke="#999999" x1="-105.92193481331911" y1="87.18819507449867" x2="11.65218526289206" y2="68.96789502766687"/><line stroke-width="0.07142857142857142" stroke="#999999" x1="-105.92193481331911" y1="87.18819507449867" x2="-131.98729772092315" y2="195.70482265006055"/><line stroke-width="0.07142857142857142" stroke="#999999" x1="-105.92193481331911" y1="87.18819507449867" x2="-160.53413410290938" y2="167.88795863502543"/><line stroke-width="0.21428571428571427" stroke="#999999" x1="-105.92193481331911" y1="87.18819507449867" x2="-112.25772345755253" y2="144.0501903553112"/><line stroke-width="0.07142857142857142" stroke="#999999" x1="-105.92193481331911" y1="87.18819507449867" x2="-131.44285071085483" y2="166.11589126326396"/><line stroke-width="0.14285714285714285" stroke="#999999" x1="-105.92193481331911" y1="87.18819507449867" x2="-65.71834361169566" y2="96.29673586067071"/><line stroke-width="0.07142857142857142" stroke="#999999" x1="-105.92193481331911" y1="87.18819507449867" x2="-53.80225256012022" y2="123.55808522315918"/><line stroke-width="1" stroke="#999999" x1="-52.28567534085377" y1="287.8929503622275" x2="-19.07083274759869" y2="217.61002655996612"/><line stroke-width="1" stroke="#999999" x1="-52.28567534085377" y1="287.8929503622275" x2="-108.06737731027765" y2="272.45577779531993"/><line stroke-width="1" stroke="#999999" x1="0.7258689909767385" y1="304.4855656138558" x2="-19.07083274759869" y2="217.61002655996612"/><line stroke-width="1" stroke="#999999" x1="0.7258689909767385" y1="304.4855656138558" x2="-34.24352125563036" y2="180.88971481110937"/><line stroke-width="1" stroke="#999999" x1="0.7258689909767385" y1="304.4855656138558" x2="24.586665399059388" y2="312.66975262300184"/><line stroke-width="1" stroke="#999999" x1="0.7258689909767385" y1="304.4855656138558" x2="-73.2951455303622" y2="335.7708160458779"/><line stroke-width="1" stroke="#999999" x1="18.0636223117541" y1="240.5283423919684" x2="-19.07083274759869" y2="217.61002655996612"/><line stroke-width="1" stroke="#999999" x1="-41.05931815280462" y1="214.02331389915014" x2="-19.07083274759869" y2="217.61002655996612"/><line stroke-width="1" stroke="#999999" x1="-41.05931815280462" y1="214.02331389915014" x2="-34.24352125563036" y2="180.88971481110937"/><line stroke-width="1" stroke="#999999" x1="-112.25772345755253" y1="144.0501903553112" x2="-19.07083274759869" y2="217.61002655996612"/><line stroke-width="0.2" stroke="#999999" x1="-112.25772345755253" y1="144.0501903553112" x2="-78.52574662996678" y2="161.02238360095032"/><line stroke-width="0.2" stroke="#999999" x1="-112.25772345755253" y1="144.0501903553112" x2="-151.30850362543129" y2="126.49855828892402"/><line stroke-width="0.2" stroke="#999999" x1="-112.25772345755253" y1="144.0501903553112" x2="-108.06737731027765" y2="272.45577779531993"/><line stroke-width="1" stroke="#999999" x1="-112.25772345755253" y1="144.0501903553112" x2="-46.98502872561116" y2="149.93406777443508"/><line stroke-width="0.6000000000000001" stroke="#999999" x1="-112.25772345755253" y1="144.0501903553112" x2="-34.24352125563036" y2="180.88971481110937"/><line stroke-width="0.2" stroke="#999999" x1="-112.25772345755253" y1="144.0501903553112" x2="-175.67881126357508" y2="219.809789737029"/><line stroke-width="0.2" stroke="#999999" x1="-112.25772345755253" y1="144.0501903553112" x2="-112.53146652737759" y2="202.79123130061544"/><line stroke-width="0.2" stroke="#999999" x1="-112.25772345755253" y1="144.0501903553112" x2="-152.01101773474485" y2="239.62620131596054"/><line stroke-width="0.2" stroke="#999999" x1="-112.25772345755253" y1="144.0501903553112" x2="-131.98729772092315" y2="195.70482265006055"/><line stroke-width="0.2" stroke="#999999" x1="-112.25772345755253" y1="144.0501903553112" x2="-160.53413410290938" y2="167.88795863502543"/><line stroke-width="1" stroke="#999999" x1="-112.25772345755253" y1="144.0501903553112" x2="-105.92193481331911" y2="87.18819507449867"/><line stroke-width="0.2" stroke="#999999" x1="-112.25772345755253" y1="144.0501903553112" x2="-131.44285071085483" y2="166.11589126326396"/><line stroke-width="0.4" stroke="#999999" x1="-112.25772345755253" y1="144.0501903553112" x2="-53.80225256012022" y2="123.55808522315918"/><line stroke-width="0.5" stroke="#999999" x1="184.35273140269774" y1="278.190329009952" x2="-19.07083274759869" y2="217.61002655996612"/><line stroke-width="0.5" stroke="#999999" x1="184.35273140269774" y1="278.190329009952" x2="252.42777619452434" y2="317.11414272901237"/><line stroke-width="0.5" stroke="#999999" x1="184.35273140269774" y1="278.190329009952" x2="260.92810911059627" y2="277.0989806234003"/><line stroke-width="1" stroke="#999999" x1="19.090523160974897" y1="217.52184122247596" x2="-19.07083274759869" y2="217.61002655996612"/><line stroke-width="0.5" stroke="#999999" x1="19.090523160974897" y1="217.52184122247596" x2="-34.24352125563036" y2="180.88971481110937"/><line stroke-width="1" stroke="#999999" x1="-131.44285071085483" y1="166.11589126326396" x2="-19.07083274759869" y2="217.61002655996612"/><line stroke-width="0.5" stroke="#999999" x1="-131.44285071085483" y1="166.11589126326396" x2="-78.52574662996678" y2="161.02238360095032"/><line stroke-width="0.5" stroke="#999999" x1="-131.44285071085483" y1="166.11589126326396" x2="-151.30850362543129" y2="126.49855828892402"/><line stroke-width="0.5" stroke="#999999" x1="-131.44285071085483" y1="166.11589126326396" x2="-108.06737731027765" y2="272.45577779531993"/><line stroke-width="0.5" stroke="#999999" x1="-131.44285071085483" y1="166.11589126326396" x2="-46.98502872561116" y2="149.93406777443508"/><line stroke-width="0.5" stroke="#999999" x1="-131.44285071085483" y1="166.11589126326396" x2="-34.24352125563036" y2="180.88971481110937"/><line stroke-width="0.5" stroke="#999999" x1="-131.44285071085483" y1="166.11589126326396" x2="-175.67881126357508" y2="219.809789737029"/><line stroke-width="0.5" stroke="#999999" x1="-131.44285071085483" y1="166.11589126326396" x2="-112.53146652737759" y2="202.79123130061544"/><line stroke-width="0.5" stroke="#999999" x1="-131.44285071085483" y1="166.11589126326396" x2="-152.01101773474485" y2="239.62620131596054"/><line stroke-width="0.5" stroke="#999999" x1="-131.44285071085483" y1="166.11589126326396" x2="-131.98729772092315" y2="195.70482265006055"/><line stroke-width="0.5" stroke="#999999" x1="-131.44285071085483" y1="166.11589126326396" x2="-160.53413410290938" y2="167.88795863502543"/><line stroke-width="0.5" stroke="#999999" x1="-131.44285071085483" y1="166.11589126326396" x2="-105.92193481331911" y2="87.18819507449867"/><line stroke-width="0.5" stroke="#999999" x1="-131.44285071085483" y1="166.11589126326396" x2="-112.25772345755253" y2="144.0501903553112"/><line stroke-width="1" stroke="#999999" x1="6.743308947941239" y1="264.00823146437426" x2="-19.07083274759869" y2="217.61002655996612"/><line stroke-width="0.5" stroke="#999999" x1="-36.48178745755384" y1="342.6562250596145" x2="-19.07083274759869" y2="217.61002655996612"/><line stroke-width="0.5" stroke="#999999" x1="-36.48178745755384" y1="342.6562250596145" x2="-108.06737731027765" y2="272.45577779531993"/><line stroke-width="0.5" stroke="#999999" x1="-36.48178745755384" y1="342.6562250596145" x2="-31.241684559104772" y2="316.559419823071"/><line stroke-width="0.5" stroke="#999999" x1="-36.48178745755384" y1="342.6562250596145" x2="-73.2951455303622" y2="335.7708160458779"/><line stroke-width="1" stroke="#999999" x1="260.92810911059627" y1="277.0989806234003" x2="252.42777619452434" y2="317.11414272901237"/><line stroke-width="1" stroke="#999999" x1="260.92810911059627" y1="277.0989806234003" x2="184.35273140269774" y2="278.190329009952"/><line stroke-width="1" stroke="#999999" x1="122.44930964936454" y1="198.44741002921668" x2="-34.24352125563036" y2="180.88971481110937"/><line stroke-width="1" stroke="#999999" x1="122.44930964936454" y1="198.44741002921668" x2="94.75588773178835" y2="262.8247877183729"/><line stroke-width="1" stroke="#999999" x1="122.44930964936454" y1="198.44741002921668" x2="116.23889330325441" y2="233.68993874235787"/><line stroke-width="1" stroke="#999999" x1="-21.20847428658301" y1="144.28952112496586" x2="-34.24352125563036" y2="180.88971481110937"/><line stroke-width="1" stroke="#999999" x1="116.23889330325441" y1="233.68993874235787" x2="-34.24352125563036" y2="180.88971481110937"/><line stroke-width="1" stroke="#999999" x1="116.23889330325441" y1="233.68993874235787" x2="94.75588773178835" y2="262.8247877183729"/><line stroke-width="1" stroke="#999999" x1="116.23889330325441" y1="233.68993874235787" x2="122.44930964936454" y2="198.44741002921668"/><line stroke-width="1" stroke="#999999" x1="-109.27526457182303" y1="311.72918188999125" x2="-19.07083274759869" y2="217.61002655996612"/><line stroke-width="0.5" stroke="#999999" x1="-109.27526457182303" y1="311.72918188999125" x2="-34.24352125563036" y2="180.88971481110937"/><line stroke-width="0.5" stroke="#999999" x1="-109.27526457182303" y1="311.72918188999125" x2="-175.67881126357508" y2="219.809789737029"/><line stroke-width="0.5" stroke="#999999" x1="-109.27526457182303" y1="311.72918188999125" x2="-152.01101773474485" y2="239.62620131596054"/><line stroke-width="1" stroke="#999999" x1="-109.27526457182303" y1="311.72918188999125" x2="-73.2951455303622" y2="335.7708160458779"/><line stroke-width="0.5" stroke="#999999" x1="-109.27526457182303" y1="311.72918188999125" x2="-147.8338664710929" y2="277.3100738526126"/><line stroke-width="0.5" stroke="#999999" x1="-109.27526457182303" y1="311.72918188999125" x2="-135.19744048136886" y2="301.2466168514432"/><line stroke-width="1" stroke="#999999" x1="-65.71834361169566" y1="96.29673586067071" x2="-34.24352125563036" y2="180.88971481110937"/><line stroke-width="1" stroke="#999999" x1="-65.71834361169566" y1="96.29673586067071" x2="-105.92193481331911" y2="87.18819507449867"/><line stroke-width="1" stroke="#999999" x1="-53.80225256012022" y1="123.55808522315918" x2="-19.07083274759869" y2="217.61002655996612"/><line stroke-width="1" stroke="#999999" x1="-53.80225256012022" y1="123.55808522315918" x2="-46.98502872561116" y2="149.93406777443508"/><line stroke-width="1" stroke="#999999" x1="-53.80225256012022" y1="123.55808522315918" x2="-34.24352125563036" y2="180.88971481110937"/><line stroke-width="1" stroke="#999999" x1="-53.80225256012022" y1="123.55808522315918" x2="-105.92193481331911" y2="87.18819507449867"/><line stroke-width="1" stroke="#999999" x1="-53.80225256012022" y1="123.55808522315918" x2="-112.25772345755253" y2="144.0501903553112"/><line stroke-width="0.16666666666666666" stroke="#999999" x1="-34.03200030971981" y1="261.3576377876057" x2="-19.07083274759869" y2="217.61002655996612"/><line stroke-width="0.16666666666666666" stroke="#999999" x1="-34.03200030971981" y1="261.3576377876057" x2="-66.16722448983478" y2="234.10054452671662"/><line stroke-width="0.16666666666666666" stroke="#999999" x1="-34.03200030971981" y1="261.3576377876057" x2="-108.06737731027765" y2="272.45577779531993"/><line stroke-width="0.16666666666666666" stroke="#999999" x1="-34.03200030971981" y1="261.3576377876057" x2="-46.98502872561116" y2="149.93406777443508"/><line stroke-width="0.16666666666666666" stroke="#999999" x1="-34.03200030971981" y1="261.3576377876057" x2="-34.24352125563036" y2="180.88971481110937"/></g><g class="nodes_ErPtWMnx"><g><circle id="n_130" r="5" fill="#99ccff" cx="-19.07083274759869" cy="217.61002655996612"><title>n_130</title></circle><text x="0" y="-7" id="n_130" class="label_ErPtWMnx" transform="translate(-19.07083274759869,217.61002655996612)" cx="-19.07083274759869" cy="217.61002655996612">n_130</text></g><g><circle id="n_35" r="5" fill="#99ccff" cx="0.10058530151120658" cy="168.72417780173856"><title>n_35</title></circle><text x="0" y="-7" id="n_35" class="label_ErPtWMnx" transform="translate(0.10058530151120658,168.72417780173856)" cx="0.10058530151120658" cy="168.72417780173856">n_35</text></g><g><circle id="n_195" r="5" fill="#99ccff" cx="-66.16722448983478" cy="234.10054452671662"><title>n_195</title></circle><text x="0" y="-7" id="n_195" class="label_ErPtWMnx" transform="translate(-66.16722448983478,234.10054452671662)" cx="-66.16722448983478" cy="234.10054452671662">n_195</text></g><g><circle id="n_228" r="5" fill="#99ccff" cx="1275.7115141376887" cy="636.2951082620557"><title>n_228</title></circle><text x="0" y="-7" id="n_228" class="label_ErPtWMnx" transform="translate(1275.7115141376887,636.2951082620557)" cx="1275.7115141376887" cy="636.2951082620557">n_228</text></g><g><circle id="n_218" r="5" fill="#99ccff" cx="382.6328015880967" cy="830.6505428499679"><title>n_218</title></circle><text x="0" y="-7" id="n_218" class="label_ErPtWMnx" transform="translate(382.6328015880967,830.6505428499679)" cx="382.6328015880967" cy="830.6505428499679">n_218</text></g><g><circle id="n_229" r="5" fill="#99ccff" cx="-78.52574662996678" cy="161.02238360095032"><title>n_229</title></circle><text x="0" y="-7" id="n_229" class="label_ErPtWMnx" transform="translate(-78.52574662996678,161.02238360095032)" cx="-78.52574662996678" cy="161.02238360095032">n_229</text></g><g><circle id="n_230" r="5" fill="#99ccff" cx="43.348656642322624" cy="239.8265940841793"><title>n_230</title></circle><text x="0" y="-7" id="n_230" class="label_ErPtWMnx" transform="translate(43.348656642322624,239.8265940841793)" cx="43.348656642322624" cy="239.8265940841793">n_230</text></g><g><circle id="n_69" r="5" fill="#99ccff" cx="-82.846380750248" cy="208.09301689370187"><title>n_69</title></circle><text x="0" y="-7" id="n_69" class="label_ErPtWMnx" transform="translate(-82.846380750248,208.09301689370187)" cx="-82.846380750248" cy="208.09301689370187">n_69</text></g><g><circle id="n_231" r="5" fill="#99ccff" cx="-95.99613268607176" cy="125.3976646134549"><title>n_231</title></circle><text x="0" y="-7" id="n_231" class="label_ErPtWMnx" transform="translate(-95.99613268607176,125.3976646134549)" cx="-95.99613268607176" cy="125.3976646134549">n_231</text></g><g><circle id="n_232" r="5" fill="#99ccff" cx="71.98418551981291" cy="154.04173514213045"><title>n_232</title></circle><text x="0" y="-7" id="n_232" class="label_ErPtWMnx" transform="translate(71.98418551981291,154.04173514213045)" cx="71.98418551981291" cy="154.04173514213045">n_232</text></g><g><circle id="n_45" r="5" fill="#99ccff" cx="-151.30850362543129" cy="126.49855828892402"><title>n_45</title></circle><text x="0" y="-7" id="n_45" class="label_ErPtWMnx" transform="translate(-151.30850362543129,126.49855828892402)" cx="-151.30850362543129" cy="126.49855828892402">n_45</text></g><g><circle id="n_61" r="5" fill="#99ccff" cx="57.73810782945398" cy="103.08588427245152"><title>n_61</title></circle><text x="0" y="-7" id="n_61" class="label_ErPtWMnx" transform="translate(57.73810782945398,103.08588427245152)" cx="57.73810782945398" cy="103.08588427245152">n_61</text></g><g><circle id="n_233" r="5" fill="#99ccff" cx="-37.697582410016" cy="70.1973990795448"><title>n_233</title></circle><text x="0" y="-7" id="n_233" class="label_ErPtWMnx" transform="translate(-37.697582410016,70.1973990795448)" cx="-37.697582410016" cy="70.1973990795448">n_233</text></g><g><circle id="n_234" r="5" fill="#99ccff" cx="19.164160691560475" cy="117.83745685660368"><title>n_234</title></circle><text x="0" y="-7" id="n_234" class="label_ErPtWMnx" transform="translate(19.164160691560475,117.83745685660368)" cx="19.164160691560475" cy="117.83745685660368">n_234</text></g><g><circle id="n_235" r="5" fill="#99ccff" cx="-108.06737731027765" cy="272.45577779531993"><title>n_235</title></circle><text x="0" y="-7" id="n_235" class="label_ErPtWMnx" transform="translate(-108.06737731027765,272.45577779531993)" cx="-108.06737731027765" cy="272.45577779531993">n_235</text></g><g><circle id="n_236" r="5" fill="#99ccff" cx="1180.3951203835077" cy="154.5979998687273"><title>n_236</title></circle><text x="0" y="-7" id="n_236" class="label_ErPtWMnx" transform="translate(1180.3951203835077,154.5979998687273)" cx="1180.3951203835077" cy="154.5979998687273">n_236</text></g><g><circle id="n_102" r="5" fill="#99ccff" cx="1369.8096355427701" cy="784.680566383334"><title>n_102</title></circle><text x="0" y="-7" id="n_102" class="label_ErPtWMnx" transform="translate(1369.8096355427701,784.680566383334)" cx="1369.8096355427701" cy="784.680566383334">n_102</text></g><g><circle id="n_119" r="5" fill="#99ccff" cx="-46.98502872561116" cy="149.93406777443508"><title>n_119</title></circle><text x="0" y="-7" id="n_119" class="label_ErPtWMnx" transform="translate(-46.98502872561116,149.93406777443508)" cx="-46.98502872561116" cy="149.93406777443508">n_119</text></g><g><circle id="n_219" r="5" fill="#99ccff" cx="252.42777619452434" cy="317.11414272901237"><title>n_219</title></circle><text x="0" y="-7" id="n_219" class="label_ErPtWMnx" transform="translate(252.42777619452434,317.11414272901237)" cx="252.42777619452434" cy="317.11414272901237">n_219</text></g><g><circle id="n_19" r="5" fill="#99ccff" cx="-34.24352125563036" cy="180.88971481110937"><title>n_19</title></circle><text x="0" y="-7" id="n_19" class="label_ErPtWMnx" transform="translate(-34.24352125563036,180.88971481110937)" cx="-34.24352125563036" cy="180.88971481110937">n_19</text></g><g><circle id="n_237" r="5" fill="#99ccff" cx="916.806817121754" cy="65.88059153789078"><title>n_237</title></circle><text x="0" y="-7" id="n_237" class="label_ErPtWMnx" transform="translate(916.806817121754,65.88059153789078)" cx="916.806817121754" cy="65.88059153789078">n_237</text></g><g><circle id="n_238" r="5" fill="#99ccff" cx="1379.806146424654" cy="532.2359096259305"><title>n_238</title></circle><text x="0" y="-7" id="n_238" class="label_ErPtWMnx" transform="translate(1379.806146424654,532.2359096259305)" cx="1379.806146424654" cy="532.2359096259305">n_238</text></g><g><circle id="n_239" r="5" fill="#99ccff" cx="716.6989722506137" cy="963.3561132936441"><title>n_239</title></circle><text x="0" y="-7" id="n_239" class="label_ErPtWMnx" transform="translate(716.6989722506137,963.3561132936441)" cx="716.6989722506137" cy="963.3561132936441">n_239</text></g><g><circle id="n_240" r="5" fill="#99ccff" cx="54.30746326238452" cy="211.60161846317519"><title>n_240</title></circle><text x="0" y="-7" id="n_240" class="label_ErPtWMnx" transform="translate(54.30746326238452,211.60161846317519)" cx="54.30746326238452" cy="211.60161846317519">n_240</text></g><g><circle id="n_241" r="5" fill="#99ccff" cx="1197.0533486534534" cy="964.6127720669696"><title>n_241</title></circle><text x="0" y="-7" id="n_241" class="label_ErPtWMnx" transform="translate(1197.0533486534534,964.6127720669696)" cx="1197.0533486534534" cy="964.6127720669696">n_241</text></g><g><circle id="n_242" r="5" fill="#99ccff" cx="94.75588773178835" cy="262.8247877183729"><title>n_242</title></circle><text x="0" y="-7" id="n_242" class="label_ErPtWMnx" transform="translate(94.75588773178835,262.8247877183729)" cx="94.75588773178835" cy="262.8247877183729">n_242</text></g><g><circle id="n_99" r="5" fill="#99ccff" cx="232.50842576750784" cy="421.67499888612895"><title>n_99</title></circle><text x="0" y="-7" id="n_99" class="label_ErPtWMnx" transform="translate(232.50842576750784,421.67499888612895)" cx="232.50842576750784" cy="421.67499888612895">n_99</text></g><g><circle id="n_227" r="5" fill="#99ccff" cx="-175.67881126357508" cy="219.809789737029"><title>n_227</title></circle><text x="0" y="-7" id="n_227" class="label_ErPtWMnx" transform="translate(-175.67881126357508,219.809789737029)" cx="-175.67881126357508" cy="219.809789737029">n_227</text></g><g><circle id="n_243" r="5" fill="#99ccff" cx="-31.241684559104772" cy="316.559419823071"><title>n_243</title></circle><text x="0" y="-7" id="n_243" class="label_ErPtWMnx" transform="translate(-31.241684559104772,316.559419823071)" cx="-31.241684559104772" cy="316.559419823071">n_243</text></g><g><circle id="n_3" r="5" fill="#99ccff" cx="-87.11102982655667" cy="246.43958523940717"><title>n_3</title></circle><text x="0" y="-7" id="n_3" class="label_ErPtWMnx" transform="translate(-87.11102982655667,246.43958523940717)" cx="-87.11102982655667" cy="246.43958523940717">n_3</text></g><g><circle id="n_114" r="5" fill="#99ccff" cx="-107.84581511695748" cy="38.181764168332116"><title>n_114</title></circle><text x="0" y="-7" id="n_114" class="label_ErPtWMnx" transform="translate(-107.84581511695748,38.181764168332116)" cx="-107.84581511695748" cy="38.181764168332116">n_114</text></g><g><circle id="n_244" r="5" fill="#99ccff" cx="-112.53146652737759" cy="202.79123130061544"><title>n_244</title></circle><text x="0" y="-7" id="n_244" class="label_ErPtWMnx" transform="translate(-112.53146652737759,202.79123130061544)" cx="-112.53146652737759" cy="202.79123130061544">n_244</text></g><g><circle id="n_245" r="5" fill="#99ccff" cx="24.586665399059388" cy="312.66975262300184"><title>n_245</title></circle><text x="0" y="-7" id="n_245" class="label_ErPtWMnx" transform="translate(24.586665399059388,312.66975262300184)" cx="24.586665399059388" cy="312.66975262300184">n_245</text></g><g><circle id="n_199" r="5" fill="#99ccff" cx="-152.01101773474485" cy="239.62620131596054"><title>n_199</title></circle><text x="0" y="-7" id="n_199" class="label_ErPtWMnx" transform="translate(-152.01101773474485,239.62620131596054)" cx="-152.01101773474485" cy="239.62620131596054">n_199</text></g><g><circle id="n_246" r="5" fill="#99ccff" cx="1491.921157453499" cy="434.46571824010806"><title>n_246</title></circle><text x="0" y="-7" id="n_246" class="label_ErPtWMnx" transform="translate(1491.921157453499,434.46571824010806)" cx="1491.921157453499" cy="434.46571824010806">n_246</text></g><g><circle id="n_247" r="5" fill="#99ccff" cx="-73.2951455303622" cy="335.7708160458779"><title>n_247</title></circle><text x="0" y="-7" id="n_247" class="label_ErPtWMnx" transform="translate(-73.2951455303622,335.7708160458779)" cx="-73.2951455303622" cy="335.7708160458779">n_247</text></g><g><circle id="n_189" r="5" fill="#99ccff" cx="-27.236272780890193" cy="98.24028112522329"><title>n_189</title></circle><text x="0" y="-7" id="n_189" class="label_ErPtWMnx" transform="translate(-27.236272780890193,98.24028112522329)" cx="-27.236272780890193" cy="98.24028112522329">n_189</text></g><g><circle id="n_248" r="5" fill="#99ccff" cx="1350.07874625452" cy="987.1071062887016"><title>n_248</title></circle><text x="0" y="-7" id="n_248" class="label_ErPtWMnx" transform="translate(1350.07874625452,987.1071062887016)" cx="1350.07874625452" cy="987.1071062887016">n_248</text></g><g><circle id="n_249" r="5" fill="#99ccff" cx="-147.8338664710929" cy="277.3100738526126"><title>n_249</title></circle><text x="0" y="-7" id="n_249" class="label_ErPtWMnx" transform="translate(-147.8338664710929,277.3100738526126)" cx="-147.8338664710929" cy="277.3100738526126">n_249</text></g><g><circle id="n_125" r="5" fill="#99ccff" cx="11.65218526289206" cy="68.96789502766687"><title>n_125</title></circle><text x="0" y="-7" id="n_125" class="label_ErPtWMnx" transform="translate(11.65218526289206,68.96789502766687)" cx="11.65218526289206" cy="68.96789502766687">n_125</text></g><g><circle id="n_250" r="5" fill="#99ccff" cx="192.9475112536655" cy="412.14410228935276"><title>n_250</title></circle><text x="0" y="-7" id="n_250" class="label_ErPtWMnx" transform="translate(192.9475112536655,412.14410228935276)" cx="192.9475112536655" cy="412.14410228935276">n_250</text></g><g><circle id="n_251" r="5" fill="#99ccff" cx="27.257422954062395" cy="264.17414722536535"><title>n_251</title></circle><text x="0" y="-7" id="n_251" class="label_ErPtWMnx" transform="translate(27.257422954062395,264.17414722536535)" cx="27.257422954062395" cy="264.17414722536535">n_251</text></g><g><circle id="n_252" r="5" fill="#99ccff" cx="1477.9814446703047" cy="663.9433872041775"><title>n_252</title></circle><text x="0" y="-7" id="n_252" class="label_ErPtWMnx" transform="translate(1477.9814446703047,663.9433872041775)" cx="1477.9814446703047" cy="663.9433872041775">n_252</text></g><g><circle id="n_253" r="5" fill="#99ccff" cx="-63.70008720574944" cy="207.13593887189913"><title>n_253</title></circle><text x="0" y="-7" id="n_253" class="label_ErPtWMnx" transform="translate(-63.70008720574944,207.13593887189913)" cx="-63.70008720574944" cy="207.13593887189913">n_253</text></g><g><circle id="n_254" r="5" fill="#99ccff" cx="14.461694439510744" cy="197.80936442111673"><title>n_254</title></circle><text x="0" y="-7" id="n_254" class="label_ErPtWMnx" transform="translate(14.461694439510744,197.80936442111673)" cx="14.461694439510744" cy="197.80936442111673">n_254</text></g><g><circle id="n_46" r="5" fill="#99ccff" cx="4.227064722716196" cy="142.19670215061922"><title>n_46</title></circle><text x="0" y="-7" id="n_46" class="label_ErPtWMnx" transform="translate(4.227064722716196,142.19670215061922)" cx="4.227064722716196" cy="142.19670215061922">n_46</text></g><g><circle id="n_255" r="5" fill="#99ccff" cx="554.4270392547257" cy="-108.0463923804901"><title>n_255</title></circle><text x="0" y="-7" id="n_255" class="label_ErPtWMnx" transform="translate(554.4270392547257,-108.0463923804901)" cx="554.4270392547257" cy="-108.0463923804901">n_255</text></g><g><circle id="n_196" r="5" fill="#99ccff" cx="1465.029618219161" cy="308.54829431023205"><title>n_196</title></circle><text x="0" y="-7" id="n_196" class="label_ErPtWMnx" transform="translate(1465.029618219161,308.54829431023205)" cx="1465.029618219161" cy="308.54829431023205">n_196</text></g><g><circle id="n_256" r="5" fill="#99ccff" cx="853.2945499136121" cy="1024.3578087276808"><title>n_256</title></circle><text x="0" y="-7" id="n_256" class="label_ErPtWMnx" transform="translate(853.2945499136121,1024.3578087276808)" cx="853.2945499136121" cy="1024.3578087276808">n_256</text></g><g><circle id="n_257" r="5" fill="#99ccff" cx="77.41801843429901" cy="131.36260515894372"><title>n_257</title></circle><text x="0" y="-7" id="n_257" class="label_ErPtWMnx" transform="translate(77.41801843429901,131.36260515894372)" cx="77.41801843429901" cy="131.36260515894372">n_257</text></g><g><circle id="n_258" r="5" fill="#99ccff" cx="1491.2525207961937" cy="908.1365460291277"><title>n_258</title></circle><text x="0" y="-7" id="n_258" class="label_ErPtWMnx" transform="translate(1491.2525207961937,908.1365460291277)" cx="1491.2525207961937" cy="908.1365460291277">n_258</text></g><g><circle id="n_149" r="5" fill="#99ccff" cx="-131.98729772092315" cy="195.70482265006055"><title>n_149</title></circle><text x="0" y="-7" id="n_149" class="label_ErPtWMnx" transform="translate(-131.98729772092315,195.70482265006055)" cx="-131.98729772092315" cy="195.70482265006055">n_149</text></g><g><circle id="n_259" r="5" fill="#99ccff" cx="-63.47315022338154" cy="257.3266351095363"><title>n_259</title></circle><text x="0" y="-7" id="n_259" class="label_ErPtWMnx" transform="translate(-63.47315022338154,257.3266351095363)" cx="-63.47315022338154" cy="257.3266351095363">n_259</text></g><g><circle id="n_260" r="5" fill="#99ccff" cx="37.556978823544995" cy="134.86573830867903"><title>n_260</title></circle><text x="0" y="-7" id="n_260" class="label_ErPtWMnx" transform="translate(37.556978823544995,134.86573830867903)" cx="37.556978823544995" cy="134.86573830867903">n_260</text></g><g><circle id="n_261" r="5" fill="#99ccff" cx="-160.53413410290938" cy="167.88795863502543"><title>n_261</title></circle><text x="0" y="-7" id="n_261" class="label_ErPtWMnx" transform="translate(-160.53413410290938,167.88795863502543)" cx="-160.53413410290938" cy="167.88795863502543">n_261</text></g><g><circle id="n_59" r="5" fill="#99ccff" cx="74.17035697563374" cy="177.58540894551618"><title>n_59</title></circle><text x="0" y="-7" id="n_59" class="label_ErPtWMnx" transform="translate(74.17035697563374,177.58540894551618)" cx="74.17035697563374" cy="177.58540894551618">n_59</text></g><g><circle id="n_263" r="5" fill="#99ccff" cx="-135.19744048136886" cy="301.2466168514432"><title>n_263</title></circle><text x="0" y="-7" id="n_263" class="label_ErPtWMnx" transform="translate(-135.19744048136886,301.2466168514432)" cx="-135.19744048136886" cy="301.2466168514432">n_263</text></g><g><circle id="n_205" r="5" fill="#99ccff" cx="-105.92193481331911" cy="87.18819507449867"><title>n_205</title></circle><text x="0" y="-7" id="n_205" class="label_ErPtWMnx" transform="translate(-105.92193481331911,87.18819507449867)" cx="-105.92193481331911" cy="87.18819507449867">n_205</text></g><g><circle id="n_264" r="5" fill="#99ccff" cx="-52.28567534085377" cy="287.8929503622275"><title>n_264</title></circle><text x="0" y="-7" id="n_264" class="label_ErPtWMnx" transform="translate(-52.28567534085377,287.8929503622275)" cx="-52.28567534085377" cy="287.8929503622275">n_264</text></g><g><circle id="n_265" r="5" fill="#99ccff" cx="0.7258689909767385" cy="304.4855656138558"><title>n_265</title></circle><text x="0" y="-7" id="n_265" class="label_ErPtWMnx" transform="translate(0.7258689909767385,304.4855656138558)" cx="0.7258689909767385" cy="304.4855656138558">n_265</text></g><g><circle id="n_266" r="5" fill="#99ccff" cx="18.0636223117541" cy="240.5283423919684"><title>n_266</title></circle><text x="0" y="-7" id="n_266" class="label_ErPtWMnx" transform="translate(18.0636223117541,240.5283423919684)" cx="18.0636223117541" cy="240.5283423919684">n_266</text></g><g><circle id="n_217" r="5" fill="#99ccff" cx="980.1640784432581" cy="1082.2882909934171"><title>n_217</title></circle><text x="0" y="-7" id="n_217" class="label_ErPtWMnx" transform="translate(980.1640784432581,1082.2882909934171)" cx="980.1640784432581" cy="1082.2882909934171">n_217</text></g><g><circle id="n_267" r="5" fill="#99ccff" cx="-41.05931815280462" cy="214.02331389915014"><title>n_267</title></circle><text x="0" y="-7" id="n_267" class="label_ErPtWMnx" transform="translate(-41.05931815280462,214.02331389915014)" cx="-41.05931815280462" cy="214.02331389915014">n_267</text></g><g><circle id="n_268" r="5" fill="#99ccff" cx="1600.9654819121286" cy="775.6027586263272"><title>n_268</title></circle><text x="0" y="-7" id="n_268" class="label_ErPtWMnx" transform="translate(1600.9654819121286,775.6027586263272)" cx="1600.9654819121286" cy="775.6027586263272">n_268</text></g><g><circle id="n_269" r="5" fill="#99ccff" cx="-112.25772345755253" cy="144.0501903553112"><title>n_269</title></circle><text x="0" y="-7" id="n_269" class="label_ErPtWMnx" transform="translate(-112.25772345755253,144.0501903553112)" cx="-112.25772345755253" cy="144.0501903553112">n_269</text></g><g><circle id="n_270" r="5" fill="#99ccff" cx="184.35273140269774" cy="278.190329009952"><title>n_270</title></circle><text x="0" y="-7" id="n_270" class="label_ErPtWMnx" transform="translate(184.35273140269774,278.190329009952)" cx="184.35273140269774" cy="278.190329009952">n_270</text></g><g><circle id="n_33" r="5" fill="#99ccff" cx="19.090523160974897" cy="217.52184122247596"><title>n_33</title></circle><text x="0" y="-7" id="n_33" class="label_ErPtWMnx" transform="translate(19.090523160974897,217.52184122247596)" cx="19.090523160974897" cy="217.52184122247596">n_33</text></g><g><circle id="n_201" r="5" fill="#99ccff" cx="691.5987785845284" cy="-74.70833331509131"><title>n_201</title></circle><text x="0" y="-7" id="n_201" class="label_ErPtWMnx" transform="translate(691.5987785845284,-74.70833331509131)" cx="691.5987785845284" cy="-74.70833331509131">n_201</text></g><g><circle id="n_271" r="5" fill="#99ccff" cx="-131.44285071085483" cy="166.11589126326396"><title>n_271</title></circle><text x="0" y="-7" id="n_271" class="label_ErPtWMnx" transform="translate(-131.44285071085483,166.11589126326396)" cx="-131.44285071085483" cy="166.11589126326396">n_271</text></g><g><circle id="n_272" r="5" fill="#99ccff" cx="6.743308947941239" cy="264.00823146437426"><title>n_272</title></circle><text x="0" y="-7" id="n_272" class="label_ErPtWMnx" transform="translate(6.743308947941239,264.00823146437426)" cx="6.743308947941239" cy="264.00823146437426">n_272</text></g><g><circle id="n_273" r="5" fill="#99ccff" cx="1086.1214638281049" cy="5.1775386572311595"><title>n_273</title></circle><text x="0" y="-7" id="n_273" class="label_ErPtWMnx" transform="translate(1086.1214638281049,5.1775386572311595)" cx="1086.1214638281049" cy="5.1775386572311595">n_273</text></g><g><circle id="n_274" r="5" fill="#99ccff" cx="-36.48178745755384" cy="342.6562250596145"><title>n_274</title></circle><text x="0" y="-7" id="n_274" class="label_ErPtWMnx" transform="translate(-36.48178745755384,342.6562250596145)" cx="-36.48178745755384" cy="342.6562250596145">n_274</text></g><g><circle id="n_275" r="5" fill="#99ccff" cx="260.92810911059627" cy="277.0989806234003"><title>n_275</title></circle><text x="0" y="-7" id="n_275" class="label_ErPtWMnx" transform="translate(260.92810911059627,277.0989806234003)" cx="260.92810911059627" cy="277.0989806234003">n_275</text></g><g><circle id="n_276" r="5" fill="#99ccff" cx="122.44930964936454" cy="198.44741002921668"><title>n_276</title></circle><text x="0" y="-7" id="n_276" class="label_ErPtWMnx" transform="translate(122.44930964936454,198.44741002921668)" cx="122.44930964936454" cy="198.44741002921668">n_276</text></g><g><circle id="n_277" r="5" fill="#99ccff" cx="-21.20847428658301" cy="144.28952112496586"><title>n_277</title></circle><text x="0" y="-7" id="n_277" class="label_ErPtWMnx" transform="translate(-21.20847428658301,144.28952112496586)" cx="-21.20847428658301" cy="144.28952112496586">n_277</text></g><g><circle id="n_104" r="5" fill="#99ccff" cx="848.3406495645953" cy="-78.9337723006218"><title>n_104</title></circle><text x="0" y="-7" id="n_104" class="label_ErPtWMnx" transform="translate(848.3406495645953,-78.9337723006218)" cx="848.3406495645953" cy="-78.9337723006218">n_104</text></g><g><circle id="n_278" r="5" fill="#99ccff" cx="1608.5382023296052" cy="554.5176435590308"><title>n_278</title></circle><text x="0" y="-7" id="n_278" class="label_ErPtWMnx" transform="translate(1608.5382023296052,554.5176435590308)" cx="1608.5382023296052" cy="554.5176435590308">n_278</text></g><g><circle id="n_279" r="5" fill="#99ccff" cx="547.9788195491939" cy="973.4654035448162"><title>n_279</title></circle><text x="0" y="-7" id="n_279" class="label_ErPtWMnx" transform="translate(547.9788195491939,973.4654035448162)" cx="547.9788195491939" cy="973.4654035448162">n_279</text></g><g><circle id="n_133" r="5" fill="#99ccff" cx="1289.6320848227044" cy="59.481555592798124"><title>n_133</title></circle><text x="0" y="-7" id="n_133" class="label_ErPtWMnx" transform="translate(1289.6320848227044,59.481555592798124)" cx="1289.6320848227044" cy="59.481555592798124">n_133</text></g><g><circle id="n_280" r="5" fill="#99ccff" cx="116.23889330325441" cy="233.68993874235787"><title>n_280</title></circle><text x="0" y="-7" id="n_280" class="label_ErPtWMnx" transform="translate(116.23889330325441,233.68993874235787)" cx="116.23889330325441" cy="233.68993874235787">n_280</text></g><g><circle id="n_281" r="5" fill="#99ccff" cx="678.1826211123179" cy="170.30942473478453"><title>n_281</title></circle><text x="0" y="-7" id="n_281" class="label_ErPtWMnx" transform="translate(678.1826211123179,170.30942473478453)" cx="678.1826211123179" cy="170.30942473478453">n_281</text></g><g><circle id="n_336" r="5" fill="#99ccff" cx="-109.27526457182303" cy="311.72918188999125"><title>n_336</title></circle><text x="0" y="-7" id="n_336" class="label_ErPtWMnx" transform="translate(-109.27526457182303,311.72918188999125)" cx="-109.27526457182303" cy="311.72918188999125">n_336</text></g><g><circle id="n_386" r="5" fill="#99ccff" cx="-65.71834361169566" cy="96.29673586067071"><title>n_386</title></circle><text x="0" y="-7" id="n_386" class="label_ErPtWMnx" transform="translate(-65.71834361169566,96.29673586067071)" cx="-65.71834361169566" cy="96.29673586067071">n_386</text></g><g><circle id="n_320" r="5" fill="#99ccff" cx="-53.80225256012022" cy="123.55808522315918"><title>n_320</title></circle><text x="0" y="-7" id="n_320" class="label_ErPtWMnx" transform="translate(-53.80225256012022,123.55808522315918)" cx="-53.80225256012022" cy="123.55808522315918">n_320</text></g><g><circle id="n_88" r="5" fill="#99ccff" cx="-34.03200030971981" cy="261.3576377876057"><title>n_88</title></circle><text x="0" y="-7" id="n_88" class="label_ErPtWMnx" transform="translate(-34.03200030971981,261.3576377876057)" cx="-34.03200030971981" cy="261.3576377876057">n_88</text></g></g></g></svg>