<svg xmlns="http://www.w3.org/2000/svg" width="600" height="600" id="srbxOxHV">        
    <text x="20" y="20" font-family="sans-serif" font-size="14px" fill="#666" style="cursor: pointer" id="srbxOxHV_svg_txt">[save svg]</text>
<defs><marker id="end" viewBox="0 -5 20 20" refX="34" refY="0" markerWidth="15" markerHeight="15" orient="auto"><path d="M0,-5 L20,0 L0,5 z" fill="#999" stroke="none"/></marker></defs><g class="everything"><g class="links_srbxOxHV"/><g class="nodes_srbxOxHV"><g><circle id="n_130" r="5" fill="#99ccff" cx="314.71447601004246" cy="303.6811996702643"><title>n_130</title></circle><text x="0" y="-7" id="n_130" class="label_srbxOxHV" transform="translate(314.71447601004246,303.6811996702643)" cx="314.71447601004246" cy="303.6811996702643">n_130</text></g><g><circle id="n_35" r="5" fill="#99ccff" cx="216.67588800286856" cy="410.9268360027347"><title>n_35</title></circle><text x="0" y="-7" id="n_35" class="label_srbxOxHV" transform="translate(216.67588800286856,410.9268360027347)" cx="216.67588800286856" cy="410.9268360027347">n_35</text></g><g><circle id="n_195" r="5" fill="#99ccff" cx="286.0519375108287" cy="165.11209198353936"><title>n_195</title></circle><text x="0" y="-7" id="n_195" class="label_srbxOxHV" transform="translate(286.0519375108287,165.11209198353936)" cx="286.0519375108287" cy="165.11209198353936">n_195</text></g><g><circle id="n_228" r="5" fill="#99ccff" cx="384.13651888466677" cy="418.84386173207486"><title>n_228</title></circle><text x="0" y="-7" id="n_228" class="label_srbxOxHV" transform="translate(384.13651888466677,418.84386173207486)" cx="384.13651888466677" cy="418.84386173207486">n_228</text></g><g><circle id="n_218" r="5" fill="#99ccff" cx="158.9623022428503" cy="271.1945992660729"><title>n_218</title></circle><text x="0" y="-7" id="n_218" class="label_srbxOxHV" transform="translate(158.9623022428503,271.1945992660729)" cx="158.9623022428503" cy="271.1945992660729">n_218</text></g><g><circle id="n_229" r="5" fill="#99ccff" cx="439.4579413158525" cy="230.23825612093378"><title>n_229</title></circle><text x="0" y="-7" id="n_229" class="label_srbxOxHV" transform="translate(439.4579413158525,230.23825612093378)" cx="439.4579413158525" cy="230.23825612093378">n_229</text></g></g></g></svg>