<svg xmlns="http://www.w3.org/2000/svg" width="600" height="600" id="YJUDpyAs">        
    <text x="20" y="20" font-family="sans-serif" font-size="14px" fill="#666" style="cursor: pointer" id="YJUDpyAs_svg_txt">[save svg]</text>
<defs><marker id="end" viewBox="0 -5 20 20" refX="34" refY="0" markerWidth="15" markerHeight="15" orient="auto"><path d="M0,-5 L20,0 L0,5 z" fill="#999" stroke="none"/></marker></defs><g class="everything" transform="translate(104.05842728903366,152.19742006800612) scale(1.0000000000000004)"><g class="links_YJUDpyAs"><line stroke-width="0.15422885572139303" stroke="#999999" x1="144.5747778921198" y1="130.50874029637376" x2="147.4021046135769" y2="226.6798783202366"/><line stroke-width="0.01990049751243781" stroke="#999999" x1="144.5747778921198" y1="130.50874029637376" x2="195.54559131522305" y2="130.48012533560876"/><line stroke-width="0.03980099502487562" stroke="#999999" x1="144.5747778921198" y1="130.50874029637376" x2="153.28789923602432" y2="105.45755250892546"/><line stroke-width="0.01990049751243781" stroke="#999999" x1="144.5747778921198" y1="130.50874029637376" x2="131.92518160003468" y2="160.1958644516457"/><line stroke-width="0.07960199004975124" stroke="#999999" x1="144.5747778921198" y1="130.50874029637376" x2="216.4962809194088" y2="168.9597410092974"/><line stroke-width="0.06467661691542288" stroke="#999999" x1="144.5747778921198" y1="130.50874029637376" x2="171.72684476691302" y2="68.35370682034053"/><line stroke-width="0.06467661691542288" stroke="#999999" x1="144.5747778921198" y1="130.50874029637376" x2="220.50791053857606" y2="206.27031822194655"/><line stroke-width="0.13432835820895522" stroke="#999999" x1="144.5747778921198" y1="130.50874029637376" x2="126.20440568177457" y2="79.36699277927399"/><line stroke-width="0.2736318407960199" stroke="#999999" x1="144.5747778921198" y1="130.50874029637376" x2="225.45132942314544" y2="84.09842967218061"/><line stroke-width="0.17412935323383083" stroke="#999999" x1="144.5747778921198" y1="130.50874029637376" x2="59.126865496716775" y2="79.1859172011976"/><line stroke-width="0.004975124378109453" stroke="#999999" x1="144.5747778921198" y1="130.50874029637376" x2="78.23901043416346" y2="156.54849815475686"/><line stroke-width="0.02487562189054726" stroke="#999999" x1="144.5747778921198" y1="130.50874029637376" x2="75.77744252153249" y2="33.82250466436445"/><line stroke-width="0.009950248756218905" stroke="#999999" x1="144.5747778921198" y1="130.50874029637376" x2="58.59990577480297" y2="178.22817411337618"/><line stroke-width="0.024875621890547265" stroke="#999999" x1="144.5747778921198" y1="130.50874029637376" x2="50.173146775540125" y2="112.20408709526376"/><line stroke-width="0.02487562189054726" stroke="#999999" x1="144.5747778921198" y1="130.50874029637376" x2="118.1707380396835" y2="38.432655243863415"/><line stroke-width="0.01990049751243781" stroke="#999999" x1="144.5747778921198" y1="130.50874029637376" x2="84.22516433809197" y2="122.68098017876214"/><line stroke-width="0.01990049751243781" stroke="#999999" x1="144.5747778921198" y1="130.50874029637376" x2="94.47245772332418" y2="-2.069626184945696"/><line stroke-width="0.09452736318407959" stroke="#999999" x1="144.5747778921198" y1="130.50874029637376" x2="32.203149878578195" y2="158.1928830489442"/><line stroke-width="0.004975124378109453" stroke="#999999" x1="144.5747778921198" y1="130.50874029637376" x2="151.1710637606176" y2="180.37265307464864"/><line stroke-width="0.024875621890547265" stroke="#999999" x1="144.5747778921198" y1="130.50874029637376" x2="190.1566698186527" y2="100.06215066323776"/><line stroke-width="0.01990049751243781" stroke="#999999" x1="144.5747778921198" y1="130.50874029637376" x2="99.14805328182013" y2="189.87220583945216"/><line stroke-width="0.009950248756218905" stroke="#999999" x1="144.5747778921198" y1="130.50874029637376" x2="227.00057313491666" y2="128.21610322371043"/><line stroke-width="0.06467661691542288" stroke="#999999" x1="144.5747778921198" y1="130.50874029637376" x2="250.12634932919755" y2="176.86378694976722"/><line stroke-width="0.04477611940298508" stroke="#999999" x1="144.5747778921198" y1="130.50874029637376" x2="85.03702918950734" y2="62.20599434010655"/><line stroke-width="0.004975124378109453" stroke="#999999" x1="144.5747778921198" y1="130.50874029637376" x2="107.14151397409124" y2="114.27698468431956"/><line stroke-width="0.03482587064676617" stroke="#999999" x1="144.5747778921198" y1="130.50874029637376" x2="149.69939774321892" y2="38.86711488046972"/><line stroke-width="0.07960199004975124" stroke="#999999" x1="144.5747778921198" y1="130.50874029637376" x2="192.71294057194763" y2="218.07743154846355"/><line stroke-width="0.01990049751243781" stroke="#999999" x1="144.5747778921198" y1="130.50874029637376" x2="177.67108830787635" y2="-1.4294526271184589"/><line stroke-width="0.01990049751243781" stroke="#999999" x1="144.5747778921198" y1="130.50874029637376" x2="139.35305415987858" y2="1.6677451198786863"/><line stroke-width="0.34375" stroke="#999999" x1="147.4021046135769" y1="226.6798783202366" x2="144.5747778921198" y2="130.50874029637376"/><line stroke-width="0.03125" stroke="#999999" x1="147.4021046135769" y1="226.6798783202366" x2="153.28789923602432" y2="105.45755250892546"/><line stroke-width="0.0625" stroke="#999999" x1="147.4021046135769" y1="226.6798783202366" x2="131.92518160003468" y2="160.1958644516457"/><line stroke-width="0.03125" stroke="#999999" x1="147.4021046135769" y1="226.6798783202366" x2="216.4962809194088" y2="168.9597410092974"/><line stroke-width="0.0625" stroke="#999999" x1="147.4021046135769" y1="226.6798783202366" x2="171.72684476691302" y2="68.35370682034053"/><line stroke-width="0.03125" stroke="#999999" x1="147.4021046135769" y1="226.6798783202366" x2="220.50791053857606" y2="206.27031822194655"/><line stroke-width="0.03125" stroke="#999999" x1="147.4021046135769" y1="226.6798783202366" x2="225.45132942314544" y2="84.09842967218061"/><line stroke-width="0.09375" stroke="#999999" x1="147.4021046135769" y1="226.6798783202366" x2="59.126865496716775" y2="79.1859172011976"/><line stroke-width="0.03125" stroke="#999999" x1="147.4021046135769" y1="226.6798783202366" x2="32.203149878578195" y2="158.1928830489442"/><line stroke-width="0.03125" stroke="#999999" x1="147.4021046135769" y1="226.6798783202366" x2="99.14805328182013" y2="189.87220583945216"/><line stroke-width="0.03125" stroke="#999999" x1="147.4021046135769" y1="226.6798783202366" x2="250.12634932919755" y2="176.86378694976722"/><line stroke-width="0.03125" stroke="#999999" x1="147.4021046135769" y1="226.6798783202366" x2="192.71294057194763" y2="218.07743154846355"/><line stroke-width="0.6666666666666666" stroke="#999999" x1="195.54559131522305" y1="130.48012533560876" x2="144.5747778921198" y2="130.50874029637376"/><line stroke-width="0.3333333333333333" stroke="#999999" x1="195.54559131522305" y1="130.48012533560876" x2="225.45132942314544" y2="84.09842967218061"/><line stroke-width="0.75" stroke="#999999" x1="153.28789923602432" y1="105.45755250892546" x2="144.5747778921198" y2="130.50874029637376"/><line stroke-width="0.25" stroke="#999999" x1="153.28789923602432" y1="105.45755250892546" x2="147.4021046135769" y2="226.6798783202366"/><line stroke-width="0.5" stroke="#999999" x1="153.28789923602432" y1="105.45755250892546" x2="171.72684476691302" y2="68.35370682034053"/><line stroke-width="0.25" stroke="#999999" x1="153.28789923602432" y1="105.45755250892546" x2="126.20440568177457" y2="79.36699277927399"/><line stroke-width="0.25" stroke="#999999" x1="153.28789923602432" y1="105.45755250892546" x2="225.45132942314544" y2="84.09842967218061"/><line stroke-width="0.5" stroke="#999999" x1="153.28789923602432" y1="105.45755250892546" x2="59.126865496716775" y2="79.1859172011976"/><line stroke-width="0.25" stroke="#999999" x1="153.28789923602432" y1="105.45755250892546" x2="75.77744252153249" y2="33.82250466436445"/><line stroke-width="0.25" stroke="#999999" x1="153.28789923602432" y1="105.45755250892546" x2="118.1707380396835" y2="38.432655243863415"/><line stroke-width="0.25" stroke="#999999" x1="153.28789923602432" y1="105.45755250892546" x2="94.47245772332418" y2="-2.069626184945696"/><line stroke-width="0.25" stroke="#999999" x1="153.28789923602432" y1="105.45755250892546" x2="99.14805328182013" y2="189.87220583945216"/><line stroke-width="0.25" stroke="#999999" x1="153.28789923602432" y1="105.45755250892546" x2="227.00057313491666" y2="128.21610322371043"/><line stroke-width="0.25" stroke="#999999" x1="153.28789923602432" y1="105.45755250892546" x2="250.12634932919755" y2="176.86378694976722"/><line stroke-width="0.25" stroke="#999999" x1="153.28789923602432" y1="105.45755250892546" x2="85.03702918950734" y2="62.20599434010655"/><line stroke-width="0.25" stroke="#999999" x1="153.28789923602432" y1="105.45755250892546" x2="149.69939774321892" y2="38.86711488046972"/><line stroke-width="0.25" stroke="#999999" x1="153.28789923602432" y1="105.45755250892546" x2="177.67108830787635" y2="-1.4294526271184589"/><line stroke-width="0.25" stroke="#999999" x1="153.28789923602432" y1="105.45755250892546" x2="139.35305415987858" y2="1.6677451198786863"/><line stroke-width="1" stroke="#999999" x1="131.92518160003468" y1="160.1958644516457" x2="144.5747778921198" y2="130.50874029637376"/><line stroke-width="0.5" stroke="#999999" x1="131.92518160003468" y1="160.1958644516457" x2="147.4021046135769" y2="226.6798783202366"/><line stroke-width="0.5" stroke="#999999" x1="131.92518160003468" y1="160.1958644516457" x2="171.72684476691302" y2="68.35370682034053"/><line stroke-width="0.5" stroke="#999999" x1="131.92518160003468" y1="160.1958644516457" x2="59.126865496716775" y2="79.1859172011976"/><line stroke-width="1" stroke="#999999" x1="198.00574055286378" y1="32.511608325726094" x2="171.72684476691302" y2="68.35370682034053"/><line stroke-width="1" stroke="#999999" x1="216.4962809194088" y1="168.9597410092974" x2="144.5747778921198" y2="130.50874029637376"/><line stroke-width="0.3333333333333333" stroke="#999999" x1="216.4962809194088" y1="168.9597410092974" x2="147.4021046135769" y2="226.6798783202366"/><line stroke-width="0.3333333333333333" stroke="#999999" x1="216.4962809194088" y1="168.9597410092974" x2="220.50791053857606" y2="206.27031822194655"/><line stroke-width="0.6666666666666666" stroke="#999999" x1="216.4962809194088" y1="168.9597410092974" x2="225.45132942314544" y2="84.09842967218061"/><line stroke-width="0.3333333333333333" stroke="#999999" x1="216.4962809194088" y1="168.9597410092974" x2="227.00057313491666" y2="128.21610322371043"/><line stroke-width="0.3333333333333333" stroke="#999999" x1="216.4962809194088" y1="168.9597410092974" x2="250.12634932919755" y2="176.86378694976722"/><line stroke-width="0.3333333333333333" stroke="#999999" x1="216.4962809194088" y1="168.9597410092974" x2="192.71294057194763" y2="218.07743154846355"/><line stroke-width="0.4545454545454546" stroke="#999999" x1="171.72684476691302" y1="68.35370682034053" x2="144.5747778921198" y2="130.50874029637376"/><line stroke-width="0.09090909090909091" stroke="#999999" x1="171.72684476691302" y1="68.35370682034053" x2="147.4021046135769" y2="226.6798783202366"/><line stroke-width="0.18181818181818182" stroke="#999999" x1="171.72684476691302" y1="68.35370682034053" x2="153.28789923602432" y2="105.45755250892546"/><line stroke-width="0.09090909090909091" stroke="#999999" x1="171.72684476691302" y1="68.35370682034053" x2="131.92518160003468" y2="160.1958644516457"/><line stroke-width="0.09090909090909091" stroke="#999999" x1="171.72684476691302" y1="68.35370682034053" x2="198.00574055286378" y2="32.511608325726094"/><line stroke-width="0.09090909090909091" stroke="#999999" x1="171.72684476691302" y1="68.35370682034053" x2="126.20440568177457" y2="79.36699277927399"/><line stroke-width="0.2727272727272727" stroke="#999999" x1="171.72684476691302" y1="68.35370682034053" x2="225.45132942314544" y2="84.09842967218061"/><line stroke-width="0.2727272727272727" stroke="#999999" x1="171.72684476691302" y1="68.35370682034053" x2="59.126865496716775" y2="79.1859172011976"/><line stroke-width="0.09090909090909091" stroke="#999999" x1="171.72684476691302" y1="68.35370682034053" x2="75.77744252153249" y2="33.82250466436445"/><line stroke-width="0.09090909090909091" stroke="#999999" x1="171.72684476691302" y1="68.35370682034053" x2="118.1707380396835" y2="38.432655243863415"/><line stroke-width="0.09090909090909091" stroke="#999999" x1="171.72684476691302" y1="68.35370682034053" x2="94.47245772332418" y2="-2.069626184945696"/><line stroke-width="0.09090909090909091" stroke="#999999" x1="171.72684476691302" y1="68.35370682034053" x2="85.03702918950734" y2="62.20599434010655"/><line stroke-width="0.09090909090909091" stroke="#999999" x1="171.72684476691302" y1="68.35370682034053" x2="149.69939774321892" y2="38.86711488046972"/><line stroke-width="0.09090909090909091" stroke="#999999" x1="171.72684476691302" y1="68.35370682034053" x2="177.67108830787635" y2="-1.4294526271184589"/><line stroke-width="0.09090909090909091" stroke="#999999" x1="171.72684476691302" y1="68.35370682034053" x2="139.35305415987858" y2="1.6677451198786863"/><line stroke-width="1" stroke="#999999" x1="220.50791053857606" y1="206.27031822194655" x2="144.5747778921198" y2="130.50874029637376"/><line stroke-width="1" stroke="#999999" x1="220.50791053857606" y1="206.27031822194655" x2="147.4021046135769" y2="226.6798783202366"/><line stroke-width="1" stroke="#999999" x1="220.50791053857606" y1="206.27031822194655" x2="216.4962809194088" y2="168.9597410092974"/><line stroke-width="1" stroke="#999999" x1="220.50791053857606" y1="206.27031822194655" x2="225.45132942314544" y2="84.09842967218061"/><line stroke-width="1" stroke="#999999" x1="220.50791053857606" y1="206.27031822194655" x2="250.12634932919755" y2="176.86378694976722"/><line stroke-width="1" stroke="#999999" x1="220.50791053857606" y1="206.27031822194655" x2="192.71294057194763" y2="218.07743154846355"/><line stroke-width="1" stroke="#999999" x1="233.77252840994652" y1="21.52422337321721" x2="225.45132942314544" y2="84.09842967218061"/><line stroke-width="1" stroke="#999999" x1="233.77252840994652" y1="21.52422337321721" x2="265.91076382959363" y2="10.53317171272758"/><line stroke-width="1" stroke="#999999" x1="233.77252840994652" y1="21.52422337321721" x2="177.67108830787635" y2="-1.4294526271184589"/><line stroke-width="1" stroke="#999999" x1="291.66897342591784" y1="-23.716767937706614" x2="265.91076382959363" y2="10.53317171272758"/><line stroke-width="0.6500000000000001" stroke="#999999" x1="126.20440568177457" y1="79.36699277927399" x2="144.5747778921198" y2="130.50874029637376"/><line stroke-width="0.1" stroke="#999999" x1="126.20440568177457" y1="79.36699277927399" x2="153.28789923602432" y2="105.45755250892546"/><line stroke-width="0.1" stroke="#999999" x1="126.20440568177457" y1="79.36699277927399" x2="171.72684476691302" y2="68.35370682034053"/><line stroke-width="0.125" stroke="#999999" x1="126.20440568177457" y1="79.36699277927399" x2="225.45132942314544" y2="84.09842967218061"/><line stroke-width="0.275" stroke="#999999" x1="126.20440568177457" y1="79.36699277927399" x2="59.126865496716775" y2="79.1859172011976"/><line stroke-width="0.175" stroke="#999999" x1="126.20440568177457" y1="79.36699277927399" x2="75.77744252153249" y2="33.82250466436445"/><line stroke-width="0.1" stroke="#999999" x1="126.20440568177457" y1="79.36699277927399" x2="118.1707380396835" y2="38.432655243863415"/><line stroke-width="0.1" stroke="#999999" x1="126.20440568177457" y1="79.36699277927399" x2="94.47245772332418" y2="-2.069626184945696"/><line stroke-width="0.025" stroke="#999999" x1="126.20440568177457" y1="79.36699277927399" x2="190.1566698186527" y2="100.06215066323776"/><line stroke-width="0.025" stroke="#999999" x1="126.20440568177457" y1="79.36699277927399" x2="99.14805328182013" y2="189.87220583945216"/><line stroke-width="0.1" stroke="#999999" x1="126.20440568177457" y1="79.36699277927399" x2="85.03702918950734" y2="62.20599434010655"/><line stroke-width="0.125" stroke="#999999" x1="126.20440568177457" y1="79.36699277927399" x2="107.14151397409124" y2="114.27698468431956"/><line stroke-width="0.1" stroke="#999999" x1="126.20440568177457" y1="79.36699277927399" x2="149.69939774321892" y2="38.86711488046972"/><line stroke-width="0.1" stroke="#999999" x1="126.20440568177457" y1="79.36699277927399" x2="177.67108830787635" y2="-1.4294526271184589"/><line stroke-width="0.1" stroke="#999999" x1="126.20440568177457" y1="79.36699277927399" x2="139.35305415987858" y2="1.6677451198786863"/><line stroke-width="0.7058823529411765" stroke="#999999" x1="225.45132942314544" y1="84.09842967218061" x2="144.5747778921198" y2="130.50874029637376"/><line stroke-width="0.0392156862745098" stroke="#999999" x1="225.45132942314544" y1="84.09842967218061" x2="147.4021046135769" y2="226.6798783202366"/><line stroke-width="0.0196078431372549" stroke="#999999" x1="225.45132942314544" y1="84.09842967218061" x2="195.54559131522305" y2="130.48012533560876"/><line stroke-width="0.0784313725490196" stroke="#999999" x1="225.45132942314544" y1="84.09842967218061" x2="153.28789923602432" y2="105.45755250892546"/><line stroke-width="0.0784313725490196" stroke="#999999" x1="225.45132942314544" y1="84.09842967218061" x2="216.4962809194088" y2="168.9597410092974"/><line stroke-width="0.11764705882352941" stroke="#999999" x1="225.45132942314544" y1="84.09842967218061" x2="171.72684476691302" y2="68.35370682034053"/><line stroke-width="0.0392156862745098" stroke="#999999" x1="225.45132942314544" y1="84.09842967218061" x2="220.50791053857606" y2="206.27031822194655"/><line stroke-width="0.0196078431372549" stroke="#999999" x1="225.45132942314544" y1="84.09842967218061" x2="233.77252840994652" y2="21.52422337321721"/><line stroke-width="0.23529411764705882" stroke="#999999" x1="225.45132942314544" y1="84.09842967218061" x2="126.20440568177457" y2="79.36699277927399"/><line stroke-width="0.11764705882352941" stroke="#999999" x1="225.45132942314544" y1="84.09842967218061" x2="59.126865496716775" y2="79.1859172011976"/><line stroke-width="0.0784313725490196" stroke="#999999" x1="225.45132942314544" y1="84.09842967218061" x2="75.77744252153249" y2="33.82250466436445"/><line stroke-width="0.0784313725490196" stroke="#999999" x1="225.45132942314544" y1="84.09842967218061" x2="118.1707380396835" y2="38.432655243863415"/><line stroke-width="0.0784313725490196" stroke="#999999" x1="225.45132942314544" y1="84.09842967218061" x2="94.47245772332418" y2="-2.069626184945696"/><line stroke-width="0.0196078431372549" stroke="#999999" x1="225.45132942314544" y1="84.09842967218061" x2="32.203149878578195" y2="158.1928830489442"/><line stroke-width="0.0196078431372549" stroke="#999999" x1="225.45132942314544" y1="84.09842967218061" x2="270.05649156501795" y2="95.71835352923974"/><line stroke-width="0.0196078431372549" stroke="#999999" x1="225.45132942314544" y1="84.09842967218061" x2="265.91076382959363" y2="10.53317171272758"/><line stroke-width="0.1568627450980392" stroke="#999999" x1="225.45132942314544" y1="84.09842967218061" x2="190.1566698186527" y2="100.06215066323776"/><line stroke-width="0.0392156862745098" stroke="#999999" x1="225.45132942314544" y1="84.09842967218061" x2="227.00057313491666" y2="128.21610322371043"/><line stroke-width="0.0392156862745098" stroke="#999999" x1="225.45132942314544" y1="84.09842967218061" x2="250.12634932919755" y2="176.86378694976722"/><line stroke-width="0.0784313725490196" stroke="#999999" x1="225.45132942314544" y1="84.09842967218061" x2="85.03702918950734" y2="62.20599434010655"/><line stroke-width="0.0784313725490196" stroke="#999999" x1="225.45132942314544" y1="84.09842967218061" x2="149.69939774321892" y2="38.86711488046972"/><line stroke-width="0.0392156862745098" stroke="#999999" x1="225.45132942314544" y1="84.09842967218061" x2="192.71294057194763" y2="218.07743154846355"/><line stroke-width="0.09803921568627451" stroke="#999999" x1="225.45132942314544" y1="84.09842967218061" x2="177.67108830787635" y2="-1.4294526271184589"/><line stroke-width="0.09803921568627451" stroke="#999999" x1="225.45132942314544" y1="84.09842967218061" x2="139.35305415987858" y2="1.6677451198786863"/><line stroke-width="0.2571428571428572" stroke="#999999" x1="59.126865496716775" y1="79.1859172011976" x2="144.5747778921198" y2="130.50874029637376"/><line stroke-width="0.014285714285714285" stroke="#999999" x1="59.126865496716775" y1="79.1859172011976" x2="147.4021046135769" y2="226.6798783202366"/><line stroke-width="0.06428571428571428" stroke="#999999" x1="59.126865496716775" y1="79.1859172011976" x2="153.28789923602432" y2="105.45755250892546"/><line stroke-width="0.007142857142857143" stroke="#999999" x1="59.126865496716775" y1="79.1859172011976" x2="131.92518160003468" y2="160.1958644516457"/><line stroke-width="0.07142857142857142" stroke="#999999" x1="59.126865496716775" y1="79.1859172011976" x2="171.72684476691302" y2="68.35370682034053"/><line stroke-width="0.08571428571428572" stroke="#999999" x1="59.126865496716775" y1="79.1859172011976" x2="126.20440568177457" y2="79.36699277927399"/><line stroke-width="0.07857142857142857" stroke="#999999" x1="59.126865496716775" y1="79.1859172011976" x2="225.45132942314544" y2="84.09842967218061"/><line stroke-width="0.007142857142857143" stroke="#999999" x1="59.126865496716775" y1="79.1859172011976" x2="78.23901043416346" y2="156.54849815475686"/><line stroke-width="0.014285714285714285" stroke="#999999" x1="59.126865496716775" y1="79.1859172011976" x2="11.298980607146442" y2="77.7767651131378"/><line stroke-width="0.08571428571428572" stroke="#999999" x1="59.126865496716775" y1="79.1859172011976" x2="75.77744252153249" y2="33.82250466436445"/><line stroke-width="0.007142857142857143" stroke="#999999" x1="59.126865496716775" y1="79.1859172011976" x2="58.59990577480297" y2="178.22817411337618"/><line stroke-width="0.05714285714285714" stroke="#999999" x1="59.126865496716775" y1="79.1859172011976" x2="118.1707380396835" y2="38.432655243863415"/><line stroke-width="0.007142857142857143" stroke="#999999" x1="59.126865496716775" y1="79.1859172011976" x2="84.22516433809197" y2="122.68098017876214"/><line stroke-width="0.06428571428571428" stroke="#999999" x1="59.126865496716775" y1="79.1859172011976" x2="94.47245772332418" y2="-2.069626184945696"/><line stroke-width="0.007142857142857143" stroke="#999999" x1="59.126865496716775" y1="79.1859172011976" x2="32.203149878578195" y2="158.1928830489442"/><line stroke-width="0.007142857142857143" stroke="#999999" x1="59.126865496716775" y1="79.1859172011976" x2="39.266646004439686" y2="3.620712628262315"/><line stroke-width="0.014285714285714285" stroke="#999999" x1="59.126865496716775" y1="79.1859172011976" x2="99.14805328182013" y2="189.87220583945216"/><line stroke-width="0.05714285714285714" stroke="#999999" x1="59.126865496716775" y1="79.1859172011976" x2="85.03702918950734" y2="62.20599434010655"/><line stroke-width="0.007142857142857143" stroke="#999999" x1="59.126865496716775" y1="79.1859172011976" x2="107.14151397409124" y2="114.27698468431956"/><line stroke-width="0.05714285714285714" stroke="#999999" x1="59.126865496716775" y1="79.1859172011976" x2="149.69939774321892" y2="38.86711488046972"/><line stroke-width="0.05714285714285714" stroke="#999999" x1="59.126865496716775" y1="79.1859172011976" x2="177.67108830787635" y2="-1.4294526271184589"/><line stroke-width="0.05714285714285714" stroke="#999999" x1="59.126865496716775" y1="79.1859172011976" x2="139.35305415987858" y2="1.6677451198786863"/><line stroke-width="1" stroke="#999999" x1="78.23901043416346" y1="156.54849815475686" x2="144.5747778921198" y2="130.50874029637376"/><line stroke-width="1" stroke="#999999" x1="78.23901043416346" y1="156.54849815475686" x2="59.126865496716775" y2="79.1859172011976"/><line stroke-width="1" stroke="#999999" x1="78.23901043416346" y1="156.54849815475686" x2="99.14805328182013" y2="189.87220583945216"/><line stroke-width="1" stroke="#999999" x1="11.298980607146442" y1="77.7767651131378" x2="59.126865496716775" y2="79.1859172011976"/><line stroke-width="0.029411764705882353" stroke="#999999" x1="348.68297920699746" y1="339.25264429104294" x2="323.2706804356699" y2="371.45246314822265"/><line stroke-width="0.5" stroke="#999999" x1="75.77744252153249" y1="33.82250466436445" x2="144.5747778921198" y2="130.50874029637376"/><line stroke-width="0.25" stroke="#999999" x1="75.77744252153249" y1="33.82250466436445" x2="153.28789923602432" y2="105.45755250892546"/><line stroke-width="0.25" stroke="#999999" x1="75.77744252153249" y1="33.82250466436445" x2="171.72684476691302" y2="68.35370682034053"/><line stroke-width="0.75" stroke="#999999" x1="75.77744252153249" y1="33.82250466436445" x2="126.20440568177457" y2="79.36699277927399"/><line stroke-width="0.25" stroke="#999999" x1="75.77744252153249" y1="33.82250466436445" x2="225.45132942314544" y2="84.09842967218061"/><line stroke-width="0.75" stroke="#999999" x1="75.77744252153249" y1="33.82250466436445" x2="59.126865496716775" y2="79.1859172011976"/><line stroke-width="0.25" stroke="#999999" x1="75.77744252153249" y1="33.82250466436445" x2="118.1707380396835" y2="38.432655243863415"/><line stroke-width="0.5" stroke="#999999" x1="75.77744252153249" y1="33.82250466436445" x2="94.47245772332418" y2="-2.069626184945696"/><line stroke-width="0.25" stroke="#999999" x1="75.77744252153249" y1="33.82250466436445" x2="39.266646004439686" y2="3.620712628262315"/><line stroke-width="0.25" stroke="#999999" x1="75.77744252153249" y1="33.82250466436445" x2="85.03702918950734" y2="62.20599434010655"/><line stroke-width="0.25" stroke="#999999" x1="75.77744252153249" y1="33.82250466436445" x2="149.69939774321892" y2="38.86711488046972"/><line stroke-width="0.25" stroke="#999999" x1="75.77744252153249" y1="33.82250466436445" x2="177.67108830787635" y2="-1.4294526271184589"/><line stroke-width="0.25" stroke="#999999" x1="75.77744252153249" y1="33.82250466436445" x2="139.35305415987858" y2="1.6677451198786863"/><line stroke-width="0.5" stroke="#999999" x1="58.59990577480297" y1="178.22817411337618" x2="144.5747778921198" y2="130.50874029637376"/><line stroke-width="0.5" stroke="#999999" x1="58.59990577480297" y1="178.22817411337618" x2="59.126865496716775" y2="79.1859172011976"/><line stroke-width="1" stroke="#999999" x1="58.59990577480297" y1="178.22817411337618" x2="32.203149878578195" y2="158.1928830489442"/><line stroke-width="0.5" stroke="#999999" x1="50.173146775540125" y1="112.20408709526376" x2="144.5747778921198" y2="130.50874029637376"/><line stroke-width="0.5" stroke="#999999" x1="50.173146775540125" y1="112.20408709526376" x2="32.203149878578195" y2="158.1928830489442"/><line stroke-width="0.5" stroke="#999999" x1="50.173146775540125" y1="112.20408709526376" x2="85.03702918950734" y2="62.20599434010655"/><line stroke-width="0.5" stroke="#999999" x1="118.1707380396835" y1="38.432655243863415" x2="144.5747778921198" y2="130.50874029637376"/><line stroke-width="0.25" stroke="#999999" x1="118.1707380396835" y1="38.432655243863415" x2="153.28789923602432" y2="105.45755250892546"/><line stroke-width="0.25" stroke="#999999" x1="118.1707380396835" y1="38.432655243863415" x2="171.72684476691302" y2="68.35370682034053"/><line stroke-width="0.25" stroke="#999999" x1="118.1707380396835" y1="38.432655243863415" x2="126.20440568177457" y2="79.36699277927399"/><line stroke-width="0.25" stroke="#999999" x1="118.1707380396835" y1="38.432655243863415" x2="225.45132942314544" y2="84.09842967218061"/><line stroke-width="0.25" stroke="#999999" x1="118.1707380396835" y1="38.432655243863415" x2="59.126865496716775" y2="79.1859172011976"/><line stroke-width="0.25" stroke="#999999" x1="118.1707380396835" y1="38.432655243863415" x2="75.77744252153249" y2="33.82250466436445"/><line stroke-width="0.25" stroke="#999999" x1="118.1707380396835" y1="38.432655243863415" x2="94.47245772332418" y2="-2.069626184945696"/><line stroke-width="0.25" stroke="#999999" x1="118.1707380396835" y1="38.432655243863415" x2="85.03702918950734" y2="62.20599434010655"/><line stroke-width="0.25" stroke="#999999" x1="118.1707380396835" y1="38.432655243863415" x2="149.69939774321892" y2="38.86711488046972"/><line stroke-width="0.25" stroke="#999999" x1="118.1707380396835" y1="38.432655243863415" x2="177.67108830787635" y2="-1.4294526271184589"/><line stroke-width="0.25" stroke="#999999" x1="118.1707380396835" y1="38.432655243863415" x2="139.35305415987858" y2="1.6677451198786863"/><line stroke-width="1" stroke="#999999" x1="84.22516433809197" y1="122.68098017876214" x2="144.5747778921198" y2="130.50874029637376"/><line stroke-width="1" stroke="#999999" x1="84.22516433809197" y1="122.68098017876214" x2="59.126865496716775" y2="79.1859172011976"/><line stroke-width="0.3333333333333333" stroke="#999999" x1="94.47245772332418" y1="-2.069626184945696" x2="144.5747778921198" y2="130.50874029637376"/><line stroke-width="0.3333333333333333" stroke="#999999" x1="94.47245772332418" y1="-2.069626184945696" x2="153.28789923602432" y2="105.45755250892546"/><line stroke-width="0.3333333333333333" stroke="#999999" x1="94.47245772332418" y1="-2.069626184945696" x2="171.72684476691302" y2="68.35370682034053"/><line stroke-width="0.3333333333333333" stroke="#999999" x1="94.47245772332418" y1="-2.069626184945696" x2="126.20440568177457" y2="79.36699277927399"/><line stroke-width="0.3333333333333333" stroke="#999999" x1="94.47245772332418" y1="-2.069626184945696" x2="225.45132942314544" y2="84.09842967218061"/><line stroke-width="1" stroke="#999999" x1="94.47245772332418" y1="-2.069626184945696" x2="59.126865496716775" y2="79.1859172011976"/><line stroke-width="1" stroke="#999999" x1="94.47245772332418" y1="-2.069626184945696" x2="75.77744252153249" y2="33.82250466436445"/><line stroke-width="0.3333333333333333" stroke="#999999" x1="94.47245772332418" y1="-2.069626184945696" x2="118.1707380396835" y2="38.432655243863415"/><line stroke-width="0.6666666666666666" stroke="#999999" x1="94.47245772332418" y1="-2.069626184945696" x2="39.266646004439686" y2="3.620712628262315"/><line stroke-width="0.3333333333333333" stroke="#999999" x1="94.47245772332418" y1="-2.069626184945696" x2="85.03702918950734" y2="62.20599434010655"/><line stroke-width="0.3333333333333333" stroke="#999999" x1="94.47245772332418" y1="-2.069626184945696" x2="149.69939774321892" y2="38.86711488046972"/><line stroke-width="0.3333333333333333" stroke="#999999" x1="94.47245772332418" y1="-2.069626184945696" x2="177.67108830787635" y2="-1.4294526271184589"/><line stroke-width="0.3333333333333333" stroke="#999999" x1="94.47245772332418" y1="-2.069626184945696" x2="139.35305415987858" y2="1.6677451198786863"/><line stroke-width="0.47058823529411764" stroke="#999999" x1="32.203149878578195" y1="158.1928830489442" x2="144.5747778921198" y2="130.50874029637376"/><line stroke-width="0.11764705882352941" stroke="#999999" x1="32.203149878578195" y1="158.1928830489442" x2="147.4021046135769" y2="226.6798783202366"/><line stroke-width="0.058823529411764705" stroke="#999999" x1="32.203149878578195" y1="158.1928830489442" x2="225.45132942314544" y2="84.09842967218061"/><line stroke-width="0.058823529411764705" stroke="#999999" x1="32.203149878578195" y1="158.1928830489442" x2="59.126865496716775" y2="79.1859172011976"/><line stroke-width="0.11764705882352941" stroke="#999999" x1="32.203149878578195" y1="158.1928830489442" x2="58.59990577480297" y2="178.22817411337618"/><line stroke-width="0.11764705882352941" stroke="#999999" x1="32.203149878578195" y1="158.1928830489442" x2="50.173146775540125" y2="112.20408709526376"/><line stroke-width="0.11764705882352941" stroke="#999999" x1="32.203149878578195" y1="158.1928830489442" x2="85.03702918950734" y2="62.20599434010655"/><line stroke-width="1" stroke="#999999" x1="270.05649156501795" y1="95.71835352923974" x2="225.45132942314544" y2="84.09842967218061"/><line stroke-width="1" stroke="#999999" x1="39.266646004439686" y1="3.620712628262315" x2="59.126865496716775" y2="79.1859172011976"/><line stroke-width="1" stroke="#999999" x1="39.266646004439686" y1="3.620712628262315" x2="75.77744252153249" y2="33.82250466436445"/><line stroke-width="1" stroke="#999999" x1="39.266646004439686" y1="3.620712628262315" x2="94.47245772332418" y2="-2.069626184945696"/><line stroke-width="0.6" stroke="#999999" x1="265.91076382959363" y1="10.53317171272758" x2="233.77252840994652" y2="21.52422337321721"/><line stroke-width="0.2" stroke="#999999" x1="265.91076382959363" y1="10.53317171272758" x2="291.66897342591784" y2="-23.716767937706614"/><line stroke-width="0.6" stroke="#999999" x1="265.91076382959363" y1="10.53317171272758" x2="225.45132942314544" y2="84.09842967218061"/><line stroke-width="0.2" stroke="#999999" x1="265.91076382959363" y1="10.53317171272758" x2="311.2198833324911" y2="25.261028779915048"/><line stroke-width="0.6" stroke="#999999" x1="265.91076382959363" y1="10.53317171272758" x2="177.67108830787635" y2="-1.4294526271184589"/><line stroke-width="1" stroke="#999999" x1="323.2706804356699" y1="371.45246314822265" x2="348.68297920699746" y2="339.25264429104294"/><line stroke-width="1" stroke="#999999" x1="151.1710637606176" y1="180.37265307464864" x2="144.5747778921198" y2="130.50874029637376"/><line stroke-width="1" stroke="#999999" x1="190.1566698186527" y1="100.06215066323776" x2="144.5747778921198" y2="130.50874029637376"/><line stroke-width="1" stroke="#999999" x1="190.1566698186527" y1="100.06215066323776" x2="126.20440568177457" y2="79.36699277927399"/><line stroke-width="1" stroke="#999999" x1="190.1566698186527" y1="100.06215066323776" x2="225.45132942314544" y2="84.09842967218061"/><line stroke-width="0.5" stroke="#999999" x1="99.14805328182013" y1="189.87220583945216" x2="144.5747778921198" y2="130.50874029637376"/><line stroke-width="0.25" stroke="#999999" x1="99.14805328182013" y1="189.87220583945216" x2="147.4021046135769" y2="226.6798783202366"/><line stroke-width="0.25" stroke="#999999" x1="99.14805328182013" y1="189.87220583945216" x2="153.28789923602432" y2="105.45755250892546"/><line stroke-width="0.25" stroke="#999999" x1="99.14805328182013" y1="189.87220583945216" x2="126.20440568177457" y2="79.36699277927399"/><line stroke-width="0.5" stroke="#999999" x1="99.14805328182013" y1="189.87220583945216" x2="59.126865496716775" y2="79.1859172011976"/><line stroke-width="0.25" stroke="#999999" x1="99.14805328182013" y1="189.87220583945216" x2="78.23901043416346" y2="156.54849815475686"/><line stroke-width="0.6666666666666666" stroke="#999999" x1="227.00057313491666" y1="128.21610322371043" x2="144.5747778921198" y2="130.50874029637376"/><line stroke-width="0.3333333333333333" stroke="#999999" x1="227.00057313491666" y1="128.21610322371043" x2="153.28789923602432" y2="105.45755250892546"/><line stroke-width="0.3333333333333333" stroke="#999999" x1="227.00057313491666" y1="128.21610322371043" x2="216.4962809194088" y2="168.9597410092974"/><line stroke-width="0.3333333333333333" stroke="#999999" x1="227.00057313491666" y1="128.21610322371043" x2="225.45132942314544" y2="84.09842967218061"/><line stroke-width="0.3333333333333333" stroke="#999999" x1="227.00057313491666" y1="128.21610322371043" x2="250.12634932919755" y2="176.86378694976722"/><line stroke-width="0.3333333333333333" stroke="#999999" x1="227.00057313491666" y1="128.21610322371043" x2="149.69939774321892" y2="38.86711488046972"/><line stroke-width="0.5" stroke="#999999" x1="250.12634932919755" y1="176.86378694976722" x2="144.5747778921198" y2="130.50874029637376"/><line stroke-width="0.5" stroke="#999999" x1="250.12634932919755" y1="176.86378694976722" x2="147.4021046135769" y2="226.6798783202366"/><line stroke-width="0.5" stroke="#999999" x1="250.12634932919755" y1="176.86378694976722" x2="153.28789923602432" y2="105.45755250892546"/><line stroke-width="0.5" stroke="#999999" x1="250.12634932919755" y1="176.86378694976722" x2="216.4962809194088" y2="168.9597410092974"/><line stroke-width="0.5" stroke="#999999" x1="250.12634932919755" y1="176.86378694976722" x2="220.50791053857606" y2="206.27031822194655"/><line stroke-width="0.5" stroke="#999999" x1="250.12634932919755" y1="176.86378694976722" x2="225.45132942314544" y2="84.09842967218061"/><line stroke-width="0.5" stroke="#999999" x1="250.12634932919755" y1="176.86378694976722" x2="227.00057313491666" y2="128.21610322371043"/><line stroke-width="0.5" stroke="#999999" x1="250.12634932919755" y1="176.86378694976722" x2="192.71294057194763" y2="218.07743154846355"/><line stroke-width="0.6666666666666666" stroke="#999999" x1="85.03702918950734" y1="62.20599434010655" x2="144.5747778921198" y2="130.50874029637376"/><line stroke-width="0.3333333333333333" stroke="#999999" x1="85.03702918950734" y1="62.20599434010655" x2="153.28789923602432" y2="105.45755250892546"/><line stroke-width="0.3333333333333333" stroke="#999999" x1="85.03702918950734" y1="62.20599434010655" x2="171.72684476691302" y2="68.35370682034053"/><line stroke-width="0.3333333333333333" stroke="#999999" x1="85.03702918950734" y1="62.20599434010655" x2="126.20440568177457" y2="79.36699277927399"/><line stroke-width="0.3333333333333333" stroke="#999999" x1="85.03702918950734" y1="62.20599434010655" x2="225.45132942314544" y2="84.09842967218061"/><line stroke-width="0.3333333333333333" stroke="#999999" x1="85.03702918950734" y1="62.20599434010655" x2="59.126865496716775" y2="79.1859172011976"/><line stroke-width="0.3333333333333333" stroke="#999999" x1="85.03702918950734" y1="62.20599434010655" x2="75.77744252153249" y2="33.82250466436445"/><line stroke-width="0.3333333333333333" stroke="#999999" x1="85.03702918950734" y1="62.20599434010655" x2="50.173146775540125" y2="112.20408709526376"/><line stroke-width="0.3333333333333333" stroke="#999999" x1="85.03702918950734" y1="62.20599434010655" x2="118.1707380396835" y2="38.432655243863415"/><line stroke-width="0.3333333333333333" stroke="#999999" x1="85.03702918950734" y1="62.20599434010655" x2="94.47245772332418" y2="-2.069626184945696"/><line stroke-width="0.3333333333333333" stroke="#999999" x1="85.03702918950734" y1="62.20599434010655" x2="32.203149878578195" y2="158.1928830489442"/><line stroke-width="0.3333333333333333" stroke="#999999" x1="85.03702918950734" y1="62.20599434010655" x2="149.69939774321892" y2="38.86711488046972"/><line stroke-width="0.3333333333333333" stroke="#999999" x1="85.03702918950734" y1="62.20599434010655" x2="177.67108830787635" y2="-1.4294526271184589"/><line stroke-width="0.3333333333333333" stroke="#999999" x1="85.03702918950734" y1="62.20599434010655" x2="139.35305415987858" y2="1.6677451198786863"/><line stroke-width="1" stroke="#999999" x1="107.14151397409124" y1="114.27698468431956" x2="144.5747778921198" y2="130.50874029637376"/><line stroke-width="1" stroke="#999999" x1="107.14151397409124" y1="114.27698468431956" x2="126.20440568177457" y2="79.36699277927399"/><line stroke-width="1" stroke="#999999" x1="107.14151397409124" y1="114.27698468431956" x2="59.126865496716775" y2="79.1859172011976"/><line stroke-width="1" stroke="#999999" x1="311.2198833324911" y1="25.261028779915048" x2="265.91076382959363" y2="10.53317171272758"/><line stroke-width="0.42857142857142855" stroke="#999999" x1="149.69939774321892" y1="38.86711488046972" x2="144.5747778921198" y2="130.50874029637376"/><line stroke-width="0.14285714285714285" stroke="#999999" x1="149.69939774321892" y1="38.86711488046972" x2="153.28789923602432" y2="105.45755250892546"/><line stroke-width="0.14285714285714285" stroke="#999999" x1="149.69939774321892" y1="38.86711488046972" x2="171.72684476691302" y2="68.35370682034053"/><line stroke-width="0.14285714285714285" stroke="#999999" x1="149.69939774321892" y1="38.86711488046972" x2="126.20440568177457" y2="79.36699277927399"/><line stroke-width="0.14285714285714285" stroke="#999999" x1="149.69939774321892" y1="38.86711488046972" x2="225.45132942314544" y2="84.09842967218061"/><line stroke-width="0.14285714285714285" stroke="#999999" x1="149.69939774321892" y1="38.86711488046972" x2="59.126865496716775" y2="79.1859172011976"/><line stroke-width="0.14285714285714285" stroke="#999999" x1="149.69939774321892" y1="38.86711488046972" x2="75.77744252153249" y2="33.82250466436445"/><line stroke-width="0.14285714285714285" stroke="#999999" x1="149.69939774321892" y1="38.86711488046972" x2="118.1707380396835" y2="38.432655243863415"/><line stroke-width="0.14285714285714285" stroke="#999999" x1="149.69939774321892" y1="38.86711488046972" x2="94.47245772332418" y2="-2.069626184945696"/><line stroke-width="0.14285714285714285" stroke="#999999" x1="149.69939774321892" y1="38.86711488046972" x2="227.00057313491666" y2="128.21610322371043"/><line stroke-width="0.14285714285714285" stroke="#999999" x1="149.69939774321892" y1="38.86711488046972" x2="85.03702918950734" y2="62.20599434010655"/><line stroke-width="0.14285714285714285" stroke="#999999" x1="149.69939774321892" y1="38.86711488046972" x2="177.67108830787635" y2="-1.4294526271184589"/><line stroke-width="0.14285714285714285" stroke="#999999" x1="149.69939774321892" y1="38.86711488046972" x2="139.35305415987858" y2="1.6677451198786863"/><line stroke-width="1" stroke="#999999" x1="192.71294057194763" y1="218.07743154846355" x2="144.5747778921198" y2="130.50874029637376"/><line stroke-width="0.5" stroke="#999999" x1="192.71294057194763" y1="218.07743154846355" x2="147.4021046135769" y2="226.6798783202366"/><line stroke-width="0.5" stroke="#999999" x1="192.71294057194763" y1="218.07743154846355" x2="216.4962809194088" y2="168.9597410092974"/><line stroke-width="0.5" stroke="#999999" x1="192.71294057194763" y1="218.07743154846355" x2="220.50791053857606" y2="206.27031822194655"/><line stroke-width="0.5" stroke="#999999" x1="192.71294057194763" y1="218.07743154846355" x2="225.45132942314544" y2="84.09842967218061"/><line stroke-width="0.5" stroke="#999999" x1="192.71294057194763" y1="218.07743154846355" x2="250.12634932919755" y2="176.86378694976722"/><line stroke-width="0.3333333333333333" stroke="#999999" x1="177.67108830787635" y1="-1.4294526271184589" x2="144.5747778921198" y2="130.50874029637376"/><line stroke-width="0.3333333333333333" stroke="#999999" x1="177.67108830787635" y1="-1.4294526271184589" x2="153.28789923602432" y2="105.45755250892546"/><line stroke-width="0.3333333333333333" stroke="#999999" x1="177.67108830787635" y1="-1.4294526271184589" x2="171.72684476691302" y2="68.35370682034053"/><line stroke-width="0.3333333333333333" stroke="#999999" x1="177.67108830787635" y1="-1.4294526271184589" x2="233.77252840994652" y2="21.52422337321721"/><line stroke-width="0.3333333333333333" stroke="#999999" x1="177.67108830787635" y1="-1.4294526271184589" x2="126.20440568177457" y2="79.36699277927399"/><line stroke-width="0.6666666666666666" stroke="#999999" x1="177.67108830787635" y1="-1.4294526271184589" x2="225.45132942314544" y2="84.09842967218061"/><line stroke-width="0.3333333333333333" stroke="#999999" x1="177.67108830787635" y1="-1.4294526271184589" x2="59.126865496716775" y2="79.1859172011976"/><line stroke-width="0.3333333333333333" stroke="#999999" x1="177.67108830787635" y1="-1.4294526271184589" x2="75.77744252153249" y2="33.82250466436445"/><line stroke-width="0.3333333333333333" stroke="#999999" x1="177.67108830787635" y1="-1.4294526271184589" x2="118.1707380396835" y2="38.432655243863415"/><line stroke-width="0.3333333333333333" stroke="#999999" x1="177.67108830787635" y1="-1.4294526271184589" x2="94.47245772332418" y2="-2.069626184945696"/><line stroke-width="0.3333333333333333" stroke="#999999" x1="177.67108830787635" y1="-1.4294526271184589" x2="265.91076382959363" y2="10.53317171272758"/><line stroke-width="0.3333333333333333" stroke="#999999" x1="177.67108830787635" y1="-1.4294526271184589" x2="85.03702918950734" y2="62.20599434010655"/><line stroke-width="0.3333333333333333" stroke="#999999" x1="177.67108830787635" y1="-1.4294526271184589" x2="149.69939774321892" y2="38.86711488046972"/><line stroke-width="0.3333333333333333" stroke="#999999" x1="177.67108830787635" y1="-1.4294526271184589" x2="139.35305415987858" y2="1.6677451198786863"/><line stroke-width="0.3333333333333333" stroke="#999999" x1="139.35305415987858" y1="1.6677451198786863" x2="144.5747778921198" y2="130.50874029637376"/><line stroke-width="0.3333333333333333" stroke="#999999" x1="139.35305415987858" y1="1.6677451198786863" x2="153.28789923602432" y2="105.45755250892546"/><line stroke-width="0.3333333333333333" stroke="#999999" x1="139.35305415987858" y1="1.6677451198786863" x2="171.72684476691302" y2="68.35370682034053"/><line stroke-width="0.3333333333333333" stroke="#999999" x1="139.35305415987858" y1="1.6677451198786863" x2="126.20440568177457" y2="79.36699277927399"/><line stroke-width="0.6666666666666666" stroke="#999999" x1="139.35305415987858" y1="1.6677451198786863" x2="225.45132942314544" y2="84.09842967218061"/><line stroke-width="0.3333333333333333" stroke="#999999" x1="139.35305415987858" y1="1.6677451198786863" x2="59.126865496716775" y2="79.1859172011976"/><line stroke-width="0.3333333333333333" stroke="#999999" x1="139.35305415987858" y1="1.6677451198786863" x2="75.77744252153249" y2="33.82250466436445"/><line stroke-width="0.3333333333333333" stroke="#999999" x1="139.35305415987858" y1="1.6677451198786863" x2="118.1707380396835" y2="38.432655243863415"/><line stroke-width="0.3333333333333333" stroke="#999999" x1="139.35305415987858" y1="1.6677451198786863" x2="94.47245772332418" y2="-2.069626184945696"/><line stroke-width="0.3333333333333333" stroke="#999999" x1="139.35305415987858" y1="1.6677451198786863" x2="85.03702918950734" y2="62.20599434010655"/><line stroke-width="0.3333333333333333" stroke="#999999" x1="139.35305415987858" y1="1.6677451198786863" x2="149.69939774321892" y2="38.86711488046972"/><line stroke-width="0.3333333333333333" stroke="#999999" x1="139.35305415987858" y1="1.6677451198786863" x2="177.67108830787635" y2="-1.4294526271184589"/></g><g class="nodes_YJUDpyAs"><g><circle id="n_130" r="5" fill="#99ccff" cx="144.5747778921198" cy="130.50874029637376"><title>n_130</title></circle><text x="0" y="-7" id="n_130" class="label_YJUDpyAs" transform="translate(144.5747778921198,130.50874029637376)" cx="144.5747778921198" cy="130.50874029637376">n_130</text></g><g><circle id="n_35" r="5" fill="#99ccff" cx="147.4021046135769" cy="226.6798783202366"><title>n_35</title></circle><text x="0" y="-7" id="n_35" class="label_YJUDpyAs" transform="translate(147.4021046135769,226.6798783202366)" cx="147.4021046135769" cy="226.6798783202366">n_35</text></g><g><circle id="n_195" r="5" fill="#99ccff" cx="195.54559131522305" cy="130.48012533560876"><title>n_195</title></circle><text x="0" y="-7" id="n_195" class="label_YJUDpyAs" transform="translate(195.54559131522305,130.48012533560876)" cx="195.54559131522305" cy="130.48012533560876">n_195</text></g><g><circle id="n_228" r="5" fill="#99ccff" cx="723.8917932153475" cy="617.2636066388364"><title>n_228</title></circle><text x="0" y="-7" id="n_228" class="label_YJUDpyAs" transform="translate(723.8917932153475,617.2636066388364)" cx="723.8917932153475" cy="617.2636066388364">n_228</text></g><g><circle id="n_218" r="5" fill="#99ccff" cx="-437.9284218917589" cy="365.1603256074149"><title>n_218</title></circle><text x="0" y="-7" id="n_218" class="label_YJUDpyAs" transform="translate(-437.9284218917589,365.1603256074149)" cx="-437.9284218917589" cy="365.1603256074149">n_218</text></g><g><circle id="n_229" r="5" fill="#99ccff" cx="153.28789923602432" cy="105.45755250892546"><title>n_229</title></circle><text x="0" y="-7" id="n_229" class="label_YJUDpyAs" transform="translate(153.28789923602432,105.45755250892546)" cx="153.28789923602432" cy="105.45755250892546">n_229</text></g><g><circle id="n_230" r="5" fill="#99ccff" cx="431.40731539648937" cy="990.6510517554569"><title>n_230</title></circle><text x="0" y="-7" id="n_230" class="label_YJUDpyAs" transform="translate(431.40731539648937,990.6510517554569)" cx="431.40731539648937" cy="990.6510517554569">n_230</text></g><g><circle id="n_69" r="5" fill="#99ccff" cx="131.92518160003468" cy="160.1958644516457"><title>n_69</title></circle><text x="0" y="-7" id="n_69" class="label_YJUDpyAs" transform="translate(131.92518160003468,160.1958644516457)" cx="131.92518160003468" cy="160.1958644516457">n_69</text></g><g><circle id="n_231" r="5" fill="#99ccff" cx="198.00574055286378" cy="32.511608325726094"><title>n_231</title></circle><text x="0" y="-7" id="n_231" class="label_YJUDpyAs" transform="translate(198.00574055286378,32.511608325726094)" cx="198.00574055286378" cy="32.511608325726094">n_231</text></g><g><circle id="n_232" r="5" fill="#99ccff" cx="216.4962809194088" cy="168.9597410092974"><title>n_232</title></circle><text x="0" y="-7" id="n_232" class="label_YJUDpyAs" transform="translate(216.4962809194088,168.9597410092974)" cx="216.4962809194088" cy="168.9597410092974">n_232</text></g><g><circle id="n_45" r="5" fill="#99ccff" cx="171.72684476691302" cy="68.35370682034053"><title>n_45</title></circle><text x="0" y="-7" id="n_45" class="label_YJUDpyAs" transform="translate(171.72684476691302,68.35370682034053)" cx="171.72684476691302" cy="68.35370682034053">n_45</text></g><g><circle id="n_61" r="5" fill="#99ccff" cx="220.50791053857606" cy="206.27031822194655"><title>n_61</title></circle><text x="0" y="-7" id="n_61" class="label_YJUDpyAs" transform="translate(220.50791053857606,206.27031822194655)" cx="220.50791053857606" cy="206.27031822194655">n_61</text></g><g><circle id="n_233" r="5" fill="#99ccff" cx="233.77252840994652" cy="21.52422337321721"><title>n_233</title></circle><text x="0" y="-7" id="n_233" class="label_YJUDpyAs" transform="translate(233.77252840994652,21.52422337321721)" cx="233.77252840994652" cy="21.52422337321721">n_233</text></g><g><circle id="n_234" r="5" fill="#99ccff" cx="291.66897342591784" cy="-23.716767937706614"><title>n_234</title></circle><text x="0" y="-7" id="n_234" class="label_YJUDpyAs" transform="translate(291.66897342591784,-23.716767937706614)" cx="291.66897342591784" cy="-23.716767937706614">n_234</text></g><g><circle id="n_235" r="5" fill="#99ccff" cx="126.20440568177457" cy="79.36699277927399"><title>n_235</title></circle><text x="0" y="-7" id="n_235" class="label_YJUDpyAs" transform="translate(126.20440568177457,79.36699277927399)" cx="126.20440568177457" cy="79.36699277927399">n_235</text></g><g><circle id="n_236" r="5" fill="#99ccff" cx="781.3294114770863" cy="156.73167087397857"><title>n_236</title></circle><text x="0" y="-7" id="n_236" class="label_YJUDpyAs" transform="translate(781.3294114770863,156.73167087397857)" cx="781.3294114770863" cy="156.73167087397857">n_236</text></g><g><circle id="n_102" r="5" fill="#99ccff" cx="774.5594414453726" cy="789.7195574748637"><title>n_102</title></circle><text x="0" y="-7" id="n_102" class="label_YJUDpyAs" transform="translate(774.5594414453726,789.7195574748637)" cx="774.5594414453726" cy="789.7195574748637">n_102</text></g><g><circle id="n_119" r="5" fill="#99ccff" cx="225.45132942314544" cy="84.09842967218061"><title>n_119</title></circle><text x="0" y="-7" id="n_119" class="label_YJUDpyAs" transform="translate(225.45132942314544,84.09842967218061)" cx="225.45132942314544" cy="84.09842967218061">n_119</text></g><g><circle id="n_219" r="5" fill="#99ccff" cx="795.6736762241749" cy="297.7886308978233"><title>n_219</title></circle><text x="0" y="-7" id="n_219" class="label_YJUDpyAs" transform="translate(795.6736762241749,297.7886308978233)" cx="795.6736762241749" cy="297.7886308978233">n_219</text></g><g><circle id="n_19" r="5" fill="#99ccff" cx="59.126865496716775" cy="79.1859172011976"><title>n_19</title></circle><text x="0" y="-7" id="n_19" class="label_YJUDpyAs" transform="translate(59.126865496716775,79.1859172011976)" cx="59.126865496716775" cy="79.1859172011976">n_19</text></g><g><circle id="n_237" r="5" fill="#99ccff" cx="1085.7510175690752" cy="327.41107956255826"><title>n_237</title></circle><text x="0" y="-7" id="n_237" class="label_YJUDpyAs" transform="translate(1085.7510175690752,327.41107956255826)" cx="1085.7510175690752" cy="327.41107956255826">n_237</text></g><g><circle id="n_238" r="5" fill="#99ccff" cx="890.7571508393515" cy="652.7108315293635"><title>n_238</title></circle><text x="0" y="-7" id="n_238" class="label_YJUDpyAs" transform="translate(890.7571508393515,652.7108315293635)" cx="890.7571508393515" cy="652.7108315293635">n_238</text></g><g><circle id="n_239" r="5" fill="#99ccff" cx="228.48570032409577" cy="989.1824400511052"><title>n_239</title></circle><text x="0" y="-7" id="n_239" class="label_YJUDpyAs" transform="translate(228.48570032409577,989.1824400511052)" cx="228.48570032409577" cy="989.1824400511052">n_239</text></g><g><circle id="n_240" r="5" fill="#99ccff" cx="78.23901043416346" cy="156.54849815475686"><title>n_240</title></circle><text x="0" y="-7" id="n_240" class="label_YJUDpyAs" transform="translate(78.23901043416346,156.54849815475686)" cx="78.23901043416346" cy="156.54849815475686">n_240</text></g><g><circle id="n_241" r="5" fill="#99ccff" cx="629.5199067027725" cy="1011.3582445738616"><title>n_241</title></circle><text x="0" y="-7" id="n_241" class="label_YJUDpyAs" transform="translate(629.5199067027725,1011.3582445738616)" cx="629.5199067027725" cy="1011.3582445738616">n_241</text></g><g><circle id="n_242" r="5" fill="#99ccff" cx="11.298980607146442" cy="77.7767651131378"><title>n_242</title></circle><text x="0" y="-7" id="n_242" class="label_YJUDpyAs" transform="translate(11.298980607146442,77.7767651131378)" cx="11.298980607146442" cy="77.7767651131378">n_242</text></g><g><circle id="n_99" r="5" fill="#99ccff" cx="348.68297920699746" cy="339.25264429104294"><title>n_99</title></circle><text x="0" y="-7" id="n_99" class="label_YJUDpyAs" transform="translate(348.68297920699746,339.25264429104294)" cx="348.68297920699746" cy="339.25264429104294">n_99</text></g><g><circle id="n_227" r="5" fill="#99ccff" cx="75.77744252153249" cy="33.82250466436445"><title>n_227</title></circle><text x="0" y="-7" id="n_227" class="label_YJUDpyAs" transform="translate(75.77744252153249,33.82250466436445)" cx="75.77744252153249" cy="33.82250466436445">n_227</text></g><g><circle id="n_243" r="5" fill="#99ccff" cx="58.59990577480297" cy="178.22817411337618"><title>n_243</title></circle><text x="0" y="-7" id="n_243" class="label_YJUDpyAs" transform="translate(58.59990577480297,178.22817411337618)" cx="58.59990577480297" cy="178.22817411337618">n_243</text></g><g><circle id="n_3" r="5" fill="#99ccff" cx="50.173146775540125" cy="112.20408709526376"><title>n_3</title></circle><text x="0" y="-7" id="n_3" class="label_YJUDpyAs" transform="translate(50.173146775540125,112.20408709526376)" cx="50.173146775540125" cy="112.20408709526376">n_3</text></g><g><circle id="n_114" r="5" fill="#99ccff" cx="-11.744373639914157" cy="905.5722498341279"><title>n_114</title></circle><text x="0" y="-7" id="n_114" class="label_YJUDpyAs" transform="translate(-11.744373639914157,905.5722498341279)" cx="-11.744373639914157" cy="905.5722498341279">n_114</text></g><g><circle id="n_244" r="5" fill="#99ccff" cx="118.1707380396835" cy="38.432655243863415"><title>n_244</title></circle><text x="0" y="-7" id="n_244" class="label_YJUDpyAs" transform="translate(118.1707380396835,38.432655243863415)" cx="118.1707380396835" cy="38.432655243863415">n_244</text></g><g><circle id="n_245" r="5" fill="#99ccff" cx="84.22516433809197" cy="122.68098017876214"><title>n_245</title></circle><text x="0" y="-7" id="n_245" class="label_YJUDpyAs" transform="translate(84.22516433809197,122.68098017876214)" cx="84.22516433809197" cy="122.68098017876214">n_245</text></g><g><circle id="n_199" r="5" fill="#99ccff" cx="94.47245772332418" cy="-2.069626184945696"><title>n_199</title></circle><text x="0" y="-7" id="n_199" class="label_YJUDpyAs" transform="translate(94.47245772332418,-2.069626184945696)" cx="94.47245772332418" cy="-2.069626184945696">n_199</text></g><g><circle id="n_246" r="5" fill="#99ccff" cx="940.7816761983402" cy="515.2299599089849"><title>n_246</title></circle><text x="0" y="-7" id="n_246" class="label_YJUDpyAs" transform="translate(940.7816761983402,515.2299599089849)" cx="940.7816761983402" cy="515.2299599089849">n_246</text></g><g><circle id="n_247" r="5" fill="#99ccff" cx="32.203149878578195" cy="158.1928830489442"><title>n_247</title></circle><text x="0" y="-7" id="n_247" class="label_YJUDpyAs" transform="translate(32.203149878578195,158.1928830489442)" cx="32.203149878578195" cy="158.1928830489442">n_247</text></g><g><circle id="n_189" r="5" fill="#99ccff" cx="270.05649156501795" cy="95.71835352923974"><title>n_189</title></circle><text x="0" y="-7" id="n_189" class="label_YJUDpyAs" transform="translate(270.05649156501795,95.71835352923974)" cx="270.05649156501795" cy="95.71835352923974">n_189</text></g><g><circle id="n_248" r="5" fill="#99ccff" cx="818.7717188658064" cy="942.8440072559304"><title>n_248</title></circle><text x="0" y="-7" id="n_248" class="label_YJUDpyAs" transform="translate(818.7717188658064,942.8440072559304)" cx="818.7717188658064" cy="942.8440072559304">n_248</text></g><g><circle id="n_249" r="5" fill="#99ccff" cx="39.266646004439686" cy="3.620712628262315"><title>n_249</title></circle><text x="0" y="-7" id="n_249" class="label_YJUDpyAs" transform="translate(39.266646004439686,3.620712628262315)" cx="39.266646004439686" cy="3.620712628262315">n_249</text></g><g><circle id="n_125" r="5" fill="#99ccff" cx="265.91076382959363" cy="10.53317171272758"><title>n_125</title></circle><text x="0" y="-7" id="n_125" class="label_YJUDpyAs" transform="translate(265.91076382959363,10.53317171272758)" cx="265.91076382959363" cy="10.53317171272758">n_125</text></g><g><circle id="n_250" r="5" fill="#99ccff" cx="323.2706804356699" cy="371.45246314822265"><title>n_250</title></circle><text x="0" y="-7" id="n_250" class="label_YJUDpyAs" transform="translate(323.2706804356699,371.45246314822265)" cx="323.2706804356699" cy="371.45246314822265">n_250</text></g><g><circle id="n_251" r="5" fill="#99ccff" cx="151.1710637606176" cy="180.37265307464864"><title>n_251</title></circle><text x="0" y="-7" id="n_251" class="label_YJUDpyAs" transform="translate(151.1710637606176,180.37265307464864)" cx="151.1710637606176" cy="180.37265307464864">n_251</text></g><g><circle id="n_252" r="5" fill="#99ccff" cx="1019.0026183976289" cy="750.2433802077787"><title>n_252</title></circle><text x="0" y="-7" id="n_252" class="label_YJUDpyAs" transform="translate(1019.0026183976289,750.2433802077787)" cx="1019.0026183976289" cy="750.2433802077787">n_252</text></g><g><circle id="n_253" r="5" fill="#99ccff" cx="190.1566698186527" cy="100.06215066323776"><title>n_253</title></circle><text x="0" y="-7" id="n_253" class="label_YJUDpyAs" transform="translate(190.1566698186527,100.06215066323776)" cx="190.1566698186527" cy="100.06215066323776">n_253</text></g><g><circle id="n_254" r="5" fill="#99ccff" cx="99.14805328182013" cy="189.87220583945216"><title>n_254</title></circle><text x="0" y="-7" id="n_254" class="label_YJUDpyAs" transform="translate(99.14805328182013,189.87220583945216)" cx="99.14805328182013" cy="189.87220583945216">n_254</text></g><g><circle id="n_46" r="5" fill="#99ccff" cx="227.00057313491666" cy="128.21610322371043"><title>n_46</title></circle><text x="0" y="-7" id="n_46" class="label_YJUDpyAs" transform="translate(227.00057313491666,128.21610322371043)" cx="227.00057313491666" cy="128.21610322371043">n_46</text></g><g><circle id="n_255" r="5" fill="#99ccff" cx="-416.2480980099404" cy="502.9215173457051"><title>n_255</title></circle><text x="0" y="-7" id="n_255" class="label_YJUDpyAs" transform="translate(-416.2480980099404,502.9215173457051)" cx="-416.2480980099404" cy="502.9215173457051">n_255</text></g><g><circle id="n_196" r="5" fill="#99ccff" cx="918.7051546354768" cy="369.3678107942194"><title>n_196</title></circle><text x="0" y="-7" id="n_196" class="label_YJUDpyAs" transform="translate(918.7051546354768,369.3678107942194)" cx="918.7051546354768" cy="369.3678107942194">n_196</text></g><g><circle id="n_256" r="5" fill="#99ccff" cx="311.3563316691567" cy="1113.6316712443386"><title>n_256</title></circle><text x="0" y="-7" id="n_256" class="label_YJUDpyAs" transform="translate(311.3563316691567,1113.6316712443386)" cx="311.3563316691567" cy="1113.6316712443386">n_256</text></g><g><circle id="n_257" r="5" fill="#99ccff" cx="250.12634932919755" cy="176.86378694976722"><title>n_257</title></circle><text x="0" y="-7" id="n_257" class="label_YJUDpyAs" transform="translate(250.12634932919755,176.86378694976722)" cx="250.12634932919755" cy="176.86378694976722">n_257</text></g><g><circle id="n_258" r="5" fill="#99ccff" cx="978.0893670357104" cy="913.0118508357043"><title>n_258</title></circle><text x="0" y="-7" id="n_258" class="label_YJUDpyAs" transform="translate(978.0893670357104,913.0118508357043)" cx="978.0893670357104" cy="913.0118508357043">n_258</text></g><g><circle id="n_149" r="5" fill="#99ccff" cx="85.03702918950734" cy="62.20599434010655"><title>n_149</title></circle><text x="0" y="-7" id="n_149" class="label_YJUDpyAs" transform="translate(85.03702918950734,62.20599434010655)" cx="85.03702918950734" cy="62.20599434010655">n_149</text></g><g><circle id="n_259" r="5" fill="#99ccff" cx="107.14151397409124" cy="114.27698468431956"><title>n_259</title></circle><text x="0" y="-7" id="n_259" class="label_YJUDpyAs" transform="translate(107.14151397409124,114.27698468431956)" cx="107.14151397409124" cy="114.27698468431956">n_259</text></g><g><circle id="n_260" r="5" fill="#99ccff" cx="311.2198833324911" cy="25.261028779915048"><title>n_260</title></circle><text x="0" y="-7" id="n_260" class="label_YJUDpyAs" transform="translate(311.2198833324911,25.261028779915048)" cx="311.2198833324911" cy="25.261028779915048">n_260</text></g><g><circle id="n_261" r="5" fill="#99ccff" cx="149.69939774321892" cy="38.86711488046972"><title>n_261</title></circle><text x="0" y="-7" id="n_261" class="label_YJUDpyAs" transform="translate(149.69939774321892,38.86711488046972)" cx="149.69939774321892" cy="38.86711488046972">n_261</text></g><g><circle id="n_59" r="5" fill="#99ccff" cx="192.71294057194763" cy="218.07743154846355"><title>n_59</title></circle><text x="0" y="-7" id="n_59" class="label_YJUDpyAs" transform="translate(192.71294057194763,218.07743154846355)" cx="192.71294057194763" cy="218.07743154846355">n_59</text></g><g><circle id="n_205" r="5" fill="#99ccff" cx="177.67108830787635" cy="-1.4294526271184589"><title>n_205</title></circle><text x="0" y="-7" id="n_205" class="label_YJUDpyAs" transform="translate(177.67108830787635,-1.4294526271184589)" cx="177.67108830787635" cy="-1.4294526271184589">n_205</text></g><g><circle id="n_269" r="5" fill="#99ccff" cx="139.35305415987858" cy="1.6677451198786863"><title>n_269</title></circle><text x="0" y="-7" id="n_269" class="label_YJUDpyAs" transform="translate(139.35305415987858,1.6677451198786863)" cx="139.35305415987858" cy="1.6677451198786863">n_269</text></g><g><circle id="n_386" r="5" fill="#99ccff" cx="791.3245920850584" cy="1088.4410747962484"><title>n_386</title></circle><text x="0" y="-7" id="n_386" class="label_YJUDpyAs" transform="translate(791.3245920850584,1088.4410747962484)" cx="791.3245920850584" cy="1088.4410747962484">n_386</text></g></g></g></svg>