<svg xmlns="http://www.w3.org/2000/svg" width="600" height="600" id="HCkgqegx">        
    <text x="20" y="20" font-family="sans-serif" font-size="14px" fill="#666" style="cursor: pointer" id="HCkgqegx_svg_txt">[save svg]</text>
<defs><marker id="end" viewBox="0 -5 20 20" refX="34" refY="0" markerWidth="15" markerHeight="15" orient="auto"><path d="M0,-5 L20,0 L0,5 z" fill="#999" stroke="none"/></marker></defs><g class="everything"><g class="links_HCkgqegx"><line stroke-width="0.31372549019607837" stroke="#999999" x1="301.7169793065446" y1="318.4574582878351" x2="260.6850220972483" y2="308.7358024935139"/><line stroke-width="0.0196078431372549" stroke="#999999" x1="301.7169793065446" y1="318.4574582878351" x2="288.981656064539" y2="258.8190883804751"/><line stroke-width="0.0392156862745098" stroke="#999999" x1="301.7169793065446" y1="318.4574582878351" x2="339.85042727811674" y2="342.9037111275435"/><line stroke-width="0.1568627450980392" stroke="#999999" x1="301.7169793065446" y1="318.4574582878351" x2="224.09988877465443" y2="335.54828764420665"/><line stroke-width="0.058823529411764705" stroke="#999999" x1="301.7169793065446" y1="318.4574582878351" x2="366.2630665273736" y2="291.24612216005295"/><line stroke-width="0.1568627450980392" stroke="#999999" x1="301.7169793065446" y1="318.4574582878351" x2="259.96073731174414" y2="356.2000981966487"/><line stroke-width="0.0196078431372549" stroke="#999999" x1="301.7169793065446" y1="318.4574582878351" x2="376.649163442619" y2="343.4257546496437"/><line stroke-width="0.0196078431372549" stroke="#999999" x1="301.7169793065446" y1="318.4574582878351" x2="332.94441048960164" y2="243.14144921065724"/><line stroke-width="0.25" stroke="#999999" x1="260.6850220972483" y1="308.7358024935139" x2="301.7169793065446" y2="318.4574582878351"/><line stroke-width="0.03125" stroke="#999999" x1="260.6850220972483" y1="308.7358024935139" x2="339.85042727811674" y2="342.9037111275435"/><line stroke-width="0.03125" stroke="#999999" x1="260.6850220972483" y1="308.7358024935139" x2="224.09988877465443" y2="335.54828764420665"/><line stroke-width="0.0625" stroke="#999999" x1="260.6850220972483" y1="308.7358024935139" x2="366.2630665273736" y2="291.24612216005295"/><line stroke-width="0.03125" stroke="#999999" x1="260.6850220972483" y1="308.7358024935139" x2="259.96073731174414" y2="356.2000981966487"/><line stroke-width="0.3333333333333333" stroke="#999999" x1="288.981656064539" y1="258.8190883804751" x2="301.7169793065446" y2="318.4574582878351"/><line stroke-width="0.3333333333333333" stroke="#999999" x1="288.981656064539" y1="258.8190883804751" x2="332.94441048960164" y2="243.14144921065724"/><line stroke-width="0.5" stroke="#999999" x1="339.85042727811674" y1="342.9037111275435" x2="301.7169793065446" y2="318.4574582878351"/><line stroke-width="0.25" stroke="#999999" x1="339.85042727811674" y1="342.9037111275435" x2="260.6850220972483" y2="308.7358024935139"/><line stroke-width="0.5" stroke="#999999" x1="339.85042727811674" y1="342.9037111275435" x2="366.2630665273736" y2="291.24612216005295"/><line stroke-width="0.25" stroke="#999999" x1="339.85042727811674" y1="342.9037111275435" x2="376.649163442619" y2="343.4257546496437"/><line stroke-width="1" stroke="#999999" x1="395.26784569179995" y1="259.66173161891294" x2="366.2630665273736" y2="291.24612216005295"/><line stroke-width="0.3333333333333333" stroke="#999999" x1="224.09988877465443" y1="335.54828764420665" x2="301.7169793065446" y2="318.4574582878351"/><line stroke-width="0.3333333333333333" stroke="#999999" x1="224.09988877465443" y1="335.54828764420665" x2="260.6850220972483" y2="308.7358024935139"/><line stroke-width="0.3333333333333333" stroke="#999999" x1="224.09988877465443" y1="335.54828764420665" x2="259.96073731174414" y2="356.2000981966487"/><line stroke-width="0.18181818181818182" stroke="#999999" x1="366.2630665273736" y1="291.24612216005295" x2="301.7169793065446" y2="318.4574582878351"/><line stroke-width="0.09090909090909091" stroke="#999999" x1="366.2630665273736" y1="291.24612216005295" x2="260.6850220972483" y2="308.7358024935139"/><line stroke-width="0.18181818181818182" stroke="#999999" x1="366.2630665273736" y1="291.24612216005295" x2="339.85042727811674" y2="342.9037111275435"/><line stroke-width="0.09090909090909091" stroke="#999999" x1="366.2630665273736" y1="291.24612216005295" x2="395.26784569179995" y2="259.66173161891294"/><line stroke-width="0.09090909090909091" stroke="#999999" x1="366.2630665273736" y1="291.24612216005295" x2="376.649163442619" y2="343.4257546496437"/><line stroke-width="0.18181818181818182" stroke="#999999" x1="366.2630665273736" y1="291.24612216005295" x2="332.94441048960164" y2="243.14144921065724"/><line stroke-width="1" stroke="#999999" x1="259.96073731174414" y1="356.2000981966487" x2="301.7169793065446" y2="318.4574582878351"/><line stroke-width="1" stroke="#999999" x1="259.96073731174414" y1="356.2000981966487" x2="260.6850220972483" y2="308.7358024935139"/><line stroke-width="1" stroke="#999999" x1="259.96073731174414" y1="356.2000981966487" x2="224.09988877465443" y2="335.54828764420665"/><line stroke-width="0.125" stroke="#999999" x1="376.649163442619" y1="343.4257546496437" x2="301.7169793065446" y2="318.4574582878351"/><line stroke-width="0.125" stroke="#999999" x1="376.649163442619" y1="343.4257546496437" x2="339.85042727811674" y2="342.9037111275435"/><line stroke-width="0.125" stroke="#999999" x1="376.649163442619" y1="343.4257546496437" x2="366.2630665273736" y2="291.24612216005295"/><line stroke-width="0.1111111111111111" stroke="#999999" x1="332.94441048960164" y1="243.14144921065724" x2="301.7169793065446" y2="318.4574582878351"/><line stroke-width="0.1111111111111111" stroke="#999999" x1="332.94441048960164" y1="243.14144921065724" x2="288.981656064539" y2="258.8190883804751"/><line stroke-width="0.2222222222222222" stroke="#999999" x1="332.94441048960164" y1="243.14144921065724" x2="366.2630665273736" y2="291.24612216005295"/></g><g class="nodes_HCkgqegx"><g><circle id="n_130" r="5" fill="#99ccff" cx="301.7169793065446" cy="318.4574582878351"><title>n_130</title></circle><text x="0" y="-7" id="n_130" class="label_HCkgqegx" transform="translate(301.7169793065446,318.4574582878351)" cx="301.7169793065446" cy="318.4574582878351">n_130</text></g><g><circle id="n_35" r="5" fill="#99ccff" cx="260.6850220972483" cy="308.7358024935139"><title>n_35</title></circle><text x="0" y="-7" id="n_35" class="label_HCkgqegx" transform="translate(260.6850220972483,308.7358024935139)" cx="260.6850220972483" cy="308.7358024935139">n_35</text></g><g><circle id="n_195" r="5" fill="#99ccff" cx="288.981656064539" cy="258.8190883804751"><title>n_195</title></circle><text x="0" y="-7" id="n_195" class="label_HCkgqegx" transform="translate(288.981656064539,258.8190883804751)" cx="288.981656064539" cy="258.8190883804751">n_195</text></g><g><circle id="n_228" r="5" fill="#99ccff" cx="474.8587987678612" cy="439.8031375046047"><title>n_228</title></circle><text x="0" y="-7" id="n_228" class="label_HCkgqegx" transform="translate(474.8587987678612,439.8031375046047)" cx="474.8587987678612" cy="439.8031375046047">n_228</text></g><g><circle id="n_218" r="5" fill="#99ccff" cx="100.35437446693548" cy="282.01626070970497"><title>n_218</title></circle><text x="0" y="-7" id="n_218" class="label_HCkgqegx" transform="translate(100.35437446693548,282.01626070970497)" cx="100.35437446693548" cy="282.01626070970497">n_218</text></g><g><circle id="n_229" r="5" fill="#99ccff" cx="339.85042727811674" cy="342.9037111275435"><title>n_229</title></circle><text x="0" y="-7" id="n_229" class="label_HCkgqegx" transform="translate(339.85042727811674,342.9037111275435)" cx="339.85042727811674" cy="342.9037111275435">n_229</text></g><g><circle id="n_230" r="5" fill="#99ccff" cx="261.54172994639237" cy="537.4537233260643"><title>n_230</title></circle><text x="0" y="-7" id="n_230" class="label_HCkgqegx" transform="translate(261.54172994639237,537.4537233260643)" cx="261.54172994639237" cy="537.4537233260643">n_230</text></g><g><circle id="n_69" r="5" fill="#99ccff" cx="189.519834433466" cy="79.48912637412907"><title>n_69</title></circle><text x="0" y="-7" id="n_69" class="label_HCkgqegx" transform="translate(189.519834433466,79.48912637412907)" cx="189.519834433466" cy="79.48912637412907">n_69</text></g><g><circle id="n_231" r="5" fill="#99ccff" cx="395.26784569179995" cy="259.66173161891294"><title>n_231</title></circle><text x="0" y="-7" id="n_231" class="label_HCkgqegx" transform="translate(395.26784569179995,259.66173161891294)" cx="395.26784569179995" cy="259.66173161891294">n_231</text></g><g><circle id="n_232" r="5" fill="#99ccff" cx="224.09988877465443" cy="335.54828764420665"><title>n_232</title></circle><text x="0" y="-7" id="n_232" class="label_HCkgqegx" transform="translate(224.09988877465443,335.54828764420665)" cx="224.09988877465443" cy="335.54828764420665">n_232</text></g><g><circle id="n_45" r="5" fill="#99ccff" cx="366.2630665273736" cy="291.24612216005295"><title>n_45</title></circle><text x="0" y="-7" id="n_45" class="label_HCkgqegx" transform="translate(366.2630665273736,291.24612216005295)" cx="366.2630665273736" cy="291.24612216005295">n_45</text></g><g><circle id="n_61" r="5" fill="#99ccff" cx="259.96073731174414" cy="356.2000981966487"><title>n_61</title></circle><text x="0" y="-7" id="n_61" class="label_HCkgqegx" transform="translate(259.96073731174414,356.2000981966487)" cx="259.96073731174414" cy="356.2000981966487">n_61</text></g><g><circle id="n_233" r="5" fill="#99ccff" cx="55.88900423623604" cy="159.96405766588072"><title>n_233</title></circle><text x="0" y="-7" id="n_233" class="label_HCkgqegx" transform="translate(55.88900423623604,159.96405766588072)" cx="55.88900423623604" cy="159.96405766588072">n_233</text></g><g><circle id="n_234" r="5" fill="#99ccff" cx="571.4220763210793" cy="243.14654429273253"><title>n_234</title></circle><text x="0" y="-7" id="n_234" class="label_HCkgqegx" transform="translate(571.4220763210793,243.14654429273253)" cx="571.4220763210793" cy="243.14654429273253">n_234</text></g><g><circle id="n_235" r="5" fill="#99ccff" cx="376.649163442619" cy="343.4257546496437"><title>n_235</title></circle><text x="0" y="-7" id="n_235" class="label_HCkgqegx" transform="translate(376.649163442619,343.4257546496437)" cx="376.649163442619" cy="343.4257546496437">n_235</text></g><g><circle id="n_119" r="5" fill="#99ccff" cx="332.94441048960164" cy="243.14144921065724"><title>n_119</title></circle><text x="0" y="-7" id="n_119" class="label_HCkgqegx" transform="translate(332.94441048960164,243.14144921065724)" cx="332.94441048960164" cy="243.14144921065724">n_119</text></g></g></g></svg>