<svg xmlns="http://www.w3.org/2000/svg" width="600" height="600" id="AcMHSWQE">
    <text x="20" y="20" font-family="sans-serif" font-size="14px" fill="#666" style="cursor: pointer" id="AcMHSWQE_svg_txt">[save svg]</text>
    <defs>
        <marker id="end" viewBox="0 -5 20 20" refX="34" refY="0" markerWidth="15" markerHeight="15" orient="auto">
            <path d="M0,-5 L20,0 L0,5 z" fill="#999" stroke="none" />
        </marker>
    </defs>
    <g class="everything">
        <g class="links_AcMHSWQE">
            <line stroke-width="0.3333333333333333" stroke="#999999" x1="221.5620227140562" y1="326.4456409824577" x2="332.73164940239224" y2="304.024472702164" />
            <line stroke-width="0.3333333333333333" stroke="#999999" x1="203.40126087464253" y1="289.1080797418349" x2="332.73164940239224" y2="304.024472702164" />
            <line stroke-width="1" stroke="#999999" x1="328.3267800232612" y1="344.0188731973381" x2="332.73164940239224" y2="304.024472702164" />
            <line stroke-width="0.4" stroke="#999999" x1="285.14259027103526" y1="274.08780412751804" x2="332.73164940239224" y2="304.024472702164" />
            <line stroke-width="0.3333333333333333" stroke="#999999" x1="332.73164940239224" y1="304.024472702164" x2="241.4599992536069" y2="256.00510015637354" />
            <line stroke-width="1" stroke="#999999" x1="332.73164940239224" y1="304.024472702164" x2="418.37583154711473" y2="283.27040024763636" />
            <line stroke-width="0.75" stroke="#999999" x1="317.12901147839466" y1="230.7487270441467" x2="332.73164940239224" y2="304.024472702164" />
            <line stroke-width="1" stroke="#999999" x1="408.5996167220669" y1="231.6981468253316" x2="332.73164940239224" y2="304.024472702164" />
            <line stroke-width="1" stroke="#999999" x1="332.73164940239224" y1="304.024472702164" x2="289.28674102130907" y2="357.39191235704584" />
            <line stroke-width="1" stroke="#999999" x1="378.1531703045857" y1="244.28529323537967" x2="332.73164940239224" y2="304.024472702164" />
            <line stroke-width="0.3333333333333333" stroke="#999999" x1="332.73164940239224" y1="304.024472702164" x2="287.1720460495615" y2="319.71708960854926" />
            <line stroke-width="0.3333333333333333" stroke="#999999" x1="332.73164940239224" y1="304.024472702164" x2="197.9656643812857" y2="249.69573433525835" />
            <line stroke-width="1" stroke="#999999" x1="389.0908932404398" y1="201.72575058876242" x2="332.73164940239224" y2="304.024472702164" />
            <line stroke-width="0.3333333333333333" stroke="#999999" x1="235.66353991239808" y1="382.05518264339867" x2="332.73164940239224" y2="304.024472702164" />
            <line stroke-width="0.5" stroke="#999999" x1="318.54493631524855" y1="271.4910984821116" x2="332.73164940239224" y2="304.024472702164" />
            <line stroke-width="1" stroke="#999999" x1="221.5620227140562" y1="326.4456409824577" x2="203.40126087464253" y2="289.1080797418349" />
            <line stroke-width="0.3333333333333333" stroke="#999999" x1="221.5620227140562" y1="326.4456409824577" x2="328.3267800232612" y2="344.0188731973381" />
            <line stroke-width="1" stroke="#999999" x1="285.14259027103526" y1="274.08780412751804" x2="221.5620227140562" y2="326.4456409824577" />
            <line stroke-width="1" stroke="#999999" x1="221.5620227140562" y1="326.4456409824577" x2="241.4599992536069" y2="256.00510015637354" />
            <line stroke-width="0.5" stroke="#999999" x1="221.5620227140562" y1="326.4456409824577" x2="317.12901147839466" y2="230.7487270441467" />
            <line stroke-width="0.3333333333333333" stroke="#999999" x1="221.5620227140562" y1="326.4456409824577" x2="289.28674102130907" y2="357.39191235704584" />
            <line stroke-width="1" stroke="#999999" x1="221.5620227140562" y1="326.4456409824577" x2="287.1720460495615" y2="319.71708960854926" />
            <line stroke-width="1" stroke="#999999" x1="221.5620227140562" y1="326.4456409824577" x2="197.9656643812857" y2="249.69573433525835" />
            <line stroke-width="1" stroke="#999999" x1="221.5620227140562" y1="326.4456409824577" x2="235.66353991239808" y2="382.05518264339867" />
            <line stroke-width="1" stroke="#999999" x1="221.5620227140562" y1="326.4456409824577" x2="318.54493631524855" y2="271.4910984821116" />
            <line stroke-width="0.3333333333333333" stroke="#999999" x1="328.3267800232612" y1="344.0188731973381" x2="203.40126087464253" y2="289.1080797418349" />
            <line stroke-width="1" stroke="#999999" x1="285.14259027103526" y1="274.08780412751804" x2="203.40126087464253" y2="289.1080797418349" />
            <line stroke-width="1" stroke="#999999" x1="240.48505081802773" y1="299.4168338764062" x2="203.40126087464253" y2="289.1080797418349" />
            <line stroke-width="1" stroke="#999999" x1="203.40126087464253" y1="289.1080797418349" x2="241.4599992536069" y2="256.00510015637354" />
            <line stroke-width="1" stroke="#999999" x1="178.3024583880835" y1="334.1684045127899" x2="203.40126087464253" y2="289.1080797418349" />
            <line stroke-width="0.5" stroke="#999999" x1="203.40126087464253" y1="289.1080797418349" x2="317.12901147839466" y2="230.7487270441467" />
            <line stroke-width="0.3333333333333333" stroke="#999999" x1="203.40126087464253" y1="289.1080797418349" x2="289.28674102130907" y2="357.39191235704584" />
            <line stroke-width="1" stroke="#999999" x1="203.40126087464253" y1="289.1080797418349" x2="287.1720460495615" y2="319.71708960854926" />
            <line stroke-width="1" stroke="#999999" x1="203.40126087464253" y1="289.1080797418349" x2="197.9656643812857" y2="249.69573433525835" />
            <line stroke-width="1" stroke="#999999" x1="203.40126087464253" y1="289.1080797418349" x2="235.66353991239808" y2="382.05518264339867" />
            <line stroke-width="1" stroke="#999999" x1="318.54493631524855" y1="271.4910984821116" x2="203.40126087464253" y2="289.1080797418349" />
            <line stroke-width="0.3125" stroke="#999999" x1="285.14259027103526" y1="274.08780412751804" x2="328.3267800232612" y2="344.0188731973381" />
            <line stroke-width="0.5" stroke="#999999" x1="328.3267800232612" y1="344.0188731973381" x2="373.27340099509655" y2="291.1606818485124" />
            <line stroke-width="0.3333333333333333" stroke="#999999" x1="328.3267800232612" y1="344.0188731973381" x2="241.4599992536069" y2="256.00510015637354" />
            <line stroke-width="0.8" stroke="#999999" x1="328.3267800232612" y1="344.0188731973381" x2="178.3024583880835" y2="334.1684045127899" />
            <line stroke-width="0.375" stroke="#999999" x1="328.3267800232612" y1="344.0188731973381" x2="317.12901147839466" y2="230.7487270441467" />
            <line stroke-width="1" stroke="#999999" x1="328.3267800232612" y1="344.0188731973381" x2="289.28674102130907" y2="357.39191235704584" />
            <line stroke-width="0.5" stroke="#999999" x1="328.3267800232612" y1="344.0188731973381" x2="334.08738330550165" y2="382.2727091376509" />
            <line stroke-width="0.36363636363636365" stroke="#999999" x1="378.1531703045857" y1="244.28529323537967" x2="328.3267800232612" y2="344.0188731973381" />
            <line stroke-width="0.2" stroke="#999999" x1="328.3267800232612" y1="344.0188731973381" x2="284.94906487433934" y2="198.72459193706234" />
            <line stroke-width="0.3333333333333333" stroke="#999999" x1="328.3267800232612" y1="344.0188731973381" x2="287.1720460495615" y2="319.71708960854926" />
            <line stroke-width="0.3333333333333333" stroke="#999999" x1="328.3267800232612" y1="344.0188731973381" x2="197.9656643812857" y2="249.69573433525835" />
            <line stroke-width="1" stroke="#999999" x1="328.3267800232612" y1="344.0188731973381" x2="387.4265873172517" y2="367.00372350386573" />
            <line stroke-width="0.5" stroke="#999999" x1="328.3267800232612" y1="344.0188731973381" x2="227.97509696659023" y2="354.8895093767897" />
            <line stroke-width="0.3333333333333333" stroke="#999999" x1="328.3267800232612" y1="344.0188731973381" x2="389.0908932404398" y2="201.72575058876242" />
            <line stroke-width="0.2" stroke="#999999" x1="328.3267800232612" y1="344.0188731973381" x2="338.5284159611555" y2="191.311184300553" />
            <line stroke-width="0.3333333333333333" stroke="#999999" x1="328.3267800232612" y1="344.0188731973381" x2="235.66353991239808" y2="382.05518264339867" />
            <line stroke-width="0.36363636363636365" stroke="#999999" x1="318.54493631524855" y1="271.4910984821116" x2="328.3267800232612" y2="344.0188731973381" />
            <line stroke-width="0.3333333333333333" stroke="#999999" x1="389.99258177554793" y1="323.16414055729496" x2="328.3267800232612" y2="344.0188731973381" />
            <line stroke-width="0.5" stroke="#999999" x1="285.14259027103526" y1="274.08780412751804" x2="246.69535350431792" y2="217.2687926715535" />
            <line stroke-width="1" stroke="#999999" x1="285.14259027103526" y1="274.08780412751804" x2="373.27340099509655" y2="291.1606818485124" />
            <line stroke-width="1" stroke="#999999" x1="285.14259027103526" y1="274.08780412751804" x2="241.4599992536069" y2="256.00510015637354" />
            <line stroke-width="0.5" stroke="#999999" x1="285.14259027103526" y1="274.08780412751804" x2="418.37583154711473" y2="283.27040024763636" />
            <line stroke-width="1" stroke="#999999" x1="285.14259027103526" y1="274.08780412751804" x2="178.3024583880835" y2="334.1684045127899" />
            <line stroke-width="0.6" stroke="#999999" x1="285.14259027103526" y1="274.08780412751804" x2="317.12901147839466" y2="230.7487270441467" />
            <line stroke-width="0.5" stroke="#999999" x1="285.14259027103526" y1="274.08780412751804" x2="408.5996167220669" y2="231.6981468253316" />
            <line stroke-width="0.3333333333333333" stroke="#999999" x1="285.14259027103526" y1="274.08780412751804" x2="289.28674102130907" y2="357.39191235704584" />
            <line stroke-width="1" stroke="#999999" x1="285.14259027103526" y1="274.08780412751804" x2="334.08738330550165" y2="382.2727091376509" />
            <line stroke-width="0.6666666666666666" stroke="#999999" x1="285.14259027103526" y1="274.08780412751804" x2="378.1531703045857" y2="244.28529323537967" />
            <line stroke-width="1" stroke="#999999" x1="285.14259027103526" y1="274.08780412751804" x2="284.94906487433934" y2="198.72459193706234" />
            <line stroke-width="1" stroke="#999999" x1="285.14259027103526" y1="274.08780412751804" x2="287.1720460495615" y2="319.71708960854926" />
            <line stroke-width="1" stroke="#999999" x1="285.14259027103526" y1="274.08780412751804" x2="197.9656643812857" y2="249.69573433525835" />
            <line stroke-width="1" stroke="#999999" x1="285.14259027103526" y1="274.08780412751804" x2="227.97509696659023" y2="354.8895093767897" />
            <line stroke-width="0.6666666666666666" stroke="#999999" x1="285.14259027103526" y1="274.08780412751804" x2="389.0908932404398" y2="201.72575058876242" />
            <line stroke-width="1" stroke="#999999" x1="285.14259027103526" y1="274.08780412751804" x2="338.5284159611555" y2="191.311184300553" />
            <line stroke-width="1" stroke="#999999" x1="285.14259027103526" y1="274.08780412751804" x2="235.66353991239808" y2="382.05518264339867" />
            <line stroke-width="0.6666666666666666" stroke="#999999" x1="285.14259027103526" y1="274.08780412751804" x2="318.54493631524855" y2="271.4910984821116" />
            <line stroke-width="1" stroke="#999999" x1="285.14259027103526" y1="274.08780412751804" x2="389.99258177554793" y2="323.16414055729496" />
            <line stroke-width="1" stroke="#999999" x1="373.27340099509655" y1="291.1606818485124" x2="334.08738330550165" y2="382.2727091376509" />
            <line stroke-width="1" stroke="#999999" x1="378.1531703045857" y1="244.28529323537967" x2="373.27340099509655" y2="291.1606818485124" />
            <line stroke-width="1" stroke="#999999" x1="373.27340099509655" y1="291.1606818485124" x2="287.1720460495615" y2="319.71708960854926" />
            <line stroke-width="1" stroke="#999999" x1="318.54493631524855" y1="271.4910984821116" x2="373.27340099509655" y2="291.1606818485124" />
            <line stroke-width="1" stroke="#999999" x1="389.99258177554793" y1="323.16414055729496" x2="373.27340099509655" y2="291.1606818485124" />
            <line stroke-width="1" stroke="#999999" x1="240.48505081802773" y1="299.4168338764062" x2="178.3024583880835" y2="334.1684045127899" />
            <line stroke-width="1" stroke="#999999" x1="240.48505081802773" y1="299.4168338764062" x2="318.54493631524855" y2="271.4910984821116" />
            <line stroke-width="0.5" stroke="#999999" x1="317.12901147839466" y1="230.7487270441467" x2="241.4599992536069" y2="256.00510015637354" />
            <line stroke-width="0.3333333333333333" stroke="#999999" x1="289.28674102130907" y1="357.39191235704584" x2="241.4599992536069" y2="256.00510015637354" />
            <line stroke-width="1" stroke="#999999" x1="241.4599992536069" y1="256.00510015637354" x2="287.1720460495615" y2="319.71708960854926" />
            <line stroke-width="1" stroke="#999999" x1="241.4599992536069" y1="256.00510015637354" x2="197.9656643812857" y2="249.69573433525835" />
            <line stroke-width="1" stroke="#999999" x1="235.66353991239808" y1="382.05518264339867" x2="241.4599992536069" y2="256.00510015637354" />
            <line stroke-width="1" stroke="#999999" x1="318.54493631524855" y1="271.4910984821116" x2="241.4599992536069" y2="256.00510015637354" />
            <line stroke-width="1" stroke="#999999" x1="235.66353991239808" y1="382.05518264339867" x2="217.69185249085442" y2="430.6609156985121" />
            <line stroke-width="1" stroke="#999999" x1="317.12901147839466" y1="230.7487270441467" x2="418.37583154711473" y2="283.27040024763636" />
            <line stroke-width="1" stroke="#999999" x1="408.5996167220669" y1="231.6981468253316" x2="418.37583154711473" y2="283.27040024763636" />
            <line stroke-width="0.5" stroke="#999999" x1="418.37583154711473" y1="283.27040024763636" x2="334.08738330550165" y2="382.2727091376509" />
            <line stroke-width="1" stroke="#999999" x1="378.1531703045857" y1="244.28529323537967" x2="418.37583154711473" y2="283.27040024763636" />
            <line stroke-width="1" stroke="#999999" x1="389.0908932404398" y1="201.72575058876242" x2="418.37583154711473" y2="283.27040024763636" />
            <line stroke-width="0.5" stroke="#999999" x1="406.7427206656726" y1="394.176985152741" x2="418.37583154711473" y2="283.27040024763636" />
            <line stroke-width="1" stroke="#999999" x1="318.54493631524855" y1="271.4910984821116" x2="418.37583154711473" y2="283.27040024763636" />
            <line stroke-width="1" stroke="#999999" x1="178.3024583880835" y1="334.1684045127899" x2="227.97509696659023" y2="354.8895093767897" />
            <line stroke-width="1" stroke="#999999" x1="408.5996167220669" y1="231.6981468253316" x2="317.12901147839466" y2="230.7487270441467" />
            <line stroke-width="0.6666666666666666" stroke="#999999" x1="317.12901147839466" y1="230.7487270441467" x2="289.28674102130907" y2="357.39191235704584" />
            <line stroke-width="1" stroke="#999999" x1="317.12901147839466" y1="230.7487270441467" x2="334.08738330550165" y2="382.2727091376509" />
            <line stroke-width="0.6666666666666666" stroke="#999999" x1="378.1531703045857" y1="244.28529323537967" x2="317.12901147839466" y2="230.7487270441467" />
            <line stroke-width="1" stroke="#999999" x1="317.12901147839466" y1="230.7487270441467" x2="284.94906487433934" y2="198.72459193706234" />
            <line stroke-width="0.5" stroke="#999999" x1="317.12901147839466" y1="230.7487270441467" x2="287.1720460495615" y2="319.71708960854926" />
            <line stroke-width="0.5" stroke="#999999" x1="317.12901147839466" y1="230.7487270441467" x2="197.9656643812857" y2="249.69573433525835" />
            <line stroke-width="1" stroke="#999999" x1="317.12901147839466" y1="230.7487270441467" x2="308.30463814935973" y2="161.16774636518082" />
            <line stroke-width="1" stroke="#999999" x1="317.12901147839466" y1="230.7487270441467" x2="389.0908932404398" y2="201.72575058876242" />
            <line stroke-width="1" stroke="#999999" x1="317.12901147839466" y1="230.7487270441467" x2="338.5284159611555" y2="191.311184300553" />
            <line stroke-width="0.5" stroke="#999999" x1="317.12901147839466" y1="230.7487270441467" x2="235.66353991239808" y2="382.05518264339867" />
            <line stroke-width="0.6" stroke="#999999" x1="318.54493631524855" y1="271.4910984821116" x2="317.12901147839466" y2="230.7487270441467" />
            <line stroke-width="1" stroke="#999999" x1="378.1531703045857" y1="244.28529323537967" x2="408.5996167220669" y2="231.6981468253316" />
            <line stroke-width="1" stroke="#999999" x1="408.5996167220669" y1="231.6981468253316" x2="389.0908932404398" y2="201.72575058876242" />
            <line stroke-width="1" stroke="#999999" x1="318.54493631524855" y1="271.4910984821116" x2="408.5996167220669" y2="231.6981468253316" />
            <line stroke-width="1" stroke="#999999" x1="289.28674102130907" y1="357.39191235704584" x2="334.08738330550165" y2="382.2727091376509" />
            <line stroke-width="0.3333333333333333" stroke="#999999" x1="289.28674102130907" y1="357.39191235704584" x2="287.1720460495615" y2="319.71708960854926" />
            <line stroke-width="0.3333333333333333" stroke="#999999" x1="289.28674102130907" y1="357.39191235704584" x2="197.9656643812857" y2="249.69573433525835" />
            <line stroke-width="0.3333333333333333" stroke="#999999" x1="235.66353991239808" y1="382.05518264339867" x2="289.28674102130907" y2="357.39191235704584" />
            <line stroke-width="0.3333333333333333" stroke="#999999" x1="318.54493631524855" y1="271.4910984821116" x2="289.28674102130907" y2="357.39191235704584" />
            <line stroke-width="1" stroke="#999999" x1="351.00524045265405" y1="439.7499719056299" x2="334.08738330550165" y2="382.2727091376509" />
            <line stroke-width="1" stroke="#999999" x1="378.1531703045857" y1="244.28529323537967" x2="334.08738330550165" y2="382.2727091376509" />
            <line stroke-width="1" stroke="#999999" x1="334.08738330550165" y1="382.2727091376509" x2="287.1720460495615" y2="319.71708960854926" />
            <line stroke-width="1" stroke="#999999" x1="334.08738330550165" y1="382.2727091376509" x2="310.35924219455546" y2="430.3918113152216" />
            <line stroke-width="1" stroke="#999999" x1="406.7427206656726" y1="394.176985152741" x2="334.08738330550165" y2="382.2727091376509" />
            <line stroke-width="1" stroke="#999999" x1="318.54493631524855" y1="271.4910984821116" x2="334.08738330550165" y2="382.2727091376509" />
            <line stroke-width="1" stroke="#999999" x1="389.99258177554793" y1="323.16414055729496" x2="334.08738330550165" y2="382.2727091376509" />
            <line stroke-width="0.5" stroke="#999999" x1="378.1531703045857" y1="244.28529323537967" x2="284.94906487433934" y2="198.72459193706234" />
            <line stroke-width="1" stroke="#999999" x1="378.1531703045857" y1="244.28529323537967" x2="287.1720460495615" y2="319.71708960854926" />
            <line stroke-width="1" stroke="#999999" x1="378.1531703045857" y1="244.28529323537967" x2="389.0908932404398" y2="201.72575058876242" />
            <line stroke-width="0.5" stroke="#999999" x1="378.1531703045857" y1="244.28529323537967" x2="338.5284159611555" y2="191.311184300553" />
            <line stroke-width="1" stroke="#999999" x1="378.1531703045857" y1="244.28529323537967" x2="318.54493631524855" y2="271.4910984821116" />
            <line stroke-width="1" stroke="#999999" x1="378.1531703045857" y1="244.28529323537967" x2="389.99258177554793" y2="323.16414055729496" />
            <line stroke-width="1" stroke="#999999" x1="284.94906487433934" y1="198.72459193706234" x2="338.5284159611555" y2="191.311184300553" />
            <line stroke-width="0.5" stroke="#999999" x1="318.54493631524855" y1="271.4910984821116" x2="284.94906487433934" y2="198.72459193706234" />
            <line stroke-width="1" stroke="#999999" x1="287.1720460495615" y1="319.71708960854926" x2="197.9656643812857" y2="249.69573433525835" />
            <line stroke-width="1" stroke="#999999" x1="235.66353991239808" y1="382.05518264339867" x2="287.1720460495615" y2="319.71708960854926" />
            <line stroke-width="1" stroke="#999999" x1="318.54493631524855" y1="271.4910984821116" x2="287.1720460495615" y2="319.71708960854926" />
            <line stroke-width="1" stroke="#999999" x1="389.99258177554793" y1="323.16414055729496" x2="287.1720460495615" y2="319.71708960854926" />
            <line stroke-width="1" stroke="#999999" x1="151.70988216865146" y1="218.3917159532636" x2="197.9656643812857" y2="249.69573433525835" />
            <line stroke-width="1" stroke="#999999" x1="235.66353991239808" y1="382.05518264339867" x2="197.9656643812857" y2="249.69573433525835" />
            <line stroke-width="1" stroke="#999999" x1="318.54493631524855" y1="271.4910984821116" x2="197.9656643812857" y2="249.69573433525835" />
            <line stroke-width="1" stroke="#999999" x1="318.54493631524855" y1="271.4910984821116" x2="389.0908932404398" y2="201.72575058876242" />
            <line stroke-width="0.5" stroke="#999999" x1="318.54493631524855" y1="271.4910984821116" x2="338.5284159611555" y2="191.311184300553" />
            <line stroke-width="1" stroke="#999999" x1="318.54493631524855" y1="271.4910984821116" x2="235.66353991239808" y2="382.05518264339867" />
            <line stroke-width="1" stroke="#999999" x1="389.99258177554793" y1="323.16414055729496" x2="318.54493631524855" y2="271.4910984821116" />
        </g>
        <g class="nodes_AcMHSWQE">
            <g>
                <circle id="n_1880" r="5" fill="#99ccff" cx="332.73164940239224" cy="304.024472702164">
                    <title>n_1880</title>
                </circle>
                <text x="0" y="-7" id="n_1880" class="label_AcMHSWQE" transform="translate(332.73164940239224,304.024472702164)" cx="332.73164940239224" cy="304.024472702164">n_1880</text>
            </g>
            <g>
                <circle id="n_858" r="5" fill="#99ccff" cx="221.5620227140562" cy="326.4456409824577">
                    <title>n_858</title>
                </circle>
                <text x="0" y="-7" id="n_858" class="label_AcMHSWQE" transform="translate(221.5620227140562,326.4456409824577)" cx="221.5620227140562" cy="326.4456409824577">n_858</text>
            </g>
            <g>
                <circle id="n_1429" r="5" fill="#99ccff" cx="203.40126087464253" cy="289.1080797418349">
                    <title>n_1429</title>
                </circle>
                <text x="0" y="-7" id="n_1429" class="label_AcMHSWQE" transform="translate(203.40126087464253,289.1080797418349)" cx="203.40126087464253" cy="289.1080797418349">n_1429</text>
            </g>
            <g>
                <circle id="n_927" r="5" fill="#99ccff" cx="328.3267800232612" cy="344.0188731973381">
                    <title>n_927</title>
                </circle>
                <text x="0" y="-7" id="n_927" class="label_AcMHSWQE" transform="translate(328.3267800232612,344.0188731973381)" cx="328.3267800232612" cy="344.0188731973381">n_927</text>
            </g>
            <g>
                <circle id="n_136" r="5" fill="#99ccff" cx="285.14259027103526" cy="274.08780412751804">
                    <title>n_136</title>
                </circle>
                <text x="0" y="-7" id="n_136" class="label_AcMHSWQE" transform="translate(285.14259027103526,274.08780412751804)" cx="285.14259027103526" cy="274.08780412751804">n_136</text>
            </g>
            <g>
                <circle id="n_1912" r="5" fill="#99ccff" cx="241.4599992536069" cy="256.00510015637354">
                    <title>n_1912</title>
                </circle>
                <text x="0" y="-7" id="n_1912" class="label_AcMHSWQE" transform="translate(241.4599992536069,256.00510015637354)" cx="241.4599992536069" cy="256.00510015637354">n_1912</text>
            </g>
            <g>
                <circle id="n_1913" r="5" fill="#99ccff" cx="418.37583154711473" cy="283.27040024763636">
                    <title>n_1913</title>
                </circle>
                <text x="0" y="-7" id="n_1913" class="label_AcMHSWQE" transform="translate(418.37583154711473,283.27040024763636)" cx="418.37583154711473" cy="283.27040024763636">n_1913</text>
            </g>
            <g>
                <circle id="n_1488" r="5" fill="#99ccff" cx="317.12901147839466" cy="230.7487270441467">
                    <title>n_1488</title>
                </circle>
                <text x="0" y="-7" id="n_1488" class="label_AcMHSWQE" transform="translate(317.12901147839466,230.7487270441467)" cx="317.12901147839466" cy="230.7487270441467">n_1488</text>
            </g>
            <g>
                <circle id="n_1365" r="5" fill="#99ccff" cx="408.5996167220669" cy="231.6981468253316">
                    <title>n_1365</title>
                </circle>
                <text x="0" y="-7" id="n_1365" class="label_AcMHSWQE" transform="translate(408.5996167220669,231.6981468253316)" cx="408.5996167220669" cy="231.6981468253316">n_1365</text>
            </g>
            <g>
                <circle id="n_1889" r="5" fill="#99ccff" cx="289.28674102130907" cy="357.39191235704584">
                    <title>n_1889</title>
                </circle>
                <text x="0" y="-7" id="n_1889" class="label_AcMHSWQE" transform="translate(289.28674102130907,357.39191235704584)" cx="289.28674102130907" cy="357.39191235704584">n_1889</text>
            </g>
            <g>
                <circle id="n_157" r="5" fill="#99ccff" cx="378.1531703045857" cy="244.28529323537967">
                    <title>n_157</title>
                </circle>
                <text x="0" y="-7" id="n_157" class="label_AcMHSWQE" transform="translate(378.1531703045857,244.28529323537967)" cx="378.1531703045857" cy="244.28529323537967">n_157</text>
            </g>
            <g>
                <circle id="n_1916" r="5" fill="#99ccff" cx="287.1720460495615" cy="319.71708960854926">
                    <title>n_1916</title>
                </circle>
                <text x="0" y="-7" id="n_1916" class="label_AcMHSWQE" transform="translate(287.1720460495615,319.71708960854926)" cx="287.1720460495615" cy="319.71708960854926">n_1916</text>
            </g>
            <g>
                <circle id="n_1917" r="5" fill="#99ccff" cx="197.9656643812857" cy="249.69573433525835">
                    <title>n_1917</title>
                </circle>
                <text x="0" y="-7" id="n_1917" class="label_AcMHSWQE" transform="translate(197.9656643812857,249.69573433525835)" cx="197.9656643812857" cy="249.69573433525835">n_1917</text>
            </g>
            <g>
                <circle id="n_1802" r="5" fill="#99ccff" cx="389.0908932404398" cy="201.72575058876242">
                    <title>n_1802</title>
                </circle>
                <text x="0" y="-7" id="n_1802" class="label_AcMHSWQE" transform="translate(389.0908932404398,201.72575058876242)" cx="389.0908932404398" cy="201.72575058876242">n_1802</text>
            </g>
            <g>
                <circle id="n_1691" r="5" fill="#99ccff" cx="235.66353991239808" cy="382.05518264339867">
                    <title>n_1691</title>
                </circle>
                <text x="0" y="-7" id="n_1691" class="label_AcMHSWQE" transform="translate(235.66353991239808,382.05518264339867)" cx="235.66353991239808" cy="382.05518264339867">n_1691</text>
            </g>
            <g>
                <circle id="n_917" r="5" fill="#99ccff" cx="318.54493631524855" cy="271.4910984821116">
                    <title>n_917</title>
                </circle>
                <text x="0" y="-7" id="n_917" class="label_AcMHSWQE" transform="translate(318.54493631524855,271.4910984821116)" cx="318.54493631524855" cy="271.4910984821116">n_917</text>
            </g>
            <g>
                <circle id="n_729" r="5" fill="#99ccff" cx="240.48505081802773" cy="299.4168338764062">
                    <title>n_729</title>
                </circle>
                <text x="0" y="-7" id="n_729" class="label_AcMHSWQE" transform="translate(240.48505081802773,299.4168338764062)" cx="240.48505081802773" cy="299.4168338764062">n_729</text>
            </g>
            <g>
                <circle id="n_963" r="5" fill="#99ccff" cx="178.3024583880835" cy="334.1684045127899">
                    <title>n_963</title>
                </circle>
                <text x="0" y="-7" id="n_963" class="label_AcMHSWQE" transform="translate(178.3024583880835,334.1684045127899)" cx="178.3024583880835" cy="334.1684045127899">n_963</text>
            </g>
            <g>
                <circle id="n_1798" r="5" fill="#99ccff" cx="373.27340099509655" cy="291.1606818485124">
                    <title>n_1798</title>
                </circle>
                <text x="0" y="-7" id="n_1798" class="label_AcMHSWQE" transform="translate(373.27340099509655,291.1606818485124)" cx="373.27340099509655" cy="291.1606818485124">n_1798</text>
            </g>
            <g>
                <circle id="n_1914" r="5" fill="#99ccff" cx="334.08738330550165" cy="382.2727091376509">
                    <title>n_1914</title>
                </circle>
                <text x="0" y="-7" id="n_1914" class="label_AcMHSWQE" transform="translate(334.08738330550165,382.2727091376509)" cx="334.08738330550165" cy="382.2727091376509">n_1914</text>
            </g>
            <g>
                <circle id="n_1909" r="5" fill="#99ccff" cx="284.94906487433934" cy="198.72459193706234">
                    <title>n_1909</title>
                </circle>
                <text x="0" y="-7" id="n_1909" class="label_AcMHSWQE" transform="translate(284.94906487433934,198.72459193706234)" cx="284.94906487433934" cy="198.72459193706234">n_1909</text>
            </g>
            <g>
                <circle id="n_1906" r="5" fill="#99ccff" cx="387.4265873172517" cy="367.00372350386573">
                    <title>n_1906</title>
                </circle>
                <text x="0" y="-7" id="n_1906" class="label_AcMHSWQE" transform="translate(387.4265873172517,367.00372350386573)" cx="387.4265873172517" cy="367.00372350386573">n_1906</text>
            </g>
            <g>
                <circle id="n_1792" r="5" fill="#99ccff" cx="227.97509696659023" cy="354.8895093767897">
                    <title>n_1792</title>
                </circle>
                <text x="0" y="-7" id="n_1792" class="label_AcMHSWQE" transform="translate(227.97509696659023,354.8895093767897)" cx="227.97509696659023" cy="354.8895093767897">n_1792</text>
            </g>
            <g>
                <circle id="n_1921" r="5" fill="#99ccff" cx="338.5284159611555" cy="191.311184300553">
                    <title>n_1921</title>
                </circle>
                <text x="0" y="-7" id="n_1921" class="label_AcMHSWQE" transform="translate(338.5284159611555,191.311184300553)" cx="338.5284159611555" cy="191.311184300553">n_1921</text>
            </g>
            <g>
                <circle id="n_246" r="5" fill="#99ccff" cx="389.99258177554793" cy="323.16414055729496">
                    <title>n_246</title>
                </circle>
                <text x="0" y="-7" id="n_246" class="label_AcMHSWQE" transform="translate(389.99258177554793,323.16414055729496)" cx="389.99258177554793" cy="323.16414055729496">n_246</text>
            </g>
            <g>
                <circle id="n_1911" r="5" fill="#99ccff" cx="246.69535350431792" cy="217.2687926715535">
                    <title>n_1911</title>
                </circle>
                <text x="0" y="-7" id="n_1911" class="label_AcMHSWQE" transform="translate(246.69535350431792,217.2687926715535)" cx="246.69535350431792" cy="217.2687926715535">n_1911</text>
            </g>
            <g>
                <circle id="n_1864" r="5" fill="#99ccff" cx="217.69185249085442" cy="430.6609156985121">
                    <title>n_1864</title>
                </circle>
                <text x="0" y="-7" id="n_1864" class="label_AcMHSWQE" transform="translate(217.69185249085442,430.6609156985121)" cx="217.69185249085442" cy="430.6609156985121">n_1864</text>
            </g>
            <g>
                <circle id="n_1387" r="5" fill="#99ccff" cx="406.7427206656726" cy="394.176985152741">
                    <title>n_1387</title>
                </circle>
                <text x="0" y="-7" id="n_1387" class="label_AcMHSWQE" transform="translate(406.7427206656726,394.176985152741)" cx="406.7427206656726" cy="394.176985152741">n_1387</text>
            </g>
            <g>
                <circle id="n_1920" r="5" fill="#99ccff" cx="308.30463814935973" cy="161.16774636518082">
                    <title>n_1920</title>
                </circle>
                <text x="0" y="-7" id="n_1920" class="label_AcMHSWQE" transform="translate(308.30463814935973,161.16774636518082)" cx="308.30463814935973" cy="161.16774636518082">n_1920</text>
            </g>
            <g>
                <circle id="n_707" r="5" fill="#99ccff" cx="351.00524045265405" cy="439.7499719056299">
                    <title>n_707</title>
                </circle>
                <text x="0" y="-7" id="n_707" class="label_AcMHSWQE" transform="translate(351.00524045265405,439.7499719056299)" cx="351.00524045265405" cy="439.7499719056299">n_707</text>
            </g>
            <g>
                <circle id="n_1918" r="5" fill="#99ccff" cx="310.35924219455546" cy="430.3918113152216">
                    <title>n_1918</title>
                </circle>
                <text x="0" y="-7" id="n_1918" class="label_AcMHSWQE" transform="translate(310.35924219455546,430.3918113152216)" cx="310.35924219455546" cy="430.3918113152216">n_1918</text>
            </g>
            <g>
                <circle id="n_1840" r="5" fill="#99ccff" cx="151.70988216865146" cy="218.3917159532636">
                    <title>n_1840</title>
                </circle>
                <text x="0" y="-7" id="n_1840" class="label_AcMHSWQE" transform="translate(151.70988216865146,218.3917159532636)" cx="151.70988216865146" cy="218.3917159532636">n_1840</text>
            </g>
        </g>
    </g>
</svg>