<svg xmlns="http://www.w3.org/2000/svg" width="600" height="600" id="pEZjGtQx">        
    <text x="20" y="20" font-family="sans-serif" font-size="14px" fill="#666" style="cursor: pointer" id="pEZjGtQx_svg_txt">[save svg]</text>
<defs><marker id="end" viewBox="0 -5 20 20" refX="34" refY="0" markerWidth="15" markerHeight="15" orient="auto"><path d="M0,-5 L20,0 L0,5 z" fill="#999" stroke="none"/></marker></defs><g class="everything" transform="translate(0,0) scale(1)"><g class="links_pEZjGtQx"><line stroke-width="1" stroke="#999999" x1="347.62532453612397" y1="261.48392100199607" x2="277.4980068511007" y2="298.1576336183905"/><line stroke-width="1" stroke="#999999" x1="347.62532453612397" y1="261.48392100199607" x2="319.3127278647083" y2="345.83782627091824"/><line stroke-width="1" stroke="#999999" x1="347.62532453612397" y1="261.48392100199607" x2="265.8626207025397" y2="267.5204756726976"/><line stroke-width="1" stroke="#999999" x1="347.62532453612397" y1="261.48392100199607" x2="374.4384312577888" y2="238.84944583155166"/><line stroke-width="1" stroke="#999999" x1="347.62532453612397" y1="261.48392100199607" x2="375.8273317400968" y2="287.1134294062741"/><line stroke-width="1" stroke="#999999" x1="347.62532453612397" y1="261.48392100199607" x2="335.2227332660904" y2="214.11487940353072"/><line stroke-width="1" stroke="#999999" x1="347.62532453612397" y1="261.48392100199607" x2="317.84294097932957" y2="251.5687981352707"/><line stroke-width="1" stroke="#999999" x1="347.62532453612397" y1="261.48392100199607" x2="285.98078432890134" y2="217.54224522123562"/><line stroke-width="0.16666666666666666" stroke="#999999" x1="267.16507947234516" y1="391.9345682751633" x2="319.3127278647083" y2="345.83782627091824"/><line stroke-width="0.6666666666666666" stroke="#999999" x1="267.16507947234516" y1="391.9345682751633" x2="237.06561440720765" y2="318.59950935050574"/><line stroke-width="0.16666666666666666" stroke="#999999" x1="267.16507947234516" y1="391.9345682751633" x2="286.7261631775345" y2="429.35258445719415"/><line stroke-width="0.07142857142857142" stroke="#999999" x1="277.4980068511007" y1="298.1576336183905" x2="347.62532453612397" y2="261.48392100199607"/><line stroke-width="0.5" stroke="#999999" x1="277.4980068511007" y1="298.1576336183905" x2="319.3127278647083" y2="345.83782627091824"/><line stroke-width="0.42857142857142855" stroke="#999999" x1="277.4980068511007" y1="298.1576336183905" x2="237.06561440720765" y2="318.59950935050574"/><line stroke-width="0.42857142857142855" stroke="#999999" x1="277.4980068511007" y1="298.1576336183905" x2="264.3188485700857" y2="336.0394479504869"/><line stroke-width="0.5714285714285714" stroke="#999999" x1="277.4980068511007" y1="298.1576336183905" x2="265.8626207025397" y2="267.5204756726976"/><line stroke-width="0.42857142857142855" stroke="#999999" x1="277.4980068511007" y1="298.1576336183905" x2="194.18601629483248" y2="311.90498487871844"/><line stroke-width="0.42857142857142855" stroke="#999999" x1="277.4980068511007" y1="298.1576336183905" x2="236.92894060522485" y2="365.3334328938342"/><line stroke-width="0.42857142857142855" stroke="#999999" x1="277.4980068511007" y1="298.1576336183905" x2="211.02295997827576" y2="347.7910685110818"/><line stroke-width="0.07142857142857142" stroke="#999999" x1="277.4980068511007" y1="298.1576336183905" x2="374.4384312577888" y2="238.84944583155166"/><line stroke-width="0.07142857142857142" stroke="#999999" x1="277.4980068511007" y1="298.1576336183905" x2="375.8273317400968" y2="287.1134294062741"/><line stroke-width="0.07142857142857142" stroke="#999999" x1="277.4980068511007" y1="298.1576336183905" x2="335.2227332660904" y2="214.11487940353072"/><line stroke-width="0.07142857142857142" stroke="#999999" x1="277.4980068511007" y1="298.1576336183905" x2="317.84294097932957" y2="251.5687981352707"/><line stroke-width="0.07142857142857142" stroke="#999999" x1="277.4980068511007" y1="298.1576336183905" x2="285.98078432890134" y2="217.54224522123562"/><line stroke-width="0.42857142857142855" stroke="#999999" x1="277.4980068511007" y1="298.1576336183905" x2="210.4563123852738" y2="268.8987292549978"/><line stroke-width="0.5" stroke="#999999" x1="228.4688110617906" y1="217.96363761119" x2="285.98078432890134" y2="217.54224522123562"/><line stroke-width="0.5" stroke="#999999" x1="228.4688110617906" y1="217.96363761119" x2="210.4563123852738" y2="268.8987292549978"/><line stroke-width="0.2" stroke="#999999" x1="352.3967994932036" y1="334.2266003201422" x2="319.3127278647083" y2="345.83782627091824"/><line stroke-width="0.2" stroke="#999999" x1="352.3967994932036" y1="334.2266003201422" x2="265.8626207025397" y2="267.5204756726976"/><line stroke-width="0.2" stroke="#999999" x1="352.3967994932036" y1="334.2266003201422" x2="317.0462753995085" y2="312.59905745337306"/><line stroke-width="0.08620689655172414" stroke="#999999" x1="319.3127278647083" y1="345.83782627091824" x2="347.62532453612397" y2="261.48392100199607"/><line stroke-width="0.017241379310344827" stroke="#999999" x1="319.3127278647083" y1="345.83782627091824" x2="267.16507947234516" y2="391.9345682751633"/><line stroke-width="0.15517241379310345" stroke="#999999" x1="319.3127278647083" y1="345.83782627091824" x2="277.4980068511007" y2="298.1576336183905"/><line stroke-width="0.06896551724137931" stroke="#999999" x1="319.3127278647083" y1="345.83782627091824" x2="352.3967994932036" y2="334.2266003201422"/><line stroke-width="0.08620689655172414" stroke="#999999" x1="319.3127278647083" y1="345.83782627091824" x2="237.06561440720765" y2="318.59950935050574"/><line stroke-width="0.1724137931034483" stroke="#999999" x1="319.3127278647083" y1="345.83782627091824" x2="264.3188485700857" y2="336.0394479504869"/><line stroke-width="0.22413793103448276" stroke="#999999" x1="319.3127278647083" y1="345.83782627091824" x2="265.8626207025397" y2="267.5204756726976"/><line stroke-width="0.06896551724137931" stroke="#999999" x1="319.3127278647083" y1="345.83782627091824" x2="194.18601629483248" y2="311.90498487871844"/><line stroke-width="0.06896551724137931" stroke="#999999" x1="319.3127278647083" y1="345.83782627091824" x2="236.92894060522485" y2="365.3334328938342"/><line stroke-width="0.06896551724137931" stroke="#999999" x1="319.3127278647083" y1="345.83782627091824" x2="211.02295997827576" y2="347.7910685110818"/><line stroke-width="0.08620689655172414" stroke="#999999" x1="319.3127278647083" y1="345.83782627091824" x2="374.4384312577888" y2="238.84944583155166"/><line stroke-width="0.13793103448275862" stroke="#999999" x1="319.3127278647083" y1="345.83782627091824" x2="375.8273317400968" y2="287.1134294062741"/><line stroke-width="0.10344827586206898" stroke="#999999" x1="319.3127278647083" y1="345.83782627091824" x2="335.2227332660904" y2="214.11487940353072"/><line stroke-width="0.08620689655172414" stroke="#999999" x1="319.3127278647083" y1="345.83782627091824" x2="317.84294097932957" y2="251.5687981352707"/><line stroke-width="0.08620689655172414" stroke="#999999" x1="319.3127278647083" y1="345.83782627091824" x2="285.98078432890134" y2="217.54224522123562"/><line stroke-width="0.06896551724137931" stroke="#999999" x1="319.3127278647083" y1="345.83782627091824" x2="317.0462753995085" y2="312.59905745337306"/><line stroke-width="0.06896551724137931" stroke="#999999" x1="319.3127278647083" y1="345.83782627091824" x2="210.4563123852738" y2="268.8987292549978"/><line stroke-width="0.42857142857142855" stroke="#999999" x1="237.06561440720765" y1="318.59950935050574" x2="267.16507947234516" y2="391.9345682751633"/><line stroke-width="0.14285714285714285" stroke="#999999" x1="237.06561440720765" y1="318.59950935050574" x2="277.4980068511007" y2="298.1576336183905"/><line stroke-width="0.2857142857142857" stroke="#999999" x1="237.06561440720765" y1="318.59950935050574" x2="319.3127278647083" y2="345.83782627091824"/><line stroke-width="0.14285714285714285" stroke="#999999" x1="237.06561440720765" y1="318.59950935050574" x2="264.3188485700857" y2="336.0394479504869"/><line stroke-width="0.14285714285714285" stroke="#999999" x1="237.06561440720765" y1="318.59950935050574" x2="265.8626207025397" y2="267.5204756726976"/><line stroke-width="0.14285714285714285" stroke="#999999" x1="237.06561440720765" y1="318.59950935050574" x2="194.18601629483248" y2="311.90498487871844"/><line stroke-width="0.14285714285714285" stroke="#999999" x1="237.06561440720765" y1="318.59950935050574" x2="236.92894060522485" y2="365.3334328938342"/><line stroke-width="0.2857142857142857" stroke="#999999" x1="237.06561440720765" y1="318.59950935050574" x2="211.02295997827576" y2="347.7910685110818"/><line stroke-width="0.14285714285714285" stroke="#999999" x1="237.06561440720765" y1="318.59950935050574" x2="210.4563123852738" y2="268.8987292549978"/><line stroke-width="0.5294117647058824" stroke="#999999" x1="264.3188485700857" y1="336.0394479504869" x2="277.4980068511007" y2="298.1576336183905"/><line stroke-width="0.7058823529411765" stroke="#999999" x1="264.3188485700857" y1="336.0394479504869" x2="319.3127278647083" y2="345.83782627091824"/><line stroke-width="0.5294117647058824" stroke="#999999" x1="264.3188485700857" y1="336.0394479504869" x2="237.06561440720765" y2="318.59950935050574"/><line stroke-width="0.5294117647058824" stroke="#999999" x1="264.3188485700857" y1="336.0394479504869" x2="265.8626207025397" y2="267.5204756726976"/><line stroke-width="0.5294117647058824" stroke="#999999" x1="264.3188485700857" y1="336.0394479504869" x2="194.18601629483248" y2="311.90498487871844"/><line stroke-width="0.5294117647058824" stroke="#999999" x1="264.3188485700857" y1="336.0394479504869" x2="236.92894060522485" y2="365.3334328938342"/><line stroke-width="0.6470588235294118" stroke="#999999" x1="264.3188485700857" y1="336.0394479504869" x2="211.02295997827576" y2="347.7910685110818"/><line stroke-width="0.058823529411764705" stroke="#999999" x1="264.3188485700857" y1="336.0394479504869" x2="375.8273317400968" y2="287.1134294062741"/><line stroke-width="0.5294117647058824" stroke="#999999" x1="264.3188485700857" y1="336.0394479504869" x2="210.4563123852738" y2="268.8987292549978"/><line stroke-width="0.16666666666666666" stroke="#999999" x1="265.8626207025397" y1="267.5204756726976" x2="347.62532453612397" y2="261.48392100199607"/><line stroke-width="0.6666666666666666" stroke="#999999" x1="265.8626207025397" y1="267.5204756726976" x2="277.4980068511007" y2="298.1576336183905"/><line stroke-width="0.16666666666666666" stroke="#999999" x1="265.8626207025397" y1="267.5204756726976" x2="352.3967994932036" y2="334.2266003201422"/><line stroke-width="0.6666666666666666" stroke="#999999" x1="265.8626207025397" y1="267.5204756726976" x2="319.3127278647083" y2="345.83782627091824"/><line stroke-width="0.3333333333333333" stroke="#999999" x1="265.8626207025397" y1="267.5204756726976" x2="237.06561440720765" y2="318.59950935050574"/><line stroke-width="0.3333333333333333" stroke="#999999" x1="265.8626207025397" y1="267.5204756726976" x2="264.3188485700857" y2="336.0394479504869"/><line stroke-width="0.3333333333333333" stroke="#999999" x1="265.8626207025397" y1="267.5204756726976" x2="194.18601629483248" y2="311.90498487871844"/><line stroke-width="0.3333333333333333" stroke="#999999" x1="265.8626207025397" y1="267.5204756726976" x2="236.92894060522485" y2="365.3334328938342"/><line stroke-width="0.3333333333333333" stroke="#999999" x1="265.8626207025397" y1="267.5204756726976" x2="211.02295997827576" y2="347.7910685110818"/><line stroke-width="0.16666666666666666" stroke="#999999" x1="265.8626207025397" y1="267.5204756726976" x2="374.4384312577888" y2="238.84944583155166"/><line stroke-width="0.16666666666666666" stroke="#999999" x1="265.8626207025397" y1="267.5204756726976" x2="375.8273317400968" y2="287.1134294062741"/><line stroke-width="0.16666666666666666" stroke="#999999" x1="265.8626207025397" y1="267.5204756726976" x2="335.2227332660904" y2="214.11487940353072"/><line stroke-width="0.16666666666666666" stroke="#999999" x1="265.8626207025397" y1="267.5204756726976" x2="317.84294097932957" y2="251.5687981352707"/><line stroke-width="0.16666666666666666" stroke="#999999" x1="265.8626207025397" y1="267.5204756726976" x2="285.98078432890134" y2="217.54224522123562"/><line stroke-width="0.16666666666666666" stroke="#999999" x1="265.8626207025397" y1="267.5204756726976" x2="317.0462753995085" y2="312.59905745337306"/><line stroke-width="0.3333333333333333" stroke="#999999" x1="265.8626207025397" y1="267.5204756726976" x2="210.4563123852738" y2="268.8987292549978"/><line stroke-width="0.16666666666666666" stroke="#999999" x1="194.18601629483248" y1="311.90498487871844" x2="277.4980068511007" y2="298.1576336183905"/><line stroke-width="0.16666666666666666" stroke="#999999" x1="194.18601629483248" y1="311.90498487871844" x2="319.3127278647083" y2="345.83782627091824"/><line stroke-width="0.16666666666666666" stroke="#999999" x1="194.18601629483248" y1="311.90498487871844" x2="237.06561440720765" y2="318.59950935050574"/><line stroke-width="0.16666666666666666" stroke="#999999" x1="194.18601629483248" y1="311.90498487871844" x2="264.3188485700857" y2="336.0394479504869"/><line stroke-width="0.16666666666666666" stroke="#999999" x1="194.18601629483248" y1="311.90498487871844" x2="265.8626207025397" y2="267.5204756726976"/><line stroke-width="0.16666666666666666" stroke="#999999" x1="194.18601629483248" y1="311.90498487871844" x2="148.57429997297257" y2="319.9092662346735"/><line stroke-width="0.16666666666666666" stroke="#999999" x1="194.18601629483248" y1="311.90498487871844" x2="236.92894060522485" y2="365.3334328938342"/><line stroke-width="0.16666666666666666" stroke="#999999" x1="194.18601629483248" y1="311.90498487871844" x2="211.02295997827576" y2="347.7910685110818"/><line stroke-width="0.16666666666666666" stroke="#999999" x1="194.18601629483248" y1="311.90498487871844" x2="210.4563123852738" y2="268.8987292549978"/><line stroke-width="0.6666666666666666" stroke="#999999" x1="148.57429997297257" y1="319.9092662346735" x2="194.18601629483248" y2="311.90498487871844"/><line stroke-width="0.25" stroke="#999999" x1="236.92894060522485" y1="365.3334328938342" x2="277.4980068511007" y2="298.1576336183905"/><line stroke-width="0.25" stroke="#999999" x1="236.92894060522485" y1="365.3334328938342" x2="319.3127278647083" y2="345.83782627091824"/><line stroke-width="0.25" stroke="#999999" x1="236.92894060522485" y1="365.3334328938342" x2="237.06561440720765" y2="318.59950935050574"/><line stroke-width="0.25" stroke="#999999" x1="236.92894060522485" y1="365.3334328938342" x2="264.3188485700857" y2="336.0394479504869"/><line stroke-width="0.25" stroke="#999999" x1="236.92894060522485" y1="365.3334328938342" x2="265.8626207025397" y2="267.5204756726976"/><line stroke-width="0.25" stroke="#999999" x1="236.92894060522485" y1="365.3334328938342" x2="194.18601629483248" y2="311.90498487871844"/><line stroke-width="0.25" stroke="#999999" x1="236.92894060522485" y1="365.3334328938342" x2="211.02295997827576" y2="347.7910685110818"/><line stroke-width="0.25" stroke="#999999" x1="236.92894060522485" y1="365.3334328938342" x2="210.4563123852738" y2="268.8987292549978"/><line stroke-width="1" stroke="#999999" x1="286.7261631775345" y1="429.35258445719415" x2="267.16507947234516" y2="391.9345682751633"/><line stroke-width="0.2857142857142857" stroke="#999999" x1="211.02295997827576" y1="347.7910685110818" x2="277.4980068511007" y2="298.1576336183905"/><line stroke-width="0.2857142857142857" stroke="#999999" x1="211.02295997827576" y1="347.7910685110818" x2="319.3127278647083" y2="345.83782627091824"/><line stroke-width="0.42857142857142855" stroke="#999999" x1="211.02295997827576" y1="347.7910685110818" x2="237.06561440720765" y2="318.59950935050574"/><line stroke-width="0.42857142857142855" stroke="#999999" x1="211.02295997827576" y1="347.7910685110818" x2="264.3188485700857" y2="336.0394479504869"/><line stroke-width="0.2857142857142857" stroke="#999999" x1="211.02295997827576" y1="347.7910685110818" x2="265.8626207025397" y2="267.5204756726976"/><line stroke-width="0.2857142857142857" stroke="#999999" x1="211.02295997827576" y1="347.7910685110818" x2="194.18601629483248" y2="311.90498487871844"/><line stroke-width="0.2857142857142857" stroke="#999999" x1="211.02295997827576" y1="347.7910685110818" x2="236.92894060522485" y2="365.3334328938342"/><line stroke-width="0.2857142857142857" stroke="#999999" x1="211.02295997827576" y1="347.7910685110818" x2="210.4563123852738" y2="268.8987292549978"/><line stroke-width="0.3333333333333333" stroke="#999999" x1="374.4384312577888" y1="238.84944583155166" x2="347.62532453612397" y2="261.48392100199607"/><line stroke-width="0.3333333333333333" stroke="#999999" x1="374.4384312577888" y1="238.84944583155166" x2="277.4980068511007" y2="298.1576336183905"/><line stroke-width="0.3333333333333333" stroke="#999999" x1="374.4384312577888" y1="238.84944583155166" x2="319.3127278647083" y2="345.83782627091824"/><line stroke-width="0.3333333333333333" stroke="#999999" x1="374.4384312577888" y1="238.84944583155166" x2="265.8626207025397" y2="267.5204756726976"/><line stroke-width="0.3333333333333333" stroke="#999999" x1="374.4384312577888" y1="238.84944583155166" x2="375.8273317400968" y2="287.1134294062741"/><line stroke-width="0.3333333333333333" stroke="#999999" x1="374.4384312577888" y1="238.84944583155166" x2="335.2227332660904" y2="214.11487940353072"/><line stroke-width="0.3333333333333333" stroke="#999999" x1="374.4384312577888" y1="238.84944583155166" x2="317.84294097932957" y2="251.5687981352707"/><line stroke-width="0.3333333333333333" stroke="#999999" x1="374.4384312577888" y1="238.84944583155166" x2="285.98078432890134" y2="217.54224522123562"/><line stroke-width="0.3333333333333333" stroke="#999999" x1="375.8273317400968" y1="287.1134294062741" x2="347.62532453612397" y2="261.48392100199607"/><line stroke-width="0.3333333333333333" stroke="#999999" x1="375.8273317400968" y1="287.1134294062741" x2="277.4980068511007" y2="298.1576336183905"/><line stroke-width="0.6666666666666666" stroke="#999999" x1="375.8273317400968" y1="287.1134294062741" x2="319.3127278647083" y2="345.83782627091824"/><line stroke-width="0.3333333333333333" stroke="#999999" x1="375.8273317400968" y1="287.1134294062741" x2="264.3188485700857" y2="336.0394479504869"/><line stroke-width="0.3333333333333333" stroke="#999999" x1="375.8273317400968" y1="287.1134294062741" x2="265.8626207025397" y2="267.5204756726976"/><line stroke-width="0.3333333333333333" stroke="#999999" x1="375.8273317400968" y1="287.1134294062741" x2="374.4384312577888" y2="238.84944583155166"/><line stroke-width="0.3333333333333333" stroke="#999999" x1="375.8273317400968" y1="287.1134294062741" x2="335.2227332660904" y2="214.11487940353072"/><line stroke-width="0.3333333333333333" stroke="#999999" x1="375.8273317400968" y1="287.1134294062741" x2="317.84294097932957" y2="251.5687981352707"/><line stroke-width="0.3333333333333333" stroke="#999999" x1="375.8273317400968" y1="287.1134294062741" x2="285.98078432890134" y2="217.54224522123562"/><line stroke-width="0.25" stroke="#999999" x1="335.2227332660904" y1="214.11487940353072" x2="347.62532453612397" y2="261.48392100199607"/><line stroke-width="0.25" stroke="#999999" x1="335.2227332660904" y1="214.11487940353072" x2="277.4980068511007" y2="298.1576336183905"/><line stroke-width="0.5" stroke="#999999" x1="335.2227332660904" y1="214.11487940353072" x2="319.3127278647083" y2="345.83782627091824"/><line stroke-width="0.25" stroke="#999999" x1="335.2227332660904" y1="214.11487940353072" x2="265.8626207025397" y2="267.5204756726976"/><line stroke-width="0.25" stroke="#999999" x1="335.2227332660904" y1="214.11487940353072" x2="374.4384312577888" y2="238.84944583155166"/><line stroke-width="0.25" stroke="#999999" x1="335.2227332660904" y1="214.11487940353072" x2="375.8273317400968" y2="287.1134294062741"/><line stroke-width="0.25" stroke="#999999" x1="335.2227332660904" y1="214.11487940353072" x2="317.84294097932957" y2="251.5687981352707"/><line stroke-width="0.25" stroke="#999999" x1="335.2227332660904" y1="214.11487940353072" x2="285.98078432890134" y2="217.54224522123562"/><line stroke-width="1" stroke="#999999" x1="317.84294097932957" y1="251.5687981352707" x2="347.62532453612397" y2="261.48392100199607"/><line stroke-width="1" stroke="#999999" x1="317.84294097932957" y1="251.5687981352707" x2="277.4980068511007" y2="298.1576336183905"/><line stroke-width="1" stroke="#999999" x1="317.84294097932957" y1="251.5687981352707" x2="319.3127278647083" y2="345.83782627091824"/><line stroke-width="1" stroke="#999999" x1="317.84294097932957" y1="251.5687981352707" x2="265.8626207025397" y2="267.5204756726976"/><line stroke-width="1" stroke="#999999" x1="317.84294097932957" y1="251.5687981352707" x2="374.4384312577888" y2="238.84944583155166"/><line stroke-width="1" stroke="#999999" x1="317.84294097932957" y1="251.5687981352707" x2="375.8273317400968" y2="287.1134294062741"/><line stroke-width="1" stroke="#999999" x1="317.84294097932957" y1="251.5687981352707" x2="335.2227332660904" y2="214.11487940353072"/><line stroke-width="1" stroke="#999999" x1="317.84294097932957" y1="251.5687981352707" x2="285.98078432890134" y2="217.54224522123562"/><line stroke-width="0.3333333333333333" stroke="#999999" x1="285.98078432890134" y1="217.54224522123562" x2="347.62532453612397" y2="261.48392100199607"/><line stroke-width="0.3333333333333333" stroke="#999999" x1="285.98078432890134" y1="217.54224522123562" x2="277.4980068511007" y2="298.1576336183905"/><line stroke-width="0.3333333333333333" stroke="#999999" x1="285.98078432890134" y1="217.54224522123562" x2="228.4688110617906" y2="217.96363761119"/><line stroke-width="0.3333333333333333" stroke="#999999" x1="285.98078432890134" y1="217.54224522123562" x2="319.3127278647083" y2="345.83782627091824"/><line stroke-width="0.3333333333333333" stroke="#999999" x1="285.98078432890134" y1="217.54224522123562" x2="265.8626207025397" y2="267.5204756726976"/><line stroke-width="0.3333333333333333" stroke="#999999" x1="285.98078432890134" y1="217.54224522123562" x2="374.4384312577888" y2="238.84944583155166"/><line stroke-width="0.3333333333333333" stroke="#999999" x1="285.98078432890134" y1="217.54224522123562" x2="375.8273317400968" y2="287.1134294062741"/><line stroke-width="0.3333333333333333" stroke="#999999" x1="285.98078432890134" y1="217.54224522123562" x2="335.2227332660904" y2="214.11487940353072"/><line stroke-width="0.3333333333333333" stroke="#999999" x1="285.98078432890134" y1="217.54224522123562" x2="317.84294097932957" y2="251.5687981352707"/><line stroke-width="0.3333333333333333" stroke="#999999" x1="285.98078432890134" y1="217.54224522123562" x2="210.4563123852738" y2="268.8987292549978"/><line stroke-width="0.5" stroke="#999999" x1="317.0462753995085" y1="312.59905745337306" x2="352.3967994932036" y2="334.2266003201422"/><line stroke-width="0.5" stroke="#999999" x1="317.0462753995085" y1="312.59905745337306" x2="319.3127278647083" y2="345.83782627091824"/><line stroke-width="0.5" stroke="#999999" x1="317.0462753995085" y1="312.59905745337306" x2="265.8626207025397" y2="267.5204756726976"/><line stroke-width="0.25" stroke="#999999" x1="210.4563123852738" y1="268.8987292549978" x2="277.4980068511007" y2="298.1576336183905"/><line stroke-width="0.25" stroke="#999999" x1="210.4563123852738" y1="268.8987292549978" x2="228.4688110617906" y2="217.96363761119"/><line stroke-width="0.25" stroke="#999999" x1="210.4563123852738" y1="268.8987292549978" x2="319.3127278647083" y2="345.83782627091824"/><line stroke-width="0.25" stroke="#999999" x1="210.4563123852738" y1="268.8987292549978" x2="237.06561440720765" y2="318.59950935050574"/><line stroke-width="0.25" stroke="#999999" x1="210.4563123852738" y1="268.8987292549978" x2="264.3188485700857" y2="336.0394479504869"/><line stroke-width="0.25" stroke="#999999" x1="210.4563123852738" y1="268.8987292549978" x2="265.8626207025397" y2="267.5204756726976"/><line stroke-width="0.25" stroke="#999999" x1="210.4563123852738" y1="268.8987292549978" x2="194.18601629483248" y2="311.90498487871844"/><line stroke-width="0.25" stroke="#999999" x1="210.4563123852738" y1="268.8987292549978" x2="236.92894060522485" y2="365.3334328938342"/><line stroke-width="0.25" stroke="#999999" x1="210.4563123852738" y1="268.8987292549978" x2="211.02295997827576" y2="347.7910685110818"/><line stroke-width="0.25" stroke="#999999" x1="210.4563123852738" y1="268.8987292549978" x2="285.98078432890134" y2="217.54224522123562"/></g><g class="nodes_pEZjGtQx"><g><circle id="n_917" r="5" fill="#99ccff" cx="347.62532453612397" cy="261.48392100199607"><title>n_917</title></circle><text x="0" y="-7" id="n_917" class="label_pEZjGtQx" transform="translate(347.62532453612397,261.48392100199607)" cx="347.62532453612397" cy="261.48392100199607">n_917</text></g><g><circle id="n_1380" r="5" fill="#99ccff" cx="267.16507947234516" cy="391.9345682751633"><title>n_1380</title></circle><text x="0" y="-7" id="n_1380" class="label_pEZjGtQx" transform="translate(267.16507947234516,391.9345682751633)" cx="267.16507947234516" cy="391.9345682751633">n_1380</text></g><g><circle id="n_1924" r="5" fill="#99ccff" cx="322.31014205741144" cy="24.51091053731701"><title>n_1924</title></circle><text x="0" y="-7" id="n_1924" class="label_pEZjGtQx" transform="translate(322.31014205741144,24.51091053731701)" cx="322.31014205741144" cy="24.51091053731701">n_1924</text></g><g><circle id="n_157" r="5" fill="#99ccff" cx="277.4980068511007" cy="298.1576336183905"><title>n_157</title></circle><text x="0" y="-7" id="n_157" class="label_pEZjGtQx" transform="translate(277.4980068511007,298.1576336183905)" cx="277.4980068511007" cy="298.1576336183905">n_157</text></g><g><circle id="n_1925" r="5" fill="#99ccff" cx="228.4688110617906" cy="217.96363761119"><title>n_1925</title></circle><text x="0" y="-7" id="n_1925" class="label_pEZjGtQx" transform="translate(228.4688110617906,217.96363761119)" cx="228.4688110617906" cy="217.96363761119">n_1925</text></g><g><circle id="n_1798" r="5" fill="#99ccff" cx="352.3967994932036" cy="334.2266003201422"><title>n_1798</title></circle><text x="0" y="-7" id="n_1798" class="label_pEZjGtQx" transform="translate(352.3967994932036,334.2266003201422)" cx="352.3967994932036" cy="334.2266003201422">n_1798</text></g><g><circle id="n_927" r="5" fill="#99ccff" cx="319.3127278647083" cy="345.83782627091824"><title>n_927</title></circle><text x="0" y="-7" id="n_927" class="label_pEZjGtQx" transform="translate(319.3127278647083,345.83782627091824)" cx="319.3127278647083" cy="345.83782627091824">n_927</text></g><g><circle id="n_1429" r="5" fill="#99ccff" cx="237.06561440720765" cy="318.59950935050574"><title>n_1429</title></circle><text x="0" y="-7" id="n_1429" class="label_pEZjGtQx" transform="translate(237.06561440720765,318.59950935050574)" cx="237.06561440720765" cy="318.59950935050574">n_1429</text></g><g><circle id="n_136" r="5" fill="#99ccff" cx="264.3188485700857" cy="336.0394479504869"><title>n_136</title></circle><text x="0" y="-7" id="n_136" class="label_pEZjGtQx" transform="translate(264.3188485700857,336.0394479504869)" cx="264.3188485700857" cy="336.0394479504869">n_136</text></g><g><circle id="n_1832" r="5" fill="#99ccff" cx="38.632887640769034" cy="430.56118348721225"><title>n_1832</title></circle><text x="0" y="-7" id="n_1832" class="label_pEZjGtQx" transform="translate(38.632887640769034,430.56118348721225)" cx="38.632887640769034" cy="430.56118348721225">n_1832</text></g><g><circle id="n_1691" r="5" fill="#99ccff" cx="265.8626207025397" cy="267.5204756726976"><title>n_1691</title></circle><text x="0" y="-7" id="n_1691" class="label_pEZjGtQx" transform="translate(265.8626207025397,267.5204756726976)" cx="265.8626207025397" cy="267.5204756726976">n_1691</text></g><g><circle id="n_1926" r="5" fill="#99ccff" cx="437.90805881903765" cy="552.0873615418856"><title>n_1926</title></circle><text x="0" y="-7" id="n_1926" class="label_pEZjGtQx" transform="translate(437.90805881903765,552.0873615418856)" cx="437.90805881903765" cy="552.0873615418856">n_1926</text></g><g><circle id="n_1292" r="5" fill="#99ccff" cx="194.18601629483248" cy="311.90498487871844"><title>n_1292</title></circle><text x="0" y="-7" id="n_1292" class="label_pEZjGtQx" transform="translate(194.18601629483248,311.90498487871844)" cx="194.18601629483248" cy="311.90498487871844">n_1292</text></g><g><circle id="n_707" r="5" fill="#99ccff" cx="148.57429997297257" cy="319.9092662346735"><title>n_707</title></circle><text x="0" y="-7" id="n_707" class="label_pEZjGtQx" transform="translate(148.57429997297257,319.9092662346735)" cx="148.57429997297257" cy="319.9092662346735">n_707</text></g><g><circle id="n_1526" r="5" fill="#99ccff" cx="236.92894060522485" cy="365.3334328938342"><title>n_1526</title></circle><text x="0" y="-7" id="n_1526" class="label_pEZjGtQx" transform="translate(236.92894060522485,365.3334328938342)" cx="236.92894060522485" cy="365.3334328938342">n_1526</text></g><g><circle id="n_1927" r="5" fill="#99ccff" cx="370.0090815822604" cy="-73.78245030939728"><title>n_1927</title></circle><text x="0" y="-7" id="n_1927" class="label_pEZjGtQx" transform="translate(370.0090815822604,-73.78245030939728)" cx="370.0090815822604" cy="-73.78245030939728">n_1927</text></g><g><circle id="n_1780" r="5" fill="#99ccff" cx="286.7261631775345" cy="429.35258445719415"><title>n_1780</title></circle><text x="0" y="-7" id="n_1780" class="label_pEZjGtQx" transform="translate(286.7261631775345,429.35258445719415)" cx="286.7261631775345" cy="429.35258445719415">n_1780</text></g><g><circle id="n_1365" r="5" fill="#99ccff" cx="211.02295997827576" cy="347.7910685110818"><title>n_1365</title></circle><text x="0" y="-7" id="n_1365" class="label_pEZjGtQx" transform="translate(211.02295997827576,347.7910685110818)" cx="211.02295997827576" cy="347.7910685110818">n_1365</text></g><g><circle id="n_1928" r="5" fill="#99ccff" cx="374.4384312577888" cy="238.84944583155166"><title>n_1928</title></circle><text x="0" y="-7" id="n_1928" class="label_pEZjGtQx" transform="translate(374.4384312577888,238.84944583155166)" cx="374.4384312577888" cy="238.84944583155166">n_1928</text></g><g><circle id="n_1613" r="5" fill="#99ccff" cx="375.8273317400968" cy="287.1134294062741"><title>n_1613</title></circle><text x="0" y="-7" id="n_1613" class="label_pEZjGtQx" transform="translate(375.8273317400968,287.1134294062741)" cx="375.8273317400968" cy="287.1134294062741">n_1613</text></g><g><circle id="n_729" r="5" fill="#99ccff" cx="335.2227332660904" cy="214.11487940353072"><title>n_729</title></circle><text x="0" y="-7" id="n_729" class="label_pEZjGtQx" transform="translate(335.2227332660904,214.11487940353072)" cx="335.2227332660904" cy="214.11487940353072">n_729</text></g><g><circle id="n_1929" r="5" fill="#99ccff" cx="670.4238484358692" cy="280.1204831809851"><title>n_1929</title></circle><text x="0" y="-7" id="n_1929" class="label_pEZjGtQx" transform="translate(670.4238484358692,280.1204831809851)" cx="670.4238484358692" cy="280.1204831809851">n_1929</text></g><g><circle id="n_1930" r="5" fill="#99ccff" cx="317.84294097932957" cy="251.5687981352707"><title>n_1930</title></circle><text x="0" y="-7" id="n_1930" class="label_pEZjGtQx" transform="translate(317.84294097932957,251.5687981352707)" cx="317.84294097932957" cy="251.5687981352707">n_1930</text></g><g><circle id="n_1840" r="5" fill="#99ccff" cx="285.98078432890134" cy="217.54224522123562"><title>n_1840</title></circle><text x="0" y="-7" id="n_1840" class="label_pEZjGtQx" transform="translate(285.98078432890134,217.54224522123562)" cx="285.98078432890134" cy="217.54224522123562">n_1840</text></g><g><circle id="n_1931" r="5" fill="#99ccff" cx="539.2161046387286" cy="598.4453094057843"><title>n_1931</title></circle><text x="0" y="-7" id="n_1931" class="label_pEZjGtQx" transform="translate(539.2161046387286,598.4453094057843)" cx="539.2161046387286" cy="598.4453094057843">n_1931</text></g><g><circle id="n_1932" r="5" fill="#99ccff" cx="-2.811638125878761" cy="145.7011567101947"><title>n_1932</title></circle><text x="0" y="-7" id="n_1932" class="label_pEZjGtQx" transform="translate(-2.811638125878761,145.7011567101947)" cx="-2.811638125878761" cy="145.7011567101947">n_1932</text></g><g><circle id="n_1933" r="5" fill="#99ccff" cx="317.0462753995085" cy="312.59905745337306"><title>n_1933</title></circle><text x="0" y="-7" id="n_1933" class="label_pEZjGtQx" transform="translate(317.0462753995085,312.59905745337306)" cx="317.0462753995085" cy="312.59905745337306">n_1933</text></g><g><circle id="n_1264" r="5" fill="#99ccff" cx="217.99568873664904" cy="626.4585025371472"><title>n_1264</title></circle><text x="0" y="-7" id="n_1264" class="label_pEZjGtQx" transform="translate(217.99568873664904,626.4585025371472)" cx="217.99568873664904" cy="626.4585025371472">n_1264</text></g><g><circle id="n_1934" r="5" fill="#99ccff" cx="201.23321786588227" cy="-66.616935705138"><title>n_1934</title></circle><text x="0" y="-7" id="n_1934" class="label_pEZjGtQx" transform="translate(201.23321786588227,-66.616935705138)" cx="201.23321786588227" cy="-66.616935705138">n_1934</text></g><g><circle id="n_935" r="5" fill="#99ccff" cx="651.0741574119475" cy="445.69035692861326"><title>n_935</title></circle><text x="0" y="-7" id="n_935" class="label_pEZjGtQx" transform="translate(651.0741574119475,445.69035692861326)" cx="651.0741574119475" cy="445.69035692861326">n_935</text></g><g><circle id="n_1936" r="5" fill="#99ccff" cx="210.4563123852738" cy="268.8987292549978"><title>n_1936</title></circle><text x="0" y="-7" id="n_1936" class="label_pEZjGtQx" transform="translate(210.4563123852738,268.8987292549978)" cx="210.4563123852738" cy="268.8987292549978">n_1936</text></g></g></g></svg>