<svg xmlns="http://www.w3.org/2000/svg" width="600" height="600" id="ZmAhGrRy">        
    <text x="20" y="20" font-family="sans-serif" font-size="14px" fill="#666" style="cursor: pointer" id="ZmAhGrRy_svg_txt">[save svg]</text>
<defs><marker id="end" viewBox="0 -5 20 20" refX="34" refY="0" markerWidth="15" markerHeight="15" orient="auto"><path d="M0,-5 L20,0 L0,5 z" fill="#999" stroke="none"/></marker></defs><g class="everything"><g class="links_ZmAhGrRy"><line stroke-width="0.3333333333333333" stroke="#999999" x1="293.5376536771419" y1="197.92706297002022" x2="258.52770476672697" y2="263.53427366640017"/><line stroke-width="0.3333333333333333" stroke="#999999" x1="293.5376536771419" y1="197.92706297002022" x2="238.9413377626189" y2="221.50206292870482"/><line stroke-width="0.3333333333333333" stroke="#999999" x1="293.5376536771419" y1="197.92706297002022" x2="282.2968787887424" y2="364.6104147822728"/><line stroke-width="0.4444444444444444" stroke="#999999" x1="293.5376536771419" y1="197.92706297002022" x2="306.4397655800807" y2="307.301973605562"/><line stroke-width="0.3333333333333333" stroke="#999999" x1="293.5376536771419" y1="197.92706297002022" x2="272.5598584798183" y2="235.39680963086826"/><line stroke-width="0.1111111111111111" stroke="#999999" x1="293.5376536771419" y1="197.92706297002022" x2="405.5471291339329" y2="225.57370187930752"/><line stroke-width="0.4444444444444444" stroke="#999999" x1="293.5376536771419" y1="197.92706297002022" x2="367.89062587913486" y2="293.8846457040369"/><line stroke-width="0.1111111111111111" stroke="#999999" x1="293.5376536771419" y1="197.92706297002022" x2="375.25992721574084" y2="253.23174102285566"/><line stroke-width="0.3333333333333333" stroke="#999999" x1="293.5376536771419" y1="197.92706297002022" x2="312.07054842414425" y2="210.33328355161245"/><line stroke-width="0.1111111111111111" stroke="#999999" x1="293.5376536771419" y1="197.92706297002022" x2="369.1699932708668" y2="352.24311938661066"/><line stroke-width="0.3333333333333333" stroke="#999999" x1="293.5376536771419" y1="197.92706297002022" x2="282.09151913513824" y2="296.77795404030246"/><line stroke-width="0.3333333333333333" stroke="#999999" x1="293.5376536771419" y1="197.92706297002022" x2="309.47680883744033" y2="250.1655101435088"/><line stroke-width="0.1111111111111111" stroke="#999999" x1="293.5376536771419" y1="197.92706297002022" x2="349.3566434352342" y2="276.50382454102294"/><line stroke-width="0.3333333333333333" stroke="#999999" x1="293.5376536771419" y1="197.92706297002022" x2="225.8537967877981" y2="259.39771486342534"/><line stroke-width="0.4444444444444444" stroke="#999999" x1="293.5376536771419" y1="197.92706297002022" x2="319.9298135882228" y2="323.9938577281288"/><line stroke-width="0.5" stroke="#999999" x1="258.52770476672697" y1="263.53427366640017" x2="293.5376536771419" y2="197.92706297002022"/><line stroke-width="0.5" stroke="#999999" x1="258.52770476672697" y1="263.53427366640017" x2="238.9413377626189" y2="221.50206292870482"/><line stroke-width="0.5" stroke="#999999" x1="258.52770476672697" y1="263.53427366640017" x2="282.2968787887424" y2="364.6104147822728"/><line stroke-width="0.5" stroke="#999999" x1="258.52770476672697" y1="263.53427366640017" x2="306.4397655800807" y2="307.301973605562"/><line stroke-width="0.5" stroke="#999999" x1="258.52770476672697" y1="263.53427366640017" x2="272.5598584798183" y2="235.39680963086826"/><line stroke-width="0.5" stroke="#999999" x1="258.52770476672697" y1="263.53427366640017" x2="367.89062587913486" y2="293.8846457040369"/><line stroke-width="0.5" stroke="#999999" x1="258.52770476672697" y1="263.53427366640017" x2="312.07054842414425" y2="210.33328355161245"/><line stroke-width="0.5" stroke="#999999" x1="258.52770476672697" y1="263.53427366640017" x2="282.09151913513824" y2="296.77795404030246"/><line stroke-width="0.5" stroke="#999999" x1="258.52770476672697" y1="263.53427366640017" x2="309.47680883744033" y2="250.1655101435088"/><line stroke-width="0.5" stroke="#999999" x1="258.52770476672697" y1="263.53427366640017" x2="225.8537967877981" y2="259.39771486342534"/><line stroke-width="0.5" stroke="#999999" x1="258.52770476672697" y1="263.53427366640017" x2="319.9298135882228" y2="323.9938577281288"/><line stroke-width="0.16666666666666666" stroke="#999999" x1="238.9413377626189" y1="221.50206292870482" x2="293.5376536771419" y2="197.92706297002022"/><line stroke-width="0.16666666666666666" stroke="#999999" x1="238.9413377626189" y1="221.50206292870482" x2="258.52770476672697" y2="263.53427366640017"/><line stroke-width="0.16666666666666666" stroke="#999999" x1="238.9413377626189" y1="221.50206292870482" x2="282.2968787887424" y2="364.6104147822728"/><line stroke-width="0.16666666666666666" stroke="#999999" x1="238.9413377626189" y1="221.50206292870482" x2="306.4397655800807" y2="307.301973605562"/><line stroke-width="0.16666666666666666" stroke="#999999" x1="238.9413377626189" y1="221.50206292870482" x2="229.0677686810316" y2="296.9590060439179"/><line stroke-width="0.16666666666666666" stroke="#999999" x1="238.9413377626189" y1="221.50206292870482" x2="272.5598584798183" y2="235.39680963086826"/><line stroke-width="0.16666666666666666" stroke="#999999" x1="238.9413377626189" y1="221.50206292870482" x2="206.85758983055246" y2="341.87862122074154"/><line stroke-width="0.16666666666666666" stroke="#999999" x1="238.9413377626189" y1="221.50206292870482" x2="367.89062587913486" y2="293.8846457040369"/><line stroke-width="0.16666666666666666" stroke="#999999" x1="238.9413377626189" y1="221.50206292870482" x2="312.07054842414425" y2="210.33328355161245"/><line stroke-width="0.16666666666666666" stroke="#999999" x1="238.9413377626189" y1="221.50206292870482" x2="282.09151913513824" y2="296.77795404030246"/><line stroke-width="0.16666666666666666" stroke="#999999" x1="238.9413377626189" y1="221.50206292870482" x2="309.47680883744033" y2="250.1655101435088"/><line stroke-width="0.16666666666666666" stroke="#999999" x1="238.9413377626189" y1="221.50206292870482" x2="225.8537967877981" y2="259.39771486342534"/><line stroke-width="0.16666666666666666" stroke="#999999" x1="238.9413377626189" y1="221.50206292870482" x2="319.9298135882228" y2="323.9938577281288"/><line stroke-width="0.07317073170731707" stroke="#999999" x1="282.2968787887424" y1="364.6104147822728" x2="293.5376536771419" y2="197.92706297002022"/><line stroke-width="0.07317073170731707" stroke="#999999" x1="282.2968787887424" y1="364.6104147822728" x2="258.52770476672697" y2="263.53427366640017"/><line stroke-width="0.07317073170731707" stroke="#999999" x1="282.2968787887424" y1="364.6104147822728" x2="238.9413377626189" y2="221.50206292870482"/><line stroke-width="0.39024390243902435" stroke="#999999" x1="282.2968787887424" y1="364.6104147822728" x2="306.4397655800807" y2="307.301973605562"/><line stroke-width="0.0975609756097561" stroke="#999999" x1="282.2968787887424" y1="364.6104147822728" x2="268.2022100707287" y2="343.39807308739586"/><line stroke-width="0.07317073170731707" stroke="#999999" x1="282.2968787887424" y1="364.6104147822728" x2="272.5598584798183" y2="235.39680963086826"/><line stroke-width="0.12195121951219512" stroke="#999999" x1="282.2968787887424" y1="364.6104147822728" x2="206.85758983055246" y2="341.87862122074154"/><line stroke-width="0.1951219512195122" stroke="#999999" x1="282.2968787887424" y1="364.6104147822728" x2="367.89062587913486" y2="293.8846457040369"/><line stroke-width="0.07317073170731707" stroke="#999999" x1="282.2968787887424" y1="364.6104147822728" x2="312.07054842414425" y2="210.33328355161245"/><line stroke-width="0.0975609756097561" stroke="#999999" x1="282.2968787887424" y1="364.6104147822728" x2="406.79942745979776" y2="331.0492067567402"/><line stroke-width="0.2682926829268293" stroke="#999999" x1="282.2968787887424" y1="364.6104147822728" x2="369.1699932708668" y2="352.24311938661066"/><line stroke-width="0.12195121951219512" stroke="#999999" x1="282.2968787887424" y1="364.6104147822728" x2="332.7342073804609" y2="392.11602055740354"/><line stroke-width="0.14634146341463414" stroke="#999999" x1="282.2968787887424" y1="364.6104147822728" x2="282.09151913513824" y2="296.77795404030246"/><line stroke-width="0.07317073170731707" stroke="#999999" x1="282.2968787887424" y1="364.6104147822728" x2="309.47680883744033" y2="250.1655101435088"/><line stroke-width="0.024390243902439025" stroke="#999999" x1="282.2968787887424" y1="364.6104147822728" x2="276.37506535575125" y2="414.63863779013445"/><line stroke-width="0.04878048780487805" stroke="#999999" x1="282.2968787887424" y1="364.6104147822728" x2="236.51647958843722" y2="376.79209664582123"/><line stroke-width="0.07317073170731707" stroke="#999999" x1="282.2968787887424" y1="364.6104147822728" x2="349.3566434352342" y2="276.50382454102294"/><line stroke-width="0.12195121951219512" stroke="#999999" x1="282.2968787887424" y1="364.6104147822728" x2="366.22816070507923" y2="388.301585479102"/><line stroke-width="0.07317073170731707" stroke="#999999" x1="282.2968787887424" y1="364.6104147822728" x2="225.8537967877981" y2="259.39771486342534"/><line stroke-width="0.2682926829268293" stroke="#999999" x1="282.2968787887424" y1="364.6104147822728" x2="319.9298135882228" y2="323.9938577281288"/><line stroke-width="0.07317073170731707" stroke="#999999" x1="282.2968787887424" y1="364.6104147822728" x2="321.8688420294539" y2="364.64573338974486"/><line stroke-width="1" stroke="#999999" x1="342.86492690753903" y1="312.4408496478341" x2="306.4397655800807" y2="307.301973605562"/><line stroke-width="0.13636363636363635" stroke="#999999" x1="306.4397655800807" y1="307.301973605562" x2="293.5376536771419" y2="197.92706297002022"/><line stroke-width="0.045454545454545456" stroke="#999999" x1="306.4397655800807" y1="307.301973605562" x2="258.52770476672697" y2="263.53427366640017"/><line stroke-width="0.045454545454545456" stroke="#999999" x1="306.4397655800807" y1="307.301973605562" x2="238.9413377626189" y2="221.50206292870482"/><line stroke-width="0.2272727272727273" stroke="#999999" x1="306.4397655800807" y1="307.301973605562" x2="282.2968787887424" y2="364.6104147822728"/><line stroke-width="0.09090909090909091" stroke="#999999" x1="306.4397655800807" y1="307.301973605562" x2="342.86492690753903" y2="312.4408496478341"/><line stroke-width="0.045454545454545456" stroke="#999999" x1="306.4397655800807" y1="307.301973605562" x2="268.2022100707287" y2="343.39807308739586"/><line stroke-width="0.045454545454545456" stroke="#999999" x1="306.4397655800807" y1="307.301973605562" x2="272.5598584798183" y2="235.39680963086826"/><line stroke-width="0.09090909090909091" stroke="#999999" x1="306.4397655800807" y1="307.301973605562" x2="405.5471291339329" y2="225.57370187930752"/><line stroke-width="0.045454545454545456" stroke="#999999" x1="306.4397655800807" y1="307.301973605562" x2="206.85758983055246" y2="341.87862122074154"/><line stroke-width="0.18181818181818182" stroke="#999999" x1="306.4397655800807" y1="307.301973605562" x2="367.89062587913486" y2="293.8846457040369"/><line stroke-width="0.18181818181818182" stroke="#999999" x1="306.4397655800807" y1="307.301973605562" x2="375.25992721574084" y2="253.23174102285566"/><line stroke-width="0.045454545454545456" stroke="#999999" x1="306.4397655800807" y1="307.301973605562" x2="312.07054842414425" y2="210.33328355161245"/><line stroke-width="0.045454545454545456" stroke="#999999" x1="306.4397655800807" y1="307.301973605562" x2="406.79942745979776" y2="331.0492067567402"/><line stroke-width="0.2272727272727273" stroke="#999999" x1="306.4397655800807" y1="307.301973605562" x2="369.1699932708668" y2="352.24311938661066"/><line stroke-width="0.045454545454545456" stroke="#999999" x1="306.4397655800807" y1="307.301973605562" x2="332.7342073804609" y2="392.11602055740354"/><line stroke-width="0.09090909090909091" stroke="#999999" x1="306.4397655800807" y1="307.301973605562" x2="282.09151913513824" y2="296.77795404030246"/><line stroke-width="0.045454545454545456" stroke="#999999" x1="306.4397655800807" y1="307.301973605562" x2="309.47680883744033" y2="250.1655101435088"/><line stroke-width="0.045454545454545456" stroke="#999999" x1="306.4397655800807" y1="307.301973605562" x2="236.51647958843722" y2="376.79209664582123"/><line stroke-width="0.13636363636363635" stroke="#999999" x1="306.4397655800807" y1="307.301973605562" x2="349.3566434352342" y2="276.50382454102294"/><line stroke-width="0.045454545454545456" stroke="#999999" x1="306.4397655800807" y1="307.301973605562" x2="366.22816070507923" y2="388.301585479102"/><line stroke-width="0.045454545454545456" stroke="#999999" x1="306.4397655800807" y1="307.301973605562" x2="225.8537967877981" y2="259.39771486342534"/><line stroke-width="0.2272727272727273" stroke="#999999" x1="306.4397655800807" y1="307.301973605562" x2="319.9298135882228" y2="323.9938577281288"/><line stroke-width="0.045454545454545456" stroke="#999999" x1="306.4397655800807" y1="307.301973605562" x2="321.8688420294539" y2="364.64573338974486"/><line stroke-width="0.2857142857142857" stroke="#999999" x1="268.2022100707287" y1="343.39807308739586" x2="282.2968787887424" y2="364.6104147822728"/><line stroke-width="0.14285714285714285" stroke="#999999" x1="268.2022100707287" y1="343.39807308739586" x2="306.4397655800807" y2="307.301973605562"/><line stroke-width="0.14285714285714285" stroke="#999999" x1="268.2022100707287" y1="343.39807308739586" x2="406.79942745979776" y2="331.0492067567402"/><line stroke-width="0.14285714285714285" stroke="#999999" x1="268.2022100707287" y1="343.39807308739586" x2="369.1699932708668" y2="352.24311938661066"/><line stroke-width="0.14285714285714285" stroke="#999999" x1="268.2022100707287" y1="343.39807308739586" x2="282.09151913513824" y2="296.77795404030246"/><line stroke-width="0.14285714285714285" stroke="#999999" x1="268.2022100707287" y1="343.39807308739586" x2="319.9298135882228" y2="323.9938577281288"/><line stroke-width="0.14285714285714285" stroke="#999999" x1="268.2022100707287" y1="343.39807308739586" x2="321.8688420294539" y2="364.64573338974486"/><line stroke-width="0.14285714285714285" stroke="#999999" x1="229.0677686810316" y1="296.9590060439179" x2="238.9413377626189" y2="221.50206292870482"/><line stroke-width="0.14285714285714285" stroke="#999999" x1="229.0677686810316" y1="296.9590060439179" x2="206.85758983055246" y2="341.87862122074154"/><line stroke-width="0.14285714285714285" stroke="#999999" x1="229.0677686810316" y1="296.9590060439179" x2="319.9298135882228" y2="323.9938577281288"/><line stroke-width="1" stroke="#999999" x1="272.5598584798183" y1="235.39680963086826" x2="293.5376536771419" y2="197.92706297002022"/><line stroke-width="1" stroke="#999999" x1="272.5598584798183" y1="235.39680963086826" x2="258.52770476672697" y2="263.53427366640017"/><line stroke-width="1" stroke="#999999" x1="272.5598584798183" y1="235.39680963086826" x2="238.9413377626189" y2="221.50206292870482"/><line stroke-width="1" stroke="#999999" x1="272.5598584798183" y1="235.39680963086826" x2="282.2968787887424" y2="364.6104147822728"/><line stroke-width="1" stroke="#999999" x1="272.5598584798183" y1="235.39680963086826" x2="306.4397655800807" y2="307.301973605562"/><line stroke-width="1" stroke="#999999" x1="272.5598584798183" y1="235.39680963086826" x2="367.89062587913486" y2="293.8846457040369"/><line stroke-width="1" stroke="#999999" x1="272.5598584798183" y1="235.39680963086826" x2="312.07054842414425" y2="210.33328355161245"/><line stroke-width="1" stroke="#999999" x1="272.5598584798183" y1="235.39680963086826" x2="282.09151913513824" y2="296.77795404030246"/><line stroke-width="1" stroke="#999999" x1="272.5598584798183" y1="235.39680963086826" x2="309.47680883744033" y2="250.1655101435088"/><line stroke-width="1" stroke="#999999" x1="272.5598584798183" y1="235.39680963086826" x2="225.8537967877981" y2="259.39771486342534"/><line stroke-width="1" stroke="#999999" x1="272.5598584798183" y1="235.39680963086826" x2="319.9298135882228" y2="323.9938577281288"/><line stroke-width="0.5" stroke="#999999" x1="180.8192447364739" y1="255.96390305993413" x2="225.8537967877981" y2="259.39771486342534"/><line stroke-width="0.030303030303030304" stroke="#999999" x1="405.5471291339329" y1="225.57370187930752" x2="293.5376536771419" y2="197.92706297002022"/><line stroke-width="0.030303030303030304" stroke="#999999" x1="405.5471291339329" y1="225.57370187930752" x2="306.4397655800807" y2="307.301973605562"/><line stroke-width="0.030303030303030304" stroke="#999999" x1="405.5471291339329" y1="225.57370187930752" x2="367.89062587913486" y2="293.8846457040369"/><line stroke-width="0.030303030303030304" stroke="#999999" x1="405.5471291339329" y1="225.57370187930752" x2="375.25992721574084" y2="253.23174102285566"/><line stroke-width="0.06060606060606061" stroke="#999999" x1="405.5471291339329" y1="225.57370187930752" x2="406.79942745979776" y2="331.0492067567402"/><line stroke-width="0.030303030303030304" stroke="#999999" x1="405.5471291339329" y1="225.57370187930752" x2="369.1699932708668" y2="352.24311938661066"/><line stroke-width="0.030303030303030304" stroke="#999999" x1="405.5471291339329" y1="225.57370187930752" x2="349.3566434352342" y2="276.50382454102294"/><line stroke-width="0.06060606060606061" stroke="#999999" x1="405.5471291339329" y1="225.57370187930752" x2="448.26842931654636" y2="281.0265622690426"/><line stroke-width="0.030303030303030304" stroke="#999999" x1="405.5471291339329" y1="225.57370187930752" x2="319.9298135882228" y2="323.9938577281288"/><line stroke-width="0.16666666666666666" stroke="#999999" x1="206.85758983055246" y1="341.87862122074154" x2="238.9413377626189" y2="221.50206292870482"/><line stroke-width="0.6666666666666666" stroke="#999999" x1="206.85758983055246" y1="341.87862122074154" x2="282.2968787887424" y2="364.6104147822728"/><line stroke-width="0.16666666666666666" stroke="#999999" x1="206.85758983055246" y1="341.87862122074154" x2="306.4397655800807" y2="307.301973605562"/><line stroke-width="0.16666666666666666" stroke="#999999" x1="206.85758983055246" y1="341.87862122074154" x2="229.0677686810316" y2="296.9590060439179"/><line stroke-width="0.16666666666666666" stroke="#999999" x1="206.85758983055246" y1="341.87862122074154" x2="236.51647958843722" y2="376.79209664582123"/><line stroke-width="0.375" stroke="#999999" x1="367.89062587913486" y1="293.8846457040369" x2="293.5376536771419" y2="197.92706297002022"/><line stroke-width="0.25" stroke="#999999" x1="367.89062587913486" y1="293.8846457040369" x2="258.52770476672697" y2="263.53427366640017"/><line stroke-width="0.25" stroke="#999999" x1="367.89062587913486" y1="293.8846457040369" x2="238.9413377626189" y2="221.50206292870482"/><line stroke-width="0.375" stroke="#999999" x1="367.89062587913486" y1="293.8846457040369" x2="282.2968787887424" y2="364.6104147822728"/><line stroke-width="0.5" stroke="#999999" x1="367.89062587913486" y1="293.8846457040369" x2="306.4397655800807" y2="307.301973605562"/><line stroke-width="0.25" stroke="#999999" x1="367.89062587913486" y1="293.8846457040369" x2="272.5598584798183" y2="235.39680963086826"/><line stroke-width="0.125" stroke="#999999" x1="367.89062587913486" y1="293.8846457040369" x2="405.5471291339329" y2="225.57370187930752"/><line stroke-width="0.125" stroke="#999999" x1="367.89062587913486" y1="293.8846457040369" x2="375.25992721574084" y2="253.23174102285566"/><line stroke-width="0.25" stroke="#999999" x1="367.89062587913486" y1="293.8846457040369" x2="312.07054842414425" y2="210.33328355161245"/><line stroke-width="0.125" stroke="#999999" x1="367.89062587913486" y1="293.8846457040369" x2="406.79942745979776" y2="331.0492067567402"/><line stroke-width="0.25" stroke="#999999" x1="367.89062587913486" y1="293.8846457040369" x2="369.1699932708668" y2="352.24311938661066"/><line stroke-width="0.125" stroke="#999999" x1="367.89062587913486" y1="293.8846457040369" x2="332.7342073804609" y2="392.11602055740354"/><line stroke-width="0.25" stroke="#999999" x1="367.89062587913486" y1="293.8846457040369" x2="282.09151913513824" y2="296.77795404030246"/><line stroke-width="0.25" stroke="#999999" x1="367.89062587913486" y1="293.8846457040369" x2="309.47680883744033" y2="250.1655101435088"/><line stroke-width="0.125" stroke="#999999" x1="367.89062587913486" y1="293.8846457040369" x2="408.19260313441873" y2="276.63109143296003"/><line stroke-width="0.125" stroke="#999999" x1="367.89062587913486" y1="293.8846457040369" x2="349.3566434352342" y2="276.50382454102294"/><line stroke-width="0.125" stroke="#999999" x1="367.89062587913486" y1="293.8846457040369" x2="366.22816070507923" y2="388.301585479102"/><line stroke-width="0.25" stroke="#999999" x1="367.89062587913486" y1="293.8846457040369" x2="225.8537967877981" y2="259.39771486342534"/><line stroke-width="0.5" stroke="#999999" x1="367.89062587913486" y1="293.8846457040369" x2="319.9298135882228" y2="323.9938577281288"/><line stroke-width="0.5" stroke="#999999" x1="375.25992721574084" y1="253.23174102285566" x2="293.5376536771419" y2="197.92706297002022"/><line stroke-width="1" stroke="#999999" x1="375.25992721574084" y1="253.23174102285566" x2="306.4397655800807" y2="307.301973605562"/><line stroke-width="0.5" stroke="#999999" x1="375.25992721574084" y1="253.23174102285566" x2="405.5471291339329" y2="225.57370187930752"/><line stroke-width="0.5" stroke="#999999" x1="375.25992721574084" y1="253.23174102285566" x2="367.89062587913486" y2="293.8846457040369"/><line stroke-width="0.5" stroke="#999999" x1="375.25992721574084" y1="253.23174102285566" x2="369.1699932708668" y2="352.24311938661066"/><line stroke-width="0.5" stroke="#999999" x1="375.25992721574084" y1="253.23174102285566" x2="349.3566434352342" y2="276.50382454102294"/><line stroke-width="0.5" stroke="#999999" x1="375.25992721574084" y1="253.23174102285566" x2="319.9298135882228" y2="323.9938577281288"/><line stroke-width="0.375" stroke="#999999" x1="312.07054842414425" y1="210.33328355161245" x2="293.5376536771419" y2="197.92706297002022"/><line stroke-width="0.375" stroke="#999999" x1="312.07054842414425" y1="210.33328355161245" x2="258.52770476672697" y2="263.53427366640017"/><line stroke-width="0.375" stroke="#999999" x1="312.07054842414425" y1="210.33328355161245" x2="238.9413377626189" y2="221.50206292870482"/><line stroke-width="0.375" stroke="#999999" x1="312.07054842414425" y1="210.33328355161245" x2="282.2968787887424" y2="364.6104147822728"/><line stroke-width="0.375" stroke="#999999" x1="312.07054842414425" y1="210.33328355161245" x2="306.4397655800807" y2="307.301973605562"/><line stroke-width="0.375" stroke="#999999" x1="312.07054842414425" y1="210.33328355161245" x2="272.5598584798183" y2="235.39680963086826"/><line stroke-width="0.375" stroke="#999999" x1="312.07054842414425" y1="210.33328355161245" x2="367.89062587913486" y2="293.8846457040369"/><line stroke-width="0.125" stroke="#999999" x1="312.07054842414425" y1="210.33328355161245" x2="406.79942745979776" y2="331.0492067567402"/><line stroke-width="0.375" stroke="#999999" x1="312.07054842414425" y1="210.33328355161245" x2="282.09151913513824" y2="296.77795404030246"/><line stroke-width="0.375" stroke="#999999" x1="312.07054842414425" y1="210.33328355161245" x2="309.47680883744033" y2="250.1655101435088"/><line stroke-width="0.375" stroke="#999999" x1="312.07054842414425" y1="210.33328355161245" x2="225.8537967877981" y2="259.39771486342534"/><line stroke-width="0.375" stroke="#999999" x1="312.07054842414425" y1="210.33328355161245" x2="319.9298135882228" y2="323.9938577281288"/><line stroke-width="0.03773584905660377" stroke="#999999" x1="406.79942745979776" y1="331.0492067567402" x2="282.2968787887424" y2="364.6104147822728"/><line stroke-width="0.018867924528301886" stroke="#999999" x1="406.79942745979776" y1="331.0492067567402" x2="306.4397655800807" y2="307.301973605562"/><line stroke-width="0.018867924528301886" stroke="#999999" x1="406.79942745979776" y1="331.0492067567402" x2="268.2022100707287" y2="343.39807308739586"/><line stroke-width="0.018867924528301886" stroke="#999999" x1="406.79942745979776" y1="331.0492067567402" x2="405.5471291339329" y2="225.57370187930752"/><line stroke-width="0.018867924528301886" stroke="#999999" x1="406.79942745979776" y1="331.0492067567402" x2="367.89062587913486" y2="293.8846457040369"/><line stroke-width="0.018867924528301886" stroke="#999999" x1="406.79942745979776" y1="331.0492067567402" x2="312.07054842414425" y2="210.33328355161245"/><line stroke-width="0.018867924528301886" stroke="#999999" x1="406.79942745979776" y1="331.0492067567402" x2="435.6917934910471" y2="372.282736701631"/><line stroke-width="0.03773584905660377" stroke="#999999" x1="406.79942745979776" y1="331.0492067567402" x2="369.1699932708668" y2="352.24311938661066"/><line stroke-width="0.018867924528301886" stroke="#999999" x1="406.79942745979776" y1="331.0492067567402" x2="282.09151913513824" y2="296.77795404030246"/><line stroke-width="0.018867924528301886" stroke="#999999" x1="406.79942745979776" y1="331.0492067567402" x2="455.2287199329584" y2="338.07153615328485"/><line stroke-width="0.03773584905660377" stroke="#999999" x1="406.79942745979776" y1="331.0492067567402" x2="448.26842931654636" y2="281.0265622690426"/><line stroke-width="0.03773584905660377" stroke="#999999" x1="406.79942745979776" y1="331.0492067567402" x2="319.9298135882228" y2="323.9938577281288"/><line stroke-width="0.018867924528301886" stroke="#999999" x1="406.79942745979776" y1="331.0492067567402" x2="321.8688420294539" y2="364.64573338974486"/><line stroke-width="1" stroke="#999999" x1="435.6917934910471" y1="372.282736701631" x2="406.79942745979776" y2="331.0492067567402"/><line stroke-width="0.07692307692307693" stroke="#999999" x1="369.1699932708668" y1="352.24311938661066" x2="293.5376536771419" y2="197.92706297002022"/><line stroke-width="0.3076923076923077" stroke="#999999" x1="369.1699932708668" y1="352.24311938661066" x2="282.2968787887424" y2="364.6104147822728"/><line stroke-width="0.38461538461538464" stroke="#999999" x1="369.1699932708668" y1="352.24311938661066" x2="306.4397655800807" y2="307.301973605562"/><line stroke-width="0.07692307692307693" stroke="#999999" x1="369.1699932708668" y1="352.24311938661066" x2="268.2022100707287" y2="343.39807308739586"/><line stroke-width="0.07692307692307693" stroke="#999999" x1="369.1699932708668" y1="352.24311938661066" x2="405.5471291339329" y2="225.57370187930752"/><line stroke-width="0.23076923076923078" stroke="#999999" x1="369.1699932708668" y1="352.24311938661066" x2="367.89062587913486" y2="293.8846457040369"/><line stroke-width="0.07692307692307693" stroke="#999999" x1="369.1699932708668" y1="352.24311938661066" x2="375.25992721574084" y2="253.23174102285566"/><line stroke-width="0.15384615384615385" stroke="#999999" x1="369.1699932708668" y1="352.24311938661066" x2="406.79942745979776" y2="331.0492067567402"/><line stroke-width="0.15384615384615385" stroke="#999999" x1="369.1699932708668" y1="352.24311938661066" x2="332.7342073804609" y2="392.11602055740354"/><line stroke-width="0.07692307692307693" stroke="#999999" x1="369.1699932708668" y1="352.24311938661066" x2="282.09151913513824" y2="296.77795404030246"/><line stroke-width="0.15384615384615385" stroke="#999999" x1="369.1699932708668" y1="352.24311938661066" x2="349.3566434352342" y2="276.50382454102294"/><line stroke-width="0.15384615384615385" stroke="#999999" x1="369.1699932708668" y1="352.24311938661066" x2="366.22816070507923" y2="388.301585479102"/><line stroke-width="0.3076923076923077" stroke="#999999" x1="369.1699932708668" y1="352.24311938661066" x2="319.9298135882228" y2="323.9938577281288"/><line stroke-width="0.07692307692307693" stroke="#999999" x1="369.1699932708668" y1="352.24311938661066" x2="321.8688420294539" y2="364.64573338974486"/><line stroke-width="1" stroke="#999999" x1="332.7342073804609" y1="392.11602055740354" x2="282.2968787887424" y2="364.6104147822728"/><line stroke-width="1" stroke="#999999" x1="332.7342073804609" y1="392.11602055740354" x2="306.4397655800807" y2="307.301973605562"/><line stroke-width="1" stroke="#999999" x1="332.7342073804609" y1="392.11602055740354" x2="367.89062587913486" y2="293.8846457040369"/><line stroke-width="1" stroke="#999999" x1="332.7342073804609" y1="392.11602055740354" x2="369.1699932708668" y2="352.24311938661066"/><line stroke-width="1" stroke="#999999" x1="332.7342073804609" y1="392.11602055740354" x2="366.22816070507923" y2="388.301585479102"/><line stroke-width="1" stroke="#999999" x1="332.7342073804609" y1="392.11602055740354" x2="319.9298135882228" y2="323.9938577281288"/><line stroke-width="0.5" stroke="#999999" x1="282.09151913513824" y1="296.77795404030246" x2="293.5376536771419" y2="197.92706297002022"/><line stroke-width="0.5" stroke="#999999" x1="282.09151913513824" y1="296.77795404030246" x2="258.52770476672697" y2="263.53427366640017"/><line stroke-width="0.5" stroke="#999999" x1="282.09151913513824" y1="296.77795404030246" x2="238.9413377626189" y2="221.50206292870482"/><line stroke-width="1" stroke="#999999" x1="282.09151913513824" y1="296.77795404030246" x2="282.2968787887424" y2="364.6104147822728"/><line stroke-width="1" stroke="#999999" x1="282.09151913513824" y1="296.77795404030246" x2="306.4397655800807" y2="307.301973605562"/><line stroke-width="0.5" stroke="#999999" x1="282.09151913513824" y1="296.77795404030246" x2="268.2022100707287" y2="343.39807308739586"/><line stroke-width="0.5" stroke="#999999" x1="282.09151913513824" y1="296.77795404030246" x2="272.5598584798183" y2="235.39680963086826"/><line stroke-width="0.5" stroke="#999999" x1="282.09151913513824" y1="296.77795404030246" x2="367.89062587913486" y2="293.8846457040369"/><line stroke-width="0.5" stroke="#999999" x1="282.09151913513824" y1="296.77795404030246" x2="312.07054842414425" y2="210.33328355161245"/><line stroke-width="0.5" stroke="#999999" x1="282.09151913513824" y1="296.77795404030246" x2="406.79942745979776" y2="331.0492067567402"/><line stroke-width="0.5" stroke="#999999" x1="282.09151913513824" y1="296.77795404030246" x2="369.1699932708668" y2="352.24311938661066"/><line stroke-width="0.5" stroke="#999999" x1="282.09151913513824" y1="296.77795404030246" x2="309.47680883744033" y2="250.1655101435088"/><line stroke-width="0.5" stroke="#999999" x1="282.09151913513824" y1="296.77795404030246" x2="225.8537967877981" y2="259.39771486342534"/><line stroke-width="1" stroke="#999999" x1="282.09151913513824" y1="296.77795404030246" x2="319.9298135882228" y2="323.9938577281288"/><line stroke-width="0.5" stroke="#999999" x1="282.09151913513824" y1="296.77795404030246" x2="321.8688420294539" y2="364.64573338974486"/><line stroke-width="0.3333333333333333" stroke="#999999" x1="309.47680883744033" y1="250.1655101435088" x2="293.5376536771419" y2="197.92706297002022"/><line stroke-width="0.3333333333333333" stroke="#999999" x1="309.47680883744033" y1="250.1655101435088" x2="258.52770476672697" y2="263.53427366640017"/><line stroke-width="0.3333333333333333" stroke="#999999" x1="309.47680883744033" y1="250.1655101435088" x2="238.9413377626189" y2="221.50206292870482"/><line stroke-width="0.3333333333333333" stroke="#999999" x1="309.47680883744033" y1="250.1655101435088" x2="282.2968787887424" y2="364.6104147822728"/><line stroke-width="0.3333333333333333" stroke="#999999" x1="309.47680883744033" y1="250.1655101435088" x2="306.4397655800807" y2="307.301973605562"/><line stroke-width="0.3333333333333333" stroke="#999999" x1="309.47680883744033" y1="250.1655101435088" x2="272.5598584798183" y2="235.39680963086826"/><line stroke-width="0.3333333333333333" stroke="#999999" x1="309.47680883744033" y1="250.1655101435088" x2="367.89062587913486" y2="293.8846457040369"/><line stroke-width="0.3333333333333333" stroke="#999999" x1="309.47680883744033" y1="250.1655101435088" x2="312.07054842414425" y2="210.33328355161245"/><line stroke-width="0.3333333333333333" stroke="#999999" x1="309.47680883744033" y1="250.1655101435088" x2="282.09151913513824" y2="296.77795404030246"/><line stroke-width="0.3333333333333333" stroke="#999999" x1="309.47680883744033" y1="250.1655101435088" x2="341.2012768535432" y2="210.68827587001698"/><line stroke-width="0.3333333333333333" stroke="#999999" x1="309.47680883744033" y1="250.1655101435088" x2="225.8537967877981" y2="259.39771486342534"/><line stroke-width="0.3333333333333333" stroke="#999999" x1="309.47680883744033" y1="250.1655101435088" x2="319.9298135882228" y2="323.9938577281288"/><line stroke-width="0.3333333333333333" stroke="#999999" x1="276.37506535575125" y1="414.63863779013445" x2="282.2968787887424" y2="364.6104147822728"/><line stroke-width="1" stroke="#999999" x1="455.2287199329584" y1="338.07153615328485" x2="406.79942745979776" y2="331.0492067567402"/><line stroke-width="1" stroke="#999999" x1="341.2012768535432" y1="210.68827587001698" x2="309.47680883744033" y2="250.1655101435088"/><line stroke-width="1" stroke="#999999" x1="408.19260313441873" y1="276.63109143296003" x2="367.89062587913486" y2="293.8846457040369"/><line stroke-width="1" stroke="#999999" x1="236.51647958843722" y1="376.79209664582123" x2="282.2968787887424" y2="364.6104147822728"/><line stroke-width="1" stroke="#999999" x1="236.51647958843722" y1="376.79209664582123" x2="306.4397655800807" y2="307.301973605562"/><line stroke-width="1" stroke="#999999" x1="236.51647958843722" y1="376.79209664582123" x2="206.85758983055246" y2="341.87862122074154"/><line stroke-width="0.5" stroke="#999999" x1="349.3566434352342" y1="276.50382454102294" x2="293.5376536771419" y2="197.92706297002022"/><line stroke-width="0.5" stroke="#999999" x1="349.3566434352342" y1="276.50382454102294" x2="282.2968787887424" y2="364.6104147822728"/><line stroke-width="1" stroke="#999999" x1="349.3566434352342" y1="276.50382454102294" x2="306.4397655800807" y2="307.301973605562"/><line stroke-width="0.5" stroke="#999999" x1="349.3566434352342" y1="276.50382454102294" x2="405.5471291339329" y2="225.57370187930752"/><line stroke-width="0.5" stroke="#999999" x1="349.3566434352342" y1="276.50382454102294" x2="367.89062587913486" y2="293.8846457040369"/><line stroke-width="0.5" stroke="#999999" x1="349.3566434352342" y1="276.50382454102294" x2="375.25992721574084" y2="253.23174102285566"/><line stroke-width="1" stroke="#999999" x1="349.3566434352342" y1="276.50382454102294" x2="369.1699932708668" y2="352.24311938661066"/><line stroke-width="0.5" stroke="#999999" x1="349.3566434352342" y1="276.50382454102294" x2="319.9298135882228" y2="323.9938577281288"/><line stroke-width="1" stroke="#999999" x1="366.22816070507923" y1="388.301585479102" x2="282.2968787887424" y2="364.6104147822728"/><line stroke-width="1" stroke="#999999" x1="366.22816070507923" y1="388.301585479102" x2="306.4397655800807" y2="307.301973605562"/><line stroke-width="1" stroke="#999999" x1="366.22816070507923" y1="388.301585479102" x2="367.89062587913486" y2="293.8846457040369"/><line stroke-width="1" stroke="#999999" x1="366.22816070507923" y1="388.301585479102" x2="369.1699932708668" y2="352.24311938661066"/><line stroke-width="1" stroke="#999999" x1="366.22816070507923" y1="388.301585479102" x2="332.7342073804609" y2="392.11602055740354"/><line stroke-width="1" stroke="#999999" x1="366.22816070507923" y1="388.301585479102" x2="319.9298135882228" y2="323.9938577281288"/><line stroke-width="0.3333333333333333" stroke="#999999" x1="225.8537967877981" y1="259.39771486342534" x2="293.5376536771419" y2="197.92706297002022"/><line stroke-width="0.3333333333333333" stroke="#999999" x1="225.8537967877981" y1="259.39771486342534" x2="258.52770476672697" y2="263.53427366640017"/><line stroke-width="0.3333333333333333" stroke="#999999" x1="225.8537967877981" y1="259.39771486342534" x2="238.9413377626189" y2="221.50206292870482"/><line stroke-width="0.3333333333333333" stroke="#999999" x1="225.8537967877981" y1="259.39771486342534" x2="282.2968787887424" y2="364.6104147822728"/><line stroke-width="0.3333333333333333" stroke="#999999" x1="225.8537967877981" y1="259.39771486342534" x2="306.4397655800807" y2="307.301973605562"/><line stroke-width="0.3333333333333333" stroke="#999999" x1="225.8537967877981" y1="259.39771486342534" x2="272.5598584798183" y2="235.39680963086826"/><line stroke-width="0.3333333333333333" stroke="#999999" x1="225.8537967877981" y1="259.39771486342534" x2="180.8192447364739" y2="255.96390305993413"/><line stroke-width="0.3333333333333333" stroke="#999999" x1="225.8537967877981" y1="259.39771486342534" x2="367.89062587913486" y2="293.8846457040369"/><line stroke-width="0.3333333333333333" stroke="#999999" x1="225.8537967877981" y1="259.39771486342534" x2="312.07054842414425" y2="210.33328355161245"/><line stroke-width="0.3333333333333333" stroke="#999999" x1="225.8537967877981" y1="259.39771486342534" x2="282.09151913513824" y2="296.77795404030246"/><line stroke-width="0.3333333333333333" stroke="#999999" x1="225.8537967877981" y1="259.39771486342534" x2="309.47680883744033" y2="250.1655101435088"/><line stroke-width="0.3333333333333333" stroke="#999999" x1="225.8537967877981" y1="259.39771486342534" x2="319.9298135882228" y2="323.9938577281288"/><line stroke-width="0.5" stroke="#999999" x1="448.26842931654636" y1="281.0265622690426" x2="405.5471291339329" y2="225.57370187930752"/><line stroke-width="1" stroke="#999999" x1="448.26842931654636" y1="281.0265622690426" x2="406.79942745979776" y2="331.0492067567402"/><line stroke-width="0.2222222222222222" stroke="#999999" x1="319.9298135882228" y1="323.9938577281288" x2="293.5376536771419" y2="197.92706297002022"/><line stroke-width="0.1111111111111111" stroke="#999999" x1="319.9298135882228" y1="323.9938577281288" x2="258.52770476672697" y2="263.53427366640017"/><line stroke-width="0.1111111111111111" stroke="#999999" x1="319.9298135882228" y1="323.9938577281288" x2="238.9413377626189" y2="221.50206292870482"/><line stroke-width="0.4444444444444444" stroke="#999999" x1="319.9298135882228" y1="323.9938577281288" x2="282.2968787887424" y2="364.6104147822728"/><line stroke-width="0.5555555555555556" stroke="#999999" x1="319.9298135882228" y1="323.9938577281288" x2="306.4397655800807" y2="307.301973605562"/><line stroke-width="0.1111111111111111" stroke="#999999" x1="319.9298135882228" y1="323.9938577281288" x2="268.2022100707287" y2="343.39807308739586"/><line stroke-width="0.1111111111111111" stroke="#999999" x1="319.9298135882228" y1="323.9938577281288" x2="229.0677686810316" y2="296.9590060439179"/><line stroke-width="0.1111111111111111" stroke="#999999" x1="319.9298135882228" y1="323.9938577281288" x2="272.5598584798183" y2="235.39680963086826"/><line stroke-width="0.1111111111111111" stroke="#999999" x1="319.9298135882228" y1="323.9938577281288" x2="405.5471291339329" y2="225.57370187930752"/><line stroke-width="0.4444444444444444" stroke="#999999" x1="319.9298135882228" y1="323.9938577281288" x2="367.89062587913486" y2="293.8846457040369"/><line stroke-width="0.1111111111111111" stroke="#999999" x1="319.9298135882228" y1="323.9938577281288" x2="375.25992721574084" y2="253.23174102285566"/><line stroke-width="0.1111111111111111" stroke="#999999" x1="319.9298135882228" y1="323.9938577281288" x2="312.07054842414425" y2="210.33328355161245"/><line stroke-width="0.2222222222222222" stroke="#999999" x1="319.9298135882228" y1="323.9938577281288" x2="406.79942745979776" y2="331.0492067567402"/><line stroke-width="0.4444444444444444" stroke="#999999" x1="319.9298135882228" y1="323.9938577281288" x2="369.1699932708668" y2="352.24311938661066"/><line stroke-width="0.2222222222222222" stroke="#999999" x1="319.9298135882228" y1="323.9938577281288" x2="332.7342073804609" y2="392.11602055740354"/><line stroke-width="0.2222222222222222" stroke="#999999" x1="319.9298135882228" y1="323.9938577281288" x2="282.09151913513824" y2="296.77795404030246"/><line stroke-width="0.1111111111111111" stroke="#999999" x1="319.9298135882228" y1="323.9938577281288" x2="309.47680883744033" y2="250.1655101435088"/><line stroke-width="0.1111111111111111" stroke="#999999" x1="319.9298135882228" y1="323.9938577281288" x2="349.3566434352342" y2="276.50382454102294"/><line stroke-width="0.2222222222222222" stroke="#999999" x1="319.9298135882228" y1="323.9938577281288" x2="366.22816070507923" y2="388.301585479102"/><line stroke-width="0.1111111111111111" stroke="#999999" x1="319.9298135882228" y1="323.9938577281288" x2="225.8537967877981" y2="259.39771486342534"/><line stroke-width="0.1111111111111111" stroke="#999999" x1="319.9298135882228" y1="323.9938577281288" x2="321.8688420294539" y2="364.64573338974486"/><line stroke-width="0.5" stroke="#999999" x1="321.8688420294539" y1="364.64573338974486" x2="282.2968787887424" y2="364.6104147822728"/><line stroke-width="0.5" stroke="#999999" x1="321.8688420294539" y1="364.64573338974486" x2="306.4397655800807" y2="307.301973605562"/><line stroke-width="0.5" stroke="#999999" x1="321.8688420294539" y1="364.64573338974486" x2="268.2022100707287" y2="343.39807308739586"/><line stroke-width="0.5" stroke="#999999" x1="321.8688420294539" y1="364.64573338974486" x2="406.79942745979776" y2="331.0492067567402"/><line stroke-width="0.5" stroke="#999999" x1="321.8688420294539" y1="364.64573338974486" x2="369.1699932708668" y2="352.24311938661066"/><line stroke-width="0.5" stroke="#999999" x1="321.8688420294539" y1="364.64573338974486" x2="282.09151913513824" y2="296.77795404030246"/><line stroke-width="0.5" stroke="#999999" x1="321.8688420294539" y1="364.64573338974486" x2="319.9298135882228" y2="323.9938577281288"/></g><g class="nodes_ZmAhGrRy"><g><circle id="n_1880" r="5" fill="#99ccff" cx="293.5376536771419" cy="197.92706297002022"><title>n_1880</title></circle><text x="0" y="-7" id="n_1880" class="label_ZmAhGrRy" transform="translate(293.5376536771419,197.92706297002022)" cx="293.5376536771419" cy="197.92706297002022">n_1880</text></g><g><circle id="n_858" r="5" fill="#99ccff" cx="258.52770476672697" cy="263.53427366640017"><title>n_858</title></circle><text x="0" y="-7" id="n_858" class="label_ZmAhGrRy" transform="translate(258.52770476672697,263.53427366640017)" cx="258.52770476672697" cy="263.53427366640017">n_858</text></g><g><circle id="n_1429" r="5" fill="#99ccff" cx="238.9413377626189" cy="221.50206292870482"><title>n_1429</title></circle><text x="0" y="-7" id="n_1429" class="label_ZmAhGrRy" transform="translate(238.9413377626189,221.50206292870482)" cx="238.9413377626189" cy="221.50206292870482">n_1429</text></g><g><circle id="n_927" r="5" fill="#99ccff" cx="282.2968787887424" cy="364.6104147822728"><title>n_927</title></circle><text x="0" y="-7" id="n_927" class="label_ZmAhGrRy" transform="translate(282.2968787887424,364.6104147822728)" cx="282.2968787887424" cy="364.6104147822728">n_927</text></g><g><circle id="n_1911" r="5" fill="#99ccff" cx="342.86492690753903" cy="312.4408496478341"><title>n_1911</title></circle><text x="0" y="-7" id="n_1911" class="label_ZmAhGrRy" transform="translate(342.86492690753903,312.4408496478341)" cx="342.86492690753903" cy="312.4408496478341">n_1911</text></g><g><circle id="n_136" r="5" fill="#99ccff" cx="306.4397655800807" cy="307.301973605562"><title>n_136</title></circle><text x="0" y="-7" id="n_136" class="label_ZmAhGrRy" transform="translate(306.4397655800807,307.301973605562)" cx="306.4397655800807" cy="307.301973605562">n_136</text></g><g><circle id="n_1798" r="5" fill="#99ccff" cx="268.2022100707287" cy="343.39807308739586"><title>n_1798</title></circle><text x="0" y="-7" id="n_1798" class="label_ZmAhGrRy" transform="translate(268.2022100707287,343.39807308739586)" cx="268.2022100707287" cy="343.39807308739586">n_1798</text></g><g><circle id="n_729" r="5" fill="#99ccff" cx="229.0677686810316" cy="296.9590060439179"><title>n_729</title></circle><text x="0" y="-7" id="n_729" class="label_ZmAhGrRy" transform="translate(229.0677686810316,296.9590060439179)" cx="229.0677686810316" cy="296.9590060439179">n_729</text></g><g><circle id="n_1912" r="5" fill="#99ccff" cx="272.5598584798183" cy="235.39680963086826"><title>n_1912</title></circle><text x="0" y="-7" id="n_1912" class="label_ZmAhGrRy" transform="translate(272.5598584798183,235.39680963086826)" cx="272.5598584798183" cy="235.39680963086826">n_1912</text></g><g><circle id="n_1864" r="5" fill="#99ccff" cx="180.8192447364739" cy="255.96390305993413"><title>n_1864</title></circle><text x="0" y="-7" id="n_1864" class="label_ZmAhGrRy" transform="translate(180.8192447364739,255.96390305993413)" cx="180.8192447364739" cy="255.96390305993413">n_1864</text></g><g><circle id="n_1913" r="5" fill="#99ccff" cx="405.5471291339329" cy="225.57370187930752"><title>n_1913</title></circle><text x="0" y="-7" id="n_1913" class="label_ZmAhGrRy" transform="translate(405.5471291339329,225.57370187930752)" cx="405.5471291339329" cy="225.57370187930752">n_1913</text></g><g><circle id="n_963" r="5" fill="#99ccff" cx="206.85758983055246" cy="341.87862122074154"><title>n_963</title></circle><text x="0" y="-7" id="n_963" class="label_ZmAhGrRy" transform="translate(206.85758983055246,341.87862122074154)" cx="206.85758983055246" cy="341.87862122074154">n_963</text></g><g><circle id="n_1915" r="5" fill="#99ccff" cx="35.15273813868356" cy="262.90491872334195"><title>n_1915</title></circle><text x="0" y="-7" id="n_1915" class="label_ZmAhGrRy" transform="translate(35.15273813868356,262.90491872334195)" cx="35.15273813868356" cy="262.90491872334195">n_1915</text></g><g><circle id="n_1488" r="5" fill="#99ccff" cx="367.89062587913486" cy="293.8846457040369"><title>n_1488</title></circle><text x="0" y="-7" id="n_1488" class="label_ZmAhGrRy" transform="translate(367.89062587913486,293.8846457040369)" cx="367.89062587913486" cy="293.8846457040369">n_1488</text></g><g><circle id="n_1365" r="5" fill="#99ccff" cx="375.25992721574084" cy="253.23174102285566"><title>n_1365</title></circle><text x="0" y="-7" id="n_1365" class="label_ZmAhGrRy" transform="translate(375.25992721574084,253.23174102285566)" cx="375.25992721574084" cy="253.23174102285566">n_1365</text></g><g><circle id="n_1889" r="5" fill="#99ccff" cx="312.07054842414425" cy="210.33328355161245"><title>n_1889</title></circle><text x="0" y="-7" id="n_1889" class="label_ZmAhGrRy" transform="translate(312.07054842414425,210.33328355161245)" cx="312.07054842414425" cy="210.33328355161245">n_1889</text></g><g><circle id="n_1914" r="5" fill="#99ccff" cx="406.79942745979776" cy="331.0492067567402"><title>n_1914</title></circle><text x="0" y="-7" id="n_1914" class="label_ZmAhGrRy" transform="translate(406.79942745979776,331.0492067567402)" cx="406.79942745979776" cy="331.0492067567402">n_1914</text></g><g><circle id="n_707" r="5" fill="#99ccff" cx="435.6917934910471" cy="372.282736701631"><title>n_707</title></circle><text x="0" y="-7" id="n_707" class="label_ZmAhGrRy" transform="translate(435.6917934910471,372.282736701631)" cx="435.6917934910471" cy="372.282736701631">n_707</text></g><g><circle id="n_157" r="5" fill="#99ccff" cx="369.1699932708668" cy="352.24311938661066"><title>n_157</title></circle><text x="0" y="-7" id="n_157" class="label_ZmAhGrRy" transform="translate(369.1699932708668,352.24311938661066)" cx="369.1699932708668" cy="352.24311938661066">n_157</text></g><g><circle id="n_1909" r="5" fill="#99ccff" cx="332.7342073804609" cy="392.11602055740354"><title>n_1909</title></circle><text x="0" y="-7" id="n_1909" class="label_ZmAhGrRy" transform="translate(332.7342073804609,392.11602055740354)" cx="332.7342073804609" cy="392.11602055740354">n_1909</text></g><g><circle id="n_1916" r="5" fill="#99ccff" cx="282.09151913513824" cy="296.77795404030246"><title>n_1916</title></circle><text x="0" y="-7" id="n_1916" class="label_ZmAhGrRy" transform="translate(282.09151913513824,296.77795404030246)" cx="282.09151913513824" cy="296.77795404030246">n_1916</text></g><g><circle id="n_1917" r="5" fill="#99ccff" cx="309.47680883744033" cy="250.1655101435088"><title>n_1917</title></circle><text x="0" y="-7" id="n_1917" class="label_ZmAhGrRy" transform="translate(309.47680883744033,250.1655101435088)" cx="309.47680883744033" cy="250.1655101435088">n_1917</text></g><g><circle id="n_1906" r="5" fill="#99ccff" cx="276.37506535575125" cy="414.63863779013445"><title>n_1906</title></circle><text x="0" y="-7" id="n_1906" class="label_ZmAhGrRy" transform="translate(276.37506535575125,414.63863779013445)" cx="276.37506535575125" cy="414.63863779013445">n_1906</text></g><g><circle id="n_1918" r="5" fill="#99ccff" cx="455.2287199329584" cy="338.07153615328485"><title>n_1918</title></circle><text x="0" y="-7" id="n_1918" class="label_ZmAhGrRy" transform="translate(455.2287199329584,338.07153615328485)" cx="455.2287199329584" cy="338.07153615328485">n_1918</text></g><g><circle id="n_1840" r="5" fill="#99ccff" cx="341.2012768535432" cy="210.68827587001698"><title>n_1840</title></circle><text x="0" y="-7" id="n_1840" class="label_ZmAhGrRy" transform="translate(341.2012768535432,210.68827587001698)" cx="341.2012768535432" cy="210.68827587001698">n_1840</text></g><g><circle id="n_1919" r="5" fill="#99ccff" cx="-61.555330631102294" cy="307.26107431374055"><title>n_1919</title></circle><text x="0" y="-7" id="n_1919" class="label_ZmAhGrRy" transform="translate(-61.555330631102294,307.26107431374055)" cx="-61.555330631102294" cy="307.26107431374055">n_1919</text></g><g><circle id="n_1920" r="5" fill="#99ccff" cx="408.19260313441873" cy="276.63109143296003"><title>n_1920</title></circle><text x="0" y="-7" id="n_1920" class="label_ZmAhGrRy" transform="translate(408.19260313441873,276.63109143296003)" cx="408.19260313441873" cy="276.63109143296003">n_1920</text></g><g><circle id="n_1792" r="5" fill="#99ccff" cx="236.51647958843722" cy="376.79209664582123"><title>n_1792</title></circle><text x="0" y="-7" id="n_1792" class="label_ZmAhGrRy" transform="translate(236.51647958843722,376.79209664582123)" cx="236.51647958843722" cy="376.79209664582123">n_1792</text></g><g><circle id="n_1802" r="5" fill="#99ccff" cx="349.3566434352342" cy="276.50382454102294"><title>n_1802</title></circle><text x="0" y="-7" id="n_1802" class="label_ZmAhGrRy" transform="translate(349.3566434352342,276.50382454102294)" cx="349.3566434352342" cy="276.50382454102294">n_1802</text></g><g><circle id="n_1921" r="5" fill="#99ccff" cx="366.22816070507923" cy="388.301585479102"><title>n_1921</title></circle><text x="0" y="-7" id="n_1921" class="label_ZmAhGrRy" transform="translate(366.22816070507923,388.301585479102)" cx="366.22816070507923" cy="388.301585479102">n_1921</text></g><g><circle id="n_1691" r="5" fill="#99ccff" cx="225.8537967877981" cy="259.39771486342534"><title>n_1691</title></circle><text x="0" y="-7" id="n_1691" class="label_ZmAhGrRy" transform="translate(225.8537967877981,259.39771486342534)" cx="225.8537967877981" cy="259.39771486342534">n_1691</text></g><g><circle id="n_1387" r="5" fill="#99ccff" cx="448.26842931654636" cy="281.0265622690426"><title>n_1387</title></circle><text x="0" y="-7" id="n_1387" class="label_ZmAhGrRy" transform="translate(448.26842931654636,281.0265622690426)" cx="448.26842931654636" cy="281.0265622690426">n_1387</text></g><g><circle id="n_917" r="5" fill="#99ccff" cx="319.9298135882228" cy="323.9938577281288"><title>n_917</title></circle><text x="0" y="-7" id="n_917" class="label_ZmAhGrRy" transform="translate(319.9298135882228,323.9938577281288)" cx="319.9298135882228" cy="323.9938577281288">n_917</text></g><g><circle id="n_246" r="5" fill="#99ccff" cx="321.8688420294539" cy="364.64573338974486"><title>n_246</title></circle><text x="0" y="-7" id="n_246" class="label_ZmAhGrRy" transform="translate(321.8688420294539,364.64573338974486)" cx="321.8688420294539" cy="364.64573338974486">n_246</text></g></g></g></svg>