<svg xmlns="http://www.w3.org/2000/svg" width="600" height="600" id="blszoRpS">
    <text x="20" y="20" font-family="sans-serif" font-size="14px" fill="#666" style="cursor: pointer" id="blszoRpS_svg_txt">[save svg]</text>
    <defs>
        <marker id="end" viewBox="0 -5 20 20" refX="34" refY="0" markerWidth="15" markerHeight="15" orient="auto">
            <path d="M0,-5 L20,0 L0,5 z" fill="#999" stroke="none" />
        </marker>
    </defs>
    <g class="everything" transform="translate(0,0) scale(1)">
        <g class="links_blszoRpS">
            <line stroke-width="0.4166666666666667" stroke="#999999" x1="321.1524605255431" y1="295.37737009417236" x2="288.520611041208" y2="343.4201165437492" />
            <line stroke-width="0.5" stroke="#999999" x1="314.91305602329885" y1="342.0652196764413" x2="321.1524605255431" y2="295.37737009417236" />
            <line stroke-width="1" stroke="#999999" x1="321.1524605255431" y1="295.37737009417236" x2="224.8782890673178" y2="242.54755965486237" />
            <line stroke-width="0.1" stroke="#999999" x1="321.1524605255431" y1="295.37737009417236" x2="168.07338989670853" y2="223.4238601470961" />
            <line stroke-width="0.6666666666666666" stroke="#999999" x1="321.1524605255431" y1="295.37737009417236" x2="369.603573482258" y2="214.02661926594828" />
            <line stroke-width="1" stroke="#999999" x1="298.79634456370314" y1="375.3025929621727" x2="321.1524605255431" y2="295.37737009417236" />
            <line stroke-width="0.5" stroke="#999999" x1="321.1524605255431" y1="295.37737009417236" x2="323.89075643684106" y2="256.7600136482859" />
            <line stroke-width="0.5" stroke="#999999" x1="321.1524605255431" y1="295.37737009417236" x2="411.5736849051832" y2="237.8793635164947" />
            <line stroke-width="0.4444444444444444" stroke="#999999" x1="321.1524605255431" y1="295.37737009417236" x2="343.3850961193684" y2="320.40349981050286" />
            <line stroke-width="1" stroke="#999999" x1="321.1524605255431" y1="295.37737009417236" x2="330.69541813287987" y2="379.563346142241" />
            <line stroke-width="1" stroke="#999999" x1="321.1524605255431" y1="295.37737009417236" x2="400.2291864803953" y2="437.33194798141403" />
            <line stroke-width="0.6666666666666666" stroke="#999999" x1="263.7238053359286" y1="364.49932487212885" x2="321.1524605255431" y2="295.37737009417236" />
            <line stroke-width="1" stroke="#999999" x1="321.1524605255431" y1="295.37737009417236" x2="426.88428963708714" y2="390.6241583823732" />
            <line stroke-width="1" stroke="#999999" x1="321.1524605255431" y1="295.37737009417236" x2="243.5647176629075" y2="430.4978637567986" />
            <line stroke-width="1" stroke="#999999" x1="321.1524605255431" y1="295.37737009417236" x2="309.44544769538766" y2="180.60228905489348" />
            <line stroke-width="1" stroke="#999999" x1="321.1524605255431" y1="295.37737009417236" x2="369.7601904352027" y2="262.8291054712873" />
            <line stroke-width="1" stroke="#999999" x1="321.1524605255431" y1="295.37737009417236" x2="276.9975209746385" y2="431.89046312596014" />
            <line stroke-width="1" stroke="#999999" x1="321.1524605255431" y1="295.37737009417236" x2="432.33668239003777" y2="328.7343236716851" />
            <line stroke-width="1" stroke="#999999" x1="321.1524605255431" y1="295.37737009417236" x2="364.79293384674827" y2="457.9477644670212" />
            <line stroke-width="1" stroke="#999999" x1="321.1524605255431" y1="295.37737009417236" x2="238.44650014952347" y2="152.37775970448132" />
            <line stroke-width="1" stroke="#999999" x1="321.1524605255431" y1="295.37737009417236" x2="333.5653645798859" y2="421.5753509721044" />
            <line stroke-width="1" stroke="#999999" x1="321.1524605255431" y1="295.37737009417236" x2="310.6046255498217" y2="481.6910643446101" />
            <line stroke-width="1" stroke="#999999" x1="321.1524605255431" y1="295.37737009417236" x2="318.50083191934175" y2="213.00342893424607" />
            <line stroke-width="1" stroke="#999999" x1="321.1524605255431" y1="295.37737009417236" x2="251.79488968638586" y2="186.6996335464531" />
            <line stroke-width="1" stroke="#999999" x1="321.1524605255431" y1="295.37737009417236" x2="277.32940655815224" y2="239.20042522424984" />
            <line stroke-width="1" stroke="#999999" x1="321.1524605255431" y1="295.37737009417236" x2="394.4954014856438" y2="367.27725746101237" />
            <line stroke-width="1" stroke="#999999" x1="321.1524605255431" y1="295.37737009417236" x2="310.74286459230325" y2="440.0052036650339" />
            <line stroke-width="1" stroke="#999999" x1="321.1524605255431" y1="295.37737009417236" x2="277.6017874502788" y2="147.40103470302992" />
            <line stroke-width="1" stroke="#999999" x1="321.1524605255431" y1="295.37737009417236" x2="356.0979256984891" y2="379.5562313677361" />
            <line stroke-width="0.4666666666666667" stroke="#999999" x1="314.91305602329885" y1="342.0652196764413" x2="288.520611041208" y2="343.4201165437492" />
            <line stroke-width="0.3333333333333333" stroke="#999999" x1="288.520611041208" y1="343.4201165437492" x2="182.5597412489173" y2="340.62570616464643" />
            <line stroke-width="0.36363636363636365" stroke="#999999" x1="288.520611041208" y1="343.4201165437492" x2="224.8782890673178" y2="242.54755965486237" />
            <line stroke-width="0.3137254901960784" stroke="#999999" x1="168.07338989670853" y1="223.4238601470961" x2="288.520611041208" y2="343.4201165437492" />
            <line stroke-width="0.42857142857142855" stroke="#999999" x1="288.520611041208" y1="343.4201165437492" x2="369.603573482258" y2="214.02661926594828" />
            <line stroke-width="0.3333333333333333" stroke="#999999" x1="298.79634456370314" y1="375.3025929621727" x2="288.520611041208" y2="343.4201165437492" />
            <line stroke-width="0.6666666666666666" stroke="#999999" x1="288.520611041208" y1="343.4201165437492" x2="323.89075643684106" y2="256.7600136482859" />
            <line stroke-width="0.5" stroke="#999999" x1="411.5736849051832" y1="237.8793635164947" x2="288.520611041208" y2="343.4201165437492" />
            <line stroke-width="0.3333333333333333" stroke="#999999" x1="288.520611041208" y1="343.4201165437492" x2="349.7370388996234" y2="234.14428598081201" />
            <line stroke-width="0.75" stroke="#999999" x1="288.520611041208" y1="343.4201165437492" x2="266.64936167047154" y2="266.6617381244203" />
            <line stroke-width="0.42857142857142855" stroke="#999999" x1="343.3850961193684" y1="320.40349981050286" x2="288.520611041208" y2="343.4201165437492" />
            <line stroke-width="0.6666666666666666" stroke="#999999" x1="288.520611041208" y1="343.4201165437492" x2="330.69541813287987" y2="379.563346142241" />
            <line stroke-width="0.4" stroke="#999999" x1="288.520611041208" y1="343.4201165437492" x2="400.2291864803953" y2="437.33194798141403" />
            <line stroke-width="0.6666666666666666" stroke="#999999" x1="263.7238053359286" y1="364.49932487212885" x2="288.520611041208" y2="343.4201165437492" />
            <line stroke-width="1" stroke="#999999" x1="288.520611041208" y1="343.4201165437492" x2="426.88428963708714" y2="390.6241583823732" />
            <line stroke-width="0.4" stroke="#999999" x1="288.520611041208" y1="343.4201165437492" x2="243.5647176629075" y2="430.4978637567986" />
            <line stroke-width="1" stroke="#999999" x1="288.520611041208" y1="343.4201165437492" x2="165.1539856978747" y2="290.7834571566254" />
            <line stroke-width="0.25" stroke="#999999" x1="288.520611041208" y1="343.4201165437492" x2="309.44544769538766" y2="180.60228905489348" />
            <line stroke-width="1" stroke="#999999" x1="288.520611041208" y1="343.4201165437492" x2="410.01517503696203" y2="272.40851646162025" />
            <line stroke-width="0.25" stroke="#999999" x1="288.520611041208" y1="343.4201165437492" x2="246.0660805938231" y2="296.96016425556047" />
            <line stroke-width="1" stroke="#999999" x1="288.520611041208" y1="343.4201165437492" x2="369.7601904352027" y2="262.8291054712873" />
            <line stroke-width="1" stroke="#999999" x1="276.9975209746385" y1="431.89046312596014" x2="288.520611041208" y2="343.4201165437492" />
            <line stroke-width="1" stroke="#999999" x1="288.520611041208" y1="343.4201165437492" x2="432.33668239003777" y2="328.7343236716851" />
            <line stroke-width="0.25" stroke="#999999" x1="288.520611041208" y1="343.4201165437492" x2="201.10029439587154" y2="317.8113876234249" />
            <line stroke-width="1" stroke="#999999" x1="364.79293384674827" y1="457.9477644670212" x2="288.520611041208" y2="343.4201165437492" />
            <line stroke-width="0.25" stroke="#999999" x1="288.520611041208" y1="343.4201165437492" x2="238.44650014952347" y2="152.37775970448132" />
            <line stroke-width="0.25" stroke="#999999" x1="288.520611041208" y1="343.4201165437492" x2="333.5653645798859" y2="421.5753509721044" />
            <line stroke-width="0.4" stroke="#999999" x1="288.520611041208" y1="343.4201165437492" x2="310.6046255498217" y2="481.6910643446101" />
            <line stroke-width="0.5" stroke="#999999" x1="288.520611041208" y1="343.4201165437492" x2="240.1745950134384" y2="390.22862466921634" />
            <line stroke-width="1" stroke="#999999" x1="288.520611041208" y1="343.4201165437492" x2="227.93699970796249" y2="367.4333215427664" />
            <line stroke-width="0.6666666666666666" stroke="#999999" x1="288.520611041208" y1="343.4201165437492" x2="364.0476520000819" y2="307.23989797478964" />
            <line stroke-width="0.2" stroke="#999999" x1="288.520611041208" y1="343.4201165437492" x2="200.9114743870175" y2="188.4535584739611" />
            <line stroke-width="0.3333333333333333" stroke="#999999" x1="288.520611041208" y1="343.4201165437492" x2="318.50083191934175" y2="213.00342893424607" />
            <line stroke-width="0.42857142857142855" stroke="#999999" x1="288.520611041208" y1="343.4201165437492" x2="251.79488968638586" y2="186.6996335464531" />
            <line stroke-width="1" stroke="#999999" x1="288.520611041208" y1="343.4201165437492" x2="179.9408328905866" y2="391.1165080562235" />
            <line stroke-width="0.6666666666666666" stroke="#999999" x1="288.520611041208" y1="343.4201165437492" x2="277.32940655815224" y2="239.20042522424984" />
            <line stroke-width="1" stroke="#999999" x1="288.520611041208" y1="343.4201165437492" x2="377.9050450649647" y2="390.3967480341342" />
            <line stroke-width="1" stroke="#999999" x1="288.520611041208" y1="343.4201165437492" x2="394.4954014856438" y2="367.27725746101237" />
            <line stroke-width="1" stroke="#999999" x1="288.520611041208" y1="343.4201165437492" x2="310.74286459230325" y2="440.0052036650339" />
            <line stroke-width="0.25" stroke="#999999" x1="288.520611041208" y1="343.4201165437492" x2="277.6017874502788" y2="147.40103470302992" />
            <line stroke-width="1" stroke="#999999" x1="288.520611041208" y1="343.4201165437492" x2="356.0979256984891" y2="379.5562313677361" />
            <line stroke-width="1" stroke="#999999" x1="314.91305602329885" y1="342.0652196764413" x2="224.8782890673178" y2="242.54755965486237" />
            <line stroke-width="0.35294117647058826" stroke="#999999" x1="314.91305602329885" y1="342.0652196764413" x2="168.07338989670853" y2="223.4238601470961" />
            <line stroke-width="0.46153846153846156" stroke="#999999" x1="314.91305602329885" y1="342.0652196764413" x2="369.603573482258" y2="214.02661926594828" />
            <line stroke-width="0.6666666666666666" stroke="#999999" x1="298.79634456370314" y1="375.3025929621727" x2="314.91305602329885" y2="342.0652196764413" />
            <line stroke-width="0.4166666666666667" stroke="#999999" x1="314.91305602329885" y1="342.0652196764413" x2="323.89075643684106" y2="256.7600136482859" />
            <line stroke-width="0.3333333333333333" stroke="#999999" x1="314.91305602329885" y1="342.0652196764413" x2="411.5736849051832" y2="237.8793635164947" />
            <line stroke-width="0.16666666666666666" stroke="#999999" x1="314.91305602329885" y1="342.0652196764413" x2="349.7370388996234" y2="234.14428598081201" />
            <line stroke-width="0.5625" stroke="#999999" x1="314.91305602329885" y1="342.0652196764413" x2="343.3850961193684" y2="320.40349981050286" />
            <line stroke-width="1" stroke="#999999" x1="314.91305602329885" y1="342.0652196764413" x2="330.69541813287987" y2="379.563346142241" />
            <line stroke-width="1" stroke="#999999" x1="314.91305602329885" y1="342.0652196764413" x2="400.2291864803953" y2="437.33194798141403" />
            <line stroke-width="0.75" stroke="#999999" x1="314.91305602329885" y1="342.0652196764413" x2="263.7238053359286" y2="364.49932487212885" />
            <line stroke-width="1" stroke="#999999" x1="314.91305602329885" y1="342.0652196764413" x2="426.88428963708714" y2="390.6241583823732" />
            <line stroke-width="1" stroke="#999999" x1="314.91305602329885" y1="342.0652196764413" x2="243.5647176629075" y2="430.4978637567986" />
            <line stroke-width="1" stroke="#999999" x1="314.91305602329885" y1="342.0652196764413" x2="264.9011442040048" y2="319.50561122234996" />
            <line stroke-width="0.16666666666666666" stroke="#999999" x1="314.91305602329885" y1="342.0652196764413" x2="246.0660805938231" y2="296.96016425556047" />
            <line stroke-width="0.3333333333333333" stroke="#999999" x1="314.91305602329885" y1="342.0652196764413" x2="369.7601904352027" y2="262.8291054712873" />
            <line stroke-width="1" stroke="#999999" x1="314.91305602329885" y1="342.0652196764413" x2="279.4809444940155" y2="204.75139222327266" />
            <line stroke-width="1" stroke="#999999" x1="314.91305602329885" y1="342.0652196764413" x2="276.9975209746385" y2="431.89046312596014" />
            <line stroke-width="0.5" stroke="#999999" x1="314.91305602329885" y1="342.0652196764413" x2="432.33668239003777" y2="328.7343236716851" />
            <line stroke-width="1" stroke="#999999" x1="314.91305602329885" y1="342.0652196764413" x2="364.79293384674827" y2="457.9477644670212" />
            <line stroke-width="1" stroke="#999999" x1="314.91305602329885" y1="342.0652196764413" x2="310.6046255498217" y2="481.6910643446101" />
            <line stroke-width="0.6666666666666666" stroke="#999999" x1="314.91305602329885" y1="342.0652196764413" x2="364.0476520000819" y2="307.23989797478964" />
            <line stroke-width="0.3333333333333333" stroke="#999999" x1="314.91305602329885" y1="342.0652196764413" x2="318.50083191934175" y2="213.00342893424607" />
            <line stroke-width="0.3333333333333333" stroke="#999999" x1="314.91305602329885" y1="342.0652196764413" x2="277.32940655815224" y2="239.20042522424984" />
            <line stroke-width="1" stroke="#999999" x1="314.91305602329885" y1="342.0652196764413" x2="394.4954014856438" y2="367.27725746101237" />
            <line stroke-width="1" stroke="#999999" x1="314.91305602329885" y1="342.0652196764413" x2="310.74286459230325" y2="440.0052036650339" />
            <line stroke-width="1" stroke="#999999" x1="314.91305602329885" y1="342.0652196764413" x2="356.0979256984891" y2="379.5562313677361" />
            <line stroke-width="1" stroke="#999999" x1="314.91305602329885" y1="342.0652196764413" x2="197.5695880675606" y2="275.5266507358738" />
            <line stroke-width="1" stroke="#999999" x1="224.8782890673178" y1="242.54755965486237" x2="182.5597412489173" y2="340.62570616464643" />
            <line stroke-width="1" stroke="#999999" x1="243.5647176629075" y1="430.4978637567986" x2="182.5597412489173" y2="340.62570616464643" />
            <line stroke-width="1" stroke="#999999" x1="182.5597412489173" y1="340.62570616464643" x2="246.0660805938231" y2="296.96016425556047" />
            <line stroke-width="1" stroke="#999999" x1="201.10029439587154" y1="317.8113876234249" x2="182.5597412489173" y2="340.62570616464643" />
            <line stroke-width="1" stroke="#999999" x1="182.5597412489173" y1="340.62570616464643" x2="364.0476520000819" y2="307.23989797478964" />
            <line stroke-width="0.32" stroke="#999999" x1="168.07338989670853" y1="223.4238601470961" x2="224.8782890673178" y2="242.54755965486237" />
            <line stroke-width="1" stroke="#999999" x1="369.603573482258" y1="214.02661926594828" x2="224.8782890673178" y2="242.54755965486237" />
            <line stroke-width="1" stroke="#999999" x1="298.79634456370314" y1="375.3025929621727" x2="224.8782890673178" y2="242.54755965486237" />
            <line stroke-width="0.5" stroke="#999999" x1="323.89075643684106" y1="256.7600136482859" x2="224.8782890673178" y2="242.54755965486237" />
            <line stroke-width="1" stroke="#999999" x1="295.82242559212807" y1="303.9094573027824" x2="224.8782890673178" y2="242.54755965486237" />
            <line stroke-width="0.8" stroke="#999999" x1="343.3850961193684" y1="320.40349981050286" x2="224.8782890673178" y2="242.54755965486237" />
            <line stroke-width="1" stroke="#999999" x1="263.7238053359286" y1="364.49932487212885" x2="224.8782890673178" y2="242.54755965486237" />
            <line stroke-width="1" stroke="#999999" x1="224.8782890673178" y1="242.54755965486237" x2="243.5647176629075" y2="430.4978637567986" />
            <line stroke-width="1" stroke="#999999" x1="224.8782890673178" y1="242.54755965486237" x2="309.44544769538766" y2="180.60228905489348" />
            <line stroke-width="0.5" stroke="#999999" x1="224.8782890673178" y1="242.54755965486237" x2="385.5115530644529" y2="128.55051016864843" />
            <line stroke-width="1" stroke="#999999" x1="224.8782890673178" y1="242.54755965486237" x2="246.0660805938231" y2="296.96016425556047" />
            <line stroke-width="1" stroke="#999999" x1="224.8782890673178" y1="242.54755965486237" x2="279.4809444940155" y2="204.75139222327266" />
            <line stroke-width="1" stroke="#999999" x1="201.10029439587154" y1="317.8113876234249" x2="224.8782890673178" y2="242.54755965486237" />
            <line stroke-width="1" stroke="#999999" x1="224.8782890673178" y1="242.54755965486237" x2="238.44650014952347" y2="152.37775970448132" />
            <line stroke-width="0.5" stroke="#999999" x1="398.70030093132993" y1="162.06083553396329" x2="224.8782890673178" y2="242.54755965486237" />
            <line stroke-width="1" stroke="#999999" x1="224.8782890673178" y1="242.54755965486237" x2="364.0476520000819" y2="307.23989797478964" />
            <line stroke-width="1" stroke="#999999" x1="224.8782890673178" y1="242.54755965486237" x2="200.9114743870175" y2="188.4535584739611" />
            <line stroke-width="0.5" stroke="#999999" x1="224.8782890673178" y1="242.54755965486237" x2="345.3962915848414" y2="117.00010233889239" />
            <line stroke-width="1" stroke="#999999" x1="318.50083191934175" y1="213.00342893424607" x2="224.8782890673178" y2="242.54755965486237" />
            <line stroke-width="1" stroke="#999999" x1="224.8782890673178" y1="242.54755965486237" x2="251.79488968638586" y2="186.6996335464531" />
            <line stroke-width="1" stroke="#999999" x1="277.32940655815224" y1="239.20042522424984" x2="224.8782890673178" y2="242.54755965486237" />
            <line stroke-width="1" stroke="#999999" x1="224.8782890673178" y1="242.54755965486237" x2="277.6017874502788" y2="147.40103470302992" />
            <line stroke-width="1" stroke="#999999" x1="224.8782890673178" y1="242.54755965486237" x2="356.0979256984891" y2="379.5562313677361" />
            <line stroke-width="0.2" stroke="#999999" x1="168.07338989670853" y1="223.4238601470961" x2="369.603573482258" y2="214.02661926594828" />
            <line stroke-width="0.36" stroke="#999999" x1="298.79634456370314" y1="375.3025929621727" x2="168.07338989670853" y2="223.4238601470961" />
            <line stroke-width="0.2682926829268293" stroke="#999999" x1="168.07338989670853" y1="223.4238601470961" x2="323.89075643684106" y2="256.7600136482859" />
            <line stroke-width="0.42857142857142855" stroke="#999999" x1="168.07338989670853" y1="223.4238601470961" x2="411.5736849051832" y2="237.8793635164947" />
            <line stroke-width="0.4" stroke="#999999" x1="168.07338989670853" y1="223.4238601470961" x2="349.7370388996234" y2="234.14428598081201" />
            <line stroke-width="0.22807017543859648" stroke="#999999" x1="168.07338989670853" y1="223.4238601470961" x2="343.3850961193684" y2="320.40349981050286" />
            <line stroke-width="0.09090909090909091" stroke="#999999" x1="168.07338989670853" y1="223.4238601470961" x2="330.69541813287987" y2="379.563346142241" />
            <line stroke-width="0.16666666666666666" stroke="#999999" x1="168.07338989670853" y1="223.4238601470961" x2="400.2291864803953" y2="437.33194798141403" />
            <line stroke-width="0.26666666666666666" stroke="#999999" x1="263.7238053359286" y1="364.49932487212885" x2="168.07338989670853" y2="223.4238601470961" />
            <line stroke-width="0.09090909090909091" stroke="#999999" x1="168.07338989670853" y1="223.4238601470961" x2="426.88428963708714" y2="390.6241583823732" />
            <line stroke-width="0.09090909090909091" stroke="#999999" x1="168.07338989670853" y1="223.4238601470961" x2="243.5647176629075" y2="430.4978637567986" />
            <line stroke-width="1" stroke="#999999" x1="168.07338989670853" y1="223.4238601470961" x2="165.1539856978747" y2="290.7834571566254" />
            <line stroke-width="0.2" stroke="#999999" x1="168.07338989670853" y1="223.4238601470961" x2="309.44544769538766" y2="180.60228905489348" />
            <line stroke-width="0.25" stroke="#999999" x1="168.07338989670853" y1="223.4238601470961" x2="246.0660805938231" y2="296.96016425556047" />
            <line stroke-width="0.3333333333333333" stroke="#999999" x1="168.07338989670853" y1="223.4238601470961" x2="369.7601904352027" y2="262.8291054712873" />
            <line stroke-width="1" stroke="#999999" x1="168.07338989670853" y1="223.4238601470961" x2="279.4809444940155" y2="204.75139222327266" />
            <line stroke-width="0.09090909090909091" stroke="#999999" x1="168.07338989670853" y1="223.4238601470961" x2="276.9975209746385" y2="431.89046312596014" />
            <line stroke-width="0.14285714285714285" stroke="#999999" x1="168.07338989670853" y1="223.4238601470961" x2="432.33668239003777" y2="328.7343236716851" />
            <line stroke-width="0.09090909090909091" stroke="#999999" x1="168.07338989670853" y1="223.4238601470961" x2="364.79293384674827" y2="457.9477644670212" />
            <line stroke-width="0.1111111111111111" stroke="#999999" x1="168.07338989670853" y1="223.4238601470961" x2="238.44650014952347" y2="152.37775970448132" />
            <line stroke-width="0.16666666666666666" stroke="#999999" x1="168.07338989670853" y1="223.4238601470961" x2="333.5653645798859" y2="421.5753509721044" />
            <line stroke-width="0.11764705882352941" stroke="#999999" x1="168.07338989670853" y1="223.4238601470961" x2="310.6046255498217" y2="481.6910643446101" />
            <line stroke-width="0.32142857142857145" stroke="#999999" x1="168.07338989670853" y1="223.4238601470961" x2="364.0476520000819" y2="307.23989797478964" />
            <line stroke-width="0.5" stroke="#999999" x1="168.07338989670853" y1="223.4238601470961" x2="200.9114743870175" y2="188.4535584739611" />
            <line stroke-width="0.4" stroke="#999999" x1="168.07338989670853" y1="223.4238601470961" x2="318.50083191934175" y2="213.00342893424607" />
            <line stroke-width="0.06666666666666667" stroke="#999999" x1="168.07338989670853" y1="223.4238601470961" x2="251.79488968638586" y2="186.6996335464531" />
            <line stroke-width="1" stroke="#999999" x1="168.07338989670853" y1="223.4238601470961" x2="248.24534263396936" y2="247.21662889663267" />
            <line stroke-width="0.5" stroke="#999999" x1="168.07338989670853" y1="223.4238601470961" x2="277.32940655815224" y2="239.20042522424984" />
            <line stroke-width="0.25" stroke="#999999" x1="168.07338989670853" y1="223.4238601470961" x2="377.9050450649647" y2="390.3967480341342" />
            <line stroke-width="0.09090909090909091" stroke="#999999" x1="168.07338989670853" y1="223.4238601470961" x2="394.4954014856438" y2="367.27725746101237" />
            <line stroke-width="0.16666666666666666" stroke="#999999" x1="168.07338989670853" y1="223.4238601470961" x2="310.74286459230325" y2="440.0052036650339" />
            <line stroke-width="0.1111111111111111" stroke="#999999" x1="168.07338989670853" y1="223.4238601470961" x2="277.6017874502788" y2="147.40103470302992" />
            <line stroke-width="0.16666666666666666" stroke="#999999" x1="168.07338989670853" y1="223.4238601470961" x2="356.0979256984891" y2="379.5562313677361" />
            <line stroke-width="1" stroke="#999999" x1="197.5695880675606" y1="275.5266507358738" x2="168.07338989670853" y2="223.4238601470961" />
            <line stroke-width="0.1111111111111111" stroke="#999999" x1="298.79634456370314" y1="375.3025929621727" x2="369.603573482258" y2="214.02661926594828" />
            <line stroke-width="0.5714285714285714" stroke="#999999" x1="369.603573482258" y1="214.02661926594828" x2="323.89075643684106" y2="256.7600136482859" />
            <line stroke-width="1" stroke="#999999" x1="411.5736849051832" y1="237.8793635164947" x2="369.603573482258" y2="214.02661926594828" />
            <line stroke-width="1" stroke="#999999" x1="369.603573482258" y1="214.02661926594828" x2="349.7370388996234" y2="234.14428598081201" />
            <line stroke-width="0.625" stroke="#999999" x1="343.3850961193684" y1="320.40349981050286" x2="369.603573482258" y2="214.02661926594828" />
            <line stroke-width="0.5" stroke="#999999" x1="369.603573482258" y1="214.02661926594828" x2="330.69541813287987" y2="379.563346142241" />
            <line stroke-width="0.5" stroke="#999999" x1="369.603573482258" y1="214.02661926594828" x2="400.2291864803953" y2="437.33194798141403" />
            <line stroke-width="0.5" stroke="#999999" x1="263.7238053359286" y1="364.49932487212885" x2="369.603573482258" y2="214.02661926594828" />
            <line stroke-width="0.5" stroke="#999999" x1="369.603573482258" y1="214.02661926594828" x2="426.88428963708714" y2="390.6241583823732" />
            <line stroke-width="0.5" stroke="#999999" x1="369.603573482258" y1="214.02661926594828" x2="243.5647176629075" y2="430.4978637567986" />
            <line stroke-width="1" stroke="#999999" x1="369.603573482258" y1="214.02661926594828" x2="309.44544769538766" y2="180.60228905489348" />
            <line stroke-width="1" stroke="#999999" x1="369.603573482258" y1="214.02661926594828" x2="410.01517503696203" y2="272.40851646162025" />
            <line stroke-width="1" stroke="#999999" x1="369.603573482258" y1="214.02661926594828" x2="246.0660805938231" y2="296.96016425556047" />
            <line stroke-width="1" stroke="#999999" x1="369.603573482258" y1="214.02661926594828" x2="279.4809444940155" y2="204.75139222327266" />
            <line stroke-width="0.5" stroke="#999999" x1="276.9975209746385" y1="431.89046312596014" x2="369.603573482258" y2="214.02661926594828" />
            <line stroke-width="0.5" stroke="#999999" x1="369.603573482258" y1="214.02661926594828" x2="432.33668239003777" y2="328.7343236716851" />
            <line stroke-width="0.5" stroke="#999999" x1="364.79293384674827" y1="457.9477644670212" x2="369.603573482258" y2="214.02661926594828" />
            <line stroke-width="1" stroke="#999999" x1="369.603573482258" y1="214.02661926594828" x2="238.44650014952347" y2="152.37775970448132" />
            <line stroke-width="0.5" stroke="#999999" x1="369.603573482258" y1="214.02661926594828" x2="310.6046255498217" y2="481.6910643446101" />
            <line stroke-width="1" stroke="#999999" x1="369.603573482258" y1="214.02661926594828" x2="251.79488968638586" y2="186.6996335464531" />
            <line stroke-width="0.5" stroke="#999999" x1="369.603573482258" y1="214.02661926594828" x2="394.4954014856438" y2="367.27725746101237" />
            <line stroke-width="0.5" stroke="#999999" x1="369.603573482258" y1="214.02661926594828" x2="310.74286459230325" y2="440.0052036650339" />
            <line stroke-width="1" stroke="#999999" x1="369.603573482258" y1="214.02661926594828" x2="277.6017874502788" y2="147.40103470302992" />
            <line stroke-width="0.5" stroke="#999999" x1="369.603573482258" y1="214.02661926594828" x2="356.0979256984891" y2="379.5562313677361" />
            <line stroke-width="0.2222222222222222" stroke="#999999" x1="298.79634456370314" y1="375.3025929621727" x2="323.89075643684106" y2="256.7600136482859" />
            <line stroke-width="0.1111111111111111" stroke="#999999" x1="298.79634456370314" y1="375.3025929621727" x2="411.5736849051832" y2="237.8793635164947" />
            <line stroke-width="0.1111111111111111" stroke="#999999" x1="298.79634456370314" y1="375.3025929621727" x2="349.7370388996234" y2="234.14428598081201" />
            <line stroke-width="0.3333333333333333" stroke="#999999" x1="298.79634456370314" y1="375.3025929621727" x2="343.3850961193684" y2="320.40349981050286" />
            <line stroke-width="1" stroke="#999999" x1="298.79634456370314" y1="375.3025929621727" x2="400.2291864803953" y2="437.33194798141403" />
            <line stroke-width="0.1111111111111111" stroke="#999999" x1="298.79634456370314" y1="375.3025929621727" x2="246.0660805938231" y2="296.96016425556047" />
            <line stroke-width="1" stroke="#999999" x1="298.79634456370314" y1="375.3025929621727" x2="333.5653645798859" y2="421.5753509721044" />
            <line stroke-width="1" stroke="#999999" x1="298.79634456370314" y1="375.3025929621727" x2="310.6046255498217" y2="481.6910643446101" />
            <line stroke-width="1" stroke="#999999" x1="298.79634456370314" y1="375.3025929621727" x2="364.0476520000819" y2="307.23989797478964" />
            <line stroke-width="1" stroke="#999999" x1="298.79634456370314" y1="375.3025929621727" x2="377.9050450649647" y2="390.3967480341342" />
            <line stroke-width="0.5" stroke="#999999" x1="411.5736849051832" y1="237.8793635164947" x2="323.89075643684106" y2="256.7600136482859" />
            <line stroke-width="0.5" stroke="#999999" x1="349.7370388996234" y1="234.14428598081201" x2="323.89075643684106" y2="256.7600136482859" />
            <line stroke-width="0.5" stroke="#999999" x1="343.3850961193684" y1="320.40349981050286" x2="323.89075643684106" y2="256.7600136482859" />
            <line stroke-width="0.5" stroke="#999999" x1="323.89075643684106" y1="256.7600136482859" x2="330.69541813287987" y2="379.563346142241" />
            <line stroke-width="0.5" stroke="#999999" x1="400.2291864803953" y1="437.33194798141403" x2="323.89075643684106" y2="256.7600136482859" />
            <line stroke-width="0.5" stroke="#999999" x1="263.7238053359286" y1="364.49932487212885" x2="323.89075643684106" y2="256.7600136482859" />
            <line stroke-width="0.5" stroke="#999999" x1="323.89075643684106" y1="256.7600136482859" x2="426.88428963708714" y2="390.6241583823732" />
            <line stroke-width="0.5" stroke="#999999" x1="323.89075643684106" y1="256.7600136482859" x2="243.5647176629075" y2="430.4978637567986" />
            <line stroke-width="0.5" stroke="#999999" x1="323.89075643684106" y1="256.7600136482859" x2="309.44544769538766" y2="180.60228905489348" />
            <line stroke-width="1" stroke="#999999" x1="323.89075643684106" y1="256.7600136482859" x2="410.01517503696203" y2="272.40851646162025" />
            <line stroke-width="0.5" stroke="#999999" x1="323.89075643684106" y1="256.7600136482859" x2="246.0660805938231" y2="296.96016425556047" />
            <line stroke-width="1" stroke="#999999" x1="369.7601904352027" y1="262.8291054712873" x2="323.89075643684106" y2="256.7600136482859" />
            <line stroke-width="0.5" stroke="#999999" x1="276.9975209746385" y1="431.89046312596014" x2="323.89075643684106" y2="256.7600136482859" />
            <line stroke-width="0.6666666666666666" stroke="#999999" x1="323.89075643684106" y1="256.7600136482859" x2="432.33668239003777" y2="328.7343236716851" />
            <line stroke-width="0.5" stroke="#999999" x1="364.79293384674827" y1="457.9477644670212" x2="323.89075643684106" y2="256.7600136482859" />
            <line stroke-width="0.3333333333333333" stroke="#999999" x1="323.89075643684106" y1="256.7600136482859" x2="238.44650014952347" y2="152.37775970448132" />
            <line stroke-width="0.5" stroke="#999999" x1="323.89075643684106" y1="256.7600136482859" x2="310.6046255498217" y2="481.6910643446101" />
            <line stroke-width="1" stroke="#999999" x1="323.89075643684106" y1="256.7600136482859" x2="364.0476520000819" y2="307.23989797478964" />
            <line stroke-width="1" stroke="#999999" x1="318.50083191934175" y1="213.00342893424607" x2="323.89075643684106" y2="256.7600136482859" />
            <line stroke-width="0.3333333333333333" stroke="#999999" x1="323.89075643684106" y1="256.7600136482859" x2="251.79488968638586" y2="186.6996335464531" />
            <line stroke-width="1" stroke="#999999" x1="277.32940655815224" y1="239.20042522424984" x2="323.89075643684106" y2="256.7600136482859" />
            <line stroke-width="0.5" stroke="#999999" x1="394.4954014856438" y1="367.27725746101237" x2="323.89075643684106" y2="256.7600136482859" />
            <line stroke-width="0.5" stroke="#999999" x1="323.89075643684106" y1="256.7600136482859" x2="310.74286459230325" y2="440.0052036650339" />
            <line stroke-width="0.3333333333333333" stroke="#999999" x1="323.89075643684106" y1="256.7600136482859" x2="277.6017874502788" y2="147.40103470302992" />
            <line stroke-width="0.5" stroke="#999999" x1="323.89075643684106" y1="256.7600136482859" x2="356.0979256984891" y2="379.5562313677361" />
            <line stroke-width="0.5" stroke="#999999" x1="295.82242559212807" y1="303.9094573027824" x2="411.5736849051832" y2="237.8793635164947" />
            <line stroke-width="1" stroke="#999999" x1="411.5736849051832" y1="237.8793635164947" x2="349.7370388996234" y2="234.14428598081201" />
            <line stroke-width="0.42857142857142855" stroke="#999999" x1="411.5736849051832" y1="237.8793635164947" x2="343.3850961193684" y2="320.40349981050286" />
            <line stroke-width="1" stroke="#999999" x1="263.7238053359286" y1="364.49932487212885" x2="411.5736849051832" y2="237.8793635164947" />
            <line stroke-width="1" stroke="#999999" x1="411.5736849051832" y1="237.8793635164947" x2="246.0660805938231" y2="296.96016425556047" />
            <line stroke-width="0.6666666666666666" stroke="#999999" x1="411.5736849051832" y1="237.8793635164947" x2="369.7601904352027" y2="262.8291054712873" />
            <line stroke-width="0.5" stroke="#999999" x1="411.5736849051832" y1="237.8793635164947" x2="432.33668239003777" y2="328.7343236716851" />
            <line stroke-width="1" stroke="#999999" x1="411.5736849051832" y1="237.8793635164947" x2="364.0476520000819" y2="307.23989797478964" />
            <line stroke-width="0.5" stroke="#999999" x1="411.5736849051832" y1="237.8793635164947" x2="318.50083191934175" y2="213.00342893424607" />
            <line stroke-width="0.5" stroke="#999999" x1="411.5736849051832" y1="237.8793635164947" x2="277.32940655815224" y2="239.20042522424984" />
            <line stroke-width="1" stroke="#999999" x1="295.82242559212807" y1="303.9094573027824" x2="263.7238053359286" y2="364.49932487212885" />
            <line stroke-width="0.5" stroke="#999999" x1="295.82242559212807" y1="303.9094573027824" x2="369.7601904352027" y2="262.8291054712873" />
            <line stroke-width="1" stroke="#999999" x1="295.82242559212807" y1="303.9094573027824" x2="356.0979256984891" y2="379.5562313677361" />
            <line stroke-width="0.5" stroke="#999999" x1="343.3850961193684" y1="320.40349981050286" x2="349.7370388996234" y2="234.14428598081201" />
            <line stroke-width="1" stroke="#999999" x1="349.7370388996234" y1="234.14428598081201" x2="246.0660805938231" y2="296.96016425556047" />
            <line stroke-width="1" stroke="#999999" x1="266.64936167047154" y1="266.6617381244203" x2="279.4809444940155" y2="204.75139222327266" />
            <line stroke-width="1" stroke="#999999" x1="343.3850961193684" y1="320.40349981050286" x2="330.69541813287987" y2="379.563346142241" />
            <line stroke-width="1" stroke="#999999" x1="343.3850961193684" y1="320.40349981050286" x2="400.2291864803953" y2="437.33194798141403" />
            <line stroke-width="0.5714285714285714" stroke="#999999" x1="263.7238053359286" y1="364.49932487212885" x2="343.3850961193684" y2="320.40349981050286" />
            <line stroke-width="1" stroke="#999999" x1="343.3850961193684" y1="320.40349981050286" x2="426.88428963708714" y2="390.6241583823732" />
            <line stroke-width="1" stroke="#999999" x1="343.3850961193684" y1="320.40349981050286" x2="243.5647176629075" y2="430.4978637567986" />
            <line stroke-width="1" stroke="#999999" x1="343.3850961193684" y1="320.40349981050286" x2="405.173799293454" y2="317.6125074807191" />
            <line stroke-width="0.5" stroke="#999999" x1="343.3850961193684" y1="320.40349981050286" x2="309.44544769538766" y2="180.60228905489348" />
            <line stroke-width="0.5" stroke="#999999" x1="343.3850961193684" y1="320.40349981050286" x2="246.0660805938231" y2="296.96016425556047" />
            <line stroke-width="0.2" stroke="#999999" x1="343.3850961193684" y1="320.40349981050286" x2="369.7601904352027" y2="262.8291054712873" />
            <line stroke-width="1" stroke="#999999" x1="343.3850961193684" y1="320.40349981050286" x2="279.4809444940155" y2="204.75139222327266" />
            <line stroke-width="1" stroke="#999999" x1="276.9975209746385" y1="431.89046312596014" x2="343.3850961193684" y2="320.40349981050286" />
            <line stroke-width="0.3333333333333333" stroke="#999999" x1="343.3850961193684" y1="320.40349981050286" x2="432.33668239003777" y2="328.7343236716851" />
            <line stroke-width="1" stroke="#999999" x1="364.79293384674827" y1="457.9477644670212" x2="343.3850961193684" y2="320.40349981050286" />
            <line stroke-width="0.5" stroke="#999999" x1="343.3850961193684" y1="320.40349981050286" x2="238.44650014952347" y2="152.37775970448132" />
            <line stroke-width="1" stroke="#999999" x1="343.3850961193684" y1="320.40349981050286" x2="310.6046255498217" y2="481.6910643446101" />
            <line stroke-width="1" stroke="#999999" x1="343.3850961193684" y1="320.40349981050286" x2="364.0476520000819" y2="307.23989797478964" />
            <line stroke-width="0.2" stroke="#999999" x1="343.3850961193684" y1="320.40349981050286" x2="318.50083191934175" y2="213.00342893424607" />
            <line stroke-width="0.6666666666666666" stroke="#999999" x1="343.3850961193684" y1="320.40349981050286" x2="251.79488968638586" y2="186.6996335464531" />
            <line stroke-width="1" stroke="#999999" x1="343.3850961193684" y1="320.40349981050286" x2="248.24534263396936" y2="247.21662889663267" />
            <line stroke-width="0.2" stroke="#999999" x1="343.3850961193684" y1="320.40349981050286" x2="277.32940655815224" y2="239.20042522424984" />
            <line stroke-width="1" stroke="#999999" x1="343.3850961193684" y1="320.40349981050286" x2="377.9050450649647" y2="390.3967480341342" />
            <line stroke-width="1" stroke="#999999" x1="343.3850961193684" y1="320.40349981050286" x2="394.4954014856438" y2="367.27725746101237" />
            <line stroke-width="1" stroke="#999999" x1="343.3850961193684" y1="320.40349981050286" x2="310.74286459230325" y2="440.0052036650339" />
            <line stroke-width="0.5" stroke="#999999" x1="343.3850961193684" y1="320.40349981050286" x2="277.6017874502788" y2="147.40103470302992" />
            <line stroke-width="1" stroke="#999999" x1="343.3850961193684" y1="320.40349981050286" x2="356.0979256984891" y2="379.5562313677361" />
            <line stroke-width="1" stroke="#999999" x1="400.2291864803953" y1="437.33194798141403" x2="330.69541813287987" y2="379.563346142241" />
            <line stroke-width="1" stroke="#999999" x1="263.7238053359286" y1="364.49932487212885" x2="330.69541813287987" y2="379.563346142241" />
            <line stroke-width="1" stroke="#999999" x1="330.69541813287987" y1="379.563346142241" x2="426.88428963708714" y2="390.6241583823732" />
            <line stroke-width="1" stroke="#999999" x1="243.5647176629075" y1="430.4978637567986" x2="330.69541813287987" y2="379.563346142241" />
            <line stroke-width="1" stroke="#999999" x1="369.7601904352027" y1="262.8291054712873" x2="330.69541813287987" y2="379.563346142241" />
            <line stroke-width="1" stroke="#999999" x1="276.9975209746385" y1="431.89046312596014" x2="330.69541813287987" y2="379.563346142241" />
            <line stroke-width="1" stroke="#999999" x1="330.69541813287987" y1="379.563346142241" x2="432.33668239003777" y2="328.7343236716851" />
            <line stroke-width="1" stroke="#999999" x1="364.79293384674827" y1="457.9477644670212" x2="330.69541813287987" y2="379.563346142241" />
            <line stroke-width="1" stroke="#999999" x1="330.69541813287987" y1="379.563346142241" x2="310.6046255498217" y2="481.6910643446101" />
            <line stroke-width="1" stroke="#999999" x1="394.4954014856438" y1="367.27725746101237" x2="330.69541813287987" y2="379.563346142241" />
            <line stroke-width="1" stroke="#999999" x1="310.74286459230325" y1="440.0052036650339" x2="330.69541813287987" y2="379.563346142241" />
            <line stroke-width="1" stroke="#999999" x1="356.0979256984891" y1="379.5562313677361" x2="330.69541813287987" y2="379.563346142241" />
            <line stroke-width="1" stroke="#999999" x1="263.7238053359286" y1="364.49932487212885" x2="400.2291864803953" y2="437.33194798141403" />
            <line stroke-width="1" stroke="#999999" x1="400.2291864803953" y1="437.33194798141403" x2="426.88428963708714" y2="390.6241583823732" />
            <line stroke-width="1" stroke="#999999" x1="400.2291864803953" y1="437.33194798141403" x2="243.5647176629075" y2="430.4978637567986" />
            <line stroke-width="1" stroke="#999999" x1="276.9975209746385" y1="431.89046312596014" x2="400.2291864803953" y2="437.33194798141403" />
            <line stroke-width="1" stroke="#999999" x1="400.2291864803953" y1="437.33194798141403" x2="432.33668239003777" y2="328.7343236716851" />
            <line stroke-width="1" stroke="#999999" x1="364.79293384674827" y1="457.9477644670212" x2="400.2291864803953" y2="437.33194798141403" />
            <line stroke-width="1" stroke="#999999" x1="400.2291864803953" y1="437.33194798141403" x2="333.5653645798859" y2="421.5753509721044" />
            <line stroke-width="1" stroke="#999999" x1="400.2291864803953" y1="437.33194798141403" x2="310.6046255498217" y2="481.6910643446101" />
            <line stroke-width="1" stroke="#999999" x1="400.2291864803953" y1="437.33194798141403" x2="364.0476520000819" y2="307.23989797478964" />
            <line stroke-width="1" stroke="#999999" x1="400.2291864803953" y1="437.33194798141403" x2="394.4954014856438" y2="367.27725746101237" />
            <line stroke-width="1" stroke="#999999" x1="400.2291864803953" y1="437.33194798141403" x2="310.74286459230325" y2="440.0052036650339" />
            <line stroke-width="1" stroke="#999999" x1="400.2291864803953" y1="437.33194798141403" x2="356.0979256984891" y2="379.5562313677361" />
            <line stroke-width="1" stroke="#999999" x1="263.7238053359286" y1="364.49932487212885" x2="426.88428963708714" y2="390.6241583823732" />
            <line stroke-width="1" stroke="#999999" x1="263.7238053359286" y1="364.49932487212885" x2="243.5647176629075" y2="430.4978637567986" />
            <line stroke-width="0.5" stroke="#999999" x1="263.7238053359286" y1="364.49932487212885" x2="369.7601904352027" y2="262.8291054712873" />
            <line stroke-width="1" stroke="#999999" x1="263.7238053359286" y1="364.49932487212885" x2="276.9975209746385" y2="431.89046312596014" />
            <line stroke-width="0.6666666666666666" stroke="#999999" x1="263.7238053359286" y1="364.49932487212885" x2="432.33668239003777" y2="328.7343236716851" />
            <line stroke-width="1" stroke="#999999" x1="263.7238053359286" y1="364.49932487212885" x2="364.79293384674827" y2="457.9477644670212" />
            <line stroke-width="1" stroke="#999999" x1="263.7238053359286" y1="364.49932487212885" x2="310.6046255498217" y2="481.6910643446101" />
            <line stroke-width="0.5" stroke="#999999" x1="263.7238053359286" y1="364.49932487212885" x2="318.50083191934175" y2="213.00342893424607" />
            <line stroke-width="0.5" stroke="#999999" x1="263.7238053359286" y1="364.49932487212885" x2="277.32940655815224" y2="239.20042522424984" />
            <line stroke-width="1" stroke="#999999" x1="263.7238053359286" y1="364.49932487212885" x2="394.4954014856438" y2="367.27725746101237" />
            <line stroke-width="1" stroke="#999999" x1="263.7238053359286" y1="364.49932487212885" x2="310.74286459230325" y2="440.0052036650339" />
            <line stroke-width="1" stroke="#999999" x1="263.7238053359286" y1="364.49932487212885" x2="356.0979256984891" y2="379.5562313677361" />
            <line stroke-width="1" stroke="#999999" x1="243.5647176629075" y1="430.4978637567986" x2="426.88428963708714" y2="390.6241583823732" />
            <line stroke-width="1" stroke="#999999" x1="276.9975209746385" y1="431.89046312596014" x2="426.88428963708714" y2="390.6241583823732" />
            <line stroke-width="1" stroke="#999999" x1="426.88428963708714" y1="390.6241583823732" x2="432.33668239003777" y2="328.7343236716851" />
            <line stroke-width="1" stroke="#999999" x1="364.79293384674827" y1="457.9477644670212" x2="426.88428963708714" y2="390.6241583823732" />
            <line stroke-width="1" stroke="#999999" x1="426.88428963708714" y1="390.6241583823732" x2="310.6046255498217" y2="481.6910643446101" />
            <line stroke-width="1" stroke="#999999" x1="394.4954014856438" y1="367.27725746101237" x2="426.88428963708714" y2="390.6241583823732" />
            <line stroke-width="1" stroke="#999999" x1="310.74286459230325" y1="440.0052036650339" x2="426.88428963708714" y2="390.6241583823732" />
            <line stroke-width="1" stroke="#999999" x1="356.0979256984891" y1="379.5562313677361" x2="426.88428963708714" y2="390.6241583823732" />
            <line stroke-width="1" stroke="#999999" x1="243.5647176629075" y1="430.4978637567986" x2="246.0660805938231" y2="296.96016425556047" />
            <line stroke-width="1" stroke="#999999" x1="276.9975209746385" y1="431.89046312596014" x2="243.5647176629075" y2="430.4978637567986" />
            <line stroke-width="1" stroke="#999999" x1="243.5647176629075" y1="430.4978637567986" x2="432.33668239003777" y2="328.7343236716851" />
            <line stroke-width="1" stroke="#999999" x1="201.10029439587154" y1="317.8113876234249" x2="243.5647176629075" y2="430.4978637567986" />
            <line stroke-width="1" stroke="#999999" x1="364.79293384674827" y1="457.9477644670212" x2="243.5647176629075" y2="430.4978637567986" />
            <line stroke-width="1" stroke="#999999" x1="243.5647176629075" y1="430.4978637567986" x2="310.6046255498217" y2="481.6910643446101" />
            <line stroke-width="1" stroke="#999999" x1="243.5647176629075" y1="430.4978637567986" x2="364.0476520000819" y2="307.23989797478964" />
            <line stroke-width="1" stroke="#999999" x1="394.4954014856438" y1="367.27725746101237" x2="243.5647176629075" y2="430.4978637567986" />
            <line stroke-width="1" stroke="#999999" x1="243.5647176629075" y1="430.4978637567986" x2="310.74286459230325" y2="440.0052036650339" />
            <line stroke-width="1" stroke="#999999" x1="243.5647176629075" y1="430.4978637567986" x2="356.0979256984891" y2="379.5562313677361" />
            <line stroke-width="1" stroke="#999999" x1="309.44544769538766" y1="180.60228905489348" x2="238.44650014952347" y2="152.37775970448132" />
            <line stroke-width="1" stroke="#999999" x1="251.79488968638586" y1="186.6996335464531" x2="309.44544769538766" y2="180.60228905489348" />
            <line stroke-width="1" stroke="#999999" x1="309.44544769538766" y1="180.60228905489348" x2="277.6017874502788" y2="147.40103470302992" />
            <line stroke-width="1" stroke="#999999" x1="410.01517503696203" y1="272.40851646162025" x2="364.0476520000819" y2="307.23989797478964" />
            <line stroke-width="1" stroke="#999999" x1="398.70030093132993" y1="162.06083553396329" x2="385.5115530644529" y2="128.55051016864843" />
            <line stroke-width="1" stroke="#999999" x1="385.5115530644529" y1="128.55051016864843" x2="345.3962915848414" y2="117.00010233889239" />
            <line stroke-width="1" stroke="#999999" x1="201.10029439587154" y1="317.8113876234249" x2="246.0660805938231" y2="296.96016425556047" />
            <line stroke-width="1" stroke="#999999" x1="246.0660805938231" y1="296.96016425556047" x2="364.0476520000819" y2="307.23989797478964" />
            <line stroke-width="1" stroke="#999999" x1="369.7601904352027" y1="262.8291054712873" x2="432.33668239003777" y2="328.7343236716851" />
            <line stroke-width="1" stroke="#999999" x1="318.50083191934175" y1="213.00342893424607" x2="369.7601904352027" y2="262.8291054712873" />
            <line stroke-width="1" stroke="#999999" x1="277.32940655815224" y1="239.20042522424984" x2="369.7601904352027" y2="262.8291054712873" />
            <line stroke-width="1" stroke="#999999" x1="294.9095230065229" y1="125.27026450122912" x2="279.4809444940155" y2="204.75139222327266" />
            <line stroke-width="1" stroke="#999999" x1="279.4809444940155" y1="204.75139222327266" x2="248.24534263396936" y2="247.21662889663267" />
            <line stroke-width="1" stroke="#999999" x1="276.9975209746385" y1="431.89046312596014" x2="432.33668239003777" y2="328.7343236716851" />
            <line stroke-width="1" stroke="#999999" x1="364.79293384674827" y1="457.9477644670212" x2="276.9975209746385" y2="431.89046312596014" />
            <line stroke-width="1" stroke="#999999" x1="276.9975209746385" y1="431.89046312596014" x2="310.6046255498217" y2="481.6910643446101" />
            <line stroke-width="1" stroke="#999999" x1="276.9975209746385" y1="431.89046312596014" x2="394.4954014856438" y2="367.27725746101237" />
            <line stroke-width="1" stroke="#999999" x1="276.9975209746385" y1="431.89046312596014" x2="310.74286459230325" y2="440.0052036650339" />
            <line stroke-width="1" stroke="#999999" x1="276.9975209746385" y1="431.89046312596014" x2="356.0979256984891" y2="379.5562313677361" />
            <line stroke-width="1" stroke="#999999" x1="364.79293384674827" y1="457.9477644670212" x2="432.33668239003777" y2="328.7343236716851" />
            <line stroke-width="1" stroke="#999999" x1="432.33668239003777" y1="328.7343236716851" x2="310.6046255498217" y2="481.6910643446101" />
            <line stroke-width="1" stroke="#999999" x1="432.33668239003777" y1="328.7343236716851" x2="364.0476520000819" y2="307.23989797478964" />
            <line stroke-width="1" stroke="#999999" x1="318.50083191934175" y1="213.00342893424607" x2="432.33668239003777" y2="328.7343236716851" />
            <line stroke-width="1" stroke="#999999" x1="277.32940655815224" y1="239.20042522424984" x2="432.33668239003777" y2="328.7343236716851" />
            <line stroke-width="1" stroke="#999999" x1="394.4954014856438" y1="367.27725746101237" x2="432.33668239003777" y2="328.7343236716851" />
            <line stroke-width="1" stroke="#999999" x1="310.74286459230325" y1="440.0052036650339" x2="432.33668239003777" y2="328.7343236716851" />
            <line stroke-width="1" stroke="#999999" x1="356.0979256984891" y1="379.5562313677361" x2="432.33668239003777" y2="328.7343236716851" />
            <line stroke-width="1" stroke="#999999" x1="201.10029439587154" y1="317.8113876234249" x2="364.0476520000819" y2="307.23989797478964" />
            <line stroke-width="1" stroke="#999999" x1="364.79293384674827" y1="457.9477644670212" x2="310.6046255498217" y2="481.6910643446101" />
            <line stroke-width="1" stroke="#999999" x1="364.79293384674827" y1="457.9477644670212" x2="377.9050450649647" y2="390.3967480341342" />
            <line stroke-width="1" stroke="#999999" x1="364.79293384674827" y1="457.9477644670212" x2="394.4954014856438" y2="367.27725746101237" />
            <line stroke-width="1" stroke="#999999" x1="364.79293384674827" y1="457.9477644670212" x2="310.74286459230325" y2="440.0052036650339" />
            <line stroke-width="1" stroke="#999999" x1="364.79293384674827" y1="457.9477644670212" x2="356.0979256984891" y2="379.5562313677361" />
            <line stroke-width="1" stroke="#999999" x1="251.79488968638586" y1="186.6996335464531" x2="238.44650014952347" y2="152.37775970448132" />
            <line stroke-width="1" stroke="#999999" x1="238.44650014952347" y1="152.37775970448132" x2="277.6017874502788" y2="147.40103470302992" />
            <line stroke-width="1" stroke="#999999" x1="333.5653645798859" y1="421.5753509721044" x2="310.6046255498217" y2="481.6910643446101" />
            <line stroke-width="1" stroke="#999999" x1="394.4954014856438" y1="367.27725746101237" x2="310.6046255498217" y2="481.6910643446101" />
            <line stroke-width="1" stroke="#999999" x1="310.74286459230325" y1="440.0052036650339" x2="310.6046255498217" y2="481.6910643446101" />
            <line stroke-width="1" stroke="#999999" x1="356.0979256984891" y1="379.5562313677361" x2="310.6046255498217" y2="481.6910643446101" />
            <line stroke-width="1" stroke="#999999" x1="398.70030093132993" y1="162.06083553396329" x2="345.3962915848414" y2="117.00010233889239" />
            <line stroke-width="1" stroke="#999999" x1="364.0476520000819" y1="307.23989797478964" x2="377.9050450649647" y2="390.3967480341342" />
            <line stroke-width="1" stroke="#999999" x1="318.50083191934175" y1="213.00342893424607" x2="200.9114743870175" y2="188.4535584739611" />
            <line stroke-width="1" stroke="#999999" x1="119.82333934982958" y1="399.92113622707234" x2="179.9408328905866" y2="391.1165080562235" />
            <line stroke-width="1" stroke="#999999" x1="318.50083191934175" y1="213.00342893424607" x2="277.32940655815224" y2="239.20042522424984" />
            <line stroke-width="1" stroke="#999999" x1="251.79488968638586" y1="186.6996335464531" x2="277.6017874502788" y2="147.40103470302992" />
            <line stroke-width="1" stroke="#999999" x1="394.4954014856438" y1="367.27725746101237" x2="310.74286459230325" y2="440.0052036650339" />
            <line stroke-width="1" stroke="#999999" x1="394.4954014856438" y1="367.27725746101237" x2="356.0979256984891" y2="379.5562313677361" />
            <line stroke-width="1" stroke="#999999" x1="310.74286459230325" y1="440.0052036650339" x2="356.0979256984891" y2="379.5562313677361" />
        </g>
        <g class="nodes_blszoRpS">
            <g>
                <circle id="n_917" r="5" fill="#99ccff" cx="321.1524605255431" cy="295.37737009417236">
                    <title>n_917</title>
                </circle>
                <text x="0" y="-7" id="n_917" class="label_blszoRpS" transform="translate(321.1524605255431,295.37737009417236)" cx="321.1524605255431" cy="295.37737009417236">n_917</text>
            </g>
            <g>
                <circle id="n_1380" r="5" fill="#99ccff" cx="288.520611041208" cy="343.4201165437492">
                    <title>n_1380</title>
                </circle>
                <text x="0" y="-7" id="n_1380" class="label_blszoRpS" transform="translate(288.520611041208,343.4201165437492)" cx="288.520611041208" cy="343.4201165437492">n_1380</text>
            </g>
            <g>
                <circle id="n_157" r="5" fill="#99ccff" cx="314.91305602329885" cy="342.0652196764413">
                    <title>n_157</title>
                </circle>
                <text x="0" y="-7" id="n_157" class="label_blszoRpS" transform="translate(314.91305602329885,342.0652196764413)" cx="314.91305602329885" cy="342.0652196764413">n_157</text>
            </g>
            <g>
                <circle id="n_1798" r="5" fill="#99ccff" cx="224.8782890673178" cy="242.54755965486237">
                    <title>n_1798</title>
                </circle>
                <text x="0" y="-7" id="n_1798" class="label_blszoRpS" transform="translate(224.8782890673178,242.54755965486237)" cx="224.8782890673178" cy="242.54755965486237">n_1798</text>
            </g>
            <g>
                <circle id="n_927" r="5" fill="#99ccff" cx="168.07338989670853" cy="223.4238601470961">
                    <title>n_927</title>
                </circle>
                <text x="0" y="-7" id="n_927" class="label_blszoRpS" transform="translate(168.07338989670853,223.4238601470961)" cx="168.07338989670853" cy="223.4238601470961">n_927</text>
            </g>
            <g>
                <circle id="n_1429" r="5" fill="#99ccff" cx="369.603573482258" cy="214.02661926594828">
                    <title>n_1429</title>
                </circle>
                <text x="0" y="-7" id="n_1429" class="label_blszoRpS" transform="translate(369.603573482258,214.02661926594828)" cx="369.603573482258" cy="214.02661926594828">n_1429</text>
            </g>
            <g>
                <circle id="n_136" r="5" fill="#99ccff" cx="298.79634456370314" cy="375.3025929621727">
                    <title>n_136</title>
                </circle>
                <text x="0" y="-7" id="n_136" class="label_blszoRpS" transform="translate(298.79634456370314,375.3025929621727)" cx="298.79634456370314" cy="375.3025929621727">n_136</text>
            </g>
            <g>
                <circle id="n_1691" r="5" fill="#99ccff" cx="323.89075643684106" cy="256.7600136482859">
                    <title>n_1691</title>
                </circle>
                <text x="0" y="-7" id="n_1691" class="label_blszoRpS" transform="translate(323.89075643684106,256.7600136482859)" cx="323.89075643684106" cy="256.7600136482859">n_1691</text>
            </g>
            <g>
                <circle id="n_1292" r="5" fill="#99ccff" cx="411.5736849051832" cy="237.8793635164947">
                    <title>n_1292</title>
                </circle>
                <text x="0" y="-7" id="n_1292" class="label_blszoRpS" transform="translate(411.5736849051832,237.8793635164947)" cx="411.5736849051832" cy="237.8793635164947">n_1292</text>
            </g>
            <g>
                <circle id="n_1365" r="5" fill="#99ccff" cx="343.3850961193684" cy="320.40349981050286">
                    <title>n_1365</title>
                </circle>
                <text x="0" y="-7" id="n_1365" class="label_blszoRpS" transform="translate(343.3850961193684,320.40349981050286)" cx="343.3850961193684" cy="320.40349981050286">n_1365</text>
            </g>
            <g>
                <circle id="n_1928" r="5" fill="#99ccff" cx="330.69541813287987" cy="379.563346142241">
                    <title>n_1928</title>
                </circle>
                <text x="0" y="-7" id="n_1928" class="label_blszoRpS" transform="translate(330.69541813287987,379.563346142241)" cx="330.69541813287987" cy="379.563346142241">n_1928</text>
            </g>
            <g>
                <circle id="n_1613" r="5" fill="#99ccff" cx="400.2291864803953" cy="437.33194798141403">
                    <title>n_1613</title>
                </circle>
                <text x="0" y="-7" id="n_1613" class="label_blszoRpS" transform="translate(400.2291864803953,437.33194798141403)" cx="400.2291864803953" cy="437.33194798141403">n_1613</text>
            </g>
            <g>
                <circle id="n_729" r="5" fill="#99ccff" cx="263.7238053359286" cy="364.49932487212885">
                    <title>n_729</title>
                </circle>
                <text x="0" y="-7" id="n_729" class="label_blszoRpS" transform="translate(263.7238053359286,364.49932487212885)" cx="263.7238053359286" cy="364.49932487212885">n_729</text>
            </g>
            <g>
                <circle id="n_1930" r="5" fill="#99ccff" cx="426.88428963708714" cy="390.6241583823732">
                    <title>n_1930</title>
                </circle>
                <text x="0" y="-7" id="n_1930" class="label_blszoRpS" transform="translate(426.88428963708714,390.6241583823732)" cx="426.88428963708714" cy="390.6241583823732">n_1930</text>
            </g>
            <g>
                <circle id="n_1840" r="5" fill="#99ccff" cx="243.5647176629075" cy="430.4978637567986">
                    <title>n_1840</title>
                </circle>
                <text x="0" y="-7" id="n_1840" class="label_blszoRpS" transform="translate(243.5647176629075,430.4978637567986)" cx="243.5647176629075" cy="430.4978637567986">n_1840</text>
            </g>
            <g>
                <circle id="n_1933" r="5" fill="#99ccff" cx="309.44544769538766" cy="180.60228905489348">
                    <title>n_1933</title>
                </circle>
                <text x="0" y="-7" id="n_1933" class="label_blszoRpS" transform="translate(309.44544769538766,180.60228905489348)" cx="309.44544769538766" cy="180.60228905489348">n_1933</text>
            </g>
            <g>
                <circle id="n_1576" r="5" fill="#99ccff" cx="369.7601904352027" cy="262.8291054712873">
                    <title>n_1576</title>
                </circle>
                <text x="0" y="-7" id="n_1576" class="label_blszoRpS" transform="translate(369.7601904352027,262.8291054712873)" cx="369.7601904352027" cy="262.8291054712873">n_1576</text>
            </g>
            <g>
                <circle id="n_1062" r="5" fill="#99ccff" cx="276.9975209746385" cy="431.89046312596014">
                    <title>n_1062</title>
                </circle>
                <text x="0" y="-7" id="n_1062" class="label_blszoRpS" transform="translate(276.9975209746385,431.89046312596014)" cx="276.9975209746385" cy="431.89046312596014">n_1062</text>
            </g>
            <g>
                <circle id="n_1940" r="5" fill="#99ccff" cx="432.33668239003777" cy="328.7343236716851">
                    <title>n_1940</title>
                </circle>
                <text x="0" y="-7" id="n_1940" class="label_blszoRpS" transform="translate(432.33668239003777,328.7343236716851)" cx="432.33668239003777" cy="328.7343236716851">n_1940</text>
            </g>
            <g>
                <circle id="n_1009" r="5" fill="#99ccff" cx="364.79293384674827" cy="457.9477644670212">
                    <title>n_1009</title>
                </circle>
                <text x="0" y="-7" id="n_1009" class="label_blszoRpS" transform="translate(364.79293384674827,457.9477644670212)" cx="364.79293384674827" cy="457.9477644670212">n_1009</text>
            </g>
            <g>
                <circle id="n_1943" r="5" fill="#99ccff" cx="238.44650014952347" cy="152.37775970448132">
                    <title>n_1943</title>
                </circle>
                <text x="0" y="-7" id="n_1943" class="label_blszoRpS" transform="translate(238.44650014952347,152.37775970448132)" cx="238.44650014952347" cy="152.37775970448132">n_1943</text>
            </g>
            <g>
                <circle id="n_1944" r="5" fill="#99ccff" cx="333.5653645798859" cy="421.5753509721044">
                    <title>n_1944</title>
                </circle>
                <text x="0" y="-7" id="n_1944" class="label_blszoRpS" transform="translate(333.5653645798859,421.5753509721044)" cx="333.5653645798859" cy="421.5753509721044">n_1944</text>
            </g>
            <g>
                <circle id="n_1945" r="5" fill="#99ccff" cx="310.6046255498217" cy="481.6910643446101">
                    <title>n_1945</title>
                </circle>
                <text x="0" y="-7" id="n_1945" class="label_blszoRpS" transform="translate(310.6046255498217,481.6910643446101)" cx="310.6046255498217" cy="481.6910643446101">n_1945</text>
            </g>
            <g>
                <circle id="n_1416" r="5" fill="#99ccff" cx="318.50083191934175" cy="213.00342893424607">
                    <title>n_1416</title>
                </circle>
                <text x="0" y="-7" id="n_1416" class="label_blszoRpS" transform="translate(318.50083191934175,213.00342893424607)" cx="318.50083191934175" cy="213.00342893424607">n_1416</text>
            </g>
            <g>
                <circle id="n_1901" r="5" fill="#99ccff" cx="251.79488968638586" cy="186.6996335464531">
                    <title>n_1901</title>
                </circle>
                <text x="0" y="-7" id="n_1901" class="label_blszoRpS" transform="translate(251.79488968638586,186.6996335464531)" cx="251.79488968638586" cy="186.6996335464531">n_1901</text>
            </g>
            <g>
                <circle id="n_1488" r="5" fill="#99ccff" cx="277.32940655815224" cy="239.20042522424984">
                    <title>n_1488</title>
                </circle>
                <text x="0" y="-7" id="n_1488" class="label_blszoRpS" transform="translate(277.32940655815224,239.20042522424984)" cx="277.32940655815224" cy="239.20042522424984">n_1488</text>
            </g>
            <g>
                <circle id="n_1630" r="5" fill="#99ccff" cx="394.4954014856438" cy="367.27725746101237">
                    <title>n_1630</title>
                </circle>
                <text x="0" y="-7" id="n_1630" class="label_blszoRpS" transform="translate(394.4954014856438,367.27725746101237)" cx="394.4954014856438" cy="367.27725746101237">n_1630</text>
            </g>
            <g>
                <circle id="n_1880" r="5" fill="#99ccff" cx="310.74286459230325" cy="440.0052036650339">
                    <title>n_1880</title>
                </circle>
                <text x="0" y="-7" id="n_1880" class="label_blszoRpS" transform="translate(310.74286459230325,440.0052036650339)" cx="310.74286459230325" cy="440.0052036650339">n_1880</text>
            </g>
            <g>
                <circle id="n_1969" r="5" fill="#99ccff" cx="277.6017874502788" cy="147.40103470302992">
                    <title>n_1969</title>
                </circle>
                <text x="0" y="-7" id="n_1969" class="label_blszoRpS" transform="translate(277.6017874502788,147.40103470302992)" cx="277.6017874502788" cy="147.40103470302992">n_1969</text>
            </g>
            <g>
                <circle id="n_1889" r="5" fill="#99ccff" cx="356.0979256984891" cy="379.5562313677361">
                    <title>n_1889</title>
                </circle>
                <text x="0" y="-7" id="n_1889" class="label_blszoRpS" transform="translate(356.0979256984891,379.5562313677361)" cx="356.0979256984891" cy="379.5562313677361">n_1889</text>
            </g>
            <g>
                <circle id="n_1925" r="5" fill="#99ccff" cx="182.5597412489173" cy="340.62570616464643">
                    <title>n_1925</title>
                </circle>
                <text x="0" y="-7" id="n_1925" class="label_blszoRpS" transform="translate(182.5597412489173,340.62570616464643)" cx="182.5597412489173" cy="340.62570616464643">n_1925</text>
            </g>
            <g>
                <circle id="n_1526" r="5" fill="#99ccff" cx="349.7370388996234" cy="234.14428598081201">
                    <title>n_1526</title>
                </circle>
                <text x="0" y="-7" id="n_1526" class="label_blszoRpS" transform="translate(349.7370388996234,234.14428598081201)" cx="349.7370388996234" cy="234.14428598081201">n_1526</text>
            </g>
            <g>
                <circle id="n_1780" r="5" fill="#99ccff" cx="266.64936167047154" cy="266.6617381244203">
                    <title>n_1780</title>
                </circle>
                <text x="0" y="-7" id="n_1780" class="label_blszoRpS" transform="translate(266.64936167047154,266.6617381244203)" cx="266.64936167047154" cy="266.6617381244203">n_1780</text>
            </g>
            <g>
                <circle id="n_1932" r="5" fill="#99ccff" cx="165.1539856978747" cy="290.7834571566254">
                    <title>n_1932</title>
                </circle>
                <text x="0" y="-7" id="n_1932" class="label_blszoRpS" transform="translate(165.1539856978747,290.7834571566254)" cx="165.1539856978747" cy="290.7834571566254">n_1932</text>
            </g>
            <g>
                <circle id="n_1934" r="5" fill="#99ccff" cx="410.01517503696203" cy="272.40851646162025">
                    <title>n_1934</title>
                </circle>
                <text x="0" y="-7" id="n_1934" class="label_blszoRpS" transform="translate(410.01517503696203,272.40851646162025)" cx="410.01517503696203" cy="272.40851646162025">n_1934</text>
            </g>
            <g>
                <circle id="n_1936" r="5" fill="#99ccff" cx="246.0660805938231" cy="296.96016425556047">
                    <title>n_1936</title>
                </circle>
                <text x="0" y="-7" id="n_1936" class="label_blszoRpS" transform="translate(246.0660805938231,296.96016425556047)" cx="246.0660805938231" cy="296.96016425556047">n_1936</text>
            </g>
            <g>
                <circle id="n_1641" r="5" fill="#99ccff" cx="201.10029439587154" cy="317.8113876234249">
                    <title>n_1641</title>
                </circle>
                <text x="0" y="-7" id="n_1641" class="label_blszoRpS" transform="translate(201.10029439587154,317.8113876234249)" cx="201.10029439587154" cy="317.8113876234249">n_1641</text>
            </g>
            <g>
                <circle id="n_1947" r="5" fill="#99ccff" cx="240.1745950134384" cy="390.22862466921634">
                    <title>n_1947</title>
                </circle>
                <text x="0" y="-7" id="n_1947" class="label_blszoRpS" transform="translate(240.1745950134384,390.22862466921634)" cx="240.1745950134384" cy="390.22862466921634">n_1947</text>
            </g>
            <g>
                <circle id="n_1948" r="5" fill="#99ccff" cx="227.93699970796249" cy="367.4333215427664">
                    <title>n_1948</title>
                </circle>
                <text x="0" y="-7" id="n_1948" class="label_blszoRpS" transform="translate(227.93699970796249,367.4333215427664)" cx="227.93699970796249" cy="367.4333215427664">n_1948</text>
            </g>
            <g>
                <circle id="n_1949" r="5" fill="#99ccff" cx="364.0476520000819" cy="307.23989797478964">
                    <title>n_1949</title>
                </circle>
                <text x="0" y="-7" id="n_1949" class="label_blszoRpS" transform="translate(364.0476520000819,307.23989797478964)" cx="364.0476520000819" cy="307.23989797478964">n_1949</text>
            </g>
            <g>
                <circle id="n_1950" r="5" fill="#99ccff" cx="200.9114743870175" cy="188.4535584739611">
                    <title>n_1950</title>
                </circle>
                <text x="0" y="-7" id="n_1950" class="label_blszoRpS" transform="translate(200.9114743870175,188.4535584739611)" cx="200.9114743870175" cy="188.4535584739611">n_1950</text>
            </g>
            <g>
                <circle id="n_1959" r="5" fill="#99ccff" cx="179.9408328905866" cy="391.1165080562235">
                    <title>n_1959</title>
                </circle>
                <text x="0" y="-7" id="n_1959" class="label_blszoRpS" transform="translate(179.9408328905866,391.1165080562235)" cx="179.9408328905866" cy="391.1165080562235">n_1959</text>
            </g>
            <g>
                <circle id="n_1962" r="5" fill="#99ccff" cx="377.9050450649647" cy="390.3967480341342">
                    <title>n_1962</title>
                </circle>
                <text x="0" y="-7" id="n_1962" class="label_blszoRpS" transform="translate(377.9050450649647,390.3967480341342)" cx="377.9050450649647" cy="390.3967480341342">n_1962</text>
            </g>
            <g>
                <circle id="n_935" r="5" fill="#99ccff" cx="264.9011442040048" cy="319.50561122234996">
                    <title>n_935</title>
                </circle>
                <text x="0" y="-7" id="n_935" class="label_blszoRpS" transform="translate(264.9011442040048,319.50561122234996)" cx="264.9011442040048" cy="319.50561122234996">n_935</text>
            </g>
            <g>
                <circle id="n_1938" r="5" fill="#99ccff" cx="279.4809444940155" cy="204.75139222327266">
                    <title>n_1938</title>
                </circle>
                <text x="0" y="-7" id="n_1938" class="label_blszoRpS" transform="translate(279.4809444940155,204.75139222327266)" cx="279.4809444940155" cy="204.75139222327266">n_1938</text>
            </g>
            <g>
                <circle id="n_844" r="5" fill="#99ccff" cx="197.5695880675606" cy="275.5266507358738">
                    <title>n_844</title>
                </circle>
                <text x="0" y="-7" id="n_844" class="label_blszoRpS" transform="translate(197.5695880675606,275.5266507358738)" cx="197.5695880675606" cy="275.5266507358738">n_844</text>
            </g>
            <g>
                <circle id="n_707" r="5" fill="#99ccff" cx="295.82242559212807" cy="303.9094573027824">
                    <title>n_707</title>
                </circle>
                <text x="0" y="-7" id="n_707" class="label_blszoRpS" transform="translate(295.82242559212807,303.9094573027824)" cx="295.82242559212807" cy="303.9094573027824">n_707</text>
            </g>
            <g>
                <circle id="n_1935" r="5" fill="#99ccff" cx="385.5115530644529" cy="128.55051016864843">
                    <title>n_1935</title>
                </circle>
                <text x="0" y="-7" id="n_1935" class="label_blszoRpS" transform="translate(385.5115530644529,128.55051016864843)" cx="385.5115530644529" cy="128.55051016864843">n_1935</text>
            </g>
            <g>
                <circle id="n_1320" r="5" fill="#99ccff" cx="398.70030093132993" cy="162.06083553396329">
                    <title>n_1320</title>
                </circle>
                <text x="0" y="-7" id="n_1320" class="label_blszoRpS" transform="translate(398.70030093132993,162.06083553396329)" cx="398.70030093132993" cy="162.06083553396329">n_1320</text>
            </g>
            <g>
                <circle id="n_1955" r="5" fill="#99ccff" cx="345.3962915848414" cy="117.00010233889239">
                    <title>n_1955</title>
                </circle>
                <text x="0" y="-7" id="n_1955" class="label_blszoRpS" transform="translate(345.3962915848414,117.00010233889239)" cx="345.3962915848414" cy="117.00010233889239">n_1955</text>
            </g>
            <g>
                <circle id="n_1958" r="5" fill="#99ccff" cx="248.24534263396936" cy="247.21662889663267">
                    <title>n_1958</title>
                </circle>
                <text x="0" y="-7" id="n_1958" class="label_blszoRpS" transform="translate(248.24534263396936,247.21662889663267)" cx="248.24534263396936" cy="247.21662889663267">n_1958</text>
            </g>
            <g>
                <circle id="n_1931" r="5" fill="#99ccff" cx="405.173799293454" cy="317.6125074807191">
                    <title>n_1931</title>
                </circle>
                <text x="0" y="-7" id="n_1931" class="label_blszoRpS" transform="translate(405.173799293454,317.6125074807191)" cx="405.173799293454" cy="317.6125074807191">n_1931</text>
            </g>
            <g>
                <circle id="n_1937" r="5" fill="#99ccff" cx="294.9095230065229" cy="125.27026450122912">
                    <title>n_1937</title>
                </circle>
                <text x="0" y="-7" id="n_1937" class="label_blszoRpS" transform="translate(294.9095230065229,125.27026450122912)" cx="294.9095230065229" cy="125.27026450122912">n_1937</text>
            </g>
            <g>
                <circle id="n_1953" r="5" fill="#99ccff" cx="119.82333934982958" cy="399.92113622707234">
                    <title>n_1953</title>
                </circle>
                <text x="0" y="-7" id="n_1953" class="label_blszoRpS" transform="translate(119.82333934982958,399.92113622707234)" cx="119.82333934982958" cy="399.92113622707234">n_1953</text>
            </g>
        </g>
    </g>
</svg>