<svg xmlns="http://www.w3.org/2000/svg" width="600" height="600" id="MjDaKIPr">
    <text x="20" y="20" font-family="sans-serif" font-size="14px" fill="#666" style="cursor: pointer" id="MjDaKIPr_svg_txt">[save svg]</text>
    <defs>
        <marker id="end" viewBox="0 -5 20 20" refX="34" refY="0" markerWidth="15" markerHeight="15" orient="auto">
            <path d="M0,-5 L20,0 L0,5 z" fill="#999" stroke="none" />
        </marker>
    </defs>
    <g class="everything">
        <g class="links_MjDaKIPr">
            <line stroke-width="1" stroke="#999999" x1="217.97653969121882" y1="250.84301029969566" x2="211.8997594778246" y2="317.77259037282505" />
            <line stroke-width="0.2" stroke="#999999" x1="211.8997594778246" y1="317.77259037282505" x2="304.9704197717536" y2="229.296607344017" />
            <line stroke-width="1" stroke="#999999" x1="211.8997594778246" y1="317.77259037282505" x2="278.3141892007159" y2="311.6555203804423" />
            <line stroke-width="1" stroke="#999999" x1="211.8997594778246" y1="317.77259037282505" x2="168.06312423884393" y2="340.24648146719665" />
            <line stroke-width="1" stroke="#999999" x1="211.8997594778246" y1="317.77259037282505" x2="228.8501236553528" y2="278.5977984038385" />
            <line stroke-width="1" stroke="#999999" x1="202.47319744257095" y1="364.82091145004483" x2="211.8997594778246" y2="317.77259037282505" />
            <line stroke-width="1" stroke="#999999" x1="211.8997594778246" y1="317.77259037282505" x2="147.83005072600008" y2="293.31639099462666" />
            <line stroke-width="1" stroke="#999999" x1="211.8997594778246" y1="317.77259037282505" x2="250.93928414597755" y2="384.8392812107798" />
            <line stroke-width="1" stroke="#999999" x1="304.9704197717536" y1="229.296607344017" x2="360.4703364690783" y2="200.93211174963878" />
            <line stroke-width="0.75" stroke="#999999" x1="360.4703364690783" y1="200.93211174963878" x2="375.6124431010171" y2="272.10132015485215" />
            <line stroke-width="1" stroke="#999999" x1="360.4703364690783" y1="200.93211174963878" x2="401.2142117087529" y2="175.43381840509298" />
            <line stroke-width="0.45454545454545453" stroke="#999999" x1="217.97653969121882" y1="250.84301029969566" x2="304.9704197717536" y2="229.296607344017" />
            <line stroke-width="0.16666666666666666" stroke="#999999" x1="217.97653969121882" y1="250.84301029969566" x2="375.6124431010171" y2="272.10132015485215" />
            <line stroke-width="0.6666666666666666" stroke="#999999" x1="261.5714549911313" y1="213.4323583299516" x2="217.97653969121882" y2="250.84301029969566" />
            <line stroke-width="0.5" stroke="#999999" x1="217.97653969121882" y1="250.84301029969566" x2="278.3141892007159" y2="311.6555203804423" />
            <line stroke-width="0.16666666666666666" stroke="#999999" x1="217.97653969121882" y1="250.84301029969566" x2="410.23234437736323" y2="291.32296730630765" />
            <line stroke-width="0.16666666666666666" stroke="#999999" x1="217.97653969121882" y1="250.84301029969566" x2="383.2726384175199" y2="332.28978427965154" />
            <line stroke-width="0.3333333333333333" stroke="#999999" x1="217.97653969121882" y1="250.84301029969566" x2="328.2045510460526" y2="271.21448737447014" />
            <line stroke-width="1" stroke="#999999" x1="217.97653969121882" y1="250.84301029969566" x2="168.06312423884393" y2="340.24648146719665" />
            <line stroke-width="1" stroke="#999999" x1="217.97653969121882" y1="250.84301029969566" x2="228.8501236553528" y2="278.5977984038385" />
            <line stroke-width="1" stroke="#999999" x1="217.97653969121882" y1="250.84301029969566" x2="202.47319744257095" y2="364.82091145004483" />
            <line stroke-width="1" stroke="#999999" x1="217.97653969121882" y1="250.84301029969566" x2="147.83005072600008" y2="293.31639099462666" />
            <line stroke-width="1" stroke="#999999" x1="217.97653969121882" y1="250.84301029969566" x2="250.93928414597755" y2="384.8392812107798" />
            <line stroke-width="0.16666666666666666" stroke="#999999" x1="217.97653969121882" y1="250.84301029969566" x2="374.3249378413831" y2="373.63457014329725" />
            <line stroke-width="1" stroke="#999999" x1="250.93928414597755" y1="384.8392812107798" x2="323.57915833070246" y2="424.60136397416824" />
            <line stroke-width="1" stroke="#999999" x1="323.57915833070246" y1="424.60136397416824" x2="374.3249378413831" y2="373.63457014329725" />
            <line stroke-width="0.25" stroke="#999999" x1="304.9704197717536" y1="229.296607344017" x2="317.7267262168883" y2="321.31578495590816" />
            <line stroke-width="1" stroke="#999999" x1="278.3141892007159" y1="311.6555203804423" x2="317.7267262168883" y2="321.31578495590816" />
            <line stroke-width="1" stroke="#999999" x1="317.7267262168883" y1="321.31578495590816" x2="290.35387552191884" y2="353.5545119151562" />
            <line stroke-width="0.4" stroke="#999999" x1="304.9704197717536" y1="229.296607344017" x2="375.6124431010171" y2="272.10132015485215" />
            <line stroke-width="0.4666666666666667" stroke="#999999" x1="261.5714549911313" y1="213.4323583299516" x2="304.9704197717536" y2="229.296607344017" />
            <line stroke-width="0.3076923076923077" stroke="#999999" x1="304.9704197717536" y1="229.296607344017" x2="278.3141892007159" y2="311.6555203804423" />
            <line stroke-width="0.25" stroke="#999999" x1="304.9704197717536" y1="229.296607344017" x2="410.23234437736323" y2="291.32296730630765" />
            <line stroke-width="0.25" stroke="#999999" x1="304.9704197717536" y1="229.296607344017" x2="383.2726384175199" y2="332.28978427965154" />
            <line stroke-width="0.5" stroke="#999999" x1="304.9704197717536" y1="229.296607344017" x2="328.2045510460526" y2="271.21448737447014" />
            <line stroke-width="0.2" stroke="#999999" x1="304.9704197717536" y1="229.296607344017" x2="168.06312423884393" y2="340.24648146719665" />
            <line stroke-width="0.25" stroke="#999999" x1="304.9704197717536" y1="229.296607344017" x2="228.8501236553528" y2="278.5977984038385" />
            <line stroke-width="0.3333333333333333" stroke="#999999" x1="202.47319744257095" y1="364.82091145004483" x2="304.9704197717536" y2="229.296607344017" />
            <line stroke-width="0.2" stroke="#999999" x1="304.9704197717536" y1="229.296607344017" x2="147.83005072600008" y2="293.31639099462666" />
            <line stroke-width="0.2" stroke="#999999" x1="304.9704197717536" y1="229.296607344017" x2="250.93928414597755" y2="384.8392812107798" />
            <line stroke-width="0.25" stroke="#999999" x1="304.9704197717536" y1="229.296607344017" x2="290.35387552191884" y2="353.5545119151562" />
            <line stroke-width="0.25" stroke="#999999" x1="304.9704197717536" y1="229.296607344017" x2="374.3249378413831" y2="373.63457014329725" />
            <line stroke-width="0.1111111111111111" stroke="#999999" x1="261.5714549911313" y1="213.4323583299516" x2="375.6124431010171" y2="272.10132015485215" />
            <line stroke-width="0.5" stroke="#999999" x1="375.6124431010171" y1="272.10132015485215" x2="278.3141892007159" y2="311.6555203804423" />
            <line stroke-width="1" stroke="#999999" x1="410.23234437736323" y1="291.32296730630765" x2="375.6124431010171" y2="272.10132015485215" />
            <line stroke-width="1" stroke="#999999" x1="375.6124431010171" y1="272.10132015485215" x2="383.2726384175199" y2="332.28978427965154" />
            <line stroke-width="0.6666666666666666" stroke="#999999" x1="328.2045510460526" y1="271.21448737447014" x2="375.6124431010171" y2="272.10132015485215" />
            <line stroke-width="1" stroke="#999999" x1="375.6124431010171" y1="272.10132015485215" x2="374.3249378413831" y2="373.63457014329725" />
            <line stroke-width="0.2222222222222222" stroke="#999999" x1="261.5714549911313" y1="213.4323583299516" x2="278.3141892007159" y2="311.6555203804423" />
            <line stroke-width="0.1111111111111111" stroke="#999999" x1="261.5714549911313" y1="213.4323583299516" x2="410.23234437736323" y2="291.32296730630765" />
            <line stroke-width="0.1111111111111111" stroke="#999999" x1="261.5714549911313" y1="213.4323583299516" x2="383.2726384175199" y2="332.28978427965154" />
            <line stroke-width="0.2727272727272727" stroke="#999999" x1="261.5714549911313" y1="213.4323583299516" x2="328.2045510460526" y2="271.21448737447014" />
            <line stroke-width="1" stroke="#999999" x1="261.5714549911313" y1="213.4323583299516" x2="228.8501236553528" y2="278.5977984038385" />
            <line stroke-width="0.1111111111111111" stroke="#999999" x1="261.5714549911313" y1="213.4323583299516" x2="374.3249378413831" y2="373.63457014329725" />
            <line stroke-width="0.5" stroke="#999999" x1="410.23234437736323" y1="291.32296730630765" x2="278.3141892007159" y2="311.6555203804423" />
            <line stroke-width="0.5" stroke="#999999" x1="383.2726384175199" y1="332.28978427965154" x2="278.3141892007159" y2="311.6555203804423" />
            <line stroke-width="1" stroke="#999999" x1="328.2045510460526" y1="271.21448737447014" x2="278.3141892007159" y2="311.6555203804423" />
            <line stroke-width="1" stroke="#999999" x1="278.3141892007159" y1="311.6555203804423" x2="168.06312423884393" y2="340.24648146719665" />
            <line stroke-width="1" stroke="#999999" x1="228.8501236553528" y1="278.5977984038385" x2="278.3141892007159" y2="311.6555203804423" />
            <line stroke-width="1" stroke="#999999" x1="202.47319744257095" y1="364.82091145004483" x2="278.3141892007159" y2="311.6555203804423" />
            <line stroke-width="1" stroke="#999999" x1="278.3141892007159" y1="311.6555203804423" x2="147.83005072600008" y2="293.31639099462666" />
            <line stroke-width="1" stroke="#999999" x1="278.3141892007159" y1="311.6555203804423" x2="250.93928414597755" y2="384.8392812107798" />
            <line stroke-width="1" stroke="#999999" x1="278.3141892007159" y1="311.6555203804423" x2="290.35387552191884" y2="353.5545119151562" />
            <line stroke-width="0.5" stroke="#999999" x1="278.3141892007159" y1="311.6555203804423" x2="374.3249378413831" y2="373.63457014329725" />
            <line stroke-width="0.5" stroke="#999999" x1="462.08320345737894" y1="298.7646582024655" x2="410.23234437736323" y2="291.32296730630765" />
            <line stroke-width="1" stroke="#999999" x1="410.23234437736323" y1="291.32296730630765" x2="383.2726384175199" y2="332.28978427965154" />
            <line stroke-width="0.5" stroke="#999999" x1="410.23234437736323" y1="291.32296730630765" x2="328.2045510460526" y2="271.21448737447014" />
            <line stroke-width="1" stroke="#999999" x1="410.23234437736323" y1="291.32296730630765" x2="374.3249378413831" y2="373.63457014329725" />
            <line stroke-width="0.5" stroke="#999999" x1="328.2045510460526" y1="271.21448737447014" x2="383.2726384175199" y2="332.28978427965154" />
            <line stroke-width="1" stroke="#999999" x1="383.2726384175199" y1="332.28978427965154" x2="374.3249378413831" y2="373.63457014329725" />
            <line stroke-width="0.5" stroke="#999999" x1="328.2045510460526" y1="271.21448737447014" x2="374.3249378413831" y2="373.63457014329725" />
            <line stroke-width="1" stroke="#999999" x1="228.8501236553528" y1="278.5977984038385" x2="168.06312423884393" y2="340.24648146719665" />
            <line stroke-width="1" stroke="#999999" x1="202.47319744257095" y1="364.82091145004483" x2="168.06312423884393" y2="340.24648146719665" />
            <line stroke-width="1" stroke="#999999" x1="168.06312423884393" y1="340.24648146719665" x2="147.83005072600008" y2="293.31639099462666" />
            <line stroke-width="1" stroke="#999999" x1="250.93928414597755" y1="384.8392812107798" x2="168.06312423884393" y2="340.24648146719665" />
            <line stroke-width="1" stroke="#999999" x1="202.47319744257095" y1="364.82091145004483" x2="228.8501236553528" y2="278.5977984038385" />
            <line stroke-width="1" stroke="#999999" x1="228.8501236553528" y1="278.5977984038385" x2="147.83005072600008" y2="293.31639099462666" />
            <line stroke-width="1" stroke="#999999" x1="228.8501236553528" y1="278.5977984038385" x2="250.93928414597755" y2="384.8392812107798" />
            <line stroke-width="1" stroke="#999999" x1="202.47319744257095" y1="364.82091145004483" x2="147.83005072600008" y2="293.31639099462666" />
            <line stroke-width="1" stroke="#999999" x1="202.47319744257095" y1="364.82091145004483" x2="250.93928414597755" y2="384.8392812107798" />
            <line stroke-width="1" stroke="#999999" x1="250.93928414597755" y1="384.8392812107798" x2="147.83005072600008" y2="293.31639099462666" />
            <line stroke-width="1" stroke="#999999" x1="250.93928414597755" y1="384.8392812107798" x2="374.3249378413831" y2="373.63457014329725" />
        </g>
        <g class="nodes_MjDaKIPr">
            <g>
                <circle id="n_917" r="5" fill="#99ccff" cx="211.8997594778246" cy="317.77259037282505">
                    <title>n_917</title>
                </circle>
                <text x="0" y="-7" id="n_917" class="label_MjDaKIPr" transform="translate(211.8997594778246,317.77259037282505)" cx="211.8997594778246" cy="317.77259037282505">n_917</text>
            </g>
            <g>
                <circle id="n_157" r="5" fill="#99ccff" cx="217.97653969121882" cy="250.84301029969566">
                    <title>n_157</title>
                </circle>
                <text x="0" y="-7" id="n_157" class="label_MjDaKIPr" transform="translate(217.97653969121882,250.84301029969566)" cx="217.97653969121882" cy="250.84301029969566">n_157</text>
            </g>
            <g>
                <circle id="n_927" r="5" fill="#99ccff" cx="304.9704197717536" cy="229.296607344017">
                    <title>n_927</title>
                </circle>
                <text x="0" y="-7" id="n_927" class="label_MjDaKIPr" transform="translate(304.9704197717536,229.296607344017)" cx="304.9704197717536" cy="229.296607344017">n_927</text>
            </g>
            <g>
                <circle id="n_1691" r="5" fill="#99ccff" cx="278.3141892007159" cy="311.6555203804423">
                    <title>n_1691</title>
                </circle>
                <text x="0" y="-7" id="n_1691" class="label_MjDaKIPr" transform="translate(278.3141892007159,311.6555203804423)" cx="278.3141892007159" cy="311.6555203804423">n_1691</text>
            </g>
            <g>
                <circle id="n_1928" r="5" fill="#99ccff" cx="168.06312423884393" cy="340.24648146719665">
                    <title>n_1928</title>
                </circle>
                <text x="0" y="-7" id="n_1928" class="label_MjDaKIPr" transform="translate(168.06312423884393,340.24648146719665)" cx="168.06312423884393" cy="340.24648146719665">n_1928</text>
            </g>
            <g>
                <circle id="n_1613" r="5" fill="#99ccff" cx="228.8501236553528" cy="278.5977984038385">
                    <title>n_1613</title>
                </circle>
                <text x="0" y="-7" id="n_1613" class="label_MjDaKIPr" transform="translate(228.8501236553528,278.5977984038385)" cx="228.8501236553528" cy="278.5977984038385">n_1613</text>
            </g>
            <g>
                <circle id="n_729" r="5" fill="#99ccff" cx="202.47319744257095" cy="364.82091145004483">
                    <title>n_729</title>
                </circle>
                <text x="0" y="-7" id="n_729" class="label_MjDaKIPr" transform="translate(202.47319744257095,364.82091145004483)" cx="202.47319744257095" cy="364.82091145004483">n_729</text>
            </g>
            <g>
                <circle id="n_1930" r="5" fill="#99ccff" cx="147.83005072600008" cy="293.31639099462666">
                    <title>n_1930</title>
                </circle>
                <text x="0" y="-7" id="n_1930" class="label_MjDaKIPr" transform="translate(147.83005072600008,293.31639099462666)" cx="147.83005072600008" cy="293.31639099462666">n_1930</text>
            </g>
            <g>
                <circle id="n_1840" r="5" fill="#99ccff" cx="250.93928414597755" cy="384.8392812107798">
                    <title>n_1840</title>
                </circle>
                <text x="0" y="-7" id="n_1840" class="label_MjDaKIPr" transform="translate(250.93928414597755,384.8392812107798)" cx="250.93928414597755" cy="384.8392812107798">n_1840</text>
            </g>
            <g>
                <circle id="n_1380" r="5" fill="#99ccff" cx="360.4703364690783" cy="200.93211174963878">
                    <title>n_1380</title>
                </circle>
                <text x="0" y="-7" id="n_1380" class="label_MjDaKIPr" transform="translate(360.4703364690783,200.93211174963878)" cx="360.4703364690783" cy="200.93211174963878">n_1380</text>
            </g>
            <g>
                <circle id="n_1429" r="5" fill="#99ccff" cx="375.6124431010171" cy="272.10132015485215">
                    <title>n_1429</title>
                </circle>
                <text x="0" y="-7" id="n_1429" class="label_MjDaKIPr" transform="translate(375.6124431010171,272.10132015485215)" cx="375.6124431010171" cy="272.10132015485215">n_1429</text>
            </g>
            <g>
                <circle id="n_1780" r="5" fill="#99ccff" cx="401.2142117087529" cy="175.43381840509298">
                    <title>n_1780</title>
                </circle>
                <text x="0" y="-7" id="n_1780" class="label_MjDaKIPr" transform="translate(401.2142117087529,175.43381840509298)" cx="401.2142117087529" cy="175.43381840509298">n_1780</text>
            </g>
            <g>
                <circle id="n_136" r="5" fill="#99ccff" cx="261.5714549911313" cy="213.4323583299516">
                    <title>n_136</title>
                </circle>
                <text x="0" y="-7" id="n_136" class="label_MjDaKIPr" transform="translate(261.5714549911313,213.4323583299516)" cx="261.5714549911313" cy="213.4323583299516">n_136</text>
            </g>
            <g>
                <circle id="n_1292" r="5" fill="#99ccff" cx="410.23234437736323" cy="291.32296730630765">
                    <title>n_1292</title>
                </circle>
                <text x="0" y="-7" id="n_1292" class="label_MjDaKIPr" transform="translate(410.23234437736323,291.32296730630765)" cx="410.23234437736323" cy="291.32296730630765">n_1292</text>
            </g>
            <g>
                <circle id="n_1526" r="5" fill="#99ccff" cx="383.2726384175199" cy="332.28978427965154">
                    <title>n_1526</title>
                </circle>
                <text x="0" y="-7" id="n_1526" class="label_MjDaKIPr" transform="translate(383.2726384175199,332.28978427965154)" cx="383.2726384175199" cy="332.28978427965154">n_1526</text>
            </g>
            <g>
                <circle id="n_1365" r="5" fill="#99ccff" cx="328.2045510460526" cy="271.21448737447014">
                    <title>n_1365</title>
                </circle>
                <text x="0" y="-7" id="n_1365" class="label_MjDaKIPr" transform="translate(328.2045510460526,271.21448737447014)" cx="328.2045510460526" cy="271.21448737447014">n_1365</text>
            </g>
            <g>
                <circle id="n_1936" r="5" fill="#99ccff" cx="374.3249378413831" cy="373.63457014329725">
                    <title>n_1936</title>
                </circle>
                <text x="0" y="-7" id="n_1936" class="label_MjDaKIPr" transform="translate(374.3249378413831,373.63457014329725)" cx="374.3249378413831" cy="373.63457014329725">n_1936</text>
            </g>
            <g>
                <circle id="n_1925" r="5" fill="#99ccff" cx="323.57915833070246" cy="424.60136397416824">
                    <title>n_1925</title>
                </circle>
                <text x="0" y="-7" id="n_1925" class="label_MjDaKIPr" transform="translate(323.57915833070246,424.60136397416824)" cx="323.57915833070246" cy="424.60136397416824">n_1925</text>
            </g>
            <g>
                <circle id="n_1798" r="5" fill="#99ccff" cx="317.7267262168883" cy="321.31578495590816">
                    <title>n_1798</title>
                </circle>
                <text x="0" y="-7" id="n_1798" class="label_MjDaKIPr" transform="translate(317.7267262168883,321.31578495590816)" cx="317.7267262168883" cy="321.31578495590816">n_1798</text>
            </g>
            <g>
                <circle id="n_1933" r="5" fill="#99ccff" cx="290.35387552191884" cy="353.5545119151562">
                    <title>n_1933</title>
                </circle>
                <text x="0" y="-7" id="n_1933" class="label_MjDaKIPr" transform="translate(290.35387552191884,353.5545119151562)" cx="290.35387552191884" cy="353.5545119151562">n_1933</text>
            </g>
            <g>
                <circle id="n_707" r="5" fill="#99ccff" cx="462.08320345737894" cy="298.7646582024655">
                    <title>n_707</title>
                </circle>
                <text x="0" y="-7" id="n_707" class="label_MjDaKIPr" transform="translate(462.08320345737894,298.7646582024655)" cx="462.08320345737894" cy="298.7646582024655">n_707</text>
            </g>
        </g>
    </g>
</svg>