<svg xmlns="http://www.w3.org/2000/svg" width="600" height="600" id="UhHpXWIL">        
    <text x="20" y="20" font-family="sans-serif" font-size="14px" fill="#666" style="cursor: pointer" id="UhHpXWIL_svg_txt">[save svg]</text>
<defs><marker id="end" viewBox="0 -5 20 20" refX="34" refY="0" markerWidth="15" markerHeight="15" orient="auto"><path d="M0,-5 L20,0 L0,5 z" fill="#999" stroke="none"/></marker></defs><g class="everything"><g class="links_UhHpXWIL"><line stroke-width="0.22852233676975942" stroke="#999999" x1="289.0601795268723" y1="296.2445077741977" x2="283.83801511229353" y2="411.48552012144813"/><line stroke-width="0.39604810996563583" stroke="#999999" x1="289.0601795268723" y1="296.2445077741977" x2="395.1519280859572" y2="290.88647906820984"/><line stroke-width="0.08591065292096221" stroke="#999999" x1="289.0601795268723" y1="296.2445077741977" x2="317.408857897086" y2="403.6253799833285"/><line stroke-width="0.0936426116838488" stroke="#999999" x1="289.0601795268723" y1="296.2445077741977" x2="205.27358115080662" y2="193.3128364312284"/><line stroke-width="0.140893470790378" stroke="#999999" x1="289.0601795268723" y1="296.2445077741977" x2="340.19362016012974" y2="303.2119903086462"/><line stroke-width="0.1056701030927835" stroke="#999999" x1="289.0601795268723" y1="296.2445077741977" x2="415.47437589298903" y2="253.3179321081948"/><line stroke-width="0.10223367697594501" stroke="#999999" x1="289.0601795268723" y1="296.2445077741977" x2="352.07997349058735" y2="340.27013106622314"/><line stroke-width="0.0352233676975945" stroke="#999999" x1="289.0601795268723" y1="296.2445077741977" x2="388.5366635228873" y2="415.7824951168427"/><line stroke-width="0.07474226804123711" stroke="#999999" x1="289.0601795268723" y1="296.2445077741977" x2="392.26633569928873" y2="221.03058385599797"/><line stroke-width="0.01288659793814433" stroke="#999999" x1="289.0601795268723" y1="296.2445077741977" x2="306.8321455176555" y2="314.8262184824604"/><line stroke-width="0.0936426116838488" stroke="#999999" x1="289.0601795268723" y1="296.2445077741977" x2="240.51741027441938" y2="220.00499453362661"/><line stroke-width="0.12285223367697595" stroke="#999999" x1="289.0601795268723" y1="296.2445077741977" x2="208.9217712180548" y2="233.35772597112359"/><line stroke-width="0.07474226804123711" stroke="#999999" x1="289.0601795268723" y1="296.2445077741977" x2="414.4916832728106" y2="206.38578934113593"/><line stroke-width="0.009450171821305841" stroke="#999999" x1="289.0601795268723" y1="296.2445077741977" x2="352.8153956416586" y2="254.61693584281576"/><line stroke-width="0.18213058419243985" stroke="#999999" x1="289.0601795268723" y1="296.2445077741977" x2="229.2453247349278" y2="260.0953055008267"/><line stroke-width="0.059278350515463915" stroke="#999999" x1="289.0601795268723" y1="296.2445077741977" x2="309.6441251401654" y2="353.183815728065"/><line stroke-width="0.01718213058419244" stroke="#999999" x1="289.0601795268723" y1="296.2445077741977" x2="280.94212506838636" y2="155.78353162571477"/><line stroke-width="0.04209621993127148" stroke="#999999" x1="289.0601795268723" y1="296.2445077741977" x2="179.9711754752528" y2="326.48073798471756"/><line stroke-width="0.020618556701030927" stroke="#999999" x1="289.0601795268723" y1="296.2445077741977" x2="345.60952841074004" y2="431.1917691975795"/><line stroke-width="0.01804123711340206" stroke="#999999" x1="289.0601795268723" y1="296.2445077741977" x2="144.72022962753834" y2="342.38721185534166"/><line stroke-width="0.018041237113402064" stroke="#999999" x1="289.0601795268723" y1="296.2445077741977" x2="289.2487955855713" y2="192.04518959571195"/><line stroke-width="0.01804123711340206" stroke="#999999" x1="289.0601795268723" y1="296.2445077741977" x2="208.3707324520613" y2="352.3544329897944"/><line stroke-width="0.01718213058419244" stroke="#999999" x1="289.0601795268723" y1="296.2445077741977" x2="316.27100323727734" y2="155.1679539776817"/><line stroke-width="0.07474226804123711" stroke="#999999" x1="289.0601795268723" y1="296.2445077741977" x2="451.31792092018145" y2="238.86538397849708"/><line stroke-width="0.01804123711340206" stroke="#999999" x1="289.0601795268723" y1="296.2445077741977" x2="138.0403812390321" y2="377.71623305903637"/><line stroke-width="0.07474226804123711" stroke="#999999" x1="289.0601795268723" y1="296.2445077741977" x2="449.7870213850647" y2="198.07959153637836"/><line stroke-width="0.00429553264604811" stroke="#999999" x1="289.0601795268723" y1="296.2445077741977" x2="216.81474209072704" y2="300.32556903418197"/><line stroke-width="0.029209621993127148" stroke="#999999" x1="289.0601795268723" y1="296.2445077741977" x2="209.9784269822273" y2="395.5750717941597"/><line stroke-width="0.06958762886597938" stroke="#999999" x1="289.0601795268723" y1="296.2445077741977" x2="405.83629469831453" y2="356.92461034891954"/><line stroke-width="0.05756013745704467" stroke="#999999" x1="289.0601795268723" y1="296.2445077741977" x2="296.0855667808081" y2="242.69724233125882"/><line stroke-width="0.06099656357388317" stroke="#999999" x1="289.0601795268723" y1="296.2445077741977" x2="293.1599001828297" y2="354.254162473623"/><line stroke-width="0.029209621993127148" stroke="#999999" x1="289.0601795268723" y1="296.2445077741977" x2="190.56008212632617" y2="430.3741283627489"/><line stroke-width="0.06701030927835051" stroke="#999999" x1="289.0601795268723" y1="296.2445077741977" x2="328.1584641223408" y2="229.7930202445671"/><line stroke-width="0.030927835051546393" stroke="#999999" x1="289.0601795268723" y1="296.2445077741977" x2="374.17796080871443" y2="385.5318291915029"/><line stroke-width="0.08848797250859106" stroke="#999999" x1="289.0601795268723" y1="296.2445077741977" x2="270.8867860223226" y2="269.3826937813582"/><line stroke-width="0.006872852233676976" stroke="#999999" x1="289.0601795268723" y1="296.2445077741977" x2="314.6389395420634" y2="271.91849947785227"/><line stroke-width="0.029209621993127148" stroke="#999999" x1="289.0601795268723" y1="296.2445077741977" x2="223.41998258418369" y2="425.65907810630506"/><line stroke-width="0.029209621993127148" stroke="#999999" x1="289.0601795268723" y1="296.2445077741977" x2="175.83867952825048" y2="385.738961178138"/><line stroke-width="0.0936426116838488" stroke="#999999" x1="289.0601795268723" y1="296.2445077741977" x2="236.8022640551087" y2="178.0163068735077"/><line stroke-width="0.15721649484536082" stroke="#999999" x1="289.0601795268723" y1="296.2445077741977" x2="260.5900417162011" y2="374.3458499247597"/><line stroke-width="0.07474226804123711" stroke="#999999" x1="289.0601795268723" y1="296.2445077741977" x2="382.66778325863163" y2="184.2905675535767"/><line stroke-width="0.02147766323024055" stroke="#999999" x1="289.0601795268723" y1="296.2445077741977" x2="261.19395370179694" y2="343.9044936415207"/><line stroke-width="0.01804123711340206" stroke="#999999" x1="289.0601795268723" y1="296.2445077741977" x2="151.26835559950766" y2="419.4823464968007"/><line stroke-width="0.07474226804123711" stroke="#999999" x1="289.0601795268723" y1="296.2445077741977" x2="410.6121417131093" y2="162.9773092959797"/><line stroke-width="0.030927835051546393" stroke="#999999" x1="289.0601795268723" y1="296.2445077741977" x2="344.2813187813223" y2="396.0545824429787"/><line stroke-width="0.10481099656357389" stroke="#999999" x1="289.0601795268723" y1="296.2445077741977" x2="373.6100672748965" y2="323.69943829054984"/><line stroke-width="0.06958762886597938" stroke="#999999" x1="289.0601795268723" y1="296.2445077741977" x2="405.46962871039574" y2="331.15480011919664"/><line stroke-width="0.2353951890034364" stroke="#999999" x1="289.0601795268723" y1="296.2445077741977" x2="327.7743007983955" y2="196.51797654450965"/><line stroke-width="0.9999999999999998" stroke="#999999" x1="283.83801511229353" y1="411.48552012144813" x2="289.0601795268723" y2="296.2445077741977"/><line stroke-width="0.6086956521739131" stroke="#999999" x1="283.83801511229353" y1="411.48552012144813" x2="395.1519280859572" y2="290.88647906820984"/><line stroke-width="0.5217391304347826" stroke="#999999" x1="283.83801511229353" y1="411.48552012144813" x2="317.408857897086" y2="403.6253799833285"/><line stroke-width="0.17391304347826086" stroke="#999999" x1="283.83801511229353" y1="411.48552012144813" x2="340.19362016012974" y2="303.2119903086462"/><line stroke-width="0.17391304347826086" stroke="#999999" x1="283.83801511229353" y1="411.48552012144813" x2="352.07997349058735" y2="340.27013106622314"/><line stroke-width="0.21739130434782608" stroke="#999999" x1="283.83801511229353" y1="411.48552012144813" x2="388.5366635228873" y2="415.7824951168427"/><line stroke-width="0.17391304347826086" stroke="#999999" x1="283.83801511229353" y1="411.48552012144813" x2="309.6441251401654" y2="353.183815728065"/><line stroke-width="0.043478260869565216" stroke="#999999" x1="283.83801511229353" y1="411.48552012144813" x2="179.9711754752528" y2="326.48073798471756"/><line stroke-width="0.21739130434782608" stroke="#999999" x1="283.83801511229353" y1="411.48552012144813" x2="345.60952841074004" y2="431.1917691975795"/><line stroke-width="0.043478260869565216" stroke="#999999" x1="283.83801511229353" y1="411.48552012144813" x2="144.72022962753834" y2="342.38721185534166"/><line stroke-width="0.043478260869565216" stroke="#999999" x1="283.83801511229353" y1="411.48552012144813" x2="208.3707324520613" y2="352.3544329897944"/><line stroke-width="0.043478260869565216" stroke="#999999" x1="283.83801511229353" y1="411.48552012144813" x2="138.0403812390321" y2="377.71623305903637"/><line stroke-width="0.043478260869565216" stroke="#999999" x1="283.83801511229353" y1="411.48552012144813" x2="209.9784269822273" y2="395.5750717941597"/><line stroke-width="0.08695652173913043" stroke="#999999" x1="283.83801511229353" y1="411.48552012144813" x2="405.83629469831453" y2="356.92461034891954"/><line stroke-width="0.30434782608695654" stroke="#999999" x1="283.83801511229353" y1="411.48552012144813" x2="293.1599001828297" y2="354.254162473623"/><line stroke-width="0.043478260869565216" stroke="#999999" x1="283.83801511229353" y1="411.48552012144813" x2="190.56008212632617" y2="430.3741283627489"/><line stroke-width="0.21739130434782608" stroke="#999999" x1="283.83801511229353" y1="411.48552012144813" x2="374.17796080871443" y2="385.5318291915029"/><line stroke-width="0.043478260869565216" stroke="#999999" x1="283.83801511229353" y1="411.48552012144813" x2="223.41998258418369" y2="425.65907810630506"/><line stroke-width="0.043478260869565216" stroke="#999999" x1="283.83801511229353" y1="411.48552012144813" x2="175.83867952825048" y2="385.738961178138"/><line stroke-width="0.17391304347826086" stroke="#999999" x1="283.83801511229353" y1="411.48552012144813" x2="260.5900417162011" y2="374.3458499247597"/><line stroke-width="0.043478260869565216" stroke="#999999" x1="283.83801511229353" y1="411.48552012144813" x2="261.19395370179694" y2="343.9044936415207"/><line stroke-width="0.043478260869565216" stroke="#999999" x1="283.83801511229353" y1="411.48552012144813" x2="151.26835559950766" y2="419.4823464968007"/><line stroke-width="0.21739130434782608" stroke="#999999" x1="283.83801511229353" y1="411.48552012144813" x2="344.2813187813223" y2="396.0545824429787"/><line stroke-width="0.17391304347826086" stroke="#999999" x1="283.83801511229353" y1="411.48552012144813" x2="373.6100672748965" y2="323.69943829054984"/><line stroke-width="0.08695652173913043" stroke="#999999" x1="283.83801511229353" y1="411.48552012144813" x2="405.46962871039574" y2="331.15480011919664"/><line stroke-width="1.0000000000000002" stroke="#999999" x1="395.1519280859572" y1="290.88647906820984" x2="289.0601795268723" y2="296.2445077741977"/><line stroke-width="0.33333333333333337" stroke="#999999" x1="395.1519280859572" y1="290.88647906820984" x2="283.83801511229353" y2="411.48552012144813"/><line stroke-width="0.16666666666666666" stroke="#999999" x1="395.1519280859572" y1="290.88647906820984" x2="317.408857897086" y2="403.6253799833285"/><line stroke-width="0.33333333333333337" stroke="#999999" x1="395.1519280859572" y1="290.88647906820984" x2="340.19362016012974" y2="303.2119903086462"/><line stroke-width="0.2222222222222222" stroke="#999999" x1="395.1519280859572" y1="290.88647906820984" x2="415.47437589298903" y2="253.3179321081948"/><line stroke-width="0.2222222222222222" stroke="#999999" x1="395.1519280859572" y1="290.88647906820984" x2="352.07997349058735" y2="340.27013106622314"/><line stroke-width="0.05555555555555555" stroke="#999999" x1="395.1519280859572" y1="290.88647906820984" x2="388.5366635228873" y2="415.7824951168427"/><line stroke-width="0.1111111111111111" stroke="#999999" x1="395.1519280859572" y1="290.88647906820984" x2="392.26633569928873" y2="221.03058385599797"/><line stroke-width="0.05555555555555555" stroke="#999999" x1="395.1519280859572" y1="290.88647906820984" x2="208.9217712180548" y2="233.35772597112359"/><line stroke-width="0.1111111111111111" stroke="#999999" x1="395.1519280859572" y1="290.88647906820984" x2="414.4916832728106" y2="206.38578934113593"/><line stroke-width="0.05555555555555555" stroke="#999999" x1="395.1519280859572" y1="290.88647906820984" x2="352.8153956416586" y2="254.61693584281576"/><line stroke-width="0.05555555555555555" stroke="#999999" x1="395.1519280859572" y1="290.88647906820984" x2="229.2453247349278" y2="260.0953055008267"/><line stroke-width="0.05555555555555555" stroke="#999999" x1="395.1519280859572" y1="290.88647906820984" x2="179.9711754752528" y2="326.48073798471756"/><line stroke-width="0.05555555555555555" stroke="#999999" x1="395.1519280859572" y1="290.88647906820984" x2="345.60952841074004" y2="431.1917691975795"/><line stroke-width="0.1111111111111111" stroke="#999999" x1="395.1519280859572" y1="290.88647906820984" x2="451.31792092018145" y2="238.86538397849708"/><line stroke-width="0.1111111111111111" stroke="#999999" x1="395.1519280859572" y1="290.88647906820984" x2="449.7870213850647" y2="198.07959153637836"/><line stroke-width="0.16666666666666666" stroke="#999999" x1="395.1519280859572" y1="290.88647906820984" x2="405.83629469831453" y2="356.92461034891954"/><line stroke-width="0.05555555555555555" stroke="#999999" x1="395.1519280859572" y1="290.88647906820984" x2="296.0855667808081" y2="242.69724233125882"/><line stroke-width="0.05555555555555555" stroke="#999999" x1="395.1519280859572" y1="290.88647906820984" x2="293.1599001828297" y2="354.254162473623"/><line stroke-width="0.1111111111111111" stroke="#999999" x1="395.1519280859572" y1="290.88647906820984" x2="328.1584641223408" y2="229.7930202445671"/><line stroke-width="0.05555555555555555" stroke="#999999" x1="395.1519280859572" y1="290.88647906820984" x2="374.17796080871443" y2="385.5318291915029"/><line stroke-width="0.05555555555555555" stroke="#999999" x1="395.1519280859572" y1="290.88647906820984" x2="270.8867860223226" y2="269.3826937813582"/><line stroke-width="0.2222222222222222" stroke="#999999" x1="395.1519280859572" y1="290.88647906820984" x2="260.5900417162011" y2="374.3458499247597"/><line stroke-width="0.1111111111111111" stroke="#999999" x1="395.1519280859572" y1="290.88647906820984" x2="382.66778325863163" y2="184.2905675535767"/><line stroke-width="0.1111111111111111" stroke="#999999" x1="395.1519280859572" y1="290.88647906820984" x2="410.6121417131093" y2="162.9773092959797"/><line stroke-width="0.05555555555555555" stroke="#999999" x1="395.1519280859572" y1="290.88647906820984" x2="344.2813187813223" y2="396.0545824429787"/><line stroke-width="0.2222222222222222" stroke="#999999" x1="395.1519280859572" y1="290.88647906820984" x2="373.6100672748965" y2="323.69943829054984"/><line stroke-width="0.16666666666666666" stroke="#999999" x1="395.1519280859572" y1="290.88647906820984" x2="405.46962871039574" y2="331.15480011919664"/><line stroke-width="0.2222222222222222" stroke="#999999" x1="395.1519280859572" y1="290.88647906820984" x2="327.7743007983955" y2="196.51797654450965"/><line stroke-width="0.9090909090909092" stroke="#999999" x1="317.408857897086" y1="403.6253799833285" x2="289.0601795268723" y2="296.2445077741977"/><line stroke-width="0.36363636363636365" stroke="#999999" x1="317.408857897086" y1="403.6253799833285" x2="283.83801511229353" y2="411.48552012144813"/><line stroke-width="0.45454545454545453" stroke="#999999" x1="317.408857897086" y1="403.6253799833285" x2="395.1519280859572" y2="290.88647906820984"/><line stroke-width="0.18181818181818182" stroke="#999999" x1="317.408857897086" y1="403.6253799833285" x2="388.5366635228873" y2="415.7824951168427"/><line stroke-width="0.18181818181818182" stroke="#999999" x1="317.408857897086" y1="403.6253799833285" x2="345.60952841074004" y2="431.1917691975795"/><line stroke-width="0.18181818181818182" stroke="#999999" x1="317.408857897086" y1="403.6253799833285" x2="293.1599001828297" y2="354.254162473623"/><line stroke-width="0.18181818181818182" stroke="#999999" x1="317.408857897086" y1="403.6253799833285" x2="374.17796080871443" y2="385.5318291915029"/><line stroke-width="0.09090909090909091" stroke="#999999" x1="317.408857897086" y1="403.6253799833285" x2="260.5900417162011" y2="374.3458499247597"/><line stroke-width="0.18181818181818182" stroke="#999999" x1="317.408857897086" y1="403.6253799833285" x2="344.2813187813223" y2="396.0545824429787"/><line stroke-width="1" stroke="#999999" x1="205.27358115080662" y1="193.3128364312284" x2="289.0601795268723" y2="296.2445077741977"/><line stroke-width="1" stroke="#999999" x1="205.27358115080662" y1="193.3128364312284" x2="240.51741027441938" y2="220.00499453362661"/><line stroke-width="1" stroke="#999999" x1="205.27358115080662" y1="193.3128364312284" x2="208.9217712180548" y2="233.35772597112359"/><line stroke-width="1" stroke="#999999" x1="205.27358115080662" y1="193.3128364312284" x2="229.2453247349278" y2="260.0953055008267"/><line stroke-width="1" stroke="#999999" x1="205.27358115080662" y1="193.3128364312284" x2="236.8022640551087" y2="178.0163068735077"/><line stroke-width="1" stroke="#999999" x1="205.27358115080662" y1="193.3128364312284" x2="327.7743007983955" y2="196.51797654450965"/><line stroke-width="1" stroke="#999999" x1="340.19362016012974" y1="303.2119903086462" x2="289.0601795268723" y2="296.2445077741977"/><line stroke-width="0.5" stroke="#999999" x1="340.19362016012974" y1="303.2119903086462" x2="283.83801511229353" y2="411.48552012144813"/><line stroke-width="0.8333333333333333" stroke="#999999" x1="340.19362016012974" y1="303.2119903086462" x2="395.1519280859572" y2="290.88647906820984"/><line stroke-width="0.5" stroke="#999999" x1="340.19362016012974" y1="303.2119903086462" x2="352.07997349058735" y2="340.27013106622314"/><line stroke-width="0.16666666666666666" stroke="#999999" x1="340.19362016012974" y1="303.2119903086462" x2="208.9217712180548" y2="233.35772597112359"/><line stroke-width="0.16666666666666666" stroke="#999999" x1="340.19362016012974" y1="303.2119903086462" x2="179.9711754752528" y2="326.48073798471756"/><line stroke-width="0.16666666666666666" stroke="#999999" x1="340.19362016012974" y1="303.2119903086462" x2="405.83629469831453" y2="356.92461034891954"/><line stroke-width="0.5" stroke="#999999" x1="340.19362016012974" y1="303.2119903086462" x2="260.5900417162011" y2="374.3458499247597"/><line stroke-width="0.5" stroke="#999999" x1="340.19362016012974" y1="303.2119903086462" x2="373.6100672748965" y2="323.69943829054984"/><line stroke-width="0.16666666666666666" stroke="#999999" x1="340.19362016012974" y1="303.2119903086462" x2="405.46962871039574" y2="331.15480011919664"/><line stroke-width="1" stroke="#999999" x1="415.47437589298903" y1="253.3179321081948" x2="289.0601795268723" y2="296.2445077741977"/><line stroke-width="1" stroke="#999999" x1="415.47437589298903" y1="253.3179321081948" x2="395.1519280859572" y2="290.88647906820984"/><line stroke-width="0.6666666666666666" stroke="#999999" x1="415.47437589298903" y1="253.3179321081948" x2="392.26633569928873" y2="221.03058385599797"/><line stroke-width="0.6666666666666666" stroke="#999999" x1="415.47437589298903" y1="253.3179321081948" x2="414.4916832728106" y2="206.38578934113593"/><line stroke-width="0.6666666666666666" stroke="#999999" x1="415.47437589298903" y1="253.3179321081948" x2="451.31792092018145" y2="238.86538397849708"/><line stroke-width="0.6666666666666666" stroke="#999999" x1="415.47437589298903" y1="253.3179321081948" x2="449.7870213850647" y2="198.07959153637836"/><line stroke-width="0.3333333333333333" stroke="#999999" x1="415.47437589298903" y1="253.3179321081948" x2="260.5900417162011" y2="374.3458499247597"/><line stroke-width="0.6666666666666666" stroke="#999999" x1="415.47437589298903" y1="253.3179321081948" x2="382.66778325863163" y2="184.2905675535767"/><line stroke-width="0.6666666666666666" stroke="#999999" x1="415.47437589298903" y1="253.3179321081948" x2="410.6121417131093" y2="162.9773092959797"/><line stroke-width="0.6666666666666666" stroke="#999999" x1="415.47437589298903" y1="253.3179321081948" x2="327.7743007983955" y2="196.51797654450965"/><line stroke-width="1" stroke="#999999" x1="352.07997349058735" y1="340.27013106622314" x2="289.0601795268723" y2="296.2445077741977"/><line stroke-width="1" stroke="#999999" x1="352.07997349058735" y1="340.27013106622314" x2="283.83801511229353" y2="411.48552012144813"/><line stroke-width="1" stroke="#999999" x1="352.07997349058735" y1="340.27013106622314" x2="395.1519280859572" y2="290.88647906820984"/><line stroke-width="1" stroke="#999999" x1="352.07997349058735" y1="340.27013106622314" x2="340.19362016012974" y2="303.2119903086462"/><line stroke-width="0.5" stroke="#999999" x1="352.07997349058735" y1="340.27013106622314" x2="405.83629469831453" y2="356.92461034891954"/><line stroke-width="0.5" stroke="#999999" x1="352.07997349058735" y1="340.27013106622314" x2="260.5900417162011" y2="374.3458499247597"/><line stroke-width="1" stroke="#999999" x1="352.07997349058735" y1="340.27013106622314" x2="373.6100672748965" y2="323.69943829054984"/><line stroke-width="0.5" stroke="#999999" x1="352.07997349058735" y1="340.27013106622314" x2="405.46962871039574" y2="331.15480011919664"/><line stroke-width="1" stroke="#999999" x1="388.5366635228873" y1="415.7824951168427" x2="289.0601795268723" y2="296.2445077741977"/><line stroke-width="0.6666666666666666" stroke="#999999" x1="388.5366635228873" y1="415.7824951168427" x2="283.83801511229353" y2="411.48552012144813"/><line stroke-width="0.6666666666666666" stroke="#999999" x1="388.5366635228873" y1="415.7824951168427" x2="395.1519280859572" y2="290.88647906820984"/><line stroke-width="0.6666666666666666" stroke="#999999" x1="388.5366635228873" y1="415.7824951168427" x2="317.408857897086" y2="403.6253799833285"/><line stroke-width="0.6666666666666666" stroke="#999999" x1="388.5366635228873" y1="415.7824951168427" x2="345.60952841074004" y2="431.1917691975795"/><line stroke-width="0.6666666666666666" stroke="#999999" x1="388.5366635228873" y1="415.7824951168427" x2="374.17796080871443" y2="385.5318291915029"/><line stroke-width="0.6666666666666666" stroke="#999999" x1="388.5366635228873" y1="415.7824951168427" x2="344.2813187813223" y2="396.0545824429787"/><line stroke-width="1" stroke="#999999" x1="392.26633569928873" y1="221.03058385599797" x2="289.0601795268723" y2="296.2445077741977"/><line stroke-width="1" stroke="#999999" x1="392.26633569928873" y1="221.03058385599797" x2="395.1519280859572" y2="290.88647906820984"/><line stroke-width="1" stroke="#999999" x1="392.26633569928873" y1="221.03058385599797" x2="415.47437589298903" y2="253.3179321081948"/><line stroke-width="1" stroke="#999999" x1="392.26633569928873" y1="221.03058385599797" x2="414.4916832728106" y2="206.38578934113593"/><line stroke-width="1" stroke="#999999" x1="392.26633569928873" y1="221.03058385599797" x2="451.31792092018145" y2="238.86538397849708"/><line stroke-width="1" stroke="#999999" x1="392.26633569928873" y1="221.03058385599797" x2="449.7870213850647" y2="198.07959153637836"/><line stroke-width="1" stroke="#999999" x1="392.26633569928873" y1="221.03058385599797" x2="382.66778325863163" y2="184.2905675535767"/><line stroke-width="1" stroke="#999999" x1="392.26633569928873" y1="221.03058385599797" x2="410.6121417131093" y2="162.9773092959797"/><line stroke-width="1" stroke="#999999" x1="392.26633569928873" y1="221.03058385599797" x2="327.7743007983955" y2="196.51797654450965"/><line stroke-width="1" stroke="#999999" x1="306.8321455176555" y1="314.8262184824604" x2="289.0601795268723" y2="296.2445077741977"/><line stroke-width="1" stroke="#999999" x1="306.8321455176555" y1="314.8262184824604" x2="309.6441251401654" y2="353.183815728065"/><line stroke-width="1" stroke="#999999" x1="240.51741027441938" y1="220.00499453362661" x2="289.0601795268723" y2="296.2445077741977"/><line stroke-width="1" stroke="#999999" x1="240.51741027441938" y1="220.00499453362661" x2="205.27358115080662" y2="193.3128364312284"/><line stroke-width="1" stroke="#999999" x1="240.51741027441938" y1="220.00499453362661" x2="208.9217712180548" y2="233.35772597112359"/><line stroke-width="1" stroke="#999999" x1="240.51741027441938" y1="220.00499453362661" x2="229.2453247349278" y2="260.0953055008267"/><line stroke-width="1" stroke="#999999" x1="240.51741027441938" y1="220.00499453362661" x2="236.8022640551087" y2="178.0163068735077"/><line stroke-width="1" stroke="#999999" x1="240.51741027441938" y1="220.00499453362661" x2="327.7743007983955" y2="196.51797654450965"/><line stroke-width="1" stroke="#999999" x1="208.9217712180548" y1="233.35772597112359" x2="289.0601795268723" y2="296.2445077741977"/><line stroke-width="0.3333333333333333" stroke="#999999" x1="208.9217712180548" y1="233.35772597112359" x2="395.1519280859572" y2="290.88647906820984"/><line stroke-width="0.6666666666666666" stroke="#999999" x1="208.9217712180548" y1="233.35772597112359" x2="205.27358115080662" y2="193.3128364312284"/><line stroke-width="0.3333333333333333" stroke="#999999" x1="208.9217712180548" y1="233.35772597112359" x2="340.19362016012974" y2="303.2119903086462"/><line stroke-width="0.6666666666666666" stroke="#999999" x1="208.9217712180548" y1="233.35772597112359" x2="240.51741027441938" y2="220.00499453362661"/><line stroke-width="0.6666666666666666" stroke="#999999" x1="208.9217712180548" y1="233.35772597112359" x2="229.2453247349278" y2="260.0953055008267"/><line stroke-width="0.6666666666666666" stroke="#999999" x1="208.9217712180548" y1="233.35772597112359" x2="236.8022640551087" y2="178.0163068735077"/><line stroke-width="0.3333333333333333" stroke="#999999" x1="208.9217712180548" y1="233.35772597112359" x2="260.5900417162011" y2="374.3458499247597"/><line stroke-width="0.6666666666666666" stroke="#999999" x1="208.9217712180548" y1="233.35772597112359" x2="327.7743007983955" y2="196.51797654450965"/><line stroke-width="1" stroke="#999999" x1="414.4916832728106" y1="206.38578934113593" x2="289.0601795268723" y2="296.2445077741977"/><line stroke-width="1" stroke="#999999" x1="414.4916832728106" y1="206.38578934113593" x2="395.1519280859572" y2="290.88647906820984"/><line stroke-width="1" stroke="#999999" x1="414.4916832728106" y1="206.38578934113593" x2="415.47437589298903" y2="253.3179321081948"/><line stroke-width="1" stroke="#999999" x1="414.4916832728106" y1="206.38578934113593" x2="392.26633569928873" y2="221.03058385599797"/><line stroke-width="1" stroke="#999999" x1="414.4916832728106" y1="206.38578934113593" x2="451.31792092018145" y2="238.86538397849708"/><line stroke-width="1" stroke="#999999" x1="414.4916832728106" y1="206.38578934113593" x2="449.7870213850647" y2="198.07959153637836"/><line stroke-width="1" stroke="#999999" x1="414.4916832728106" y1="206.38578934113593" x2="382.66778325863163" y2="184.2905675535767"/><line stroke-width="1" stroke="#999999" x1="414.4916832728106" y1="206.38578934113593" x2="410.6121417131093" y2="162.9773092959797"/><line stroke-width="1" stroke="#999999" x1="414.4916832728106" y1="206.38578934113593" x2="327.7743007983955" y2="196.51797654450965"/><line stroke-width="1" stroke="#999999" x1="352.8153956416586" y1="254.61693584281576" x2="289.0601795268723" y2="296.2445077741977"/><line stroke-width="1" stroke="#999999" x1="352.8153956416586" y1="254.61693584281576" x2="395.1519280859572" y2="290.88647906820984"/><line stroke-width="1" stroke="#999999" x1="352.8153956416586" y1="254.61693584281576" x2="328.1584641223408" y2="229.7930202445671"/><line stroke-width="1" stroke="#999999" x1="352.8153956416586" y1="254.61693584281576" x2="327.7743007983955" y2="196.51797654450965"/><line stroke-width="1" stroke="#999999" x1="229.2453247349278" y1="260.0953055008267" x2="289.0601795268723" y2="296.2445077741977"/><line stroke-width="0.2" stroke="#999999" x1="229.2453247349278" y1="260.0953055008267" x2="395.1519280859572" y2="290.88647906820984"/><line stroke-width="0.2" stroke="#999999" x1="229.2453247349278" y1="260.0953055008267" x2="205.27358115080662" y2="193.3128364312284"/><line stroke-width="0.2" stroke="#999999" x1="229.2453247349278" y1="260.0953055008267" x2="240.51741027441938" y2="220.00499453362661"/><line stroke-width="0.2" stroke="#999999" x1="229.2453247349278" y1="260.0953055008267" x2="208.9217712180548" y2="233.35772597112359"/><line stroke-width="0.2" stroke="#999999" x1="229.2453247349278" y1="260.0953055008267" x2="296.0855667808081" y2="242.69724233125882"/><line stroke-width="0.2" stroke="#999999" x1="229.2453247349278" y1="260.0953055008267" x2="328.1584641223408" y2="229.7930202445671"/><line stroke-width="0.8" stroke="#999999" x1="229.2453247349278" y1="260.0953055008267" x2="270.8867860223226" y2="269.3826937813582"/><line stroke-width="0.2" stroke="#999999" x1="229.2453247349278" y1="260.0953055008267" x2="236.8022640551087" y2="178.0163068735077"/><line stroke-width="0.6" stroke="#999999" x1="229.2453247349278" y1="260.0953055008267" x2="260.5900417162011" y2="374.3458499247597"/><line stroke-width="0.4" stroke="#999999" x1="229.2453247349278" y1="260.0953055008267" x2="327.7743007983955" y2="196.51797654450965"/><line stroke-width="1" stroke="#999999" x1="309.6441251401654" y1="353.183815728065" x2="289.0601795268723" y2="296.2445077741977"/><line stroke-width="0.4" stroke="#999999" x1="309.6441251401654" y1="353.183815728065" x2="283.83801511229353" y2="411.48552012144813"/><line stroke-width="0.2" stroke="#999999" x1="309.6441251401654" y1="353.183815728065" x2="306.8321455176555" y2="314.8262184824604"/><line stroke-width="1" stroke="#999999" x1="280.94212506838636" y1="155.78353162571477" x2="289.0601795268723" y2="296.2445077741977"/><line stroke-width="1" stroke="#999999" x1="280.94212506838636" y1="155.78353162571477" x2="289.2487955855713" y2="192.04518959571195"/><line stroke-width="1" stroke="#999999" x1="280.94212506838636" y1="155.78353162571477" x2="316.27100323727734" y2="155.1679539776817"/><line stroke-width="0.9230769230769229" stroke="#999999" x1="179.9711754752528" y1="326.48073798471756" x2="289.0601795268723" y2="296.2445077741977"/><line stroke-width="0.6307692307692307" stroke="#999999" x1="179.9711754752528" y1="326.48073798471756" x2="283.83801511229353" y2="411.48552012144813"/><line stroke-width="0.015384615384615385" stroke="#999999" x1="179.9711754752528" y1="326.48073798471756" x2="395.1519280859572" y2="290.88647906820984"/><line stroke-width="0.015384615384615385" stroke="#999999" x1="179.9711754752528" y1="326.48073798471756" x2="340.19362016012974" y2="303.2119903086462"/><line stroke-width="0.6307692307692307" stroke="#999999" x1="179.9711754752528" y1="326.48073798471756" x2="144.72022962753834" y2="342.38721185534166"/><line stroke-width="0.6307692307692307" stroke="#999999" x1="179.9711754752528" y1="326.48073798471756" x2="208.3707324520613" y2="352.3544329897944"/><line stroke-width="0.6307692307692307" stroke="#999999" x1="179.9711754752528" y1="326.48073798471756" x2="138.0403812390321" y2="377.71623305903637"/><line stroke-width="0.015384615384615385" stroke="#999999" x1="179.9711754752528" y1="326.48073798471756" x2="216.81474209072704" y2="300.32556903418197"/><line stroke-width="0.8923076923076922" stroke="#999999" x1="179.9711754752528" y1="326.48073798471756" x2="209.9784269822273" y2="395.5750717941597"/><line stroke-width="0.8923076923076922" stroke="#999999" x1="179.9711754752528" y1="326.48073798471756" x2="190.56008212632617" y2="430.3741283627489"/><line stroke-width="0.8923076923076922" stroke="#999999" x1="179.9711754752528" y1="326.48073798471756" x2="223.41998258418369" y2="425.65907810630506"/><line stroke-width="0.8923076923076922" stroke="#999999" x1="179.9711754752528" y1="326.48073798471756" x2="175.83867952825048" y2="385.738961178138"/><line stroke-width="0.26153846153846155" stroke="#999999" x1="179.9711754752528" y1="326.48073798471756" x2="260.5900417162011" y2="374.3458499247597"/><line stroke-width="0.6307692307692307" stroke="#999999" x1="179.9711754752528" y1="326.48073798471756" x2="151.26835559950766" y2="419.4823464968007"/><line stroke-width="1" stroke="#999999" x1="345.60952841074004" y1="431.1917691975795" x2="289.0601795268723" y2="296.2445077741977"/><line stroke-width="1" stroke="#999999" x1="345.60952841074004" y1="431.1917691975795" x2="283.83801511229353" y2="411.48552012144813"/><line stroke-width="1" stroke="#999999" x1="345.60952841074004" y1="431.1917691975795" x2="395.1519280859572" y2="290.88647906820984"/><line stroke-width="1" stroke="#999999" x1="345.60952841074004" y1="431.1917691975795" x2="317.408857897086" y2="403.6253799833285"/><line stroke-width="1" stroke="#999999" x1="345.60952841074004" y1="431.1917691975795" x2="388.5366635228873" y2="415.7824951168427"/><line stroke-width="1" stroke="#999999" x1="345.60952841074004" y1="431.1917691975795" x2="374.17796080871443" y2="385.5318291915029"/><line stroke-width="1" stroke="#999999" x1="345.60952841074004" y1="431.1917691975795" x2="344.2813187813223" y2="396.0545824429787"/><line stroke-width="1" stroke="#999999" x1="144.72022962753834" y1="342.38721185534166" x2="289.0601795268723" y2="296.2445077741977"/><line stroke-width="1" stroke="#999999" x1="144.72022962753834" y1="342.38721185534166" x2="283.83801511229353" y2="411.48552012144813"/><line stroke-width="1" stroke="#999999" x1="144.72022962753834" y1="342.38721185534166" x2="179.9711754752528" y2="326.48073798471756"/><line stroke-width="1" stroke="#999999" x1="144.72022962753834" y1="342.38721185534166" x2="208.3707324520613" y2="352.3544329897944"/><line stroke-width="1" stroke="#999999" x1="144.72022962753834" y1="342.38721185534166" x2="138.0403812390321" y2="377.71623305903637"/><line stroke-width="1" stroke="#999999" x1="144.72022962753834" y1="342.38721185534166" x2="209.9784269822273" y2="395.5750717941597"/><line stroke-width="1" stroke="#999999" x1="144.72022962753834" y1="342.38721185534166" x2="190.56008212632617" y2="430.3741283627489"/><line stroke-width="1" stroke="#999999" x1="144.72022962753834" y1="342.38721185534166" x2="223.41998258418369" y2="425.65907810630506"/><line stroke-width="1" stroke="#999999" x1="144.72022962753834" y1="342.38721185534166" x2="175.83867952825048" y2="385.738961178138"/><line stroke-width="1" stroke="#999999" x1="144.72022962753834" y1="342.38721185534166" x2="151.26835559950766" y2="419.4823464968007"/><line stroke-width="1" stroke="#999999" x1="289.2487955855713" y1="192.04518959571195" x2="289.0601795268723" y2="296.2445077741977"/><line stroke-width="0.5" stroke="#999999" x1="289.2487955855713" y1="192.04518959571195" x2="280.94212506838636" y2="155.78353162571477"/><line stroke-width="0.5" stroke="#999999" x1="289.2487955855713" y1="192.04518959571195" x2="316.27100323727734" y2="155.1679539776817"/><line stroke-width="1" stroke="#999999" x1="208.3707324520613" y1="352.3544329897944" x2="289.0601795268723" y2="296.2445077741977"/><line stroke-width="1" stroke="#999999" x1="208.3707324520613" y1="352.3544329897944" x2="283.83801511229353" y2="411.48552012144813"/><line stroke-width="1" stroke="#999999" x1="208.3707324520613" y1="352.3544329897944" x2="179.9711754752528" y2="326.48073798471756"/><line stroke-width="1" stroke="#999999" x1="208.3707324520613" y1="352.3544329897944" x2="144.72022962753834" y2="342.38721185534166"/><line stroke-width="1" stroke="#999999" x1="208.3707324520613" y1="352.3544329897944" x2="138.0403812390321" y2="377.71623305903637"/><line stroke-width="1" stroke="#999999" x1="208.3707324520613" y1="352.3544329897944" x2="209.9784269822273" y2="395.5750717941597"/><line stroke-width="1" stroke="#999999" x1="208.3707324520613" y1="352.3544329897944" x2="190.56008212632617" y2="430.3741283627489"/><line stroke-width="1" stroke="#999999" x1="208.3707324520613" y1="352.3544329897944" x2="223.41998258418369" y2="425.65907810630506"/><line stroke-width="1" stroke="#999999" x1="208.3707324520613" y1="352.3544329897944" x2="175.83867952825048" y2="385.738961178138"/><line stroke-width="1" stroke="#999999" x1="208.3707324520613" y1="352.3544329897944" x2="151.26835559950766" y2="419.4823464968007"/><line stroke-width="1" stroke="#999999" x1="316.27100323727734" y1="155.1679539776817" x2="289.0601795268723" y2="296.2445077741977"/><line stroke-width="1" stroke="#999999" x1="316.27100323727734" y1="155.1679539776817" x2="280.94212506838636" y2="155.78353162571477"/><line stroke-width="1" stroke="#999999" x1="316.27100323727734" y1="155.1679539776817" x2="289.2487955855713" y2="192.04518959571195"/><line stroke-width="1" stroke="#999999" x1="451.31792092018145" y1="238.86538397849708" x2="289.0601795268723" y2="296.2445077741977"/><line stroke-width="1" stroke="#999999" x1="451.31792092018145" y1="238.86538397849708" x2="395.1519280859572" y2="290.88647906820984"/><line stroke-width="1" stroke="#999999" x1="451.31792092018145" y1="238.86538397849708" x2="415.47437589298903" y2="253.3179321081948"/><line stroke-width="1" stroke="#999999" x1="451.31792092018145" y1="238.86538397849708" x2="392.26633569928873" y2="221.03058385599797"/><line stroke-width="1" stroke="#999999" x1="451.31792092018145" y1="238.86538397849708" x2="414.4916832728106" y2="206.38578934113593"/><line stroke-width="1" stroke="#999999" x1="451.31792092018145" y1="238.86538397849708" x2="449.7870213850647" y2="198.07959153637836"/><line stroke-width="1" stroke="#999999" x1="451.31792092018145" y1="238.86538397849708" x2="382.66778325863163" y2="184.2905675535767"/><line stroke-width="1" stroke="#999999" x1="451.31792092018145" y1="238.86538397849708" x2="410.6121417131093" y2="162.9773092959797"/><line stroke-width="1" stroke="#999999" x1="451.31792092018145" y1="238.86538397849708" x2="327.7743007983955" y2="196.51797654450965"/><line stroke-width="1" stroke="#999999" x1="138.0403812390321" y1="377.71623305903637" x2="289.0601795268723" y2="296.2445077741977"/><line stroke-width="1" stroke="#999999" x1="138.0403812390321" y1="377.71623305903637" x2="283.83801511229353" y2="411.48552012144813"/><line stroke-width="1" stroke="#999999" x1="138.0403812390321" y1="377.71623305903637" x2="179.9711754752528" y2="326.48073798471756"/><line stroke-width="1" stroke="#999999" x1="138.0403812390321" y1="377.71623305903637" x2="144.72022962753834" y2="342.38721185534166"/><line stroke-width="1" stroke="#999999" x1="138.0403812390321" y1="377.71623305903637" x2="208.3707324520613" y2="352.3544329897944"/><line stroke-width="1" stroke="#999999" x1="138.0403812390321" y1="377.71623305903637" x2="209.9784269822273" y2="395.5750717941597"/><line stroke-width="1" stroke="#999999" x1="138.0403812390321" y1="377.71623305903637" x2="190.56008212632617" y2="430.3741283627489"/><line stroke-width="1" stroke="#999999" x1="138.0403812390321" y1="377.71623305903637" x2="223.41998258418369" y2="425.65907810630506"/><line stroke-width="1" stroke="#999999" x1="138.0403812390321" y1="377.71623305903637" x2="175.83867952825048" y2="385.738961178138"/><line stroke-width="1" stroke="#999999" x1="138.0403812390321" y1="377.71623305903637" x2="151.26835559950766" y2="419.4823464968007"/><line stroke-width="1" stroke="#999999" x1="449.7870213850647" y1="198.07959153637836" x2="289.0601795268723" y2="296.2445077741977"/><line stroke-width="1" stroke="#999999" x1="449.7870213850647" y1="198.07959153637836" x2="395.1519280859572" y2="290.88647906820984"/><line stroke-width="1" stroke="#999999" x1="449.7870213850647" y1="198.07959153637836" x2="415.47437589298903" y2="253.3179321081948"/><line stroke-width="1" stroke="#999999" x1="449.7870213850647" y1="198.07959153637836" x2="392.26633569928873" y2="221.03058385599797"/><line stroke-width="1" stroke="#999999" x1="449.7870213850647" y1="198.07959153637836" x2="414.4916832728106" y2="206.38578934113593"/><line stroke-width="1" stroke="#999999" x1="449.7870213850647" y1="198.07959153637836" x2="451.31792092018145" y2="238.86538397849708"/><line stroke-width="1" stroke="#999999" x1="449.7870213850647" y1="198.07959153637836" x2="382.66778325863163" y2="184.2905675535767"/><line stroke-width="1" stroke="#999999" x1="449.7870213850647" y1="198.07959153637836" x2="410.6121417131093" y2="162.9773092959797"/><line stroke-width="1" stroke="#999999" x1="449.7870213850647" y1="198.07959153637836" x2="327.7743007983955" y2="196.51797654450965"/><line stroke-width="1" stroke="#999999" x1="216.81474209072704" y1="300.32556903418197" x2="289.0601795268723" y2="296.2445077741977"/><line stroke-width="1" stroke="#999999" x1="216.81474209072704" y1="300.32556903418197" x2="179.9711754752528" y2="326.48073798471756"/><line stroke-width="1" stroke="#999999" x1="209.9784269822273" y1="395.5750717941597" x2="289.0601795268723" y2="296.2445077741977"/><line stroke-width="0.25" stroke="#999999" x1="209.9784269822273" y1="395.5750717941597" x2="283.83801511229353" y2="411.48552012144813"/><line stroke-width="1" stroke="#999999" x1="209.9784269822273" y1="395.5750717941597" x2="179.9711754752528" y2="326.48073798471756"/><line stroke-width="0.25" stroke="#999999" x1="209.9784269822273" y1="395.5750717941597" x2="144.72022962753834" y2="342.38721185534166"/><line stroke-width="0.25" stroke="#999999" x1="209.9784269822273" y1="395.5750717941597" x2="208.3707324520613" y2="352.3544329897944"/><line stroke-width="0.25" stroke="#999999" x1="209.9784269822273" y1="395.5750717941597" x2="138.0403812390321" y2="377.71623305903637"/><line stroke-width="1" stroke="#999999" x1="209.9784269822273" y1="395.5750717941597" x2="190.56008212632617" y2="430.3741283627489"/><line stroke-width="1" stroke="#999999" x1="209.9784269822273" y1="395.5750717941597" x2="223.41998258418369" y2="425.65907810630506"/><line stroke-width="1" stroke="#999999" x1="209.9784269822273" y1="395.5750717941597" x2="175.83867952825048" y2="385.738961178138"/><line stroke-width="0.75" stroke="#999999" x1="209.9784269822273" y1="395.5750717941597" x2="260.5900417162011" y2="374.3458499247597"/><line stroke-width="0.25" stroke="#999999" x1="209.9784269822273" y1="395.5750717941597" x2="151.26835559950766" y2="419.4823464968007"/><line stroke-width="1" stroke="#999999" x1="405.83629469831453" y1="356.92461034891954" x2="289.0601795268723" y2="296.2445077741977"/><line stroke-width="1" stroke="#999999" x1="405.83629469831453" y1="356.92461034891954" x2="283.83801511229353" y2="411.48552012144813"/><line stroke-width="1" stroke="#999999" x1="405.83629469831453" y1="356.92461034891954" x2="395.1519280859572" y2="290.88647906820984"/><line stroke-width="1" stroke="#999999" x1="405.83629469831453" y1="356.92461034891954" x2="340.19362016012974" y2="303.2119903086462"/><line stroke-width="1" stroke="#999999" x1="405.83629469831453" y1="356.92461034891954" x2="352.07997349058735" y2="340.27013106622314"/><line stroke-width="1" stroke="#999999" x1="405.83629469831453" y1="356.92461034891954" x2="373.6100672748965" y2="323.69943829054984"/><line stroke-width="1" stroke="#999999" x1="405.83629469831453" y1="356.92461034891954" x2="405.46962871039574" y2="331.15480011919664"/><line stroke-width="1" stroke="#999999" x1="296.0855667808081" y1="242.69724233125882" x2="289.0601795268723" y2="296.2445077741977"/><line stroke-width="1" stroke="#999999" x1="296.0855667808081" y1="242.69724233125882" x2="395.1519280859572" y2="290.88647906820984"/><line stroke-width="1" stroke="#999999" x1="296.0855667808081" y1="242.69724233125882" x2="229.2453247349278" y2="260.0953055008267"/><line stroke-width="1" stroke="#999999" x1="296.0855667808081" y1="242.69724233125882" x2="328.1584641223408" y2="229.7930202445671"/><line stroke-width="1" stroke="#999999" x1="296.0855667808081" y1="242.69724233125882" x2="270.8867860223226" y2="269.3826937813582"/><line stroke-width="1" stroke="#999999" x1="296.0855667808081" y1="242.69724233125882" x2="327.7743007983955" y2="196.51797654450965"/><line stroke-width="1" stroke="#999999" x1="293.1599001828297" y1="354.254162473623" x2="289.0601795268723" y2="296.2445077741977"/><line stroke-width="0.8" stroke="#999999" x1="293.1599001828297" y1="354.254162473623" x2="283.83801511229353" y2="411.48552012144813"/><line stroke-width="0.6" stroke="#999999" x1="293.1599001828297" y1="354.254162473623" x2="395.1519280859572" y2="290.88647906820984"/><line stroke-width="0.8" stroke="#999999" x1="293.1599001828297" y1="354.254162473623" x2="317.408857897086" y2="403.6253799833285"/><line stroke-width="0.2" stroke="#999999" x1="293.1599001828297" y1="354.254162473623" x2="260.5900417162011" y2="374.3458499247597"/><line stroke-width="1" stroke="#999999" x1="190.56008212632617" y1="430.3741283627489" x2="289.0601795268723" y2="296.2445077741977"/><line stroke-width="0.25" stroke="#999999" x1="190.56008212632617" y1="430.3741283627489" x2="283.83801511229353" y2="411.48552012144813"/><line stroke-width="1" stroke="#999999" x1="190.56008212632617" y1="430.3741283627489" x2="179.9711754752528" y2="326.48073798471756"/><line stroke-width="0.25" stroke="#999999" x1="190.56008212632617" y1="430.3741283627489" x2="144.72022962753834" y2="342.38721185534166"/><line stroke-width="0.25" stroke="#999999" x1="190.56008212632617" y1="430.3741283627489" x2="208.3707324520613" y2="352.3544329897944"/><line stroke-width="0.25" stroke="#999999" x1="190.56008212632617" y1="430.3741283627489" x2="138.0403812390321" y2="377.71623305903637"/><line stroke-width="1" stroke="#999999" x1="190.56008212632617" y1="430.3741283627489" x2="209.9784269822273" y2="395.5750717941597"/><line stroke-width="1" stroke="#999999" x1="190.56008212632617" y1="430.3741283627489" x2="223.41998258418369" y2="425.65907810630506"/><line stroke-width="1" stroke="#999999" x1="190.56008212632617" y1="430.3741283627489" x2="175.83867952825048" y2="385.738961178138"/><line stroke-width="0.75" stroke="#999999" x1="190.56008212632617" y1="430.3741283627489" x2="260.5900417162011" y2="374.3458499247597"/><line stroke-width="0.25" stroke="#999999" x1="190.56008212632617" y1="430.3741283627489" x2="151.26835559950766" y2="419.4823464968007"/><line stroke-width="1" stroke="#999999" x1="328.1584641223408" y1="229.7930202445671" x2="289.0601795268723" y2="296.2445077741977"/><line stroke-width="1" stroke="#999999" x1="328.1584641223408" y1="229.7930202445671" x2="395.1519280859572" y2="290.88647906820984"/><line stroke-width="0.5" stroke="#999999" x1="328.1584641223408" y1="229.7930202445671" x2="352.8153956416586" y2="254.61693584281576"/><line stroke-width="0.5" stroke="#999999" x1="328.1584641223408" y1="229.7930202445671" x2="229.2453247349278" y2="260.0953055008267"/><line stroke-width="0.5" stroke="#999999" x1="328.1584641223408" y1="229.7930202445671" x2="296.0855667808081" y2="242.69724233125882"/><line stroke-width="0.5" stroke="#999999" x1="328.1584641223408" y1="229.7930202445671" x2="270.8867860223226" y2="269.3826937813582"/><line stroke-width="1" stroke="#999999" x1="328.1584641223408" y1="229.7930202445671" x2="327.7743007983955" y2="196.51797654450965"/><line stroke-width="1" stroke="#999999" x1="374.17796080871443" y1="385.5318291915029" x2="289.0601795268723" y2="296.2445077741977"/><line stroke-width="0.6666666666666666" stroke="#999999" x1="374.17796080871443" y1="385.5318291915029" x2="283.83801511229353" y2="411.48552012144813"/><line stroke-width="0.6666666666666666" stroke="#999999" x1="374.17796080871443" y1="385.5318291915029" x2="395.1519280859572" y2="290.88647906820984"/><line stroke-width="0.6666666666666666" stroke="#999999" x1="374.17796080871443" y1="385.5318291915029" x2="317.408857897086" y2="403.6253799833285"/><line stroke-width="0.6666666666666666" stroke="#999999" x1="374.17796080871443" y1="385.5318291915029" x2="388.5366635228873" y2="415.7824951168427"/><line stroke-width="0.6666666666666666" stroke="#999999" x1="374.17796080871443" y1="385.5318291915029" x2="345.60952841074004" y2="431.1917691975795"/><line stroke-width="0.3333333333333333" stroke="#999999" x1="374.17796080871443" y1="385.5318291915029" x2="260.5900417162011" y2="374.3458499247597"/><line stroke-width="1" stroke="#999999" x1="374.17796080871443" y1="385.5318291915029" x2="344.2813187813223" y2="396.0545824429787"/><line stroke-width="1" stroke="#999999" x1="270.8867860223226" y1="269.3826937813582" x2="289.0601795268723" y2="296.2445077741977"/><line stroke-width="0.6086956521739131" stroke="#999999" x1="270.8867860223226" y1="269.3826937813582" x2="395.1519280859572" y2="290.88647906820984"/><line stroke-width="1" stroke="#999999" x1="270.8867860223226" y1="269.3826937813582" x2="229.2453247349278" y2="260.0953055008267"/><line stroke-width="0.6086956521739131" stroke="#999999" x1="270.8867860223226" y1="269.3826937813582" x2="296.0855667808081" y2="242.69724233125882"/><line stroke-width="0.6086956521739131" stroke="#999999" x1="270.8867860223226" y1="269.3826937813582" x2="328.1584641223408" y2="229.7930202445671"/><line stroke-width="0.391304347826087" stroke="#999999" x1="270.8867860223226" y1="269.3826937813582" x2="260.5900417162011" y2="374.3458499247597"/><line stroke-width="0.6086956521739131" stroke="#999999" x1="270.8867860223226" y1="269.3826937813582" x2="327.7743007983955" y2="196.51797654450965"/><line stroke-width="1" stroke="#999999" x1="314.6389395420634" y1="271.91849947785227" x2="289.0601795268723" y2="296.2445077741977"/><line stroke-width="1" stroke="#999999" x1="223.41998258418369" y1="425.65907810630506" x2="289.0601795268723" y2="296.2445077741977"/><line stroke-width="0.7" stroke="#999999" x1="223.41998258418369" y1="425.65907810630506" x2="283.83801511229353" y2="411.48552012144813"/><line stroke-width="1" stroke="#999999" x1="223.41998258418369" y1="425.65907810630506" x2="179.9711754752528" y2="326.48073798471756"/><line stroke-width="0.7" stroke="#999999" x1="223.41998258418369" y1="425.65907810630506" x2="144.72022962753834" y2="342.38721185534166"/><line stroke-width="0.7" stroke="#999999" x1="223.41998258418369" y1="425.65907810630506" x2="208.3707324520613" y2="352.3544329897944"/><line stroke-width="0.7" stroke="#999999" x1="223.41998258418369" y1="425.65907810630506" x2="138.0403812390321" y2="377.71623305903637"/><line stroke-width="1" stroke="#999999" x1="223.41998258418369" y1="425.65907810630506" x2="209.9784269822273" y2="395.5750717941597"/><line stroke-width="1" stroke="#999999" x1="223.41998258418369" y1="425.65907810630506" x2="190.56008212632617" y2="430.3741283627489"/><line stroke-width="1" stroke="#999999" x1="223.41998258418369" y1="425.65907810630506" x2="175.83867952825048" y2="385.738961178138"/><line stroke-width="0.3" stroke="#999999" x1="223.41998258418369" y1="425.65907810630506" x2="260.5900417162011" y2="374.3458499247597"/><line stroke-width="0.7" stroke="#999999" x1="223.41998258418369" y1="425.65907810630506" x2="151.26835559950766" y2="419.4823464968007"/><line stroke-width="1" stroke="#999999" x1="175.83867952825048" y1="385.738961178138" x2="289.0601795268723" y2="296.2445077741977"/><line stroke-width="0.5" stroke="#999999" x1="175.83867952825048" y1="385.738961178138" x2="283.83801511229353" y2="411.48552012144813"/><line stroke-width="1" stroke="#999999" x1="175.83867952825048" y1="385.738961178138" x2="179.9711754752528" y2="326.48073798471756"/><line stroke-width="0.5" stroke="#999999" x1="175.83867952825048" y1="385.738961178138" x2="144.72022962753834" y2="342.38721185534166"/><line stroke-width="0.5" stroke="#999999" x1="175.83867952825048" y1="385.738961178138" x2="208.3707324520613" y2="352.3544329897944"/><line stroke-width="0.5" stroke="#999999" x1="175.83867952825048" y1="385.738961178138" x2="138.0403812390321" y2="377.71623305903637"/><line stroke-width="1" stroke="#999999" x1="175.83867952825048" y1="385.738961178138" x2="209.9784269822273" y2="395.5750717941597"/><line stroke-width="1" stroke="#999999" x1="175.83867952825048" y1="385.738961178138" x2="190.56008212632617" y2="430.3741283627489"/><line stroke-width="1" stroke="#999999" x1="175.83867952825048" y1="385.738961178138" x2="223.41998258418369" y2="425.65907810630506"/><line stroke-width="0.5" stroke="#999999" x1="175.83867952825048" y1="385.738961178138" x2="260.5900417162011" y2="374.3458499247597"/><line stroke-width="0.5" stroke="#999999" x1="175.83867952825048" y1="385.738961178138" x2="151.26835559950766" y2="419.4823464968007"/><line stroke-width="1" stroke="#999999" x1="236.8022640551087" y1="178.0163068735077" x2="289.0601795268723" y2="296.2445077741977"/><line stroke-width="1" stroke="#999999" x1="236.8022640551087" y1="178.0163068735077" x2="205.27358115080662" y2="193.3128364312284"/><line stroke-width="1" stroke="#999999" x1="236.8022640551087" y1="178.0163068735077" x2="240.51741027441938" y2="220.00499453362661"/><line stroke-width="1" stroke="#999999" x1="236.8022640551087" y1="178.0163068735077" x2="208.9217712180548" y2="233.35772597112359"/><line stroke-width="1" stroke="#999999" x1="236.8022640551087" y1="178.0163068735077" x2="229.2453247349278" y2="260.0953055008267"/><line stroke-width="1" stroke="#999999" x1="236.8022640551087" y1="178.0163068735077" x2="327.7743007983955" y2="196.51797654450965"/><line stroke-width="1" stroke="#999999" x1="260.5900417162011" y1="374.3458499247597" x2="289.0601795268723" y2="296.2445077741977"/><line stroke-width="0.30000000000000004" stroke="#999999" x1="260.5900417162011" y1="374.3458499247597" x2="283.83801511229353" y2="411.48552012144813"/><line stroke-width="0.30000000000000004" stroke="#999999" x1="260.5900417162011" y1="374.3458499247597" x2="395.1519280859572" y2="290.88647906820984"/><line stroke-width="0.2" stroke="#999999" x1="260.5900417162011" y1="374.3458499247597" x2="317.408857897086" y2="403.6253799833285"/><line stroke-width="0.2" stroke="#999999" x1="260.5900417162011" y1="374.3458499247597" x2="340.19362016012974" y2="303.2119903086462"/><line stroke-width="0.1" stroke="#999999" x1="260.5900417162011" y1="374.3458499247597" x2="415.47437589298903" y2="253.3179321081948"/><line stroke-width="0.1" stroke="#999999" x1="260.5900417162011" y1="374.3458499247597" x2="352.07997349058735" y2="340.27013106622314"/><line stroke-width="0.1" stroke="#999999" x1="260.5900417162011" y1="374.3458499247597" x2="208.9217712180548" y2="233.35772597112359"/><line stroke-width="0.1" stroke="#999999" x1="260.5900417162011" y1="374.3458499247597" x2="229.2453247349278" y2="260.0953055008267"/><line stroke-width="0.1" stroke="#999999" x1="260.5900417162011" y1="374.3458499247597" x2="179.9711754752528" y2="326.48073798471756"/><line stroke-width="0.1" stroke="#999999" x1="260.5900417162011" y1="374.3458499247597" x2="209.9784269822273" y2="395.5750717941597"/><line stroke-width="0.2" stroke="#999999" x1="260.5900417162011" y1="374.3458499247597" x2="293.1599001828297" y2="354.254162473623"/><line stroke-width="0.1" stroke="#999999" x1="260.5900417162011" y1="374.3458499247597" x2="190.56008212632617" y2="430.3741283627489"/><line stroke-width="0.2" stroke="#999999" x1="260.5900417162011" y1="374.3458499247597" x2="374.17796080871443" y2="385.5318291915029"/><line stroke-width="0.1" stroke="#999999" x1="260.5900417162011" y1="374.3458499247597" x2="270.8867860223226" y2="269.3826937813582"/><line stroke-width="0.1" stroke="#999999" x1="260.5900417162011" y1="374.3458499247597" x2="223.41998258418369" y2="425.65907810630506"/><line stroke-width="0.1" stroke="#999999" x1="260.5900417162011" y1="374.3458499247597" x2="175.83867952825048" y2="385.738961178138"/><line stroke-width="0.2" stroke="#999999" x1="260.5900417162011" y1="374.3458499247597" x2="344.2813187813223" y2="396.0545824429787"/><line stroke-width="0.1" stroke="#999999" x1="260.5900417162011" y1="374.3458499247597" x2="373.6100672748965" y2="323.69943829054984"/><line stroke-width="1" stroke="#999999" x1="382.66778325863163" y1="184.2905675535767" x2="289.0601795268723" y2="296.2445077741977"/><line stroke-width="1" stroke="#999999" x1="382.66778325863163" y1="184.2905675535767" x2="395.1519280859572" y2="290.88647906820984"/><line stroke-width="1" stroke="#999999" x1="382.66778325863163" y1="184.2905675535767" x2="415.47437589298903" y2="253.3179321081948"/><line stroke-width="1" stroke="#999999" x1="382.66778325863163" y1="184.2905675535767" x2="392.26633569928873" y2="221.03058385599797"/><line stroke-width="1" stroke="#999999" x1="382.66778325863163" y1="184.2905675535767" x2="414.4916832728106" y2="206.38578934113593"/><line stroke-width="1" stroke="#999999" x1="382.66778325863163" y1="184.2905675535767" x2="451.31792092018145" y2="238.86538397849708"/><line stroke-width="1" stroke="#999999" x1="382.66778325863163" y1="184.2905675535767" x2="449.7870213850647" y2="198.07959153637836"/><line stroke-width="1" stroke="#999999" x1="382.66778325863163" y1="184.2905675535767" x2="410.6121417131093" y2="162.9773092959797"/><line stroke-width="1" stroke="#999999" x1="382.66778325863163" y1="184.2905675535767" x2="327.7743007983955" y2="196.51797654450965"/><line stroke-width="1" stroke="#999999" x1="261.19395370179694" y1="343.9044936415207" x2="289.0601795268723" y2="296.2445077741977"/><line stroke-width="1" stroke="#999999" x1="261.19395370179694" y1="343.9044936415207" x2="283.83801511229353" y2="411.48552012144813"/><line stroke-width="1" stroke="#999999" x1="151.26835559950766" y1="419.4823464968007" x2="289.0601795268723" y2="296.2445077741977"/><line stroke-width="1" stroke="#999999" x1="151.26835559950766" y1="419.4823464968007" x2="283.83801511229353" y2="411.48552012144813"/><line stroke-width="1" stroke="#999999" x1="151.26835559950766" y1="419.4823464968007" x2="179.9711754752528" y2="326.48073798471756"/><line stroke-width="1" stroke="#999999" x1="151.26835559950766" y1="419.4823464968007" x2="144.72022962753834" y2="342.38721185534166"/><line stroke-width="1" stroke="#999999" x1="151.26835559950766" y1="419.4823464968007" x2="208.3707324520613" y2="352.3544329897944"/><line stroke-width="1" stroke="#999999" x1="151.26835559950766" y1="419.4823464968007" x2="138.0403812390321" y2="377.71623305903637"/><line stroke-width="1" stroke="#999999" x1="151.26835559950766" y1="419.4823464968007" x2="209.9784269822273" y2="395.5750717941597"/><line stroke-width="1" stroke="#999999" x1="151.26835559950766" y1="419.4823464968007" x2="190.56008212632617" y2="430.3741283627489"/><line stroke-width="1" stroke="#999999" x1="151.26835559950766" y1="419.4823464968007" x2="223.41998258418369" y2="425.65907810630506"/><line stroke-width="1" stroke="#999999" x1="151.26835559950766" y1="419.4823464968007" x2="175.83867952825048" y2="385.738961178138"/><line stroke-width="1" stroke="#999999" x1="410.6121417131093" y1="162.9773092959797" x2="289.0601795268723" y2="296.2445077741977"/><line stroke-width="1" stroke="#999999" x1="410.6121417131093" y1="162.9773092959797" x2="395.1519280859572" y2="290.88647906820984"/><line stroke-width="1" stroke="#999999" x1="410.6121417131093" y1="162.9773092959797" x2="415.47437589298903" y2="253.3179321081948"/><line stroke-width="1" stroke="#999999" x1="410.6121417131093" y1="162.9773092959797" x2="392.26633569928873" y2="221.03058385599797"/><line stroke-width="1" stroke="#999999" x1="410.6121417131093" y1="162.9773092959797" x2="414.4916832728106" y2="206.38578934113593"/><line stroke-width="1" stroke="#999999" x1="410.6121417131093" y1="162.9773092959797" x2="451.31792092018145" y2="238.86538397849708"/><line stroke-width="1" stroke="#999999" x1="410.6121417131093" y1="162.9773092959797" x2="449.7870213850647" y2="198.07959153637836"/><line stroke-width="1" stroke="#999999" x1="410.6121417131093" y1="162.9773092959797" x2="382.66778325863163" y2="184.2905675535767"/><line stroke-width="1" stroke="#999999" x1="410.6121417131093" y1="162.9773092959797" x2="327.7743007983955" y2="196.51797654450965"/><line stroke-width="1" stroke="#999999" x1="344.2813187813223" y1="396.0545824429787" x2="289.0601795268723" y2="296.2445077741977"/><line stroke-width="0.6666666666666666" stroke="#999999" x1="344.2813187813223" y1="396.0545824429787" x2="283.83801511229353" y2="411.48552012144813"/><line stroke-width="0.6666666666666666" stroke="#999999" x1="344.2813187813223" y1="396.0545824429787" x2="395.1519280859572" y2="290.88647906820984"/><line stroke-width="0.6666666666666666" stroke="#999999" x1="344.2813187813223" y1="396.0545824429787" x2="317.408857897086" y2="403.6253799833285"/><line stroke-width="0.6666666666666666" stroke="#999999" x1="344.2813187813223" y1="396.0545824429787" x2="388.5366635228873" y2="415.7824951168427"/><line stroke-width="0.6666666666666666" stroke="#999999" x1="344.2813187813223" y1="396.0545824429787" x2="345.60952841074004" y2="431.1917691975795"/><line stroke-width="1" stroke="#999999" x1="344.2813187813223" y1="396.0545824429787" x2="374.17796080871443" y2="385.5318291915029"/><line stroke-width="0.3333333333333333" stroke="#999999" x1="344.2813187813223" y1="396.0545824429787" x2="260.5900417162011" y2="374.3458499247597"/><line stroke-width="1" stroke="#999999" x1="373.6100672748965" y1="323.69943829054984" x2="289.0601795268723" y2="296.2445077741977"/><line stroke-width="0.6666666666666666" stroke="#999999" x1="373.6100672748965" y1="323.69943829054984" x2="283.83801511229353" y2="411.48552012144813"/><line stroke-width="0.6666666666666666" stroke="#999999" x1="373.6100672748965" y1="323.69943829054984" x2="395.1519280859572" y2="290.88647906820984"/><line stroke-width="0.6666666666666666" stroke="#999999" x1="373.6100672748965" y1="323.69943829054984" x2="340.19362016012974" y2="303.2119903086462"/><line stroke-width="0.6666666666666666" stroke="#999999" x1="373.6100672748965" y1="323.69943829054984" x2="352.07997349058735" y2="340.27013106622314"/><line stroke-width="0.3333333333333333" stroke="#999999" x1="373.6100672748965" y1="323.69943829054984" x2="405.83629469831453" y2="356.92461034891954"/><line stroke-width="0.3333333333333333" stroke="#999999" x1="373.6100672748965" y1="323.69943829054984" x2="260.5900417162011" y2="374.3458499247597"/><line stroke-width="0.3333333333333333" stroke="#999999" x1="373.6100672748965" y1="323.69943829054984" x2="405.46962871039574" y2="331.15480011919664"/><line stroke-width="1" stroke="#999999" x1="405.46962871039574" y1="331.15480011919664" x2="289.0601795268723" y2="296.2445077741977"/><line stroke-width="1" stroke="#999999" x1="405.46962871039574" y1="331.15480011919664" x2="283.83801511229353" y2="411.48552012144813"/><line stroke-width="1" stroke="#999999" x1="405.46962871039574" y1="331.15480011919664" x2="395.1519280859572" y2="290.88647906820984"/><line stroke-width="1" stroke="#999999" x1="405.46962871039574" y1="331.15480011919664" x2="340.19362016012974" y2="303.2119903086462"/><line stroke-width="1" stroke="#999999" x1="405.46962871039574" y1="331.15480011919664" x2="352.07997349058735" y2="340.27013106622314"/><line stroke-width="1" stroke="#999999" x1="405.46962871039574" y1="331.15480011919664" x2="405.83629469831453" y2="356.92461034891954"/><line stroke-width="1" stroke="#999999" x1="405.46962871039574" y1="331.15480011919664" x2="373.6100672748965" y2="323.69943829054984"/><line stroke-width="1" stroke="#999999" x1="327.7743007983955" y1="196.51797654450965" x2="289.0601795268723" y2="296.2445077741977"/><line stroke-width="0.75" stroke="#999999" x1="327.7743007983955" y1="196.51797654450965" x2="395.1519280859572" y2="290.88647906820984"/><line stroke-width="0.25" stroke="#999999" x1="327.7743007983955" y1="196.51797654450965" x2="205.27358115080662" y2="193.3128364312284"/><line stroke-width="0.25" stroke="#999999" x1="327.7743007983955" y1="196.51797654450965" x2="415.47437589298903" y2="253.3179321081948"/><line stroke-width="0.25" stroke="#999999" x1="327.7743007983955" y1="196.51797654450965" x2="392.26633569928873" y2="221.03058385599797"/><line stroke-width="0.25" stroke="#999999" x1="327.7743007983955" y1="196.51797654450965" x2="240.51741027441938" y2="220.00499453362661"/><line stroke-width="0.25" stroke="#999999" x1="327.7743007983955" y1="196.51797654450965" x2="208.9217712180548" y2="233.35772597112359"/><line stroke-width="0.25" stroke="#999999" x1="327.7743007983955" y1="196.51797654450965" x2="414.4916832728106" y2="206.38578934113593"/><line stroke-width="0.25" stroke="#999999" x1="327.7743007983955" y1="196.51797654450965" x2="352.8153956416586" y2="254.61693584281576"/><line stroke-width="0.5" stroke="#999999" x1="327.7743007983955" y1="196.51797654450965" x2="229.2453247349278" y2="260.0953055008267"/><line stroke-width="0.25" stroke="#999999" x1="327.7743007983955" y1="196.51797654450965" x2="451.31792092018145" y2="238.86538397849708"/><line stroke-width="0.25" stroke="#999999" x1="327.7743007983955" y1="196.51797654450965" x2="449.7870213850647" y2="198.07959153637836"/><line stroke-width="0.25" stroke="#999999" x1="327.7743007983955" y1="196.51797654450965" x2="296.0855667808081" y2="242.69724233125882"/><line stroke-width="0.5" stroke="#999999" x1="327.7743007983955" y1="196.51797654450965" x2="328.1584641223408" y2="229.7930202445671"/><line stroke-width="0.25" stroke="#999999" x1="327.7743007983955" y1="196.51797654450965" x2="270.8867860223226" y2="269.3826937813582"/><line stroke-width="0.25" stroke="#999999" x1="327.7743007983955" y1="196.51797654450965" x2="236.8022640551087" y2="178.0163068735077"/><line stroke-width="0.25" stroke="#999999" x1="327.7743007983955" y1="196.51797654450965" x2="382.66778325863163" y2="184.2905675535767"/><line stroke-width="0.25" stroke="#999999" x1="327.7743007983955" y1="196.51797654450965" x2="410.6121417131093" y2="162.9773092959797"/></g><g class="nodes_UhHpXWIL"><g><circle id="n_1" r="5" fill="#99ccff" cx="289.0601795268723" cy="296.2445077741977"><title>n_1</title></circle><text x="0" y="-7" id="n_1" class="label_UhHpXWIL" transform="translate(289.0601795268723,296.2445077741977)" cx="289.0601795268723" cy="296.2445077741977">n_1</text></g><g><circle id="n_8" r="5" fill="#99ccff" cx="283.83801511229353" cy="411.48552012144813"><title>n_8</title></circle><text x="0" y="-7" id="n_8" class="label_UhHpXWIL" transform="translate(283.83801511229353,411.48552012144813)" cx="283.83801511229353" cy="411.48552012144813">n_8</text></g><g><circle id="n_9" r="5" fill="#99ccff" cx="395.1519280859572" cy="290.88647906820984"><title>n_9</title></circle><text x="0" y="-7" id="n_9" class="label_UhHpXWIL" transform="translate(395.1519280859572,290.88647906820984)" cx="395.1519280859572" cy="290.88647906820984">n_9</text></g><g><circle id="n_10" r="5" fill="#99ccff" cx="317.408857897086" cy="403.6253799833285"><title>n_10</title></circle><text x="0" y="-7" id="n_10" class="label_UhHpXWIL" transform="translate(317.408857897086,403.6253799833285)" cx="317.408857897086" cy="403.6253799833285">n_10</text></g><g><circle id="n_11" r="5" fill="#99ccff" cx="205.27358115080662" cy="193.3128364312284"><title>n_11</title></circle><text x="0" y="-7" id="n_11" class="label_UhHpXWIL" transform="translate(205.27358115080662,193.3128364312284)" cx="205.27358115080662" cy="193.3128364312284">n_11</text></g><g><circle id="n_12" r="5" fill="#99ccff" cx="340.19362016012974" cy="303.2119903086462"><title>n_12</title></circle><text x="0" y="-7" id="n_12" class="label_UhHpXWIL" transform="translate(340.19362016012974,303.2119903086462)" cx="340.19362016012974" cy="303.2119903086462">n_12</text></g><g><circle id="n_13" r="5" fill="#99ccff" cx="415.47437589298903" cy="253.3179321081948"><title>n_13</title></circle><text x="0" y="-7" id="n_13" class="label_UhHpXWIL" transform="translate(415.47437589298903,253.3179321081948)" cx="415.47437589298903" cy="253.3179321081948">n_13</text></g><g><circle id="n_14" r="5" fill="#99ccff" cx="352.07997349058735" cy="340.27013106622314"><title>n_14</title></circle><text x="0" y="-7" id="n_14" class="label_UhHpXWIL" transform="translate(352.07997349058735,340.27013106622314)" cx="352.07997349058735" cy="340.27013106622314">n_14</text></g><g><circle id="n_15" r="5" fill="#99ccff" cx="388.5366635228873" cy="415.7824951168427"><title>n_15</title></circle><text x="0" y="-7" id="n_15" class="label_UhHpXWIL" transform="translate(388.5366635228873,415.7824951168427)" cx="388.5366635228873" cy="415.7824951168427">n_15</text></g><g><circle id="n_16" r="5" fill="#99ccff" cx="392.26633569928873" cy="221.03058385599797"><title>n_16</title></circle><text x="0" y="-7" id="n_16" class="label_UhHpXWIL" transform="translate(392.26633569928873,221.03058385599797)" cx="392.26633569928873" cy="221.03058385599797">n_16</text></g><g><circle id="n_17" r="5" fill="#99ccff" cx="306.8321455176555" cy="314.8262184824604"><title>n_17</title></circle><text x="0" y="-7" id="n_17" class="label_UhHpXWIL" transform="translate(306.8321455176555,314.8262184824604)" cx="306.8321455176555" cy="314.8262184824604">n_17</text></g><g><circle id="n_18" r="5" fill="#99ccff" cx="240.51741027441938" cy="220.00499453362661"><title>n_18</title></circle><text x="0" y="-7" id="n_18" class="label_UhHpXWIL" transform="translate(240.51741027441938,220.00499453362661)" cx="240.51741027441938" cy="220.00499453362661">n_18</text></g><g><circle id="n_2" r="5" fill="#99ccff" cx="208.9217712180548" cy="233.35772597112359"><title>n_2</title></circle><text x="0" y="-7" id="n_2" class="label_UhHpXWIL" transform="translate(208.9217712180548,233.35772597112359)" cx="208.9217712180548" cy="233.35772597112359">n_2</text></g><g><circle id="n_19" r="5" fill="#99ccff" cx="414.4916832728106" cy="206.38578934113593"><title>n_19</title></circle><text x="0" y="-7" id="n_19" class="label_UhHpXWIL" transform="translate(414.4916832728106,206.38578934113593)" cx="414.4916832728106" cy="206.38578934113593">n_19</text></g><g><circle id="n_20" r="5" fill="#99ccff" cx="352.8153956416586" cy="254.61693584281576"><title>n_20</title></circle><text x="0" y="-7" id="n_20" class="label_UhHpXWIL" transform="translate(352.8153956416586,254.61693584281576)" cx="352.8153956416586" cy="254.61693584281576">n_20</text></g><g><circle id="n_21" r="5" fill="#99ccff" cx="229.2453247349278" cy="260.0953055008267"><title>n_21</title></circle><text x="0" y="-7" id="n_21" class="label_UhHpXWIL" transform="translate(229.2453247349278,260.0953055008267)" cx="229.2453247349278" cy="260.0953055008267">n_21</text></g><g><circle id="n_22" r="5" fill="#99ccff" cx="309.6441251401654" cy="353.183815728065"><title>n_22</title></circle><text x="0" y="-7" id="n_22" class="label_UhHpXWIL" transform="translate(309.6441251401654,353.183815728065)" cx="309.6441251401654" cy="353.183815728065">n_22</text></g><g><circle id="n_23" r="5" fill="#99ccff" cx="280.94212506838636" cy="155.78353162571477"><title>n_23</title></circle><text x="0" y="-7" id="n_23" class="label_UhHpXWIL" transform="translate(280.94212506838636,155.78353162571477)" cx="280.94212506838636" cy="155.78353162571477">n_23</text></g><g><circle id="n_7" r="5" fill="#99ccff" cx="179.9711754752528" cy="326.48073798471756"><title>n_7</title></circle><text x="0" y="-7" id="n_7" class="label_UhHpXWIL" transform="translate(179.9711754752528,326.48073798471756)" cx="179.9711754752528" cy="326.48073798471756">n_7</text></g><g><circle id="n_24" r="5" fill="#99ccff" cx="345.60952841074004" cy="431.1917691975795"><title>n_24</title></circle><text x="0" y="-7" id="n_24" class="label_UhHpXWIL" transform="translate(345.60952841074004,431.1917691975795)" cx="345.60952841074004" cy="431.1917691975795">n_24</text></g><g><circle id="n_25" r="5" fill="#99ccff" cx="144.72022962753834" cy="342.38721185534166"><title>n_25</title></circle><text x="0" y="-7" id="n_25" class="label_UhHpXWIL" transform="translate(144.72022962753834,342.38721185534166)" cx="144.72022962753834" cy="342.38721185534166">n_25</text></g><g><circle id="n_26" r="5" fill="#99ccff" cx="289.2487955855713" cy="192.04518959571195"><title>n_26</title></circle><text x="0" y="-7" id="n_26" class="label_UhHpXWIL" transform="translate(289.2487955855713,192.04518959571195)" cx="289.2487955855713" cy="192.04518959571195">n_26</text></g><g><circle id="n_27" r="5" fill="#99ccff" cx="208.3707324520613" cy="352.3544329897944"><title>n_27</title></circle><text x="0" y="-7" id="n_27" class="label_UhHpXWIL" transform="translate(208.3707324520613,352.3544329897944)" cx="208.3707324520613" cy="352.3544329897944">n_27</text></g><g><circle id="n_28" r="5" fill="#99ccff" cx="316.27100323727734" cy="155.1679539776817"><title>n_28</title></circle><text x="0" y="-7" id="n_28" class="label_UhHpXWIL" transform="translate(316.27100323727734,155.1679539776817)" cx="316.27100323727734" cy="155.1679539776817">n_28</text></g><g><circle id="n_29" r="5" fill="#99ccff" cx="451.31792092018145" cy="238.86538397849708"><title>n_29</title></circle><text x="0" y="-7" id="n_29" class="label_UhHpXWIL" transform="translate(451.31792092018145,238.86538397849708)" cx="451.31792092018145" cy="238.86538397849708">n_29</text></g><g><circle id="n_30" r="5" fill="#99ccff" cx="138.0403812390321" cy="377.71623305903637"><title>n_30</title></circle><text x="0" y="-7" id="n_30" class="label_UhHpXWIL" transform="translate(138.0403812390321,377.71623305903637)" cx="138.0403812390321" cy="377.71623305903637">n_30</text></g><g><circle id="n_31" r="5" fill="#99ccff" cx="449.7870213850647" cy="198.07959153637836"><title>n_31</title></circle><text x="0" y="-7" id="n_31" class="label_UhHpXWIL" transform="translate(449.7870213850647,198.07959153637836)" cx="449.7870213850647" cy="198.07959153637836">n_31</text></g><g><circle id="n_32" r="5" fill="#99ccff" cx="216.81474209072704" cy="300.32556903418197"><title>n_32</title></circle><text x="0" y="-7" id="n_32" class="label_UhHpXWIL" transform="translate(216.81474209072704,300.32556903418197)" cx="216.81474209072704" cy="300.32556903418197">n_32</text></g><g><circle id="n_33" r="5" fill="#99ccff" cx="209.9784269822273" cy="395.5750717941597"><title>n_33</title></circle><text x="0" y="-7" id="n_33" class="label_UhHpXWIL" transform="translate(209.9784269822273,395.5750717941597)" cx="209.9784269822273" cy="395.5750717941597">n_33</text></g><g><circle id="n_34" r="5" fill="#99ccff" cx="405.83629469831453" cy="356.92461034891954"><title>n_34</title></circle><text x="0" y="-7" id="n_34" class="label_UhHpXWIL" transform="translate(405.83629469831453,356.92461034891954)" cx="405.83629469831453" cy="356.92461034891954">n_34</text></g><g><circle id="n_35" r="5" fill="#99ccff" cx="296.0855667808081" cy="242.69724233125882"><title>n_35</title></circle><text x="0" y="-7" id="n_35" class="label_UhHpXWIL" transform="translate(296.0855667808081,242.69724233125882)" cx="296.0855667808081" cy="242.69724233125882">n_35</text></g><g><circle id="n_36" r="5" fill="#99ccff" cx="293.1599001828297" cy="354.254162473623"><title>n_36</title></circle><text x="0" y="-7" id="n_36" class="label_UhHpXWIL" transform="translate(293.1599001828297,354.254162473623)" cx="293.1599001828297" cy="354.254162473623">n_36</text></g><g><circle id="n_37" r="5" fill="#99ccff" cx="190.56008212632617" cy="430.3741283627489"><title>n_37</title></circle><text x="0" y="-7" id="n_37" class="label_UhHpXWIL" transform="translate(190.56008212632617,430.3741283627489)" cx="190.56008212632617" cy="430.3741283627489">n_37</text></g><g><circle id="n_38" r="5" fill="#99ccff" cx="328.1584641223408" cy="229.7930202445671"><title>n_38</title></circle><text x="0" y="-7" id="n_38" class="label_UhHpXWIL" transform="translate(328.1584641223408,229.7930202445671)" cx="328.1584641223408" cy="229.7930202445671">n_38</text></g><g><circle id="n_39" r="5" fill="#99ccff" cx="374.17796080871443" cy="385.5318291915029"><title>n_39</title></circle><text x="0" y="-7" id="n_39" class="label_UhHpXWIL" transform="translate(374.17796080871443,385.5318291915029)" cx="374.17796080871443" cy="385.5318291915029">n_39</text></g><g><circle id="n_40" r="5" fill="#99ccff" cx="270.8867860223226" cy="269.3826937813582"><title>n_40</title></circle><text x="0" y="-7" id="n_40" class="label_UhHpXWIL" transform="translate(270.8867860223226,269.3826937813582)" cx="270.8867860223226" cy="269.3826937813582">n_40</text></g><g><circle id="n_41" r="5" fill="#99ccff" cx="314.6389395420634" cy="271.91849947785227"><title>n_41</title></circle><text x="0" y="-7" id="n_41" class="label_UhHpXWIL" transform="translate(314.6389395420634,271.91849947785227)" cx="314.6389395420634" cy="271.91849947785227">n_41</text></g><g><circle id="n_42" r="5" fill="#99ccff" cx="223.41998258418369" cy="425.65907810630506"><title>n_42</title></circle><text x="0" y="-7" id="n_42" class="label_UhHpXWIL" transform="translate(223.41998258418369,425.65907810630506)" cx="223.41998258418369" cy="425.65907810630506">n_42</text></g><g><circle id="n_43" r="5" fill="#99ccff" cx="175.83867952825048" cy="385.738961178138"><title>n_43</title></circle><text x="0" y="-7" id="n_43" class="label_UhHpXWIL" transform="translate(175.83867952825048,385.738961178138)" cx="175.83867952825048" cy="385.738961178138">n_43</text></g><g><circle id="n_44" r="5" fill="#99ccff" cx="236.8022640551087" cy="178.0163068735077"><title>n_44</title></circle><text x="0" y="-7" id="n_44" class="label_UhHpXWIL" transform="translate(236.8022640551087,178.0163068735077)" cx="236.8022640551087" cy="178.0163068735077">n_44</text></g><g><circle id="n_45" r="5" fill="#99ccff" cx="260.5900417162011" cy="374.3458499247597"><title>n_45</title></circle><text x="0" y="-7" id="n_45" class="label_UhHpXWIL" transform="translate(260.5900417162011,374.3458499247597)" cx="260.5900417162011" cy="374.3458499247597">n_45</text></g><g><circle id="n_46" r="5" fill="#99ccff" cx="382.66778325863163" cy="184.2905675535767"><title>n_46</title></circle><text x="0" y="-7" id="n_46" class="label_UhHpXWIL" transform="translate(382.66778325863163,184.2905675535767)" cx="382.66778325863163" cy="184.2905675535767">n_46</text></g><g><circle id="n_47" r="5" fill="#99ccff" cx="261.19395370179694" cy="343.9044936415207"><title>n_47</title></circle><text x="0" y="-7" id="n_47" class="label_UhHpXWIL" transform="translate(261.19395370179694,343.9044936415207)" cx="261.19395370179694" cy="343.9044936415207">n_47</text></g><g><circle id="n_48" r="5" fill="#99ccff" cx="151.26835559950766" cy="419.4823464968007"><title>n_48</title></circle><text x="0" y="-7" id="n_48" class="label_UhHpXWIL" transform="translate(151.26835559950766,419.4823464968007)" cx="151.26835559950766" cy="419.4823464968007">n_48</text></g><g><circle id="n_49" r="5" fill="#99ccff" cx="410.6121417131093" cy="162.9773092959797"><title>n_49</title></circle><text x="0" y="-7" id="n_49" class="label_UhHpXWIL" transform="translate(410.6121417131093,162.9773092959797)" cx="410.6121417131093" cy="162.9773092959797">n_49</text></g><g><circle id="n_50" r="5" fill="#99ccff" cx="344.2813187813223" cy="396.0545824429787"><title>n_50</title></circle><text x="0" y="-7" id="n_50" class="label_UhHpXWIL" transform="translate(344.2813187813223,396.0545824429787)" cx="344.2813187813223" cy="396.0545824429787">n_50</text></g><g><circle id="n_51" r="5" fill="#99ccff" cx="373.6100672748965" cy="323.69943829054984"><title>n_51</title></circle><text x="0" y="-7" id="n_51" class="label_UhHpXWIL" transform="translate(373.6100672748965,323.69943829054984)" cx="373.6100672748965" cy="323.69943829054984">n_51</text></g><g><circle id="n_52" r="5" fill="#99ccff" cx="405.46962871039574" cy="331.15480011919664"><title>n_52</title></circle><text x="0" y="-7" id="n_52" class="label_UhHpXWIL" transform="translate(405.46962871039574,331.15480011919664)" cx="405.46962871039574" cy="331.15480011919664">n_52</text></g><g><circle id="n_53" r="5" fill="#99ccff" cx="327.7743007983955" cy="196.51797654450965"><title>n_53</title></circle><text x="0" y="-7" id="n_53" class="label_UhHpXWIL" transform="translate(327.7743007983955,196.51797654450965)" cx="327.7743007983955" cy="196.51797654450965">n_53</text></g></g></g></svg>