<svg xmlns="http://www.w3.org/2000/svg" width="600" height="600" id="ixzGxyWs">        
    <text x="20" y="20" font-family="sans-serif" font-size="14px" fill="#666" style="cursor: pointer" id="ixzGxyWs_svg_txt">[save svg]</text>
<defs><marker id="end" viewBox="0 -5 20 20" refX="34" refY="0" markerWidth="15" markerHeight="15" orient="auto"><path d="M0,-5 L20,0 L0,5 z" fill="#999" stroke="none"/></marker></defs><g class="everything"><g class="links_ixzGxyWs"><line stroke-width="0.08713692946058092" stroke="#999999" x1="301.5228148594697" y1="297.04345189873817" x2="351.5937717192365" y2="315.4176197644731"/><line stroke-width="0.07468879668049792" stroke="#999999" x1="301.5228148594697" y1="297.04345189873817" x2="234.79391308526684" y2="342.5190305403767"/><line stroke-width="0.05394190871369295" stroke="#999999" x1="301.5228148594697" y1="297.04345189873817" x2="355.05757816255806" y2="347.51181030995104"/><line stroke-width="0.17427385892116182" stroke="#999999" x1="301.5228148594697" y1="297.04345189873817" x2="229.39329357325576" y2="245.2222209089659"/><line stroke-width="0.024896265560165973" stroke="#999999" x1="301.5228148594697" y1="297.04345189873817" x2="347.89692368799757" y2="226.99383828418675"/><line stroke-width="0.07468879668049792" stroke="#999999" x1="301.5228148594697" y1="297.04345189873817" x2="289.7036521526369" y2="386.2014964418206"/><line stroke-width="0.11410788381742738" stroke="#999999" x1="301.5228148594697" y1="297.04345189873817" x2="314.49119698772824" y2="238.77606321207824"/><line stroke-width="0.043568464730290454" stroke="#999999" x1="301.5228148594697" y1="297.04345189873817" x2="387.2165466441561" y2="317.87273549101394"/><line stroke-width="0.06016597510373444" stroke="#999999" x1="301.5228148594697" y1="297.04345189873817" x2="252.09358946679075" y2="375.4362733365038"/><line stroke-width="0.01037344398340249" stroke="#999999" x1="301.5228148594697" y1="297.04345189873817" x2="339.1848905601629" y2="280.38737945311027"/><line stroke-width="0.17427385892116182" stroke="#999999" x1="301.5228148594697" y1="297.04345189873817" x2="252.2519062626297" y2="265.83229933673374"/><line stroke-width="0.22199170124481327" stroke="#999999" x1="301.5228148594697" y1="297.04345189873817" x2="266.4316915507445" y2="223.30576275625623"/><line stroke-width="0.06016597510373444" stroke="#999999" x1="301.5228148594697" y1="297.04345189873817" x2="276.54553630564465" y2="340.71288455470585"/><line stroke-width="0.9999999999999999" stroke="#999999" x1="351.5937717192365" y1="315.4176197644731" x2="301.5228148594697" y2="297.04345189873817"/><line stroke-width="0.3333333333333333" stroke="#999999" x1="351.5937717192365" y1="315.4176197644731" x2="355.05757816255806" y2="347.51181030995104"/><line stroke-width="0.3333333333333333" stroke="#999999" x1="351.5937717192365" y1="315.4176197644731" x2="387.2165466441561" y2="317.87273549101394"/><line stroke-width="1" stroke="#999999" x1="234.79391308526684" y1="342.5190305403767" x2="301.5228148594697" y2="297.04345189873817"/><line stroke-width="1" stroke="#999999" x1="234.79391308526684" y1="342.5190305403767" x2="289.7036521526369" y2="386.2014964418206"/><line stroke-width="0.5" stroke="#999999" x1="234.79391308526684" y1="342.5190305403767" x2="252.09358946679075" y2="375.4362733365038"/><line stroke-width="0.5" stroke="#999999" x1="234.79391308526684" y1="342.5190305403767" x2="276.54553630564465" y2="340.71288455470585"/><line stroke-width="0.8888888888888888" stroke="#999999" x1="355.05757816255806" y1="347.51181030995104" x2="301.5228148594697" y2="297.04345189873817"/><line stroke-width="0.2222222222222222" stroke="#999999" x1="355.05757816255806" y1="347.51181030995104" x2="351.5937717192365" y2="315.4176197644731"/><line stroke-width="0.2222222222222222" stroke="#999999" x1="355.05757816255806" y1="347.51181030995104" x2="387.2165466441561" y2="317.87273549101394"/><line stroke-width="1" stroke="#999999" x1="229.39329357325576" y1="245.2222209089659" x2="301.5228148594697" y2="297.04345189873817"/><line stroke-width="1" stroke="#999999" x1="229.39329357325576" y1="245.2222209089659" x2="252.2519062626297" y2="265.83229933673374"/><line stroke-width="1" stroke="#999999" x1="229.39329357325576" y1="245.2222209089659" x2="266.4316915507445" y2="223.30576275625623"/><line stroke-width="1" stroke="#999999" x1="347.89692368799757" y1="226.99383828418675" x2="301.5228148594697" y2="297.04345189873817"/><line stroke-width="1" stroke="#999999" x1="347.89692368799757" y1="226.99383828418675" x2="314.49119698772824" y2="238.77606321207824"/><line stroke-width="1" stroke="#999999" x1="289.7036521526369" y1="386.2014964418206" x2="301.5228148594697" y2="297.04345189873817"/><line stroke-width="1" stroke="#999999" x1="289.7036521526369" y1="386.2014964418206" x2="234.79391308526684" y2="342.5190305403767"/><line stroke-width="0.6666666666666666" stroke="#999999" x1="289.7036521526369" y1="386.2014964418206" x2="252.09358946679075" y2="375.4362733365038"/><line stroke-width="0.6666666666666666" stroke="#999999" x1="289.7036521526369" y1="386.2014964418206" x2="276.54553630564465" y2="340.71288455470585"/><line stroke-width="1" stroke="#999999" x1="314.49119698772824" y1="238.77606321207824" x2="301.5228148594697" y2="297.04345189873817"/><line stroke-width="0.5" stroke="#999999" x1="314.49119698772824" y1="238.77606321207824" x2="347.89692368799757" y2="226.99383828418675"/><line stroke-width="1" stroke="#999999" x1="387.2165466441561" y1="317.87273549101394" x2="301.5228148594697" y2="297.04345189873817"/><line stroke-width="0.6666666666666666" stroke="#999999" x1="387.2165466441561" y1="317.87273549101394" x2="351.5937717192365" y2="315.4176197644731"/><line stroke-width="0.6666666666666666" stroke="#999999" x1="387.2165466441561" y1="317.87273549101394" x2="355.05757816255806" y2="347.51181030995104"/><line stroke-width="1" stroke="#999999" x1="252.09358946679075" y1="375.4362733365038" x2="301.5228148594697" y2="297.04345189873817"/><line stroke-width="1" stroke="#999999" x1="252.09358946679075" y1="375.4362733365038" x2="234.79391308526684" y2="342.5190305403767"/><line stroke-width="1" stroke="#999999" x1="252.09358946679075" y1="375.4362733365038" x2="289.7036521526369" y2="386.2014964418206"/><line stroke-width="1" stroke="#999999" x1="252.09358946679075" y1="375.4362733365038" x2="276.54553630564465" y2="340.71288455470585"/><line stroke-width="1" stroke="#999999" x1="339.1848905601629" y1="280.38737945311027" x2="301.5228148594697" y2="297.04345189873817"/><line stroke-width="1" stroke="#999999" x1="252.2519062626297" y1="265.83229933673374" x2="301.5228148594697" y2="297.04345189873817"/><line stroke-width="1" stroke="#999999" x1="252.2519062626297" y1="265.83229933673374" x2="229.39329357325576" y2="245.2222209089659"/><line stroke-width="1" stroke="#999999" x1="252.2519062626297" y1="265.83229933673374" x2="266.4316915507445" y2="223.30576275625623"/><line stroke-width="1" stroke="#999999" x1="266.4316915507445" y1="223.30576275625623" x2="301.5228148594697" y2="297.04345189873817"/><line stroke-width="0.6666666666666666" stroke="#999999" x1="266.4316915507445" y1="223.30576275625623" x2="229.39329357325576" y2="245.2222209089659"/><line stroke-width="0.6666666666666666" stroke="#999999" x1="266.4316915507445" y1="223.30576275625623" x2="252.2519062626297" y2="265.83229933673374"/><line stroke-width="1" stroke="#999999" x1="276.54553630564465" y1="340.71288455470585" x2="301.5228148594697" y2="297.04345189873817"/><line stroke-width="1" stroke="#999999" x1="276.54553630564465" y1="340.71288455470585" x2="234.79391308526684" y2="342.5190305403767"/><line stroke-width="1" stroke="#999999" x1="276.54553630564465" y1="340.71288455470585" x2="289.7036521526369" y2="386.2014964418206"/><line stroke-width="1" stroke="#999999" x1="276.54553630564465" y1="340.71288455470585" x2="252.09358946679075" y2="375.4362733365038"/></g><g class="nodes_ixzGxyWs"><g><circle id="n_1" r="5" fill="#99ccff" cx="301.5228148594697" cy="297.04345189873817"><title>n_1</title></circle><text x="0" y="-7" id="n_1" class="label_ixzGxyWs" transform="translate(301.5228148594697,297.04345189873817)" cx="301.5228148594697" cy="297.04345189873817">n_1</text></g><g><circle id="n_8" r="5" fill="#99ccff" cx="351.5937717192365" cy="315.4176197644731"><title>n_8</title></circle><text x="0" y="-7" id="n_8" class="label_ixzGxyWs" transform="translate(351.5937717192365,315.4176197644731)" cx="351.5937717192365" cy="315.4176197644731">n_8</text></g><g><circle id="n_9" r="5" fill="#99ccff" cx="234.79391308526684" cy="342.5190305403767"><title>n_9</title></circle><text x="0" y="-7" id="n_9" class="label_ixzGxyWs" transform="translate(234.79391308526684,342.5190305403767)" cx="234.79391308526684" cy="342.5190305403767">n_9</text></g><g><circle id="n_10" r="5" fill="#99ccff" cx="355.05757816255806" cy="347.51181030995104"><title>n_10</title></circle><text x="0" y="-7" id="n_10" class="label_ixzGxyWs" transform="translate(355.05757816255806,347.51181030995104)" cx="355.05757816255806" cy="347.51181030995104">n_10</text></g><g><circle id="n_11" r="5" fill="#99ccff" cx="229.39329357325576" cy="245.2222209089659"><title>n_11</title></circle><text x="0" y="-7" id="n_11" class="label_ixzGxyWs" transform="translate(229.39329357325576,245.2222209089659)" cx="229.39329357325576" cy="245.2222209089659">n_11</text></g><g><circle id="n_12" r="5" fill="#99ccff" cx="347.89692368799757" cy="226.99383828418675"><title>n_12</title></circle><text x="0" y="-7" id="n_12" class="label_ixzGxyWs" transform="translate(347.89692368799757,226.99383828418675)" cx="347.89692368799757" cy="226.99383828418675">n_12</text></g><g><circle id="n_13" r="5" fill="#99ccff" cx="289.7036521526369" cy="386.2014964418206"><title>n_13</title></circle><text x="0" y="-7" id="n_13" class="label_ixzGxyWs" transform="translate(289.7036521526369,386.2014964418206)" cx="289.7036521526369" cy="386.2014964418206">n_13</text></g><g><circle id="n_14" r="5" fill="#99ccff" cx="314.49119698772824" cy="238.77606321207824"><title>n_14</title></circle><text x="0" y="-7" id="n_14" class="label_ixzGxyWs" transform="translate(314.49119698772824,238.77606321207824)" cx="314.49119698772824" cy="238.77606321207824">n_14</text></g><g><circle id="n_15" r="5" fill="#99ccff" cx="387.2165466441561" cy="317.87273549101394"><title>n_15</title></circle><text x="0" y="-7" id="n_15" class="label_ixzGxyWs" transform="translate(387.2165466441561,317.87273549101394)" cx="387.2165466441561" cy="317.87273549101394">n_15</text></g><g><circle id="n_16" r="5" fill="#99ccff" cx="252.09358946679075" cy="375.4362733365038"><title>n_16</title></circle><text x="0" y="-7" id="n_16" class="label_ixzGxyWs" transform="translate(252.09358946679075,375.4362733365038)" cx="252.09358946679075" cy="375.4362733365038">n_16</text></g><g><circle id="n_17" r="5" fill="#99ccff" cx="339.1848905601629" cy="280.38737945311027"><title>n_17</title></circle><text x="0" y="-7" id="n_17" class="label_ixzGxyWs" transform="translate(339.1848905601629,280.38737945311027)" cx="339.1848905601629" cy="280.38737945311027">n_17</text></g><g><circle id="n_18" r="5" fill="#99ccff" cx="252.2519062626297" cy="265.83229933673374"><title>n_18</title></circle><text x="0" y="-7" id="n_18" class="label_ixzGxyWs" transform="translate(252.2519062626297,265.83229933673374)" cx="252.2519062626297" cy="265.83229933673374">n_18</text></g><g><circle id="n_2" r="5" fill="#99ccff" cx="266.4316915507445" cy="223.30576275625623"><title>n_2</title></circle><text x="0" y="-7" id="n_2" class="label_ixzGxyWs" transform="translate(266.4316915507445,223.30576275625623)" cx="266.4316915507445" cy="223.30576275625623">n_2</text></g><g><circle id="n_19" r="5" fill="#99ccff" cx="276.54553630564465" cy="340.71288455470585"><title>n_19</title></circle><text x="0" y="-7" id="n_19" class="label_ixzGxyWs" transform="translate(276.54553630564465,340.71288455470585)" cx="276.54553630564465" cy="340.71288455470585">n_19</text></g></g></g></svg>