<svg xmlns="http://www.w3.org/2000/svg" width="600" height="600" id="VhEUglvD">        
    <text x="20" y="20" font-family="sans-serif" font-size="14px" fill="#666" style="cursor: pointer" id="VhEUglvD_svg_txt">[save svg]</text>
<defs><marker id="end" viewBox="0 -5 20 20" refX="34" refY="0" markerWidth="15" markerHeight="15" orient="auto"><path d="M0,-5 L20,0 L0,5 z" fill="#999" stroke="none"/></marker></defs><g class="everything"><g class="links_VhEUglvD"><line stroke-width="0.07524271844660194" stroke="#999999" x1="298.786040766557" y1="296.8536421485162" x2="288.65383744463463" y2="345.812344873441"/><line stroke-width="0.08009708737864077" stroke="#999999" x1="298.786040766557" y1="296.8536421485162" x2="317.00419383596136" y2="254.64039378622522"/><line stroke-width="0.04854368932038835" stroke="#999999" x1="298.786040766557" y1="296.8536421485162" x2="335.1836467152283" y2="332.5992346539084"/><line stroke-width="0.1941747572815534" stroke="#999999" x1="298.786040766557" y1="296.8536421485162" x2="260.6509351454165" y2="271.05879287001153"/><line stroke-width="1" stroke="#999999" x1="288.65383744463463" y1="345.812344873441" x2="298.786040766557" y2="296.8536421485162"/><line stroke-width="0.5" stroke="#999999" x1="288.65383744463463" y1="345.812344873441" x2="335.1836467152283" y2="332.5992346539084"/><line stroke-width="1" stroke="#999999" x1="317.00419383596136" y1="254.64039378622522" x2="298.786040766557" y2="296.8536421485162"/><line stroke-width="0.8888888888888888" stroke="#999999" x1="335.1836467152283" y1="332.5992346539084" x2="298.786040766557" y2="296.8536421485162"/><line stroke-width="0.2222222222222222" stroke="#999999" x1="335.1836467152283" y1="332.5992346539084" x2="288.65383744463463" y2="345.812344873441"/><line stroke-width="1" stroke="#999999" x1="260.6509351454165" y1="271.05879287001153" x2="298.786040766557" y2="296.8536421485162"/></g><g class="nodes_VhEUglvD"><g><circle id="n_1" r="5" fill="#99ccff" cx="298.786040766557" cy="296.8536421485162"><title>n_1</title></circle><text x="0" y="-7" id="n_1" class="label_VhEUglvD" transform="translate(298.786040766557,296.8536421485162)" cx="298.786040766557" cy="296.8536421485162">n_1</text></g><g><circle id="n_8" r="5" fill="#99ccff" cx="288.65383744463463" cy="345.812344873441"><title>n_8</title></circle><text x="0" y="-7" id="n_8" class="label_VhEUglvD" transform="translate(288.65383744463463,345.812344873441)" cx="288.65383744463463" cy="345.812344873441">n_8</text></g><g><circle id="n_9" r="5" fill="#99ccff" cx="317.00419383596136" cy="254.64039378622522"><title>n_9</title></circle><text x="0" y="-7" id="n_9" class="label_VhEUglvD" transform="translate(317.00419383596136,254.64039378622522)" cx="317.00419383596136" cy="254.64039378622522">n_9</text></g><g><circle id="n_10" r="5" fill="#99ccff" cx="335.1836467152283" cy="332.5992346539084"><title>n_10</title></circle><text x="0" y="-7" id="n_10" class="label_VhEUglvD" transform="translate(335.1836467152283,332.5992346539084)" cx="335.1836467152283" cy="332.5992346539084">n_10</text></g><g><circle id="n_11" r="5" fill="#99ccff" cx="260.6509351454165" cy="271.05879287001153"><title>n_11</title></circle><text x="0" y="-7" id="n_11" class="label_VhEUglvD" transform="translate(260.6509351454165,271.05879287001153)" cx="260.6509351454165" cy="271.05879287001153">n_11</text></g></g></g></svg>