<svg xmlns="http://www.w3.org/2000/svg" width="600" height="600" id="CfeTLMUc">        
    <text x="20" y="20" font-family="sans-serif" font-size="14px" fill="#666" style="cursor: pointer" id="CfeTLMUc_svg_txt">[save svg]</text>
<defs><marker id="end" viewBox="0 -5 20 20" refX="34" refY="0" markerWidth="15" markerHeight="15" orient="auto"><path d="M0,-5 L20,0 L0,5 z" fill="#999" stroke="none"/></marker></defs><g class="everything"><g class="links_CfeTLMUc"><line stroke-width="0.18435754189944134" stroke="#999999" x1="302.0510304533558" y1="297.9102399903834" x2="318.989893642379" y2="350.7424323305211"/><line stroke-width="0.2108938547486033" stroke="#999999" x1="302.0510304533558" y1="297.9102399903834" x2="225.6359196165802" y2="328.64924597462783"/><line stroke-width="0.06564245810055866" stroke="#999999" x1="302.0510304533558" y1="297.9102399903834" x2="370.2911212964393" y2="350.46697476617663"/><line stroke-width="0.138268156424581" stroke="#999999" x1="302.0510304533558" y1="297.9102399903834" x2="245.00826469615657" y2="250.64808400634556"/><line stroke-width="0.16899441340782123" stroke="#999999" x1="302.0510304533558" y1="297.9102399903834" x2="265.0066639902354" y2="283.37295617238686"/><line stroke-width="0.08519553072625698" stroke="#999999" x1="302.0510304533558" y1="297.9102399903834" x2="235.2779523011772" y2="377.6387411649027"/><line stroke-width="0.11173184357541899" stroke="#999999" x1="302.0510304533558" y1="297.9102399903834" x2="270.3436626913102" y2="323.4348503032149"/><line stroke-width="0.05027932960893855" stroke="#999999" x1="302.0510304533558" y1="297.9102399903834" x2="370.2461607868882" y2="384.27861661303825"/><line stroke-width="0.061452513966480445" stroke="#999999" x1="302.0510304533558" y1="297.9102399903834" x2="205.4713469197707" y2="367.74902712033696"/><line stroke-width="0.013966480446927373" stroke="#999999" x1="302.0510304533558" y1="297.9102399903834" x2="377.3927820100286" y2="313.92484200801357"/><line stroke-width="0.138268156424581" stroke="#999999" x1="302.0510304533558" y1="297.9102399903834" x2="197.26072199072837" y2="261.30274531147074"/><line stroke-width="0.18156424581005587" stroke="#999999" x1="302.0510304533558" y1="297.9102399903834" x2="213.27336337770427" y2="230.6475500657787"/><line stroke-width="0.061452513966480445" stroke="#999999" x1="302.0510304533558" y1="297.9102399903834" x2="266.40227078041283" y2="383.39858354769353"/><line stroke-width="0.0111731843575419" stroke="#999999" x1="302.0510304533558" y1="297.9102399903834" x2="324.4301478186826" y2="272.26911011404064"/><line stroke-width="0.138268156424581" stroke="#999999" x1="302.0510304533558" y1="297.9102399903834" x2="244.62504586744157" y2="205.53240106731903"/><line stroke-width="0.06843575418994413" stroke="#999999" x1="302.0510304533558" y1="297.9102399903834" x2="342.25714813646493" y2="320.87723184924107"/><line stroke-width="0.025139664804469275" stroke="#999999" x1="302.0510304533558" y1="297.9102399903834" x2="389.56563696215545" y2="279.22921471106247"/><line stroke-width="0.04888268156424581" stroke="#999999" x1="302.0510304533558" y1="297.9102399903834" x2="326.7961453423918" y2="228.40028553177424"/><line stroke-width="0.02653631284916201" stroke="#999999" x1="302.0510304533558" y1="297.9102399903834" x2="332.02385265501954" y2="387.63239403764095"/><line stroke-width="0.018156424581005588" stroke="#999999" x1="302.0510304533558" y1="297.9102399903834" x2="331.24541610861326" y2="197.84304389057178"/><line stroke-width="0.02653631284916201" stroke="#999999" x1="302.0510304533558" y1="297.9102399903834" x2="410.55905449377394" y2="254.17837540985016"/><line stroke-width="0.018156424581005588" stroke="#999999" x1="302.0510304533558" y1="297.9102399903834" x2="298.74050601828895" y2="195.86108129503933"/><line stroke-width="0.025139664804469275" stroke="#999999" x1="302.0510304533558" y1="297.9102399903834" x2="375.32732518046254" y2="240.9974715084741"/><line stroke-width="0.061452513966480445" stroke="#999999" x1="302.0510304533558" y1="297.9102399903834" x2="261.59983599592545" y2="412.9230364760425"/><line stroke-width="1" stroke="#999999" x1="318.989893642379" y1="350.7424323305211" x2="302.0510304533558" y2="297.9102399903834"/><line stroke-width="0.11764705882352941" stroke="#999999" x1="318.989893642379" y1="350.7424323305211" x2="225.6359196165802" y2="328.64924597462783"/><line stroke-width="0.29411764705882354" stroke="#999999" x1="318.989893642379" y1="350.7424323305211" x2="370.2911212964393" y2="350.46697476617663"/><line stroke-width="0.11764705882352941" stroke="#999999" x1="318.989893642379" y1="350.7424323305211" x2="265.0066639902354" y2="283.37295617238686"/><line stroke-width="0.11764705882352941" stroke="#999999" x1="318.989893642379" y1="350.7424323305211" x2="270.3436626913102" y2="323.4348503032149"/><line stroke-width="0.29411764705882354" stroke="#999999" x1="318.989893642379" y1="350.7424323305211" x2="370.2461607868882" y2="384.27861661303825"/><line stroke-width="0.11764705882352941" stroke="#999999" x1="318.989893642379" y1="350.7424323305211" x2="342.25714813646493" y2="320.87723184924107"/><line stroke-width="0.29411764705882354" stroke="#999999" x1="318.989893642379" y1="350.7424323305211" x2="332.02385265501954" y2="387.63239403764095"/><line stroke-width="1" stroke="#999999" x1="225.6359196165802" y1="328.64924597462783" x2="302.0510304533558" y2="297.9102399903834"/><line stroke-width="0.2857142857142857" stroke="#999999" x1="225.6359196165802" y1="328.64924597462783" x2="318.989893642379" y2="350.7424323305211"/><line stroke-width="0.42857142857142855" stroke="#999999" x1="225.6359196165802" y1="328.64924597462783" x2="265.0066639902354" y2="283.37295617238686"/><line stroke-width="0.5714285714285714" stroke="#999999" x1="225.6359196165802" y1="328.64924597462783" x2="235.2779523011772" y2="377.6387411649027"/><line stroke-width="0.2857142857142857" stroke="#999999" x1="225.6359196165802" y1="328.64924597462783" x2="270.3436626913102" y2="323.4348503032149"/><line stroke-width="0.2857142857142857" stroke="#999999" x1="225.6359196165802" y1="328.64924597462783" x2="205.4713469197707" y2="367.74902712033696"/><line stroke-width="0.2857142857142857" stroke="#999999" x1="225.6359196165802" y1="328.64924597462783" x2="266.40227078041283" y2="383.39858354769353"/><line stroke-width="0.14285714285714285" stroke="#999999" x1="225.6359196165802" y1="328.64924597462783" x2="326.7961453423918" y2="228.40028553177424"/><line stroke-width="0.2857142857142857" stroke="#999999" x1="225.6359196165802" y1="328.64924597462783" x2="261.59983599592545" y2="412.9230364760425"/><line stroke-width="0.8888888888888888" stroke="#999999" x1="370.2911212964393" y1="350.46697476617663" x2="302.0510304533558" y2="297.9102399903834"/><line stroke-width="0.2222222222222222" stroke="#999999" x1="370.2911212964393" y1="350.46697476617663" x2="318.989893642379" y2="350.7424323305211"/><line stroke-width="0.2222222222222222" stroke="#999999" x1="370.2911212964393" y1="350.46697476617663" x2="370.2461607868882" y2="384.27861661303825"/><line stroke-width="0.2222222222222222" stroke="#999999" x1="370.2911212964393" y1="350.46697476617663" x2="332.02385265501954" y2="387.63239403764095"/><line stroke-width="1" stroke="#999999" x1="245.00826469615657" y1="250.64808400634556" x2="302.0510304533558" y2="297.9102399903834"/><line stroke-width="1" stroke="#999999" x1="245.00826469615657" y1="250.64808400634556" x2="197.26072199072837" y2="261.30274531147074"/><line stroke-width="1" stroke="#999999" x1="245.00826469615657" y1="250.64808400634556" x2="213.27336337770427" y2="230.6475500657787"/><line stroke-width="1" stroke="#999999" x1="245.00826469615657" y1="250.64808400634556" x2="244.62504586744157" y2="205.53240106731903"/><line stroke-width="0.8333333333333333" stroke="#999999" x1="265.0066639902354" y1="283.37295617238686" x2="302.0510304533558" y2="297.9102399903834"/><line stroke-width="0.5" stroke="#999999" x1="265.0066639902354" y1="283.37295617238686" x2="318.989893642379" y2="350.7424323305211"/><line stroke-width="0.6666666666666666" stroke="#999999" x1="265.0066639902354" y1="283.37295617238686" x2="225.6359196165802" y2="328.64924597462783"/><line stroke-width="0.5" stroke="#999999" x1="265.0066639902354" y1="283.37295617238686" x2="270.3436626913102" y2="323.4348503032149"/><line stroke-width="0.16666666666666666" stroke="#999999" x1="265.0066639902354" y1="283.37295617238686" x2="213.27336337770427" y2="230.6475500657787"/><line stroke-width="0.16666666666666666" stroke="#999999" x1="265.0066639902354" y1="283.37295617238686" x2="326.7961453423918" y2="228.40028553177424"/><line stroke-width="1" stroke="#999999" x1="235.2779523011772" y1="377.6387411649027" x2="302.0510304533558" y2="297.9102399903834"/><line stroke-width="1" stroke="#999999" x1="235.2779523011772" y1="377.6387411649027" x2="225.6359196165802" y2="328.64924597462783"/><line stroke-width="0.6666666666666666" stroke="#999999" x1="235.2779523011772" y1="377.6387411649027" x2="205.4713469197707" y2="367.74902712033696"/><line stroke-width="0.6666666666666666" stroke="#999999" x1="235.2779523011772" y1="377.6387411649027" x2="266.40227078041283" y2="383.39858354769353"/><line stroke-width="0.6666666666666666" stroke="#999999" x1="235.2779523011772" y1="377.6387411649027" x2="261.59983599592545" y2="412.9230364760425"/><line stroke-width="1" stroke="#999999" x1="270.3436626913102" y1="323.4348503032149" x2="302.0510304533558" y2="297.9102399903834"/><line stroke-width="1" stroke="#999999" x1="270.3436626913102" y1="323.4348503032149" x2="318.989893642379" y2="350.7424323305211"/><line stroke-width="1" stroke="#999999" x1="270.3436626913102" y1="323.4348503032149" x2="225.6359196165802" y2="328.64924597462783"/><line stroke-width="1" stroke="#999999" x1="270.3436626913102" y1="323.4348503032149" x2="265.0066639902354" y2="283.37295617238686"/><line stroke-width="1" stroke="#999999" x1="370.2461607868882" y1="384.27861661303825" x2="302.0510304533558" y2="297.9102399903834"/><line stroke-width="0.6666666666666666" stroke="#999999" x1="370.2461607868882" y1="384.27861661303825" x2="318.989893642379" y2="350.7424323305211"/><line stroke-width="0.6666666666666666" stroke="#999999" x1="370.2461607868882" y1="384.27861661303825" x2="370.2911212964393" y2="350.46697476617663"/><line stroke-width="0.6666666666666666" stroke="#999999" x1="370.2461607868882" y1="384.27861661303825" x2="332.02385265501954" y2="387.63239403764095"/><line stroke-width="1" stroke="#999999" x1="205.4713469197707" y1="367.74902712033696" x2="302.0510304533558" y2="297.9102399903834"/><line stroke-width="1" stroke="#999999" x1="205.4713469197707" y1="367.74902712033696" x2="225.6359196165802" y2="328.64924597462783"/><line stroke-width="1" stroke="#999999" x1="205.4713469197707" y1="367.74902712033696" x2="235.2779523011772" y2="377.6387411649027"/><line stroke-width="1" stroke="#999999" x1="205.4713469197707" y1="367.74902712033696" x2="266.40227078041283" y2="383.39858354769353"/><line stroke-width="1" stroke="#999999" x1="205.4713469197707" y1="367.74902712033696" x2="261.59983599592545" y2="412.9230364760425"/><line stroke-width="1" stroke="#999999" x1="377.3927820100286" y1="313.92484200801357" x2="302.0510304533558" y2="297.9102399903834"/><line stroke-width="1" stroke="#999999" x1="377.3927820100286" y1="313.92484200801357" x2="342.25714813646493" y2="320.87723184924107"/><line stroke-width="1" stroke="#999999" x1="197.26072199072837" y1="261.30274531147074" x2="302.0510304533558" y2="297.9102399903834"/><line stroke-width="1" stroke="#999999" x1="197.26072199072837" y1="261.30274531147074" x2="245.00826469615657" y2="250.64808400634556"/><line stroke-width="1" stroke="#999999" x1="197.26072199072837" y1="261.30274531147074" x2="213.27336337770427" y2="230.6475500657787"/><line stroke-width="1" stroke="#999999" x1="197.26072199072837" y1="261.30274531147074" x2="244.62504586744157" y2="205.53240106731903"/><line stroke-width="1" stroke="#999999" x1="213.27336337770427" y1="230.6475500657787" x2="302.0510304533558" y2="297.9102399903834"/><line stroke-width="0.6666666666666666" stroke="#999999" x1="213.27336337770427" y1="230.6475500657787" x2="245.00826469615657" y2="250.64808400634556"/><line stroke-width="0.3333333333333333" stroke="#999999" x1="213.27336337770427" y1="230.6475500657787" x2="265.0066639902354" y2="283.37295617238686"/><line stroke-width="0.6666666666666666" stroke="#999999" x1="213.27336337770427" y1="230.6475500657787" x2="197.26072199072837" y2="261.30274531147074"/><line stroke-width="0.6666666666666666" stroke="#999999" x1="213.27336337770427" y1="230.6475500657787" x2="244.62504586744157" y2="205.53240106731903"/><line stroke-width="1" stroke="#999999" x1="266.40227078041283" y1="383.39858354769353" x2="302.0510304533558" y2="297.9102399903834"/><line stroke-width="1" stroke="#999999" x1="266.40227078041283" y1="383.39858354769353" x2="225.6359196165802" y2="328.64924597462783"/><line stroke-width="1" stroke="#999999" x1="266.40227078041283" y1="383.39858354769353" x2="235.2779523011772" y2="377.6387411649027"/><line stroke-width="1" stroke="#999999" x1="266.40227078041283" y1="383.39858354769353" x2="205.4713469197707" y2="367.74902712033696"/><line stroke-width="1" stroke="#999999" x1="266.40227078041283" y1="383.39858354769353" x2="261.59983599592545" y2="412.9230364760425"/><line stroke-width="1" stroke="#999999" x1="324.4301478186826" y1="272.26911011404064" x2="302.0510304533558" y2="297.9102399903834"/><line stroke-width="1" stroke="#999999" x1="244.62504586744157" y1="205.53240106731903" x2="302.0510304533558" y2="297.9102399903834"/><line stroke-width="1" stroke="#999999" x1="244.62504586744157" y1="205.53240106731903" x2="245.00826469615657" y2="250.64808400634556"/><line stroke-width="1" stroke="#999999" x1="244.62504586744157" y1="205.53240106731903" x2="197.26072199072837" y2="261.30274531147074"/><line stroke-width="1" stroke="#999999" x1="244.62504586744157" y1="205.53240106731903" x2="213.27336337770427" y2="230.6475500657787"/><line stroke-width="1" stroke="#999999" x1="342.25714813646493" y1="320.87723184924107" x2="302.0510304533558" y2="297.9102399903834"/><line stroke-width="0.2" stroke="#999999" x1="342.25714813646493" y1="320.87723184924107" x2="318.989893642379" y2="350.7424323305211"/><line stroke-width="0.2" stroke="#999999" x1="342.25714813646493" y1="320.87723184924107" x2="377.3927820100286" y2="313.92484200801357"/><line stroke-width="1" stroke="#999999" x1="389.56563696215545" y1="279.22921471106247" x2="302.0510304533558" y2="297.9102399903834"/><line stroke-width="1" stroke="#999999" x1="389.56563696215545" y1="279.22921471106247" x2="410.55905449377394" y2="254.17837540985016"/><line stroke-width="1" stroke="#999999" x1="389.56563696215545" y1="279.22921471106247" x2="375.32732518046254" y2="240.9974715084741"/><line stroke-width="0.9193548387096774" stroke="#999999" x1="326.7961453423918" y1="228.40028553177424" x2="302.0510304533558" y2="297.9102399903834"/><line stroke-width="0.016129032258064516" stroke="#999999" x1="326.7961453423918" y1="228.40028553177424" x2="225.6359196165802" y2="328.64924597462783"/><line stroke-width="0.016129032258064516" stroke="#999999" x1="326.7961453423918" y1="228.40028553177424" x2="265.0066639902354" y2="283.37295617238686"/><line stroke-width="0.6290322580645161" stroke="#999999" x1="326.7961453423918" y1="228.40028553177424" x2="331.24541610861326" y2="197.84304389057178"/><line stroke-width="0.6290322580645161" stroke="#999999" x1="326.7961453423918" y1="228.40028553177424" x2="298.74050601828895" y2="195.86108129503933"/><line stroke-width="1" stroke="#999999" x1="332.02385265501954" y1="387.63239403764095" x2="302.0510304533558" y2="297.9102399903834"/><line stroke-width="1" stroke="#999999" x1="332.02385265501954" y1="387.63239403764095" x2="318.989893642379" y2="350.7424323305211"/><line stroke-width="1" stroke="#999999" x1="332.02385265501954" y1="387.63239403764095" x2="370.2911212964393" y2="350.46697476617663"/><line stroke-width="1" stroke="#999999" x1="332.02385265501954" y1="387.63239403764095" x2="370.2461607868882" y2="384.27861661303825"/><line stroke-width="1" stroke="#999999" x1="331.24541610861326" y1="197.84304389057178" x2="302.0510304533558" y2="297.9102399903834"/><line stroke-width="1" stroke="#999999" x1="331.24541610861326" y1="197.84304389057178" x2="326.7961453423918" y2="228.40028553177424"/><line stroke-width="1" stroke="#999999" x1="331.24541610861326" y1="197.84304389057178" x2="298.74050601828895" y2="195.86108129503933"/><line stroke-width="1" stroke="#999999" x1="410.55905449377394" y1="254.17837540985016" x2="302.0510304533558" y2="297.9102399903834"/><line stroke-width="0.5" stroke="#999999" x1="410.55905449377394" y1="254.17837540985016" x2="389.56563696215545" y2="279.22921471106247"/><line stroke-width="0.5" stroke="#999999" x1="410.55905449377394" y1="254.17837540985016" x2="375.32732518046254" y2="240.9974715084741"/><line stroke-width="1" stroke="#999999" x1="298.74050601828895" y1="195.86108129503933" x2="302.0510304533558" y2="297.9102399903834"/><line stroke-width="1" stroke="#999999" x1="298.74050601828895" y1="195.86108129503933" x2="326.7961453423918" y2="228.40028553177424"/><line stroke-width="1" stroke="#999999" x1="298.74050601828895" y1="195.86108129503933" x2="331.24541610861326" y2="197.84304389057178"/><line stroke-width="1" stroke="#999999" x1="375.32732518046254" y1="240.9974715084741" x2="302.0510304533558" y2="297.9102399903834"/><line stroke-width="1" stroke="#999999" x1="375.32732518046254" y1="240.9974715084741" x2="389.56563696215545" y2="279.22921471106247"/><line stroke-width="1" stroke="#999999" x1="375.32732518046254" y1="240.9974715084741" x2="410.55905449377394" y2="254.17837540985016"/><line stroke-width="1" stroke="#999999" x1="261.59983599592545" y1="412.9230364760425" x2="302.0510304533558" y2="297.9102399903834"/><line stroke-width="1" stroke="#999999" x1="261.59983599592545" y1="412.9230364760425" x2="225.6359196165802" y2="328.64924597462783"/><line stroke-width="1" stroke="#999999" x1="261.59983599592545" y1="412.9230364760425" x2="235.2779523011772" y2="377.6387411649027"/><line stroke-width="1" stroke="#999999" x1="261.59983599592545" y1="412.9230364760425" x2="205.4713469197707" y2="367.74902712033696"/><line stroke-width="1" stroke="#999999" x1="261.59983599592545" y1="412.9230364760425" x2="266.40227078041283" y2="383.39858354769353"/></g><g class="nodes_CfeTLMUc"><g><circle id="n_1" r="5" fill="#99ccff" cx="302.0510304533558" cy="297.9102399903834"><title>n_1</title></circle><text x="0" y="-7" id="n_1" class="label_CfeTLMUc" transform="translate(302.0510304533558,297.9102399903834)" cx="302.0510304533558" cy="297.9102399903834">n_1</text></g><g><circle id="n_8" r="5" fill="#99ccff" cx="318.989893642379" cy="350.7424323305211"><title>n_8</title></circle><text x="0" y="-7" id="n_8" class="label_CfeTLMUc" transform="translate(318.989893642379,350.7424323305211)" cx="318.989893642379" cy="350.7424323305211">n_8</text></g><g><circle id="n_9" r="5" fill="#99ccff" cx="225.6359196165802" cy="328.64924597462783"><title>n_9</title></circle><text x="0" y="-7" id="n_9" class="label_CfeTLMUc" transform="translate(225.6359196165802,328.64924597462783)" cx="225.6359196165802" cy="328.64924597462783">n_9</text></g><g><circle id="n_10" r="5" fill="#99ccff" cx="370.2911212964393" cy="350.46697476617663"><title>n_10</title></circle><text x="0" y="-7" id="n_10" class="label_CfeTLMUc" transform="translate(370.2911212964393,350.46697476617663)" cx="370.2911212964393" cy="350.46697476617663">n_10</text></g><g><circle id="n_11" r="5" fill="#99ccff" cx="245.00826469615657" cy="250.64808400634556"><title>n_11</title></circle><text x="0" y="-7" id="n_11" class="label_CfeTLMUc" transform="translate(245.00826469615657,250.64808400634556)" cx="245.00826469615657" cy="250.64808400634556">n_11</text></g><g><circle id="n_12" r="5" fill="#99ccff" cx="265.0066639902354" cy="283.37295617238686"><title>n_12</title></circle><text x="0" y="-7" id="n_12" class="label_CfeTLMUc" transform="translate(265.0066639902354,283.37295617238686)" cx="265.0066639902354" cy="283.37295617238686">n_12</text></g><g><circle id="n_13" r="5" fill="#99ccff" cx="235.2779523011772" cy="377.6387411649027"><title>n_13</title></circle><text x="0" y="-7" id="n_13" class="label_CfeTLMUc" transform="translate(235.2779523011772,377.6387411649027)" cx="235.2779523011772" cy="377.6387411649027">n_13</text></g><g><circle id="n_14" r="5" fill="#99ccff" cx="270.3436626913102" cy="323.4348503032149"><title>n_14</title></circle><text x="0" y="-7" id="n_14" class="label_CfeTLMUc" transform="translate(270.3436626913102,323.4348503032149)" cx="270.3436626913102" cy="323.4348503032149">n_14</text></g><g><circle id="n_15" r="5" fill="#99ccff" cx="370.2461607868882" cy="384.27861661303825"><title>n_15</title></circle><text x="0" y="-7" id="n_15" class="label_CfeTLMUc" transform="translate(370.2461607868882,384.27861661303825)" cx="370.2461607868882" cy="384.27861661303825">n_15</text></g><g><circle id="n_16" r="5" fill="#99ccff" cx="205.4713469197707" cy="367.74902712033696"><title>n_16</title></circle><text x="0" y="-7" id="n_16" class="label_CfeTLMUc" transform="translate(205.4713469197707,367.74902712033696)" cx="205.4713469197707" cy="367.74902712033696">n_16</text></g><g><circle id="n_17" r="5" fill="#99ccff" cx="377.3927820100286" cy="313.92484200801357"><title>n_17</title></circle><text x="0" y="-7" id="n_17" class="label_CfeTLMUc" transform="translate(377.3927820100286,313.92484200801357)" cx="377.3927820100286" cy="313.92484200801357">n_17</text></g><g><circle id="n_18" r="5" fill="#99ccff" cx="197.26072199072837" cy="261.30274531147074"><title>n_18</title></circle><text x="0" y="-7" id="n_18" class="label_CfeTLMUc" transform="translate(197.26072199072837,261.30274531147074)" cx="197.26072199072837" cy="261.30274531147074">n_18</text></g><g><circle id="n_2" r="5" fill="#99ccff" cx="213.27336337770427" cy="230.6475500657787"><title>n_2</title></circle><text x="0" y="-7" id="n_2" class="label_CfeTLMUc" transform="translate(213.27336337770427,230.6475500657787)" cx="213.27336337770427" cy="230.6475500657787">n_2</text></g><g><circle id="n_19" r="5" fill="#99ccff" cx="266.40227078041283" cy="383.39858354769353"><title>n_19</title></circle><text x="0" y="-7" id="n_19" class="label_CfeTLMUc" transform="translate(266.40227078041283,383.39858354769353)" cx="266.40227078041283" cy="383.39858354769353">n_19</text></g><g><circle id="n_20" r="5" fill="#99ccff" cx="324.4301478186826" cy="272.26911011404064"><title>n_20</title></circle><text x="0" y="-7" id="n_20" class="label_CfeTLMUc" transform="translate(324.4301478186826,272.26911011404064)" cx="324.4301478186826" cy="272.26911011404064">n_20</text></g><g><circle id="n_21" r="5" fill="#99ccff" cx="244.62504586744157" cy="205.53240106731903"><title>n_21</title></circle><text x="0" y="-7" id="n_21" class="label_CfeTLMUc" transform="translate(244.62504586744157,205.53240106731903)" cx="244.62504586744157" cy="205.53240106731903">n_21</text></g><g><circle id="n_22" r="5" fill="#99ccff" cx="342.25714813646493" cy="320.87723184924107"><title>n_22</title></circle><text x="0" y="-7" id="n_22" class="label_CfeTLMUc" transform="translate(342.25714813646493,320.87723184924107)" cx="342.25714813646493" cy="320.87723184924107">n_22</text></g><g><circle id="n_23" r="5" fill="#99ccff" cx="389.56563696215545" cy="279.22921471106247"><title>n_23</title></circle><text x="0" y="-7" id="n_23" class="label_CfeTLMUc" transform="translate(389.56563696215545,279.22921471106247)" cx="389.56563696215545" cy="279.22921471106247">n_23</text></g><g><circle id="n_7" r="5" fill="#99ccff" cx="326.7961453423918" cy="228.40028553177424"><title>n_7</title></circle><text x="0" y="-7" id="n_7" class="label_CfeTLMUc" transform="translate(326.7961453423918,228.40028553177424)" cx="326.7961453423918" cy="228.40028553177424">n_7</text></g><g><circle id="n_24" r="5" fill="#99ccff" cx="332.02385265501954" cy="387.63239403764095"><title>n_24</title></circle><text x="0" y="-7" id="n_24" class="label_CfeTLMUc" transform="translate(332.02385265501954,387.63239403764095)" cx="332.02385265501954" cy="387.63239403764095">n_24</text></g><g><circle id="n_25" r="5" fill="#99ccff" cx="331.24541610861326" cy="197.84304389057178"><title>n_25</title></circle><text x="0" y="-7" id="n_25" class="label_CfeTLMUc" transform="translate(331.24541610861326,197.84304389057178)" cx="331.24541610861326" cy="197.84304389057178">n_25</text></g><g><circle id="n_26" r="5" fill="#99ccff" cx="410.55905449377394" cy="254.17837540985016"><title>n_26</title></circle><text x="0" y="-7" id="n_26" class="label_CfeTLMUc" transform="translate(410.55905449377394,254.17837540985016)" cx="410.55905449377394" cy="254.17837540985016">n_26</text></g><g><circle id="n_27" r="5" fill="#99ccff" cx="298.74050601828895" cy="195.86108129503933"><title>n_27</title></circle><text x="0" y="-7" id="n_27" class="label_CfeTLMUc" transform="translate(298.74050601828895,195.86108129503933)" cx="298.74050601828895" cy="195.86108129503933">n_27</text></g><g><circle id="n_28" r="5" fill="#99ccff" cx="375.32732518046254" cy="240.9974715084741"><title>n_28</title></circle><text x="0" y="-7" id="n_28" class="label_CfeTLMUc" transform="translate(375.32732518046254,240.9974715084741)" cx="375.32732518046254" cy="240.9974715084741">n_28</text></g><g><circle id="n_29" r="5" fill="#99ccff" cx="261.59983599592545" cy="412.9230364760425"><title>n_29</title></circle><text x="0" y="-7" id="n_29" class="label_CfeTLMUc" transform="translate(261.59983599592545,412.9230364760425)" cx="261.59983599592545" cy="412.9230364760425">n_29</text></g></g></g></svg>